<svg xmlns="http://www.w3.org/2000/svg" width="118" height="37.093" viewBox="0 0 118 37.093"><defs><style>.a{fill:#fff;}</style></defs><g transform="translate(0 -7.4)"><path class="a" d="M23.315,23.5C16.216,16.338,8.07,12.269,0,7.4,7.761,23.113,12.543,29,22.313,35.918c2.676,3.539,6.349,5.2,10.658,5.748,9.61,1.217,19.062,3.909,27.773,2.358-10.227-4.772-22.688-5.547-34.631-8.46C26.006,31.434,28.025,28.249,23.315,23.5Z" transform="translate(0 0)"/><path class="a" d="M33.253,14.034c-.735-5.1-4.387-1.587-6.636-2.25-2.933-.493-5.881-.966-10-1.633C20.7,15.4,22.754,20.681,29.427,21.616c2.856.4,8.121,1.418,7.453,4.407-1.705,7.679,4.356,4.536,6.955,6.354C44.518,14.774,46.66,16.12,33.253,14.034Z" transform="translate(73.616 11.38)"/><path class="a" d="M12.487,14.639c-2.019,8.768-2.008,8.784,4.705,10.432.354.092.493.914.837,1.3.971,1.032,2.424,1.577,3.534.868,1.69-1.1.606-2.815.062-4.15-.647-1.628-3.144-2.866-1.443-4.936.693-.842,3.714.514,2.928-2.075-.668-2.209-3.082-1.6-4.792-1.279-1.377.267-2.753,1.608-3.277-.94,3.436-2.507,9.01,1.88,12.107-4.469-5.173,2.3-10.186-.919-14.557,2.26A15.15,15.15,0,0,1,12.487,14.639Z" transform="translate(48.02 8.252)"/><path class="a" d="M32.925,17.447c-.154-.036-.267-.01-.406-.036a13.821,13.821,0,0,1-2.44-3.128,3.15,3.15,0,0,1-.17-.272,6.1,6.1,0,0,1-.385-1.469c-.216-1.9.3-4.289-2.933-4.556-2.8-.231-3.6,1.633-4.351,3.544-2.363,5.938-7.854,5.018-11.829,4.037-4.885-1.212-4.268.812-3.483,3.668a19.475,19.475,0,0,0,2.455,5.63c3.067,4.628,8.6,3.236,12.939,4.628,4.135,1.325,2.789-3.96,4.448-5.738,1.449-1.531,1.258-4.8,3.1-5.984a3.6,3.6,0,0,1,2.661-.339c.077.077.149.154.231.247.062-.046.108-.057.17-.108A.5.5,0,0,1,32.925,17.447Z" transform="translate(24.012 0.308)"/><path class="a" d="M16.654,19.53c1.772-3.215,4.849-6.2,1.705-10.628C14.2,12.082,14.821,15.7,16.654,19.53Z" transform="translate(64.677 2.958)"/></g></svg>