<svg xmlns="http://www.w3.org/2000/svg" viewBox="0 0 129 17"><defs><style>.a,.b{fill:#fff;}.b{font-size:14px;font-family:Istok-Bold, Istok;font-weight:700;}</style></defs><g transform="translate(-226 -64)"><g transform="translate(300.268 63)"><g transform="translate(0 1)"><g transform="translate(0 0)"><path class="a" d="M14.008,6.127a1.223,1.223,0,0,0-.426-.841L12.37,4.248V1.3a.41.41,0,0,0-.41-.41H10.317a.406.406,0,0,0-.4.41v.841L7.835.367a1.225,1.225,0,0,0-1.6,0L.431,5.287A1.231,1.231,0,0,0,.3,7.024a1.244,1.244,0,0,0,1.35.359v6.283a.406.406,0,0,0,.4.41h9.906a.41.41,0,0,0,.41-.41V7.383a1.231,1.231,0,0,0,1.638-1.255Zm-3.28-4.421h.826V3.544l-.826-.7ZM8.681,13.255H5.337V9.965H8.681Zm2.873,0H9.5V9.56a.41.41,0,0,0-.41-.41H4.927a.406.406,0,0,0-.4.41v3.694H2.464V6.792L7.032,2.917l4.522,3.872v6.466Zm1.538-6.766a.411.411,0,0,1-.579.045L7.3,2.066a.41.41,0,0,0-.533,0L1.5,6.533a.411.411,0,0,1-.536-.622L6.766.99A.409.409,0,0,1,7.3.99l5.747,4.92A.411.411,0,0,1,13.092,6.489Z" transform="translate(-0.001 -0.068)"/></g></g><g transform="translate(5.342 5.922)"><path class="a" d="M198.13,179.938h-2.518a.406.406,0,0,0-.4.41v2.463a.406.406,0,0,0,.4.41h2.518a.41.41,0,0,0,.41-.41v-2.463A.41.41,0,0,0,198.13,179.938Zm-.4,2.463h-1.7v-1.642h1.7Z" transform="translate(-195.207 -179.938)"/></g><g transform="translate(7.033 11.724)"><circle class="a" cx="0.41" cy="0.41" r="0.41"/></g></g><text class="b" transform="translate(226 78)"><tspan x="0" y="0" xml:space="preserve">sehatdirum   h.com</tspan></text></g></svg>