<svg xmlns="http://www.w3.org/2000/svg" width="37" height="37" viewBox="0 0 37 37"><defs><style>.a{fill:#fff;}</style></defs><g transform="translate(0 35.458)"><path class="a" d="M36.229,490.667H.771a.771.771,0,1,0,0,1.542H36.229a.771.771,0,1,0,0-1.542Z" transform="translate(0 -490.667)"/></g><g transform="translate(1.542 26.208)"><path class="a" d="M26.729,362.667H22.1a.771.771,0,0,0-.771.771v9.25a.771.771,0,0,0,.771.771h4.625a.771.771,0,0,0,.771-.771v-9.25A.771.771,0,0,0,26.729,362.667Zm-.771,9.25H22.875v-7.708h3.083v7.708Z" transform="translate(-21.333 -362.667)"/></g><g transform="translate(10.792 18.5)"><path class="a" d="M154.729,256H150.1a.771.771,0,0,0-.771.771v16.958a.771.771,0,0,0,.771.771h4.625a.771.771,0,0,0,.771-.771V256.771A.771.771,0,0,0,154.729,256Zm-.771,16.958h-3.083V257.542h3.083Z" transform="translate(-149.333 -256)"/></g><g transform="translate(20.042 21.583)"><path class="a" d="M282.729,298.667H278.1a.771.771,0,0,0-.771.771v13.875a.771.771,0,0,0,.771.771h4.625a.771.771,0,0,0,.771-.771V299.438A.771.771,0,0,0,282.729,298.667Zm-.771,13.875h-3.083V300.209h3.083Z" transform="translate(-277.333 -298.667)"/></g><g transform="translate(29.292 12.333)"><path class="a" d="M410.729,170.667H406.1a.771.771,0,0,0-.771.771v23.125a.771.771,0,0,0,.771.771h4.625a.771.771,0,0,0,.771-.771V171.438A.771.771,0,0,0,410.729,170.667Zm-.771,23.125h-3.083V172.209h3.083Z" transform="translate(-405.333 -170.667)"/></g><g transform="translate(1.542 13.875)"><path class="a" d="M24.416,192a3.083,3.083,0,1,0,3.083,3.083A3.086,3.086,0,0,0,24.416,192Zm0,4.625a1.542,1.542,0,1,1,1.542-1.542A1.543,1.543,0,0,1,24.416,196.625Z" transform="translate(-21.333 -192)"/></g><g transform="translate(10.792 6.167)"><path class="a" d="M152.416,85.333a3.083,3.083,0,1,0,3.083,3.083A3.086,3.086,0,0,0,152.416,85.333Zm0,4.625a1.542,1.542,0,1,1,1.542-1.542A1.543,1.543,0,0,1,152.416,89.958Z" transform="translate(-149.333 -85.333)"/></g><g transform="translate(20.042 9.25)"><path class="a" d="M280.416,128a3.083,3.083,0,1,0,3.083,3.083A3.086,3.086,0,0,0,280.416,128Zm0,4.625a1.542,1.542,0,1,1,1.542-1.542A1.543,1.543,0,0,1,280.416,132.625Z" transform="translate(-277.333 -128)"/></g><g transform="translate(29.292)"><path class="a" d="M408.416,0A3.083,3.083,0,1,0,411.5,3.083,3.086,3.086,0,0,0,408.416,0Zm0,4.625a1.542,1.542,0,1,1,1.542-1.542A1.543,1.543,0,0,1,408.416,4.625Z" transform="translate(-405.333)"/></g><g transform="translate(23.989 3.946)"><path class="a" d="M339.26,54.833a.771.771,0,0,0-1.09,0l-5.982,5.982a.771.771,0,0,0,1.09,1.09l5.982-5.982A.771.771,0,0,0,339.26,54.833Z" transform="translate(-331.963 -54.608)"/></g><g transform="translate(15.328 9.111)"><path class="a" d="M218.041,127.521l-4.952-1.412a.771.771,0,0,0-.422,1.483L217.619,129a.771.771,0,0,0,.422-1.483Z" transform="translate(-212.108 -126.078)"/></g><g transform="translate(5.487 9.92)"><path class="a" d="M83.12,137.564a.771.771,0,0,0-1.082-.123l-5.812,4.634a.771.771,0,0,0,.481,1.374.778.778,0,0,0,.479-.166L83,138.647A.77.77,0,0,0,83.12,137.564Z" transform="translate(-75.935 -137.273)"/></g></svg>