<svg xmlns="http://www.w3.org/2000/svg" width="28.111" height="28.104" viewBox="0 0 28.111 28.104"><defs><style>.a{fill:#fff;}</style></defs><g transform="translate(-0.001 -0.068)"><g transform="translate(0.001 0.068)"><g transform="translate(0 0)"><path class="a" d="M28.1,12.225a2.454,2.454,0,0,0-.855-1.686L24.817,8.454V2.532a.824.824,0,0,0-.824-.824H20.7a.814.814,0,0,0-.813.824V4.219L15.719.667a2.458,2.458,0,0,0-3.213,0L.864,10.539A2.469,2.469,0,0,0,.6,14.024a2.5,2.5,0,0,0,2.71.72V27.348a.814.814,0,0,0,.813.824H23.994a.824.824,0,0,0,.824-.824V14.743A2.47,2.47,0,0,0,28.1,12.225Zm-6.581-8.87h1.658V7.043L21.523,5.631ZM17.417,26.525H10.707v-6.6h6.709Zm5.765,0H19.053V19.113a.824.824,0,0,0-.824-.824H9.884a.814.814,0,0,0-.813.824v7.412H4.943V13.559l9.166-7.775,9.073,7.768V26.525ZM26.266,12.95a.824.824,0,0,1-1.162.09L14.647,4.076a.823.823,0,0,0-1.069,0L3.009,13.039a.824.824,0,0,1-1.076-1.248L13.575,1.918a.82.82,0,0,1,1.072,0l11.53,9.872A.824.824,0,0,1,26.266,12.95Z" transform="translate(-0.001 -0.068)"/></g></g><g transform="translate(10.718 9.944)"><path class="a" d="M201.071,179.938H196.02a.814.814,0,0,0-.813.824V185.7a.814.814,0,0,0,.813.824h5.051a.824.824,0,0,0,.824-.824v-4.941A.823.823,0,0,0,201.071,179.938Zm-.813,4.941h-3.415v-3.294h3.415Z" transform="translate(-195.207 -179.938)"/></g><g transform="translate(14.111 21.584)"><circle class="a" cx="0.824" cy="0.824" r="0.824"/></g></g></svg>