<svg xmlns="http://www.w3.org/2000/svg" width="67.403" height="80.078" viewBox="0 0 67.403 80.078"><defs><style>.a{fill:#fff;stroke:#fff;}</style></defs><g transform="translate(-40.784 0.523)"><g transform="translate(41.423 0)"><g transform="translate(0 0)"><path class="a" d="M104.478,14.824a13.658,13.658,0,0,0-4.419-4.816c.453-.214.91-.445,1.372-.7a1.158,1.158,0,0,0,.069-1.993,18.633,18.633,0,0,0-6.267-2.347,11.26,11.26,0,0,0-10.664,3.4,19.842,19.842,0,0,0-8.124-6.645A22.646,22.646,0,0,0,61.527.849,17.763,17.763,0,0,0,48.677,13.078a23.178,23.178,0,0,0-.445,10.942,4.413,4.413,0,0,0-1.6-.062,1.158,1.158,0,1,0,.339,2.291,1.864,1.864,0,0,1,2.088,1.228A49.022,49.022,0,0,0,57.154,42.7a9.122,9.122,0,0,0-4.127-.21,6.256,6.256,0,0,0-4.76,4.216,8.509,8.509,0,0,0-.366,3.974,7.037,7.037,0,0,0-5.3,3.973c-2.65,5.672-.026,14.074.087,14.429a1.158,1.158,0,0,0,1.542.72c.345-.141,8.473-3.519,11.124-9.191a7.038,7.038,0,0,0-5.118-9.9,6.564,6.564,0,0,1,.209-3.22,3.92,3.92,0,0,1,3.036-2.727c2.476-.5,5.812.823,7.936,3.141A53.075,53.075,0,0,1,72.311,67.926a49.254,49.254,0,0,1,1.967,10.033,1.158,1.158,0,0,0,1.155,1.1l.064,0a1.158,1.158,0,0,0,1.093-1.219,50.43,50.43,0,0,0-2.038-10.494A57.654,57.654,0,0,0,67.743,52.41c-.011-.026-.021-.052-.034-.078-.215-.435-.823-1.923.367-2.806a1.158,1.158,0,0,0-1.38-1.86,4.05,4.05,0,0,0-1.246,1.489q-1.08-1.412-2.305-2.8c-5.692-6.4-9.583-12.659-11.564-18.6A25.663,25.663,0,0,1,50.192,17.42a2.884,2.884,0,0,1,2.921-1.6,4.782,4.782,0,0,1,2.174.9,5.945,5.945,0,0,0-1.032,1.451,5.885,5.885,0,0,0-.344,4.52c1.607,4.9,7.891,8.451,8.157,8.6a1.158,1.158,0,0,0,1.617-.53c.127-.278,3.089-6.858,1.482-11.76a5.93,5.93,0,0,0-7.474-3.783c-.13.043-.257.091-.383.142a7.312,7.312,0,0,0-3.941-1.84,5.1,5.1,0,0,0-2.506.326c.009-.03.016-.061.025-.091A15.492,15.492,0,0,1,62.1,3.092q.964-.248,1.906-.417h0a1.176,1.176,0,0,1,.926.246,1.4,1.4,0,0,1,.388,1.042,1.158,1.158,0,0,0,1.158,1.143H66.5a1.158,1.158,0,0,0,1.143-1.173A4.049,4.049,0,0,0,67.3,2.316a18.441,18.441,0,0,1,8.208,1.526A17.412,17.412,0,0,1,81.2,7.9a10.32,10.32,0,0,0-5.665,7.874,14.755,14.755,0,0,0,.213,5.589,1.158,1.158,0,0,0,1.673.718c.361-.2.749-.385,1.16-.584l.34-.165a13.57,13.57,0,0,0,1.661,6.527c3.262,5.982,13.056,12.229,13.471,12.492a1.158,1.158,0,0,0,1.6-.359,1.165,1.165,0,0,0,.108-.218h0c.226-.612.437-1.218.64-1.821,3.4,1.658,5.443,2.441,5.538,2.477a1.158,1.158,0,0,0,1.545-.843c.021-.1.469-2.241.917-6q.924.233,1.878.446h0a1.156,1.156,0,0,0,.242.028h.009a1.158,1.158,0,0,0,1.158-1.149C107.688,32.422,107.74,20.806,104.478,14.824Zm-53.814,38.4c.106.041.212.084.316.132a4.721,4.721,0,0,1,2.279,6.277C51.544,63.3,46.8,66,44.555,67.106c-.588-2.429-1.567-7.8.148-11.47a4.72,4.72,0,0,1,3.569-2.668c.345,1.957.569,3.84-.689,6.008a1.158,1.158,0,1,0,2,1.163A9.751,9.751,0,0,0,50.664,53.224Zm5.659-34.007a3.618,3.618,0,0,1,.621-.876,10.834,10.834,0,0,1,1.795,3.735,1.158,1.158,0,0,0,2.234-.612,13.48,13.48,0,0,0-1.943-4.188,3.592,3.592,0,0,1,3.939,2.445c.958,2.923-.184,6.863-.9,8.838-1.745-1.169-5-3.668-5.957-6.591A3.584,3.584,0,0,1,56.323,19.217ZM94.777,7.243a15.8,15.8,0,0,1,3.487,1.03A19.82,19.82,0,0,1,86.6,9.6,8.962,8.962,0,0,1,94.777,7.243ZM79.334,18.009c-.045.177-.084.355-.122.534a15.7,15.7,0,0,1-1.473.785c-.262-2.436-.079-7.308,4.966-9.581q.461.647.872,1.341A13.571,13.571,0,0,0,79.334,18.009ZM101.468,37.73c-.977-.418-2.473-1.085-4.363-2.014q.617-2.092,1.036-4.086,1.9.728,4,1.343C101.9,35.064,101.646,36.683,101.468,37.73Zm-5.175-9.392a1.158,1.158,0,1,0-.978,2.1q.319.149.646.294a53.161,53.161,0,0,1-1.882,6.851c-2.694-1.846-9.123-6.545-11.463-10.835a11.3,11.3,0,0,1-.071-10.684c.182,4.015,2.989,8.2,7.706,11.492a1.158,1.158,0,1,0,1.325-1.9c-4.127-2.879-6.576-6.419-6.718-9.712a4.873,4.873,0,0,1,1.535-4.009,20.077,20.077,0,0,0,3.817.358,22.373,22.373,0,0,0,7.108-1.181,11.161,11.161,0,0,1,5.126,4.821c2.338,4.287,2.807,12.241,2.9,15.506A49.482,49.482,0,0,1,96.293,28.338Z" transform="translate(-41.423 0)"/></g></g><g transform="translate(72.419 37.738)"><g transform="translate(0)"><path class="a" d="M261.058,260.889c-.076-.318-1.9-7.854-6.395-12.177-2.417-2.327-5.537-3.043-7.7-1.94a27.165,27.165,0,0,0-3.044-2.192,1.158,1.158,0,1,0-1.185,1.99,25.106,25.106,0,0,1,2.524,1.8,5.03,5.03,0,0,0-.493,3.58,8.592,8.592,0,0,0,2.527,4.41c4.491,4.323,12.091,5.863,12.412,5.927a1.158,1.158,0,0,0,1.351-1.4ZM248.9,254.7a6.353,6.353,0,0,1-1.862-3.193,3.244,3.244,0,0,1,.037-1.538,21.153,21.153,0,0,1,2.534,2.887,1.158,1.158,0,1,0,1.882-1.351,23.111,23.111,0,0,0-2.505-2.91c.064,0,.127-.007.192-.007a5.954,5.954,0,0,1,3.877,1.795c2.719,2.617,4.391,6.754,5.187,9.152C255.818,258.828,251.62,257.314,248.9,254.7Z" transform="translate(-242.171 -244.417)"/></g></g></g></svg>