<svg xmlns="http://www.w3.org/2000/svg" width="6850" height="3425" viewBox="0 0 6850 3425"><defs><style>.a{fill:rgba(107,171,121,0.03);}.a,.b,.c{stroke:#f38500;stroke-dasharray:10;}.b{fill:rgba(243,133,0,0.02);}.c{fill:rgba(243,133,0,0.05);}.d{stroke:none;}.e{fill:none;}</style></defs><g transform="translate(2465 -9126)"><g class="a" transform="translate(-2465 9126)"><path class="d" d="M0,0H6850a0,0,0,0,1,0,0V0A3425,3425,0,0,1,3425,3425h0A3425,3425,0,0,1,0,0V0A0,0,0,0,1,0,0Z"/><path class="e" d="M1,.5H6849a.5.5,0,0,1,.5.5V1A3423.5,3423.5,0,0,1,3426,3424.5h-2A3423.5,3423.5,0,0,1,.5,1V1A.5.5,0,0,1,1,.5Z"/></g><g class="a" transform="translate(-2365 9126)"><path class="d" d="M0,0H6650a0,0,0,0,1,0,0V0A3325,3325,0,0,1,3325,3325h0A3325,3325,0,0,1,0,0V0A0,0,0,0,1,0,0Z"/><path class="e" d="M1,.5H6649a.5.5,0,0,1,.5.5V1A3323.5,3323.5,0,0,1,3326,3324.5h-2A3323.5,3323.5,0,0,1,.5,1V1A.5.5,0,0,1,1,.5Z"/></g><g class="a" transform="translate(-2265 9126)"><path class="d" d="M0,0H6450a0,0,0,0,1,0,0V0A3225,3225,0,0,1,3225,3225h0A3225,3225,0,0,1,0,0V0A0,0,0,0,1,0,0Z"/><path class="e" d="M1,.5H6449a.5.5,0,0,1,.5.5V1A3223.5,3223.5,0,0,1,3226,3224.5h-2A3223.5,3223.5,0,0,1,.5,1V1A.5.5,0,0,1,1,.5Z"/></g><g class="a" transform="translate(-2165 9126)"><path class="d" d="M0,0H6250a0,0,0,0,1,0,0V0A3125,3125,0,0,1,3125,3125h0A3125,3125,0,0,1,0,0V0A0,0,0,0,1,0,0Z"/><path class="e" d="M1,.5H6249a.5.5,0,0,1,.5.5V1A3123.5,3123.5,0,0,1,3126,3124.5h-2A3123.5,3123.5,0,0,1,.5,1V1A.5.5,0,0,1,1,.5Z"/></g><g class="a" transform="translate(-2065 9126)"><path class="d" d="M0,0H6050a0,0,0,0,1,0,0V0A3025,3025,0,0,1,3025,3025h0A3025,3025,0,0,1,0,0V0A0,0,0,0,1,0,0Z"/><path class="e" d="M1,.5H6049a.5.5,0,0,1,.5.5V1A3023.5,3023.5,0,0,1,3026,3024.5h-2A3023.5,3023.5,0,0,1,.5,1V1A.5.5,0,0,1,1,.5Z"/></g><g class="a" transform="translate(-1965 9126)"><path class="d" d="M0,0H5850a0,0,0,0,1,0,0V0A2925,2925,0,0,1,2925,2925h0A2925,2925,0,0,1,0,0V0A0,0,0,0,1,0,0Z"/><path class="e" d="M1,.5H5849a.5.5,0,0,1,.5.5V1A2923.5,2923.5,0,0,1,2926,2924.5h-2A2923.5,2923.5,0,0,1,.5,1V1A.5.5,0,0,1,1,.5Z"/></g><g class="a" transform="translate(-1865 9126)"><path class="d" d="M0,0H5650a0,0,0,0,1,0,0V0A2825,2825,0,0,1,2825,2825h0A2825,2825,0,0,1,0,0V0A0,0,0,0,1,0,0Z"/><path class="e" d="M1,.5H5649a.5.5,0,0,1,.5.5V1A2823.5,2823.5,0,0,1,2826,2824.5h-2A2823.5,2823.5,0,0,1,.5,1V1A.5.5,0,0,1,1,.5Z"/></g><g class="a" transform="translate(-1765 9126)"><path class="d" d="M0,0H5450a0,0,0,0,1,0,0V0A2725,2725,0,0,1,2725,2725h0A2725,2725,0,0,1,0,0V0A0,0,0,0,1,0,0Z"/><path class="e" d="M1,.5H5449a.5.5,0,0,1,.5.5V1A2723.5,2723.5,0,0,1,2726,2724.5h-2A2723.5,2723.5,0,0,1,.5,1V1A.5.5,0,0,1,1,.5Z"/></g><g class="a" transform="translate(-1665 9126)"><path class="d" d="M0,0H5250a0,0,0,0,1,0,0V0A2625,2625,0,0,1,2625,2625h0A2625,2625,0,0,1,0,0V0A0,0,0,0,1,0,0Z"/><path class="e" d="M1,.5H5249a.5.5,0,0,1,.5.5V1A2623.5,2623.5,0,0,1,2626,2624.5h-2A2623.5,2623.5,0,0,1,.5,1V1A.5.5,0,0,1,1,.5Z"/></g><g class="a" transform="translate(-1565 9126)"><path class="d" d="M0,0H5050a0,0,0,0,1,0,0V0A2525,2525,0,0,1,2525,2525h0A2525,2525,0,0,1,0,0V0A0,0,0,0,1,0,0Z"/><path class="e" d="M1,.5H5049a.5.5,0,0,1,.5.5V1A2523.5,2523.5,0,0,1,2526,2524.5h-2A2523.5,2523.5,0,0,1,.5,1V1A.5.5,0,0,1,1,.5Z"/></g><g class="a" transform="translate(-1465 9126)"><path class="d" d="M0,0H4850a0,0,0,0,1,0,0V0A2425,2425,0,0,1,2425,2425h0A2425,2425,0,0,1,0,0V0A0,0,0,0,1,0,0Z"/><path class="e" d="M1,.5H4849a.5.5,0,0,1,.5.5V1A2423.5,2423.5,0,0,1,2426,2424.5h-2A2423.5,2423.5,0,0,1,.5,1V1A.5.5,0,0,1,1,.5Z"/></g><g class="a" transform="translate(-1365 9126)"><path class="d" d="M0,0H4650a0,0,0,0,1,0,0V0A2325,2325,0,0,1,2325,2325h0A2325,2325,0,0,1,0,0V0A0,0,0,0,1,0,0Z"/><path class="e" d="M1,.5H4649a.5.5,0,0,1,.5.5V1A2323.5,2323.5,0,0,1,2326,2324.5h-2A2323.5,2323.5,0,0,1,.5,1V1A.5.5,0,0,1,1,.5Z"/></g><g class="a" transform="translate(-1265 9126)"><path class="d" d="M0,0H4450a0,0,0,0,1,0,0V0A2225,2225,0,0,1,2225,2225h0A2225,2225,0,0,1,0,0V0A0,0,0,0,1,0,0Z"/><path class="e" d="M1,.5H4449a.5.5,0,0,1,.5.5V1A2223.5,2223.5,0,0,1,2226,2224.5h-2A2223.5,2223.5,0,0,1,.5,1V1A.5.5,0,0,1,1,.5Z"/></g><g class="a" transform="translate(-1165 9126)"><path class="d" d="M0,0H4250a0,0,0,0,1,0,0V0A2125,2125,0,0,1,2125,2125h0A2125,2125,0,0,1,0,0V0A0,0,0,0,1,0,0Z"/><path class="e" d="M1,.5H4249a.5.5,0,0,1,.5.5V1A2123.5,2123.5,0,0,1,2126,2124.5h-2A2123.5,2123.5,0,0,1,.5,1V1A.5.5,0,0,1,1,.5Z"/></g><g class="a" transform="translate(-1065 9126)"><path class="d" d="M0,0H4050a0,0,0,0,1,0,0V0A2025,2025,0,0,1,2025,2025h0A2025,2025,0,0,1,0,0V0A0,0,0,0,1,0,0Z"/><path class="e" d="M1,.5H4049a.5.5,0,0,1,.5.5V1A2023.5,2023.5,0,0,1,2026,2024.5h-2A2023.5,2023.5,0,0,1,.5,1V1A.5.5,0,0,1,1,.5Z"/></g><g class="a" transform="translate(-965 9126)"><path class="d" d="M0,0H3850a0,0,0,0,1,0,0V0A1925,1925,0,0,1,1925,1925h0A1925,1925,0,0,1,0,0V0A0,0,0,0,1,0,0Z"/><path class="e" d="M1,.5H3849a.5.5,0,0,1,.5.5V1A1923.5,1923.5,0,0,1,1926,1924.5h-2A1923.5,1923.5,0,0,1,.5,1V1A.5.5,0,0,1,1,.5Z"/></g><g class="b" transform="translate(-865 9126)"><path class="d" d="M0,0H3650a0,0,0,0,1,0,0V0A1825,1825,0,0,1,1825,1825h0A1825,1825,0,0,1,0,0V0A0,0,0,0,1,0,0Z"/><path class="e" d="M1,.5H3649a.5.5,0,0,1,.5.5V1A1823.5,1823.5,0,0,1,1826,1824.5h-2A1823.5,1823.5,0,0,1,.5,1V1A.5.5,0,0,1,1,.5Z"/></g><g class="b" transform="translate(-765 9126)"><path class="d" d="M0,0H3450a0,0,0,0,1,0,0V0A1725,1725,0,0,1,1725,1725h0A1725,1725,0,0,1,0,0V0A0,0,0,0,1,0,0Z"/><path class="e" d="M1,.5H3449a.5.5,0,0,1,.5.5V1A1723.5,1723.5,0,0,1,1726,1724.5h-2A1723.5,1723.5,0,0,1,.5,1V1A.5.5,0,0,1,1,.5Z"/></g><g class="b" transform="translate(-665 9126)"><path class="d" d="M0,0H3250a0,0,0,0,1,0,0V0A1625,1625,0,0,1,1625,1625h0A1625,1625,0,0,1,0,0V0A0,0,0,0,1,0,0Z"/><path class="e" d="M1,.5H3249a.5.5,0,0,1,.5.5V1A1623.5,1623.5,0,0,1,1626,1624.5h-2A1623.5,1623.5,0,0,1,.5,1V1A.5.5,0,0,1,1,.5Z"/></g><g class="b" transform="translate(-565 9126)"><path class="d" d="M0,0H3050a0,0,0,0,1,0,0V0A1525,1525,0,0,1,1525,1525h0A1525,1525,0,0,1,0,0V0A0,0,0,0,1,0,0Z"/><path class="e" d="M1,.5H3049a.5.5,0,0,1,.5.5V1A1523.5,1523.5,0,0,1,1526,1524.5h-2A1523.5,1523.5,0,0,1,.5,1V1A.5.5,0,0,1,1,.5Z"/></g><g class="b" transform="translate(-465 9126)"><path class="d" d="M0,0H2850a0,0,0,0,1,0,0V0A1425,1425,0,0,1,1425,1425h0A1425,1425,0,0,1,0,0V0A0,0,0,0,1,0,0Z"/><path class="e" d="M1,.5H2849a.5.5,0,0,1,.5.5V1A1423.5,1423.5,0,0,1,1426,1424.5h-2A1423.5,1423.5,0,0,1,.5,1V1A.5.5,0,0,1,1,.5Z"/></g><g class="b" transform="translate(-365 9126)"><path class="d" d="M0,0H2650a0,0,0,0,1,0,0V0A1325,1325,0,0,1,1325,1325h0A1325,1325,0,0,1,0,0V0A0,0,0,0,1,0,0Z"/><path class="e" d="M1,.5H2649a.5.5,0,0,1,.5.5V1A1323.5,1323.5,0,0,1,1326,1324.5h-2A1323.5,1323.5,0,0,1,.5,1V1A.5.5,0,0,1,1,.5Z"/></g><g class="b" transform="translate(-265 9126)"><path class="d" d="M0,0H2450a0,0,0,0,1,0,0V0A1225,1225,0,0,1,1225,1225h0A1225,1225,0,0,1,0,0V0A0,0,0,0,1,0,0Z"/><path class="e" d="M1,.5H2449a.5.5,0,0,1,.5.5V1A1223.5,1223.5,0,0,1,1226,1224.5h-2A1223.5,1223.5,0,0,1,.5,1V1A.5.5,0,0,1,1,.5Z"/></g><g class="b" transform="translate(-165 9126)"><path class="d" d="M0,0H2250a0,0,0,0,1,0,0V0A1125,1125,0,0,1,1125,1125h0A1125,1125,0,0,1,0,0V0A0,0,0,0,1,0,0Z"/><path class="e" d="M1,.5H2249a.5.5,0,0,1,.5.5V1A1123.5,1123.5,0,0,1,1126,1124.5h-2A1123.5,1123.5,0,0,1,.5,1V1A.5.5,0,0,1,1,.5Z"/></g><g class="b" transform="translate(-64 9126)"><path class="d" d="M0,0H2050a0,0,0,0,1,0,0V0A1025,1025,0,0,1,1025,1025h0A1025,1025,0,0,1,0,0V0A0,0,0,0,1,0,0Z"/><path class="e" d="M1,.5H2049a.5.5,0,0,1,.5.5V1A1023.5,1023.5,0,0,1,1026,1024.5h-2A1023.5,1023.5,0,0,1,.5,1V1A.5.5,0,0,1,1,.5Z"/></g><g class="b" transform="translate(35 9126)"><path class="d" d="M0,0H1850a0,0,0,0,1,0,0V0A925,925,0,0,1,925,925h0A925,925,0,0,1,0,0V0A0,0,0,0,1,0,0Z"/><path class="e" d="M1,.5H1849a.5.5,0,0,1,.5.5V1A923.5,923.5,0,0,1,926,924.5h-2A923.5,923.5,0,0,1,.5,1V1A.5.5,0,0,1,1,.5Z"/></g><g class="b" transform="translate(135 9126)"><path class="d" d="M0,0H1650a0,0,0,0,1,0,0V0A825,825,0,0,1,825,825h0A825,825,0,0,1,0,0V0A0,0,0,0,1,0,0Z"/><path class="e" d="M1,.5H1649a.5.5,0,0,1,.5.5V1A823.5,823.5,0,0,1,826,824.5h-2A823.5,823.5,0,0,1,.5,1V1A.5.5,0,0,1,1,.5Z"/></g><g class="b" transform="translate(235 9126)"><path class="d" d="M0,0H1450a0,0,0,0,1,0,0V0A725,725,0,0,1,725,725h0A725,725,0,0,1,0,0V0A0,0,0,0,1,0,0Z"/><path class="e" d="M1,.5H1449a.5.5,0,0,1,.5.5V1A723.5,723.5,0,0,1,726,724.5h-2A723.5,723.5,0,0,1,.5,1V1A.5.5,0,0,1,1,.5Z"/></g><g class="c" transform="translate(335 9126)"><path class="d" d="M0,0H1250a0,0,0,0,1,0,0V0A625,625,0,0,1,625,625h0A625,625,0,0,1,0,0V0A0,0,0,0,1,0,0Z"/><path class="e" d="M1,.5H1249a.5.5,0,0,1,.5.5V1A623.5,623.5,0,0,1,626,624.5h-2A623.5,623.5,0,0,1,.5,1V1A.5.5,0,0,1,1,.5Z"/></g><g class="c" transform="translate(435 9126)"><path class="d" d="M0,0H1050a0,0,0,0,1,0,0V0A525,525,0,0,1,525,525h0A525,525,0,0,1,0,0V0A0,0,0,0,1,0,0Z"/><path class="e" d="M1,.5H1049a.5.5,0,0,1,.5.5V1A523.5,523.5,0,0,1,526,524.5h-2A523.5,523.5,0,0,1,.5,1V1A.5.5,0,0,1,1,.5Z"/></g><g class="c" transform="translate(525 9126)"><path class="d" d="M0,0H850a0,0,0,0,1,0,0V0A425,425,0,0,1,425,425h0A425,425,0,0,1,0,0V0A0,0,0,0,1,0,0Z"/><path class="e" d="M1,.5H849a.5.5,0,0,1,.5.5V1A423.5,423.5,0,0,1,426,424.5h-2A423.5,423.5,0,0,1,.5,1V1A.5.5,0,0,1,1,.5Z"/></g><g class="c" transform="translate(625 9126)"><path class="d" d="M0,0H650a0,0,0,0,1,0,0V0A325,325,0,0,1,325,325h0A325,325,0,0,1,0,0V0A0,0,0,0,1,0,0Z"/><path class="e" d="M1,.5H649a.5.5,0,0,1,.5.5V1A323.5,323.5,0,0,1,326,324.5h-2A323.5,323.5,0,0,1,.5,1V1A.5.5,0,0,1,1,.5Z"/></g><g class="c" transform="translate(735 9126)"><path class="d" d="M0,0H450a0,0,0,0,1,0,0V0A225,225,0,0,1,225,225h0A225,225,0,0,1,0,0V0A0,0,0,0,1,0,0Z"/><path class="e" d="M1,.5H449a.5.5,0,0,1,.5.5V1A223.5,223.5,0,0,1,226,224.5h-2A223.5,223.5,0,0,1,.5,1V1A.5.5,0,0,1,1,.5Z"/></g><g class="c" transform="translate(835 9126)"><path class="d" d="M0,0H250a0,0,0,0,1,0,0V0A125,125,0,0,1,125,125h0A125,125,0,0,1,0,0V0A0,0,0,0,1,0,0Z"/><path class="e" d="M1,.5H249a.5.5,0,0,1,.5.5V1A123.5,123.5,0,0,1,126,124.5H124A123.5,123.5,0,0,1,.5,1V1A.5.5,0,0,1,1,.5Z"/></g></g></svg>