<svg xmlns="http://www.w3.org/2000/svg" width="72.872" height="75.121" viewBox="0 0 72.872 75.121"><defs><style>.a{fill:#f38500;}.b{fill:#6bab79;}</style></defs><g transform="translate(0.254 0)"><path class="a" d="M5.436,53.056H11.3a8.354,8.354,0,0,0,4.05,2.483,5.773,5.773,0,0,0,.013,7.257l5.252,6.446a5.742,5.742,0,0,0,8.07.824l4.538-3.7a8.958,8.958,0,0,0,6.607-1.961l8.1-6.61a6.989,6.989,0,0,0,5.791,3.09H65.7a6.927,6.927,0,0,0,6.921-6.957V25.323a6.932,6.932,0,0,0-5.274-6.782V15.28a3.345,3.345,0,0,0-3.328-3.3h-.507V9.429h1.045a1.164,1.164,0,0,0,1.192-1.1V1.107A1.175,1.175,0,0,0,64.553,0H54.872A1.1,1.1,0,0,0,53.76,1.107V3.77a5.642,5.642,0,0,0-3.14-1.094l-8.3-.119H42.3a1.146,1.146,0,0,0-1.118,1.137A1.133,1.133,0,0,0,42.292,4.84l8.295.1a3.192,3.192,0,0,1,3.131,3.24,1.053,1.053,0,0,0,.057.359,1.109,1.109,0,0,0,1.1.9h.965v2.557H55.41a3.277,3.277,0,0,0-3.248,3.3v3.261a7.072,7.072,0,0,0-5.433,6.782v8.305a1.048,1.048,0,0,0-.286-.046,3.384,3.384,0,0,0-2.5.754l-4.595,3.751a5.861,5.861,0,0,0-1.326-3.656,2.143,2.143,0,0,0-2.952-.334l-1.146.9H33.9a5.752,5.752,0,0,0,1.285-3.663,2.094,2.094,0,0,0-2.1-2.09H16.749A7.861,7.861,0,0,0,9.776,33.4H5.436a5.647,5.647,0,0,0-5.69,5.67v8.312a5.652,5.652,0,0,0,5.69,5.675ZM65.7,58.649H53.729a4.743,4.743,0,0,1-4.045-2.281l1.713-1.4h8.316a1.079,1.079,0,0,0,1.079-1.111V36.036l.08.017a7.136,7.136,0,0,0,5.22-.51,4.815,4.815,0,0,1,3.515-.36l.773.22V53.929a4.687,4.687,0,0,1-4.683,4.72Zm-10.858-10.9a3.411,3.411,0,0,0-.921-.785l1.091-.89a3.424,3.424,0,0,0-.533-5.669,3.426,3.426,0,0,0-4.927-4.683l-.213.16a3.034,3.034,0,0,0-.37-.737V28.925h9.588V52.736H54.141l.207-.165a3.425,3.425,0,0,0,.491-4.819ZM56,2.237h7.511V7.191H56Zm2.077,7.191h3.2v2.557h-3.2ZM55.41,14.223h8.605a1.106,1.106,0,0,1,1.091,1.058v3.1H54.4v-3.1a1.037,1.037,0,0,1,1.01-1.058Zm-1.681,6.392H65.7a4.677,4.677,0,0,1,4.683,4.708v7.759l-.172-.054a7.075,7.075,0,0,0-5.143.525,4.9,4.9,0,0,1-3.584.35l-.689-.193V27.865a1.137,1.137,0,0,0-1.079-1.177H48.966V25.323a4.747,4.747,0,0,1,4.763-4.708ZM37.092,38.537a3.65,3.65,0,0,1-1.333,2.475L31.5,44.48a1.119,1.119,0,1,0,1.414,1.734l4.254-3.468,8.188-6.675a1.19,1.19,0,0,1,1.5,1.845L36.218,46.6a1.119,1.119,0,1,0,1.414,1.734l10.647-8.682,2.684-2.189a1.19,1.19,0,1,1,1.5,1.845l-1.789,1.458-2.684,2.188-8.858,7.223a1.118,1.118,0,1,0,1.414,1.733l11.4-9.291.146-.119a1.19,1.19,0,1,1,1.5,1.845L50.463,46.9a1.1,1.1,0,0,0-.149.148,3.246,3.246,0,0,0-.3.216l-6.174,5.034a1.119,1.119,0,1,0,1.414,1.734l6.173-5.034a1.19,1.19,0,1,1,1.5,1.845L38.422,62.673a6.711,6.711,0,0,1-5.214,1.438,1.119,1.119,0,0,0-1.009.211l-4.921,4.012a3.5,3.5,0,0,1-4.923-.5L17.1,61.39a3.5,3.5,0,0,1,.5-4.923l2.988-2.436.055-.048.878-.816a1.12,1.12,0,0,0,.325-1.087,5.838,5.838,0,0,1,1.97-5.894L36.37,35.952a3.644,3.644,0,0,1,.722,2.584Zm-35.109.532a3.408,3.408,0,0,1,3.453-3.432H8.9a7.141,7.141,0,0,0-.2,1.734,9.656,9.656,0,0,0,2.858,6.884l.472.463a1.121,1.121,0,0,0,1.582-1.589l-.471-.472a7.526,7.526,0,0,1-2.2-5.341,5.835,5.835,0,0,1,5.807-5.832h16.2A3.583,3.583,0,0,1,29.274,35H22.637a1.148,1.148,0,0,0-1.119,1.151,3.171,3.171,0,0,1-3.152,3.17,1.126,1.126,0,0,0-1.119,1.127,1.093,1.093,0,0,0,1.119,1.089,5.307,5.307,0,0,0,5.273-4.3h7.536l-2.92,2.4H26.1a1.141,1.141,0,0,0-.465,2.174L22.4,44.447a8.1,8.1,0,0,0-2.861,7.5l-.393.368-1.675,1.367a7.046,7.046,0,0,1-6.357-5.327,1.12,1.12,0,0,0-1.344-.835,1.086,1.086,0,0,0-.835,1.313,8.517,8.517,0,0,0,.747,1.981H5.436a3.411,3.411,0,0,1-3.453-3.437Zm0,0" transform="translate(0 0)"/><path class="b" d="M293.037,96.821a5.163,5.163,0,0,0,.993-5.9,1,1,0,0,0-.06-.109l-3.634-5.759a1.12,1.12,0,0,0-1.893,0l-3.634,5.76a1.059,1.059,0,0,0-.06.109,5.158,5.158,0,0,0,8.288,5.9Zm-5.714-1.582a2.922,2.922,0,0,1-.586-3.289l2.653-4.2,2.653,4.2a2.921,2.921,0,0,1-4.718,3.289Zm0,0" transform="translate(-248.109 -73.723)"/><path class="b" d="M179.6,141.589a4.335,4.335,0,1,0,4.335-4.335A4.335,4.335,0,0,0,179.6,141.589Zm6.433,0a2.1,2.1,0,1,1-2.1-2.1A2.1,2.1,0,0,1,186.031,141.589Zm0,0" transform="translate(-156.855 -119.704)"/><path class="b" d="M87.113,91.6a4.335,4.335,0,1,0,4.335-4.335A4.336,4.336,0,0,0,87.113,91.6Zm6.433,0a2.1,2.1,0,1,1-2.1-2.1A2.1,2.1,0,0,1,93.546,91.6Zm0,0" transform="translate(-76.196 -76.104)"/><path class="b" d="M309.578,524.027a4.335,4.335,0,1,0,4.335-4.335A4.335,4.335,0,0,0,309.578,524.027Zm6.433,0a2.1,2.1,0,1,1-2.1-2.1A2.1,2.1,0,0,1,316.011,524.027Zm0,0" transform="translate(-270.215 -453.241)"/><path class="b" d="M413.309,516.527a4.335,4.335,0,1,0,4.335-4.336A4.336,4.336,0,0,0,413.309,516.527Zm6.433,0a2.1,2.1,0,1,1-2.1-2.1A2.1,2.1,0,0,1,419.742,516.527Zm0,0" transform="translate(-360.683 -446.7)"/></g></svg>