<svg xmlns="http://www.w3.org/2000/svg" width="72.775" height="75.294" viewBox="0 0 72.775 75.294"><defs><style>.a{fill:#f38500;}.b{fill:#6bab79;stroke:#6bab79;}</style></defs><g transform="translate(-0.5 -0.5)"><path class="a" d="M30.157,35.236a2.159,2.159,0,0,0,2.157-2.157V32H28v1.079A2.159,2.159,0,0,0,30.157,35.236Zm1.079-2.157a1.079,1.079,0,0,1-2.157,0Z" transform="translate(6.731 8.612)"/><path class="b" d="M18.775,7.634,21.7,5.2A2.377,2.377,0,0,0,20.17,1h-.093a2.364,2.364,0,0,0-1.3.387A2.364,2.364,0,0,0,17.473,1H17.38a2.376,2.376,0,0,0-1.527,4.2ZM16.46,2.46a1.292,1.292,0,0,1,.921-.382h.093a1.291,1.291,0,0,1,.921.382l.381.381.381-.381a1.292,1.292,0,0,1,.921-.382h.093a1.3,1.3,0,0,1,.836,2.293L18.775,6.23,16.544,4.371A1.293,1.293,0,0,1,16.46,2.46Z" transform="translate(4.732)"/><path class="b" d="M4.775,17.634,7.7,15.2A2.377,2.377,0,0,0,6.17,11H6.077a2.364,2.364,0,0,0-1.3.387A2.364,2.364,0,0,0,3.473,11H3.38a2.376,2.376,0,0,0-1.527,4.2ZM2.46,12.46a1.292,1.292,0,0,1,.921-.382h.093a1.291,1.291,0,0,1,.921.382l.381.381.381-.381a1.292,1.292,0,0,1,.921-.382H6.17a1.3,1.3,0,0,1,.836,2.293L4.775,16.23,2.544,14.371A1.293,1.293,0,0,1,2.46,12.46Z" transform="translate(0 3.715)"/><path class="b" d="M38.775,7.634,41.7,5.2A2.377,2.377,0,0,0,40.17,1h-.093a2.364,2.364,0,0,0-1.3.387A2.364,2.364,0,0,0,37.473,1H37.38a2.376,2.376,0,0,0-1.527,4.2ZM36.46,2.46a1.292,1.292,0,0,1,.921-.382h.093a1.291,1.291,0,0,1,.921.382l.381.381.381-.381a1.292,1.292,0,0,1,.921-.382h.093a1.3,1.3,0,0,1,.836,2.293L38.775,6.23,36.544,4.371A1.293,1.293,0,0,1,36.46,2.46Z" transform="translate(11.493)"/><path class="b" d="M49.853,15.2l2.922,2.435L55.7,15.2A2.377,2.377,0,0,0,54.17,11h-.093a2.364,2.364,0,0,0-1.3.387,2.364,2.364,0,0,0-1.3-.387H51.38a2.376,2.376,0,0,0-1.527,4.2Zm.607-2.739a1.292,1.292,0,0,1,.921-.382h.093a1.291,1.291,0,0,1,.921.382l.381.381.381-.381a1.292,1.292,0,0,1,.921-.382h.093a1.3,1.3,0,0,1,.836,2.293L52.775,16.23l-2.231-1.859a1.293,1.293,0,0,1-.084-1.911Z" transform="translate(16.225 3.715)"/><path class="a" d="M69.073,33.367H67.466l-1.08-1.291A3.878,3.878,0,0,0,63.4,30.6a4.352,4.352,0,0,0-4,3.446l-.367,1.316L43.019,53.226l-.949-2.27A11.794,11.794,0,0,0,46.3,44.434h1.011c2.554,0,4.631-2.482,4.631-5.533a6.187,6.187,0,0,0-.993-3.384l.622-2.964a17.832,17.832,0,0,0,.372-3.622C51.937,20.7,46.332,14,39.442,14H34.334c-6.89,0-12.5,6.7-12.5,14.932a17.761,17.761,0,0,0,.373,3.622l.621,2.962a6.2,6.2,0,0,0-.993,3.385c0,3.052,2.077,5.533,4.631,5.533h1.012a11.783,11.783,0,0,0,4.227,6.521l-.949,2.27L14.739,35.361l-.367-1.317a4.352,4.352,0,0,0-4-3.444,3.878,3.878,0,0,0-2.982,1.476l-1.08,1.291H4.7c-2.041,0-3.7,1.985-3.7,4.424a4.315,4.315,0,0,0,2.975,4.338l3.378.806L23,62.961V81.783H50.78V62.961L66.422,42.935l3.378-.806a4.315,4.315,0,0,0,2.975-4.338C72.775,35.352,71.114,33.367,69.073,33.367ZM32.257,58.378l1.823,1.743a8.211,8.211,0,0,0-1.823.906Zm15.05-16.712H46.73l.331-5.533h.245A2.574,2.574,0,0,1,49.622,38.9,2.574,2.574,0,0,1,47.307,41.666ZM24.153,38.9a2.574,2.574,0,0,1,2.315-2.767h.245l.33,5.533h-.575A2.574,2.574,0,0,1,24.153,38.9Zm2.315-7.463v.326c0,.181.006.361.017.537l.064,1.067h-.081a3.947,3.947,0,0,0-1.624.369l-.388-1.852a14.5,14.5,0,0,1-.3-2.952c0-6.708,4.567-12.165,10.181-12.165h5.108c5.614,0,10.181,5.457,10.181,12.165a14.49,14.49,0,0,1-.3,2.951l-.388,1.854a3.943,3.943,0,0,0-1.624-.369h-.08l.046-.776a6.761,6.761,0,0,0,1.191-3.9v-.862H46.149V28.7A3.059,3.059,0,0,1,43.4,31.983a2.594,2.594,0,0,1-2.147-1.235L39.878,28.7a7.656,7.656,0,0,0-6.329-3.634h-.134a7.806,7.806,0,0,0-4.884,1.767,5.877,5.877,0,0,0-2.062,4.6Zm2.892,10.155L28.794,32.1q-.01-.168-.01-.336v-.326a2.937,2.937,0,0,1,1.031-2.3,5.751,5.751,0,0,1,3.6-1.3h.134a5.466,5.466,0,0,1,4.52,2.6l1.372,2.047A4.786,4.786,0,0,0,43.4,34.75a4.3,4.3,0,0,0,1.44-.249l-.423,7.091c-.281,4.7-3.588,8.375-7.527,8.375s-7.246-3.678-7.527-8.375Zm7.527,11.141a8.313,8.313,0,0,0,3.083-.607l1.251,2.992-4.334,4.143-4.334-4.143L33.8,52.126a8.313,8.313,0,0,0,3.083.607Zm4.631,5.645v2.649a8.21,8.21,0,0,0-1.823-.906ZM3.315,37.79A1.542,1.542,0,0,1,4.7,36.133H7.268l1.758-2.1a1.75,1.75,0,0,1,1.345-.665,1.966,1.966,0,0,1,1.806,1.553l.2.735L7.645,40.184l-3.214-.768A1.617,1.617,0,0,1,3.315,37.79ZM48.464,61.871V79.016H25.311V61.871L9.645,41.814l4.031-3.854L29.942,56.1V67.14l1.976-2.363a6.2,6.2,0,0,1,4.771-2.361h.4a6.2,6.2,0,0,1,4.771,2.361l1.976,2.363V56.1L60.1,37.961l4.031,3.854ZM69.345,39.416l-3.214.768-4.737-4.529.2-.733a1.964,1.964,0,0,1,1.8-1.555,1.751,1.751,0,0,1,1.345.665l1.758,2.1h2.565A1.542,1.542,0,0,1,70.46,37.79,1.617,1.617,0,0,1,69.345,39.416Z" transform="translate(0 -5.989)"/></g></svg>