<svg xmlns="http://www.w3.org/2000/svg" width="83" height="61.287" viewBox="0 0 83 61.287"><defs><style>.a{fill:#fff;stroke:#fff;stroke-width:2px;}</style></defs><g transform="translate(1 -55.4)"><g transform="translate(0 56.4)"><path class="a" d="M79.614,84.812H72.761c2.849-6.468,2.541-11.7,1.463-15.245C72.376,63.253,66.14,56.4,56.9,56.4a21.66,21.66,0,0,0-7.469,1.386A38.738,38.738,0,0,0,40.808,62.1a36.967,36.967,0,0,0-8.624-4.312A21.991,21.991,0,0,0,24.716,56.4c-9.24,0-15.476,6.853-17.324,13.166C6.314,73.339,5.929,79.037,9.548,86.2H1.232a1.232,1.232,0,0,0,0,2.464H11.01A16.255,16.255,0,0,0,12.4,90.74c8.008,11.549,25.409,24.1,28.566,24.87v.077a.238.238,0,0,0,.154-.077h.231v-.077c2.695-1.309,19.4-12.088,28.181-24.87A28.326,28.326,0,0,0,71.683,87.2h8.085A1.216,1.216,0,0,0,81,85.967,1.294,1.294,0,0,0,79.614,84.812ZM67.295,89.354c-8.162,11.934-23.176,21.559-26.41,23.638-3.311-2.079-18.248-11.78-26.487-23.638l-.462-.693H25.255a1.27,1.27,0,0,0,1.155-.693L31.568,77.8l8.085,20.712a1.261,1.261,0,0,0,1.155.77h.077a1.226,1.226,0,0,0,1.155-.924l7.084-24.254L52.9,86.352a1.255,1.255,0,0,0,1,.847,1.333,1.333,0,0,0,1.232-.539l3-4.389,2.541,4.312a1.229,1.229,0,0,0,1.078.616h6.93C68.219,87.968,67.757,88.661,67.295,89.354Zm2.772-4.543H62.521l-3.157-5.39a1.229,1.229,0,0,0-1.078-.616,1.165,1.165,0,0,0-1.078.539l-2.618,3.85L50.356,69.412a1.429,1.429,0,0,0-1.232-.924,1.318,1.318,0,0,0-1.232.924L40.731,94.128,32.954,74.263a1.158,1.158,0,0,0-1.078-.77,1.194,1.194,0,0,0-1.155.693L24.639,86.121H12.4C9.317,80.5,8.47,75.11,9.856,70.259A15.73,15.73,0,0,1,24.793,58.941a20.482,20.482,0,0,1,6.622,1.232,37.431,37.431,0,0,1,8.7,4.466,1.171,1.171,0,0,0,1.54,0,33.568,33.568,0,0,1,8.7-4.466,18.614,18.614,0,0,1,6.622-1.232A15.806,15.806,0,0,1,71.914,70.259C73.223,74.725,72.53,79.653,70.067,84.812Z" transform="translate(0 -56.4)"/></g></g></svg>