<svg xmlns="http://www.w3.org/2000/svg" width="221" height="187" viewBox="0 0 221 187"><defs><style>.a{fill:#ff7b2e;}.b{fill:#eb5600;}.c{fill:#5be5b1;}</style></defs><g transform="translate(-714 -13085)"><rect class="a" width="187" height="27" transform="translate(714 13163)"/><rect class="b" width="187" height="83" transform="translate(714 13189)"/><rect class="c" width="187" height="59" transform="translate(714 13104)"/><rect class="c" width="113" height="18" transform="translate(751 13087)"/><g transform="translate(714 13085)"><path d="M176.239,118.818h13.693v13.693a2.739,2.739,0,0,0,2.739,2.739h21.909a2.739,2.739,0,0,0,2.739-2.739V118.818h13.693a2.739,2.739,0,0,0,2.739-2.739V94.17a2.739,2.739,0,0,0-2.739-2.739H217.318V77.739A2.739,2.739,0,0,0,214.579,75H192.67a2.739,2.739,0,0,0-2.739,2.739V91.432H176.239A2.739,2.739,0,0,0,173.5,94.17v21.909A2.739,2.739,0,0,0,176.239,118.818Zm2.739-21.909H192.67a2.739,2.739,0,0,0,2.739-2.739V80.477h16.432V94.17a2.739,2.739,0,0,0,2.739,2.739h13.693v16.432H214.579a2.739,2.739,0,0,0-2.739,2.739v13.693H195.409V116.079a2.739,2.739,0,0,0-2.739-2.739H178.977Z" transform="translate(-110.147 -47.614)"/><path d="M184.217,16.432H150.989V2.739A2.739,2.739,0,0,0,148.25,0H38.706a2.739,2.739,0,0,0-2.739,2.739V16.432H2.739A2.739,2.739,0,0,0,0,19.17v71.2a2.739,2.739,0,1,0,5.477,0V32.863h30.49v76.681H5.477v-8.216a2.739,2.739,0,1,0-5.477,0v82.889a2.739,2.739,0,0,0,2.739,2.739H184.217a2.739,2.739,0,0,0,2.739-2.739V19.17A2.739,2.739,0,0,0,184.217,16.432Zm-33.229,98.59h30.49v16.432h-30.49Zm0-5.477V32.863h30.49v76.681Zm0,27.386h30.49v33.594h-30.49Zm30.49-115.022v5.477h-30.49V21.909ZM41.444,5.477H145.512v176h-5.477v-69.2a2.739,2.739,0,0,0-2.739-2.739H49.66a2.739,2.739,0,0,0-2.739,2.739v69.2H41.444ZM96.217,136.931H123.6v44.548H96.217Zm-5.477,44.548H63.353V136.931H90.739Zm35.6-50.025H60.615a2.739,2.739,0,0,0-2.739,2.739v47.287H52.4V115.022h82.158v66.457H129.08V134.192A2.739,2.739,0,0,0,126.341,131.453ZM5.477,136.931h30.49v33.594H5.477Zm0-109.545V21.909h30.49v5.477Zm30.49,87.636v16.432H5.477V115.022ZM5.477,176h30.49v5.477H5.477Zm145.512,5.477V176h30.49v5.477Z"/></g><rect class="b" width="2" height="83" transform="translate(933 13189)"/><rect class="a" width="2" height="27" transform="translate(933 13163)"/><rect class="c" width="2" height="76" transform="translate(933 13087)"/></g></svg>