<svg xmlns="http://www.w3.org/2000/svg" viewBox="0 0 1560 852"><defs><style>.a{fill:#fff;}.a,.b,.c,.d,.e,.f,.g,.h,.i,.j,.k,.l,.m{stroke:#4c8b73;}.a,.b,.c,.d,.e,.f,.g,.h,.i,.j,.k,.l{stroke-width:5px;}.b,.m{fill:#4c8b73;}.c{fill:#59d3a5;}.d{fill:#7ce2bb;}.e{fill:#abf6d9;}.f{fill:#48cb9a;}.g{fill:#9befcf;}.h{fill:#8ce9c5;}.i{fill:#85e6c1;}.j{fill:#18b77b;}.k{fill:#3cc692;}.l{fill:#3ec793;}.n,.o{fill:#ebf9f4;}.n{font-size:20px;font-family:Lato-Bold, Lato;font-weight:700;}.o{font-size:16px;font-family:Lato-Italic, Lato;font-style:italic;}.p{stroke:none;}.q{fill:none;}</style></defs><g transform="translate(-180 -13405)"><g class="a" transform="translate(180 13565)"><rect class="p" width="1560" height="692"/><rect class="q" x="2.5" y="2.5" width="1555" height="687"/></g><g class="b" transform="translate(180 13565)"><rect class="p" width="1560" height="31"/><rect class="q" x="2.5" y="2.5" width="1555" height="26"/></g><g class="a" transform="translate(810 13405)"><rect class="p" width="300" height="852"/><rect class="q" x="2.5" y="2.5" width="295" height="847"/></g><g class="c" transform="translate(230 13639)"><rect class="p" width="150" height="150"/><rect class="q" x="2.5" y="2.5" width="145" height="145"/></g><g class="d" transform="translate(375 13639)"><rect class="p" width="150" height="150"/><rect class="q" x="2.5" y="2.5" width="145" height="145"/></g><g class="e" transform="translate(520 13639)"><rect class="p" width="150" height="150"/><rect class="q" x="2.5" y="2.5" width="145" height="145"/></g><g class="f" transform="translate(665 13639)"><rect class="p" width="150" height="150"/><rect class="q" x="2.5" y="2.5" width="145" height="145"/></g><g class="g" transform="translate(810 13639)"><rect class="p" width="150" height="150"/><rect class="q" x="2.5" y="2.5" width="145" height="145"/></g><g class="h" transform="translate(955 13639)"><rect class="p" width="155" height="150"/><rect class="q" x="2.5" y="2.5" width="150" height="145"/></g><g class="e" transform="translate(1105 13639)"><rect class="p" width="150" height="150"/><rect class="q" x="2.5" y="2.5" width="145" height="145"/></g><g class="i" transform="translate(1250 13639)"><rect class="p" width="150" height="150"/><rect class="q" x="2.5" y="2.5" width="145" height="145"/></g><g class="g" transform="translate(1395 13639)"><rect class="p" width="150" height="150"/><rect class="q" x="2.5" y="2.5" width="145" height="145"/></g><g class="c" transform="translate(1540 13639)"><rect class="p" width="150" height="150"/><rect class="q" x="2.5" y="2.5" width="145" height="145"/></g><g class="h" transform="translate(230 13784)"><rect class="p" width="150" height="150"/><rect class="q" x="2.5" y="2.5" width="145" height="145"/></g><g class="j" transform="translate(375 13784)"><rect class="p" width="150" height="150"/><rect class="q" x="2.5" y="2.5" width="145" height="145"/></g><g class="k" transform="translate(520 13784)"><rect class="p" width="150" height="150"/><rect class="q" x="2.5" y="2.5" width="145" height="145"/></g><g class="j" transform="translate(665 13784)"><rect class="p" width="150" height="150"/><rect class="q" x="2.5" y="2.5" width="145" height="145"/></g><g class="e" transform="translate(230 13929)"><rect class="p" width="150" height="150"/><rect class="q" x="2.5" y="2.5" width="145" height="145"/></g><g class="c" transform="translate(375 13929)"><rect class="p" width="150" height="150"/><rect class="q" x="2.5" y="2.5" width="145" height="145"/></g><g class="k" transform="translate(520 13929)"><rect class="p" width="150" height="150"/><rect class="q" x="2.5" y="2.5" width="145" height="145"/></g><g class="h" transform="translate(665 13929)"><rect class="p" width="150" height="150"/><rect class="q" x="2.5" y="2.5" width="145" height="145"/></g><g class="l" transform="translate(230 14074)"><rect class="p" width="150" height="150"/><rect class="q" x="2.5" y="2.5" width="145" height="145"/></g><g class="k" transform="translate(375 14074)"><rect class="p" width="150" height="150"/><rect class="q" x="2.5" y="2.5" width="145" height="145"/></g><g class="l" transform="translate(520 14074)"><rect class="p" width="150" height="150"/><rect class="q" x="2.5" y="2.5" width="145" height="145"/></g><g class="i" transform="translate(665 14074)"><rect class="p" width="150" height="150"/><rect class="q" x="2.5" y="2.5" width="145" height="145"/></g><g class="c" transform="translate(1105 13784)"><rect class="p" width="150" height="150"/><rect class="q" x="2.5" y="2.5" width="145" height="145"/></g><g class="i" transform="translate(1250 13784)"><rect class="p" width="150" height="150"/><rect class="q" x="2.5" y="2.5" width="145" height="145"/></g><g class="l" transform="translate(1395 13784)"><rect class="p" width="150" height="150"/><rect class="q" x="2.5" y="2.5" width="145" height="145"/></g><g class="d" transform="translate(1540 13784)"><rect class="p" width="150" height="150"/><rect class="q" x="2.5" y="2.5" width="145" height="145"/></g><g class="l" transform="translate(1105 13929)"><rect class="p" width="150" height="150"/><rect class="q" x="2.5" y="2.5" width="145" height="145"/></g><g class="f" transform="translate(1250 13929)"><rect class="p" width="150" height="150"/><rect class="q" x="2.5" y="2.5" width="145" height="145"/></g><g class="k" transform="translate(1395 13929)"><rect class="p" width="150" height="150"/><rect class="q" x="2.5" y="2.5" width="145" height="145"/></g><g class="f" transform="translate(1540 13929)"><rect class="p" width="150" height="150"/><rect class="q" x="2.5" y="2.5" width="145" height="145"/></g><g class="d" transform="translate(1105 14074)"><rect class="p" width="150" height="150"/><rect class="q" x="2.5" y="2.5" width="145" height="145"/></g><g class="e" transform="translate(1250 14074)"><rect class="p" width="150" height="150"/><rect class="q" x="2.5" y="2.5" width="145" height="145"/></g><g class="d" transform="translate(1395 14074)"><rect class="p" width="150" height="150"/><rect class="q" x="2.5" y="2.5" width="145" height="145"/></g><g class="e" transform="translate(1540 14074)"><rect class="p" width="150" height="150"/><rect class="q" x="2.5" y="2.5" width="145" height="145"/></g><g class="a" transform="translate(860 13949)"><rect class="p" width="200" height="308"/><rect class="q" x="2.5" y="2.5" width="195" height="303"/></g><path class="m" d="M67.8-117.3v41h38.9V-58H67.8v41.2h-20V-58H9.1V-76.3H47.8v-41Z" transform="translate(902 13582)"/><g class="a" transform="translate(960 13949)"><rect class="p" width="100" height="308"/><rect class="q" x="2.5" y="2.5" width="95" height="303"/></g><text class="n" transform="translate(305 13770)"><tspan x="-22.9" y="0">Aceh</tspan></text><text class="n" transform="translate(450 13770)"><tspan x="-42.315" y="0">Bengkulu</tspan></text><text class="n" transform="translate(885 13746)"><tspan x="-48" y="0">Kepulauan</tspan><tspan x="-20.18" y="24">Riau</tspan></text><text class="n" transform="translate(740 13746)"><tspan x="-33.36" y="0">Bangka</tspan><tspan x="-37.695" y="24">Belitung</tspan></text><text class="n" transform="translate(1180 13770)"><tspan x="-20.18" y="0">Riau</tspan></text><text class="n" transform="translate(595 13770)"><tspan x="-26.435" y="0">Jambi</tspan></text><text class="n" transform="translate(1033 13770)"><tspan x="-41.025" y="0">Lampung</tspan></text><text class="n" transform="translate(1325 13746)"><tspan x="-43.095" y="0">Sumatera</tspan><tspan x="-24.795" y="24">Barat</tspan></text><text class="n" transform="translate(1615 13746)"><tspan x="-43.095" y="0">Sumatera</tspan><tspan x="-25.56" y="24">Utara</tspan></text><text class="n" transform="translate(1470 13746)"><tspan x="-43.095" y="0">Sumatera</tspan><tspan x="-33.445" y="24">Selatan</tspan></text><text class="n" transform="translate(305 13915)"><tspan x="-53.07" y="0">DKI Jakarta</tspan></text><text class="n" transform="translate(450 13915)"><tspan x="-49.385" y="0">Jawa Barat</tspan></text><text class="n" transform="translate(740 13915)"><tspan x="-51.44" y="0">Jawa Timur</tspan></text><text class="n" transform="translate(1180 13915)"><tspan x="-32.335" y="0">Banten</tspan></text><text class="n" transform="translate(595 13915)"><tspan x="-56.645" y="0">Jawa Tengah</tspan></text><text class="n" transform="translate(1325 13915)"><tspan x="-63.66" y="0">DI Yogyakarta</tspan></text><text class="n" transform="translate(595 14210)"><tspan x="-20.025" y="0">NTB</tspan></text><text class="n" transform="translate(450 14210)"><tspan x="-19.46" y="0">NTT</tspan></text><text class="n" transform="translate(305 14186)"><tspan x="-51.765" y="0">Kalimantan</tspan><tspan x="-25.56" y="24">Utara</tspan></text><text class="n" transform="translate(305 14036)"><tspan x="-51.765" y="0">Kalimantan</tspan><tspan x="-24.795" y="24">Barat</tspan></text><text class="n" transform="translate(450 14036)"><tspan x="-51.765" y="0">Kalimantan</tspan><tspan x="-33.445" y="24">Selatan</tspan></text><text class="n" transform="translate(595 14036)"><tspan x="-51.765" y="0">Kalimantan</tspan><tspan x="-32.055" y="24">Tengah</tspan></text><text class="n" transform="translate(740 14036)"><tspan x="-51.765" y="0">Kalimantan</tspan><tspan x="-26.85" y="24">Timur</tspan></text><text class="n" transform="translate(740 14210)"><tspan x="-17.17" y="0">Bali</tspan></text><text class="n" transform="translate(1470 14186)"><tspan x="-27.81" y="0">Papua</tspan><tspan x="-24.795" y="24">Barat</tspan></text><text class="n" transform="translate(1325 14210)"><tspan x="-34.13" y="0">Maluku</tspan></text><text class="n" transform="translate(1180 14186)"><tspan x="-34.13" y="0">Maluku</tspan><tspan x="-25.56" y="24">Utara</tspan></text><text class="n" transform="translate(1615 14210)"><tspan x="-27.81" y="0">Papua</tspan></text><text class="n" transform="translate(1615 13891)"><tspan x="-39.24" y="0">Sulawesi</tspan><tspan x="-24.795" y="24">Barat</tspan></text><text class="n" transform="translate(1470 13915)"><tspan x="-45.87" y="0">Gorontalo</tspan></text><text class="n" transform="translate(1325 14036)"><tspan x="-39.24" y="0">Sulawesi</tspan><tspan x="-32.055" y="24">Tengah</tspan></text><text class="n" transform="translate(1180 14036)"><tspan x="-39.24" y="0">Sulawesi</tspan><tspan x="-33.445" y="24">Selatan</tspan></text><text class="n" transform="translate(1615 14036)"><tspan x="-39.24" y="0">Sulawesi</tspan><tspan x="-25.56" y="24">Utara</tspan></text><text class="n" transform="translate(1470 14036)"><tspan x="-39.24" y="0">Sulawesi</tspan><tspan x="-40.72" y="24">Tenggara</tspan></text><text class="o" transform="translate(305 13669)"><tspan x="-15.088" y="0">59%</tspan></text><text class="o" transform="translate(450 13669)"><tspan x="-15.088" y="0">59%</tspan></text><text class="o" transform="translate(595 13669)"><tspan x="-15.088" y="0">59%</tspan></text><text class="o" transform="translate(885 13669)"><tspan x="-15.088" y="0">59%</tspan></text><text class="o" transform="translate(740 13669)"><tspan x="-15.088" y="0">59%</tspan></text><text class="o" transform="translate(1033 13669)"><tspan x="-15.088" y="0">59%</tspan></text><text class="o" transform="translate(1180 13669)"><tspan x="-15.088" y="0">59%</tspan></text><text class="o" transform="translate(1325 13669)"><tspan x="-15.088" y="0">59%</tspan></text><text class="o" transform="translate(1470 13669)"><tspan x="-15.088" y="0">59%</tspan></text><text class="o" transform="translate(1615 13669)"><tspan x="-15.088" y="0">59%</tspan></text><text class="o" transform="translate(305 13819)"><tspan x="-15.088" y="0">59%</tspan></text><text class="o" transform="translate(450 13819)"><tspan x="-15.088" y="0">59%</tspan></text><text class="o" transform="translate(595 13819)"><tspan x="-15.088" y="0">59%</tspan></text><text class="o" transform="translate(740 13819)"><tspan x="-15.088" y="0">59%</tspan></text><text class="o" transform="translate(1180 13819)"><tspan x="-15.088" y="0">59%</tspan></text><text class="o" transform="translate(1325 13819)"><tspan x="-15.088" y="0">59%</tspan></text><text class="o" transform="translate(1470 13819)"><tspan x="-15.088" y="0">59%</tspan></text><text class="o" transform="translate(1615 13819)"><tspan x="-15.088" y="0">59%</tspan></text><text class="o" transform="translate(305 13965)"><tspan x="-15.088" y="0">59%</tspan></text><text class="o" transform="translate(450 13965)"><tspan x="-15.088" y="0">59%</tspan></text><text class="o" transform="translate(595 13965)"><tspan x="-15.088" y="0">59%</tspan></text><text class="o" transform="translate(740 13965)"><tspan x="-15.088" y="0">59%</tspan></text><text class="o" transform="translate(1180 13965)"><tspan x="-15.088" y="0">59%</tspan></text><text class="o" transform="translate(1325 13965)"><tspan x="-15.088" y="0">59%</tspan></text><text class="o" transform="translate(1470 13965)"><tspan x="-15.088" y="0">59%</tspan></text><text class="o" transform="translate(1615 13965)"><tspan x="-15.088" y="0">59%</tspan></text><text class="o" transform="translate(305 14110)"><tspan x="-15.088" y="0">59%</tspan></text><text class="o" transform="translate(450 14110)"><tspan x="-15.088" y="0">59%</tspan></text><text class="o" transform="translate(595 14110)"><tspan x="-15.088" y="0">59%</tspan></text><text class="o" transform="translate(740 14110)"><tspan x="-15.088" y="0">59%</tspan></text><text class="o" transform="translate(1180 14110)"><tspan x="-15.088" y="0">59%</tspan></text><text class="o" transform="translate(1325 14110)"><tspan x="-15.088" y="0">59%</tspan></text><text class="o" transform="translate(1470 14110)"><tspan x="-15.088" y="0">59%</tspan></text><text class="o" transform="translate(1615 14110)"><tspan x="-15.088" y="0">59%</tspan></text></g></svg>