<svg xmlns="http://www.w3.org/2000/svg" width="144.277" height="48.79" viewBox="0 0 144.277 48.79"><defs><style>.a,.b{fill:none;stroke-width:2.5px;}.a{stroke:#f38800;}.b{stroke:#6fad76;}</style></defs><g transform="translate(3.014 -4.122)"><path class="a" d="M27.687,26.517C19.257,18.014,9.583,13.183,0,7.4,9.217,26.059,14.9,33.056,26.5,41.266c3.178,4.2,7.539,6.179,12.657,6.826,11.413,1.446,22.636,4.642,32.982,2.8C59.992,45.225,45.193,44.3,31.011,40.845,30.883,35.941,33.281,32.159,27.687,26.517Z" transform="translate(0 0)"/><path class="a" d="M36.373,14.762c-.872-6.051-5.209-1.885-7.881-2.672-3.483-.586-6.984-1.147-11.876-1.94,4.855,6.228,7.289,12.5,15.213,13.615,3.391.47,9.644,1.684,8.851,5.234-2.025,9.119,5.173,5.386,8.259,7.545C49.75,15.641,52.294,17.239,36.373,14.762Z" transform="translate(90.537 14.03)"/><path class="a" d="M12.707,15.623c-2.4,10.412-2.385,10.431,5.587,12.389.421.11.586,1.086.994,1.549,1.153,1.226,2.879,1.873,4.2,1.031,2.007-1.311.72-3.343.073-4.929-.769-1.934-3.733-3.4-1.714-5.862.823-1,4.41.61,3.477-2.464-.793-2.623-3.66-1.9-5.691-1.519-1.635.317-3.27,1.909-3.892-1.116,4.081-2.977,10.7,2.233,14.377-5.307-6.143,2.727-12.1-1.092-17.287,2.684A17.99,17.99,0,0,1,12.707,15.623Z" transform="translate(59.146 10.174)"/><path class="b" d="M37.9,19.225c-.183-.043-.317-.012-.482-.043a16.413,16.413,0,0,1-2.9-3.715,3.742,3.742,0,0,1-.2-.323,7.24,7.24,0,0,1-.457-1.745c-.256-2.251.354-5.093-3.483-5.411-3.331-.274-4.27,1.94-5.167,4.209-2.806,7.051-9.327,5.96-14.048,4.794-5.8-1.44-5.069.964-4.136,4.355a23.128,23.128,0,0,0,2.916,6.685c3.642,5.5,10.217,3.843,15.365,5.5,4.91,1.574,3.312-4.7,5.282-6.813,1.72-1.818,1.494-5.7,3.684-7.106a4.274,4.274,0,0,1,3.16-.4c.091.091.177.183.274.293.073-.055.128-.067.2-.128A.594.594,0,0,1,37.9,19.225Z" transform="translate(29.714 0.472)"/><path class="b" d="M16.919,21.523c2.1-3.818,5.758-7.369,2.025-12.621C14.009,12.678,14.741,16.978,16.919,21.523Z" transform="translate(79.664 3.794)"/></g></svg>