<svg xmlns="http://www.w3.org/2000/svg" width="20" height="20" viewBox="0 0 20 20"><g transform="translate(-742 -2048)"><path d="M.738-8.625v7.273H-1.013V-8.625ZM1-10.744a1,1,0,0,1-.092.425,1.169,1.169,0,0,1-.245.347,1.169,1.169,0,0,1-.358.237,1.1,1.1,0,0,1-.439.089,1.056,1.056,0,0,1-.429-.089,1.136,1.136,0,0,1-.351-.237,1.148,1.148,0,0,1-.237-.347,1.031,1.031,0,0,1-.089-.425,1.1,1.1,0,0,1,.089-.439,1.125,1.125,0,0,1,.237-.354,1.136,1.136,0,0,1,.351-.237,1.056,1.056,0,0,1,.429-.089,1.1,1.1,0,0,1,.439.089,1.169,1.169,0,0,1,.358.237,1.143,1.143,0,0,1,.245.354A1.062,1.062,0,0,1,1-10.744Z" transform="translate(752 2065)" fill="#f38500"/><g transform="translate(742 2048)" fill="none" stroke="#f38500" stroke-width="2"><circle cx="10" cy="10" r="10" stroke="none"/><circle cx="10" cy="10" r="9" fill="none"/></g></g></svg>