<svg xmlns="http://www.w3.org/2000/svg" width="23.005" height="72.229" viewBox="0 0 23.005 72.229"><defs><style>.a{fill:#6bab79;}</style></defs><g transform="translate(-89.283)"><path class="a" d="M108.675,16.927a8.463,8.463,0,1,0-8.464-8.463A8.473,8.473,0,0,0,108.675,16.927Zm0-12.792a4.328,4.328,0,1,1-4.329,4.329A4.334,4.334,0,0,1,108.675,4.135Z" transform="translate(-7.916)"/><path class="a" d="M104.03,68.914H97.541a8.267,8.267,0,0,0-8.258,8.259V91.089a8.241,8.241,0,0,0,3.3,6.6v22.394a2.067,2.067,0,1,0,4.135,0V96.56a2.066,2.066,0,0,0-1.1-1.828,4.127,4.127,0,0,1-2.2-3.642V77.173a4.128,4.128,0,0,1,4.123-4.124h6.489a4.128,4.128,0,0,1,4.123,4.124V91.089a4.127,4.127,0,0,1-2.2,3.643,2.066,2.066,0,0,0-1.1,1.828v23.519a2.067,2.067,0,1,0,4.135,0V97.684a8.24,8.24,0,0,0,3.3-6.595V77.173A8.268,8.268,0,0,0,104.03,68.914Z" transform="translate(0 -49.917)"/></g></svg>