<svg xmlns="http://www.w3.org/2000/svg" width="21.161" height="54.188" viewBox="0 0 21.161 54.188"><defs><style>.a{fill:#f38500;}</style></defs><g transform="translate(-952 -12556.924)"><g transform="translate(862.717 12564)"><path class="a" d="M105.731,11.041a5.52,5.52,0,1,0-5.52-5.52A5.526,5.526,0,0,0,105.731,11.041Zm0-8.344a2.823,2.823,0,1,1-2.823,2.824A2.827,2.827,0,0,1,105.731,2.7Z" transform="translate(-8.963)"/><path class="a" d="M98.9,68.914H94.669A5.392,5.392,0,0,0,89.283,74.3v9.077a5.375,5.375,0,0,0,2.152,4.3v14.607a1.349,1.349,0,1,0,2.7,0V86.946a1.348,1.348,0,0,0-.72-1.193,2.692,2.692,0,0,1-1.432-2.376V74.3a2.692,2.692,0,0,1,2.689-2.69H98.9a2.693,2.693,0,0,1,2.689,2.69v9.077a2.692,2.692,0,0,1-1.433,2.376,1.348,1.348,0,0,0-.719,1.192v15.34a1.349,1.349,0,1,0,2.7,0V87.679a5.375,5.375,0,0,0,2.152-4.3V74.3A5.393,5.393,0,0,0,98.9,68.914Z" transform="translate(0 -56.523)"/></g><path class="a" d="M.164-14.076v4.213h4v1.88h-4v4.234H-1.891V-7.982H-5.868v-1.88h3.977v-4.213Z" transform="translate(969 12571)"/></g></svg>