<svg xmlns="http://www.w3.org/2000/svg" width="114.04" height="79.153" viewBox="0 0 114.04 79.153"><defs><style>.a,.b{fill:#fff;}.b{stroke:#fff;stroke-width:0.5px;}</style></defs><g transform="translate(-1359 -4472)"><g transform="translate(1359 4472)"><path class="a" d="M104.332,8.243a4.121,4.121,0,1,0-4.121-4.121A4.126,4.126,0,0,0,104.332,8.243Zm0-6.229a2.108,2.108,0,1,1-2.108,2.108A2.11,2.11,0,0,1,104.332,2.014Z" transform="translate(-98.744 0)"/><path class="a" d="M96.464,68.914H93.3a4.026,4.026,0,0,0-4.021,4.022v6.777a4.013,4.013,0,0,0,1.606,3.211V93.829a1.007,1.007,0,0,0,2.014,0V82.376a1.006,1.006,0,0,0-.537-.89A2.01,2.01,0,0,1,91.3,79.712V72.936A2.01,2.01,0,0,1,93.3,70.928h3.16a2.01,2.01,0,0,1,2.008,2.008v6.777a2.01,2.01,0,0,1-1.07,1.774,1.006,1.006,0,0,0-.537.89V93.829a1.007,1.007,0,0,0,2.014,0V82.924a4.013,4.013,0,0,0,1.607-3.211V72.936A4.026,4.026,0,0,0,96.464,68.914Z" transform="translate(-89.283 -59.663)"/></g><g transform="translate(1373.876 4472)"><path class="a" d="M104.332,8.243a4.121,4.121,0,1,0-4.121-4.121A4.126,4.126,0,0,0,104.332,8.243Zm0-6.229a2.108,2.108,0,1,1-2.108,2.108A2.11,2.11,0,0,1,104.332,2.014Z" transform="translate(-98.744 0)"/><path class="a" d="M96.464,68.914H93.3a4.026,4.026,0,0,0-4.021,4.022v6.777a4.013,4.013,0,0,0,1.606,3.211V93.829a1.007,1.007,0,0,0,2.014,0V82.376a1.006,1.006,0,0,0-.537-.89A2.01,2.01,0,0,1,91.3,79.712V72.936A2.01,2.01,0,0,1,93.3,70.928h3.16a2.01,2.01,0,0,1,2.008,2.008v6.777a2.01,2.01,0,0,1-1.07,1.774,1.006,1.006,0,0,0-.537.89V93.829a1.007,1.007,0,0,0,2.014,0V82.924a4.013,4.013,0,0,0,1.607-3.211V72.936A4.026,4.026,0,0,0,96.464,68.914Z" transform="translate(-89.283 -59.663)"/></g><g transform="translate(1388.105 4472)"><path class="a" d="M104.332,8.243a4.121,4.121,0,1,0-4.121-4.121A4.126,4.126,0,0,0,104.332,8.243Zm0-6.229a2.108,2.108,0,1,1-2.108,2.108A2.11,2.11,0,0,1,104.332,2.014Z" transform="translate(-98.744 0)"/><path class="a" d="M96.464,68.914H93.3a4.026,4.026,0,0,0-4.021,4.022v6.777a4.013,4.013,0,0,0,1.606,3.211V93.829a1.007,1.007,0,0,0,2.014,0V82.376a1.006,1.006,0,0,0-.537-.89A2.01,2.01,0,0,1,91.3,79.712V72.936A2.01,2.01,0,0,1,93.3,70.928h3.16a2.01,2.01,0,0,1,2.008,2.008v6.777a2.01,2.01,0,0,1-1.07,1.774,1.006,1.006,0,0,0-.537.89V93.829a1.007,1.007,0,0,0,2.014,0V82.924a4.013,4.013,0,0,0,1.607-3.211V72.936A4.026,4.026,0,0,0,96.464,68.914Z" transform="translate(-89.283 -59.663)"/></g><g transform="translate(1402.981 4472)"><path class="a" d="M104.332,8.243a4.121,4.121,0,1,0-4.121-4.121A4.126,4.126,0,0,0,104.332,8.243Zm0-6.229a2.108,2.108,0,1,1-2.108,2.108A2.11,2.11,0,0,1,104.332,2.014Z" transform="translate(-98.744 0)"/><path class="a" d="M96.464,68.914H93.3a4.026,4.026,0,0,0-4.021,4.022v6.777a4.013,4.013,0,0,0,1.606,3.211V93.829a1.007,1.007,0,0,0,2.014,0V82.376a1.006,1.006,0,0,0-.537-.89A2.01,2.01,0,0,1,91.3,79.712V72.936A2.01,2.01,0,0,1,93.3,70.928h3.16a2.01,2.01,0,0,1,2.008,2.008v6.777a2.01,2.01,0,0,1-1.07,1.774,1.006,1.006,0,0,0-.537.89V93.829a1.007,1.007,0,0,0,2.014,0V82.924a4.013,4.013,0,0,0,1.607-3.211V72.936A4.026,4.026,0,0,0,96.464,68.914Z" transform="translate(-89.283 -59.663)"/></g><g transform="translate(1417.857 4472)"><path class="a" d="M104.332,8.243a4.121,4.121,0,1,0-4.121-4.121A4.126,4.126,0,0,0,104.332,8.243Zm0-6.229a2.108,2.108,0,1,1-2.108,2.108A2.11,2.11,0,0,1,104.332,2.014Z" transform="translate(-98.744 0)"/><path class="a" d="M96.464,68.914H93.3a4.026,4.026,0,0,0-4.021,4.022v6.777a4.013,4.013,0,0,0,1.606,3.211V93.829a1.007,1.007,0,0,0,2.014,0V82.376a1.006,1.006,0,0,0-.537-.89A2.01,2.01,0,0,1,91.3,79.712V72.936A2.01,2.01,0,0,1,93.3,70.928h3.16a2.01,2.01,0,0,1,2.008,2.008v6.777a2.01,2.01,0,0,1-1.07,1.774,1.006,1.006,0,0,0-.537.89V93.829a1.007,1.007,0,0,0,2.014,0V82.924a4.013,4.013,0,0,0,1.607-3.211V72.936A4.026,4.026,0,0,0,96.464,68.914Z" transform="translate(-89.283 -59.663)"/></g><g transform="translate(1432.732 4472)"><path class="a" d="M104.332,8.243a4.121,4.121,0,1,0-4.121-4.121A4.126,4.126,0,0,0,104.332,8.243Zm0-6.229a2.108,2.108,0,1,1-2.108,2.108A2.11,2.11,0,0,1,104.332,2.014Z" transform="translate(-98.744 0)"/><path class="a" d="M96.464,68.914H93.3a4.026,4.026,0,0,0-4.021,4.022v6.777a4.013,4.013,0,0,0,1.606,3.211V93.829a1.007,1.007,0,0,0,2.014,0V82.376a1.006,1.006,0,0,0-.537-.89A2.01,2.01,0,0,1,91.3,79.712V72.936A2.01,2.01,0,0,1,93.3,70.928h3.16a2.01,2.01,0,0,1,2.008,2.008v6.777a2.01,2.01,0,0,1-1.07,1.774,1.006,1.006,0,0,0-.537.89V93.829a1.007,1.007,0,0,0,2.014,0V82.924a4.013,4.013,0,0,0,1.607-3.211V72.936A4.026,4.026,0,0,0,96.464,68.914Z" transform="translate(-89.283 -59.663)"/></g><g transform="translate(1446.962 4472)"><path class="a" d="M104.332,8.243a4.121,4.121,0,1,0-4.121-4.121A4.126,4.126,0,0,0,104.332,8.243Zm0-6.229a2.108,2.108,0,1,1-2.108,2.108A2.11,2.11,0,0,1,104.332,2.014Z" transform="translate(-98.744 0)"/><path class="a" d="M96.464,68.914H93.3a4.026,4.026,0,0,0-4.021,4.022v6.777a4.013,4.013,0,0,0,1.606,3.211V93.829a1.007,1.007,0,0,0,2.014,0V82.376a1.006,1.006,0,0,0-.537-.89A2.01,2.01,0,0,1,91.3,79.712V72.936A2.01,2.01,0,0,1,93.3,70.928h3.16a2.01,2.01,0,0,1,2.008,2.008v6.777a2.01,2.01,0,0,1-1.07,1.774,1.006,1.006,0,0,0-.537.89V93.829a1.007,1.007,0,0,0,2.014,0V82.924a4.013,4.013,0,0,0,1.607-3.211V72.936A4.026,4.026,0,0,0,96.464,68.914Z" transform="translate(-89.283 -59.663)"/></g><g transform="translate(1461.837 4472)"><path class="a" d="M104.332,8.243a4.121,4.121,0,1,0-4.121-4.121A4.126,4.126,0,0,0,104.332,8.243Zm0-6.229a2.108,2.108,0,1,1-2.108,2.108A2.11,2.11,0,0,1,104.332,2.014Z" transform="translate(-98.744 0)"/><path class="a" d="M96.464,68.914H93.3a4.026,4.026,0,0,0-4.021,4.022v6.777a4.013,4.013,0,0,0,1.606,3.211V93.829a1.007,1.007,0,0,0,2.014,0V82.376a1.006,1.006,0,0,0-.537-.89A2.01,2.01,0,0,1,91.3,79.712V72.936A2.01,2.01,0,0,1,93.3,70.928h3.16a2.01,2.01,0,0,1,2.008,2.008v6.777a2.01,2.01,0,0,1-1.07,1.774,1.006,1.006,0,0,0-.537.89V93.829a1.007,1.007,0,0,0,2.014,0V82.924a4.013,4.013,0,0,0,1.607-3.211V72.936A4.026,4.026,0,0,0,96.464,68.914Z" transform="translate(-89.283 -59.663)"/></g><g transform="translate(1359 4515.981)"><path class="a" d="M104.332,8.243a4.121,4.121,0,1,0-4.121-4.121A4.126,4.126,0,0,0,104.332,8.243Zm0-6.229a2.108,2.108,0,1,1-2.108,2.108A2.11,2.11,0,0,1,104.332,2.014Z" transform="translate(-98.744 0)"/><path class="a" d="M96.464,68.914H93.3a4.026,4.026,0,0,0-4.021,4.022v6.777a4.013,4.013,0,0,0,1.606,3.211V93.829a1.007,1.007,0,0,0,2.014,0V82.376a1.006,1.006,0,0,0-.537-.89A2.01,2.01,0,0,1,91.3,79.712V72.936A2.01,2.01,0,0,1,93.3,70.928h3.16a2.01,2.01,0,0,1,2.008,2.008v6.777a2.01,2.01,0,0,1-1.07,1.774,1.006,1.006,0,0,0-.537.89V93.829a1.007,1.007,0,0,0,2.014,0V82.924a4.013,4.013,0,0,0,1.607-3.211V72.936A4.026,4.026,0,0,0,96.464,68.914Z" transform="translate(-89.283 -59.663)"/></g><g transform="translate(1373.876 4515.981)"><path class="a" d="M104.332,8.243a4.121,4.121,0,1,0-4.121-4.121A4.126,4.126,0,0,0,104.332,8.243Zm0-6.229a2.108,2.108,0,1,1-2.108,2.108A2.11,2.11,0,0,1,104.332,2.014Z" transform="translate(-98.744 0)"/><path class="a" d="M96.464,68.914H93.3a4.026,4.026,0,0,0-4.021,4.022v6.777a4.013,4.013,0,0,0,1.606,3.211V93.829a1.007,1.007,0,0,0,2.014,0V82.376a1.006,1.006,0,0,0-.537-.89A2.01,2.01,0,0,1,91.3,79.712V72.936A2.01,2.01,0,0,1,93.3,70.928h3.16a2.01,2.01,0,0,1,2.008,2.008v6.777a2.01,2.01,0,0,1-1.07,1.774,1.006,1.006,0,0,0-.537.89V93.829a1.007,1.007,0,0,0,2.014,0V82.924a4.013,4.013,0,0,0,1.607-3.211V72.936A4.026,4.026,0,0,0,96.464,68.914Z" transform="translate(-89.283 -59.663)"/></g><g transform="translate(1388.105 4515.981)"><path class="a" d="M104.332,8.243a4.121,4.121,0,1,0-4.121-4.121A4.126,4.126,0,0,0,104.332,8.243Zm0-6.229a2.108,2.108,0,1,1-2.108,2.108A2.11,2.11,0,0,1,104.332,2.014Z" transform="translate(-98.744 0)"/><path class="a" d="M96.464,68.914H93.3a4.026,4.026,0,0,0-4.021,4.022v6.777a4.013,4.013,0,0,0,1.606,3.211V93.829a1.007,1.007,0,0,0,2.014,0V82.376a1.006,1.006,0,0,0-.537-.89A2.01,2.01,0,0,1,91.3,79.712V72.936A2.01,2.01,0,0,1,93.3,70.928h3.16a2.01,2.01,0,0,1,2.008,2.008v6.777a2.01,2.01,0,0,1-1.07,1.774,1.006,1.006,0,0,0-.537.89V93.829a1.007,1.007,0,0,0,2.014,0V82.924a4.013,4.013,0,0,0,1.607-3.211V72.936A4.026,4.026,0,0,0,96.464,68.914Z" transform="translate(-89.283 -59.663)"/></g><g transform="translate(1402.981 4515.981)"><path class="a" d="M104.332,8.243a4.121,4.121,0,1,0-4.121-4.121A4.126,4.126,0,0,0,104.332,8.243Zm0-6.229a2.108,2.108,0,1,1-2.108,2.108A2.11,2.11,0,0,1,104.332,2.014Z" transform="translate(-98.744 0)"/><path class="a" d="M96.464,68.914H93.3a4.026,4.026,0,0,0-4.021,4.022v6.777a4.013,4.013,0,0,0,1.606,3.211V93.829a1.007,1.007,0,0,0,2.014,0V82.376a1.006,1.006,0,0,0-.537-.89A2.01,2.01,0,0,1,91.3,79.712V72.936A2.01,2.01,0,0,1,93.3,70.928h3.16a2.01,2.01,0,0,1,2.008,2.008v6.777a2.01,2.01,0,0,1-1.07,1.774,1.006,1.006,0,0,0-.537.89V93.829a1.007,1.007,0,0,0,2.014,0V82.924a4.013,4.013,0,0,0,1.607-3.211V72.936A4.026,4.026,0,0,0,96.464,68.914Z" transform="translate(-89.283 -59.663)"/></g><g transform="translate(1417.857 4515.981)"><path class="a" d="M104.332,8.243a4.121,4.121,0,1,0-4.121-4.121A4.126,4.126,0,0,0,104.332,8.243Zm0-6.229a2.108,2.108,0,1,1-2.108,2.108A2.11,2.11,0,0,1,104.332,2.014Z" transform="translate(-98.744 0)"/><path class="a" d="M96.464,68.914H93.3a4.026,4.026,0,0,0-4.021,4.022v6.777a4.013,4.013,0,0,0,1.606,3.211V93.829a1.007,1.007,0,0,0,2.014,0V82.376a1.006,1.006,0,0,0-.537-.89A2.01,2.01,0,0,1,91.3,79.712V72.936A2.01,2.01,0,0,1,93.3,70.928h3.16a2.01,2.01,0,0,1,2.008,2.008v6.777a2.01,2.01,0,0,1-1.07,1.774,1.006,1.006,0,0,0-.537.89V93.829a1.007,1.007,0,0,0,2.014,0V82.924a4.013,4.013,0,0,0,1.607-3.211V72.936A4.026,4.026,0,0,0,96.464,68.914Z" transform="translate(-89.283 -59.663)"/></g><g transform="translate(1432.086 4515.981)"><path class="a" d="M104.332,8.243a4.121,4.121,0,1,0-4.121-4.121A4.126,4.126,0,0,0,104.332,8.243Zm0-6.229a2.108,2.108,0,1,1-2.108,2.108A2.11,2.11,0,0,1,104.332,2.014Z" transform="translate(-98.744 0)"/><path class="a" d="M96.464,68.914H93.3a4.026,4.026,0,0,0-4.021,4.022v6.777a4.013,4.013,0,0,0,1.606,3.211V93.829a1.007,1.007,0,0,0,2.014,0V82.376a1.006,1.006,0,0,0-.537-.89A2.01,2.01,0,0,1,91.3,79.712V72.936A2.01,2.01,0,0,1,93.3,70.928h3.16a2.01,2.01,0,0,1,2.008,2.008v6.777a2.01,2.01,0,0,1-1.07,1.774,1.006,1.006,0,0,0-.537.89V93.829a1.007,1.007,0,0,0,2.014,0V82.924a4.013,4.013,0,0,0,1.607-3.211V72.936A4.026,4.026,0,0,0,96.464,68.914Z" transform="translate(-89.283 -59.663)"/></g><g transform="translate(1446.315 4515.981)"><path class="a" d="M104.332,8.243a4.121,4.121,0,1,0-4.121-4.121A4.126,4.126,0,0,0,104.332,8.243Zm0-6.229a2.108,2.108,0,1,1-2.108,2.108A2.11,2.11,0,0,1,104.332,2.014Z" transform="translate(-98.744 0)"/><path class="a" d="M96.464,68.914H93.3a4.026,4.026,0,0,0-4.021,4.022v6.777a4.013,4.013,0,0,0,1.606,3.211V93.829a1.007,1.007,0,0,0,2.014,0V82.376a1.006,1.006,0,0,0-.537-.89A2.01,2.01,0,0,1,91.3,79.712V72.936A2.01,2.01,0,0,1,93.3,70.928h3.16a2.01,2.01,0,0,1,2.008,2.008v6.777a2.01,2.01,0,0,1-1.07,1.774,1.006,1.006,0,0,0-.537.89V93.829a1.007,1.007,0,0,0,2.014,0V82.924a4.013,4.013,0,0,0,1.607-3.211V72.936A4.026,4.026,0,0,0,96.464,68.914Z" transform="translate(-89.283 -59.663)"/></g><path class="b" d="M-5.32-18.768v1.749h1.659v.781H-5.32v1.757h-.853v-1.757H-7.824v-.781h1.651v-1.749Z" transform="translate(1457.486 4548.481)"/><path class="b" d="M-5.32-18.768v1.749h1.659v.781H-5.32v1.757h-.853v-1.757H-7.824v-.781h1.651v-1.749Z" transform="translate(1443.258 4548.481)"/><path class="b" d="M-5.32-18.768v1.749h1.659v.781H-5.32v1.757h-.853v-1.757H-7.824v-.781h1.651v-1.749Z" transform="translate(1429.028 4548.481)"/><path class="b" d="M-5.32-18.768v1.749h1.659v.781H-5.32v1.757h-.853v-1.757H-7.824v-.781h1.651v-1.749Z" transform="translate(1414.153 4548.481)"/><path class="b" d="M-5.32-18.768v1.749h1.659v.781H-5.32v1.757h-.853v-1.757H-7.824v-.781h1.651v-1.749Z" transform="translate(1399.277 4548.481)"/><path class="b" d="M-5.32-18.768v1.749h1.659v.781H-5.32v1.757h-.853v-1.757H-7.824v-.781h1.651v-1.749Z" transform="translate(1385.048 4548.481)"/><path class="b" d="M-5.32-18.768v1.749h1.659v.781H-5.32v1.757h-.853v-1.757H-7.824v-.781h1.651v-1.749Z" transform="translate(1370.172 4548.481)"/><path class="b" d="M-5.32-18.768v1.749h1.659v.781H-5.32v1.757h-.853v-1.757H-7.824v-.781h1.651v-1.749Z" transform="translate(1473.009 4504.5)"/></g></svg>