<svg xmlns="http://www.w3.org/2000/svg" width="82.713" height="79.002" viewBox="0 0 82.713 79.002"><defs><style>.a,.e{fill:none;}.a,.c{stroke:#fff;}.a{stroke-width:3px;}.b{fill:#6bab79;}.c{fill:#fff;}.d{stroke:none;}</style></defs><g transform="translate(-1305 -162.793)"><g class="a" transform="translate(1305 163.347)"><circle class="d" cx="39" cy="39" r="39"/><circle class="e" cx="39" cy="39" r="37.5"/></g><rect class="b" width="79.002" height="3.911" transform="matrix(-0.174, -0.985, 0.985, -0.174, 1349.266, 241.466)"/><rect class="b" width="43.021" height="28.159" transform="translate(1336.354 199.363) rotate(-45)"/><rect class="b" width="79.002" height="3.911" transform="translate(1345.512 162.793) rotate(90)"/><g class="a" transform="translate(1321 179.347)"><circle class="d" cx="23" cy="23" r="23"/><circle class="e" cx="23" cy="23" r="21.5"/></g><path class="c" d="M4.358-23.46v9.875h9.369v4.408H4.358V.746H-.459V-9.177H-9.78v-4.408H-.459V-23.46Z" transform="translate(1342.329 212.65)"/><g transform="translate(1375.195 201.567) rotate(-90)"><g transform="translate(0 0)"><path class="c" d="M11.74,5.561.725.053A.5.5,0,0,0,.078.77L3.412,6.009.078,11.248a.5.5,0,0,0,.646.717L11.74,6.457a.5.5,0,0,0,0-.9Z"/></g></g></g></svg>