<svg xmlns="http://www.w3.org/2000/svg" width="253.161" height="230" viewBox="0 0 253.161 230"><defs><style>.a,.d,.e,.g{fill:none;}.a,.d,.e{stroke:#6bab79;}.a{stroke-width:2px;stroke-dasharray:10;}.b{fill:#6bab79;}.c{fill:#f38500;}.e{stroke-dasharray:3;}.f{stroke:none;}</style></defs><g transform="translate(-853 -8661)"><g class="a" transform="translate(853 8661)"><circle class="f" cx="115" cy="115" r="115"/><circle class="g" cx="115" cy="115" r="114"/></g><g transform="translate(870.717 8752)"><path class="b" d="M105.731,11.041a5.52,5.52,0,1,0-5.52-5.52A5.526,5.526,0,0,0,105.731,11.041Zm0-8.344a2.823,2.823,0,1,1-2.823,2.824A2.827,2.827,0,0,1,105.731,2.7Z" transform="translate(-8.963)"/><path class="b" d="M98.9,68.914H94.669A5.392,5.392,0,0,0,89.283,74.3v9.077a5.375,5.375,0,0,0,2.152,4.3v14.607a1.349,1.349,0,1,0,2.7,0V86.946a1.348,1.348,0,0,0-.72-1.193,2.692,2.692,0,0,1-1.432-2.376V74.3a2.692,2.692,0,0,1,2.689-2.69H98.9a2.693,2.693,0,0,1,2.689,2.69v9.077a2.692,2.692,0,0,1-1.433,2.376,1.348,1.348,0,0,0-.719,1.192v15.34a1.349,1.349,0,1,0,2.7,0V87.679a5.375,5.375,0,0,0,2.152-4.3V74.3A5.393,5.393,0,0,0,98.9,68.914Z" transform="translate(0 -56.523)"/></g><g transform="translate(995.717 8752)"><path class="c" d="M105.731,11.041a5.52,5.52,0,1,0-5.52-5.52A5.526,5.526,0,0,0,105.731,11.041Zm0-8.344a2.823,2.823,0,1,1-2.823,2.824A2.827,2.827,0,0,1,105.731,2.7Z" transform="translate(-8.963)"/><path class="c" d="M98.9,68.914H94.669A5.392,5.392,0,0,0,89.283,74.3v9.077a5.375,5.375,0,0,0,2.152,4.3v14.607a1.349,1.349,0,1,0,2.7,0V86.946a1.348,1.348,0,0,0-.72-1.193,2.692,2.692,0,0,1-1.432-2.376V74.3a2.692,2.692,0,0,1,2.689-2.69H98.9a2.693,2.693,0,0,1,2.689,2.69v9.077a2.692,2.692,0,0,1-1.433,2.376,1.348,1.348,0,0,0-.719,1.192v15.34a1.349,1.349,0,1,0,2.7,0V87.679a5.375,5.375,0,0,0,2.152-4.3V74.3A5.393,5.393,0,0,0,98.9,68.914Z" transform="translate(0 -56.523)"/></g><g transform="translate(0 -1083)"><line class="d" x2="100" transform="translate(978.5 9858.5)"/><g transform="translate(1072.708 9854.268)"><g transform="translate(0.003 0)"><path class="b" d="M7.888,3.735.49.035A.337.337,0,0,0,.055.517L2.294,4.036.055,7.554a.337.337,0,0,0,.434.482l7.4-3.7a.337.337,0,0,0,0-.6Z" transform="translate(-0.003 0)"/></g></g><g transform="translate(1072.708 9854.268)"><g transform="translate(0.003 0)"><path class="b" d="M7.888,3.735.49.035A.337.337,0,0,0,.055.517L2.294,4.036.055,7.554a.337.337,0,0,0,.434.482l7.4-3.7a.337.337,0,0,0,0-.6Z" transform="translate(-86.926 8.071) rotate(180)"/></g></g></g><g transform="translate(7163.333 1037.643) rotate(45)"><line class="e" x2="100" transform="translate(978.5 9858.5)"/><g transform="translate(1072.708 9854.268)"><g transform="translate(0.003 0)"><path class="b" d="M7.888,3.735.49.035A.337.337,0,0,0,.055.517L2.294,4.036.055,7.554a.337.337,0,0,0,.434.482l7.4-3.7a.337.337,0,0,0,0-.6Z" transform="translate(-0.003 0)"/></g></g><g transform="translate(1072.708 9854.268)"><g transform="translate(0.003 0)"><path class="b" d="M7.888,3.735.49.035A.337.337,0,0,0,.055.517L2.294,4.036.055,7.554a.337.337,0,0,0,.434.482l7.4-3.7a.337.337,0,0,0,0-.6Z" transform="translate(-86.926 8.071) rotate(180)"/></g></g></g><g transform="translate(-6776.414 2574.217) rotate(-45)"><path class="e" d="M0,0H100" transform="translate(978.5 9858.5)"/><g transform="translate(1072.708 9854.268)"><g transform="translate(0.003 0)"><path class="b" d="M7.888,3.735.49.035A.337.337,0,0,0,.055.517L2.294,4.036.055,7.554a.337.337,0,0,0,.434.482l7.4-3.7a.337.337,0,0,0,0-.6Z" transform="translate(-0.003 0)"/></g></g><g transform="translate(1072.708 9854.268)"><g transform="translate(0.003 0)"><path class="b" d="M7.888,3.735.49.035A.337.337,0,0,0,.055.517L2.294,4.036.055,7.554a.337.337,0,0,0,.434.482l7.4-3.7a.337.337,0,0,0,0-.6Z" transform="translate(-86.926 8.071) rotate(180)"/></g></g></g><path class="c" d="M.164-14.076v4.213h4v1.88h-4v4.234H-1.891V-7.982H-5.868v-1.88h3.977v-4.213Z" transform="translate(1102 8759)"/></g></svg>