<svg xmlns="http://www.w3.org/2000/svg" width="31" height="85.104" viewBox="0 0 31 85.104"><g transform="translate(-802 -8955)"><g transform="translate(802 8955)" fill="#fff" stroke="#f38500" stroke-width="1"><rect width="31" height="52" rx="13" stroke="none"/><rect x="0.5" y="0.5" width="30" height="51" rx="12.5" fill="none"/></g><g transform="translate(815 8963)" fill="#f38500" stroke="#f38500" stroke-width="1"><circle cx="2.5" cy="2.5" r="2.5" stroke="none"/><circle cx="2.5" cy="2.5" r="2" fill="none"/></g><g transform="translate(826 9026) rotate(180)" fill="#fff"><path d="M 15.98175811767578 10.5 L 1.018241763114929 10.5 L 8.5 0.8177247047424316 L 15.98175811767578 10.5 Z" stroke="none"/><path d="M 8.5 1.635472297668457 L 2.036500930786133 10 L 14.96349906921387 10 L 8.5 1.635472297668457 M 8.5 0 L 17 11 L 0 11 L 8.5 0 Z" stroke="none" fill="#f38500"/></g><rect width="17" height="3" transform="translate(809 9014)" fill="#fff"/><g transform="translate(826 9020) rotate(180)" fill="#fff"><path d="M 15.91878318786621 9.5 L 1.081217050552368 9.5 L 8.5 0.7720199823379517 L 15.91878318786621 9.5 Z" stroke="none"/><path d="M 8.5 1.544050216674805 L 2.162442207336426 9 L 14.83755779266357 9 L 8.5 1.544050216674805 M 8.5 0 L 17 10 L 0 10 L 8.5 0 Z" stroke="none" fill="#f38500"/></g><rect width="17" height="3" transform="translate(809 9009)" fill="#fff"/><path d="M-10.7-5.5a.256.256,0,0,1-.24.143.453.453,0,0,1-.221-.071q-.124-.071-.3-.159a2.839,2.839,0,0,0-.426-.162,2.031,2.031,0,0,0-.585-.075A1.726,1.726,0,0,0-13-5.749a1.264,1.264,0,0,0-.4.2.906.906,0,0,0-.253.3.811.811,0,0,0-.088.374.623.623,0,0,0,.146.423,1.271,1.271,0,0,0,.387.292,3.372,3.372,0,0,0,.546.218q.305.094.627.2t.627.237a2.276,2.276,0,0,1,.546.325,1.486,1.486,0,0,1,.387.478,1.462,1.462,0,0,1,.146.679,2.151,2.151,0,0,1-.163.842,1.837,1.837,0,0,1-.481.67,2.319,2.319,0,0,1-.78.445A3.2,3.2,0,0,1-12.818.1,3.325,3.325,0,0,1-14.066-.12,3.162,3.162,0,0,1-15.015-.7l.273-.442a.4.4,0,0,1,.124-.13.347.347,0,0,1,.188-.046.436.436,0,0,1,.247.091q.13.091.315.2a2.426,2.426,0,0,0,.448.2,2.044,2.044,0,0,0,.66.091,1.808,1.808,0,0,0,.592-.088,1.242,1.242,0,0,0,.422-.237A.939.939,0,0,0-11.5-1.4a1.071,1.071,0,0,0,.081-.416.69.69,0,0,0-.146-.452,1.234,1.234,0,0,0-.387-.305,3.152,3.152,0,0,0-.549-.221q-.309-.094-.63-.2t-.63-.237a2.216,2.216,0,0,1-.549-.335,1.516,1.516,0,0,1-.387-.5,1.608,1.608,0,0,1-.146-.718,1.752,1.752,0,0,1,.156-.725,1.777,1.777,0,0,1,.455-.611,2.241,2.241,0,0,1,.734-.419,2.939,2.939,0,0,1,.995-.156,3.146,3.146,0,0,1,1.167.2,2.761,2.761,0,0,1,.894.562Zm6.364.084a.517.517,0,0,1-.1.11.246.246,0,0,1-.149.039A.371.371,0,0,1-4.8-5.346a3.079,3.079,0,0,0-.289-.179A2.422,2.422,0,0,0-5.515-5.7a2.009,2.009,0,0,0-.614-.081,2,2,0,0,0-.852.172,1.651,1.651,0,0,0-.621.5,2.25,2.25,0,0,0-.377.787A3.9,3.9,0,0,0-8.105-3.3a3.776,3.776,0,0,0,.137,1.063,2.3,2.3,0,0,0,.384.78,1.636,1.636,0,0,0,.6.481,1.857,1.857,0,0,0,.8.166,2.035,2.035,0,0,0,.7-.1,2.119,2.119,0,0,0,.455-.224,3.335,3.335,0,0,0,.3-.224.36.36,0,0,1,.234-.1.245.245,0,0,1,.221.11l.325.423a2.5,2.5,0,0,1-1.073.77A3.8,3.8,0,0,1-6.389.091,2.876,2.876,0,0,1-7.537-.137a2.616,2.616,0,0,1-.92-.66,3.13,3.13,0,0,1-.614-1.063A4.272,4.272,0,0,1-9.295-3.3a4.334,4.334,0,0,1,.2-1.359,3.078,3.078,0,0,1,.6-1.076,2.71,2.71,0,0,1,.972-.705,3.275,3.275,0,0,1,1.326-.253,3.128,3.128,0,0,1,1.222.224,2.925,2.925,0,0,1,.943.634ZM-2.756,0V-6.585h.663a.366.366,0,0,1,.26.071.439.439,0,0,1,.1.247l.078,1.027A3.012,3.012,0,0,1-.822-6.315,1.845,1.845,0,0,1,.345-6.7a1.835,1.835,0,0,1,.494.062,1.722,1.722,0,0,1,.409.172L1.1-5.6a.2.2,0,0,1-.2.162A1.011,1.011,0,0,1,.618-5.5a1.763,1.763,0,0,0-.526-.062A1.491,1.491,0,0,0-.92-5.213,2.635,2.635,0,0,0-1.6-4.193V0Zm7.9-6.689a3.382,3.382,0,0,1,1.3.24,2.748,2.748,0,0,1,.988.683A3.021,3.021,0,0,1,8.063-4.7a4.252,4.252,0,0,1,.218,1.4,4.244,4.244,0,0,1-.218,1.4A3.026,3.026,0,0,1,7.439-.826a2.714,2.714,0,0,1-.988.679,3.423,3.423,0,0,1-1.3.237,3.423,3.423,0,0,1-1.3-.237,2.744,2.744,0,0,1-.991-.679,3.039,3.039,0,0,1-.63-1.066A4.187,4.187,0,0,1,2-3.3a4.194,4.194,0,0,1,.221-1.4,3.034,3.034,0,0,1,.63-1.069,2.779,2.779,0,0,1,.991-.683A3.382,3.382,0,0,1,5.148-6.689Zm0,5.876A1.69,1.69,0,0,0,6.6-1.466a3.025,3.025,0,0,0,.481-1.823A3.052,3.052,0,0,0,6.6-5.122a1.687,1.687,0,0,0-1.456-.657,2.021,2.021,0,0,0-.858.169,1.606,1.606,0,0,0-.608.488,2.165,2.165,0,0,0-.364.783,4.2,4.2,0,0,0-.12,1.05,4.16,4.16,0,0,0,.12,1.046,2.133,2.133,0,0,0,.364.777,1.618,1.618,0,0,0,.608.484A2.021,2.021,0,0,0,5.148-.812ZM11-9.575V0H9.841V-9.575Zm3.328,0V0H13.169V-9.575Z" transform="translate(818 9040)" fill="#f38500"/></g></svg>