<svg xmlns="http://www.w3.org/2000/svg" width="75.868" height="75.868" viewBox="0 0 75.868 75.868"><defs><style>.a{fill:#f38500;}.b{fill:#6bab79;}</style></defs><g transform="translate(0 72.707)"><path class="a" d="M74.287,490.667H1.581a1.581,1.581,0,1,0,0,3.161H74.287a1.581,1.581,0,1,0,0-3.161Z" transform="translate(0 -490.667)"/></g><g transform="translate(3.161 53.74)"><path class="a" d="M32.4,362.667H22.914a1.581,1.581,0,0,0-1.581,1.581v18.967a1.581,1.581,0,0,0,1.581,1.58H32.4a1.581,1.581,0,0,0,1.581-1.581V364.247A1.581,1.581,0,0,0,32.4,362.667Zm-1.581,18.967H24.494V365.828h6.322v15.806Z" transform="translate(-21.333 -362.667)"/></g><g transform="translate(22.128 37.934)"><path class="a" d="M160.4,256h-9.483a1.581,1.581,0,0,0-1.581,1.581v34.773a1.581,1.581,0,0,0,1.581,1.581H160.4a1.581,1.581,0,0,0,1.581-1.581V257.581A1.581,1.581,0,0,0,160.4,256Zm-1.581,34.773h-6.322V259.161h6.322Z" transform="translate(-149.333 -256)"/></g><g transform="translate(41.095 44.256)"><path class="a" d="M288.4,298.667h-9.483a1.581,1.581,0,0,0-1.581,1.581V328.7a1.581,1.581,0,0,0,1.581,1.581H288.4a1.581,1.581,0,0,0,1.581-1.581v-28.45A1.581,1.581,0,0,0,288.4,298.667Zm-1.581,28.45h-6.322V301.828h6.322Z" transform="translate(-277.333 -298.667)"/></g><g transform="translate(60.062 25.289)"><path class="a" d="M416.4,170.667h-9.483a1.581,1.581,0,0,0-1.581,1.581v47.417a1.581,1.581,0,0,0,1.581,1.581H416.4a1.581,1.581,0,0,0,1.581-1.581V172.248A1.581,1.581,0,0,0,416.4,170.667Zm-1.581,47.417h-6.322V173.828h6.322Z" transform="translate(-405.333 -170.667)"/></g><g transform="translate(3.161 28.45)"><path class="b" d="M27.655,192a6.322,6.322,0,1,0,6.322,6.322A6.329,6.329,0,0,0,27.655,192Zm0,9.483a3.161,3.161,0,1,1,3.161-3.161A3.164,3.164,0,0,1,27.655,201.483Z" transform="translate(-21.333 -192)"/></g><g transform="translate(22.128 12.645)"><path class="b" d="M155.655,85.333a6.322,6.322,0,1,0,6.322,6.322A6.329,6.329,0,0,0,155.655,85.333Zm0,9.483a3.161,3.161,0,1,1,3.161-3.161A3.164,3.164,0,0,1,155.655,94.816Z" transform="translate(-149.333 -85.333)"/></g><g transform="translate(41.095 18.967)"><path class="b" d="M283.655,128a6.322,6.322,0,1,0,6.322,6.322A6.329,6.329,0,0,0,283.655,128Zm0,9.483a3.161,3.161,0,1,1,3.161-3.161A3.164,3.164,0,0,1,283.655,137.483Z" transform="translate(-277.333 -128)"/></g><g transform="translate(60.062)"><path class="b" d="M411.655,0a6.322,6.322,0,1,0,6.322,6.322A6.329,6.329,0,0,0,411.655,0Zm0,9.483a3.161,3.161,0,1,1,3.161-3.161A3.164,3.164,0,0,1,411.655,9.483Z" transform="translate(-405.333)"/></g><g transform="translate(49.19 8.092)"><path class="b" d="M346.926,55.07a1.582,1.582,0,0,0-2.235,0L332.425,67.336a1.58,1.58,0,0,0,2.235,2.235l12.265-12.265A1.582,1.582,0,0,0,346.926,55.07Z" transform="translate(-331.963 -54.608)"/></g><g transform="translate(31.43 18.682)"><path class="b" d="M224.274,129.037l-10.154-2.9a1.581,1.581,0,0,0-.866,3.041l10.154,2.9a1.581,1.581,0,0,0,.866-3.041Z" transform="translate(-212.108 -126.078)"/></g><g transform="translate(11.252 20.341)"><path class="b" d="M90.667,137.869a1.581,1.581,0,0,0-2.219-.253l-11.918,9.5a1.581,1.581,0,0,0,.986,2.817,1.6,1.6,0,0,0,.983-.341l11.918-9.5A1.579,1.579,0,0,0,90.667,137.869Z" transform="translate(-75.935 -137.273)"/></g></svg>