<svg xmlns="http://www.w3.org/2000/svg" width="81.376" height="80.07" viewBox="0 0 81.376 80.07"><defs><style>.a{fill:#fff;stroke:#fff;}</style></defs><g transform="translate(0.512 -3.554)"><path class="a" d="M100.827,40.246a7.856,7.856,0,0,0-2.772-5.481A7.185,7.185,0,0,0,92.689,33.1a7.687,7.687,0,0,0-6.138,4.5l-2.41.213-2.378-.667a.6.6,0,0,1-.4-.392,22.321,22.321,0,0,0-2.934-5.776l.842-2.263,2.656-2.873a5.4,5.4,0,0,0,3.923-1.878,5.49,5.49,0,0,0-.173-7.332,5.4,5.4,0,0,0-3.992-1.691,5.473,5.473,0,0,0-3.96,1.751,5.418,5.418,0,0,0-1.443,3.931l-2.657,2.874L71.4,24.526a22.332,22.332,0,0,0-10.947-3.047L59,19.158l-.513-2.551a6.922,6.922,0,0,0,2.454-6.828A7.635,7.635,0,0,0,47.253,7.388a6.815,6.815,0,0,0-1.009,5.233,7.2,7.2,0,0,0,4.651,5.235l.567,2.818-.451,2.747a22.348,22.348,0,0,0-5.647,3.631l-1.669-.3-1.885-1.422A5.453,5.453,0,1,0,37.485,31.7l1.58,1.192.709,1.45a.236.236,0,0,1,0,.2,22.161,22.161,0,0,0-2.037,9.325c0,.6.025,1.213.074,1.817a.25.25,0,0,1-.1.228l-2.668,1.9L32,48.773a7.14,7.14,0,0,0-6.618-1.132c-.046.015-.09.031-.135.048l-.038.014a1.207,1.207,0,0,0,.818,2.27l.056-.021.057-.02A4.731,4.731,0,0,1,30.894,51a1.206,1.206,0,0,0,1.193.276l3.865-1.216a1.207,1.207,0,0,0,.338-.168l2.824-2.012a2.676,2.676,0,0,0,1.1-2.389c-.044-.539-.066-1.085-.066-1.621a19.763,19.763,0,0,1,1.816-8.317,2.64,2.64,0,0,0-.027-2.27l-.836-1.71a1.206,1.206,0,0,0-.357-.433l-2.271-1.714a1.206,1.206,0,0,0-1.095-.186,3.046,3.046,0,0,1-2.761-.466,3.04,3.04,0,0,1-.473-4.41,3.07,3.07,0,0,1,3.992-.544,3.033,3.033,0,0,1,1.34,2.275,1.206,1.206,0,0,0,.476.862l2.516,1.9a1.206,1.206,0,0,0,.515.225l2.535.452a1.206,1.206,0,0,0,1.032-.3,19.964,19.964,0,0,1,6-3.843,1.206,1.206,0,0,0,.731-.92l.594-3.616a1.208,1.208,0,0,0-.008-.434l-.751-3.735a1.206,1.206,0,0,0-.882-.93A4.86,4.86,0,0,1,48.6,12.117a4.421,4.421,0,0,1,.66-3.394,5.225,5.225,0,0,1,9.316,1.559,4.573,4.573,0,0,1-2.085,4.793,1.207,1.207,0,0,0-.528,1.251l.709,3.523a1.209,1.209,0,0,0,.161.4l1.743,2.78a1.819,1.819,0,0,0,1.552.857h0a19.912,19.912,0,0,1,10.292,2.862,1.819,1.819,0,0,0,1.707.1l2.728-1.265a1.208,1.208,0,0,0,.378-.275l3.185-3.445a1.206,1.206,0,0,0,.306-1A3.039,3.039,0,0,1,83.934,18.3a3.057,3.057,0,0,1,.095,4.083A3.019,3.019,0,0,1,81.5,23.42a1.206,1.206,0,0,0-.976.384l-3.185,3.445a1.2,1.2,0,0,0-.245.4l-1.036,2.784a1.817,1.817,0,0,0,.237,1.706,19.923,19.923,0,0,1,2.783,5.382,3.008,3.008,0,0,0,2.035,1.946l2.59.726a1.207,1.207,0,0,0,.432.04l3.364-.3a1.207,1.207,0,0,0,1.034-.806,5.319,5.319,0,0,1,4.4-3.629,4.791,4.791,0,0,1,3.576,1.115,5.462,5.462,0,0,1,1.915,3.816,5.878,5.878,0,0,1-.527,2.926,1.207,1.207,0,0,0,2.188,1.018,8.306,8.306,0,0,0,.744-4.13Z" transform="translate(-20.489 0)"/><path class="a" d="M74.265,248.26a4.893,4.893,0,0,1-1.038.221,4.943,4.943,0,0,1-4.974-2.946,1.206,1.206,0,0,0-1.2-.691l-3.158.279a1.205,1.205,0,0,0-.418.115l-2.384,1.15a3.006,3.006,0,0,0-1.667,2.3,19.836,19.836,0,0,1-1.133,4.378,3,3,0,0,0,.176,2.548l.849,1.518a1.2,1.2,0,0,0,.381.413l2.363,1.585a1.207,1.207,0,0,0,1.1.125,3.046,3.046,0,0,1,2.782.313,3.04,3.04,0,0,1,.716,4.377,3.07,3.07,0,0,1-3.955.765,3.033,3.033,0,0,1-1.464-2.2,1.206,1.206,0,0,0-.523-.835l-2.617-1.756a1.2,1.2,0,0,0-.527-.2l-1.647-.2a3.1,3.1,0,0,0-2.52.843,20.083,20.083,0,0,1-4.4,3.182,3.1,3.1,0,0,0-1.619,2.529l-.209,3.337a1.206,1.206,0,0,0,.034.37l1.036,4.109a1.206,1.206,0,0,0,.845.867,4.083,4.083,0,0,1,2.855,2.925,4.069,4.069,0,0,1-3.065,4.967,4.068,4.068,0,0,1-3.728-6.879,1.206,1.206,0,0,0,.325-1.156l-1.042-4.135a1.205,1.205,0,0,0-.145-.342l-1.606-2.584a3.549,3.549,0,0,0-3.046-1.672h0a20.046,20.046,0,0,1-3.882-.379,3.542,3.542,0,0,0-3.279,1.035l-2.124,2.241a1.209,1.209,0,0,0-.211.306l-2.377,4.932a1.207,1.207,0,0,0,0,1.057,3.039,3.039,0,0,1-4.222,3.989,3.073,3.073,0,0,1-1.318-3.791,3.014,3.014,0,0,1,2.129-1.814,1.206,1.206,0,0,0,.814-.651l2.393-4.964a1.2,1.2,0,0,0,.108-.356l.469-3.333a2.991,2.991,0,0,0-1.066-2.729,20.078,20.078,0,0,1-4.538-5.2,3,3,0,0,0-2.519-1.425l-3.327-.032a1.194,1.194,0,0,0-.374.055l-3.642,1.146a1.207,1.207,0,0,0-.837,1.016,4.732,4.732,0,0,1-9.2.945,4.668,4.668,0,0,1,.03-2.992,1.207,1.207,0,0,0-2.282-.785,7.064,7.064,0,0,0-.042,4.527,7.176,7.176,0,0,0,6.809,4.923,7.077,7.077,0,0,0,2.127-.328,7.155,7.155,0,0,0,4.822-5.226l2.758-.868,3.136.03a.565.565,0,0,1,.478.263,22.484,22.484,0,0,0,5.082,5.825.566.566,0,0,1,.2.518l-.443,3.146-2.079,4.313a5.451,5.451,0,0,0-.867,9.888,5.407,5.407,0,0,0,4.315.454,5.473,5.473,0,0,0,3.277-2.834,5.414,5.414,0,0,0,.219-4.211l2.059-4.272,1.994-2.1a1.141,1.141,0,0,1,1.059-.327,22.5,22.5,0,0,0,4.365.425h0a1.146,1.146,0,0,1,.985.533l1.507,2.424.838,3.325a6.453,6.453,0,0,0-1.14,6.118,6.539,6.539,0,0,0,6.187,4.462,6.346,6.346,0,0,0,1.379-.151,6.482,6.482,0,0,0,4.88-7.912,6.5,6.5,0,0,0-3.859-4.426l-.83-3.294.2-3.149a.672.672,0,0,1,.346-.551,22.506,22.506,0,0,0,4.932-3.564.7.7,0,0,1,.564-.194l1.36.165,1.961,1.316a5.453,5.453,0,1,0,3.965-6.6l-1.643-1.1-.708-1.266a.592.592,0,0,1-.03-.5,22.252,22.252,0,0,0,1.27-4.911.6.6,0,0,1,.325-.462l2.185-1.054,2.146-.19a7.26,7.26,0,0,0,8.546,3.235,1.207,1.207,0,0,0-.754-2.293Z" transform="translate(0 -202.04)"/><path class="a" d="M162.2,146.925a16.9,16.9,0,1,0,5.148,2.163,1.207,1.207,0,1,0-1.291,2.039,14.42,14.42,0,1,1-4.409-1.853,1.207,1.207,0,1,0,.552-2.349Z" transform="translate(-118.683 -119.501)"/><path class="a" d="M52.768,22.509a5.674,5.674,0,1,0-5.674-5.674A5.68,5.68,0,0,0,52.768,22.509Zm0-8.935a3.261,3.261,0,1,1-3.261,3.261A3.265,3.265,0,0,1,52.768,13.574Z" transform="translate(-39.522 -5.954)"/><path class="a" d="M53.088,386.653a4.157,4.157,0,1,0,4.157,4.157A4.162,4.162,0,0,0,53.088,386.653Zm0,5.9a1.744,1.744,0,1,1,1.744-1.745A1.746,1.746,0,0,1,53.088,392.555Z" transform="translate(-41.062 -321.041)"/><path class="a" d="M382.6,408.111a5.553,5.553,0,1,0,5.553,5.553A5.559,5.559,0,0,0,382.6,408.111Zm0,8.693a3.14,3.14,0,1,1,3.14-3.14A3.143,3.143,0,0,1,382.6,416.8Z" transform="translate(-316.394 -339.047)"/><path class="a" d="M194.342,197.171a5.259,5.259,0,1,0-5.259,5.259A5.265,5.265,0,0,0,194.342,197.171Zm-5.259,2.846a2.846,2.846,0,1,1,2.846-2.846A2.849,2.849,0,0,1,189.084,200.016Z" transform="translate(-154.257 -157.627)"/><path class="a" d="M216.055,286.122a3.965,3.965,0,1,0-3.965-3.965A3.969,3.969,0,0,0,216.055,286.122Zm0-5.516a1.552,1.552,0,1,1-1.552,1.552A1.553,1.553,0,0,1,216.055,280.606Z" transform="translate(-177.975 -230.028)"/><path class="a" d="M268.673,233.12A3.523,3.523,0,1,0,272.2,229.6,3.527,3.527,0,0,0,268.673,233.12Zm3.523-1.11a1.11,1.11,0,1,1-1.109,1.11A1.111,1.111,0,0,1,272.2,232.01Z" transform="translate(-225.455 -189.25)"/></g></svg>