<svg xmlns="http://www.w3.org/2000/svg" width="9.011" height="28.292" viewBox="0 0 9.011 28.292"><defs><style>.a{fill:#6bab79;}</style></defs><g transform="translate(-89.283)"><path class="a" d="M103.526,6.63a3.315,3.315,0,1,0-3.315-3.315A3.319,3.319,0,0,0,103.526,6.63Zm0-5.011a1.7,1.7,0,1,1-1.7,1.7A1.7,1.7,0,0,1,103.526,1.62Z" transform="translate(-9.748)"/><path class="a" d="M95.059,68.914H92.518a3.238,3.238,0,0,0-3.235,3.235V77.6a3.228,3.228,0,0,0,1.292,2.583v8.772a.81.81,0,1,0,1.62,0V79.743a.809.809,0,0,0-.432-.716A1.616,1.616,0,0,1,90.9,77.6V72.149a1.617,1.617,0,0,1,1.615-1.615h2.542a1.617,1.617,0,0,1,1.615,1.615V77.6a1.617,1.617,0,0,1-.861,1.427.809.809,0,0,0-.432.716v9.212a.81.81,0,1,0,1.62,0V80.183A3.228,3.228,0,0,0,98.294,77.6V72.149A3.238,3.238,0,0,0,95.059,68.914Z" transform="translate(0 -61.473)"/></g></svg>