<svg xmlns="http://www.w3.org/2000/svg" width="6.063" height="19.036" viewBox="0 0 6.063 19.036"><path d="M102.442,4.461a2.231,2.231,0,1,0-2.231-2.23A2.233,2.233,0,0,0,102.442,4.461Zm0-3.371A1.141,1.141,0,1,1,101.3,2.231,1.142,1.142,0,0,1,102.442,1.09Z" transform="translate(-99.417)"/><path d="M93.17,68.914h-1.71a2.179,2.179,0,0,0-2.176,2.177v3.668a2.172,2.172,0,0,0,.869,1.738v5.9a.545.545,0,1,0,1.09,0V76.2a.545.545,0,0,0-.291-.482,1.088,1.088,0,0,1-.579-.96V71.091A1.088,1.088,0,0,1,91.459,70h1.71a1.088,1.088,0,0,1,1.087,1.087v3.668a1.088,1.088,0,0,1-.579.96.545.545,0,0,0-.29.482v6.2a.545.545,0,1,0,1.09,0V76.5a2.172,2.172,0,0,0,.87-1.738V71.091A2.179,2.179,0,0,0,93.17,68.914Z" transform="translate(-89.283 -63.907)"/></svg>