<svg xmlns="http://www.w3.org/2000/svg" width="25.5" height="18.798" viewBox="0 0 25.5 18.798"><defs><style>.a{fill:#979797;stroke:#979797;stroke-width:0.5px;}</style></defs><g transform="translate(0.25 -56.15)"><g transform="translate(0 56.4)"><path class="a" d="M24.572,65.169H22.457a6.7,6.7,0,0,0,.452-4.705A5.657,5.657,0,0,0,17.562,56.4a6.685,6.685,0,0,0-2.305.428,11.956,11.956,0,0,0-2.662,1.331,11.409,11.409,0,0,0-2.662-1.331A6.787,6.787,0,0,0,7.628,56.4a5.657,5.657,0,0,0-5.347,4.064A6.9,6.9,0,0,0,2.947,65.6H.38a.38.38,0,1,0,0,.76H3.4A5.017,5.017,0,0,0,3.826,67c2.471,3.565,7.842,7.438,8.816,7.676V74.7a.074.074,0,0,0,.048-.024h.071v-.024a30.184,30.184,0,0,0,8.7-7.676,8.741,8.741,0,0,0,.665-1.069h2.5a.375.375,0,0,0,.38-.38A.4.4,0,0,0,24.572,65.169Zm-3.8,1.4c-2.519,3.683-7.153,6.654-8.151,7.3-1.022-.642-5.632-3.636-8.175-7.3L4.3,66.357H7.795a.392.392,0,0,0,.356-.214l1.592-3.137,2.5,6.393a.389.389,0,0,0,.356.238h.024a.378.378,0,0,0,.356-.285l2.186-7.486,1.164,3.778a.387.387,0,0,0,.309.261.411.411,0,0,0,.38-.166l.927-1.355.784,1.331a.379.379,0,0,0,.333.19H21.2C21.055,66.143,20.912,66.357,20.77,66.571Zm.856-1.4H19.3l-.974-1.663a.379.379,0,0,0-.333-.19.36.36,0,0,0-.333.166l-.808,1.188-1.307-4.254a.441.441,0,0,0-.38-.285.407.407,0,0,0-.38.285l-2.21,7.628-2.4-6.131a.357.357,0,0,0-.333-.238.369.369,0,0,0-.356.214L7.6,65.573H3.826a6.413,6.413,0,0,1-.784-4.9,4.855,4.855,0,0,1,4.61-3.493,6.322,6.322,0,0,1,2.044.38,11.553,11.553,0,0,1,2.685,1.378.361.361,0,0,0,.475,0,10.36,10.36,0,0,1,2.685-1.378,5.745,5.745,0,0,1,2.044-.38,4.878,4.878,0,0,1,4.61,3.493A6.248,6.248,0,0,1,21.625,65.169Z" transform="translate(0 -56.4)"/></g></g></svg>