<svg xmlns="http://www.w3.org/2000/svg" viewBox="0 0 13.987 10.291"><defs><style>.a{fill:#979797;stroke:#979797;stroke-width:0.2px;}</style></defs><g transform="translate(0.1 0.1)"><path class="a" d="M13.551,61.236H12.384a3.693,3.693,0,0,0,.249-2.595A3.119,3.119,0,0,0,9.685,56.4a3.687,3.687,0,0,0-1.271.236,6.593,6.593,0,0,0-1.468.734,6.292,6.292,0,0,0-1.468-.734A3.743,3.743,0,0,0,4.207,56.4a3.119,3.119,0,0,0-2.949,2.241,3.8,3.8,0,0,0,.367,2.831H.21a.21.21,0,0,0,0,.419H1.874a2.766,2.766,0,0,0,.236.354,15.888,15.888,0,0,0,4.862,4.233v.013A.041.041,0,0,0,7,66.478h.039v-.013a16.645,16.645,0,0,0,4.8-4.233,4.82,4.82,0,0,0,.367-.59h1.376a.207.207,0,0,0,.21-.21A.22.22,0,0,0,13.551,61.236Zm-2.1.773a16.883,16.883,0,0,1-4.5,4.023,17.126,17.126,0,0,1-4.508-4.023l-.079-.118H4.3a.216.216,0,0,0,.2-.118l.878-1.73,1.376,3.525a.215.215,0,0,0,.2.131h.013a.209.209,0,0,0,.2-.157l1.206-4.128L9,61.5a.214.214,0,0,0,.17.144.227.227,0,0,0,.21-.092l.511-.747.432.734a.209.209,0,0,0,.183.1H11.69C11.611,61.773,11.533,61.891,11.454,62.009Zm.472-.773H10.641l-.537-.917a.209.209,0,0,0-.183-.1.2.2,0,0,0-.183.092l-.446.655-.721-2.346a.243.243,0,0,0-.21-.157.224.224,0,0,0-.21.157L6.933,62.822,5.609,59.44a.2.2,0,0,0-.183-.131.2.2,0,0,0-.2.118L4.194,61.459H2.11a3.536,3.536,0,0,1-.432-2.7A2.677,2.677,0,0,1,4.22,56.832a3.486,3.486,0,0,1,1.127.21,6.371,6.371,0,0,1,1.481.76.2.2,0,0,0,.262,0,5.713,5.713,0,0,1,1.481-.76,3.168,3.168,0,0,1,1.127-.21,2.69,2.69,0,0,1,2.542,1.926A3.445,3.445,0,0,1,11.926,61.236Z" transform="translate(0 -56.4)"/></g></svg>