<svg xmlns="http://www.w3.org/2000/svg" width="19.934" height="19.933" viewBox="0 0 19.934 19.933"><defs><style>.a{fill:#f38500;}</style></defs><g transform="translate(0 -0.005)"><g transform="translate(0 0.005)"><g transform="translate(0 0)"><path class="a" d="M19.307,7.387a1.75,1.75,0,0,0-2.462.214L15.183,9.568v-5.7a1.759,1.759,0,0,0-.545-1.27L12.42.487A1.745,1.745,0,0,0,11.213,0H1.752A1.754,1.754,0,0,0,0,1.757V18.186a1.754,1.754,0,0,0,1.752,1.752h11.68a1.754,1.754,0,0,0,1.752-1.752V15l4.34-5.14A1.751,1.751,0,0,0,19.307,7.387ZM11.68,1.395c2.336,2.219,2.171,2.057,2.214,2.114H11.68Zm2.336,16.792a.585.585,0,0,1-.584.584H1.752a.585.585,0,0,1-.584-.584V1.757a.585.585,0,0,1,.584-.584h8.76v2.92a.584.584,0,0,0,.584.584h2.92V10.95l-2.483,2.938a1.761,1.761,0,0,0-.362.719l-.543,2.272a.584.584,0,0,0,.8.672l2.143-.929a1.761,1.761,0,0,0,.444-.278ZM12.626,14.4l.895.751-.2.236a.586.586,0,0,1-.215.16l-1.072.465.271-1.136a.585.585,0,0,1,.119-.238Zm1.648-.142-.894-.75,3.228-3.82.892.749ZM18.63,9.1l-.376.445L17.362,8.8l.377-.446a.582.582,0,0,1,.891.749Z" transform="translate(0 -0.005)"/></g></g><g transform="translate(2.336 3.509)"><path class="a" d="M66.422,90h-5.84a.584.584,0,1,0,0,1.168h5.84a.584.584,0,0,0,0-1.168Z" transform="translate(-59.998 -90.003)"/></g><g transform="translate(2.336 7.052)"><path class="a" d="M69.926,181H60.582a.584.584,0,1,0,0,1.168h9.344a.584.584,0,1,0,0-1.168Z" transform="translate(-59.998 -181.001)"/></g><g transform="translate(2.336 10.556)"><path class="a" d="M69.926,271H60.582a.584.584,0,1,0,0,1.168h9.344a.584.584,0,1,0,0-1.168Z" transform="translate(-59.998 -271)"/></g><g transform="translate(2.336 14.059)"><path class="a" d="M66.422,361h-5.84a.584.584,0,1,0,0,1.168h5.84a.584.584,0,1,0,0-1.168Z" transform="translate(-59.998 -360.998)"/></g></g></svg>