<svg xmlns="http://www.w3.org/2000/svg" width="24.971" height="24.97" viewBox="0 0 24.971 24.97"><defs><style>.a{fill:#f38500;}</style></defs><g transform="translate(0 -0.005)"><g transform="translate(0 0.005)"><g transform="translate(0 0)"><path class="a" d="M24.186,9.252A2.192,2.192,0,0,0,21.1,9.52L19.02,11.985V4.839a2.2,2.2,0,0,0-.683-1.591L15.558.608A2.186,2.186,0,0,0,14.047,0H2.195A2.2,2.2,0,0,0,0,2.2V22.781a2.2,2.2,0,0,0,2.195,2.195H16.826a2.2,2.2,0,0,0,2.195-2.195v-4l5.436-6.439A2.193,2.193,0,0,0,24.186,9.252ZM14.631,1.746c2.927,2.78,2.719,2.577,2.774,2.649H14.631Zm2.926,21.035a.732.732,0,0,1-.732.732H2.195a.732.732,0,0,1-.732-.732V2.2a.732.732,0,0,1,.732-.732H13.168V5.126a.732.732,0,0,0,.732.732h3.658v7.858l-3.11,3.68a2.206,2.206,0,0,0-.453.9l-.68,2.846a.732.732,0,0,0,1,.841L17,20.82a2.206,2.206,0,0,0,.556-.349Zm-1.74-4.739,1.121.94-.249.3a.734.734,0,0,1-.269.2l-1.342.582.34-1.423a.732.732,0,0,1,.149-.3Zm2.064-.178-1.12-.94,4.044-4.785,1.118.938ZM23.337,11.4l-.471.557-1.117-.937.472-.559a.729.729,0,0,1,1.116.939Z" transform="translate(0 -0.005)"/></g></g><g transform="translate(2.926 4.394)"><path class="a" d="M68.045,90H60.73a.732.732,0,1,0,0,1.463h7.315a.732.732,0,0,0,0-1.463Z" transform="translate(-59.998 -90.003)"/></g><g transform="translate(2.926 8.832)"><path class="a" d="M72.434,181H60.73a.732.732,0,1,0,0,1.463h11.7a.732.732,0,1,0,0-1.463Z" transform="translate(-59.998 -181.001)"/></g><g transform="translate(2.926 13.222)"><path class="a" d="M72.434,271H60.73a.732.732,0,0,0,0,1.463h11.7a.732.732,0,0,0,0-1.463Z" transform="translate(-59.998 -271)"/></g><g transform="translate(2.926 17.611)"><path class="a" d="M68.045,361H60.73a.732.732,0,1,0,0,1.463h7.315a.732.732,0,1,0,0-1.463Z" transform="translate(-59.998 -360.998)"/></g></g></svg>