<svg xmlns="http://www.w3.org/2000/svg"  viewBox="0 0 8.667 10.283"><defs><style>.a{fill:#979797;stroke:#979797;stroke-width:0.2px;}</style></defs><g transform="translate(0.118 0.103)"><g transform="translate(0 0)"><g transform="translate(0 0)"><path class="a" d="M49.463,1.89a1.742,1.742,0,0,0-.563-.614c.058-.027.116-.057.175-.089a.148.148,0,0,0,.009-.254,2.376,2.376,0,0,0-.8-.3,1.436,1.436,0,0,0-1.36.433A2.53,2.53,0,0,0,45.889.219a2.888,2.888,0,0,0-1.9-.112,2.265,2.265,0,0,0-1.639,1.559,2.955,2.955,0,0,0-.057,1.4.563.563,0,0,0-.2-.008.148.148,0,1,0,.043.292A.238.238,0,0,1,42.4,3.5a6.251,6.251,0,0,0,1.032,1.941,1.163,1.163,0,0,0-.526-.027.8.8,0,0,0-.607.538,1.085,1.085,0,0,0-.047.507.9.9,0,0,0-.676.507,3,3,0,0,0,.011,1.84.148.148,0,0,0,.2.092A3,3,0,0,0,43.2,7.729a.9.9,0,0,0-.653-1.263.837.837,0,0,1,.027-.411.5.5,0,0,1,.387-.348,1.189,1.189,0,0,1,1.012.4,6.768,6.768,0,0,1,1.389,2.553,6.28,6.28,0,0,1,.251,1.279.148.148,0,0,0,.147.14h.008a.148.148,0,0,0,.139-.155,6.43,6.43,0,0,0-.26-1.338,7.351,7.351,0,0,0-.868-1.9l0-.01a.281.281,0,0,1,.047-.358.148.148,0,1,0-.176-.237.516.516,0,0,0-.159.19q-.138-.18-.294-.356a7.029,7.029,0,0,1-1.475-2.372,3.272,3.272,0,0,1-.177-1.318.368.368,0,0,1,.372-.2.61.61,0,0,1,.277.115.757.757,0,0,0-.175.761,2.463,2.463,0,0,0,1.04,1.1.148.148,0,0,0,.206-.068,2.463,2.463,0,0,0,.189-1.5A.756.756,0,0,0,43.5,1.94l-.049.018a.932.932,0,0,0-.5-.235.65.65,0,0,0-.32.042l0-.012A1.975,1.975,0,0,1,44.06.394q.123-.032.243-.053h0a.15.15,0,0,1,.118.031A.179.179,0,0,1,44.471.5a.148.148,0,0,0,.148.146h0A.148.148,0,0,0,44.766.5a.516.516,0,0,0-.044-.206A2.351,2.351,0,0,1,45.769.49a2.22,2.22,0,0,1,.726.517,1.316,1.316,0,0,0-.722,1,1.881,1.881,0,0,0,.027.713.148.148,0,0,0,.213.091c.046-.025.1-.049.148-.074l.043-.021a1.73,1.73,0,0,0,.212.832,6.037,6.037,0,0,0,1.718,1.593.148.148,0,0,0,.218-.074h0c.029-.078.056-.155.082-.232.433.211.694.311.706.316a.148.148,0,0,0,.2-.107c0-.013.06-.286.117-.764q.118.03.239.057h0a.148.148,0,0,0,.031,0h0a.148.148,0,0,0,.148-.147A6.034,6.034,0,0,0,49.463,1.89ZM42.6,6.786l.04.017a.6.6,0,0,1,.291.8,2.485,2.485,0,0,1-1.11.953,2.485,2.485,0,0,1,.019-1.463.6.6,0,0,1,.455-.34,1.026,1.026,0,0,1-.088.766.148.148,0,1,0,.255.148A1.243,1.243,0,0,0,42.6,6.786Zm.722-4.336a.461.461,0,0,1,.079-.112,1.381,1.381,0,0,1,.229.476.148.148,0,0,0,.285-.078,1.719,1.719,0,0,0-.248-.534.458.458,0,0,1,.5.312,1.941,1.941,0,0,1-.115,1.127,1.941,1.941,0,0,1-.76-.84A.457.457,0,0,1,43.323,2.45Zm4.9-1.527a2.015,2.015,0,0,1,.445.131,2.527,2.527,0,0,1-1.487.169A1.143,1.143,0,0,1,48.226.923ZM46.257,2.3c-.006.023-.011.045-.016.068a2,2,0,0,1-.188.1,1.128,1.128,0,0,1,.633-1.222q.059.082.111.171A1.73,1.73,0,0,0,46.257,2.3Zm2.822,2.515c-.125-.053-.315-.138-.556-.257q.079-.267.132-.521.243.093.51.171C49.134,4.471,49.1,4.677,49.079,4.811Zm-.66-1.2a.148.148,0,1,0-.125.268l.082.037a6.779,6.779,0,0,1-.24.874A5.26,5.26,0,0,1,46.675,3.41a1.441,1.441,0,0,1-.009-1.362,2.032,2.032,0,0,0,.983,1.465.148.148,0,1,0,.169-.242,1.748,1.748,0,0,1-.857-1.238.621.621,0,0,1,.2-.511,2.56,2.56,0,0,0,.487.046,2.853,2.853,0,0,0,.906-.151,1.423,1.423,0,0,1,.654.615,5.266,5.266,0,0,1,.37,1.977A6.309,6.309,0,0,1,48.419,3.613Z" transform="translate(-41.423 0)"/></g></g><g transform="translate(3.952 4.812)"><g transform="translate(0)"><path class="a" d="M244.58,246.517a3.62,3.62,0,0,0-.815-1.553.892.892,0,0,0-.982-.247,3.469,3.469,0,0,0-.388-.279.148.148,0,1,0-.151.254,3.2,3.2,0,0,1,.322.23.641.641,0,0,0-.063.457,1.1,1.1,0,0,0,.322.562,3.621,3.621,0,0,0,1.583.756l.029,0a.148.148,0,0,0,.144-.182Zm-1.55-.789a.81.81,0,0,1-.237-.407.414.414,0,0,1,0-.2,2.7,2.7,0,0,1,.323.368.148.148,0,0,0,.24-.172,2.948,2.948,0,0,0-.319-.371h.025a.759.759,0,0,1,.494.229,3.024,3.024,0,0,1,.661,1.167A3.025,3.025,0,0,1,243.03,245.728Z" transform="translate(-242.171 -244.417)"/></g></g></g></svg>