<svg xmlns="http://www.w3.org/2000/svg" width="21.271" height="25.274" viewBox="0 0 21.271 25.274"><defs><style>.a{fill:#979797;stroke:#979797;stroke-width:0.3px;}</style></defs><g transform="translate(-41.229 0.158)"><g transform="translate(41.423 0)"><g transform="translate(0 0)"><path class="a" d="M61.337,4.681a4.314,4.314,0,0,0-1.4-1.521c.143-.068.287-.14.433-.22a.366.366,0,0,0,.022-.629,5.885,5.885,0,0,0-1.979-.741,3.556,3.556,0,0,0-3.368,1.073,6.266,6.266,0,0,0-2.566-2.1A7.152,7.152,0,0,0,47.772.268,5.61,5.61,0,0,0,43.714,4.13a7.32,7.32,0,0,0-.141,3.456,1.394,1.394,0,0,0-.5-.02.366.366,0,1,0,.107.724.589.589,0,0,1,.659.388,15.482,15.482,0,0,0,2.556,4.808,2.881,2.881,0,0,0-1.3-.066,1.976,1.976,0,0,0-1.5,1.332,2.687,2.687,0,0,0-.116,1.255A2.222,2.222,0,0,0,41.8,17.261c-.837,1.791-.008,4.445.027,4.557a.366.366,0,0,0,.487.228c.109-.045,2.676-1.111,3.513-2.9a2.223,2.223,0,0,0-1.616-3.128A2.073,2.073,0,0,1,44.273,15a1.238,1.238,0,0,1,.959-.861,2.944,2.944,0,0,1,2.506.992,16.762,16.762,0,0,1,3.44,6.323,15.556,15.556,0,0,1,.621,3.169.366.366,0,0,0,.365.346h.02a.366.366,0,0,0,.345-.385,15.926,15.926,0,0,0-.644-3.314,18.208,18.208,0,0,0-2.151-4.715c0-.008-.007-.017-.011-.025a.7.7,0,0,1,.116-.886.366.366,0,0,0-.436-.588,1.279,1.279,0,0,0-.394.47q-.341-.446-.728-.883a17.408,17.408,0,0,1-3.652-5.875A8.1,8.1,0,0,1,44.193,5.5.911.911,0,0,1,45.115,5a1.51,1.51,0,0,1,.686.284,1.878,1.878,0,0,0-.326.458,1.859,1.859,0,0,0-.108,1.428,6.1,6.1,0,0,0,2.576,2.716.366.366,0,0,0,.511-.168A6.1,6.1,0,0,0,48.922,6a1.873,1.873,0,0,0-2.36-1.195c-.041.013-.081.029-.121.045A2.309,2.309,0,0,0,45.2,4.269a1.61,1.61,0,0,0-.791.1c0-.01.005-.019.008-.029A4.893,4.893,0,0,1,47.954.976q.3-.078.6-.132h0a.371.371,0,0,1,.292.078.442.442,0,0,1,.122.329.366.366,0,0,0,.366.361h0a.366.366,0,0,0,.361-.37,1.279,1.279,0,0,0-.109-.511,5.824,5.824,0,0,1,2.592.482,5.5,5.5,0,0,1,1.8,1.281A3.259,3.259,0,0,0,52.2,4.981a4.66,4.66,0,0,0,.067,1.765.366.366,0,0,0,.528.227c.114-.062.237-.122.366-.184l.107-.052A4.286,4.286,0,0,0,53.79,8.8c1.03,1.889,4.123,3.862,4.254,3.945a.366.366,0,0,0,.539-.182h0c.071-.193.138-.385.2-.575,1.074.524,1.719.771,1.749.782a.366.366,0,0,0,.488-.266c.007-.031.148-.708.289-1.893q.292.074.593.141h0a.365.365,0,0,0,.076.009h0a.366.366,0,0,0,.366-.363C62.351,10.239,62.367,6.571,61.337,4.681Zm-17,12.128c.034.013.067.026.1.042a1.491,1.491,0,0,1,.72,1.982,6.155,6.155,0,0,1-2.749,2.36,6.155,6.155,0,0,1,.047-3.623,1.491,1.491,0,0,1,1.127-.842,2.541,2.541,0,0,1-.218,1.9.366.366,0,1,0,.633.367A3.079,3.079,0,0,0,44.341,16.809Zm1.787-10.74a1.143,1.143,0,0,1,.2-.277,3.421,3.421,0,0,1,.567,1.18.366.366,0,0,0,.706-.193,4.257,4.257,0,0,0-.614-1.323,1.134,1.134,0,0,1,1.244.772,4.806,4.806,0,0,1-.284,2.791,4.807,4.807,0,0,1-1.881-2.081A1.132,1.132,0,0,1,46.129,6.069ZM58.273,2.287a4.99,4.99,0,0,1,1.1.325,6.259,6.259,0,0,1-3.684.419A2.83,2.83,0,0,1,58.273,2.287ZM53.4,5.687c-.014.056-.027.112-.038.169a4.96,4.96,0,0,1-.465.248,2.793,2.793,0,0,1,1.568-3.026q.146.2.276.424A4.286,4.286,0,0,0,53.4,5.687Zm6.99,6.228c-.309-.132-.781-.343-1.378-.636q.195-.661.327-1.291.6.23,1.262.424C60.521,11.074,60.443,11.585,60.386,11.916ZM58.752,8.949a.366.366,0,1,0-.309.663l.2.093a16.789,16.789,0,0,1-.594,2.164,13.028,13.028,0,0,1-3.62-3.422,3.568,3.568,0,0,1-.022-3.374A5.032,5.032,0,0,0,56.844,8.7a.366.366,0,1,0,.418-.6A4.33,4.33,0,0,1,55.14,5.035a1.539,1.539,0,0,1,.485-1.266,6.341,6.341,0,0,0,1.206.113,7.066,7.066,0,0,0,2.245-.373,3.525,3.525,0,0,1,1.619,1.523,13.044,13.044,0,0,1,.916,4.9A15.627,15.627,0,0,1,58.752,8.949Z" transform="translate(-41.423 0)"/></g></g><g transform="translate(51.212 11.918)"><g transform="translate(0)"><path class="a" d="M248.136,249.619a8.967,8.967,0,0,0-2.02-3.846,2.208,2.208,0,0,0-2.431-.613,8.586,8.586,0,0,0-.961-.692.366.366,0,1,0-.374.629,7.921,7.921,0,0,1,.8.57,1.589,1.589,0,0,0-.156,1.131,2.713,2.713,0,0,0,.8,1.393,8.968,8.968,0,0,0,3.92,1.872.366.366,0,0,0,.427-.443Zm-3.839-1.955a2.007,2.007,0,0,1-.588-1.008,1.025,1.025,0,0,1,.012-.486,6.679,6.679,0,0,1,.8.912.366.366,0,0,0,.594-.427,7.3,7.3,0,0,0-.791-.919l.061,0a1.88,1.88,0,0,1,1.225.567,7.491,7.491,0,0,1,1.638,2.89A7.493,7.493,0,0,1,244.3,247.664Z" transform="translate(-242.171 -244.417)"/></g></g></g></svg>