<svg xmlns="http://www.w3.org/2000/svg" width="20.534" height="20.23" viewBox="0 0 20.534 20.23"><defs><style>.a{fill:#979797;stroke:#979797;stroke-width:0.4px;}</style></defs><g transform="translate(0.207 -3.84)"><path class="a" d="M43.554,13.129a1.968,1.968,0,0,0-.694-1.373,1.8,1.8,0,0,0-1.344-.417,1.926,1.926,0,0,0-1.538,1.127l-.6.053-.6-.167a.15.15,0,0,1-.1-.1,5.591,5.591,0,0,0-.735-1.447l.211-.567.665-.72a1.353,1.353,0,0,0,.983-.47,1.375,1.375,0,0,0-.043-1.837,1.352,1.352,0,0,0-1-.424,1.371,1.371,0,0,0-.992.439,1.357,1.357,0,0,0-.362.985l-.666.72-.558.259a5.594,5.594,0,0,0-2.742-.763l-.365-.582-.129-.639A1.734,1.734,0,0,0,33.562,5.5a1.913,1.913,0,0,0-3.428-.6,1.707,1.707,0,0,0-.253,1.311A1.8,1.8,0,0,0,31.046,7.52l.142.706-.113.688a5.6,5.6,0,0,0-1.415.91l-.418-.074-.472-.356a1.366,1.366,0,1,0-1.083,1.6l.4.3.178.363a.059.059,0,0,1,0,.051,5.551,5.551,0,0,0-.51,2.336c0,.151.006.3.019.455a.063.063,0,0,1-.025.057l-.668.476-.763.24a1.789,1.789,0,0,0-1.658-.283l-.034.012-.009,0a.3.3,0,0,0,.2.569l.014-.005.014-.005a1.185,1.185,0,0,1,1.191.267.3.3,0,0,0,.3.069l.968-.3a.3.3,0,0,0,.085-.042l.707-.5a.67.67,0,0,0,.276-.6c-.011-.135-.017-.272-.017-.406a4.951,4.951,0,0,1,.455-2.083.661.661,0,0,0-.007-.569l-.209-.428a.3.3,0,0,0-.09-.109l-.569-.429a.3.3,0,0,0-.274-.047.763.763,0,0,1-.692-.117.761.761,0,0,1-.118-1.1.769.769,0,0,1,1-.136.76.76,0,0,1,.336.57.3.3,0,0,0,.119.216l.63.475a.3.3,0,0,0,.129.056l.635.113a.3.3,0,0,0,.259-.076,5,5,0,0,1,1.5-.963.3.3,0,0,0,.183-.231l.149-.906a.3.3,0,0,0,0-.109L31.6,7.226a.3.3,0,0,0-.221-.233,1.217,1.217,0,0,1-.91-.91,1.107,1.107,0,0,1,.165-.85,1.309,1.309,0,0,1,2.334.391,1.145,1.145,0,0,1-.522,1.2.3.3,0,0,0-.132.313l.178.883a.3.3,0,0,0,.04.1l.437.7a.456.456,0,0,0,.389.215h0a4.988,4.988,0,0,1,2.578.717.456.456,0,0,0,.428.024l.683-.317a.3.3,0,0,0,.095-.069l.8-.863a.3.3,0,0,0,.077-.251.761.761,0,0,1,1.3-.642.766.766,0,0,1,.024,1.023.756.756,0,0,1-.634.261.3.3,0,0,0-.245.1l-.8.863a.3.3,0,0,0-.061.1l-.259.7a.455.455,0,0,0,.059.427,4.991,4.991,0,0,1,.7,1.348.753.753,0,0,0,.51.488l.649.182a.3.3,0,0,0,.108.01l.843-.074a.3.3,0,0,0,.259-.2,1.332,1.332,0,0,1,1.1-.909,1.2,1.2,0,0,1,.9.279,1.368,1.368,0,0,1,.48.956,1.472,1.472,0,0,1-.132.733.3.3,0,0,0,.548.255,2.081,2.081,0,0,0,.186-1.035Z" transform="translate(-23.433 0)"/><path class="a" d="M18.6,245.7a1.225,1.225,0,0,1-.26.055,1.238,1.238,0,0,1-1.246-.738.3.3,0,0,0-.3-.173l-.791.07a.3.3,0,0,0-.1.029l-.6.288a.753.753,0,0,0-.418.577,4.969,4.969,0,0,1-.284,1.1.751.751,0,0,0,.044.638l.213.38a.3.3,0,0,0,.1.1l.592.4a.3.3,0,0,0,.276.031.763.763,0,0,1,.7.078.761.761,0,0,1,.179,1.1.769.769,0,0,1-.991.192.76.76,0,0,1-.367-.55.3.3,0,0,0-.131-.209l-.656-.44a.3.3,0,0,0-.132-.049l-.413-.05a.777.777,0,0,0-.631.211,5.031,5.031,0,0,1-1.1.8.777.777,0,0,0-.405.634l-.052.836a.3.3,0,0,0,.009.093l.259,1.029a.3.3,0,0,0,.212.217,1.023,1.023,0,0,1,.715.733,1.019,1.019,0,0,1-.768,1.244,1.019,1.019,0,0,1-.934-1.723.3.3,0,0,0,.081-.289l-.261-1.036a.3.3,0,0,0-.036-.086l-.4-.647a.889.889,0,0,0-.763-.419h0a5.023,5.023,0,0,1-.973-.095.887.887,0,0,0-.821.259l-.532.561a.3.3,0,0,0-.053.077l-.6,1.236a.3.3,0,0,0,0,.265.761.761,0,0,1-1.058,1,.77.77,0,0,1-.33-.95.755.755,0,0,1,.533-.454.3.3,0,0,0,.2-.163l.6-1.244a.3.3,0,0,0,.027-.089l.117-.835A.749.749,0,0,0,6.78,249a5.03,5.03,0,0,1-1.137-1.3.75.75,0,0,0-.631-.357l-.833-.008a.3.3,0,0,0-.094.014l-.912.287a.3.3,0,0,0-.21.255,1.185,1.185,0,0,1-2.3.237,1.169,1.169,0,0,1,.008-.75.3.3,0,0,0-.572-.2,1.77,1.77,0,0,0-.011,1.134,1.8,1.8,0,0,0,1.706,1.233,1.773,1.773,0,0,0,.533-.082A1.792,1.792,0,0,0,3.53,248.15l.691-.217.785.007a.142.142,0,0,1,.12.066A5.633,5.633,0,0,0,6.4,249.465a.142.142,0,0,1,.049.13l-.111.788-.521,1.081a1.366,1.366,0,0,0-.217,2.477,1.354,1.354,0,0,0,1.081.114,1.371,1.371,0,0,0,.821-.71,1.356,1.356,0,0,0,.055-1.055l.516-1.07.5-.527a.286.286,0,0,1,.265-.082,5.638,5.638,0,0,0,1.093.107h0a.287.287,0,0,1,.247.134l.378.607.21.833a1.616,1.616,0,0,0-.286,1.533,1.638,1.638,0,0,0,1.55,1.118,1.588,1.588,0,0,0,.345-.038,1.624,1.624,0,0,0,1.222-1.982,1.629,1.629,0,0,0-.967-1.109l-.208-.825.049-.789a.168.168,0,0,1,.087-.138,5.638,5.638,0,0,0,1.235-.893.175.175,0,0,1,.141-.049l.341.041.491.33a1.366,1.366,0,1,0,.993-1.653l-.412-.276-.177-.317a.148.148,0,0,1-.008-.126,5.575,5.575,0,0,0,.318-1.23.15.15,0,0,1,.082-.116l.547-.264.537-.047a1.819,1.819,0,0,0,2.141.81.3.3,0,0,0-.189-.574Z" transform="translate(0 -231.071)"/><path class="a" d="M146.634,146.589a4.234,4.234,0,1,0,1.29.542.3.3,0,1,0-.323.511,3.612,3.612,0,1,1-1.1-.464.3.3,0,1,0,.138-.588Z" transform="translate(-135.736 -136.672)"/><path class="a" d="M48.515,14a1.421,1.421,0,1,0-1.421-1.421A1.423,1.423,0,0,0,48.515,14Zm0-2.238a.817.817,0,1,1-.817.817.818.818,0,0,1,.817-.817Z" transform="translate(-45.201 -6.809)"/><path class="a" d="M49.971,386.653a1.041,1.041,0,1,0,1.041,1.041A1.043,1.043,0,0,0,49.971,386.653Zm0,1.478a.437.437,0,1,1,.437-.437A.437.437,0,0,1,49.971,388.131Z" transform="translate(-46.963 -367.17)"/><path class="a" d="M378.436,408.111a1.391,1.391,0,1,0,1.391,1.391A1.393,1.393,0,0,0,378.436,408.111Zm0,2.178a.787.787,0,1,1,.787-.787A.787.787,0,0,1,378.436,410.289Z" transform="translate(-361.855 -387.763)"/><path class="a" d="M186.46,193.229a1.317,1.317,0,1,0-1.317,1.317A1.319,1.319,0,0,0,186.46,193.229Zm-1.317.713a.713.713,0,1,1,.713-.713A.714.714,0,0,1,185.142,193.942Z" transform="translate(-176.421 -180.276)"/><path class="a" d="M213.083,280.179a.993.993,0,1,0-.993-.993A.994.994,0,0,0,213.083,280.179Zm0-1.382a.389.389,0,1,1-.389.389A.389.389,0,0,1,213.083,278.8Z" transform="translate(-203.547 -263.08)"/><path class="a" d="M268.673,230.479a.882.882,0,1,0,.882-.882A.883.883,0,0,0,268.673,230.479Zm.882-.278a.278.278,0,1,1-.278.278A.278.278,0,0,1,269.555,230.2Z" transform="translate(-257.85 -216.443)"/></g></svg>