<svg xmlns="http://www.w3.org/2000/svg" width="25.152" height="20.11" viewBox="0 0 25.152 20.11">
    <defs>
        <style>.a{fill:#979797;}</style>
    </defs>
    <path class="a"
          d="M10.35-119.12v-20.11h4.445v1.052a.658.658,0,0,1-.2.482.7.7,0,0,1-.515.2h-1.5v16.641h1.5a.7.7,0,0,1,.515.2.658.658,0,0,1,.2.482v1.052Zm6.049-4.813a1.667,1.667,0,0,1,.125-.64,1.528,1.528,0,0,1,.347-.52,1.707,1.707,0,0,1,.526-.347,1.634,1.634,0,0,1,.65-.13,1.607,1.607,0,0,1,.64.13,1.64,1.64,0,0,1,.52.347,1.64,1.64,0,0,1,.347.52,1.607,1.607,0,0,1,.13.64,1.6,1.6,0,0,1-.13.645,1.657,1.657,0,0,1-.347.515,1.569,1.569,0,0,1-.52.341,1.667,1.667,0,0,1-.64.125,1.7,1.7,0,0,1-.65-.125,1.632,1.632,0,0,1-.526-.341,1.541,1.541,0,0,1-.347-.515A1.655,1.655,0,0,1,16.4-123.933Zm4.879,0a1.667,1.667,0,0,1,.125-.64,1.528,1.528,0,0,1,.347-.52,1.708,1.708,0,0,1,.526-.347,1.634,1.634,0,0,1,.65-.13,1.607,1.607,0,0,1,.64.13,1.64,1.64,0,0,1,.52.347,1.64,1.64,0,0,1,.347.52,1.607,1.607,0,0,1,.13.64,1.6,1.6,0,0,1-.13.645,1.657,1.657,0,0,1-.347.515,1.569,1.569,0,0,1-.52.341,1.667,1.667,0,0,1-.64.125,1.7,1.7,0,0,1-.65-.125,1.632,1.632,0,0,1-.526-.341,1.541,1.541,0,0,1-.347-.515A1.655,1.655,0,0,1,21.278-123.933Zm4.879,0a1.667,1.667,0,0,1,.125-.64,1.528,1.528,0,0,1,.347-.52,1.707,1.707,0,0,1,.526-.347,1.634,1.634,0,0,1,.65-.13,1.607,1.607,0,0,1,.64.13,1.641,1.641,0,0,1,.52.347,1.641,1.641,0,0,1,.347.52,1.607,1.607,0,0,1,.13.64,1.6,1.6,0,0,1-.13.645,1.657,1.657,0,0,1-.347.515,1.569,1.569,0,0,1-.52.341,1.667,1.667,0,0,1-.64.125,1.7,1.7,0,0,1-.65-.125,1.632,1.632,0,0,1-.526-.341,1.541,1.541,0,0,1-.347-.515A1.655,1.655,0,0,1,26.156-123.933Zm4.9,4.813v-1.052a.658.658,0,0,1,.2-.482.7.7,0,0,1,.515-.2h1.5V-137.5h-1.5a.7.7,0,0,1-.515-.2.658.658,0,0,1-.2-.482v-1.052H35.5v20.11Z"
          transform="translate(-10.35 139.23)"/>
</svg>