<svg xmlns="http://www.w3.org/2000/svg" width="20.583" height="19.947" viewBox="0 0 20.583 19.947"><defs><style>.a{fill:#979797;}</style></defs><g transform="translate(-0.001 -0.068)"><g transform="translate(0.001 0.068)"><g transform="translate(0 0)"><path class="a" d="M20.578,8.7a1.724,1.724,0,0,0-.626-1.2L18.172,6.02v-4.2a.594.594,0,0,0-.6-.585H15.157a.587.587,0,0,0-.595.585v1.2L11.51.493a1.843,1.843,0,0,0-2.353,0L.633,7.5a1.716,1.716,0,0,0-.2,2.474,1.866,1.866,0,0,0,1.984.511v8.947a.587.587,0,0,0,.595.585H17.568a.594.594,0,0,0,.6-.585V10.484a1.845,1.845,0,0,0,1.977-.512A1.709,1.709,0,0,0,20.578,8.7ZM15.76,2.4h1.214V5.018l-1.214-1ZM12.753,18.846H7.84V14.162h4.912Zm4.221,0H13.951V13.586a.594.594,0,0,0-.6-.585H7.237a.587.587,0,0,0-.595.585v5.261H3.619v-9.2L10.33,4.125l6.643,5.513v9.208Zm2.259-9.635a.616.616,0,0,1-.851.064L10.725,2.913a.617.617,0,0,0-.782,0L2.2,9.275a.619.619,0,0,1-.851-.063.572.572,0,0,1,.063-.823L9.94,1.381a.615.615,0,0,1,.785,0l8.442,7.007A.573.573,0,0,1,19.233,9.211Z" transform="translate(-0.001 -0.068)"/></g></g><g transform="translate(7.923 7.078)"><path class="a" d="M199.369,179.938h-3.585a.578.578,0,0,0-.577.585v3.507a.578.578,0,0,0,.577.585h3.585a.585.585,0,0,0,.585-.585v-3.507A.584.584,0,0,0,199.369,179.938Zm-.577,3.507h-2.424v-2.338h2.424Z" transform="translate(-195.207 -179.938)"/></g><g transform="translate(10.352 15.339)"><circle class="a" cx="0.585" cy="0.585" r="0.585"/></g></g></svg>