<svg xmlns="http://www.w3.org/2000/svg" width="25.019" height="24.246" viewBox="0 0 25.019 24.246">
    <defs>
        <style>.a{fill:#f38500;}</style>
    </defs>
    <g transform="translate(-0.001 -0.068)">
        <g transform="translate(0.001 0.068)">
            <g transform="translate(0 0)">
                <path class="a"
                      d="M25.013,10.556A2.1,2.1,0,0,0,24.252,9.1L22.088,7.3V2.194a.722.722,0,0,0-.733-.71H18.423a.714.714,0,0,0-.723.71V3.649L13.99.585a2.24,2.24,0,0,0-2.86,0L.769,9.1a2.086,2.086,0,0,0-.238,3.007,2.268,2.268,0,0,0,2.412.621V23.6a.714.714,0,0,0,.723.71H21.355a.722.722,0,0,0,.733-.71V12.729a2.243,2.243,0,0,0,2.4-.622A2.077,2.077,0,0,0,25.013,10.556ZM19.156,2.9h1.476V6.085L19.156,4.867ZM15.5,22.893H9.53V17.2H15.5Zm5.131,0H16.957V16.5a.722.722,0,0,0-.733-.71H8.8a.714.714,0,0,0-.723.71v6.394H4.4V11.707L12.557,5l8.075,6.7V22.893Zm2.746-11.711a.749.749,0,0,1-1.034.077L13.036,3.526a.751.751,0,0,0-.951,0L2.678,11.259a.752.752,0,0,1-1.034-.077.7.7,0,0,1,.077-1L12.082,1.664a.747.747,0,0,1,.954,0L23.3,10.18A.7.7,0,0,1,23.377,11.182Z"
                      transform="translate(-0.001 -0.068)"/>
            </g>
        </g>
        <g transform="translate(9.631 8.588)">
            <path class="a"
                  d="M200.266,179.938h-4.358a.7.7,0,0,0-.7.71v4.263a.7.7,0,0,0,.7.71h4.358a.711.711,0,0,0,.71-.71v-4.263A.71.71,0,0,0,200.266,179.938Zm-.7,4.263h-2.946v-2.842h2.946Z"
                  transform="translate(-195.207 -179.938)"/>
        </g>
        <g transform="translate(12.583 18.63)">
            <circle class="a" cx="0.71" cy="0.71" r="0.71"/>
        </g>
    </g>
</svg>