<svg xmlns="http://www.w3.org/2000/svg" width="20.091" height="20.091" viewBox="0 0 20.091 20.091"><defs><style>.a{fill:#f38500;}</style></defs><g transform="translate(0 19.254)"><path class="a" d="M19.672,490.667H.419a.419.419,0,1,0,0,.837H19.672a.419.419,0,1,0,0-.837Z" transform="translate(0 -490.667)"/></g><g transform="translate(0.837 14.231)"><path class="a" d="M24.263,362.667H21.752a.419.419,0,0,0-.419.419v5.023a.419.419,0,0,0,.419.419h2.511a.419.419,0,0,0,.419-.419v-5.023A.419.419,0,0,0,24.263,362.667Zm-.419,5.023H22.17V363.5h1.674v4.186Z" transform="translate(-21.333 -362.667)"/></g><g transform="translate(5.86 10.045)"><path class="a" d="M152.263,256h-2.511a.419.419,0,0,0-.419.419v9.208a.419.419,0,0,0,.419.419h2.511a.419.419,0,0,0,.419-.419v-9.208A.419.419,0,0,0,152.263,256Zm-.419,9.208H150.17v-8.371h1.674Z" transform="translate(-149.333 -256)"/></g><g transform="translate(10.883 11.72)"><path class="a" d="M280.263,298.667h-2.511a.419.419,0,0,0-.419.419v7.534a.419.419,0,0,0,.419.419h2.511a.419.419,0,0,0,.419-.419v-7.534A.419.419,0,0,0,280.263,298.667Zm-.419,7.534H278.17v-6.7h1.674Z" transform="translate(-277.333 -298.667)"/></g><g transform="translate(15.905 6.697)"><path class="a" d="M408.263,170.667h-2.511a.419.419,0,0,0-.419.419v12.557a.419.419,0,0,0,.419.419h2.511a.419.419,0,0,0,.419-.419V171.086A.419.419,0,0,0,408.263,170.667Zm-.419,12.557H406.17V171.5h1.674Z" transform="translate(-405.333 -170.667)"/></g><g transform="translate(0.837 7.534)"><path class="a" d="M23.007,192a1.674,1.674,0,1,0,1.674,1.674A1.676,1.676,0,0,0,23.007,192Zm0,2.511a.837.837,0,1,1,.837-.837A.838.838,0,0,1,23.007,194.511Z" transform="translate(-21.333 -192)"/></g><g transform="translate(5.86 3.348)"><path class="a" d="M151.007,85.333a1.674,1.674,0,1,0,1.674,1.674A1.676,1.676,0,0,0,151.007,85.333Zm0,2.511a.837.837,0,1,1,.837-.837A.838.838,0,0,1,151.007,87.844Z" transform="translate(-149.333 -85.333)"/></g><g transform="translate(10.883 5.023)"><path class="a" d="M279.007,128a1.674,1.674,0,1,0,1.674,1.674A1.676,1.676,0,0,0,279.007,128Zm0,2.511a.837.837,0,1,1,.837-.837A.838.838,0,0,1,279.007,130.511Z" transform="translate(-277.333 -128)"/></g><g transform="translate(15.905)"><path class="a" d="M407.007,0a1.674,1.674,0,1,0,1.674,1.674A1.676,1.676,0,0,0,407.007,0Zm0,2.511a.837.837,0,1,1,.837-.837A.838.838,0,0,1,407.007,2.511Z" transform="translate(-405.333)"/></g><g transform="translate(13.026 2.143)"><path class="a" d="M335.925,54.73a.419.419,0,0,0-.592,0l-3.248,3.248a.419.419,0,0,0,.592.592l3.248-3.248A.419.419,0,0,0,335.925,54.73Z" transform="translate(-331.963 -54.608)"/></g><g transform="translate(8.323 4.947)"><path class="a" d="M215.33,126.861l-2.689-.767a.419.419,0,0,0-.229.805l2.689.767a.419.419,0,0,0,.229-.805Z" transform="translate(-212.108 -126.078)"/></g><g transform="translate(2.98 5.387)"><path class="a" d="M79.836,137.431a.419.419,0,0,0-.588-.067l-3.156,2.516a.419.419,0,0,0,.261.746.422.422,0,0,0,.26-.09l3.156-2.516A.418.418,0,0,0,79.836,137.431Z" transform="translate(-75.935 -137.273)"/></g></svg>