<svg xmlns="http://www.w3.org/2000/svg" width="24.991" height="24.991" viewBox="0 0 24.991 24.991">
    <defs>
        <style>.a{fill:#979797;}</style>
    </defs>
    <g transform="translate(0 23.95)">
        <path class="a" d="M24.47,490.667H.521a.521.521,0,1,0,0,1.041H24.47a.521.521,0,1,0,0-1.041Z"
              transform="translate(0 -490.667)"/>
    </g>
    <g transform="translate(1.041 17.702)">
        <path class="a"
              d="M24.978,362.667H21.854a.521.521,0,0,0-.521.521v6.248a.521.521,0,0,0,.521.521h3.124a.521.521,0,0,0,.521-.521v-6.248A.521.521,0,0,0,24.978,362.667Zm-.521,6.248H22.374v-5.206h2.083v5.206Z"
              transform="translate(-21.333 -362.667)"/>
    </g>
    <g transform="translate(7.289 12.495)">
        <path class="a"
              d="M152.978,256h-3.124a.521.521,0,0,0-.521.521v11.454a.521.521,0,0,0,.521.521h3.124a.521.521,0,0,0,.521-.521V256.521A.521.521,0,0,0,152.978,256Zm-.521,11.454h-2.083V257.041h2.083Z"
              transform="translate(-149.333 -256)"/>
    </g>
    <g transform="translate(13.537 14.578)">
        <path class="a"
              d="M280.978,298.667h-3.124a.521.521,0,0,0-.521.521v9.372a.521.521,0,0,0,.521.521h3.124a.521.521,0,0,0,.521-.521v-9.372A.521.521,0,0,0,280.978,298.667Zm-.521,9.372h-2.083v-8.33h2.083Z"
              transform="translate(-277.333 -298.667)"/>
    </g>
    <g transform="translate(19.785 8.33)">
        <path class="a"
              d="M408.978,170.667h-3.124a.521.521,0,0,0-.521.521v15.619a.521.521,0,0,0,.521.521h3.124a.521.521,0,0,0,.521-.521V171.188A.521.521,0,0,0,408.978,170.667Zm-.521,15.619h-2.083V171.708h2.083Z"
              transform="translate(-405.333 -170.667)"/>
    </g>
    <g transform="translate(1.041 9.372)">
        <path class="a"
              d="M23.416,192a2.083,2.083,0,1,0,2.083,2.083A2.085,2.085,0,0,0,23.416,192Zm0,3.124a1.041,1.041,0,1,1,1.041-1.041A1.042,1.042,0,0,1,23.416,195.124Z"
              transform="translate(-21.333 -192)"/>
    </g>
    <g transform="translate(7.289 4.165)">
        <path class="a"
              d="M151.416,85.333a2.083,2.083,0,1,0,2.083,2.083A2.085,2.085,0,0,0,151.416,85.333Zm0,3.124a1.041,1.041,0,1,1,1.041-1.041A1.042,1.042,0,0,1,151.416,88.457Z"
              transform="translate(-149.333 -85.333)"/>
    </g>
    <g transform="translate(13.537 6.248)">
        <path class="a"
              d="M279.416,128a2.083,2.083,0,1,0,2.083,2.083A2.085,2.085,0,0,0,279.416,128Zm0,3.124a1.041,1.041,0,1,1,1.041-1.041A1.042,1.042,0,0,1,279.416,131.124Z"
              transform="translate(-277.333 -128)"/>
    </g>
    <g transform="translate(19.785)">
        <path class="a"
              d="M407.416,0A2.083,2.083,0,1,0,409.5,2.083,2.085,2.085,0,0,0,407.416,0Zm0,3.124a1.041,1.041,0,1,1,1.041-1.041A1.042,1.042,0,0,1,407.416,3.124Z"
              transform="translate(-405.333)"/>
    </g>
    <g transform="translate(16.203 2.665)">
        <path class="a"
              d="M336.892,54.76a.521.521,0,0,0-.736,0l-4.04,4.04a.521.521,0,0,0,.736.736l4.04-4.04A.521.521,0,0,0,336.892,54.76Z"
              transform="translate(-331.963 -54.608)"/>
    </g>
    <g transform="translate(10.353 6.154)">
        <path class="a" d="M216.115,127.053l-3.345-.954a.521.521,0,0,0-.285,1l3.345.954a.521.521,0,0,0,.285-1Z"
              transform="translate(-212.108 -126.078)"/>
    </g>
    <g transform="translate(3.706 6.7)">
        <path class="a"
              d="M80.788,137.469a.521.521,0,0,0-.731-.083l-3.926,3.13a.521.521,0,0,0,.325.928.525.525,0,0,0,.324-.112l3.926-3.13A.52.52,0,0,0,80.788,137.469Z"
              transform="translate(-75.935 -137.273)"/>
    </g>
</svg>