<svg xmlns="http://www.w3.org/2000/svg" width="25.622" height="25.096" viewBox="0 0 25.622 25.096"><defs><style>.a,.f{fill:none;}.a,.d{stroke:#979797;}.b{fill:#fff;}.c,.d{fill:#979797;}.e{stroke:none;}</style></defs><g transform="translate(-1305 -161.793)"><g class="a" transform="translate(1305 162.347)"><circle class="e" cx="12" cy="12" r="12"/><circle class="f" cx="12" cy="12" r="11.5"/></g><rect class="b" width="25.096" height="1.193" transform="matrix(-0.174, -0.985, 0.985, -0.174, 1318.502, 186.789)"/><rect class="b" width="14.122" height="8.589" transform="translate(1314.563 173.947) rotate(-45)"/><rect class="b" width="25.096" height="1.193" transform="translate(1317.357 161.793) rotate(90)"/><g class="a" transform="translate(1310 167.347)"><circle class="e" cx="7" cy="7" r="7"/><circle class="f" cx="7" cy="7" r="6.5"/></g><path class="c" d="M-5.468-23.46v3.012H-2.61V-19.1H-5.468v3.027H-6.937V-19.1H-9.78v-1.344h2.843V-23.46Z" transform="translate(1323.183 194.304)"/><g transform="translate(1326.41 174.619) rotate(-90)"><g transform="translate(0 0)"><path class="d" d="M3.581,1.7.221.016a.153.153,0,0,0-.2.219l1.017,1.6L.024,3.431a.153.153,0,0,0,.2.219l3.36-1.68a.153.153,0,0,0,0-.273Z"/></g></g></g></svg>