<svg xmlns="http://www.w3.org/2000/svg"  viewBox="0 0 11.262 11.416"><defs><style>.a,.f{fill:none;}.a,.d{stroke:#979797;stroke-width:0.5px;}.b{fill:#fff;}.c,.d{fill:#979797;}.e{stroke:none;}</style></defs><g transform="translate(-0.258)"><g class="a" transform="translate(0.258 0.704)"><circle class="e" cx="5" cy="5" r="5"/><circle class="f" cx="5" cy="5" r="4.75"/></g><rect class="b" width="11.416" height="0.543" transform="matrix(-0.174, -0.985, 0.985, -0.174, 6.006, 11.37)"/><rect class="b" width="6.424" height="3.907" transform="translate(4.215 5.529) rotate(-45)"/><rect class="b" width="11.416" height="0.543" transform="translate(5.485 0) rotate(90)"/><g class="a" transform="translate(2.258 2.704)"><circle class="e" cx="3" cy="3" r="3"/><circle class="f" cx="3" cy="3" r="2.75"/></g><path class="c" d="M-7.818-23.46v1.37h1.3v.612h-1.3V-20.1h-.668v-1.377H-9.78v-.612h1.293v-1.37Z" transform="translate(13.467 27.577)"/><g transform="translate(9.258 5.834) rotate(-90)"><g transform="translate(0 0)"><path class="d" d="M1.629.771.1.007a.07.07,0,0,0-.09.1L.473.834l-.463.727a.07.07,0,0,0,.09.1L1.629.9a.07.07,0,0,0,0-.124Z"/></g></g></g></svg>