<svg xmlns="http://www.w3.org/2000/svg" width="12.034" height="20.162" viewBox="0 0 12.034 20.162"><defs><style>.a{fill:#979797;stroke:#979797;stroke-width:0.2px;}</style></defs><g transform="translate(-103.968 0.101)"><path class="a" d="M144.948,307.537h-7.213l.406-4.2a.312.312,0,0,0-.622-.06l-.411,4.263h-2.176a.312.312,0,1,0,0,.625h9.7v.54h-.388a2.112,2.112,0,0,0-2.086,1.8h-.385a.312.312,0,1,0,0,.625h.674a.312.312,0,0,0,.312-.312,1.486,1.486,0,0,1,1.484-1.484h.7a.312.312,0,0,0,.312-.312v-1.165A.312.312,0,0,0,144.948,307.537Z" transform="translate(-29.358 -291.161)"/><path class="a" d="M111.234,422.364h-4.068a2.112,2.112,0,0,0-2.086-1.8h-.388v-.852a.312.312,0,0,0-.625,0v1.165a.312.312,0,0,0,.312.312h.7a1.486,1.486,0,0,1,1.484,1.484.312.312,0,0,0,.312.312h4.357a.312.312,0,1,0,0-.625Z" transform="translate(0 -403.027)"/><path class="a" d="M200.228,4.633a.312.312,0,0,0,.283.18.152.152,0,0,1,.112.048c.069.074.071-.2-.438,5.079a.312.312,0,0,0,.622.06c.5-5.21.48-4.977.481-4.985a.778.778,0,0,0-.564-.8l-.307-.655h2.765l-.307.655a.777.777,0,0,0-.563.807l1.028,10.657a.312.312,0,1,0,.622-.06c-1.1-11.379-1.05-10.677-1-10.747a.152.152,0,0,1,.123-.062.312.312,0,0,0,.283-.18l.586-1.249a.313.313,0,0,0-.283-.445H203.3a2.744,2.744,0,0,0-.024-1.248.312.312,0,1,0-.605.154,2.127,2.127,0,0,1-.006,1.065h-1.733A2,2,0,0,1,201.8.664a1.771,1.771,0,0,1,.479.4.312.312,0,0,0,.48-.4,2.374,2.374,0,0,0-.828-.638.312.312,0,0,0-.26,0A2.59,2.59,0,0,0,200.3,2.938h-.373a.313.313,0,0,0-.283.445Z" transform="translate(-91.815)"/><path class="a" d="M211.068,272.634l-.03.312a.312.312,0,1,0,.622.06l.03-.312a.312.312,0,1,0-.622-.06Z" transform="translate(-102.792 -261.717)"/></g></svg>