<svg xmlns="http://www.w3.org/2000/svg" width="15.064" height="25.273" viewBox="0 0 15.064 25.273">
    <defs>
        <style>.a{fill:#f38500;stroke:#f38500;stroke-width:0.2px;}</style>
    </defs>
    <g transform="translate(-103.968 0.101)">
        <path class="a"
              d="M147.593,308.7h-9.06l.509-5.279a.392.392,0,0,0-.781-.075l-.517,5.354h-2.733a.392.392,0,1,0,0,.785H147.2v.678h-.488a2.653,2.653,0,0,0-2.62,2.256h-.483a.392.392,0,1,0,0,.785h.847a.392.392,0,0,0,.392-.392,1.866,1.866,0,0,1,1.864-1.864h.88a.392.392,0,0,0,.392-.392v-1.463A.392.392,0,0,0,147.593,308.7Z"
              transform="translate(-29.053 -288.132)"/>
        <path class="a"
              d="M113.069,423.122H107.96a2.653,2.653,0,0,0-2.62-2.256h-.488V419.8a.392.392,0,1,0-.785,0v1.463a.392.392,0,0,0,.392.392h.88a1.866,1.866,0,0,1,1.864,1.864.392.392,0,0,0,.392.392h5.473a.392.392,0,1,0,0-.785Z"
              transform="translate(0 -398.835)"/>
        <path class="a"
              d="M200.386,5.819a.392.392,0,0,0,.355.226.191.191,0,0,1,.14.061c.087.093.09-.251-.55,6.379a.392.392,0,1,0,.781.075c.631-6.544.6-6.251.6-6.261a.977.977,0,0,0-.708-1l-.385-.822H204.1l-.385.822A.976.976,0,0,0,203,6.311L204.3,19.7a.392.392,0,1,0,.781-.075C203.7,5.33,203.758,6.21,203.823,6.122a.191.191,0,0,1,.155-.078.392.392,0,0,0,.355-.226l.736-1.569a.393.393,0,0,0-.355-.559h-.468a3.447,3.447,0,0,0-.03-1.568.392.392,0,1,0-.76.194,2.672,2.672,0,0,1-.007,1.337h-2.177a2.509,2.509,0,0,1,1.088-2.82,2.225,2.225,0,0,1,.6.506.392.392,0,0,0,.6-.5,2.982,2.982,0,0,0-1.04-.8.392.392,0,0,0-.326,0,3.253,3.253,0,0,0-1.722,3.654h-.468a.393.393,0,0,0-.355.559Z"
              transform="translate(-90.86)"/>
        <path class="a" d="M211.076,272.706l-.038.392a.392.392,0,1,0,.781.075l.038-.392a.392.392,0,1,0-.781-.075Z"
              transform="translate(-101.723 -258.995)"/>
    </g>
</svg>