<svg xmlns="http://www.w3.org/2000/svg" width="25.405" height="25.026" viewBox="0 0 25.405 25.026"><defs><style>.a{fill:#979797;stroke:#979797;stroke-width:0.4px;}</style></defs><g transform="translate(0.207 -3.835)"><path class="a" d="M48.185,15.322a2.444,2.444,0,0,0-.862-1.705,2.235,2.235,0,0,0-1.669-.518,2.392,2.392,0,0,0-1.91,1.4l-.75.066-.74-.207a.186.186,0,0,1-.124-.122,6.944,6.944,0,0,0-.913-1.8l.262-.7.826-.894a1.68,1.68,0,0,0,1.221-.584,1.708,1.708,0,0,0-.054-2.281,1.679,1.679,0,0,0-1.242-.526A1.7,1.7,0,0,0,41,7.993a1.686,1.686,0,0,0-.449,1.223l-.827.894-.693.321a6.947,6.947,0,0,0-3.406-.948l-.453-.722-.16-.794a2.153,2.153,0,0,0,.764-2.124A2.375,2.375,0,0,0,31.518,5.1,2.12,2.12,0,0,0,31.2,6.727a2.24,2.24,0,0,0,1.447,1.629l.176.877-.14.855a6.953,6.953,0,0,0-1.757,1.13l-.519-.092-.587-.443a1.7,1.7,0,1,0-1.345,1.981l.492.371.22.451a.073.073,0,0,1,0,.063,6.894,6.894,0,0,0-.634,2.9c0,.187.008.377.023.565a.078.078,0,0,1-.031.071l-.83.591-.947.3a2.221,2.221,0,0,0-2.059-.352l-.042.015-.012,0a.375.375,0,0,0,.254.706l.018-.006.018-.006a1.472,1.472,0,0,1,1.479.332.375.375,0,0,0,.371.086l1.2-.378a.375.375,0,0,0,.105-.052l.878-.626a.833.833,0,0,0,.343-.743c-.014-.168-.021-.337-.021-.5a6.149,6.149,0,0,1,.565-2.587.821.821,0,0,0-.008-.706l-.26-.532a.375.375,0,0,0-.111-.135l-.707-.533a.375.375,0,0,0-.341-.058.948.948,0,0,1-.859-.145.946.946,0,0,1-.147-1.372.955.955,0,0,1,1.242-.169.943.943,0,0,1,.417.708.375.375,0,0,0,.148.268l.783.59a.375.375,0,0,0,.16.07l.789.141a.375.375,0,0,0,.321-.094,6.211,6.211,0,0,1,1.866-1.2.375.375,0,0,0,.228-.286l.185-1.125a.376.376,0,0,0,0-.135L33.343,7.99a.375.375,0,0,0-.274-.289,1.512,1.512,0,0,1-1.131-1.13,1.375,1.375,0,0,1,.205-1.056,1.626,1.626,0,0,1,2.9.485,1.423,1.423,0,0,1-.649,1.491.375.375,0,0,0-.164.389l.221,1.1a.376.376,0,0,0,.05.125l.542.865a.566.566,0,0,0,.483.267h0a6.2,6.2,0,0,1,3.2.89.566.566,0,0,0,.531.03l.849-.394a.376.376,0,0,0,.118-.086L41.215,9.6a.375.375,0,0,0,.1-.312.945.945,0,0,1,1.619-.8.951.951,0,0,1,.029,1.27.939.939,0,0,1-.787.324.375.375,0,0,0-.3.12l-.991,1.072a.375.375,0,0,0-.076.124l-.322.866a.565.565,0,0,0,.074.531,6.2,6.2,0,0,1,.866,1.674.936.936,0,0,0,.633.606l.806.226a.375.375,0,0,0,.134.012l1.047-.092a.375.375,0,0,0,.322-.251,1.655,1.655,0,0,1,1.368-1.129,1.491,1.491,0,0,1,1.113.347,1.7,1.7,0,0,1,.6,1.187,1.829,1.829,0,0,1-.164.91.375.375,0,1,0,.681.317,2.584,2.584,0,0,0,.232-1.285Z" transform="translate(-23.195 0)"/><path class="a" d="M23.1,245.9a1.515,1.515,0,0,1-1.87-.848.375.375,0,0,0-.373-.215l-.983.087a.375.375,0,0,0-.13.036l-.742.358a.935.935,0,0,0-.519.716,6.171,6.171,0,0,1-.352,1.362.932.932,0,0,0,.055.793l.264.472a.375.375,0,0,0,.119.128l.735.493a.375.375,0,0,0,.343.039.948.948,0,0,1,.866.1.946.946,0,0,1,.223,1.362.955.955,0,0,1-1.231.238.944.944,0,0,1-.455-.684.375.375,0,0,0-.163-.26l-.814-.546a.374.374,0,0,0-.164-.061l-.512-.062a.964.964,0,0,0-.784.262,6.247,6.247,0,0,1-1.37.99.965.965,0,0,0-.5.787l-.065,1.038a.375.375,0,0,0,.011.115l.322,1.279a.375.375,0,0,0,.263.27,1.27,1.27,0,0,1,.888.91,1.266,1.266,0,0,1-.954,1.545,1.266,1.266,0,0,1-1.16-2.14.375.375,0,0,0,.1-.36l-.324-1.286a.375.375,0,0,0-.045-.106l-.5-.8a1.1,1.1,0,0,0-.948-.52h0a6.238,6.238,0,0,1-1.208-.118,1.1,1.1,0,0,0-1.02.322l-.661.7a.377.377,0,0,0-.066.1l-.74,1.534a.375.375,0,0,0,0,.329.945.945,0,0,1-1.314,1.241.956.956,0,0,1-.41-1.179.938.938,0,0,1,.662-.564.375.375,0,0,0,.253-.2L8.573,252a.375.375,0,0,0,.034-.111l.146-1.037A.931.931,0,0,0,8.421,250a6.246,6.246,0,0,1-1.412-1.618.932.932,0,0,0-.784-.443l-1.035-.01a.372.372,0,0,0-.116.017l-1.133.357a.375.375,0,0,0-.26.316,1.472,1.472,0,0,1-2.862.294,1.452,1.452,0,0,1,.009-.931.375.375,0,1,0-.71-.244A2.2,2.2,0,0,0,.1,249.147a2.233,2.233,0,0,0,2.118,1.532,2.2,2.2,0,0,0,.662-.1,2.226,2.226,0,0,0,1.5-1.626l.858-.27.976.009a.176.176,0,0,1,.149.082,7,7,0,0,0,1.581,1.812.176.176,0,0,1,.061.161l-.138.979-.647,1.342a1.7,1.7,0,0,0-.27,3.076,1.682,1.682,0,0,0,1.343.141,1.7,1.7,0,0,0,1.02-.882,1.684,1.684,0,0,0,.068-1.31l.641-1.329.62-.655a.355.355,0,0,1,.329-.1,7,7,0,0,0,1.358.132h0a.356.356,0,0,1,.306.166l.469.754.261,1.034a2.008,2.008,0,0,0-.355,1.9,2.034,2.034,0,0,0,1.925,1.388,1.972,1.972,0,0,0,.429-.047,2.017,2.017,0,0,0,1.518-2.461,2.023,2.023,0,0,0-1.2-1.377l-.258-1.025.061-.98a.209.209,0,0,1,.108-.171,7,7,0,0,0,1.534-1.109.217.217,0,0,1,.175-.06l.423.051.61.409a1.7,1.7,0,1,0,1.233-2.052l-.511-.343-.22-.394a.184.184,0,0,1-.009-.156,6.924,6.924,0,0,0,.4-1.528.186.186,0,0,1,.1-.144l.68-.328.667-.059a2.259,2.259,0,0,0,2.659,1.006.375.375,0,0,0-.235-.713Z" transform="translate(0 -228.723)"/><path class="a" d="M147.893,146.616a5.258,5.258,0,1,0,1.6.673.375.375,0,1,0-.4.634,4.486,4.486,0,1,1-1.372-.576.375.375,0,1,0,.172-.731Z" transform="translate(-134.357 -135.284)"/><path class="a" d="M48.859,14.691a1.765,1.765,0,1,0-1.765-1.765,1.767,1.767,0,0,0,1.765,1.765Zm0-2.78a1.014,1.014,0,1,1-1.014,1.014,1.016,1.016,0,0,1,1.014-1.014Z" transform="translate(-44.741 -6.74)"/><path class="a" d="M50.223,386.653a1.293,1.293,0,1,0,1.293,1.293A1.295,1.295,0,0,0,50.223,386.653Zm0,1.836a.543.543,0,1,1,.543-.543A.543.543,0,0,1,50.223,388.489Z" transform="translate(-46.485 -363.44)"/><path class="a" d="M378.772,408.111a1.728,1.728,0,1,0,1.728,1.728A1.73,1.73,0,0,0,378.772,408.111Zm0,2.7a.977.977,0,1,1,.977-.977A.978.978,0,0,1,378.772,410.815Z" transform="translate(-358.179 -383.824)"/><path class="a" d="M187.1,193.548a1.636,1.636,0,1,0-1.636,1.636A1.638,1.638,0,0,0,187.1,193.548Zm-1.636.885a.885.885,0,1,1,.885-.885A.886.886,0,0,1,185.461,194.433Z" transform="translate(-174.629 -178.445)"/><path class="a" d="M213.323,280.66a1.233,1.233,0,1,0-1.233-1.233A1.235,1.235,0,0,0,213.323,280.66Zm0-1.716a.483.483,0,1,1-.483.483A.483.483,0,0,1,213.323,278.944Z" transform="translate(-201.48 -260.408)"/><path class="a" d="M268.673,230.693a1.1,1.1,0,1,0,1.1-1.1A1.1,1.1,0,0,0,268.673,230.693Zm1.1-.345a.345.345,0,1,1-.345.345A.346.346,0,0,1,269.769,230.348Z" transform="translate(-255.231 -214.244)"/></g></svg>