<svg xmlns="http://www.w3.org/2000/svg"  viewBox="0 0 10.157 10.007"><defs><style>.a{fill:#979797;stroke:#979797;stroke-width:0.2px;}</style></defs><g transform="translate(0.101 0.113)"><path class="a" d="M33.879,8.548a.973.973,0,0,0-.343-.679.89.89,0,0,0-.665-.206.952.952,0,0,0-.76.557l-.3.026-.295-.083a.074.074,0,0,1-.049-.049A2.765,2.765,0,0,0,31.1,7.4l.1-.28.329-.356a.669.669,0,0,0,.486-.233A.68.68,0,0,0,32,5.622a.669.669,0,0,0-.494-.21.675.675,0,0,0-.669.7l-.329.356-.276.128a2.767,2.767,0,0,0-1.356-.377l-.18-.288-.064-.316a.857.857,0,0,0,.3-.846.946.946,0,0,0-1.7-.3.844.844,0,0,0-.125.648.892.892,0,0,0,.576.649l.07.349-.056.34a2.768,2.768,0,0,0-.7.45L26.8,6.877,26.568,6.7a.676.676,0,1,0-.536.789l.2.148.088.18a.029.029,0,0,1,0,.025A2.745,2.745,0,0,0,26.063,9c0,.074,0,.15.009.225a.031.031,0,0,1-.012.028l-.331.235-.377.119a.884.884,0,0,0-.82-.14l-.017.006,0,0a.149.149,0,0,0,.1.281l.007,0,.007,0a.586.586,0,0,1,.589.132.149.149,0,0,0,.148.034l.479-.151a.149.149,0,0,0,.042-.021l.35-.249a.332.332,0,0,0,.137-.3c-.005-.067-.008-.134-.008-.2a2.448,2.448,0,0,1,.225-1.03.327.327,0,0,0,0-.281l-.1-.212a.149.149,0,0,0-.044-.054l-.281-.212a.149.149,0,0,0-.136-.023.377.377,0,0,1-.342-.058.377.377,0,0,1-.059-.546.38.38,0,0,1,.494-.067.376.376,0,0,1,.166.282.149.149,0,0,0,.059.107l.312.235a.149.149,0,0,0,.064.028l.314.056a.149.149,0,0,0,.128-.038,2.473,2.473,0,0,1,.743-.476.149.149,0,0,0,.091-.114l.074-.448a.15.15,0,0,0,0-.054l-.093-.463a.149.149,0,0,0-.109-.115.6.6,0,0,1-.45-.45.548.548,0,0,1,.082-.42.647.647,0,0,1,1.154.193.566.566,0,0,1-.258.594.149.149,0,0,0-.065.155l.088.436a.15.15,0,0,0,.02.05l.216.344a.225.225,0,0,0,.192.106h0a2.467,2.467,0,0,1,1.275.355.225.225,0,0,0,.211.012l.338-.157a.15.15,0,0,0,.047-.034L31.1,6.27a.149.149,0,0,0,.038-.124.376.376,0,0,1,.645-.317.379.379,0,0,1,.012.506.374.374,0,0,1-.313.129.149.149,0,0,0-.121.048l-.395.427a.149.149,0,0,0-.03.049l-.128.345a.225.225,0,0,0,.029.211,2.468,2.468,0,0,1,.345.667.373.373,0,0,0,.252.241l.321.09a.149.149,0,0,0,.053,0l.417-.037a.149.149,0,0,0,.128-.1.659.659,0,0,1,.545-.45.594.594,0,0,1,.443.138.677.677,0,0,1,.237.473.728.728,0,0,1-.065.363.149.149,0,1,0,.271.126,1.029,1.029,0,0,0,.092-.512Z" transform="translate(-23.926 -4.066)"/><path class="a" d="M9.2,245.263a.605.605,0,0,1-.129.027.612.612,0,0,1-.616-.365.149.149,0,0,0-.149-.086l-.391.035a.149.149,0,0,0-.052.014l-.3.142a.372.372,0,0,0-.206.285,2.457,2.457,0,0,1-.14.542.371.371,0,0,0,.022.316l.105.188a.149.149,0,0,0,.047.051l.293.2a.15.15,0,0,0,.137.015.377.377,0,0,1,.345.039.377.377,0,0,1,.089.542.38.38,0,0,1-.49.095.376.376,0,0,1-.181-.272.149.149,0,0,0-.065-.1l-.324-.217a.149.149,0,0,0-.065-.024l-.2-.025a.384.384,0,0,0-.312.1,2.487,2.487,0,0,1-.545.394.384.384,0,0,0-.2.313l-.026.413a.149.149,0,0,0,0,.046l.128.509a.149.149,0,0,0,.1.107.506.506,0,0,1,.354.362.5.5,0,0,1-.38.615.5.5,0,0,1-.462-.852.149.149,0,0,0,.04-.143l-.129-.512a.15.15,0,0,0-.018-.042l-.2-.32a.44.44,0,0,0-.377-.207h0a2.484,2.484,0,0,1-.481-.047.439.439,0,0,0-.406.128l-.263.278a.151.151,0,0,0-.026.038l-.295.611a.149.149,0,0,0,0,.131.376.376,0,0,1-.523.494.381.381,0,0,1-.163-.47.373.373,0,0,1,.264-.225.149.149,0,0,0,.1-.081l.3-.615a.15.15,0,0,0,.013-.044l.058-.413a.371.371,0,0,0-.132-.338,2.488,2.488,0,0,1-.562-.644.371.371,0,0,0-.312-.177l-.412,0a.149.149,0,0,0-.046.007l-.451.142a.15.15,0,0,0-.1.126.586.586,0,0,1-1.14.117.578.578,0,0,1,0-.371.149.149,0,1,0-.283-.1.875.875,0,0,0-.005.561.889.889,0,0,0,.843.61.877.877,0,0,0,.264-.041.886.886,0,0,0,.6-.647l.342-.107.388,0a.07.07,0,0,1,.059.033,2.785,2.785,0,0,0,.63.722.07.07,0,0,1,.024.064l-.055.39-.258.534a.675.675,0,0,0-.107,1.225.67.67,0,0,0,.535.056.678.678,0,0,0,.406-.351.671.671,0,0,0,.027-.522l.255-.529.247-.261a.141.141,0,0,1,.131-.041,2.787,2.787,0,0,0,.541.053h0a.142.142,0,0,1,.122.066l.187.3.1.412a.8.8,0,0,0-.141.758.81.81,0,0,0,.766.553.787.787,0,0,0,.171-.019.8.8,0,0,0,.6-.98.805.805,0,0,0-.478-.548l-.1-.408.024-.39a.083.083,0,0,1,.043-.068,2.788,2.788,0,0,0,.611-.441.086.086,0,0,1,.07-.024l.169.02.243.163a.676.676,0,1,0,.491-.817l-.2-.137-.088-.157a.073.073,0,0,1,0-.062,2.757,2.757,0,0,0,.157-.608.074.074,0,0,1,.04-.057l.271-.131.266-.023a.9.9,0,0,0,1.059.4.15.15,0,0,0-.093-.284Z" transform="translate(0.004 -240.041)"/><path class="a" d="M144,146.532a2.094,2.094,0,1,0,.638.268.149.149,0,1,0-.16.253,1.786,1.786,0,1,1-.546-.23.149.149,0,0,0,.068-.291Z" transform="translate(-138.612 -143.639)"/><path class="a" d="M47.8,12.567a.7.7,0,1,0-.7-.7A.7.7,0,0,0,47.8,12.567Zm0-1.107a.4.4,0,1,1-.4.4A.4.4,0,0,1,47.8,11.46Z" transform="translate(-46.155 -11.02)"/><path class="a" d="M49.445,386.653a.515.515,0,1,0,.515.515A.516.516,0,0,0,49.445,386.653Zm0,.731a.216.216,0,1,1,.216-.216A.216.216,0,0,1,49.445,387.384Z" transform="translate(-47.955 -379.028)"/><path class="a" d="M377.733,408.111a.688.688,0,1,0,.688.688A.689.689,0,0,0,377.733,408.111Zm0,1.077a.389.389,0,1,1,.389-.389A.389.389,0,0,1,377.733,409.188Z" transform="translate(-369.531 -400.059)"/><path class="a" d="M185.128,192.563a.651.651,0,1,0-.651.651A.652.652,0,0,0,185.128,192.563Zm-.651.353a.353.353,0,1,1,.353-.353A.353.353,0,0,1,184.476,192.916Z" transform="translate(-180.161 -188.168)"/><path class="a" d="M212.581,279.175a.491.491,0,1,0-.491-.491A.492.492,0,0,0,212.581,279.175Zm0-.683a.192.192,0,1,1-.192.192A.192.192,0,0,1,212.581,278.492Z" transform="translate(-207.863 -272.73)"/><path class="a" d="M268.673,230.033a.436.436,0,1,0,.436-.436A.437.437,0,0,0,268.673,230.033Zm.436-.137a.137.137,0,1,1-.137.137A.138.138,0,0,1,269.109,229.9Z" transform="translate(-263.319 -225.102)"/></g></svg>