<svg xmlns="http://www.w3.org/2000/svg" width="193" height="145.044" viewBox="0 0 193 145.044"><defs><style>.a{fill:#6fad76;}.b{fill:#fff;}.c{fill:#f38800;}</style></defs><g transform="translate(-607 -7670.956)"><g transform="translate(633.417 7670.956)"><path class="a" d="M107.714,15.005a7.5,7.5,0,1,0-7.5-7.5A7.511,7.511,0,0,0,107.714,15.005Zm0-11.34A3.837,3.837,0,1,1,103.877,7.5,3.842,3.842,0,0,1,107.714,3.666Z" transform="translate(-97.541 0)"/><path class="a" d="M102.356,68.914H96.6a7.329,7.329,0,0,0-7.32,7.321V88.572a7.306,7.306,0,0,0,2.924,5.846V114.27a1.833,1.833,0,0,0,3.666,0V93.422a1.831,1.831,0,0,0-.978-1.621,3.658,3.658,0,0,1-1.946-3.229V76.235A3.659,3.659,0,0,1,96.6,72.58h5.752a3.659,3.659,0,0,1,3.655,3.656V88.572a3.659,3.659,0,0,1-1.948,3.23,1.832,1.832,0,0,0-.977,1.62V114.27a1.833,1.833,0,0,0,3.666,0V94.418a7.3,7.3,0,0,0,2.925-5.846V76.235A7.329,7.329,0,0,0,102.356,68.914Z" transform="translate(-89.283 -52.074)"/></g><g transform="translate(658.143 7670.956)"><path class="a" d="M107.714,15.005a7.5,7.5,0,1,0-7.5-7.5A7.511,7.511,0,0,0,107.714,15.005Zm0-11.34A3.837,3.837,0,1,1,103.877,7.5,3.842,3.842,0,0,1,107.714,3.666Z" transform="translate(-97.541 0)"/><path class="a" d="M102.356,68.914H96.6a7.329,7.329,0,0,0-7.32,7.321V88.572a7.306,7.306,0,0,0,2.924,5.846V114.27a1.833,1.833,0,0,0,3.666,0V93.422a1.831,1.831,0,0,0-.978-1.621,3.658,3.658,0,0,1-1.946-3.229V76.235A3.659,3.659,0,0,1,96.6,72.58h5.752a3.659,3.659,0,0,1,3.655,3.656V88.572a3.659,3.659,0,0,1-1.948,3.23,1.832,1.832,0,0,0-.977,1.62V114.27a1.833,1.833,0,0,0,3.666,0V94.418a7.3,7.3,0,0,0,2.925-5.846V76.235A7.329,7.329,0,0,0,102.356,68.914Z" transform="translate(-89.283 -52.074)"/></g><g transform="translate(682.869 7670.956)"><path class="a" d="M107.714,15.005a7.5,7.5,0,1,0-7.5-7.5A7.511,7.511,0,0,0,107.714,15.005Zm0-11.34A3.837,3.837,0,1,1,103.877,7.5,3.842,3.842,0,0,1,107.714,3.666Z" transform="translate(-97.541 0)"/><path class="a" d="M102.356,68.914H96.6a7.329,7.329,0,0,0-7.32,7.321V88.572a7.306,7.306,0,0,0,2.924,5.846V114.27a1.833,1.833,0,0,0,3.666,0V93.422a1.831,1.831,0,0,0-.978-1.621,3.658,3.658,0,0,1-1.946-3.229V76.235A3.659,3.659,0,0,1,96.6,72.58h5.752a3.659,3.659,0,0,1,3.655,3.656V88.572a3.659,3.659,0,0,1-1.948,3.23,1.832,1.832,0,0,0-.977,1.62V114.27a1.833,1.833,0,0,0,3.666,0V94.418a7.3,7.3,0,0,0,2.925-5.846V76.235A7.329,7.329,0,0,0,102.356,68.914Z" transform="translate(-89.283 -52.074)"/></g><g transform="translate(707.595 7670.956)"><path class="a" d="M107.714,15.005a7.5,7.5,0,1,0-7.5-7.5A7.511,7.511,0,0,0,107.714,15.005Zm0-11.34A3.837,3.837,0,1,1,103.877,7.5,3.842,3.842,0,0,1,107.714,3.666Z" transform="translate(-97.541 0)"/><path class="a" d="M102.356,68.914H96.6a7.329,7.329,0,0,0-7.32,7.321V88.572a7.306,7.306,0,0,0,2.924,5.846V114.27a1.833,1.833,0,0,0,3.666,0V93.422a1.831,1.831,0,0,0-.978-1.621,3.658,3.658,0,0,1-1.946-3.229V76.235A3.659,3.659,0,0,1,96.6,72.58h5.752a3.659,3.659,0,0,1,3.655,3.656V88.572a3.659,3.659,0,0,1-1.948,3.23,1.832,1.832,0,0,0-.977,1.62V114.27a1.833,1.833,0,0,0,3.666,0V94.418a7.3,7.3,0,0,0,2.925-5.846V76.235A7.329,7.329,0,0,0,102.356,68.914Z" transform="translate(-89.283 -52.074)"/></g><g transform="translate(732.321 7670.956)"><path class="a" d="M107.714,15.005a7.5,7.5,0,1,0-7.5-7.5A7.511,7.511,0,0,0,107.714,15.005Zm0-11.34A3.837,3.837,0,1,1,103.877,7.5,3.842,3.842,0,0,1,107.714,3.666Z" transform="translate(-97.541 0)"/><path class="a" d="M102.356,68.914H96.6a7.329,7.329,0,0,0-7.32,7.321V88.572a7.306,7.306,0,0,0,2.924,5.846V114.27a1.833,1.833,0,0,0,3.666,0V93.422a1.831,1.831,0,0,0-.978-1.621,3.658,3.658,0,0,1-1.946-3.229V76.235A3.659,3.659,0,0,1,96.6,72.58h5.752a3.659,3.659,0,0,1,3.655,3.656V88.572a3.659,3.659,0,0,1-1.948,3.23,1.832,1.832,0,0,0-.977,1.62V114.27a1.833,1.833,0,0,0,3.666,0V94.418a7.3,7.3,0,0,0,2.925-5.846V76.235A7.329,7.329,0,0,0,102.356,68.914Z" transform="translate(-89.283 -52.074)"/></g><g transform="translate(757.047 7670.956)"><path class="a" d="M107.714,15.005a7.5,7.5,0,1,0-7.5-7.5A7.511,7.511,0,0,0,107.714,15.005Zm0-11.34A3.837,3.837,0,1,1,103.877,7.5,3.842,3.842,0,0,1,107.714,3.666Z" transform="translate(-97.541 0)"/><path class="a" d="M102.356,68.914H96.6a7.329,7.329,0,0,0-7.32,7.321V88.572a7.306,7.306,0,0,0,2.924,5.846V114.27a1.833,1.833,0,0,0,3.666,0V93.422a1.831,1.831,0,0,0-.978-1.621,3.658,3.658,0,0,1-1.946-3.229V76.235A3.659,3.659,0,0,1,96.6,72.58h5.752a3.659,3.659,0,0,1,3.655,3.656V88.572a3.659,3.659,0,0,1-1.948,3.23,1.832,1.832,0,0,0-.977,1.62V114.27a1.833,1.833,0,0,0,3.666,0V94.418a7.3,7.3,0,0,0,2.925-5.846V76.235A7.329,7.329,0,0,0,102.356,68.914Z" transform="translate(-89.283 -52.074)"/></g><rect class="b" width="193" height="68" transform="translate(607 7707)"/><g transform="translate(621.129 7712.415)"><path class="a" d="M107.714,15.005a7.5,7.5,0,1,0-7.5-7.5A7.511,7.511,0,0,0,107.714,15.005Zm0-11.34A3.837,3.837,0,1,1,103.877,7.5,3.842,3.842,0,0,1,107.714,3.666Z" transform="translate(-97.541 0)"/><path class="a" d="M102.356,68.914H96.6a7.329,7.329,0,0,0-7.32,7.321V88.572a7.306,7.306,0,0,0,2.924,5.846V114.27a1.833,1.833,0,0,0,3.666,0V93.422a1.831,1.831,0,0,0-.978-1.621,3.658,3.658,0,0,1-1.946-3.229V76.235A3.659,3.659,0,0,1,96.6,72.58h5.752a3.659,3.659,0,0,1,3.655,3.656V88.572a3.659,3.659,0,0,1-1.948,3.23,1.832,1.832,0,0,0-.977,1.62V114.27a1.833,1.833,0,0,0,3.666,0V94.418a7.3,7.3,0,0,0,2.925-5.846V76.235A7.329,7.329,0,0,0,102.356,68.914Z" transform="translate(-89.283 -52.074)"/></g><g transform="translate(645.855 7712.415)"><path class="a" d="M107.714,15.005a7.5,7.5,0,1,0-7.5-7.5A7.511,7.511,0,0,0,107.714,15.005Zm0-11.34A3.837,3.837,0,1,1,103.877,7.5,3.842,3.842,0,0,1,107.714,3.666Z" transform="translate(-97.541 0)"/><path class="a" d="M102.356,68.914H96.6a7.329,7.329,0,0,0-7.32,7.321V88.572a7.306,7.306,0,0,0,2.924,5.846V114.27a1.833,1.833,0,0,0,3.666,0V93.422a1.831,1.831,0,0,0-.978-1.621,3.658,3.658,0,0,1-1.946-3.229V76.235A3.659,3.659,0,0,1,96.6,72.58h5.752a3.659,3.659,0,0,1,3.655,3.656V88.572a3.659,3.659,0,0,1-1.948,3.23,1.832,1.832,0,0,0-.977,1.62V114.27a1.833,1.833,0,0,0,3.666,0V94.418a7.3,7.3,0,0,0,2.925-5.846V76.235A7.329,7.329,0,0,0,102.356,68.914Z" transform="translate(-89.283 -52.074)"/></g><g transform="translate(670.581 7712.415)"><path class="a" d="M107.714,15.005a7.5,7.5,0,1,0-7.5-7.5A7.511,7.511,0,0,0,107.714,15.005Zm0-11.34A3.837,3.837,0,1,1,103.877,7.5,3.842,3.842,0,0,1,107.714,3.666Z" transform="translate(-97.541 0)"/><path class="a" d="M102.356,68.914H96.6a7.329,7.329,0,0,0-7.32,7.321V88.572a7.306,7.306,0,0,0,2.924,5.846V114.27a1.833,1.833,0,0,0,3.666,0V93.422a1.831,1.831,0,0,0-.978-1.621,3.658,3.658,0,0,1-1.946-3.229V76.235A3.659,3.659,0,0,1,96.6,72.58h5.752a3.659,3.659,0,0,1,3.655,3.656V88.572a3.659,3.659,0,0,1-1.948,3.23,1.832,1.832,0,0,0-.977,1.62V114.27a1.833,1.833,0,0,0,3.666,0V94.418a7.3,7.3,0,0,0,2.925-5.846V76.235A7.329,7.329,0,0,0,102.356,68.914Z" transform="translate(-89.283 -52.074)"/></g><g transform="translate(695.307 7712.415)"><path class="a" d="M107.714,15.005a7.5,7.5,0,1,0-7.5-7.5A7.511,7.511,0,0,0,107.714,15.005Zm0-11.34A3.837,3.837,0,1,1,103.877,7.5,3.842,3.842,0,0,1,107.714,3.666Z" transform="translate(-97.541 0)"/><path class="a" d="M102.356,68.914H96.6a7.329,7.329,0,0,0-7.32,7.321V88.572a7.306,7.306,0,0,0,2.924,5.846V114.27a1.833,1.833,0,0,0,3.666,0V93.422a1.831,1.831,0,0,0-.978-1.621,3.658,3.658,0,0,1-1.946-3.229V76.235A3.659,3.659,0,0,1,96.6,72.58h5.752a3.659,3.659,0,0,1,3.655,3.656V88.572a3.659,3.659,0,0,1-1.948,3.23,1.832,1.832,0,0,0-.977,1.62V114.27a1.833,1.833,0,0,0,3.666,0V94.418a7.3,7.3,0,0,0,2.925-5.846V76.235A7.329,7.329,0,0,0,102.356,68.914Z" transform="translate(-89.283 -52.074)"/></g><g transform="translate(720.033 7712.415)"><path class="a" d="M107.714,15.005a7.5,7.5,0,1,0-7.5-7.5A7.511,7.511,0,0,0,107.714,15.005Zm0-11.34A3.837,3.837,0,1,1,103.877,7.5,3.842,3.842,0,0,1,107.714,3.666Z" transform="translate(-97.541 0)"/><path class="a" d="M102.356,68.914H96.6a7.329,7.329,0,0,0-7.32,7.321V88.572a7.306,7.306,0,0,0,2.924,5.846V114.27a1.833,1.833,0,0,0,3.666,0V93.422a1.831,1.831,0,0,0-.978-1.621,3.658,3.658,0,0,1-1.946-3.229V76.235A3.659,3.659,0,0,1,96.6,72.58h5.752a3.659,3.659,0,0,1,3.655,3.656V88.572a3.659,3.659,0,0,1-1.948,3.23,1.832,1.832,0,0,0-.977,1.62V114.27a1.833,1.833,0,0,0,3.666,0V94.418a7.3,7.3,0,0,0,2.925-5.846V76.235A7.329,7.329,0,0,0,102.356,68.914Z" transform="translate(-89.283 -52.074)"/></g><g transform="translate(744.759 7712.415)"><path class="a" d="M107.714,15.005a7.5,7.5,0,1,0-7.5-7.5A7.511,7.511,0,0,0,107.714,15.005Zm0-11.34A3.837,3.837,0,1,1,103.877,7.5,3.842,3.842,0,0,1,107.714,3.666Z" transform="translate(-97.541 0)"/><path class="a" d="M102.356,68.914H96.6a7.329,7.329,0,0,0-7.32,7.321V88.572a7.306,7.306,0,0,0,2.924,5.846V114.27a1.833,1.833,0,0,0,3.666,0V93.422a1.831,1.831,0,0,0-.978-1.621,3.658,3.658,0,0,1-1.946-3.229V76.235A3.659,3.659,0,0,1,96.6,72.58h5.752a3.659,3.659,0,0,1,3.655,3.656V88.572a3.659,3.659,0,0,1-1.948,3.23,1.832,1.832,0,0,0-.977,1.62V114.27a1.833,1.833,0,0,0,3.666,0V94.418a7.3,7.3,0,0,0,2.925-5.846V76.235A7.329,7.329,0,0,0,102.356,68.914Z" transform="translate(-89.283 -52.074)"/></g><g transform="translate(769.485 7712.415)"><path class="a" d="M107.714,15.005a7.5,7.5,0,1,0-7.5-7.5A7.511,7.511,0,0,0,107.714,15.005Zm0-11.34A3.837,3.837,0,1,1,103.877,7.5,3.842,3.842,0,0,1,107.714,3.666Z" transform="translate(-97.541 0)"/><path class="a" d="M102.356,68.914H96.6a7.329,7.329,0,0,0-7.32,7.321V88.572a7.306,7.306,0,0,0,2.924,5.846V114.27a1.833,1.833,0,0,0,3.666,0V93.422a1.831,1.831,0,0,0-.978-1.621,3.658,3.658,0,0,1-1.946-3.229V76.235A3.659,3.659,0,0,1,96.6,72.58h5.752a3.659,3.659,0,0,1,3.655,3.656V88.572a3.659,3.659,0,0,1-1.948,3.23,1.832,1.832,0,0,0-.977,1.62V114.27a1.833,1.833,0,0,0,3.666,0V94.418a7.3,7.3,0,0,0,2.925-5.846V76.235A7.329,7.329,0,0,0,102.356,68.914Z" transform="translate(-89.283 -52.074)"/></g><rect class="b" width="193" height="68" transform="translate(607 7748)"/><g transform="translate(623 7752.613)"><g transform="translate(0 0)"><path class="c" d="M35.3,96.981v3.27H32.174v-.986H18.345v.986H11.255A4.706,4.706,0,0,0,6.763,96.38H2.2V89.129H0v24.44H2.2V110.3H18.345v3.269H32.173V110.3H35.3v3.27h2.2V100.251h0v-3.27H35.3Zm-33.1,1.6H6.763a2.431,2.431,0,0,1,2.212,1.674H2.2ZM18.345,108.1H2.2v-5.655H18.345V108.1Zm2.2,3.269v-9.91h9.434v9.91H20.542ZM35.3,108.1H32.174v-5.655H35.3Z" transform="translate(0 -89.129)"/></g><g transform="translate(21.885 13.913)"><path class="c" d="M303.324,281.392v-2.276h-2.2v2.276h-2.276v2.2h2.276v2.276h2.2v-2.276H305.6v-2.2Z" transform="translate(-298.851 -279.116)"/></g></g><g transform="translate(666.126 7752.613)"><g transform="translate(0 0)"><path class="c" d="M35.3,96.981v3.27H32.174v-.986H18.345v.986H11.255A4.706,4.706,0,0,0,6.763,96.38H2.2V89.129H0v24.44H2.2V110.3H18.345v3.269H32.173V110.3H35.3v3.27h2.2V100.251h0v-3.27H35.3Zm-33.1,1.6H6.763a2.431,2.431,0,0,1,2.212,1.674H2.2ZM18.345,108.1H2.2v-5.655H18.345V108.1Zm2.2,3.269v-9.91h9.434v9.91H20.542ZM35.3,108.1H32.174v-5.655H35.3Z" transform="translate(0 -89.129)"/></g><g transform="translate(21.885 13.913)"><path class="c" d="M303.324,281.392v-2.276h-2.2v2.276h-2.276v2.2h2.276v2.276h2.2v-2.276H305.6v-2.2Z" transform="translate(-298.851 -279.116)"/></g></g><g transform="translate(709.253 7752.613)"><g transform="translate(0 0)"><path class="c" d="M35.3,96.981v3.27H32.174v-.986H18.345v.986H11.255A4.706,4.706,0,0,0,6.763,96.38H2.2V89.129H0v24.44H2.2V110.3H18.345v3.269H32.173V110.3H35.3v3.27h2.2V100.251h0v-3.27H35.3Zm-33.1,1.6H6.763a2.431,2.431,0,0,1,2.212,1.674H2.2ZM18.345,108.1H2.2v-5.655H18.345V108.1Zm2.2,3.269v-9.91h9.434v9.91H20.542ZM35.3,108.1H32.174v-5.655H35.3Z" transform="translate(0 -89.129)"/></g><g transform="translate(21.885 13.913)"><path class="c" d="M303.324,281.392v-2.276h-2.2v2.276h-2.276v2.2h2.276v2.276h2.2v-2.276H305.6v-2.2Z" transform="translate(-298.851 -279.116)"/></g></g><g transform="translate(752.379 7752.613)"><g transform="translate(0 0)"><path class="c" d="M35.3,96.981v3.27H32.174v-.986H18.345v.986H11.255A4.706,4.706,0,0,0,6.763,96.38H2.2V89.129H0v24.44H2.2V110.3H18.345v3.269H32.173V110.3H35.3v3.27h2.2V100.251h0v-3.27H35.3Zm-33.1,1.6H6.763a2.431,2.431,0,0,1,2.212,1.674H2.2ZM18.345,108.1H2.2v-5.655H18.345V108.1Zm2.2,3.269v-9.91h9.434v9.91H20.542ZM35.3,108.1H32.174v-5.655H35.3Z" transform="translate(0 -89.129)"/></g><g transform="translate(21.885 13.913)"><path class="c" d="M303.324,281.392v-2.276h-2.2v2.276h-2.276v2.2h2.276v2.276h2.2v-2.276H305.6v-2.2Z" transform="translate(-298.851 -279.116)"/></g></g><g transform="translate(623 7783.161)"><g transform="translate(0 0)"><path class="c" d="M35.3,96.981v3.27H32.174v-.986H18.345v.986H11.255A4.706,4.706,0,0,0,6.763,96.38H2.2V89.129H0v24.44H2.2V110.3H18.345v3.269H32.173V110.3H35.3v3.27h2.2V100.251h0v-3.27H35.3Zm-33.1,1.6H6.763a2.431,2.431,0,0,1,2.212,1.674H2.2ZM18.345,108.1H2.2v-5.655H18.345V108.1Zm2.2,3.269v-9.91h9.434v9.91H20.542ZM35.3,108.1H32.174v-5.655H35.3Z" transform="translate(0 -89.129)"/></g><g transform="translate(21.885 13.913)"><path class="c" d="M303.324,281.392v-2.276h-2.2v2.276h-2.276v2.2h2.276v2.276h2.2v-2.276H305.6v-2.2Z" transform="translate(-298.851 -279.116)"/></g></g><g transform="translate(666.126 7783.161)"><g transform="translate(0 0)"><path class="c" d="M35.3,96.981v3.27H32.174v-.986H18.345v.986H11.255A4.706,4.706,0,0,0,6.763,96.38H2.2V89.129H0v24.44H2.2V110.3H18.345v3.269H32.173V110.3H35.3v3.27h2.2V100.251h0v-3.27H35.3Zm-33.1,1.6H6.763a2.431,2.431,0,0,1,2.212,1.674H2.2ZM18.345,108.1H2.2v-5.655H18.345V108.1Zm2.2,3.269v-9.91h9.434v9.91H20.542ZM35.3,108.1H32.174v-5.655H35.3Z" transform="translate(0 -89.129)"/></g><g transform="translate(21.885 13.913)"><path class="c" d="M303.324,281.392v-2.276h-2.2v2.276h-2.276v2.2h2.276v2.276h2.2v-2.276H305.6v-2.2Z" transform="translate(-298.851 -279.116)"/></g></g><g transform="translate(709.253 7783.161)"><g transform="translate(0 0)"><path class="c" d="M35.3,96.981v3.27H32.174v-.986H18.345v.986H11.255A4.706,4.706,0,0,0,6.763,96.38H2.2V89.129H0v24.44H2.2V110.3H18.345v3.269H32.173V110.3H35.3v3.27h2.2V100.251h0v-3.27H35.3Zm-33.1,1.6H6.763a2.431,2.431,0,0,1,2.212,1.674H2.2ZM18.345,108.1H2.2v-5.655H18.345V108.1Zm2.2,3.269v-9.91h9.434v9.91H20.542ZM35.3,108.1H32.174v-5.655H35.3Z" transform="translate(0 -89.129)"/></g><g transform="translate(21.885 13.913)"><path class="c" d="M303.324,281.392v-2.276h-2.2v2.276h-2.276v2.2h2.276v2.276h2.2v-2.276H305.6v-2.2Z" transform="translate(-298.851 -279.116)"/></g></g><g transform="translate(752.379 7783.161)"><g transform="translate(0 0)"><path class="c" d="M35.3,96.981v3.27H32.174v-.986H18.345v.986H11.255A4.706,4.706,0,0,0,6.763,96.38H2.2V89.129H0v24.44H2.2V110.3H18.345v3.269H32.173V110.3H35.3v3.27h2.2V100.251h0v-3.27H35.3Zm-33.1,1.6H6.763a2.431,2.431,0,0,1,2.212,1.674H2.2ZM18.345,108.1H2.2v-5.655H18.345V108.1Zm2.2,3.269v-9.91h9.434v9.91H20.542ZM35.3,108.1H32.174v-5.655H35.3Z" transform="translate(0 -89.129)"/></g><g transform="translate(21.885 13.913)"><path class="c" d="M303.324,281.392v-2.276h-2.2v2.276h-2.276v2.2h2.276v2.276h2.2v-2.276H305.6v-2.2Z" transform="translate(-298.851 -279.116)"/></g></g></g></svg>