<svg xmlns="http://www.w3.org/2000/svg" width="312.362" height="140.503" viewBox="0 0 312.362 140.503"><defs><style>.a{fill:#f38800;}.b{fill:#6fad76;}</style></defs><g transform="translate(-623 -7565)"><g transform="translate(835.754 7565)"><g transform="translate(0 0)"><g transform="translate(0 0)"><path class="a" d="M43.7,98.85V102.9H39.832v-1.221H22.712V102.9H13.934a5.826,5.826,0,0,0-5.561-4.792H2.72V89.129H0v30.258H2.72v-4.048H22.712v4.047H39.832v-4.047H43.7v4.048h2.72V102.9h0V98.85H43.7ZM2.72,100.826H8.373a3.009,3.009,0,0,1,2.739,2.072H2.72Zm19.992,11.793H2.72v-7H22.712v7Zm2.72,4.047V104.4H37.112v12.269H25.432ZM43.7,112.619H39.832v-7H43.7Z" transform="translate(0 -89.129)"/></g></g><g transform="translate(27.095 17.225)"><g transform="translate(0 0)"><path class="a" d="M304.388,281.934v-2.818h-2.72v2.818h-2.817v2.72h2.817v2.818h2.72v-2.818h2.817v-2.72Z" transform="translate(-298.851 -279.116)"/></g></g></g><g transform="translate(888.943 7565)"><g transform="translate(0 0)"><g transform="translate(0 0)"><path class="a" d="M43.7,98.85V102.9H39.832v-1.221H22.712V102.9H13.934a5.826,5.826,0,0,0-5.561-4.792H2.72V89.129H0v30.258H2.72v-4.048H22.712v4.047H39.832v-4.047H43.7v4.048h2.72V102.9h0V98.85H43.7ZM2.72,100.826H8.373a3.009,3.009,0,0,1,2.739,2.072H2.72Zm19.992,11.793H2.72v-7H22.712v7Zm2.72,4.047V104.4H37.112v12.269H25.432ZM43.7,112.619H39.832v-7H43.7Z" transform="translate(0 -89.129)"/></g></g><g transform="translate(27.095 17.225)"><g transform="translate(0 0)"><path class="a" d="M304.388,281.934v-2.818h-2.72v2.818h-2.817v2.72h2.817v2.818h2.72v-2.818h2.817v-2.72Z" transform="translate(-298.851 -279.116)"/></g></g></g><g transform="translate(835.754 7601.749)"><g transform="translate(0 0)"><g transform="translate(0 0)"><path class="a" d="M43.7,98.85V102.9H39.832v-1.221H22.712V102.9H13.934a5.826,5.826,0,0,0-5.561-4.792H2.72V89.129H0v30.258H2.72v-4.048H22.712v4.047H39.832v-4.047H43.7v4.048h2.72V102.9h0V98.85H43.7ZM2.72,100.826H8.373a3.009,3.009,0,0,1,2.739,2.072H2.72Zm19.992,11.793H2.72v-7H22.712v7Zm2.72,4.047V104.4H37.112v12.269H25.432ZM43.7,112.619H39.832v-7H43.7Z" transform="translate(0 -89.129)"/></g></g><g transform="translate(27.095 17.225)"><g transform="translate(0 0)"><path class="a" d="M304.388,281.934v-2.818h-2.72v2.818h-2.817v2.72h2.817v2.818h2.72v-2.818h2.817v-2.72Z" transform="translate(-298.851 -279.116)"/></g></g></g><g transform="translate(888.943 7601.749)"><g transform="translate(0 0)"><g transform="translate(0 0)"><path class="a" d="M43.7,98.85V102.9H39.832v-1.221H22.712V102.9H13.934a5.826,5.826,0,0,0-5.561-4.792H2.72V89.129H0v30.258H2.72v-4.048H22.712v4.047H39.832v-4.047H43.7v4.048h2.72V102.9h0V98.85H43.7ZM2.72,100.826H8.373a3.009,3.009,0,0,1,2.739,2.072H2.72Zm19.992,11.793H2.72v-7H22.712v7Zm2.72,4.047V104.4H37.112v12.269H25.432ZM43.7,112.619H39.832v-7H43.7Z" transform="translate(0 -89.129)"/></g></g><g transform="translate(27.095 17.225)"><g transform="translate(0 0)"><path class="a" d="M304.388,281.934v-2.818h-2.72v2.818h-2.817v2.72h2.817v2.818h2.72v-2.818h2.817v-2.72Z" transform="translate(-298.851 -279.116)"/></g></g></g><g transform="translate(623 7638.497)"><g transform="translate(0 0)"><g transform="translate(0 0)"><path class="b" d="M43.7,98.85V102.9H39.832v-1.221H22.712V102.9H13.934a5.826,5.826,0,0,0-5.561-4.792H2.72V89.129H0v30.258H2.72v-4.048H22.712v4.047H39.832v-4.047H43.7v4.048h2.72V102.9h0V98.85H43.7ZM2.72,100.826H8.373a3.009,3.009,0,0,1,2.739,2.072H2.72Zm19.992,11.793H2.72v-7H22.712v7Zm2.72,4.047V104.4H37.112v12.269H25.432ZM43.7,112.619H39.832v-7H43.7Z" transform="translate(0 -89.129)"/></g></g><g transform="translate(27.095 17.225)"><g transform="translate(0 0)"><path class="b" d="M304.388,281.934v-2.818h-2.72v2.818h-2.817v2.72h2.817v2.818h2.72v-2.818h2.817v-2.72Z" transform="translate(-298.851 -279.116)"/></g></g></g><g transform="translate(676.189 7638.497)"><g transform="translate(0 0)"><g transform="translate(0 0)"><path class="b" d="M43.7,98.85V102.9H39.832v-1.221H22.712V102.9H13.934a5.826,5.826,0,0,0-5.561-4.792H2.72V89.129H0v30.258H2.72v-4.048H22.712v4.047H39.832v-4.047H43.7v4.048h2.72V102.9h0V98.85H43.7ZM2.72,100.826H8.373a3.009,3.009,0,0,1,2.739,2.072H2.72Zm19.992,11.793H2.72v-7H22.712v7Zm2.72,4.047V104.4H37.112v12.269H25.432ZM43.7,112.619H39.832v-7H43.7Z" transform="translate(0 -89.129)"/></g></g><g transform="translate(27.095 17.225)"><g transform="translate(0 0)"><path class="b" d="M304.388,281.934v-2.818h-2.72v2.818h-2.817v2.72h2.817v2.818h2.72v-2.818h2.817v-2.72Z" transform="translate(-298.851 -279.116)"/></g></g></g><g transform="translate(835.754 7638.497)"><g transform="translate(0 0)"><g transform="translate(0 0)"><path class="b" d="M43.7,98.85V102.9H39.832v-1.221H22.712V102.9H13.934a5.826,5.826,0,0,0-5.561-4.792H2.72V89.129H0v30.258H2.72v-4.048H22.712v4.047H39.832v-4.047H43.7v4.048h2.72V102.9h0V98.85H43.7ZM2.72,100.826H8.373a3.009,3.009,0,0,1,2.739,2.072H2.72Zm19.992,11.793H2.72v-7H22.712v7Zm2.72,4.047V104.4H37.112v12.269H25.432ZM43.7,112.619H39.832v-7H43.7Z" transform="translate(0 -89.129)"/></g></g><g transform="translate(27.095 17.225)"><g transform="translate(0 0)"><path class="b" d="M304.388,281.934v-2.818h-2.72v2.818h-2.817v2.72h2.817v2.818h2.72v-2.818h2.817v-2.72Z" transform="translate(-298.851 -279.116)"/></g></g></g><g transform="translate(888.943 7638.497)"><g transform="translate(0 0)"><g transform="translate(0 0)"><path class="b" d="M43.7,98.85V102.9H39.832v-1.221H22.712V102.9H13.934a5.826,5.826,0,0,0-5.561-4.792H2.72V89.129H0v30.258H2.72v-4.048H22.712v4.047H39.832v-4.047H43.7v4.048h2.72V102.9h0V98.85H43.7ZM2.72,100.826H8.373a3.009,3.009,0,0,1,2.739,2.072H2.72Zm19.992,11.793H2.72v-7H22.712v7Zm2.72,4.047V104.4H37.112v12.269H25.432ZM43.7,112.619H39.832v-7H43.7Z" transform="translate(0 -89.129)"/></g></g><g transform="translate(27.095 17.225)"><g transform="translate(0 0)"><path class="b" d="M304.388,281.934v-2.818h-2.72v2.818h-2.817v2.72h2.817v2.818h2.72v-2.818h2.817v-2.72Z" transform="translate(-298.851 -279.116)"/></g></g></g><g transform="translate(623 7675.246)"><g transform="translate(0 0)"><g transform="translate(0 0)"><path class="b" d="M43.7,98.85V102.9H39.832v-1.221H22.712V102.9H13.934a5.826,5.826,0,0,0-5.561-4.792H2.72V89.129H0v30.258H2.72v-4.048H22.712v4.047H39.832v-4.047H43.7v4.048h2.72V102.9h0V98.85H43.7ZM2.72,100.826H8.373a3.009,3.009,0,0,1,2.739,2.072H2.72Zm19.992,11.793H2.72v-7H22.712v7Zm2.72,4.047V104.4H37.112v12.269H25.432ZM43.7,112.619H39.832v-7H43.7Z" transform="translate(0 -89.129)"/></g></g><g transform="translate(27.095 17.225)"><g transform="translate(0 0)"><path class="b" d="M304.388,281.934v-2.818h-2.72v2.818h-2.817v2.72h2.817v2.818h2.72v-2.818h2.817v-2.72Z" transform="translate(-298.851 -279.116)"/></g></g></g><g transform="translate(676.189 7675.246)"><g transform="translate(0 0)"><g transform="translate(0 0)"><path class="b" d="M43.7,98.85V102.9H39.832v-1.221H22.712V102.9H13.934a5.826,5.826,0,0,0-5.561-4.792H2.72V89.129H0v30.258H2.72v-4.048H22.712v4.047H39.832v-4.047H43.7v4.048h2.72V102.9h0V98.85H43.7ZM2.72,100.826H8.373a3.009,3.009,0,0,1,2.739,2.072H2.72Zm19.992,11.793H2.72v-7H22.712v7Zm2.72,4.047V104.4H37.112v12.269H25.432ZM43.7,112.619H39.832v-7H43.7Z" transform="translate(0 -89.129)"/></g></g><g transform="translate(27.095 17.225)"><g transform="translate(0 0)"><path class="b" d="M304.388,281.934v-2.818h-2.72v2.818h-2.817v2.72h2.817v2.818h2.72v-2.818h2.817v-2.72Z" transform="translate(-298.851 -279.116)"/></g></g></g><g transform="translate(729.377 7675.246)"><g transform="translate(0 0)"><g transform="translate(0 0)"><path class="b" d="M43.7,98.85V102.9H39.832v-1.221H22.712V102.9H13.934a5.826,5.826,0,0,0-5.561-4.792H2.72V89.129H0v30.258H2.72v-4.048H22.712v4.047H39.832v-4.047H43.7v4.048h2.72V102.9h0V98.85H43.7ZM2.72,100.826H8.373a3.009,3.009,0,0,1,2.739,2.072H2.72Zm19.992,11.793H2.72v-7H22.712v7Zm2.72,4.047V104.4H37.112v12.269H25.432ZM43.7,112.619H39.832v-7H43.7Z" transform="translate(0 -89.129)"/></g></g><g transform="translate(27.095 17.225)"><g transform="translate(0 0)"><path class="b" d="M304.388,281.934v-2.818h-2.72v2.818h-2.817v2.72h2.817v2.818h2.72v-2.818h2.817v-2.72Z" transform="translate(-298.851 -279.116)"/></g></g></g><g transform="translate(782.566 7675.246)"><g transform="translate(0 0)"><g transform="translate(0 0)"><path class="b" d="M43.7,98.85V102.9H39.832v-1.221H22.712V102.9H13.934a5.826,5.826,0,0,0-5.561-4.792H2.72V89.129H0v30.258H2.72v-4.048H22.712v4.047H39.832v-4.047H43.7v4.048h2.72V102.9h0V98.85H43.7ZM2.72,100.826H8.373a3.009,3.009,0,0,1,2.739,2.072H2.72Zm19.992,11.793H2.72v-7H22.712v7Zm2.72,4.047V104.4H37.112v12.269H25.432ZM43.7,112.619H39.832v-7H43.7Z" transform="translate(0 -89.129)"/></g></g><g transform="translate(27.095 17.225)"><g transform="translate(0 0)"><path class="b" d="M304.388,281.934v-2.818h-2.72v2.818h-2.817v2.72h2.817v2.818h2.72v-2.818h2.817v-2.72Z" transform="translate(-298.851 -279.116)"/></g></g></g><g transform="translate(835.754 7675.246)"><g transform="translate(0 0)"><g transform="translate(0 0)"><path class="b" d="M43.7,98.85V102.9H39.832v-1.221H22.712V102.9H13.934a5.826,5.826,0,0,0-5.561-4.792H2.72V89.129H0v30.258H2.72v-4.048H22.712v4.047H39.832v-4.047H43.7v4.048h2.72V102.9h0V98.85H43.7ZM2.72,100.826H8.373a3.009,3.009,0,0,1,2.739,2.072H2.72Zm19.992,11.793H2.72v-7H22.712v7Zm2.72,4.047V104.4H37.112v12.269H25.432ZM43.7,112.619H39.832v-7H43.7Z" transform="translate(0 -89.129)"/></g></g><g transform="translate(27.095 17.225)"><g transform="translate(0 0)"><path class="b" d="M304.388,281.934v-2.818h-2.72v2.818h-2.817v2.72h2.817v2.818h2.72v-2.818h2.817v-2.72Z" transform="translate(-298.851 -279.116)"/></g></g></g><g transform="translate(888.943 7675.246)"><g transform="translate(0 0)"><g transform="translate(0 0)"><path class="b" d="M43.7,98.85V102.9H39.832v-1.221H22.712V102.9H13.934a5.826,5.826,0,0,0-5.561-4.792H2.72V89.129H0v30.258H2.72v-4.048H22.712v4.047H39.832v-4.047H43.7v4.048h2.72V102.9h0V98.85H43.7ZM2.72,100.826H8.373a3.009,3.009,0,0,1,2.739,2.072H2.72Zm19.992,11.793H2.72v-7H22.712v7Zm2.72,4.047V104.4H37.112v12.269H25.432ZM43.7,112.619H39.832v-7H43.7Z" transform="translate(0 -89.129)"/></g></g><g transform="translate(27.095 17.225)"><g transform="translate(0 0)"><path class="b" d="M304.388,281.934v-2.818h-2.72v2.818h-2.817v2.72h2.817v2.818h2.72v-2.818h2.817v-2.72Z" transform="translate(-298.851 -279.116)"/></g></g></g><g transform="translate(729.377 7565)"><g transform="translate(0 0)"><g transform="translate(0 0)"><path class="a" d="M43.7,98.85V102.9H39.832v-1.221H22.712V102.9H13.934a5.826,5.826,0,0,0-5.561-4.792H2.72V89.129H0v30.258H2.72v-4.048H22.712v4.047H39.832v-4.047H43.7v4.048h2.72V102.9h0V98.85H43.7ZM2.72,100.826H8.373a3.009,3.009,0,0,1,2.739,2.072H2.72Zm19.992,11.793H2.72v-7H22.712v7Zm2.72,4.047V104.4H37.112v12.269H25.432ZM43.7,112.619H39.832v-7H43.7Z" transform="translate(0 -89.129)"/></g></g><g transform="translate(27.095 17.225)"><g transform="translate(0 0)"><path class="a" d="M304.388,281.934v-2.818h-2.72v2.818h-2.817v2.72h2.817v2.818h2.72v-2.818h2.817v-2.72Z" transform="translate(-298.851 -279.116)"/></g></g></g><g transform="translate(782.566 7565)"><g transform="translate(0 0)"><g transform="translate(0 0)"><path class="a" d="M43.7,98.85V102.9H39.832v-1.221H22.712V102.9H13.934a5.826,5.826,0,0,0-5.561-4.792H2.72V89.129H0v30.258H2.72v-4.048H22.712v4.047H39.832v-4.047H43.7v4.048h2.72V102.9h0V98.85H43.7ZM2.72,100.826H8.373a3.009,3.009,0,0,1,2.739,2.072H2.72Zm19.992,11.793H2.72v-7H22.712v7Zm2.72,4.047V104.4H37.112v12.269H25.432ZM43.7,112.619H39.832v-7H43.7Z" transform="translate(0 -89.129)"/></g></g><g transform="translate(27.095 17.225)"><g transform="translate(0 0)"><path class="a" d="M304.388,281.934v-2.818h-2.72v2.818h-2.817v2.72h2.817v2.818h2.72v-2.818h2.817v-2.72Z" transform="translate(-298.851 -279.116)"/></g></g></g><path class="a" d="M-7.616-20.4a2.853,2.853,0,0,1-.828,2.127,3.841,3.841,0,0,1-2.757.816h-9.841L-22.329-9.99a22.29,22.29,0,0,1,4.426-.495,13.5,13.5,0,0,1,4.958.841,10.2,10.2,0,0,1,3.6,2.324,9.751,9.751,0,0,1,2.2,3.474A12.188,12.188,0,0,1-6.4.445a13.109,13.109,0,0,1-1,5.193,11.749,11.749,0,0,1-2.782,4.018A12.526,12.526,0,0,1-14.4,12.239a14.966,14.966,0,0,1-5.3.915,14.225,14.225,0,0,1-3.19-.346,15.826,15.826,0,0,1-2.831-.927,15.787,15.787,0,0,1-2.448-1.335,15.475,15.475,0,0,1-2.015-1.595l1.879-2.6a1.846,1.846,0,0,1,1.583-.841,2.339,2.339,0,0,1,1.249.4q.631.4,1.471.865a12.811,12.811,0,0,0,1.953.865,8.085,8.085,0,0,0,2.7.4,7.562,7.562,0,0,0,2.967-.544,5.78,5.78,0,0,0,2.139-1.521A6.51,6.51,0,0,0-12.97,3.647a9.537,9.537,0,0,0,.433-2.93,6.063,6.063,0,0,0-1.694-4.562A6.879,6.879,0,0,0-19.213-5.49a15.378,15.378,0,0,0-5.217.94l-3.808-1.088L-25.271-23H-7.616ZM24.059-5.119a29.3,29.3,0,0,1-1,8.123,16.64,16.64,0,0,1-2.769,5.7,11.2,11.2,0,0,1-4.179,3.35,12.386,12.386,0,0,1-5.205,1.1,12.219,12.219,0,0,1-5.18-1.1A11.152,11.152,0,0,1,1.582,8.7,16.618,16.618,0,0,1-1.163,3a29.643,29.643,0,0,1-.989-8.123,29.612,29.612,0,0,1,.989-8.135,16.626,16.626,0,0,1,2.745-5.687,11.152,11.152,0,0,1,4.142-3.35,12.219,12.219,0,0,1,5.18-1.1,12.386,12.386,0,0,1,5.205,1.1,11.2,11.2,0,0,1,4.179,3.35,16.648,16.648,0,0,1,2.769,5.687A29.267,29.267,0,0,1,24.059-5.119Zm-6.305,0a30.23,30.23,0,0,0-.569-6.429A12.934,12.934,0,0,0,15.664-15.6a5.548,5.548,0,0,0-2.188-2.114,5.776,5.776,0,0,0-2.572-.606,5.648,5.648,0,0,0-2.535.606A5.5,5.5,0,0,0,6.206-15.6a12.96,12.96,0,0,0-1.5,4.055,30.882,30.882,0,0,0-.556,6.429A30.882,30.882,0,0,0,4.71,1.31a12.96,12.96,0,0,0,1.5,4.055A5.5,5.5,0,0,0,8.37,7.479a5.648,5.648,0,0,0,2.535.606,5.776,5.776,0,0,0,2.572-.606,5.548,5.548,0,0,0,2.188-2.114A12.933,12.933,0,0,0,17.185,1.31,30.23,30.23,0,0,0,17.753-5.119Zm25.568-9.223a9.432,9.432,0,0,1-.68,3.66A8.613,8.613,0,0,1,40.824-7.9a7.893,7.893,0,0,1-2.646,1.768,8.2,8.2,0,0,1-3.14.618,8.589,8.589,0,0,1-3.289-.618A7.506,7.506,0,0,1,29.14-7.9a8.134,8.134,0,0,1-1.719-2.782,10.266,10.266,0,0,1-.618-3.66,10.829,10.829,0,0,1,.618-3.758,8.181,8.181,0,0,1,1.719-2.844,7.569,7.569,0,0,1,2.609-1.793,8.442,8.442,0,0,1,3.289-.631,8.533,8.533,0,0,1,3.3.631,7.668,7.668,0,0,1,2.633,1.793A8.083,8.083,0,0,1,42.7-18.1,10.829,10.829,0,0,1,43.321-14.342Zm-4.723,0a8.982,8.982,0,0,0-.272-2.4,4.293,4.293,0,0,0-.754-1.558,2.77,2.77,0,0,0-1.137-.853,3.758,3.758,0,0,0-1.4-.26,3.663,3.663,0,0,0-1.385.26,2.7,2.7,0,0,0-1.113.853,4.278,4.278,0,0,0-.729,1.558,9.389,9.389,0,0,0-.26,2.4,8.723,8.723,0,0,0,.26,2.312,4.027,4.027,0,0,0,.729,1.5,2.677,2.677,0,0,0,1.113.816,3.824,3.824,0,0,0,1.385.247,3.924,3.924,0,0,0,1.4-.247,2.751,2.751,0,0,0,1.137-.816,4.046,4.046,0,0,0,.754-1.5A8.346,8.346,0,0,0,38.6-14.342Zm16.616-7.69a3.242,3.242,0,0,1,.742-.668,2.212,2.212,0,0,1,1.236-.3h4.426L35.062,11.844a2.424,2.424,0,0,1-.754.655,2.2,2.2,0,0,1-1.1.26h-4.55ZM63.5,4.352a9.432,9.432,0,0,1-.68,3.66A8.613,8.613,0,0,1,61,10.793,8.161,8.161,0,0,1,55.215,13.2a8.442,8.442,0,0,1-3.289-.631,7.651,7.651,0,0,1-2.609-1.78A8.134,8.134,0,0,1,47.6,8.011a10.266,10.266,0,0,1-.618-3.66A10.829,10.829,0,0,1,47.6.593a8.181,8.181,0,0,1,1.719-2.844,7.569,7.569,0,0,1,2.609-1.793,8.442,8.442,0,0,1,3.289-.631,8.533,8.533,0,0,1,3.3.631,7.668,7.668,0,0,1,2.633,1.793A8.083,8.083,0,0,1,62.88.593,10.829,10.829,0,0,1,63.5,4.352Zm-4.7,0a8.611,8.611,0,0,0-.284-2.4A4.438,4.438,0,0,0,57.749.4a2.77,2.77,0,0,0-1.137-.853,3.758,3.758,0,0,0-1.4-.26,3.663,3.663,0,0,0-1.385.26,2.614,2.614,0,0,0-1.1.853A4.564,4.564,0,0,0,52,1.953a8.981,8.981,0,0,0-.272,2.4A8.482,8.482,0,0,0,52,6.676a4.291,4.291,0,0,0,.729,1.508A2.591,2.591,0,0,0,53.83,9a3.824,3.824,0,0,0,1.385.247A3.924,3.924,0,0,0,56.612,9a2.75,2.75,0,0,0,1.137-.816,4.179,4.179,0,0,0,.767-1.508A8.133,8.133,0,0,0,58.8,4.352Z" transform="translate(764 7644.084)"/><g transform="translate(623.377 7565)"><g transform="translate(0 0)"><g transform="translate(0 0)"><path class="a" d="M43.7,98.85V102.9H39.832v-1.221H22.712V102.9H13.934a5.826,5.826,0,0,0-5.561-4.792H2.72V89.129H0v30.258H2.72v-4.048H22.712v4.047H39.832v-4.047H43.7v4.048h2.72V102.9h0V98.85H43.7ZM2.72,100.826H8.373a3.009,3.009,0,0,1,2.739,2.072H2.72Zm19.992,11.793H2.72v-7H22.712v7Zm2.72,4.047V104.4H37.112v12.269H25.432ZM43.7,112.619H39.832v-7H43.7Z" transform="translate(0 -89.129)"/></g></g><g transform="translate(27.095 17.225)"><g transform="translate(0 0)"><path class="a" d="M304.388,281.934v-2.818h-2.72v2.818h-2.817v2.72h2.817v2.818h2.72v-2.818h2.817v-2.72Z" transform="translate(-298.851 -279.116)"/></g></g></g><g transform="translate(676.566 7565)"><g transform="translate(0 0)"><g transform="translate(0 0)"><path class="a" d="M43.7,98.85V102.9H39.832v-1.221H22.712V102.9H13.934a5.826,5.826,0,0,0-5.561-4.792H2.72V89.129H0v30.258H2.72v-4.048H22.712v4.047H39.832v-4.047H43.7v4.048h2.72V102.9h0V98.85H43.7ZM2.72,100.826H8.373a3.009,3.009,0,0,1,2.739,2.072H2.72Zm19.992,11.793H2.72v-7H22.712v7Zm2.72,4.047V104.4H37.112v12.269H25.432ZM43.7,112.619H39.832v-7H43.7Z" transform="translate(0 -89.129)"/></g></g><g transform="translate(27.095 17.225)"><g transform="translate(0 0)"><path class="a" d="M304.388,281.934v-2.818h-2.72v2.818h-2.817v2.72h2.817v2.818h2.72v-2.818h2.817v-2.72Z" transform="translate(-298.851 -279.116)"/></g></g></g><g transform="translate(623.377 7601.749)"><g transform="translate(0 0)"><g transform="translate(0 0)"><path class="a" d="M43.7,98.85V102.9H39.832v-1.221H22.712V102.9H13.934a5.826,5.826,0,0,0-5.561-4.792H2.72V89.129H0v30.258H2.72v-4.048H22.712v4.047H39.832v-4.047H43.7v4.048h2.72V102.9h0V98.85H43.7ZM2.72,100.826H8.373a3.009,3.009,0,0,1,2.739,2.072H2.72Zm19.992,11.793H2.72v-7H22.712v7Zm2.72,4.047V104.4H37.112v12.269H25.432ZM43.7,112.619H39.832v-7H43.7Z" transform="translate(0 -89.129)"/></g></g><g transform="translate(27.095 17.225)"><g transform="translate(0 0)"><path class="a" d="M304.388,281.934v-2.818h-2.72v2.818h-2.817v2.72h2.817v2.818h2.72v-2.818h2.817v-2.72Z" transform="translate(-298.851 -279.116)"/></g></g></g><g transform="translate(676.566 7601.749)"><g transform="translate(0 0)"><g transform="translate(0 0)"><path class="a" d="M43.7,98.85V102.9H39.832v-1.221H22.712V102.9H13.934a5.826,5.826,0,0,0-5.561-4.792H2.72V89.129H0v30.258H2.72v-4.048H22.712v4.047H39.832v-4.047H43.7v4.048h2.72V102.9h0V98.85H43.7ZM2.72,100.826H8.373a3.009,3.009,0,0,1,2.739,2.072H2.72Zm19.992,11.793H2.72v-7H22.712v7Zm2.72,4.047V104.4H37.112v12.269H25.432ZM43.7,112.619H39.832v-7H43.7Z" transform="translate(0 -89.129)"/></g></g><g transform="translate(27.095 17.225)"><g transform="translate(0 0)"><path class="a" d="M304.388,281.934v-2.818h-2.72v2.818h-2.817v2.72h2.817v2.818h2.72v-2.818h2.817v-2.72Z" transform="translate(-298.851 -279.116)"/></g></g></g></g></svg>