<svg xmlns="http://www.w3.org/2000/svg" width="298.513" height="100.582" viewBox="0 0 298.513 100.582"><defs><style>.a,.b{fill:none;stroke-width:5px;}.a{stroke:#f38800;}.b{stroke:#6fad76;}</style></defs><g transform="translate(6.027 -0.843)"><path class="a" d="M57.3,46.963C39.853,29.365,19.832,19.367,0,7.4,19.074,46.016,30.827,60.5,54.837,77.487c6.577,8.7,15.6,12.788,26.194,14.126,23.619,2.992,46.847,9.607,68.257,5.794C124.154,85.68,93.529,83.774,64.179,76.616,63.914,66.466,68.875,58.64,57.3,46.963Z" transform="translate(0 0)"/><path class="a" d="M57.5,19.695c-1.805-12.523-10.781-3.9-16.31-5.529-7.208-1.212-14.454-2.373-24.578-4.014C26.664,23.04,31.7,36.03,48.1,38.327c7.019.972,19.958,3.484,18.317,10.831-4.191,18.872,10.7,11.147,17.093,15.616C85.188,21.512,90.452,24.82,57.5,19.695Z" transform="translate(205.14 31.977)"/><path class="a" d="M14.2,22.284C9.237,43.833,9.262,43.87,25.761,47.923c.871.227,1.212,2.247,2.058,3.206C30.2,53.666,33.777,55,36.5,53.262c4.153-2.714,1.49-6.918.151-10.2-1.591-4-7.726-7.044-3.547-12.131,1.7-2.07,9.127,1.262,7.2-5.1-1.641-5.428-7.574-3.939-11.778-3.143-3.383.656-6.766,3.951-8.054-2.31C28.917,14.217,42.614,25,50.226,9.395c-12.712,5.643-25.033-2.26-35.776,5.554C14.4,17.411,14.728,19.936,14.2,22.284Z" transform="translate(134.505 23.189)"/><path class="b" d="M71.6,31.267c-.379-.088-.656-.025-1-.088-2.247-2.449-4.545-4.734-6-7.688a7.745,7.745,0,0,1-.417-.669,14.984,14.984,0,0,1-.947-3.61c-.53-4.658.732-10.541-7.208-11.2-6.893-.568-8.837,4.014-10.692,8.71-5.807,14.593-19.3,12.333-29.072,9.922C4.262,23.668,5.777,28.641,7.708,35.66A47.863,47.863,0,0,0,13.742,49.5c7.536,11.374,21.145,7.953,31.8,11.374,10.162,3.257,6.855-9.733,10.932-14.1,3.56-3.762,3.093-11.791,7.625-14.707,1.5-.972,3.56-1.351,6.539-.833.189.189.366.379.568.606.151-.114.265-.139.417-.265A1.229,1.229,0,0,1,71.6,31.267Z" transform="translate(68.333 1.581)"/><path class="b" d="M18.713,35.021C23.068,27.118,30.63,19.771,22.9,8.9,12.691,16.716,14.206,25.616,18.713,35.021Z" transform="translate(181.17 9.459)"/></g></svg>