<svg xmlns="http://www.w3.org/2000/svg" width="204.016" height="126.891" viewBox="0 0 204.016 126.891"><defs><style>.a{fill:#f38500;stroke:#f38500;}.b{fill:#6fad76;stroke:#6fad76;}</style></defs><g transform="translate(-1344.492 -6111.757)"><g transform="translate(1345 6154.292)"><g transform="translate(0)"><path class="a" d="M103.271,79.561l-3.71-21.718a6.182,6.182,0,0,0-4.332-4.905L85.223,49.919a11.16,11.16,0,0,0-7.744-9.691c.317-.351.61-.7.88-1.044a19.421,19.421,0,0,0,3.978-8.635h.772a3.645,3.645,0,0,0,3.641-3.641V25.041a3.666,3.666,0,0,0-1.887-3.184V17.369a1.228,1.228,0,1,0-2.456,0v5.039a7.569,7.569,0,0,0-1.633.472,1.233,1.233,0,0,0-.173.077c-.132.06-.264.123-.4.195v-9.9A4.964,4.964,0,0,0,75.248,8.3H71.858a5.094,5.094,0,0,0-3.216,1.147l-.333.272a3.43,3.43,0,0,1-4.343,0l-.332-.272A5.1,5.1,0,0,0,60.418,8.3h-3.39a4.964,4.964,0,0,0-4.958,4.958v9.9c-.132-.071-.264-.135-.4-.195a1.231,1.231,0,0,0-.173-.077,7.571,7.571,0,0,0-1.633-.472V9.667a7.219,7.219,0,0,1,7.211-7.211H75.195a7.219,7.219,0,0,1,7.211,7.211V11.6a1.228,1.228,0,1,0,2.456,0V9.667A9.678,9.678,0,0,0,75.195,0H57.081a9.678,9.678,0,0,0-9.667,9.667v12.19a3.666,3.666,0,0,0-1.887,3.184v1.866a3.645,3.645,0,0,0,3.641,3.641h.772a19.419,19.419,0,0,0,3.978,8.635c.269.342.563.692.879,1.043a11.2,11.2,0,0,0-7.743,9.692L37.047,52.938a6.181,6.181,0,0,0-4.332,4.905l-1.506,8.819a1.228,1.228,0,0,0,2.421.413l1.506-8.819a3.739,3.739,0,0,1,2.621-2.967L47.011,52.5v2.429a6.144,6.144,0,0,0-4.67,3.867,6.228,6.228,0,0,0-.365,1.668l-.894,11.48A3.121,3.121,0,0,0,44.194,75.3h1.531a1.228,1.228,0,1,0,0-2.456H44.194a.665.665,0,0,1-.663-.717l.894-11.48a3.77,3.77,0,0,1,.221-1.01,3.713,3.713,0,0,1,3.476-2.366h.23a3.679,3.679,0,0,1,3.429,2.2,3.766,3.766,0,0,1,.287,1.179l.895,11.48a.665.665,0,0,1-.663.717H50.769a1.228,1.228,0,1,0,0,2.456H52.3a3.121,3.121,0,0,0,3.112-3.364l-.895-11.48a6.22,6.22,0,0,0-.475-1.946,6.079,6.079,0,0,0-4.576-3.6V51.756l4.221-1.274c.384.809,1.145,2.557,2.653,6.325,1.519,3.8,3.408,8.675,5.219,13.413a1.243,1.243,0,0,0,.045.117c1.209,3.163,2.381,6.26,3.384,8.933a1.228,1.228,0,0,0,2.3,0c1-2.672,2.175-5.77,3.384-8.933a1.216,1.216,0,0,0,.045-.117c1.81-4.735,3.7-9.6,5.216-13.406,1.51-3.773,2.271-5.522,2.656-6.332l4.221,1.274v7.253a6.353,6.353,0,1,0,2.456.005V52.5l9.255,2.792a3.739,3.739,0,0,1,2.621,2.967l3.71,21.718a1.219,1.219,0,0,1-1.2,1.425H32.627a1.219,1.219,0,0,1-1.2-1.425l1.224-7.167a1.228,1.228,0,0,0-2.421-.413L29,79.561a3.675,3.675,0,0,0,3.623,4.294H99.648a3.675,3.675,0,0,0,3.623-4.294ZM82.421,24.909a5.27,5.27,0,0,1,1.185-.16,1.255,1.255,0,0,0,.6-.142,1.163,1.163,0,0,1,.087.435v1.866a1.186,1.186,0,0,1-1.185,1.185h-.687ZM49.855,28.093h-.687a1.186,1.186,0,0,1-1.185-1.185V25.041a1.165,1.165,0,0,1,.087-.435,1.252,1.252,0,0,0,.6.142,5.475,5.475,0,0,1,1.185.161Zm2.456,1.377V26.244a1.723,1.723,0,0,0,2.216-1.652V13.256a2.505,2.505,0,0,1,2.5-2.5h3.389a2.632,2.632,0,0,1,1.662.593l.332.272a5.887,5.887,0,0,0,7.452,0l.332-.272a2.632,2.632,0,0,1,1.662-.593h3.389a2.505,2.505,0,0,1,2.5,2.5V24.592a1.723,1.723,0,0,0,2.216,1.653V29.47c0,1.793-1.239,5.275-3.537,8.2a16.19,16.19,0,0,1-2.943,2.916,1.231,1.231,0,0,0-.11.083,11.97,11.97,0,0,1-14.476,0,1.244,1.244,0,0,0-.109-.082,16.2,16.2,0,0,1-2.943-2.916C53.55,34.744,52.311,31.263,52.311,29.47ZM74.183,49.309l-8.045,6.013-8.045-6.013a5.824,5.824,0,0,0,1.245-3.477V43.853a14.421,14.421,0,0,0,13.6,0v1.979A5.823,5.823,0,0,0,74.183,49.309ZM56.044,47.938a3.358,3.358,0,0,0-2.07-.1c-.03.007-.06.015-.088.024l-4.242,1.28a8.724,8.724,0,0,1,7.239-6.88v3.574A3.247,3.247,0,0,1,56.044,47.938ZM59.376,57.8l-.007-.017-.185-.466-.033-.083-.177-.446-.012-.031q-.273-.686-.526-1.317l-.037-.092-.143-.357L58.2,54.86l-.136-.337-.04-.1-.239-.587-.063-.155-.09-.22-.1-.233-.036-.087-.028-.067q-.213-.517-.4-.975l0-.007-.2-.473-.1-.231,6.919,5.171L60.8,57.788l-.015.007-1.207.513Zm2.93,7.519q-.364-.944-.732-1.895-.574-1.484-1.1-2.825l.458-.195,1.872,2.176Zm3.855,9.98a1.223,1.223,0,0,0-.126-.206c-.555-1.467-1.259-3.322-2.039-5.364l1.146-6.277h1.988l1.146,6.277C67.461,71.864,66.728,73.8,66.162,75.3Zm1.431-14.3H64.683l-1.377-1.6,2.831-1.2,2.831,1.2ZM70.7,63.42q-.367.949-.732,1.895l-.5-2.739L71.341,60.4l.458.195Q71.275,61.938,70.7,63.42Zm4.7-11.8-.188.448-.025.06-.2.47-.013.033-.178.431-.033.081-.041.1-.082.2-.1.249-.033.082-.263.647-.042.1-.135.334-.053.132-.142.353-.04.1q-.25.622-.519,1.3l-.018.045-.176.443-.033.084-.186.469,0,.009-.2.518-1.208-.513-.013-.005L68.584,56.56,75.5,51.389Zm2.986-3.762h0a3.356,3.356,0,0,0-2.155.082,3.246,3.246,0,0,1-.838-2.106V42.256a8.656,8.656,0,0,1,7.244,6.883Zm9.53,17.388a3.9,3.9,0,1,1-3.9-3.9A3.9,3.9,0,0,1,87.921,65.246Z" transform="translate(-28.952)"/></g></g><g transform="translate(1410.575 6112.257)"><g transform="translate(0)"><path class="b" d="M103.271,79.561l-3.71-21.718a6.182,6.182,0,0,0-4.332-4.905L85.223,49.919a11.16,11.16,0,0,0-7.744-9.691c.317-.351.61-.7.88-1.044a19.421,19.421,0,0,0,3.978-8.635h.772a3.645,3.645,0,0,0,3.641-3.641V25.041a3.666,3.666,0,0,0-1.887-3.184V17.369a1.228,1.228,0,1,0-2.456,0v5.039a7.569,7.569,0,0,0-1.633.472,1.233,1.233,0,0,0-.173.077c-.132.06-.264.123-.4.195v-9.9A4.964,4.964,0,0,0,75.248,8.3H71.858a5.094,5.094,0,0,0-3.216,1.147l-.333.272a3.43,3.43,0,0,1-4.343,0l-.332-.272A5.1,5.1,0,0,0,60.418,8.3h-3.39a4.964,4.964,0,0,0-4.958,4.958v9.9c-.132-.071-.264-.135-.4-.195a1.231,1.231,0,0,0-.173-.077,7.571,7.571,0,0,0-1.633-.472V9.667a7.219,7.219,0,0,1,7.211-7.211H75.195a7.219,7.219,0,0,1,7.211,7.211V11.6a1.228,1.228,0,1,0,2.456,0V9.667A9.678,9.678,0,0,0,75.195,0H57.081a9.678,9.678,0,0,0-9.667,9.667v12.19a3.666,3.666,0,0,0-1.887,3.184v1.866a3.645,3.645,0,0,0,3.641,3.641h.772a19.419,19.419,0,0,0,3.978,8.635c.269.342.563.692.879,1.043a11.2,11.2,0,0,0-7.743,9.692L37.047,52.938a6.181,6.181,0,0,0-4.332,4.905l-1.506,8.819a1.228,1.228,0,0,0,2.421.413l1.506-8.819a3.739,3.739,0,0,1,2.621-2.967L47.011,52.5v2.429a6.144,6.144,0,0,0-4.67,3.867,6.228,6.228,0,0,0-.365,1.668l-.894,11.48A3.121,3.121,0,0,0,44.194,75.3h1.531a1.228,1.228,0,1,0,0-2.456H44.194a.665.665,0,0,1-.663-.717l.894-11.48a3.77,3.77,0,0,1,.221-1.01,3.713,3.713,0,0,1,3.476-2.366h.23a3.679,3.679,0,0,1,3.429,2.2,3.766,3.766,0,0,1,.287,1.179l.895,11.48a.665.665,0,0,1-.663.717H50.769a1.228,1.228,0,1,0,0,2.456H52.3a3.121,3.121,0,0,0,3.112-3.364l-.895-11.48a6.22,6.22,0,0,0-.475-1.946,6.079,6.079,0,0,0-4.576-3.6V51.756l4.221-1.274c.384.809,1.145,2.557,2.653,6.325,1.519,3.8,3.408,8.675,5.219,13.413a1.243,1.243,0,0,0,.045.117c1.209,3.163,2.381,6.26,3.384,8.933a1.228,1.228,0,0,0,2.3,0c1-2.672,2.175-5.77,3.384-8.933a1.216,1.216,0,0,0,.045-.117c1.81-4.735,3.7-9.6,5.216-13.406,1.51-3.773,2.271-5.522,2.656-6.332l4.221,1.274v7.253a6.353,6.353,0,1,0,2.456.005V52.5l9.255,2.792a3.739,3.739,0,0,1,2.621,2.967l3.71,21.718a1.219,1.219,0,0,1-1.2,1.425H32.627a1.219,1.219,0,0,1-1.2-1.425l1.224-7.167a1.228,1.228,0,0,0-2.421-.413L29,79.561a3.675,3.675,0,0,0,3.623,4.294H99.648a3.675,3.675,0,0,0,3.623-4.294ZM82.421,24.909a5.27,5.27,0,0,1,1.185-.16,1.255,1.255,0,0,0,.6-.142,1.163,1.163,0,0,1,.087.435v1.866a1.186,1.186,0,0,1-1.185,1.185h-.687ZM49.855,28.093h-.687a1.186,1.186,0,0,1-1.185-1.185V25.041a1.165,1.165,0,0,1,.087-.435,1.252,1.252,0,0,0,.6.142,5.475,5.475,0,0,1,1.185.161Zm2.456,1.377V26.244a1.723,1.723,0,0,0,2.216-1.652V13.256a2.505,2.505,0,0,1,2.5-2.5h3.389a2.632,2.632,0,0,1,1.662.593l.332.272a5.887,5.887,0,0,0,7.452,0l.332-.272a2.632,2.632,0,0,1,1.662-.593h3.389a2.505,2.505,0,0,1,2.5,2.5V24.592a1.723,1.723,0,0,0,2.216,1.653V29.47c0,1.793-1.239,5.275-3.537,8.2a16.19,16.19,0,0,1-2.943,2.916,1.231,1.231,0,0,0-.11.083,11.97,11.97,0,0,1-14.476,0,1.244,1.244,0,0,0-.109-.082,16.2,16.2,0,0,1-2.943-2.916C53.55,34.744,52.311,31.263,52.311,29.47ZM74.183,49.309l-8.045,6.013-8.045-6.013a5.824,5.824,0,0,0,1.245-3.477V43.853a14.421,14.421,0,0,0,13.6,0v1.979A5.823,5.823,0,0,0,74.183,49.309ZM56.044,47.938a3.358,3.358,0,0,0-2.07-.1c-.03.007-.06.015-.088.024l-4.242,1.28a8.724,8.724,0,0,1,7.239-6.88v3.574A3.247,3.247,0,0,1,56.044,47.938ZM59.376,57.8l-.007-.017-.185-.466-.033-.083-.177-.446-.012-.031q-.273-.686-.526-1.317l-.037-.092-.143-.357L58.2,54.86l-.136-.337-.04-.1-.239-.587-.063-.155-.09-.22-.1-.233-.036-.087-.028-.067q-.213-.517-.4-.975l0-.007-.2-.473-.1-.231,6.919,5.171L60.8,57.788l-.015.007-1.207.513Zm2.93,7.519q-.364-.944-.732-1.895-.574-1.484-1.1-2.825l.458-.195,1.872,2.176Zm3.855,9.98a1.223,1.223,0,0,0-.126-.206c-.555-1.467-1.259-3.322-2.039-5.364l1.146-6.277h1.988l1.146,6.277C67.461,71.864,66.728,73.8,66.162,75.3Zm1.431-14.3H64.683l-1.377-1.6,2.831-1.2,2.831,1.2ZM70.7,63.42q-.367.949-.732,1.895l-.5-2.739L71.341,60.4l.458.195Q71.275,61.938,70.7,63.42Zm4.7-11.8-.188.448-.025.06-.2.47-.013.033-.178.431-.033.081-.041.1-.082.2-.1.249-.033.082-.263.647-.042.1-.135.334-.053.132-.142.353-.04.1q-.25.622-.519,1.3l-.018.045-.176.443-.033.084-.186.469,0,.009-.2.518-1.208-.513-.013-.005L68.584,56.56,75.5,51.389Zm2.986-3.762h0a3.356,3.356,0,0,0-2.155.082,3.246,3.246,0,0,1-.838-2.106V42.256a8.656,8.656,0,0,1,7.244,6.883Zm9.53,17.388a3.9,3.9,0,1,1-3.9-3.9A3.9,3.9,0,0,1,87.921,65.246Z" transform="translate(-28.952)"/></g></g><g transform="translate(1473.628 6154.292)"><g transform="translate(0)"><path class="a" d="M103.271,79.561l-3.71-21.718a6.182,6.182,0,0,0-4.332-4.905L85.223,49.919a11.16,11.16,0,0,0-7.744-9.691c.317-.351.61-.7.88-1.044a19.421,19.421,0,0,0,3.978-8.635h.772a3.645,3.645,0,0,0,3.641-3.641V25.041a3.666,3.666,0,0,0-1.887-3.184V17.369a1.228,1.228,0,1,0-2.456,0v5.039a7.569,7.569,0,0,0-1.633.472,1.233,1.233,0,0,0-.173.077c-.132.06-.264.123-.4.195v-9.9A4.964,4.964,0,0,0,75.248,8.3H71.858a5.094,5.094,0,0,0-3.216,1.147l-.333.272a3.43,3.43,0,0,1-4.343,0l-.332-.272A5.1,5.1,0,0,0,60.418,8.3h-3.39a4.964,4.964,0,0,0-4.958,4.958v9.9c-.132-.071-.264-.135-.4-.195a1.231,1.231,0,0,0-.173-.077,7.571,7.571,0,0,0-1.633-.472V9.667a7.219,7.219,0,0,1,7.211-7.211H75.195a7.219,7.219,0,0,1,7.211,7.211V11.6a1.228,1.228,0,1,0,2.456,0V9.667A9.678,9.678,0,0,0,75.195,0H57.081a9.678,9.678,0,0,0-9.667,9.667v12.19a3.666,3.666,0,0,0-1.887,3.184v1.866a3.645,3.645,0,0,0,3.641,3.641h.772a19.419,19.419,0,0,0,3.978,8.635c.269.342.563.692.879,1.043a11.2,11.2,0,0,0-7.743,9.692L37.047,52.938a6.181,6.181,0,0,0-4.332,4.905l-1.506,8.819a1.228,1.228,0,0,0,2.421.413l1.506-8.819a3.739,3.739,0,0,1,2.621-2.967L47.011,52.5v2.429a6.144,6.144,0,0,0-4.67,3.867,6.228,6.228,0,0,0-.365,1.668l-.894,11.48A3.121,3.121,0,0,0,44.194,75.3h1.531a1.228,1.228,0,1,0,0-2.456H44.194a.665.665,0,0,1-.663-.717l.894-11.48a3.77,3.77,0,0,1,.221-1.01,3.713,3.713,0,0,1,3.476-2.366h.23a3.679,3.679,0,0,1,3.429,2.2,3.766,3.766,0,0,1,.287,1.179l.895,11.48a.665.665,0,0,1-.663.717H50.769a1.228,1.228,0,1,0,0,2.456H52.3a3.121,3.121,0,0,0,3.112-3.364l-.895-11.48a6.22,6.22,0,0,0-.475-1.946,6.079,6.079,0,0,0-4.576-3.6V51.756l4.221-1.274c.384.809,1.145,2.557,2.653,6.325,1.519,3.8,3.408,8.675,5.219,13.413a1.243,1.243,0,0,0,.045.117c1.209,3.163,2.381,6.26,3.384,8.933a1.228,1.228,0,0,0,2.3,0c1-2.672,2.175-5.77,3.384-8.933a1.216,1.216,0,0,0,.045-.117c1.81-4.735,3.7-9.6,5.216-13.406,1.51-3.773,2.271-5.522,2.656-6.332l4.221,1.274v7.253a6.353,6.353,0,1,0,2.456.005V52.5l9.255,2.792a3.739,3.739,0,0,1,2.621,2.967l3.71,21.718a1.219,1.219,0,0,1-1.2,1.425H32.627a1.219,1.219,0,0,1-1.2-1.425l1.224-7.167a1.228,1.228,0,0,0-2.421-.413L29,79.561a3.675,3.675,0,0,0,3.623,4.294H99.648a3.675,3.675,0,0,0,3.623-4.294ZM82.421,24.909a5.27,5.27,0,0,1,1.185-.16,1.255,1.255,0,0,0,.6-.142,1.163,1.163,0,0,1,.087.435v1.866a1.186,1.186,0,0,1-1.185,1.185h-.687ZM49.855,28.093h-.687a1.186,1.186,0,0,1-1.185-1.185V25.041a1.165,1.165,0,0,1,.087-.435,1.252,1.252,0,0,0,.6.142,5.475,5.475,0,0,1,1.185.161Zm2.456,1.377V26.244a1.723,1.723,0,0,0,2.216-1.652V13.256a2.505,2.505,0,0,1,2.5-2.5h3.389a2.632,2.632,0,0,1,1.662.593l.332.272a5.887,5.887,0,0,0,7.452,0l.332-.272a2.632,2.632,0,0,1,1.662-.593h3.389a2.505,2.505,0,0,1,2.5,2.5V24.592a1.723,1.723,0,0,0,2.216,1.653V29.47c0,1.793-1.239,5.275-3.537,8.2a16.19,16.19,0,0,1-2.943,2.916,1.231,1.231,0,0,0-.11.083,11.97,11.97,0,0,1-14.476,0,1.244,1.244,0,0,0-.109-.082,16.2,16.2,0,0,1-2.943-2.916C53.55,34.744,52.311,31.263,52.311,29.47ZM74.183,49.309l-8.045,6.013-8.045-6.013a5.824,5.824,0,0,0,1.245-3.477V43.853a14.421,14.421,0,0,0,13.6,0v1.979A5.823,5.823,0,0,0,74.183,49.309ZM56.044,47.938a3.358,3.358,0,0,0-2.07-.1c-.03.007-.06.015-.088.024l-4.242,1.28a8.724,8.724,0,0,1,7.239-6.88v3.574A3.247,3.247,0,0,1,56.044,47.938ZM59.376,57.8l-.007-.017-.185-.466-.033-.083-.177-.446-.012-.031q-.273-.686-.526-1.317l-.037-.092-.143-.357L58.2,54.86l-.136-.337-.04-.1-.239-.587-.063-.155-.09-.22-.1-.233-.036-.087-.028-.067q-.213-.517-.4-.975l0-.007-.2-.473-.1-.231,6.919,5.171L60.8,57.788l-.015.007-1.207.513Zm2.93,7.519q-.364-.944-.732-1.895-.574-1.484-1.1-2.825l.458-.195,1.872,2.176Zm3.855,9.98a1.223,1.223,0,0,0-.126-.206c-.555-1.467-1.259-3.322-2.039-5.364l1.146-6.277h1.988l1.146,6.277C67.461,71.864,66.728,73.8,66.162,75.3Zm1.431-14.3H64.683l-1.377-1.6,2.831-1.2,2.831,1.2ZM70.7,63.42q-.367.949-.732,1.895l-.5-2.739L71.341,60.4l.458.195Q71.275,61.938,70.7,63.42Zm4.7-11.8-.188.448-.025.06-.2.47-.013.033-.178.431-.033.081-.041.1-.082.2-.1.249-.033.082-.263.647-.042.1-.135.334-.053.132-.142.353-.04.1q-.25.622-.519,1.3l-.018.045-.176.443-.033.084-.186.469,0,.009-.2.518-1.208-.513-.013-.005L68.584,56.56,75.5,51.389Zm2.986-3.762h0a3.356,3.356,0,0,0-2.155.082,3.246,3.246,0,0,1-.838-2.106V42.256a8.656,8.656,0,0,1,7.244,6.883Zm9.53,17.388a3.9,3.9,0,1,1-3.9-3.9A3.9,3.9,0,0,1,87.921,65.246Z" transform="translate(-28.952)"/></g></g></g></svg>