<svg xmlns="http://www.w3.org/2000/svg" width="312.362" height="140.503" viewBox="0 0 312.362 140.503"><defs><style>.a{fill:#f38800;}.b{fill:#6fad76;}</style></defs><g transform="translate(-623 -7565)"><g transform="translate(835.754 7565)"><g transform="translate(0 0)"><g transform="translate(0 0)"><path class="a" d="M43.7,98.85V102.9H39.832v-1.221H22.712V102.9H13.934a5.826,5.826,0,0,0-5.561-4.792H2.72V89.129H0v30.258H2.72v-4.048H22.712v4.047H39.832v-4.047H43.7v4.048h2.72V102.9h0V98.85H43.7ZM2.72,100.826H8.373a3.009,3.009,0,0,1,2.739,2.072H2.72Zm19.992,11.793H2.72v-7H22.712v7Zm2.72,4.047V104.4H37.112v12.269H25.432ZM43.7,112.619H39.832v-7H43.7Z" transform="translate(0 -89.129)"/></g></g><g transform="translate(27.095 17.225)"><g transform="translate(0 0)"><path class="a" d="M304.388,281.934v-2.818h-2.72v2.818h-2.817v2.72h2.817v2.818h2.72v-2.818h2.817v-2.72Z" transform="translate(-298.851 -279.116)"/></g></g></g><g transform="translate(888.943 7565)"><g transform="translate(0 0)"><g transform="translate(0 0)"><path class="a" d="M43.7,98.85V102.9H39.832v-1.221H22.712V102.9H13.934a5.826,5.826,0,0,0-5.561-4.792H2.72V89.129H0v30.258H2.72v-4.048H22.712v4.047H39.832v-4.047H43.7v4.048h2.72V102.9h0V98.85H43.7ZM2.72,100.826H8.373a3.009,3.009,0,0,1,2.739,2.072H2.72Zm19.992,11.793H2.72v-7H22.712v7Zm2.72,4.047V104.4H37.112v12.269H25.432ZM43.7,112.619H39.832v-7H43.7Z" transform="translate(0 -89.129)"/></g></g><g transform="translate(27.095 17.225)"><g transform="translate(0 0)"><path class="a" d="M304.388,281.934v-2.818h-2.72v2.818h-2.817v2.72h2.817v2.818h2.72v-2.818h2.817v-2.72Z" transform="translate(-298.851 -279.116)"/></g></g></g><g transform="translate(835.754 7601.749)"><g transform="translate(0 0)"><g transform="translate(0 0)"><path class="a" d="M43.7,98.85V102.9H39.832v-1.221H22.712V102.9H13.934a5.826,5.826,0,0,0-5.561-4.792H2.72V89.129H0v30.258H2.72v-4.048H22.712v4.047H39.832v-4.047H43.7v4.048h2.72V102.9h0V98.85H43.7ZM2.72,100.826H8.373a3.009,3.009,0,0,1,2.739,2.072H2.72Zm19.992,11.793H2.72v-7H22.712v7Zm2.72,4.047V104.4H37.112v12.269H25.432ZM43.7,112.619H39.832v-7H43.7Z" transform="translate(0 -89.129)"/></g></g><g transform="translate(27.095 17.225)"><g transform="translate(0 0)"><path class="a" d="M304.388,281.934v-2.818h-2.72v2.818h-2.817v2.72h2.817v2.818h2.72v-2.818h2.817v-2.72Z" transform="translate(-298.851 -279.116)"/></g></g></g><g transform="translate(888.943 7601.749)"><g transform="translate(0 0)"><g transform="translate(0 0)"><path class="a" d="M43.7,98.85V102.9H39.832v-1.221H22.712V102.9H13.934a5.826,5.826,0,0,0-5.561-4.792H2.72V89.129H0v30.258H2.72v-4.048H22.712v4.047H39.832v-4.047H43.7v4.048h2.72V102.9h0V98.85H43.7ZM2.72,100.826H8.373a3.009,3.009,0,0,1,2.739,2.072H2.72Zm19.992,11.793H2.72v-7H22.712v7Zm2.72,4.047V104.4H37.112v12.269H25.432ZM43.7,112.619H39.832v-7H43.7Z" transform="translate(0 -89.129)"/></g></g><g transform="translate(27.095 17.225)"><g transform="translate(0 0)"><path class="a" d="M304.388,281.934v-2.818h-2.72v2.818h-2.817v2.72h2.817v2.818h2.72v-2.818h2.817v-2.72Z" transform="translate(-298.851 -279.116)"/></g></g></g><g transform="translate(623 7638.497)"><g transform="translate(0 0)"><g transform="translate(0 0)"><path class="b" d="M43.7,98.85V102.9H39.832v-1.221H22.712V102.9H13.934a5.826,5.826,0,0,0-5.561-4.792H2.72V89.129H0v30.258H2.72v-4.048H22.712v4.047H39.832v-4.047H43.7v4.048h2.72V102.9h0V98.85H43.7ZM2.72,100.826H8.373a3.009,3.009,0,0,1,2.739,2.072H2.72Zm19.992,11.793H2.72v-7H22.712v7Zm2.72,4.047V104.4H37.112v12.269H25.432ZM43.7,112.619H39.832v-7H43.7Z" transform="translate(0 -89.129)"/></g></g><g transform="translate(27.095 17.225)"><g transform="translate(0 0)"><path class="b" d="M304.388,281.934v-2.818h-2.72v2.818h-2.817v2.72h2.817v2.818h2.72v-2.818h2.817v-2.72Z" transform="translate(-298.851 -279.116)"/></g></g></g><g transform="translate(676.189 7638.497)"><g transform="translate(0 0)"><g transform="translate(0 0)"><path class="b" d="M43.7,98.85V102.9H39.832v-1.221H22.712V102.9H13.934a5.826,5.826,0,0,0-5.561-4.792H2.72V89.129H0v30.258H2.72v-4.048H22.712v4.047H39.832v-4.047H43.7v4.048h2.72V102.9h0V98.85H43.7ZM2.72,100.826H8.373a3.009,3.009,0,0,1,2.739,2.072H2.72Zm19.992,11.793H2.72v-7H22.712v7Zm2.72,4.047V104.4H37.112v12.269H25.432ZM43.7,112.619H39.832v-7H43.7Z" transform="translate(0 -89.129)"/></g></g><g transform="translate(27.095 17.225)"><g transform="translate(0 0)"><path class="b" d="M304.388,281.934v-2.818h-2.72v2.818h-2.817v2.72h2.817v2.818h2.72v-2.818h2.817v-2.72Z" transform="translate(-298.851 -279.116)"/></g></g></g><g transform="translate(729.377 7638.497)"><g transform="translate(0 0)"><g transform="translate(0 0)"><path class="b" d="M43.7,98.85V102.9H39.832v-1.221H22.712V102.9H13.934a5.826,5.826,0,0,0-5.561-4.792H2.72V89.129H0v30.258H2.72v-4.048H22.712v4.047H39.832v-4.047H43.7v4.048h2.72V102.9h0V98.85H43.7ZM2.72,100.826H8.373a3.009,3.009,0,0,1,2.739,2.072H2.72Zm19.992,11.793H2.72v-7H22.712v7Zm2.72,4.047V104.4H37.112v12.269H25.432ZM43.7,112.619H39.832v-7H43.7Z" transform="translate(0 -89.129)"/></g></g><g transform="translate(27.095 17.225)"><g transform="translate(0 0)"><path class="b" d="M304.388,281.934v-2.818h-2.72v2.818h-2.817v2.72h2.817v2.818h2.72v-2.818h2.817v-2.72Z" transform="translate(-298.851 -279.116)"/></g></g></g><g transform="translate(782.566 7638.497)"><g transform="translate(0 0)"><g transform="translate(0 0)"><path class="a" d="M43.7,98.85V102.9H39.832v-1.221H22.712V102.9H13.934a5.826,5.826,0,0,0-5.561-4.792H2.72V89.129H0v30.258H2.72v-4.048H22.712v4.047H39.832v-4.047H43.7v4.048h2.72V102.9h0V98.85H43.7ZM2.72,100.826H8.373a3.009,3.009,0,0,1,2.739,2.072H2.72Zm19.992,11.793H2.72v-7H22.712v7Zm2.72,4.047V104.4H37.112v12.269H25.432ZM43.7,112.619H39.832v-7H43.7Z" transform="translate(0 -89.129)"/></g></g><g transform="translate(27.095 17.225)"><g transform="translate(0 0)"><path class="a" d="M304.388,281.934v-2.818h-2.72v2.818h-2.817v2.72h2.817v2.818h2.72v-2.818h2.817v-2.72Z" transform="translate(-298.851 -279.116)"/></g></g></g><g transform="translate(835.754 7638.497)"><g transform="translate(0 0)"><g transform="translate(0 0)"><path class="a" d="M43.7,98.85V102.9H39.832v-1.221H22.712V102.9H13.934a5.826,5.826,0,0,0-5.561-4.792H2.72V89.129H0v30.258H2.72v-4.048H22.712v4.047H39.832v-4.047H43.7v4.048h2.72V102.9h0V98.85H43.7ZM2.72,100.826H8.373a3.009,3.009,0,0,1,2.739,2.072H2.72Zm19.992,11.793H2.72v-7H22.712v7Zm2.72,4.047V104.4H37.112v12.269H25.432ZM43.7,112.619H39.832v-7H43.7Z" transform="translate(0 -89.129)"/></g></g><g transform="translate(27.095 17.225)"><g transform="translate(0 0)"><path class="a" d="M304.388,281.934v-2.818h-2.72v2.818h-2.817v2.72h2.817v2.818h2.72v-2.818h2.817v-2.72Z" transform="translate(-298.851 -279.116)"/></g></g></g><g transform="translate(888.943 7638.497)"><g transform="translate(0 0)"><g transform="translate(0 0)"><path class="a" d="M43.7,98.85V102.9H39.832v-1.221H22.712V102.9H13.934a5.826,5.826,0,0,0-5.561-4.792H2.72V89.129H0v30.258H2.72v-4.048H22.712v4.047H39.832v-4.047H43.7v4.048h2.72V102.9h0V98.85H43.7ZM2.72,100.826H8.373a3.009,3.009,0,0,1,2.739,2.072H2.72Zm19.992,11.793H2.72v-7H22.712v7Zm2.72,4.047V104.4H37.112v12.269H25.432ZM43.7,112.619H39.832v-7H43.7Z" transform="translate(0 -89.129)"/></g></g><g transform="translate(27.095 17.225)"><g transform="translate(0 0)"><path class="a" d="M304.388,281.934v-2.818h-2.72v2.818h-2.817v2.72h2.817v2.818h2.72v-2.818h2.817v-2.72Z" transform="translate(-298.851 -279.116)"/></g></g></g><g transform="translate(623 7675.246)"><g transform="translate(0 0)"><g transform="translate(0 0)"><path class="a" d="M43.7,98.85V102.9H39.832v-1.221H22.712V102.9H13.934a5.826,5.826,0,0,0-5.561-4.792H2.72V89.129H0v30.258H2.72v-4.048H22.712v4.047H39.832v-4.047H43.7v4.048h2.72V102.9h0V98.85H43.7ZM2.72,100.826H8.373a3.009,3.009,0,0,1,2.739,2.072H2.72Zm19.992,11.793H2.72v-7H22.712v7Zm2.72,4.047V104.4H37.112v12.269H25.432ZM43.7,112.619H39.832v-7H43.7Z" transform="translate(0 -89.129)"/></g></g><g transform="translate(27.095 17.225)"><g transform="translate(0 0)"><path class="a" d="M304.388,281.934v-2.818h-2.72v2.818h-2.817v2.72h2.817v2.818h2.72v-2.818h2.817v-2.72Z" transform="translate(-298.851 -279.116)"/></g></g></g><g transform="translate(676.189 7675.246)"><g transform="translate(0 0)"><g transform="translate(0 0)"><path class="a" d="M43.7,98.85V102.9H39.832v-1.221H22.712V102.9H13.934a5.826,5.826,0,0,0-5.561-4.792H2.72V89.129H0v30.258H2.72v-4.048H22.712v4.047H39.832v-4.047H43.7v4.048h2.72V102.9h0V98.85H43.7ZM2.72,100.826H8.373a3.009,3.009,0,0,1,2.739,2.072H2.72Zm19.992,11.793H2.72v-7H22.712v7Zm2.72,4.047V104.4H37.112v12.269H25.432ZM43.7,112.619H39.832v-7H43.7Z" transform="translate(0 -89.129)"/></g></g><g transform="translate(27.095 17.225)"><g transform="translate(0 0)"><path class="a" d="M304.388,281.934v-2.818h-2.72v2.818h-2.817v2.72h2.817v2.818h2.72v-2.818h2.817v-2.72Z" transform="translate(-298.851 -279.116)"/></g></g></g><g transform="translate(729.377 7675.246)"><g transform="translate(0 0)"><g transform="translate(0 0)"><path class="a" d="M43.7,98.85V102.9H39.832v-1.221H22.712V102.9H13.934a5.826,5.826,0,0,0-5.561-4.792H2.72V89.129H0v30.258H2.72v-4.048H22.712v4.047H39.832v-4.047H43.7v4.048h2.72V102.9h0V98.85H43.7ZM2.72,100.826H8.373a3.009,3.009,0,0,1,2.739,2.072H2.72Zm19.992,11.793H2.72v-7H22.712v7Zm2.72,4.047V104.4H37.112v12.269H25.432ZM43.7,112.619H39.832v-7H43.7Z" transform="translate(0 -89.129)"/></g></g><g transform="translate(27.095 17.225)"><g transform="translate(0 0)"><path class="a" d="M304.388,281.934v-2.818h-2.72v2.818h-2.817v2.72h2.817v2.818h2.72v-2.818h2.817v-2.72Z" transform="translate(-298.851 -279.116)"/></g></g></g><g transform="translate(782.566 7675.246)"><g transform="translate(0 0)"><g transform="translate(0 0)"><path class="a" d="M43.7,98.85V102.9H39.832v-1.221H22.712V102.9H13.934a5.826,5.826,0,0,0-5.561-4.792H2.72V89.129H0v30.258H2.72v-4.048H22.712v4.047H39.832v-4.047H43.7v4.048h2.72V102.9h0V98.85H43.7ZM2.72,100.826H8.373a3.009,3.009,0,0,1,2.739,2.072H2.72Zm19.992,11.793H2.72v-7H22.712v7Zm2.72,4.047V104.4H37.112v12.269H25.432ZM43.7,112.619H39.832v-7H43.7Z" transform="translate(0 -89.129)"/></g></g><g transform="translate(27.095 17.225)"><g transform="translate(0 0)"><path class="a" d="M304.388,281.934v-2.818h-2.72v2.818h-2.817v2.72h2.817v2.818h2.72v-2.818h2.817v-2.72Z" transform="translate(-298.851 -279.116)"/></g></g></g><g transform="translate(835.754 7675.246)"><g transform="translate(0 0)"><g transform="translate(0 0)"><path class="a" d="M43.7,98.85V102.9H39.832v-1.221H22.712V102.9H13.934a5.826,5.826,0,0,0-5.561-4.792H2.72V89.129H0v30.258H2.72v-4.048H22.712v4.047H39.832v-4.047H43.7v4.048h2.72V102.9h0V98.85H43.7ZM2.72,100.826H8.373a3.009,3.009,0,0,1,2.739,2.072H2.72Zm19.992,11.793H2.72v-7H22.712v7Zm2.72,4.047V104.4H37.112v12.269H25.432ZM43.7,112.619H39.832v-7H43.7Z" transform="translate(0 -89.129)"/></g></g><g transform="translate(27.095 17.225)"><g transform="translate(0 0)"><path class="a" d="M304.388,281.934v-2.818h-2.72v2.818h-2.817v2.72h2.817v2.818h2.72v-2.818h2.817v-2.72Z" transform="translate(-298.851 -279.116)"/></g></g></g><g transform="translate(888.943 7675.246)"><g transform="translate(0 0)"><g transform="translate(0 0)"><path class="a" d="M43.7,98.85V102.9H39.832v-1.221H22.712V102.9H13.934a5.826,5.826,0,0,0-5.561-4.792H2.72V89.129H0v30.258H2.72v-4.048H22.712v4.047H39.832v-4.047H43.7v4.048h2.72V102.9h0V98.85H43.7ZM2.72,100.826H8.373a3.009,3.009,0,0,1,2.739,2.072H2.72Zm19.992,11.793H2.72v-7H22.712v7Zm2.72,4.047V104.4H37.112v12.269H25.432ZM43.7,112.619H39.832v-7H43.7Z" transform="translate(0 -89.129)"/></g></g><g transform="translate(27.095 17.225)"><g transform="translate(0 0)"><path class="a" d="M304.388,281.934v-2.818h-2.72v2.818h-2.817v2.72h2.817v2.818h2.72v-2.818h2.817v-2.72Z" transform="translate(-298.851 -279.116)"/></g></g></g><g transform="translate(623 7565)"><g transform="translate(0 0)"><g transform="translate(0 0)"><path class="b" d="M93.771,109.988v8.687h-8.3v-2.621H48.737v2.621H29.9c-1.235-5.879-6.115-10.283-11.933-10.283H5.837V89.129H0v64.928H5.837v-8.687h42.9v8.684H85.472v-8.684h8.3v8.687h5.837V118.675h0v-8.687H93.771ZM5.837,114.229h12.13a6.458,6.458,0,0,1,5.877,4.446H5.837Zm42.9,25.305H5.837V124.511h42.9v15.023Zm5.837,8.684V121.891H79.636v26.327H54.573Zm39.2-8.684h-8.3V124.511h8.3Z" transform="translate(0 -89.129)"/></g></g><g transform="translate(58.14 36.961)"><g transform="translate(0 0)"><path class="b" d="M310.733,285.162v-6.046H304.9v6.046h-6.046V291H304.9v6.046h5.837V291h6.046v-5.837Z" transform="translate(-298.851 -279.116)"/></g></g></g><g transform="translate(729.377 7565)"><g transform="translate(0 0)"><g transform="translate(0 0)"><path class="b" d="M43.7,98.85V102.9H39.832v-1.221H22.712V102.9H13.934a5.826,5.826,0,0,0-5.561-4.792H2.72V89.129H0v30.258H2.72v-4.048H22.712v4.047H39.832v-4.047H43.7v4.048h2.72V102.9h0V98.85H43.7ZM2.72,100.826H8.373a3.009,3.009,0,0,1,2.739,2.072H2.72Zm19.992,11.793H2.72v-7H22.712v7Zm2.72,4.047V104.4H37.112v12.269H25.432ZM43.7,112.619H39.832v-7H43.7Z" transform="translate(0 -89.129)"/></g></g><g transform="translate(27.095 17.225)"><g transform="translate(0 0)"><path class="b" d="M304.388,281.934v-2.818h-2.72v2.818h-2.817v2.72h2.817v2.818h2.72v-2.818h2.817v-2.72Z" transform="translate(-298.851 -279.116)"/></g></g></g><g transform="translate(782.566 7565)"><g transform="translate(0 0)"><g transform="translate(0 0)"><path class="a" d="M43.7,98.85V102.9H39.832v-1.221H22.712V102.9H13.934a5.826,5.826,0,0,0-5.561-4.792H2.72V89.129H0v30.258H2.72v-4.048H22.712v4.047H39.832v-4.047H43.7v4.048h2.72V102.9h0V98.85H43.7ZM2.72,100.826H8.373a3.009,3.009,0,0,1,2.739,2.072H2.72Zm19.992,11.793H2.72v-7H22.712v7Zm2.72,4.047V104.4H37.112v12.269H25.432ZM43.7,112.619H39.832v-7H43.7Z" transform="translate(0 -89.129)"/></g></g><g transform="translate(27.095 17.225)"><g transform="translate(0 0)"><path class="a" d="M304.388,281.934v-2.818h-2.72v2.818h-2.817v2.72h2.817v2.818h2.72v-2.818h2.817v-2.72Z" transform="translate(-298.851 -279.116)"/></g></g></g><g transform="translate(729.377 7601.749)"><g transform="translate(0 0)"><g transform="translate(0 0)"><path class="b" d="M43.7,98.85V102.9H39.832v-1.221H22.712V102.9H13.934a5.826,5.826,0,0,0-5.561-4.792H2.72V89.129H0v30.258H2.72v-4.048H22.712v4.047H39.832v-4.047H43.7v4.048h2.72V102.9h0V98.85H43.7ZM2.72,100.826H8.373a3.009,3.009,0,0,1,2.739,2.072H2.72Zm19.992,11.793H2.72v-7H22.712v7Zm2.72,4.047V104.4H37.112v12.269H25.432ZM43.7,112.619H39.832v-7H43.7Z" transform="translate(0 -89.129)"/></g></g><g transform="translate(27.095 17.225)"><g transform="translate(0 0)"><path class="b" d="M304.388,281.934v-2.818h-2.72v2.818h-2.817v2.72h2.817v2.818h2.72v-2.818h2.817v-2.72Z" transform="translate(-298.851 -279.116)"/></g></g></g><g transform="translate(782.566 7601.749)"><g transform="translate(0 0)"><g transform="translate(0 0)"><path class="a" d="M43.7,98.85V102.9H39.832v-1.221H22.712V102.9H13.934a5.826,5.826,0,0,0-5.561-4.792H2.72V89.129H0v30.258H2.72v-4.048H22.712v4.047H39.832v-4.047H43.7v4.048h2.72V102.9h0V98.85H43.7ZM2.72,100.826H8.373a3.009,3.009,0,0,1,2.739,2.072H2.72Zm19.992,11.793H2.72v-7H22.712v7Zm2.72,4.047V104.4H37.112v12.269H25.432ZM43.7,112.619H39.832v-7H43.7Z" transform="translate(0 -89.129)"/></g></g><g transform="translate(27.095 17.225)"><g transform="translate(0 0)"><path class="a" d="M304.388,281.934v-2.818h-2.72v2.818h-2.817v2.72h2.817v2.818h2.72v-2.818h2.817v-2.72Z" transform="translate(-298.851 -279.116)"/></g></g></g></g></svg>