<svg xmlns="http://www.w3.org/2000/svg" width="225.427" height="125.241" viewBox="0 0 225.427 125.241"><defs><style>.a{fill:#f38800;}.b{fill:#6fad76;}</style></defs><g transform="translate(-233 -7036)"><g transform="translate(385.205 7088.02)"><path class="a" d="M71.077,68.932H68.788v-55.9H71.07a2.145,2.145,0,0,0,2.145-2.145V2.145A2.145,2.145,0,0,0,71.07,0H2.145A2.145,2.145,0,0,0,0,2.145v8.742a2.145,2.145,0,0,0,2.145,2.145H4.486v55.9H2.152a2.145,2.145,0,0,0,0,4.29H71.077a2.145,2.145,0,1,0,0-4.29ZM4.29,4.29H68.924V8.742H4.29Zm4.486,8.742H64.5v55.9H60.221V36.611a2.152,2.152,0,0,0-2.145-2.288H15.168a2.324,2.324,0,0,0-2.16,2.288V68.932H8.776ZM17.3,50.1H23.74v7.2H17.3Zm10.732,0h6.436v7.2H28.03Zm10.726,0h6.436v7.2H38.756Zm10.726,0H55.93v7.2H49.482Zm6.448-4.29H49.482v-7.2H55.93Zm-10.739,0H38.756v-7.2h6.436Zm-10.726,0H28.03v-7.2h6.436Zm-10.726,0H17.3v-7.2H23.74ZM17.3,61.59H23.74v7.341H17.3Zm10.732,0h6.436v7.341H28.03Zm10.726,0h6.436v7.341H38.756Zm10.726,0H55.93v7.341H49.482Z" transform="translate(0)"/><path class="a" d="M212.643,129.569h2.221v2.22a2.145,2.145,0,0,0,4.29,0v-2.22h2.221a2.145,2.145,0,0,0,0-4.29h-2.221v-2.22a2.145,2.145,0,0,0-4.29,0v2.22h-2.221a2.145,2.145,0,0,0,0,4.29Z" transform="translate(-180.394 -103.621)"/></g><g transform="translate(233 7088.02)"><path class="a" d="M71.077,68.932H68.788v-55.9H71.07a2.145,2.145,0,0,0,2.145-2.145V2.145A2.145,2.145,0,0,0,71.07,0H2.145A2.145,2.145,0,0,0,0,2.145v8.742a2.145,2.145,0,0,0,2.145,2.145H4.486v55.9H2.152a2.145,2.145,0,0,0,0,4.29H71.077a2.145,2.145,0,1,0,0-4.29ZM4.29,4.29H68.924V8.742H4.29Zm4.486,8.742H64.5v55.9H60.221V36.611a2.152,2.152,0,0,0-2.145-2.288H15.168a2.324,2.324,0,0,0-2.16,2.288V68.932H8.776ZM17.3,50.1H23.74v7.2H17.3Zm10.732,0h6.436v7.2H28.03Zm10.726,0h6.436v7.2H38.756Zm10.726,0H55.93v7.2H49.482Zm6.448-4.29H49.482v-7.2H55.93Zm-10.739,0H38.756v-7.2h6.436Zm-10.726,0H28.03v-7.2h6.436Zm-10.726,0H17.3v-7.2H23.74ZM17.3,61.59H23.74v7.341H17.3Zm10.732,0h6.436v7.341H28.03Zm10.726,0h6.436v7.341H38.756Zm10.726,0H55.93v7.341H49.482Z" transform="translate(0)"/><path class="a" d="M212.643,129.569h2.221v2.22a2.145,2.145,0,0,0,4.29,0v-2.22h2.221a2.145,2.145,0,0,0,0-4.29h-2.221v-2.22a2.145,2.145,0,0,0-4.29,0v2.22h-2.221a2.145,2.145,0,0,0,0,4.29Z" transform="translate(-180.394 -103.621)"/></g><g transform="translate(309.102 7036)"><path class="b" d="M71.077,68.932H68.788v-55.9H71.07a2.145,2.145,0,0,0,2.145-2.145V2.145A2.145,2.145,0,0,0,71.07,0H2.145A2.145,2.145,0,0,0,0,2.145v8.742a2.145,2.145,0,0,0,2.145,2.145H4.486v55.9H2.152a2.145,2.145,0,0,0,0,4.29H71.077a2.145,2.145,0,1,0,0-4.29ZM4.29,4.29H68.924V8.742H4.29Zm4.486,8.742H64.5v55.9H60.221V36.611a2.152,2.152,0,0,0-2.145-2.288H15.168a2.324,2.324,0,0,0-2.16,2.288V68.932H8.776ZM17.3,50.1H23.74v7.2H17.3Zm10.732,0h6.436v7.2H28.03Zm10.726,0h6.436v7.2H38.756Zm10.726,0H55.93v7.2H49.482Zm6.448-4.29H49.482v-7.2H55.93Zm-10.739,0H38.756v-7.2h6.436Zm-10.726,0H28.03v-7.2h6.436Zm-10.726,0H17.3v-7.2H23.74ZM17.3,61.59H23.74v7.341H17.3Zm10.732,0h6.436v7.341H28.03Zm10.726,0h6.436v7.341H38.756Zm10.726,0H55.93v7.341H49.482Z" transform="translate(0)"/><path class="b" d="M212.643,129.569h2.221v2.22a2.145,2.145,0,0,0,4.29,0v-2.22h2.221a2.145,2.145,0,0,0,0-4.29h-2.221v-2.22a2.145,2.145,0,0,0-4.29,0v2.22h-2.221a2.145,2.145,0,0,0,0,4.29Z" transform="translate(-180.394 -103.621)"/></g></g></svg>