<svg xmlns="http://www.w3.org/2000/svg" width="220.816" height="136.836" viewBox="0 0 220.816 136.836"><defs><style>.a{fill:#f38500;stroke:#f38500;}.b{fill:#6fad76;stroke:#6fad76;}</style></defs><g transform="translate(-279.213 -6576.204)"><g transform="translate(242.985 6621.706)"><g transform="translate(71.973 3.375)"><path class="a" d="M241.355,21.362h-1.009v-1.01a1.326,1.326,0,0,0-2.653,0v1.01h-1.009a1.326,1.326,0,1,0,0,2.653h1.009v1.009a1.326,1.326,0,0,0,2.653,0V24.015h1.009a1.326,1.326,0,1,0,0-2.653Z" transform="translate(-235.357 -19.026)"/></g><g transform="translate(36.736 0)"><g transform="translate(0)"><path class="a" d="M114.479,86.3,110.6,63.6a6.5,6.5,0,0,0-4.557-5.16l-17.4-5.25a2.891,2.891,0,0,0-2.225.23,3.356,3.356,0,0,1-1.069-2.364V46.716l.135-.116.211-.185h1.7A8.475,8.475,0,0,0,95.859,37.4l-.472-7.462v-.112a4,4,0,0,0-.045-.6l-.529-8.357a1.326,1.326,0,1,0-2.647.167l.313,4.945a3.987,3.987,0,0,0-1.088-.152h-.074a2.4,2.4,0,0,0-1.8-1.068c-13.768-1.239-17.732-5.351-20.627-8.353-.6-.624-1.588-.672-2.933-.142a10.253,10.253,0,0,0-6.4,9.212c0,.007,0,.015,0,.022v.343a3.98,3.98,0,0,0-.767.139l.409-6.463a11.143,11.143,0,0,1,4.71-8.452l.1.262a4.553,4.553,0,0,0,4.228,2.909H83.378a4.553,4.553,0,0,0,4.228-2.909l.023-.061A11.183,11.183,0,0,1,91,15.391a1.326,1.326,0,0,0,2.393-1.145,13.824,13.824,0,0,0-4.781-5.531l.913-2.387A3.3,3.3,0,0,0,87.1,1.917L79.485.371a18.369,18.369,0,0,0-7.354,0L64.519,1.917A3.3,3.3,0,0,0,62.1,6.327l.843,2.2a13.776,13.776,0,0,0-6.385,10.825l-.629,9.929a3.988,3.988,0,0,0-.042.546v.112L55.412,37.4a8.475,8.475,0,0,0,8.458,9.011h1.7l.211.185.135.116v4.344a3.355,3.355,0,0,1-1.069,2.364,2.89,2.89,0,0,0-2.225-.23l-17.4,5.25a6.5,6.5,0,0,0-4.557,5.16l-1.456,8.525a1.326,1.326,0,1,0,2.615.447l1.456-8.525a3.865,3.865,0,0,1,2.709-3.067l17.4-5.25a.245.245,0,0,1,.289.124h0L71.989,72.27a4.083,4.083,0,0,0,7.292,0l8.308-16.414a.243.243,0,0,1,.289-.124l17.4,5.25a3.864,3.864,0,0,1,2.709,3.067l3.876,22.693a1.231,1.231,0,0,1-1.213,1.438h-8.217L100.267,75.49a1.326,1.326,0,0,0-2.615.447L99.743,88.18H51.527l2.091-12.244A1.326,1.326,0,0,0,51,75.49L48.836,88.181H40.619a1.231,1.231,0,0,1-1.213-1.438l1.349-7.9a1.326,1.326,0,0,0-2.615-.447l-1.349,7.9a3.883,3.883,0,0,0,3.828,4.537h70.032a3.883,3.883,0,0,0,3.828-4.536ZM64.611,4.838a.637.637,0,0,1,.437-.321L72.66,2.971a15.745,15.745,0,0,1,6.3,0L86.57,4.517h0a.645.645,0,0,1,.474.863l-1.916,5.006a1.885,1.885,0,0,1-1.75,1.2H68.239a1.885,1.885,0,0,1-1.75-1.2L64.573,5.38A.637.637,0,0,1,64.611,4.838Zm28.6,32.734A5.827,5.827,0,0,1,88.3,43.694,14.754,14.754,0,0,0,91.6,36.78a3.962,3.962,0,0,0,1.539-.4ZM59.625,41.925a5.766,5.766,0,0,1-1.566-4.353l.075-1.192a3.965,3.965,0,0,0,1.539.4,14.754,14.754,0,0,0,3.294,6.914A5.759,5.759,0,0,1,59.625,41.925ZM77.081,70.744l-.166.329a1.511,1.511,0,0,1-.079.133c-.009.014-.016.029-.025.042s-.036.045-.054.068a1.42,1.42,0,0,1-.211.222c-.016.013-.035.024-.052.037a1.436,1.436,0,0,1-2.138-.5L68.848,60.19H82.423Zm6.685-13.207H67.5L66.48,55.513a5.988,5.988,0,0,0,2.093-4.454V48.771a12.693,12.693,0,0,0,7.048,2.018h.029A12.7,12.7,0,0,0,82.7,48.771V51.06a5.987,5.987,0,0,0,2.093,4.454ZM83.754,44.59c-2.453,2.112-4.344,3.5-8.119,3.546-3.775-.046-5.666-1.434-8.119-3.546-3.256-2.8-5.238-6.228-5.3-9.159a1.326,1.326,0,0,0-1.326-1.3H59.88a1.345,1.345,0,0,1-1.343-1.343V29.831a1.341,1.341,0,0,1,.014-.182c0-.02.007-.041.009-.061a1.345,1.345,0,0,1,1.32-1.1h1.006a1.326,1.326,0,0,0,1.326-1.326V25.517A7.583,7.583,0,0,1,67.323,18.6c3.89,3.968,8.67,7.576,21.756,8.787a1.327,1.327,0,0,0,1.307,1.1h1.006a1.345,1.345,0,0,1,1.32,1.1c0,.021.006.041.009.061a1.335,1.335,0,0,1,.014.182v2.958a1.345,1.345,0,0,1-1.343,1.343h-1.01a1.326,1.326,0,0,0-1.326,1.3C88.992,38.362,87.011,41.786,83.754,44.59Z" transform="translate(-36.736 0)"/></g></g></g><g transform="translate(384.985 6621.706)"><g transform="translate(71.973 3.375)"><path class="a" d="M241.355,21.362h-1.009v-1.01a1.326,1.326,0,0,0-2.653,0v1.01h-1.009a1.326,1.326,0,1,0,0,2.653h1.009v1.009a1.326,1.326,0,0,0,2.653,0V24.015h1.009a1.326,1.326,0,1,0,0-2.653Z" transform="translate(-235.357 -19.026)"/></g><g transform="translate(36.736 0)"><g transform="translate(0)"><path class="a" d="M114.479,86.3,110.6,63.6a6.5,6.5,0,0,0-4.557-5.16l-17.4-5.25a2.891,2.891,0,0,0-2.225.23,3.356,3.356,0,0,1-1.069-2.364V46.716l.135-.116.211-.185h1.7A8.475,8.475,0,0,0,95.859,37.4l-.472-7.462v-.112a4,4,0,0,0-.045-.6l-.529-8.357a1.326,1.326,0,1,0-2.647.167l.313,4.945a3.987,3.987,0,0,0-1.088-.152h-.074a2.4,2.4,0,0,0-1.8-1.068c-13.768-1.239-17.732-5.351-20.627-8.353-.6-.624-1.588-.672-2.933-.142a10.253,10.253,0,0,0-6.4,9.212c0,.007,0,.015,0,.022v.343a3.98,3.98,0,0,0-.767.139l.409-6.463a11.143,11.143,0,0,1,4.71-8.452l.1.262a4.553,4.553,0,0,0,4.228,2.909H83.378a4.553,4.553,0,0,0,4.228-2.909l.023-.061A11.183,11.183,0,0,1,91,15.391a1.326,1.326,0,0,0,2.393-1.145,13.824,13.824,0,0,0-4.781-5.531l.913-2.387A3.3,3.3,0,0,0,87.1,1.917L79.485.371a18.369,18.369,0,0,0-7.354,0L64.519,1.917A3.3,3.3,0,0,0,62.1,6.327l.843,2.2a13.776,13.776,0,0,0-6.385,10.825l-.629,9.929a3.988,3.988,0,0,0-.042.546v.112L55.412,37.4a8.475,8.475,0,0,0,8.458,9.011h1.7l.211.185.135.116v4.344a3.355,3.355,0,0,1-1.069,2.364,2.89,2.89,0,0,0-2.225-.23l-17.4,5.25a6.5,6.5,0,0,0-4.557,5.16l-1.456,8.525a1.326,1.326,0,1,0,2.615.447l1.456-8.525a3.865,3.865,0,0,1,2.709-3.067l17.4-5.25a.245.245,0,0,1,.289.124h0L71.989,72.27a4.083,4.083,0,0,0,7.292,0l8.308-16.414a.243.243,0,0,1,.289-.124l17.4,5.25a3.864,3.864,0,0,1,2.709,3.067l3.876,22.693a1.231,1.231,0,0,1-1.213,1.438h-8.217L100.267,75.49a1.326,1.326,0,0,0-2.615.447L99.743,88.18H51.527l2.091-12.244A1.326,1.326,0,0,0,51,75.49L48.836,88.181H40.619a1.231,1.231,0,0,1-1.213-1.438l1.349-7.9a1.326,1.326,0,0,0-2.615-.447l-1.349,7.9a3.883,3.883,0,0,0,3.828,4.537h70.032a3.883,3.883,0,0,0,3.828-4.536ZM64.611,4.838a.637.637,0,0,1,.437-.321L72.66,2.971a15.745,15.745,0,0,1,6.3,0L86.57,4.517h0a.645.645,0,0,1,.474.863l-1.916,5.006a1.885,1.885,0,0,1-1.75,1.2H68.239a1.885,1.885,0,0,1-1.75-1.2L64.573,5.38A.637.637,0,0,1,64.611,4.838Zm28.6,32.734A5.827,5.827,0,0,1,88.3,43.694,14.754,14.754,0,0,0,91.6,36.78a3.962,3.962,0,0,0,1.539-.4ZM59.625,41.925a5.766,5.766,0,0,1-1.566-4.353l.075-1.192a3.965,3.965,0,0,0,1.539.4,14.754,14.754,0,0,0,3.294,6.914A5.759,5.759,0,0,1,59.625,41.925ZM77.081,70.744l-.166.329a1.511,1.511,0,0,1-.079.133c-.009.014-.016.029-.025.042s-.036.045-.054.068a1.42,1.42,0,0,1-.211.222c-.016.013-.035.024-.052.037a1.436,1.436,0,0,1-2.138-.5L68.848,60.19H82.423Zm6.685-13.207H67.5L66.48,55.513a5.988,5.988,0,0,0,2.093-4.454V48.771a12.693,12.693,0,0,0,7.048,2.018h.029A12.7,12.7,0,0,0,82.7,48.771V51.06a5.987,5.987,0,0,0,2.093,4.454ZM83.754,44.59c-2.453,2.112-4.344,3.5-8.119,3.546-3.775-.046-5.666-1.434-8.119-3.546-3.256-2.8-5.238-6.228-5.3-9.159a1.326,1.326,0,0,0-1.326-1.3H59.88a1.345,1.345,0,0,1-1.343-1.343V29.831a1.341,1.341,0,0,1,.014-.182c0-.02.007-.041.009-.061a1.345,1.345,0,0,1,1.32-1.1h1.006a1.326,1.326,0,0,0,1.326-1.326V25.517A7.583,7.583,0,0,1,67.323,18.6c3.89,3.968,8.67,7.576,21.756,8.787a1.327,1.327,0,0,0,1.307,1.1h1.006a1.345,1.345,0,0,1,1.32,1.1c0,.021.006.041.009.061a1.335,1.335,0,0,1,.014.182v2.958a1.345,1.345,0,0,1-1.343,1.343h-1.01a1.326,1.326,0,0,0-1.326,1.3C88.992,38.362,87.011,41.786,83.754,44.59Z" transform="translate(-36.736 0)"/></g></g></g><g transform="translate(313.985 6576.706)"><g transform="translate(71.973 3.375)"><path class="b" d="M241.355,21.362h-1.009v-1.01a1.326,1.326,0,0,0-2.653,0v1.01h-1.009a1.326,1.326,0,1,0,0,2.653h1.009v1.009a1.326,1.326,0,0,0,2.653,0V24.015h1.009a1.326,1.326,0,1,0,0-2.653Z" transform="translate(-235.357 -19.026)"/></g><g transform="translate(36.736 0)"><g transform="translate(0)"><path class="b" d="M114.479,86.3,110.6,63.6a6.5,6.5,0,0,0-4.557-5.16l-17.4-5.25a2.891,2.891,0,0,0-2.225.23,3.356,3.356,0,0,1-1.069-2.364V46.716l.135-.116.211-.185h1.7A8.475,8.475,0,0,0,95.859,37.4l-.472-7.462v-.112a4,4,0,0,0-.045-.6l-.529-8.357a1.326,1.326,0,1,0-2.647.167l.313,4.945a3.987,3.987,0,0,0-1.088-.152h-.074a2.4,2.4,0,0,0-1.8-1.068c-13.768-1.239-17.732-5.351-20.627-8.353-.6-.624-1.588-.672-2.933-.142a10.253,10.253,0,0,0-6.4,9.212c0,.007,0,.015,0,.022v.343a3.98,3.98,0,0,0-.767.139l.409-6.463a11.143,11.143,0,0,1,4.71-8.452l.1.262a4.553,4.553,0,0,0,4.228,2.909H83.378a4.553,4.553,0,0,0,4.228-2.909l.023-.061A11.183,11.183,0,0,1,91,15.391a1.326,1.326,0,0,0,2.393-1.145,13.824,13.824,0,0,0-4.781-5.531l.913-2.387A3.3,3.3,0,0,0,87.1,1.917L79.485.371a18.369,18.369,0,0,0-7.354,0L64.519,1.917A3.3,3.3,0,0,0,62.1,6.327l.843,2.2a13.776,13.776,0,0,0-6.385,10.825l-.629,9.929a3.988,3.988,0,0,0-.042.546v.112L55.412,37.4a8.475,8.475,0,0,0,8.458,9.011h1.7l.211.185.135.116v4.344a3.355,3.355,0,0,1-1.069,2.364,2.89,2.89,0,0,0-2.225-.23l-17.4,5.25a6.5,6.5,0,0,0-4.557,5.16l-1.456,8.525a1.326,1.326,0,1,0,2.615.447l1.456-8.525a3.865,3.865,0,0,1,2.709-3.067l17.4-5.25a.245.245,0,0,1,.289.124h0L71.989,72.27a4.083,4.083,0,0,0,7.292,0l8.308-16.414a.243.243,0,0,1,.289-.124l17.4,5.25a3.864,3.864,0,0,1,2.709,3.067l3.876,22.693a1.231,1.231,0,0,1-1.213,1.438h-8.217L100.267,75.49a1.326,1.326,0,0,0-2.615.447L99.743,88.18H51.527l2.091-12.244A1.326,1.326,0,0,0,51,75.49L48.836,88.181H40.619a1.231,1.231,0,0,1-1.213-1.438l1.349-7.9a1.326,1.326,0,0,0-2.615-.447l-1.349,7.9a3.883,3.883,0,0,0,3.828,4.537h70.032a3.883,3.883,0,0,0,3.828-4.536ZM64.611,4.838a.637.637,0,0,1,.437-.321L72.66,2.971a15.745,15.745,0,0,1,6.3,0L86.57,4.517h0a.645.645,0,0,1,.474.863l-1.916,5.006a1.885,1.885,0,0,1-1.75,1.2H68.239a1.885,1.885,0,0,1-1.75-1.2L64.573,5.38A.637.637,0,0,1,64.611,4.838Zm28.6,32.734A5.827,5.827,0,0,1,88.3,43.694,14.754,14.754,0,0,0,91.6,36.78a3.962,3.962,0,0,0,1.539-.4ZM59.625,41.925a5.766,5.766,0,0,1-1.566-4.353l.075-1.192a3.965,3.965,0,0,0,1.539.4,14.754,14.754,0,0,0,3.294,6.914A5.759,5.759,0,0,1,59.625,41.925ZM77.081,70.744l-.166.329a1.511,1.511,0,0,1-.079.133c-.009.014-.016.029-.025.042s-.036.045-.054.068a1.42,1.42,0,0,1-.211.222c-.016.013-.035.024-.052.037a1.436,1.436,0,0,1-2.138-.5L68.848,60.19H82.423Zm6.685-13.207H67.5L66.48,55.513a5.988,5.988,0,0,0,2.093-4.454V48.771a12.693,12.693,0,0,0,7.048,2.018h.029A12.7,12.7,0,0,0,82.7,48.771V51.06a5.987,5.987,0,0,0,2.093,4.454ZM83.754,44.59c-2.453,2.112-4.344,3.5-8.119,3.546-3.775-.046-5.666-1.434-8.119-3.546-3.256-2.8-5.238-6.228-5.3-9.159a1.326,1.326,0,0,0-1.326-1.3H59.88a1.345,1.345,0,0,1-1.343-1.343V29.831a1.341,1.341,0,0,1,.014-.182c0-.02.007-.041.009-.061a1.345,1.345,0,0,1,1.32-1.1h1.006a1.326,1.326,0,0,0,1.326-1.326V25.517A7.583,7.583,0,0,1,67.323,18.6c3.89,3.968,8.67,7.576,21.756,8.787a1.327,1.327,0,0,0,1.307,1.1h1.006a1.345,1.345,0,0,1,1.32,1.1c0,.021.006.041.009.061a1.335,1.335,0,0,1,.014.182v2.958a1.345,1.345,0,0,1-1.343,1.343h-1.01a1.326,1.326,0,0,0-1.326,1.3C88.992,38.362,87.011,41.786,83.754,44.59Z" transform="translate(-36.736 0)"/></g></g></g></g></svg>