<svg xmlns="http://www.w3.org/2000/svg" width="140" height="105.336" viewBox="0 0 140 105.336"><defs><style>.a{fill:#6fad76;}.b{fill:#fff;}.c{fill:#f38800;}</style></defs><g transform="translate(-337 -6148.045)"><g transform="translate(356.116 6148.045)"><path class="a" d="M105.64,10.858a5.429,5.429,0,1,0-5.429-5.428A5.435,5.435,0,0,0,105.64,10.858Zm0-8.206a2.777,2.777,0,1,1-2.777,2.777A2.78,2.78,0,0,1,105.64,2.652Z" transform="translate(-98.279 0)"/><path class="a" d="M98.743,68.914H94.58a5.3,5.3,0,0,0-5.3,5.3v8.927a5.287,5.287,0,0,0,2.116,4.23v14.365a1.326,1.326,0,0,0,2.652,0V86.648a1.325,1.325,0,0,0-.708-1.173,2.647,2.647,0,0,1-1.408-2.336V74.212a2.648,2.648,0,0,1,2.645-2.645h4.163a2.648,2.648,0,0,1,2.645,2.645v8.927a2.648,2.648,0,0,1-1.409,2.337,1.325,1.325,0,0,0-.707,1.172v15.086a1.326,1.326,0,0,0,2.652,0V87.369a5.286,5.286,0,0,0,2.116-4.23V74.212A5.3,5.3,0,0,0,98.743,68.914Z" transform="translate(-89.283 -56.728)"/></g><g transform="translate(374.008 6148.045)"><path class="a" d="M105.64,10.858a5.429,5.429,0,1,0-5.429-5.428A5.435,5.435,0,0,0,105.64,10.858Zm0-8.206a2.777,2.777,0,1,1-2.777,2.777A2.78,2.78,0,0,1,105.64,2.652Z" transform="translate(-98.279 0)"/><path class="a" d="M98.743,68.914H94.58a5.3,5.3,0,0,0-5.3,5.3v8.927a5.287,5.287,0,0,0,2.116,4.23v14.365a1.326,1.326,0,0,0,2.652,0V86.648a1.325,1.325,0,0,0-.708-1.173,2.647,2.647,0,0,1-1.408-2.336V74.212a2.648,2.648,0,0,1,2.645-2.645h4.163a2.648,2.648,0,0,1,2.645,2.645v8.927a2.648,2.648,0,0,1-1.409,2.337,1.325,1.325,0,0,0-.707,1.172v15.086a1.326,1.326,0,0,0,2.652,0V87.369a5.286,5.286,0,0,0,2.116-4.23V74.212A5.3,5.3,0,0,0,98.743,68.914Z" transform="translate(-89.283 -56.728)"/></g><g transform="translate(391.9 6148.045)"><path class="a" d="M105.64,10.858a5.429,5.429,0,1,0-5.429-5.428A5.435,5.435,0,0,0,105.64,10.858Zm0-8.206a2.777,2.777,0,1,1-2.777,2.777A2.78,2.78,0,0,1,105.64,2.652Z" transform="translate(-98.279 0)"/><path class="a" d="M98.743,68.914H94.58a5.3,5.3,0,0,0-5.3,5.3v8.927a5.287,5.287,0,0,0,2.116,4.23v14.365a1.326,1.326,0,0,0,2.652,0V86.648a1.325,1.325,0,0,0-.708-1.173,2.647,2.647,0,0,1-1.408-2.336V74.212a2.648,2.648,0,0,1,2.645-2.645h4.163a2.648,2.648,0,0,1,2.645,2.645v8.927a2.648,2.648,0,0,1-1.409,2.337,1.325,1.325,0,0,0-.707,1.172v15.086a1.326,1.326,0,0,0,2.652,0V87.369a5.286,5.286,0,0,0,2.116-4.23V74.212A5.3,5.3,0,0,0,98.743,68.914Z" transform="translate(-89.283 -56.728)"/></g><g transform="translate(409.792 6148.045)"><path class="a" d="M105.64,10.858a5.429,5.429,0,1,0-5.429-5.428A5.435,5.435,0,0,0,105.64,10.858Zm0-8.206a2.777,2.777,0,1,1-2.777,2.777A2.78,2.78,0,0,1,105.64,2.652Z" transform="translate(-98.279 0)"/><path class="a" d="M98.743,68.914H94.58a5.3,5.3,0,0,0-5.3,5.3v8.927a5.287,5.287,0,0,0,2.116,4.23v14.365a1.326,1.326,0,0,0,2.652,0V86.648a1.325,1.325,0,0,0-.708-1.173,2.647,2.647,0,0,1-1.408-2.336V74.212a2.648,2.648,0,0,1,2.645-2.645h4.163a2.648,2.648,0,0,1,2.645,2.645v8.927a2.648,2.648,0,0,1-1.409,2.337,1.325,1.325,0,0,0-.707,1.172v15.086a1.326,1.326,0,0,0,2.652,0V87.369a5.286,5.286,0,0,0,2.116-4.23V74.212A5.3,5.3,0,0,0,98.743,68.914Z" transform="translate(-89.283 -56.728)"/></g><g transform="translate(427.683 6148.045)"><path class="a" d="M105.64,10.858a5.429,5.429,0,1,0-5.429-5.428A5.435,5.435,0,0,0,105.64,10.858Zm0-8.206a2.777,2.777,0,1,1-2.777,2.777A2.78,2.78,0,0,1,105.64,2.652Z" transform="translate(-98.279 0)"/><path class="a" d="M98.743,68.914H94.58a5.3,5.3,0,0,0-5.3,5.3v8.927a5.287,5.287,0,0,0,2.116,4.23v14.365a1.326,1.326,0,0,0,2.652,0V86.648a1.325,1.325,0,0,0-.708-1.173,2.647,2.647,0,0,1-1.408-2.336V74.212a2.648,2.648,0,0,1,2.645-2.645h4.163a2.648,2.648,0,0,1,2.645,2.645v8.927a2.648,2.648,0,0,1-1.409,2.337,1.325,1.325,0,0,0-.707,1.172v15.086a1.326,1.326,0,0,0,2.652,0V87.369a5.286,5.286,0,0,0,2.116-4.23V74.212A5.3,5.3,0,0,0,98.743,68.914Z" transform="translate(-89.283 -56.728)"/></g><g transform="translate(445.575 6148.045)"><path class="a" d="M105.64,10.858a5.429,5.429,0,1,0-5.429-5.428A5.435,5.435,0,0,0,105.64,10.858Zm0-8.206a2.777,2.777,0,1,1-2.777,2.777A2.78,2.78,0,0,1,105.64,2.652Z" transform="translate(-98.279 0)"/><path class="a" d="M98.743,68.914H94.58a5.3,5.3,0,0,0-5.3,5.3v8.927a5.287,5.287,0,0,0,2.116,4.23v14.365a1.326,1.326,0,0,0,2.652,0V86.648a1.325,1.325,0,0,0-.708-1.173,2.647,2.647,0,0,1-1.408-2.336V74.212a2.648,2.648,0,0,1,2.645-2.645h4.163a2.648,2.648,0,0,1,2.645,2.645v8.927a2.648,2.648,0,0,1-1.409,2.337,1.325,1.325,0,0,0-.707,1.172v15.086a1.326,1.326,0,0,0,2.652,0V87.369a5.286,5.286,0,0,0,2.116-4.23V74.212A5.3,5.3,0,0,0,98.743,68.914Z" transform="translate(-89.283 -56.728)"/></g><rect class="b" width="140" height="49" transform="translate(337 6174)"/><g transform="translate(347.224 6178.045)"><path class="a" d="M105.64,10.858a5.429,5.429,0,1,0-5.429-5.428A5.435,5.435,0,0,0,105.64,10.858Zm0-8.206a2.777,2.777,0,1,1-2.777,2.777A2.78,2.78,0,0,1,105.64,2.652Z" transform="translate(-98.279 0)"/><path class="a" d="M98.743,68.914H94.58a5.3,5.3,0,0,0-5.3,5.3v8.927a5.287,5.287,0,0,0,2.116,4.23v14.365a1.326,1.326,0,0,0,2.652,0V86.648a1.325,1.325,0,0,0-.708-1.173,2.647,2.647,0,0,1-1.408-2.336V74.212a2.648,2.648,0,0,1,2.645-2.645h4.163a2.648,2.648,0,0,1,2.645,2.645v8.927a2.648,2.648,0,0,1-1.409,2.337,1.325,1.325,0,0,0-.707,1.172v15.086a1.326,1.326,0,0,0,2.652,0V87.369a5.286,5.286,0,0,0,2.116-4.23V74.212A5.3,5.3,0,0,0,98.743,68.914Z" transform="translate(-89.283 -56.728)"/></g><g transform="translate(365.116 6178.045)"><path class="a" d="M105.64,10.858a5.429,5.429,0,1,0-5.429-5.428A5.435,5.435,0,0,0,105.64,10.858Zm0-8.206a2.777,2.777,0,1,1-2.777,2.777A2.78,2.78,0,0,1,105.64,2.652Z" transform="translate(-98.279 0)"/><path class="a" d="M98.743,68.914H94.58a5.3,5.3,0,0,0-5.3,5.3v8.927a5.287,5.287,0,0,0,2.116,4.23v14.365a1.326,1.326,0,0,0,2.652,0V86.648a1.325,1.325,0,0,0-.708-1.173,2.647,2.647,0,0,1-1.408-2.336V74.212a2.648,2.648,0,0,1,2.645-2.645h4.163a2.648,2.648,0,0,1,2.645,2.645v8.927a2.648,2.648,0,0,1-1.409,2.337,1.325,1.325,0,0,0-.707,1.172v15.086a1.326,1.326,0,0,0,2.652,0V87.369a5.286,5.286,0,0,0,2.116-4.23V74.212A5.3,5.3,0,0,0,98.743,68.914Z" transform="translate(-89.283 -56.728)"/></g><g transform="translate(383.008 6178.045)"><path class="a" d="M105.64,10.858a5.429,5.429,0,1,0-5.429-5.428A5.435,5.435,0,0,0,105.64,10.858Zm0-8.206a2.777,2.777,0,1,1-2.777,2.777A2.78,2.78,0,0,1,105.64,2.652Z" transform="translate(-98.279 0)"/><path class="a" d="M98.743,68.914H94.58a5.3,5.3,0,0,0-5.3,5.3v8.927a5.287,5.287,0,0,0,2.116,4.23v14.365a1.326,1.326,0,0,0,2.652,0V86.648a1.325,1.325,0,0,0-.708-1.173,2.647,2.647,0,0,1-1.408-2.336V74.212a2.648,2.648,0,0,1,2.645-2.645h4.163a2.648,2.648,0,0,1,2.645,2.645v8.927a2.648,2.648,0,0,1-1.409,2.337,1.325,1.325,0,0,0-.707,1.172v15.086a1.326,1.326,0,0,0,2.652,0V87.369a5.286,5.286,0,0,0,2.116-4.23V74.212A5.3,5.3,0,0,0,98.743,68.914Z" transform="translate(-89.283 -56.728)"/></g><g transform="translate(400.9 6178.045)"><path class="a" d="M105.64,10.858a5.429,5.429,0,1,0-5.429-5.428A5.435,5.435,0,0,0,105.64,10.858Zm0-8.206a2.777,2.777,0,1,1-2.777,2.777A2.78,2.78,0,0,1,105.64,2.652Z" transform="translate(-98.279 0)"/><path class="a" d="M98.743,68.914H94.58a5.3,5.3,0,0,0-5.3,5.3v8.927a5.287,5.287,0,0,0,2.116,4.23v14.365a1.326,1.326,0,0,0,2.652,0V86.648a1.325,1.325,0,0,0-.708-1.173,2.647,2.647,0,0,1-1.408-2.336V74.212a2.648,2.648,0,0,1,2.645-2.645h4.163a2.648,2.648,0,0,1,2.645,2.645v8.927a2.648,2.648,0,0,1-1.409,2.337,1.325,1.325,0,0,0-.707,1.172v15.086a1.326,1.326,0,0,0,2.652,0V87.369a5.286,5.286,0,0,0,2.116-4.23V74.212A5.3,5.3,0,0,0,98.743,68.914Z" transform="translate(-89.283 -56.728)"/></g><g transform="translate(418.792 6178.045)"><path class="a" d="M105.64,10.858a5.429,5.429,0,1,0-5.429-5.428A5.435,5.435,0,0,0,105.64,10.858Zm0-8.206a2.777,2.777,0,1,1-2.777,2.777A2.78,2.78,0,0,1,105.64,2.652Z" transform="translate(-98.279 0)"/><path class="a" d="M98.743,68.914H94.58a5.3,5.3,0,0,0-5.3,5.3v8.927a5.287,5.287,0,0,0,2.116,4.23v14.365a1.326,1.326,0,0,0,2.652,0V86.648a1.325,1.325,0,0,0-.708-1.173,2.647,2.647,0,0,1-1.408-2.336V74.212a2.648,2.648,0,0,1,2.645-2.645h4.163a2.648,2.648,0,0,1,2.645,2.645v8.927a2.648,2.648,0,0,1-1.409,2.337,1.325,1.325,0,0,0-.707,1.172v15.086a1.326,1.326,0,0,0,2.652,0V87.369a5.286,5.286,0,0,0,2.116-4.23V74.212A5.3,5.3,0,0,0,98.743,68.914Z" transform="translate(-89.283 -56.728)"/></g><g transform="translate(436.683 6178.045)"><path class="a" d="M105.64,10.858a5.429,5.429,0,1,0-5.429-5.428A5.435,5.435,0,0,0,105.64,10.858Zm0-8.206a2.777,2.777,0,1,1-2.777,2.777A2.78,2.78,0,0,1,105.64,2.652Z" transform="translate(-98.279 0)"/><path class="a" d="M98.743,68.914H94.58a5.3,5.3,0,0,0-5.3,5.3v8.927a5.287,5.287,0,0,0,2.116,4.23v14.365a1.326,1.326,0,0,0,2.652,0V86.648a1.325,1.325,0,0,0-.708-1.173,2.647,2.647,0,0,1-1.408-2.336V74.212a2.648,2.648,0,0,1,2.645-2.645h4.163a2.648,2.648,0,0,1,2.645,2.645v8.927a2.648,2.648,0,0,1-1.409,2.337,1.325,1.325,0,0,0-.707,1.172v15.086a1.326,1.326,0,0,0,2.652,0V87.369a5.286,5.286,0,0,0,2.116-4.23V74.212A5.3,5.3,0,0,0,98.743,68.914Z" transform="translate(-89.283 -56.728)"/></g><g transform="translate(454.575 6178.045)"><path class="a" d="M105.64,10.858a5.429,5.429,0,1,0-5.429-5.428A5.435,5.435,0,0,0,105.64,10.858Zm0-8.206a2.777,2.777,0,1,1-2.777,2.777A2.78,2.78,0,0,1,105.64,2.652Z" transform="translate(-98.279 0)"/><path class="a" d="M98.743,68.914H94.58a5.3,5.3,0,0,0-5.3,5.3v8.927a5.287,5.287,0,0,0,2.116,4.23v14.365a1.326,1.326,0,0,0,2.652,0V86.648a1.325,1.325,0,0,0-.708-1.173,2.647,2.647,0,0,1-1.408-2.336V74.212a2.648,2.648,0,0,1,2.645-2.645h4.163a2.648,2.648,0,0,1,2.645,2.645v8.927a2.648,2.648,0,0,1-1.409,2.337,1.325,1.325,0,0,0-.707,1.172v15.086a1.326,1.326,0,0,0,2.652,0V87.369a5.286,5.286,0,0,0,2.116-4.23V74.212A5.3,5.3,0,0,0,98.743,68.914Z" transform="translate(-89.283 -56.728)"/></g><rect class="b" width="140" height="49" transform="translate(337 6204)"/><g transform="translate(337 6207.049)"><path class="c" d="M105.64,10.858a5.429,5.429,0,1,0-5.429-5.428A5.435,5.435,0,0,0,105.64,10.858Zm0-8.206a2.777,2.777,0,1,1-2.777,2.777A2.78,2.78,0,0,1,105.64,2.652Z" transform="translate(-98.279 0)"/><path class="c" d="M98.743,68.914H94.58a5.3,5.3,0,0,0-5.3,5.3v8.927a5.287,5.287,0,0,0,2.116,4.23v14.365a1.326,1.326,0,0,0,2.652,0V86.648a1.325,1.325,0,0,0-.708-1.173,2.647,2.647,0,0,1-1.408-2.336V74.212a2.648,2.648,0,0,1,2.645-2.645h4.163a2.648,2.648,0,0,1,2.645,2.645v8.927a2.648,2.648,0,0,1-1.409,2.337,1.325,1.325,0,0,0-.707,1.172v15.086a1.326,1.326,0,0,0,2.652,0V87.369a5.286,5.286,0,0,0,2.116-4.23V74.212A5.3,5.3,0,0,0,98.743,68.914Z" transform="translate(-89.283 -56.728)"/></g><g transform="translate(354.892 6207.049)"><path class="c" d="M105.64,10.858a5.429,5.429,0,1,0-5.429-5.428A5.435,5.435,0,0,0,105.64,10.858Zm0-8.206a2.777,2.777,0,1,1-2.777,2.777A2.78,2.78,0,0,1,105.64,2.652Z" transform="translate(-98.279 0)"/><path class="c" d="M98.743,68.914H94.58a5.3,5.3,0,0,0-5.3,5.3v8.927a5.287,5.287,0,0,0,2.116,4.23v14.365a1.326,1.326,0,0,0,2.652,0V86.648a1.325,1.325,0,0,0-.708-1.173,2.647,2.647,0,0,1-1.408-2.336V74.212a2.648,2.648,0,0,1,2.645-2.645h4.163a2.648,2.648,0,0,1,2.645,2.645v8.927a2.648,2.648,0,0,1-1.409,2.337,1.325,1.325,0,0,0-.707,1.172v15.086a1.326,1.326,0,0,0,2.652,0V87.369a5.286,5.286,0,0,0,2.116-4.23V74.212A5.3,5.3,0,0,0,98.743,68.914Z" transform="translate(-89.283 -56.728)"/></g><g transform="translate(372.784 6207.049)"><path class="c" d="M105.64,10.858a5.429,5.429,0,1,0-5.429-5.428A5.435,5.435,0,0,0,105.64,10.858Zm0-8.206a2.777,2.777,0,1,1-2.777,2.777A2.78,2.78,0,0,1,105.64,2.652Z" transform="translate(-98.279 0)"/><path class="c" d="M98.743,68.914H94.58a5.3,5.3,0,0,0-5.3,5.3v8.927a5.287,5.287,0,0,0,2.116,4.23v14.365a1.326,1.326,0,0,0,2.652,0V86.648a1.325,1.325,0,0,0-.708-1.173,2.647,2.647,0,0,1-1.408-2.336V74.212a2.648,2.648,0,0,1,2.645-2.645h4.163a2.648,2.648,0,0,1,2.645,2.645v8.927a2.648,2.648,0,0,1-1.409,2.337,1.325,1.325,0,0,0-.707,1.172v15.086a1.326,1.326,0,0,0,2.652,0V87.369a5.286,5.286,0,0,0,2.116-4.23V74.212A5.3,5.3,0,0,0,98.743,68.914Z" transform="translate(-89.283 -56.728)"/></g><g transform="translate(390.676 6207.049)"><path class="c" d="M105.64,10.858a5.429,5.429,0,1,0-5.429-5.428A5.435,5.435,0,0,0,105.64,10.858Zm0-8.206a2.777,2.777,0,1,1-2.777,2.777A2.78,2.78,0,0,1,105.64,2.652Z" transform="translate(-98.279 0)"/><path class="c" d="M98.743,68.914H94.58a5.3,5.3,0,0,0-5.3,5.3v8.927a5.287,5.287,0,0,0,2.116,4.23v14.365a1.326,1.326,0,0,0,2.652,0V86.648a1.325,1.325,0,0,0-.708-1.173,2.647,2.647,0,0,1-1.408-2.336V74.212a2.648,2.648,0,0,1,2.645-2.645h4.163a2.648,2.648,0,0,1,2.645,2.645v8.927a2.648,2.648,0,0,1-1.409,2.337,1.325,1.325,0,0,0-.707,1.172v15.086a1.326,1.326,0,0,0,2.652,0V87.369a5.286,5.286,0,0,0,2.116-4.23V74.212A5.3,5.3,0,0,0,98.743,68.914Z" transform="translate(-89.283 -56.728)"/></g><g transform="translate(408.568 6207.049)"><path class="c" d="M105.64,10.858a5.429,5.429,0,1,0-5.429-5.428A5.435,5.435,0,0,0,105.64,10.858Zm0-8.206a2.777,2.777,0,1,1-2.777,2.777A2.78,2.78,0,0,1,105.64,2.652Z" transform="translate(-98.279 0)"/><path class="c" d="M98.743,68.914H94.58a5.3,5.3,0,0,0-5.3,5.3v8.927a5.287,5.287,0,0,0,2.116,4.23v14.365a1.326,1.326,0,0,0,2.652,0V86.648a1.325,1.325,0,0,0-.708-1.173,2.647,2.647,0,0,1-1.408-2.336V74.212a2.648,2.648,0,0,1,2.645-2.645h4.163a2.648,2.648,0,0,1,2.645,2.645v8.927a2.648,2.648,0,0,1-1.409,2.337,1.325,1.325,0,0,0-.707,1.172v15.086a1.326,1.326,0,0,0,2.652,0V87.369a5.286,5.286,0,0,0,2.116-4.23V74.212A5.3,5.3,0,0,0,98.743,68.914Z" transform="translate(-89.283 -56.728)"/></g><g transform="translate(426.459 6207.049)"><path class="c" d="M105.64,10.858a5.429,5.429,0,1,0-5.429-5.428A5.435,5.435,0,0,0,105.64,10.858Zm0-8.206a2.777,2.777,0,1,1-2.777,2.777A2.78,2.78,0,0,1,105.64,2.652Z" transform="translate(-98.279 0)"/><path class="c" d="M98.743,68.914H94.58a5.3,5.3,0,0,0-5.3,5.3v8.927a5.287,5.287,0,0,0,2.116,4.23v14.365a1.326,1.326,0,0,0,2.652,0V86.648a1.325,1.325,0,0,0-.708-1.173,2.647,2.647,0,0,1-1.408-2.336V74.212a2.648,2.648,0,0,1,2.645-2.645h4.163a2.648,2.648,0,0,1,2.645,2.645v8.927a2.648,2.648,0,0,1-1.409,2.337,1.325,1.325,0,0,0-.707,1.172v15.086a1.326,1.326,0,0,0,2.652,0V87.369a5.286,5.286,0,0,0,2.116-4.23V74.212A5.3,5.3,0,0,0,98.743,68.914Z" transform="translate(-89.283 -56.728)"/></g><g transform="translate(444.351 6207.049)"><path class="c" d="M105.64,10.858a5.429,5.429,0,1,0-5.429-5.428A5.435,5.435,0,0,0,105.64,10.858Zm0-8.206a2.777,2.777,0,1,1-2.777,2.777A2.78,2.78,0,0,1,105.64,2.652Z" transform="translate(-98.279 0)"/><path class="c" d="M98.743,68.914H94.58a5.3,5.3,0,0,0-5.3,5.3v8.927a5.287,5.287,0,0,0,2.116,4.23v14.365a1.326,1.326,0,0,0,2.652,0V86.648a1.325,1.325,0,0,0-.708-1.173,2.647,2.647,0,0,1-1.408-2.336V74.212a2.648,2.648,0,0,1,2.645-2.645h4.163a2.648,2.648,0,0,1,2.645,2.645v8.927a2.648,2.648,0,0,1-1.409,2.337,1.325,1.325,0,0,0-.707,1.172v15.086a1.326,1.326,0,0,0,2.652,0V87.369a5.286,5.286,0,0,0,2.116-4.23V74.212A5.3,5.3,0,0,0,98.743,68.914Z" transform="translate(-89.283 -56.728)"/></g><g transform="translate(462.243 6207.049)"><path class="c" d="M105.64,10.858a5.429,5.429,0,1,0-5.429-5.428A5.435,5.435,0,0,0,105.64,10.858Zm0-8.206a2.777,2.777,0,1,1-2.777,2.777A2.78,2.78,0,0,1,105.64,2.652Z" transform="translate(-98.279 0)"/><path class="c" d="M98.743,68.914H94.58a5.3,5.3,0,0,0-5.3,5.3v8.927a5.287,5.287,0,0,0,2.116,4.23v14.365a1.326,1.326,0,0,0,2.652,0V86.648a1.325,1.325,0,0,0-.708-1.173,2.647,2.647,0,0,1-1.408-2.336V74.212a2.648,2.648,0,0,1,2.645-2.645h4.163a2.648,2.648,0,0,1,2.645,2.645v8.927a2.648,2.648,0,0,1-1.409,2.337,1.325,1.325,0,0,0-.707,1.172v15.086a1.326,1.326,0,0,0,2.652,0V87.369a5.286,5.286,0,0,0,2.116-4.23V74.212A5.3,5.3,0,0,0,98.743,68.914Z" transform="translate(-89.283 -56.728)"/></g></g></svg>