<svg xmlns="http://www.w3.org/2000/svg" width="141.264" height="138.985" viewBox="0 0 141.264 138.985"><defs><style>.a{fill:#f38500;stroke:#f38500;}.b{fill:#6fad76;stroke:#6fad76;}</style></defs><g transform="translate(0.518 -3.545)"><path class="a" d="M157.763,67.2a13.71,13.71,0,0,0-4.838-9.564,12.538,12.538,0,0,0-9.364-2.908A13.415,13.415,0,0,0,132.85,62.58l-4.205.371-4.15-1.163a1.043,1.043,0,0,1-.7-.683,38.951,38.951,0,0,0-5.121-10.08l1.469-3.949,4.636-5.014a9.427,9.427,0,0,0,6.847-3.277,9.58,9.58,0,0,0-.3-12.794,9.419,9.419,0,0,0-6.966-2.951,9.551,9.551,0,0,0-6.91,3.055,9.456,9.456,0,0,0-2.519,6.86L110.3,37.969l-3.885,1.8a38.971,38.971,0,0,0-19.1-5.317L84.767,30.4l-.9-4.452a12.079,12.079,0,0,0,4.283-11.916c-1.431-6.7-8.331-11.066-15.38-9.729a12.991,12.991,0,0,0-8.5,5.556A11.893,11.893,0,0,0,62.509,19a12.565,12.565,0,0,0,8.116,9.136l.99,4.918-.787,4.794a39,39,0,0,0-9.855,6.336l-2.912-.519-3.29-2.482A9.516,9.516,0,1,0,47.225,52.29l2.757,2.08L51.219,56.9a.412.412,0,0,1,0,.354,38.673,38.673,0,0,0-3.554,16.273c0,1.049.044,2.116.129,3.171a.436.436,0,0,1-.172.4L42.97,80.413l-5.314,1.672A12.46,12.46,0,0,0,26.107,80.11c-.079.026-.158.055-.236.084l-.066.024a2.106,2.106,0,0,0,1.427,3.962l.1-.036.1-.036a8.256,8.256,0,0,1,8.294,1.861,2.105,2.105,0,0,0,2.082.482l6.745-2.122a2.106,2.106,0,0,0,.59-.294l4.927-3.511A4.671,4.671,0,0,0,52,76.356c-.076-.941-.115-1.893-.115-2.829a34.489,34.489,0,0,1,3.169-14.513A4.608,4.608,0,0,0,55,55.051l-1.458-2.984a2.1,2.1,0,0,0-.624-.756l-3.964-2.99A2.1,2.1,0,0,0,47.047,48a5.316,5.316,0,0,1-4.818-.814,5.3,5.3,0,0,1-.825-7.7,5.358,5.358,0,0,1,6.966-.95,5.292,5.292,0,0,1,2.339,3.97,2.1,2.1,0,0,0,.83,1.505l4.39,3.312a2.1,2.1,0,0,0,.9.392l4.423.788a2.1,2.1,0,0,0,1.8-.529,34.839,34.839,0,0,1,10.469-6.707A2.1,2.1,0,0,0,74.8,39.663l1.036-6.311a2.108,2.108,0,0,0-.013-.757l-1.311-6.517a2.1,2.1,0,0,0-1.539-1.623,8.481,8.481,0,0,1-6.342-6.339,7.715,7.715,0,0,1,1.151-5.922,8.814,8.814,0,0,1,5.78-3.75c4.821-.913,9.521,1.989,10.478,6.471A7.98,7.98,0,0,1,80.4,23.279a2.106,2.106,0,0,0-.921,2.184l1.237,6.148a2.109,2.109,0,0,0,.28.7l3.041,4.851a3.175,3.175,0,0,0,2.708,1.5h0a34.748,34.748,0,0,1,17.96,4.995,3.175,3.175,0,0,0,2.979.166l4.76-2.208a2.107,2.107,0,0,0,.66-.481l5.559-6.012a2.1,2.1,0,0,0,.535-1.751,5.3,5.3,0,0,1,9.084-4.47,5.335,5.335,0,0,1,.165,7.126,5.268,5.268,0,0,1-4.414,1.815,2.1,2.1,0,0,0-1.7.67l-5.559,6.012a2.1,2.1,0,0,0-.428.7l-1.807,4.859a3.17,3.17,0,0,0,.413,2.977,34.768,34.768,0,0,1,4.856,9.392,5.249,5.249,0,0,0,3.552,3.4l4.521,1.267a2.107,2.107,0,0,0,.753.07l5.871-.519a2.106,2.106,0,0,0,1.8-1.407,9.282,9.282,0,0,1,7.675-6.333,8.361,8.361,0,0,1,6.241,1.947,9.532,9.532,0,0,1,3.342,6.659,10.258,10.258,0,0,1-.919,5.107,2.106,2.106,0,0,0,3.818,1.777,14.5,14.5,0,0,0,1.3-7.208Z" transform="translate(-17.562 0)"/><path class="a" d="M129.6,250.809a8.5,8.5,0,0,1-10.492-4.756,2.105,2.105,0,0,0-2.093-1.206l-5.511.487a2.1,2.1,0,0,0-.73.2l-4.16,2.007a5.246,5.246,0,0,0-2.909,4.017,34.615,34.615,0,0,1-1.976,7.639,5.23,5.23,0,0,0,.307,4.446l1.482,2.65a2.1,2.1,0,0,0,.665.721l4.123,2.766a2.106,2.106,0,0,0,1.925.218,5.315,5.315,0,0,1,4.856.545,5.3,5.3,0,0,1,1.25,7.638,5.357,5.357,0,0,1-6.9,1.334,5.292,5.292,0,0,1-2.555-3.835,2.1,2.1,0,0,0-.912-1.456l-4.567-3.064a2.1,2.1,0,0,0-.919-.342l-2.874-.349a5.409,5.409,0,0,0-4.4,1.471,35.045,35.045,0,0,1-7.683,5.553,5.412,5.412,0,0,0-2.825,4.414l-.365,5.824a2.1,2.1,0,0,0,.06.646l1.807,7.172a2.105,2.105,0,0,0,1.474,1.513,7.125,7.125,0,0,1,4.982,5.1,7.1,7.1,0,0,1-5.349,8.668,7.1,7.1,0,0,1-6.505-12,2.105,2.105,0,0,0,.567-2.017L77.559,289.6a2.1,2.1,0,0,0-.254-.6l-2.8-4.509a6.194,6.194,0,0,0-5.316-2.918h0a34.976,34.976,0,0,1-6.775-.662,6.181,6.181,0,0,0-5.722,1.805l-3.706,3.911a2.111,2.111,0,0,0-.369.534l-4.149,8.608a2.106,2.106,0,0,0,.008,1.844,5.3,5.3,0,0,1-7.368,6.962,5.364,5.364,0,0,1-2.3-6.616,5.26,5.26,0,0,1,3.716-3.166,2.105,2.105,0,0,0,1.42-1.136l4.176-8.663a2.1,2.1,0,0,0,.188-.621l.818-5.816a5.22,5.22,0,0,0-1.86-4.762,35.038,35.038,0,0,1-7.919-9.076,5.226,5.226,0,0,0-4.4-2.488l-5.806-.055a2.083,2.083,0,0,0-.652.1l-6.356,2a2.106,2.106,0,0,0-1.461,1.773A8.258,8.258,0,0,1,4.612,267.7a8.147,8.147,0,0,1,.052-5.222A2.106,2.106,0,1,0,.683,261.1,12.328,12.328,0,0,0,.609,269,12.523,12.523,0,0,0,12.491,277.6a12.349,12.349,0,0,0,3.712-.572,12.487,12.487,0,0,0,8.416-9.12l4.813-1.514,5.472.052a.986.986,0,0,1,.835.459,39.236,39.236,0,0,0,8.868,10.164.988.988,0,0,1,.343.9l-.772,5.491-3.628,7.527a9.513,9.513,0,0,0-1.513,17.256,9.435,9.435,0,0,0,7.531.792,9.551,9.551,0,0,0,5.719-4.946,9.449,9.449,0,0,0,.382-7.349l3.594-7.456,3.481-3.673a1.992,1.992,0,0,1,1.848-.571,39.266,39.266,0,0,0,7.617.742h0a2,2,0,0,1,1.718.931l2.63,4.23,1.462,5.8a11.261,11.261,0,0,0-1.99,10.677,11.411,11.411,0,0,0,10.8,7.786,11.077,11.077,0,0,0,2.406-.264,11.312,11.312,0,0,0,8.516-13.807,11.346,11.346,0,0,0-6.735-7.723l-1.448-5.748.344-5.5a1.173,1.173,0,0,1,.6-.962,39.277,39.277,0,0,0,8.606-6.22,1.216,1.216,0,0,1,.984-.339l2.374.289,3.423,2.3a9.516,9.516,0,1,0,6.919-11.513l-2.868-1.924-1.236-2.209a1.033,1.033,0,0,1-.052-.877,38.833,38.833,0,0,0,2.217-8.57,1.045,1.045,0,0,1,.568-.807l3.814-1.84,3.744-.331a12.669,12.669,0,0,0,14.914,5.645,2.106,2.106,0,0,0-1.317-4Z" transform="translate(0 -173.18)"/><path class="a" d="M177.677,147.258a29.494,29.494,0,1,0,8.983,3.774,2.105,2.105,0,1,0-2.252,3.558,25.165,25.165,0,1,1-7.693-3.233,2.106,2.106,0,1,0,.963-4.1Z" transform="translate(-101.73 -102.432)"/><path class="b" d="M57,30.964a9.9,9.9,0,1,0-9.9-9.9A9.913,9.913,0,0,0,57,30.964Zm0-15.592a5.691,5.691,0,1,1-5.691,5.691A5.7,5.7,0,0,1,57,15.372Z" transform="translate(-33.876 -5.103)"/><path class="b" d="M56.185,386.653a7.255,7.255,0,1,0,7.255,7.255A7.263,7.263,0,0,0,56.185,386.653Zm0,10.3a3.044,3.044,0,1,1,3.044-3.044A3.048,3.048,0,0,1,56.185,396.952Z" transform="translate(-35.197 -275.182)"/><path class="b" d="M386.735,408.111a9.69,9.69,0,1,0,9.69,9.69A9.7,9.7,0,0,0,386.735,408.111Zm0,15.169a5.479,5.479,0,1,1,5.479-5.479A5.485,5.485,0,0,1,386.735,423.28Z" transform="translate(-271.199 -290.616)"/><path class="b" d="M202.179,201.089A9.177,9.177,0,1,0,193,210.266,9.187,9.187,0,0,0,202.179,201.089ZM193,206.055a4.966,4.966,0,1,1,4.966-4.966A4.971,4.971,0,0,1,193,206.055Z" transform="translate(-132.222 -135.111)"/><path class="b" d="M219.009,292.03a6.919,6.919,0,1,0-6.919-6.919A6.927,6.927,0,0,0,219.009,292.03Zm0-9.626a2.708,2.708,0,1,1-2.708,2.708A2.711,2.711,0,0,1,219.009,282.4Z" transform="translate(-152.553 -197.171)"/><path class="b" d="M268.673,235.744a6.147,6.147,0,1,0,6.147-6.147A6.154,6.154,0,0,0,268.673,235.744Zm6.147-1.937a1.936,1.936,0,1,1-1.936,1.936A1.938,1.938,0,0,1,274.82,233.808Z" transform="translate(-193.251 -162.217)"/></g></svg>