<svg xmlns="http://www.w3.org/2000/svg" width="118.294" height="140.968" viewBox="0 0 118.294 140.968"><defs><style>.a{fill:#f38500;stroke:#f38500;}.b{fill:#6bab79;stroke:#6bab79;}</style></defs><g transform="translate(-40.914 0.541)"><g transform="translate(41.423 0)"><g transform="translate(0 0)"><path class="a" d="M153.031,26.239a24.175,24.175,0,0,0-7.821-8.525c.8-.379,1.611-.787,2.428-1.233a2.05,2.05,0,0,0,.122-3.528A32.981,32.981,0,0,0,136.667,8.8c-7.546-1.29-14.018.787-18.876,6.014a35.12,35.12,0,0,0-14.38-11.762C95.617-.4,86.487-.935,77.008,1.5A31.441,31.441,0,0,0,54.262,23.148a41.026,41.026,0,0,0-.788,19.368,7.811,7.811,0,0,0-2.826-.109,2.05,2.05,0,1,0,.6,4.056,3.3,3.3,0,0,1,3.7,2.174c2.309,7.734,6.679,16.757,14.323,26.947a16.146,16.146,0,0,0-7.3-.371,11.074,11.074,0,0,0-8.425,7.463,15.062,15.062,0,0,0-.648,7.034,12.456,12.456,0,0,0-9.377,7.032c-4.691,10.039-.046,24.911.154,25.54a2.05,2.05,0,0,0,2.729,1.275c.61-.25,15-6.228,19.689-16.268a12.457,12.457,0,0,0-9.058-17.53,11.619,11.619,0,0,1,.37-5.7,6.939,6.939,0,0,1,5.374-4.826c4.383-.881,10.288,1.457,14.047,5.559C87.7,97.035,93.309,110.82,96.094,120.23a87.18,87.18,0,0,1,3.481,17.758,2.05,2.05,0,0,0,2.045,1.938c.037,0,.075,0,.113,0a2.05,2.05,0,0,0,1.935-2.158,89.261,89.261,0,0,0-3.607-18.575A102.047,102.047,0,0,0,88.009,92.767c-.019-.046-.037-.093-.06-.138-.38-.77-1.457-3.4.65-4.967a2.05,2.05,0,0,0-2.442-3.293A7.168,7.168,0,0,0,83.951,87q-1.912-2.5-4.081-4.948C69.795,70.728,62.908,59.649,59.4,49.127a45.424,45.424,0,0,1-2.457-18.294A5.1,5.1,0,0,1,62.115,28a8.464,8.464,0,0,1,3.847,1.592,10.522,10.522,0,0,0-1.827,2.568,10.416,10.416,0,0,0-.608,8c2.845,8.676,13.967,14.958,14.439,15.221a2.05,2.05,0,0,0,2.862-.939c.225-.491,5.468-12.139,2.623-20.815a10.5,10.5,0,0,0-13.229-6.7c-.23.075-.455.161-.677.251a12.943,12.943,0,0,0-6.975-3.257,9.021,9.021,0,0,0-4.435.577c.016-.053.029-.108.045-.161A27.421,27.421,0,0,1,78.027,5.474q1.705-.439,3.374-.738h0a2.081,2.081,0,0,1,1.639.435,2.478,2.478,0,0,1,.687,1.844,2.05,2.05,0,0,0,2.049,2.024h.027A2.05,2.05,0,0,0,87.83,6.961,7.168,7.168,0,0,0,87.221,4.1a32.642,32.642,0,0,1,14.528,2.7,30.82,30.82,0,0,1,10.076,7.178A18.266,18.266,0,0,0,101.8,27.916a26.117,26.117,0,0,0,.378,9.892,2.05,2.05,0,0,0,2.962,1.27c.639-.348,1.326-.681,2.053-1.034l.6-.293a24.018,24.018,0,0,0,2.94,11.554c5.774,10.588,23.108,21.645,23.844,22.111a2.049,2.049,0,0,0,2.829-.635,2.062,2.062,0,0,0,.191-.386h0c.4-1.083.773-2.156,1.133-3.223,6.017,2.934,9.634,4.321,9.8,4.384a2.05,2.05,0,0,0,2.735-1.492c.037-.175.831-3.966,1.622-10.611q1.636.413,3.323.79h0a2.047,2.047,0,0,0,.429.049h.016a2.05,2.05,0,0,0,2.05-2.034C158.713,57.387,158.8,36.827,153.031,26.239ZM57.779,94.208c.188.072.374.148.559.234a8.357,8.357,0,0,1,4.034,11.11c-3.035,6.494-11.44,11.266-15.405,13.226-1.041-4.3-2.773-13.808.262-20.3a8.355,8.355,0,0,1,6.317-4.722c.61,3.465,1.008,6.8-1.22,10.633a2.05,2.05,0,1,0,3.545,2.059C58.532,101.865,58.347,97.829,57.779,94.208ZM67.8,34.014a6.4,6.4,0,0,1,1.1-1.55,19.176,19.176,0,0,1,3.177,6.612,2.05,2.05,0,0,0,3.954-1.084,23.859,23.859,0,0,0-3.44-7.412,6.358,6.358,0,0,1,6.972,4.328c1.7,5.173-.325,12.147-1.589,15.644-3.089-2.07-8.847-6.492-10.543-11.665A6.343,6.343,0,0,1,67.8,34.014ZM135.86,12.82a27.968,27.968,0,0,1,6.172,1.823,35.081,35.081,0,0,1-20.647,2.349C125.193,13.259,130.049,11.856,135.86,12.82ZM108.527,31.876c-.079.314-.149.629-.215.945a27.8,27.8,0,0,1-2.607,1.389c-.464-4.311-.14-12.935,8.789-16.958q.817,1.145,1.544,2.374A24.021,24.021,0,0,0,108.527,31.876ZM147.7,66.783c-1.729-.739-4.377-1.92-7.723-3.564q1.092-3.7,1.834-7.233,3.368,1.289,7.075,2.377C148.459,62.065,148.019,64.929,147.7,66.783Zm-9.16-16.624a2.05,2.05,0,1,0-1.731,3.716q.565.263,1.143.52a94.1,94.1,0,0,1-3.332,12.127c-4.769-3.268-16.148-11.584-20.29-19.178a20,20,0,0,1-.125-18.911c.322,7.106,5.29,14.519,13.639,20.341a2.05,2.05,0,0,0,2.345-3.363c-7.305-5.1-11.639-11.361-11.891-17.191a8.626,8.626,0,0,1,2.717-7.1,35.536,35.536,0,0,0,6.757.634,39.6,39.6,0,0,0,12.582-2.091,19.756,19.756,0,0,1,9.073,8.534c4.138,7.587,4.969,21.666,5.135,27.446A87.583,87.583,0,0,1,138.544,50.158Z" transform="translate(-41.423 0)"/></g></g><g transform="translate(96.287 66.798)"><g transform="translate(0)"><path class="b" d="M275.6,273.573c-.134-.564-3.371-13.9-11.319-21.553-4.279-4.119-9.8-5.387-13.625-3.434a48.067,48.067,0,0,0-5.388-3.879,2.05,2.05,0,1,0-2.1,3.523,44.428,44.428,0,0,1,4.468,3.195,8.9,8.9,0,0,0-.873,6.337,15.207,15.207,0,0,0,4.474,7.806c7.948,7.651,21.4,10.378,21.969,10.49a2.05,2.05,0,0,0,2.391-2.485Zm-21.517-10.959a11.244,11.244,0,0,1-3.3-5.651,5.742,5.742,0,0,1,.065-2.722,37.436,37.436,0,0,1,4.485,5.109,2.05,2.05,0,0,0,3.33-2.391,40.9,40.9,0,0,0-4.434-5.15c.113-.007.225-.013.341-.013a10.539,10.539,0,0,1,6.863,3.177c4.812,4.632,7.772,11.954,9.182,16.2C266.325,269.925,258.9,267.246,254.085,262.614Z" transform="translate(-242.171 -244.417)"/></g></g></g></svg>