<svg xmlns="http://www.w3.org/2000/svg" width="140.421" height="133.54" viewBox="0 0 140.421 133.54"><defs><style>.a,.c,.g,.i{fill:none;}.a,.e{stroke:#f38500;}.a{stroke-width:3px;}.b{fill:#fff;}.c{stroke:#f38800;stroke-width:5px;}.d,.f{fill:#6bab79;}.d,.f,.g{stroke:#6bab79;}.d{stroke-width:2px;}.e{fill:#f38500;}.g{stroke-linecap:round;stroke-linejoin:round;stroke-width:2.1px;}.h{stroke:none;}</style></defs><g transform="translate(-1437 -3823.5)"><g transform="translate(132 3697.207)"><g class="a" transform="translate(1305 162.793)"><ellipse class="h" cx="47.5" cy="48" rx="47.5" ry="48"/><ellipse class="i" cx="47.5" cy="48" rx="46" ry="46.5"/></g><rect class="b" width="97.04" height="4.804" transform="matrix(-0.174, -0.985, 0.985, -0.174, 1359.374, 259.429)"/><rect class="b" width="52.844" height="34.589" transform="translate(1343.512 207.713) rotate(-45)"/><rect class="b" width="97.04" height="4.804" transform="translate(1354.762 162.793) rotate(90)"/><g class="c" transform="translate(1325 182.793)"><circle class="h" cx="28.5" cy="28.5" r="28.5"/><circle class="i" cx="28.5" cy="28.5" r="26"/></g><path class="d" d="M7.586-23.46v12.13H19.095v5.414H7.586V6.273H1.669V-5.916H-9.78V-11.33H1.669V-23.46Z" transform="translate(1348.619 218.677)"/><g transform="translate(1391.223 210.42) rotate(-90)"><g transform="translate(0 0)"><path class="e" d="M14.421,6.83.89.065A.615.615,0,0,0,.1.946L4.191,7.381.1,13.816A.615.615,0,0,0,.89,14.7L14.421,7.931a.615.615,0,0,0,0-1.1Z"/></g></g></g><g transform="translate(1106 3294)"><path class="f" d="M110.628,29.167,88.481.506a1.3,1.3,0,0,0-2.061,0L64.274,29.167a1.3,1.3,0,0,0,1.031,2.1H77.029V52.271a1.461,1.461,0,0,0,1.3,1.476H96.57a1.461,1.461,0,0,0,1.3-1.476V31.266H109.6a1.3,1.3,0,0,0,1.03-2.1ZM96.57,28.66a1.3,1.3,0,0,0-1.3,1.3V51.69H79.634V29.963a1.3,1.3,0,0,0-1.3-1.3H67.957L87.451,3.434,106.945,28.66Z" transform="translate(359.998 530)"/><g class="g" transform="translate(436.704 585.899)"><rect class="h" width="20.962" height="7.623"/><rect class="i" x="1.05" y="1.05" width="18.862" height="5.523"/></g></g></g></svg>