<svg xmlns="http://www.w3.org/2000/svg" width="139.304" height="133.383" viewBox="0 0 139.304 133.383"><defs><style>.a,.c,.g{fill:none;}.a,.c,.e{stroke:#f38500;}.a{stroke-width:3px;}.b{fill:#fff;}.c{stroke-width:5px;}.d{fill:#6fad76;stroke:#6fad76;stroke-width:2px;}.e{fill:#f38500;}.f{stroke:none;}</style></defs><g transform="translate(-1305 -162.793)"><g class="a" transform="translate(1305 163.136)"><circle class="f" cx="65.5" cy="65.5" r="65.5"/><circle class="g" cx="65.5" cy="65.5" r="64"/></g><rect class="b" width="133.383" height="6.603" transform="matrix(-0.174, -0.985, 0.985, -0.174, 1379.738, 295.622)"/><rect class="b" width="72.634" height="47.543" transform="translate(1357.936 224.536) rotate(-45)"/><rect class="b" width="133.383" height="6.603" transform="translate(1373.399 162.793) rotate(90)"/><g class="c" transform="translate(1332 190.136)"><circle class="f" cx="39.5" cy="39.5" r="39.5"/><circle class="g" cx="39.5" cy="39.5" r="37"/></g><path class="d" d="M14.09-23.46V-6.787H29.909V.654H14.09V17.408H5.957V.654H-9.78V-6.787H5.957V-23.46Z" transform="translate(1361.292 230.82)"/><g transform="translate(1423.515 228.257) rotate(-90)"><g transform="translate(0 0)"><path class="e" d="M19.822,9.388,1.223.089A.846.846,0,0,0,.132,1.3l5.629,8.845L.132,18.99A.846.846,0,0,0,1.223,20.2l18.6-9.3a.846.846,0,0,0,0-1.513Z"/></g></g></g></svg>