<svg xmlns="http://www.w3.org/2000/svg" width="43.09" height="51.124" viewBox="0 0 43.09 51.124"><defs><style>.a{fill:#f38500;stroke:#f38500;}</style></defs><g transform="translate(-40.835 0.515)"><g transform="translate(41.423 0)"><g transform="translate(0 0)"><path class="a" d="M81.391,9.4a8.657,8.657,0,0,0-2.8-3.053c.287-.136.577-.282.869-.442A.734.734,0,0,0,79.5,4.638,11.811,11.811,0,0,0,75.53,3.151,7.137,7.137,0,0,0,68.771,5.3a12.577,12.577,0,0,0-5.15-4.212A14.354,14.354,0,0,0,54.166.538a11.259,11.259,0,0,0-8.146,7.751,14.692,14.692,0,0,0-.282,6.936,2.8,2.8,0,0,0-1.012-.039.734.734,0,1,0,.215,1.452,1.181,1.181,0,0,1,1.323.779,31.073,31.073,0,0,0,5.129,9.65,5.782,5.782,0,0,0-2.616-.133,3.966,3.966,0,0,0-3.017,2.672,5.394,5.394,0,0,0-.232,2.519,4.461,4.461,0,0,0-3.358,2.518c-1.68,3.6-.017,8.921.055,9.146a.734.734,0,0,0,.977.457c.218-.089,5.371-2.23,7.051-5.826a4.461,4.461,0,0,0-3.244-6.278,4.161,4.161,0,0,1,.132-2.041,2.485,2.485,0,0,1,1.924-1.728,5.909,5.909,0,0,1,5.03,1.991A33.642,33.642,0,0,1,61,43.055a31.22,31.22,0,0,1,1.247,6.359.734.734,0,0,0,.732.694h.041a.734.734,0,0,0,.693-.773,31.965,31.965,0,0,0-1.292-6.652,36.544,36.544,0,0,0-4.316-9.463c-.007-.017-.013-.033-.021-.049a1.4,1.4,0,0,1,.233-1.779.734.734,0,0,0-.875-1.179,2.567,2.567,0,0,0-.79.944q-.685-.9-1.461-1.772a34.939,34.939,0,0,1-7.33-11.792,16.267,16.267,0,0,1-.88-6.551,1.828,1.828,0,0,1,1.851-1.014,3.031,3.031,0,0,1,1.378.57,3.768,3.768,0,0,0-.654.92,3.73,3.73,0,0,0-.218,2.865c1.019,3.107,5,5.357,5.171,5.451a.734.734,0,0,0,1.025-.336c.08-.176,1.958-4.347.939-7.454a3.759,3.759,0,0,0-4.737-2.4c-.082.027-.163.058-.243.09A4.635,4.635,0,0,0,49,8.569a3.23,3.23,0,0,0-1.588.207c.006-.019.01-.039.016-.058A9.82,9.82,0,0,1,54.531,1.96q.611-.157,1.208-.264h0a.745.745,0,0,1,.587.156.887.887,0,0,1,.246.66.734.734,0,0,0,.734.725h.01a.734.734,0,0,0,.725-.743,2.567,2.567,0,0,0-.218-1.025,11.689,11.689,0,0,1,5.2.967,11.037,11.037,0,0,1,3.608,2.571A6.541,6.541,0,0,0,63.044,10a9.353,9.353,0,0,0,.135,3.543.734.734,0,0,0,1.061.455c.229-.125.475-.244.735-.37l.216-.1a8.6,8.6,0,0,0,1.053,4.137c2.068,3.792,8.275,7.751,8.539,7.918a.734.734,0,0,0,1.013-.227.738.738,0,0,0,.068-.138h0c.143-.388.277-.772.406-1.154,2.155,1.051,3.45,1.547,3.51,1.57a.734.734,0,0,0,.979-.534c.013-.063.3-1.42.581-3.8q.586.148,1.19.283h0a.733.733,0,0,0,.153.018h.006a.734.734,0,0,0,.734-.728C83.425,20.55,83.458,13.188,81.391,9.4ZM47.28,33.736c.067.026.134.053.2.084A2.993,2.993,0,0,1,48.925,37.8c-1.087,2.326-4.1,4.034-5.517,4.736-.373-1.54-.993-4.945.094-7.27a2.992,2.992,0,0,1,2.262-1.691,5.1,5.1,0,0,1-.437,3.808.734.734,0,1,0,1.27.737A6.181,6.181,0,0,0,47.28,33.736Zm3.587-21.556a2.294,2.294,0,0,1,.394-.555A6.867,6.867,0,0,1,52.4,13.993a.734.734,0,0,0,1.416-.388,8.544,8.544,0,0,0-1.232-2.654,2.277,2.277,0,0,1,2.5,1.55c.607,1.852-.117,4.35-.569,5.6-1.106-.741-3.168-2.325-3.776-4.177A2.272,2.272,0,0,1,50.867,12.181Zm24.374-7.59a10.016,10.016,0,0,1,2.21.653,12.563,12.563,0,0,1-7.394.841A5.68,5.68,0,0,1,75.242,4.591Zm-9.788,6.824c-.028.112-.053.225-.077.338a9.954,9.954,0,0,1-.934.5A5.605,5.605,0,0,1,67.59,6.178q.292.41.553.85A8.6,8.6,0,0,0,65.453,11.415Zm14.03,12.5c-.619-.265-1.568-.688-2.766-1.276q.391-1.326.657-2.59,1.206.462,2.534.851C79.753,22.226,79.6,23.251,79.483,23.915ZM76.2,17.962a.734.734,0,1,0-.62,1.331q.2.094.409.186A33.7,33.7,0,0,1,74.8,23.821c-1.708-1.17-5.783-4.148-7.266-6.868a7.161,7.161,0,0,1-.045-6.772c.115,2.545,1.895,5.2,4.884,7.284a.734.734,0,1,0,.84-1.2c-2.616-1.825-4.168-4.068-4.258-6.156a3.089,3.089,0,0,1,.973-2.541,12.726,12.726,0,0,0,2.42.227,14.182,14.182,0,0,0,4.506-.749A7.075,7.075,0,0,1,80.1,10.1c1.482,2.717,1.779,7.759,1.839,9.829A31.364,31.364,0,0,1,76.2,17.962Z" transform="translate(-41.423 0)"/></g></g><g transform="translate(61.07 23.92)"><g transform="translate(0)"><path class="a" d="M254.143,254.858c-.048-.2-1.207-4.979-4.053-7.718-1.532-1.475-3.51-1.929-4.879-1.23a17.212,17.212,0,0,0-1.929-1.389.734.734,0,1,0-.751,1.262,15.907,15.907,0,0,1,1.6,1.144,3.189,3.189,0,0,0-.313,2.269,5.446,5.446,0,0,0,1.6,2.8c2.846,2.74,7.664,3.716,7.867,3.757a.734.734,0,0,0,.856-.89Zm-7.705-3.925a4.027,4.027,0,0,1-1.18-2.024,2.056,2.056,0,0,1,.023-.975,13.406,13.406,0,0,1,1.606,1.83.734.734,0,1,0,1.193-.856,14.648,14.648,0,0,0-1.588-1.844c.04,0,.081,0,.122,0a3.774,3.774,0,0,1,2.458,1.138,15.035,15.035,0,0,1,3.288,5.8A15.038,15.038,0,0,1,246.438,250.933Z" transform="translate(-242.171 -244.417)"/></g></g></g></svg>