<svg xmlns="http://www.w3.org/2000/svg" width="37.954" height="50.5" viewBox="0 0 37.954 50.5"><defs><style>.a{fill:#f38500;}.a,.b{stroke:#f38500;}.b,.d{fill:none;}.b{stroke-linecap:round;stroke-linejoin:round;stroke-width:2.1px;}.c{stroke:none;}</style></defs><g transform="translate(-423.481 -529.5)"><path class="a" d="M100.7,22.958,83.27.4a1.025,1.025,0,0,0-1.622,0L64.216,22.958a1.025,1.025,0,0,0,.811,1.652h9.229V41.145a1.15,1.15,0,0,0,1.025,1.162H89.637a1.15,1.15,0,0,0,1.025-1.162V24.61h9.229a1.025,1.025,0,0,0,.811-1.652Zm-11.065-.4a1.025,1.025,0,0,0-1.025,1.025v17.1H76.307v-17.1a1.025,1.025,0,0,0-1.025-1.025H67.115L82.459,2.7,97.8,22.559Z" transform="translate(359.998 530)"/><g class="b" transform="translate(434 574)"><rect class="c" width="16.5" height="6"/><rect class="d" x="1.05" y="1.05" width="14.4" height="3.9"/></g></g></svg>