<svg xmlns="http://www.w3.org/2000/svg" width="176.32" height="122.381" viewBox="0 0 176.32 122.381"><defs><style>.a{fill:#f38800;}.b{fill:#6bab79;}</style></defs><g transform="translate(-1359 -4472)"><g transform="translate(1269.717 4472)"><path class="a" d="M106.583,12.744a6.372,6.372,0,1,0-6.372-6.371A6.379,6.379,0,0,0,106.583,12.744Zm0-9.631a3.259,3.259,0,1,1-3.259,3.26A3.263,3.263,0,0,1,106.583,3.113Z" transform="translate(-8.66 0)"/><path class="a" d="M100.386,68.914H95.5a6.224,6.224,0,0,0-6.217,6.218V85.61a6.2,6.2,0,0,0,2.483,4.965v16.861a1.557,1.557,0,0,0,3.113,0V89.729a1.556,1.556,0,0,0-.831-1.377A3.107,3.107,0,0,1,92.4,85.61V75.132a3.108,3.108,0,0,1,3.1-3.1h4.886a3.108,3.108,0,0,1,3.1,3.1V85.61a3.108,3.108,0,0,1-1.654,2.743,1.556,1.556,0,0,0-.83,1.376v17.707a1.557,1.557,0,0,0,3.113,0V90.575A6.2,6.2,0,0,0,106.6,85.61V75.132A6.225,6.225,0,0,0,100.386,68.914Z" transform="translate(0 -54.611)"/></g><g transform="translate(1292.717 4472)"><path class="a" d="M106.583,12.744a6.372,6.372,0,1,0-6.372-6.371A6.379,6.379,0,0,0,106.583,12.744Zm0-9.631a3.259,3.259,0,1,1-3.259,3.26A3.263,3.263,0,0,1,106.583,3.113Z" transform="translate(-8.66 0)"/><path class="a" d="M100.386,68.914H95.5a6.224,6.224,0,0,0-6.217,6.218V85.61a6.2,6.2,0,0,0,2.483,4.965v16.861a1.557,1.557,0,0,0,3.113,0V89.729a1.556,1.556,0,0,0-.831-1.377A3.107,3.107,0,0,1,92.4,85.61V75.132a3.108,3.108,0,0,1,3.1-3.1h4.886a3.108,3.108,0,0,1,3.1,3.1V85.61a3.108,3.108,0,0,1-1.654,2.743,1.556,1.556,0,0,0-.83,1.376v17.707a1.557,1.557,0,0,0,3.113,0V90.575A6.2,6.2,0,0,0,106.6,85.61V75.132A6.225,6.225,0,0,0,100.386,68.914Z" transform="translate(0 -54.611)"/></g><g transform="translate(1314.717 4472)"><path class="b" d="M106.583,12.744a6.372,6.372,0,1,0-6.372-6.371A6.379,6.379,0,0,0,106.583,12.744Zm0-9.631a3.259,3.259,0,1,1-3.259,3.26A3.263,3.263,0,0,1,106.583,3.113Z" transform="translate(-8.66 0)"/><path class="b" d="M100.386,68.914H95.5a6.224,6.224,0,0,0-6.217,6.218V85.61a6.2,6.2,0,0,0,2.483,4.965v16.861a1.557,1.557,0,0,0,3.113,0V89.729a1.556,1.556,0,0,0-.831-1.377A3.107,3.107,0,0,1,92.4,85.61V75.132a3.108,3.108,0,0,1,3.1-3.1h4.886a3.108,3.108,0,0,1,3.1,3.1V85.61a3.108,3.108,0,0,1-1.654,2.743,1.556,1.556,0,0,0-.83,1.376v17.707a1.557,1.557,0,0,0,3.113,0V90.575A6.2,6.2,0,0,0,106.6,85.61V75.132A6.225,6.225,0,0,0,100.386,68.914Z" transform="translate(0 -54.611)"/></g><g transform="translate(1337.717 4472)"><path class="b" d="M106.583,12.744a6.372,6.372,0,1,0-6.372-6.371A6.379,6.379,0,0,0,106.583,12.744Zm0-9.631a3.259,3.259,0,1,1-3.259,3.26A3.263,3.263,0,0,1,106.583,3.113Z" transform="translate(-8.66 0)"/><path class="b" d="M100.386,68.914H95.5a6.224,6.224,0,0,0-6.217,6.218V85.61a6.2,6.2,0,0,0,2.483,4.965v16.861a1.557,1.557,0,0,0,3.113,0V89.729a1.556,1.556,0,0,0-.831-1.377A3.107,3.107,0,0,1,92.4,85.61V75.132a3.108,3.108,0,0,1,3.1-3.1h4.886a3.108,3.108,0,0,1,3.1,3.1V85.61a3.108,3.108,0,0,1-1.654,2.743,1.556,1.556,0,0,0-.83,1.376v17.707a1.557,1.557,0,0,0,3.113,0V90.575A6.2,6.2,0,0,0,106.6,85.61V75.132A6.225,6.225,0,0,0,100.386,68.914Z" transform="translate(0 -54.611)"/></g><g transform="translate(1360.717 4472)"><path class="b" d="M106.583,12.744a6.372,6.372,0,1,0-6.372-6.371A6.379,6.379,0,0,0,106.583,12.744Zm0-9.631a3.259,3.259,0,1,1-3.259,3.26A3.263,3.263,0,0,1,106.583,3.113Z" transform="translate(-8.66 0)"/><path class="b" d="M100.386,68.914H95.5a6.224,6.224,0,0,0-6.217,6.218V85.61a6.2,6.2,0,0,0,2.483,4.965v16.861a1.557,1.557,0,0,0,3.113,0V89.729a1.556,1.556,0,0,0-.831-1.377A3.107,3.107,0,0,1,92.4,85.61V75.132a3.108,3.108,0,0,1,3.1-3.1h4.886a3.108,3.108,0,0,1,3.1,3.1V85.61a3.108,3.108,0,0,1-1.654,2.743,1.556,1.556,0,0,0-.83,1.376v17.707a1.557,1.557,0,0,0,3.113,0V90.575A6.2,6.2,0,0,0,106.6,85.61V75.132A6.225,6.225,0,0,0,100.386,68.914Z" transform="translate(0 -54.611)"/></g><g transform="translate(1383.717 4472)"><path class="b" d="M106.583,12.744a6.372,6.372,0,1,0-6.372-6.371A6.379,6.379,0,0,0,106.583,12.744Zm0-9.631a3.259,3.259,0,1,1-3.259,3.26A3.263,3.263,0,0,1,106.583,3.113Z" transform="translate(-8.66 0)"/><path class="b" d="M100.386,68.914H95.5a6.224,6.224,0,0,0-6.217,6.218V85.61a6.2,6.2,0,0,0,2.483,4.965v16.861a1.557,1.557,0,0,0,3.113,0V89.729a1.556,1.556,0,0,0-.831-1.377A3.107,3.107,0,0,1,92.4,85.61V75.132a3.108,3.108,0,0,1,3.1-3.1h4.886a3.108,3.108,0,0,1,3.1,3.1V85.61a3.108,3.108,0,0,1-1.654,2.743,1.556,1.556,0,0,0-.83,1.376v17.707a1.557,1.557,0,0,0,3.113,0V90.575A6.2,6.2,0,0,0,106.6,85.61V75.132A6.225,6.225,0,0,0,100.386,68.914Z" transform="translate(0 -54.611)"/></g><g transform="translate(1405.717 4472)"><path class="b" d="M106.583,12.744a6.372,6.372,0,1,0-6.372-6.371A6.379,6.379,0,0,0,106.583,12.744Zm0-9.631a3.259,3.259,0,1,1-3.259,3.26A3.263,3.263,0,0,1,106.583,3.113Z" transform="translate(-8.66 0)"/><path class="b" d="M100.386,68.914H95.5a6.224,6.224,0,0,0-6.217,6.218V85.61a6.2,6.2,0,0,0,2.483,4.965v16.861a1.557,1.557,0,0,0,3.113,0V89.729a1.556,1.556,0,0,0-.831-1.377A3.107,3.107,0,0,1,92.4,85.61V75.132a3.108,3.108,0,0,1,3.1-3.1h4.886a3.108,3.108,0,0,1,3.1,3.1V85.61a3.108,3.108,0,0,1-1.654,2.743,1.556,1.556,0,0,0-.83,1.376v17.707a1.557,1.557,0,0,0,3.113,0V90.575A6.2,6.2,0,0,0,106.6,85.61V75.132A6.225,6.225,0,0,0,100.386,68.914Z" transform="translate(0 -54.611)"/></g><g transform="translate(1428.717 4472)"><path class="b" d="M106.583,12.744a6.372,6.372,0,1,0-6.372-6.371A6.379,6.379,0,0,0,106.583,12.744Zm0-9.631a3.259,3.259,0,1,1-3.259,3.26A3.263,3.263,0,0,1,106.583,3.113Z" transform="translate(-8.66 0)"/><path class="b" d="M100.386,68.914H95.5a6.224,6.224,0,0,0-6.217,6.218V85.61a6.2,6.2,0,0,0,2.483,4.965v16.861a1.557,1.557,0,0,0,3.113,0V89.729a1.556,1.556,0,0,0-.831-1.377A3.107,3.107,0,0,1,92.4,85.61V75.132a3.108,3.108,0,0,1,3.1-3.1h4.886a3.108,3.108,0,0,1,3.1,3.1V85.61a3.108,3.108,0,0,1-1.654,2.743,1.556,1.556,0,0,0-.83,1.376v17.707a1.557,1.557,0,0,0,3.113,0V90.575A6.2,6.2,0,0,0,106.6,85.61V75.132A6.225,6.225,0,0,0,100.386,68.914Z" transform="translate(0 -54.611)"/></g><g transform="translate(1269.717 4540)"><path class="b" d="M106.583,12.744a6.372,6.372,0,1,0-6.372-6.371A6.379,6.379,0,0,0,106.583,12.744Zm0-9.631a3.259,3.259,0,1,1-3.259,3.26A3.263,3.263,0,0,1,106.583,3.113Z" transform="translate(-8.66 0)"/><path class="b" d="M100.386,68.914H95.5a6.224,6.224,0,0,0-6.217,6.218V85.61a6.2,6.2,0,0,0,2.483,4.965v16.861a1.557,1.557,0,0,0,3.113,0V89.729a1.556,1.556,0,0,0-.831-1.377A3.107,3.107,0,0,1,92.4,85.61V75.132a3.108,3.108,0,0,1,3.1-3.1h4.886a3.108,3.108,0,0,1,3.1,3.1V85.61a3.108,3.108,0,0,1-1.654,2.743,1.556,1.556,0,0,0-.83,1.376v17.707a1.557,1.557,0,0,0,3.113,0V90.575A6.2,6.2,0,0,0,106.6,85.61V75.132A6.225,6.225,0,0,0,100.386,68.914Z" transform="translate(0 -54.611)"/></g><g transform="translate(1292.717 4540)"><path class="b" d="M106.583,12.744a6.372,6.372,0,1,0-6.372-6.371A6.379,6.379,0,0,0,106.583,12.744Zm0-9.631a3.259,3.259,0,1,1-3.259,3.26A3.263,3.263,0,0,1,106.583,3.113Z" transform="translate(-8.66 0)"/><path class="b" d="M100.386,68.914H95.5a6.224,6.224,0,0,0-6.217,6.218V85.61a6.2,6.2,0,0,0,2.483,4.965v16.861a1.557,1.557,0,0,0,3.113,0V89.729a1.556,1.556,0,0,0-.831-1.377A3.107,3.107,0,0,1,92.4,85.61V75.132a3.108,3.108,0,0,1,3.1-3.1h4.886a3.108,3.108,0,0,1,3.1,3.1V85.61a3.108,3.108,0,0,1-1.654,2.743,1.556,1.556,0,0,0-.83,1.376v17.707a1.557,1.557,0,0,0,3.113,0V90.575A6.2,6.2,0,0,0,106.6,85.61V75.132A6.225,6.225,0,0,0,100.386,68.914Z" transform="translate(0 -54.611)"/></g><g transform="translate(1314.717 4540)"><path class="b" d="M106.583,12.744a6.372,6.372,0,1,0-6.372-6.371A6.379,6.379,0,0,0,106.583,12.744Zm0-9.631a3.259,3.259,0,1,1-3.259,3.26A3.263,3.263,0,0,1,106.583,3.113Z" transform="translate(-8.66 0)"/><path class="b" d="M100.386,68.914H95.5a6.224,6.224,0,0,0-6.217,6.218V85.61a6.2,6.2,0,0,0,2.483,4.965v16.861a1.557,1.557,0,0,0,3.113,0V89.729a1.556,1.556,0,0,0-.831-1.377A3.107,3.107,0,0,1,92.4,85.61V75.132a3.108,3.108,0,0,1,3.1-3.1h4.886a3.108,3.108,0,0,1,3.1,3.1V85.61a3.108,3.108,0,0,1-1.654,2.743,1.556,1.556,0,0,0-.83,1.376v17.707a1.557,1.557,0,0,0,3.113,0V90.575A6.2,6.2,0,0,0,106.6,85.61V75.132A6.225,6.225,0,0,0,100.386,68.914Z" transform="translate(0 -54.611)"/></g><g transform="translate(1337.717 4540)"><path class="b" d="M106.583,12.744a6.372,6.372,0,1,0-6.372-6.371A6.379,6.379,0,0,0,106.583,12.744Zm0-9.631a3.259,3.259,0,1,1-3.259,3.26A3.263,3.263,0,0,1,106.583,3.113Z" transform="translate(-8.66 0)"/><path class="b" d="M100.386,68.914H95.5a6.224,6.224,0,0,0-6.217,6.218V85.61a6.2,6.2,0,0,0,2.483,4.965v16.861a1.557,1.557,0,0,0,3.113,0V89.729a1.556,1.556,0,0,0-.831-1.377A3.107,3.107,0,0,1,92.4,85.61V75.132a3.108,3.108,0,0,1,3.1-3.1h4.886a3.108,3.108,0,0,1,3.1,3.1V85.61a3.108,3.108,0,0,1-1.654,2.743,1.556,1.556,0,0,0-.83,1.376v17.707a1.557,1.557,0,0,0,3.113,0V90.575A6.2,6.2,0,0,0,106.6,85.61V75.132A6.225,6.225,0,0,0,100.386,68.914Z" transform="translate(0 -54.611)"/></g><g transform="translate(1360.717 4540)"><path class="b" d="M106.583,12.744a6.372,6.372,0,1,0-6.372-6.371A6.379,6.379,0,0,0,106.583,12.744Zm0-9.631a3.259,3.259,0,1,1-3.259,3.26A3.263,3.263,0,0,1,106.583,3.113Z" transform="translate(-8.66 0)"/><path class="b" d="M100.386,68.914H95.5a6.224,6.224,0,0,0-6.217,6.218V85.61a6.2,6.2,0,0,0,2.483,4.965v16.861a1.557,1.557,0,0,0,3.113,0V89.729a1.556,1.556,0,0,0-.831-1.377A3.107,3.107,0,0,1,92.4,85.61V75.132a3.108,3.108,0,0,1,3.1-3.1h4.886a3.108,3.108,0,0,1,3.1,3.1V85.61a3.108,3.108,0,0,1-1.654,2.743,1.556,1.556,0,0,0-.83,1.376v17.707a1.557,1.557,0,0,0,3.113,0V90.575A6.2,6.2,0,0,0,106.6,85.61V75.132A6.225,6.225,0,0,0,100.386,68.914Z" transform="translate(0 -54.611)"/></g><path class="a" d="M-10.692-2.22h3.516V-12.336q0-.588.036-1.236l-2.5,2.088a.885.885,0,0,1-.318.18,1.116,1.116,0,0,1-.318.048.942.942,0,0,1-.438-.1A.817.817,0,0,1-11-11.592l-.936-1.284,5.292-4.5h2.436V-2.22h3.12V0h-9.6ZM7.5-17.544a6.46,6.46,0,0,1,2.166.342,4.943,4.943,0,0,1,1.65.948,4.153,4.153,0,0,1,1.05,1.422,4.26,4.26,0,0,1,.366,1.764,5.163,5.163,0,0,1-.186,1.458,3.393,3.393,0,0,1-.54,1.1,3.273,3.273,0,0,1-.864.792,5.24,5.24,0,0,1-1.158.54,4.532,4.532,0,0,1,2.328,1.5,4.057,4.057,0,0,1,.768,2.532,5.218,5.218,0,0,1-.48,2.292,4.925,4.925,0,0,1-1.3,1.674A5.648,5.648,0,0,1,9.414-.156,7.332,7.332,0,0,1,7.14.192a7.759,7.759,0,0,1-2.28-.3A4.95,4.95,0,0,1,3.168-1a5.363,5.363,0,0,1-1.224-1.44A9.718,9.718,0,0,1,1.08-4.4l1.308-.54a1.721,1.721,0,0,1,.684-.144,1.161,1.161,0,0,1,.558.132.9.9,0,0,1,.378.384q.216.42.474.828a3.359,3.359,0,0,0,.618.726,2.941,2.941,0,0,0,.846.516A3.063,3.063,0,0,0,7.1-2.3a3.28,3.28,0,0,0,1.32-.246,2.867,2.867,0,0,0,.942-.642,2.632,2.632,0,0,0,.564-.882,2.718,2.718,0,0,0,.186-.978,4.526,4.526,0,0,0-.132-1.134,1.681,1.681,0,0,0-.552-.87A3,3,0,0,0,8.226-7.62a8.7,8.7,0,0,0-2.106-.2V-9.948a7.177,7.177,0,0,0,1.812-.192,3.085,3.085,0,0,0,1.146-.534,1.809,1.809,0,0,0,.594-.822,3.178,3.178,0,0,0,.168-1.056,2.437,2.437,0,0,0-.672-1.866,2.577,2.577,0,0,0-1.836-.63,2.714,2.714,0,0,0-1.752.557,2.914,2.914,0,0,0-.972,1.432,1.305,1.305,0,0,1-.4.653,1.039,1.039,0,0,1-.66.2,2.525,2.525,0,0,1-.408-.035l-1.56-.272a6.439,6.439,0,0,1,.7-2.191,5.252,5.252,0,0,1,1.29-1.572,5.343,5.343,0,0,1,1.776-.948A7.081,7.081,0,0,1,7.5-17.544Z" transform="translate(1522 4584)"/><path class="a" d="M-1.225,9.378a3.253,3.253,0,0,1-.512.891,3.039,3.039,0,0,1-.713.635,3.357,3.357,0,0,1-.846.39,3.014,3.014,0,0,1-.868.134H-6.48l13-33.265a3.138,3.138,0,0,1,1.091-1.436,2.9,2.9,0,0,1,1.714-.5h2.338Z" transform="translate(1504.48 4573.138)"/><path class="a" d="M.264-17.544a6.518,6.518,0,0,1,2.2.354,4.939,4.939,0,0,1,1.7,1,4.536,4.536,0,0,1,1.1,1.56,5.04,5.04,0,0,1,.4,2.028,5.4,5.4,0,0,1-.282,1.776,7.384,7.384,0,0,1-.756,1.56,10.5,10.5,0,0,1-1.11,1.44q-.636.7-1.332,1.416l-3.912,4A9.477,9.477,0,0,1-.6-2.67,6.567,6.567,0,0,1,.456-2.76H4.908a1.056,1.056,0,0,1,.762.27.943.943,0,0,1,.282.714V0h-11.9V-.984a1.719,1.719,0,0,1,.126-.624,1.741,1.741,0,0,1,.4-.6l5.268-5.28Q.5-8.16,1.026-8.772A8.664,8.664,0,0,0,1.9-9.984a5.535,5.535,0,0,0,.54-1.218,4.494,4.494,0,0,0,.186-1.3,3.083,3.083,0,0,0-.18-1.1,2.151,2.151,0,0,0-.516-.8,2.166,2.166,0,0,0-.8-.486A3.123,3.123,0,0,0,.1-15.048a2.767,2.767,0,0,0-1.758.54,2.829,2.829,0,0,0-.966,1.452,1.205,1.205,0,0,1-.4.654,1.089,1.089,0,0,1-.672.2,2.424,2.424,0,0,1-.4-.036l-1.56-.276a6.435,6.435,0,0,1,.7-2.19,5.251,5.251,0,0,1,1.29-1.572,5.343,5.343,0,0,1,1.776-.948A7.083,7.083,0,0,1,.264-17.544Z" transform="translate(1495 4567)"/></g></svg>