<svg xmlns="http://www.w3.org/2000/svg" width="145.931" height="139.458" viewBox="0 0 145.931 139.458"><defs><style>.a{fill:#6fac76;}.b{fill:#f38800;}.c{fill:#6fad76;stroke:#6fad76;stroke-width:2px;}</style></defs><g transform="translate(-223.375 -4315.778)"><g transform="translate(223.375 4335.88)"><path class="a" d="M114.2,27.971a13.985,13.985,0,1,0-13.986-13.984A14,14,0,0,0,114.2,27.971Zm0-21.138a7.153,7.153,0,1,1-7.153,7.154A7.161,7.161,0,0,1,114.2,6.833Z" transform="translate(-95.233)"/><path class="a" d="M113.652,68.914H102.929A13.662,13.662,0,0,0,89.283,82.561v23a13.619,13.619,0,0,0,5.451,10.9v37.006a3.416,3.416,0,0,0,6.833,0V114.6a3.414,3.414,0,0,0-1.823-3.021,6.819,6.819,0,0,1-3.627-6.019v-23a6.821,6.821,0,0,1,6.813-6.814h10.723a6.821,6.821,0,0,1,6.813,6.814v23a6.821,6.821,0,0,1-3.631,6.02,3.414,3.414,0,0,0-1.821,3.02v38.863a3.416,3.416,0,1,0,6.833,0V116.455a13.616,13.616,0,0,0,5.452-10.9v-23A13.662,13.662,0,0,0,113.652,68.914Z" transform="translate(-89.283 -37.522)"/></g><g transform="translate(277.333 4315.778)"><path class="b" d="M114.2,27.971a13.985,13.985,0,1,0-13.986-13.984A14,14,0,0,0,114.2,27.971Zm0-21.138a7.153,7.153,0,1,1-7.153,7.154A7.161,7.161,0,0,1,114.2,6.833Z" transform="translate(-95.233)"/><path class="b" d="M113.652,68.914H102.929A13.662,13.662,0,0,0,89.283,82.561v23a13.619,13.619,0,0,0,5.451,10.9v37.006a3.416,3.416,0,0,0,6.833,0V114.6a3.414,3.414,0,0,0-1.823-3.021,6.819,6.819,0,0,1-3.627-6.019v-23a6.821,6.821,0,0,1,6.813-6.814h10.723a6.821,6.821,0,0,1,6.813,6.814v23a6.821,6.821,0,0,1-3.631,6.02,3.414,3.414,0,0,0-1.821,3.02v38.863a3.416,3.416,0,1,0,6.833,0V116.455a13.616,13.616,0,0,0,5.452-10.9v-23A13.662,13.662,0,0,0,113.652,68.914Z" transform="translate(-89.283 -37.522)"/></g><g transform="translate(331.291 4335.88)"><path class="a" d="M114.2,27.971a13.985,13.985,0,1,0-13.986-13.984A14,14,0,0,0,114.2,27.971Zm0-21.138a7.153,7.153,0,1,1-7.153,7.154A7.161,7.161,0,0,1,114.2,6.833Z" transform="translate(-95.233)"/><path class="a" d="M113.652,68.914H102.929A13.662,13.662,0,0,0,89.283,82.561v23a13.619,13.619,0,0,0,5.451,10.9v37.006a3.416,3.416,0,0,0,6.833,0V114.6a3.414,3.414,0,0,0-1.823-3.021,6.819,6.819,0,0,1-3.627-6.019v-23a6.821,6.821,0,0,1,6.813-6.814h10.723a6.821,6.821,0,0,1,6.813,6.814v23a6.821,6.821,0,0,1-3.631,6.02,3.414,3.414,0,0,0-1.821,3.02v38.863a3.416,3.416,0,1,0,6.833,0V116.455a13.616,13.616,0,0,0,5.452-10.9v-23A13.662,13.662,0,0,0,113.652,68.914Z" transform="translate(-89.283 -37.522)"/></g><path class="c" d="M-1.811-23.46v5.566H3.469v2.484H-1.811v5.593H-4.526V-15.41H-9.78v-2.484h5.254V-23.46Z" transform="translate(245.323 4405.894)"/><path class="c" d="M-1.811-23.46v5.566H3.469v2.484H-1.811v5.593H-4.526V-15.41H-9.78v-2.484h5.254V-23.46Z" transform="translate(353.767 4405.894)"/></g></svg>