<svg xmlns="http://www.w3.org/2000/svg" width="176.32" height="122.381" viewBox="0 0 176.32 122.381"><defs><style>.a{fill:#f38800;}.b,.c{fill:#6bab79;}.c{stroke:#6bab79;}</style></defs><g transform="translate(-1359 -4472)"><g transform="translate(1269.717 4472)"><path class="a" d="M106.583,12.744a6.372,6.372,0,1,0-6.372-6.371A6.379,6.379,0,0,0,106.583,12.744Zm0-9.631a3.259,3.259,0,1,1-3.259,3.26A3.263,3.263,0,0,1,106.583,3.113Z" transform="translate(-8.66 0)"/><path class="a" d="M100.386,68.914H95.5a6.224,6.224,0,0,0-6.217,6.218V85.61a6.2,6.2,0,0,0,2.483,4.965v16.861a1.557,1.557,0,0,0,3.113,0V89.729a1.556,1.556,0,0,0-.831-1.377A3.107,3.107,0,0,1,92.4,85.61V75.132a3.108,3.108,0,0,1,3.1-3.1h4.886a3.108,3.108,0,0,1,3.1,3.1V85.61a3.108,3.108,0,0,1-1.654,2.743,1.556,1.556,0,0,0-.83,1.376v17.707a1.557,1.557,0,0,0,3.113,0V90.575A6.2,6.2,0,0,0,106.6,85.61V75.132A6.225,6.225,0,0,0,100.386,68.914Z" transform="translate(0 -54.611)"/></g><g transform="translate(1292.717 4472)"><path class="a" d="M106.583,12.744a6.372,6.372,0,1,0-6.372-6.371A6.379,6.379,0,0,0,106.583,12.744Zm0-9.631a3.259,3.259,0,1,1-3.259,3.26A3.263,3.263,0,0,1,106.583,3.113Z" transform="translate(-8.66 0)"/><path class="a" d="M100.386,68.914H95.5a6.224,6.224,0,0,0-6.217,6.218V85.61a6.2,6.2,0,0,0,2.483,4.965v16.861a1.557,1.557,0,0,0,3.113,0V89.729a1.556,1.556,0,0,0-.831-1.377A3.107,3.107,0,0,1,92.4,85.61V75.132a3.108,3.108,0,0,1,3.1-3.1h4.886a3.108,3.108,0,0,1,3.1,3.1V85.61a3.108,3.108,0,0,1-1.654,2.743,1.556,1.556,0,0,0-.83,1.376v17.707a1.557,1.557,0,0,0,3.113,0V90.575A6.2,6.2,0,0,0,106.6,85.61V75.132A6.225,6.225,0,0,0,100.386,68.914Z" transform="translate(0 -54.611)"/></g><g transform="translate(1314.717 4472)"><path class="a" d="M106.583,12.744a6.372,6.372,0,1,0-6.372-6.371A6.379,6.379,0,0,0,106.583,12.744Zm0-9.631a3.259,3.259,0,1,1-3.259,3.26A3.263,3.263,0,0,1,106.583,3.113Z" transform="translate(-8.66 0)"/><path class="a" d="M100.386,68.914H95.5a6.224,6.224,0,0,0-6.217,6.218V85.61a6.2,6.2,0,0,0,2.483,4.965v16.861a1.557,1.557,0,0,0,3.113,0V89.729a1.556,1.556,0,0,0-.831-1.377A3.107,3.107,0,0,1,92.4,85.61V75.132a3.108,3.108,0,0,1,3.1-3.1h4.886a3.108,3.108,0,0,1,3.1,3.1V85.61a3.108,3.108,0,0,1-1.654,2.743,1.556,1.556,0,0,0-.83,1.376v17.707a1.557,1.557,0,0,0,3.113,0V90.575A6.2,6.2,0,0,0,106.6,85.61V75.132A6.225,6.225,0,0,0,100.386,68.914Z" transform="translate(0 -54.611)"/></g><g transform="translate(1337.717 4472)"><path class="a" d="M106.583,12.744a6.372,6.372,0,1,0-6.372-6.371A6.379,6.379,0,0,0,106.583,12.744Zm0-9.631a3.259,3.259,0,1,1-3.259,3.26A3.263,3.263,0,0,1,106.583,3.113Z" transform="translate(-8.66 0)"/><path class="a" d="M100.386,68.914H95.5a6.224,6.224,0,0,0-6.217,6.218V85.61a6.2,6.2,0,0,0,2.483,4.965v16.861a1.557,1.557,0,0,0,3.113,0V89.729a1.556,1.556,0,0,0-.831-1.377A3.107,3.107,0,0,1,92.4,85.61V75.132a3.108,3.108,0,0,1,3.1-3.1h4.886a3.108,3.108,0,0,1,3.1,3.1V85.61a3.108,3.108,0,0,1-1.654,2.743,1.556,1.556,0,0,0-.83,1.376v17.707a1.557,1.557,0,0,0,3.113,0V90.575A6.2,6.2,0,0,0,106.6,85.61V75.132A6.225,6.225,0,0,0,100.386,68.914Z" transform="translate(0 -54.611)"/></g><g transform="translate(1360.717 4472)"><path class="a" d="M106.583,12.744a6.372,6.372,0,1,0-6.372-6.371A6.379,6.379,0,0,0,106.583,12.744Zm0-9.631a3.259,3.259,0,1,1-3.259,3.26A3.263,3.263,0,0,1,106.583,3.113Z" transform="translate(-8.66 0)"/><path class="a" d="M100.386,68.914H95.5a6.224,6.224,0,0,0-6.217,6.218V85.61a6.2,6.2,0,0,0,2.483,4.965v16.861a1.557,1.557,0,0,0,3.113,0V89.729a1.556,1.556,0,0,0-.831-1.377A3.107,3.107,0,0,1,92.4,85.61V75.132a3.108,3.108,0,0,1,3.1-3.1h4.886a3.108,3.108,0,0,1,3.1,3.1V85.61a3.108,3.108,0,0,1-1.654,2.743,1.556,1.556,0,0,0-.83,1.376v17.707a1.557,1.557,0,0,0,3.113,0V90.575A6.2,6.2,0,0,0,106.6,85.61V75.132A6.225,6.225,0,0,0,100.386,68.914Z" transform="translate(0 -54.611)"/></g><g transform="translate(1383.717 4472)"><path class="a" d="M106.583,12.744a6.372,6.372,0,1,0-6.372-6.371A6.379,6.379,0,0,0,106.583,12.744Zm0-9.631a3.259,3.259,0,1,1-3.259,3.26A3.263,3.263,0,0,1,106.583,3.113Z" transform="translate(-8.66 0)"/><path class="a" d="M100.386,68.914H95.5a6.224,6.224,0,0,0-6.217,6.218V85.61a6.2,6.2,0,0,0,2.483,4.965v16.861a1.557,1.557,0,0,0,3.113,0V89.729a1.556,1.556,0,0,0-.831-1.377A3.107,3.107,0,0,1,92.4,85.61V75.132a3.108,3.108,0,0,1,3.1-3.1h4.886a3.108,3.108,0,0,1,3.1,3.1V85.61a3.108,3.108,0,0,1-1.654,2.743,1.556,1.556,0,0,0-.83,1.376v17.707a1.557,1.557,0,0,0,3.113,0V90.575A6.2,6.2,0,0,0,106.6,85.61V75.132A6.225,6.225,0,0,0,100.386,68.914Z" transform="translate(0 -54.611)"/></g><g transform="translate(1405.717 4472)"><path class="a" d="M106.583,12.744a6.372,6.372,0,1,0-6.372-6.371A6.379,6.379,0,0,0,106.583,12.744Zm0-9.631a3.259,3.259,0,1,1-3.259,3.26A3.263,3.263,0,0,1,106.583,3.113Z" transform="translate(-8.66 0)"/><path class="a" d="M100.386,68.914H95.5a6.224,6.224,0,0,0-6.217,6.218V85.61a6.2,6.2,0,0,0,2.483,4.965v16.861a1.557,1.557,0,0,0,3.113,0V89.729a1.556,1.556,0,0,0-.831-1.377A3.107,3.107,0,0,1,92.4,85.61V75.132a3.108,3.108,0,0,1,3.1-3.1h4.886a3.108,3.108,0,0,1,3.1,3.1V85.61a3.108,3.108,0,0,1-1.654,2.743,1.556,1.556,0,0,0-.83,1.376v17.707a1.557,1.557,0,0,0,3.113,0V90.575A6.2,6.2,0,0,0,106.6,85.61V75.132A6.225,6.225,0,0,0,100.386,68.914Z" transform="translate(0 -54.611)"/></g><g transform="translate(1428.717 4472)"><path class="b" d="M106.583,12.744a6.372,6.372,0,1,0-6.372-6.371A6.379,6.379,0,0,0,106.583,12.744Zm0-9.631a3.259,3.259,0,1,1-3.259,3.26A3.263,3.263,0,0,1,106.583,3.113Z" transform="translate(-8.66 0)"/><path class="b" d="M100.386,68.914H95.5a6.224,6.224,0,0,0-6.217,6.218V85.61a6.2,6.2,0,0,0,2.483,4.965v16.861a1.557,1.557,0,0,0,3.113,0V89.729a1.556,1.556,0,0,0-.831-1.377A3.107,3.107,0,0,1,92.4,85.61V75.132a3.108,3.108,0,0,1,3.1-3.1h4.886a3.108,3.108,0,0,1,3.1,3.1V85.61a3.108,3.108,0,0,1-1.654,2.743,1.556,1.556,0,0,0-.83,1.376v17.707a1.557,1.557,0,0,0,3.113,0V90.575A6.2,6.2,0,0,0,106.6,85.61V75.132A6.225,6.225,0,0,0,100.386,68.914Z" transform="translate(0 -54.611)"/></g><g transform="translate(1269.717 4540)"><path class="b" d="M106.583,12.744a6.372,6.372,0,1,0-6.372-6.371A6.379,6.379,0,0,0,106.583,12.744Zm0-9.631a3.259,3.259,0,1,1-3.259,3.26A3.263,3.263,0,0,1,106.583,3.113Z" transform="translate(-8.66 0)"/><path class="b" d="M100.386,68.914H95.5a6.224,6.224,0,0,0-6.217,6.218V85.61a6.2,6.2,0,0,0,2.483,4.965v16.861a1.557,1.557,0,0,0,3.113,0V89.729a1.556,1.556,0,0,0-.831-1.377A3.107,3.107,0,0,1,92.4,85.61V75.132a3.108,3.108,0,0,1,3.1-3.1h4.886a3.108,3.108,0,0,1,3.1,3.1V85.61a3.108,3.108,0,0,1-1.654,2.743,1.556,1.556,0,0,0-.83,1.376v17.707a1.557,1.557,0,0,0,3.113,0V90.575A6.2,6.2,0,0,0,106.6,85.61V75.132A6.225,6.225,0,0,0,100.386,68.914Z" transform="translate(0 -54.611)"/></g><g transform="translate(1292.717 4540)"><path class="b" d="M106.583,12.744a6.372,6.372,0,1,0-6.372-6.371A6.379,6.379,0,0,0,106.583,12.744Zm0-9.631a3.259,3.259,0,1,1-3.259,3.26A3.263,3.263,0,0,1,106.583,3.113Z" transform="translate(-8.66 0)"/><path class="b" d="M100.386,68.914H95.5a6.224,6.224,0,0,0-6.217,6.218V85.61a6.2,6.2,0,0,0,2.483,4.965v16.861a1.557,1.557,0,0,0,3.113,0V89.729a1.556,1.556,0,0,0-.831-1.377A3.107,3.107,0,0,1,92.4,85.61V75.132a3.108,3.108,0,0,1,3.1-3.1h4.886a3.108,3.108,0,0,1,3.1,3.1V85.61a3.108,3.108,0,0,1-1.654,2.743,1.556,1.556,0,0,0-.83,1.376v17.707a1.557,1.557,0,0,0,3.113,0V90.575A6.2,6.2,0,0,0,106.6,85.61V75.132A6.225,6.225,0,0,0,100.386,68.914Z" transform="translate(0 -54.611)"/></g><g transform="translate(1314.717 4540)"><path class="b" d="M106.583,12.744a6.372,6.372,0,1,0-6.372-6.371A6.379,6.379,0,0,0,106.583,12.744Zm0-9.631a3.259,3.259,0,1,1-3.259,3.26A3.263,3.263,0,0,1,106.583,3.113Z" transform="translate(-8.66 0)"/><path class="b" d="M100.386,68.914H95.5a6.224,6.224,0,0,0-6.217,6.218V85.61a6.2,6.2,0,0,0,2.483,4.965v16.861a1.557,1.557,0,0,0,3.113,0V89.729a1.556,1.556,0,0,0-.831-1.377A3.107,3.107,0,0,1,92.4,85.61V75.132a3.108,3.108,0,0,1,3.1-3.1h4.886a3.108,3.108,0,0,1,3.1,3.1V85.61a3.108,3.108,0,0,1-1.654,2.743,1.556,1.556,0,0,0-.83,1.376v17.707a1.557,1.557,0,0,0,3.113,0V90.575A6.2,6.2,0,0,0,106.6,85.61V75.132A6.225,6.225,0,0,0,100.386,68.914Z" transform="translate(0 -54.611)"/></g><g transform="translate(1337.717 4540)"><path class="b" d="M106.583,12.744a6.372,6.372,0,1,0-6.372-6.371A6.379,6.379,0,0,0,106.583,12.744Zm0-9.631a3.259,3.259,0,1,1-3.259,3.26A3.263,3.263,0,0,1,106.583,3.113Z" transform="translate(-8.66 0)"/><path class="b" d="M100.386,68.914H95.5a6.224,6.224,0,0,0-6.217,6.218V85.61a6.2,6.2,0,0,0,2.483,4.965v16.861a1.557,1.557,0,0,0,3.113,0V89.729a1.556,1.556,0,0,0-.831-1.377A3.107,3.107,0,0,1,92.4,85.61V75.132a3.108,3.108,0,0,1,3.1-3.1h4.886a3.108,3.108,0,0,1,3.1,3.1V85.61a3.108,3.108,0,0,1-1.654,2.743,1.556,1.556,0,0,0-.83,1.376v17.707a1.557,1.557,0,0,0,3.113,0V90.575A6.2,6.2,0,0,0,106.6,85.61V75.132A6.225,6.225,0,0,0,100.386,68.914Z" transform="translate(0 -54.611)"/></g><g transform="translate(1360.717 4540)"><path class="b" d="M106.583,12.744a6.372,6.372,0,1,0-6.372-6.371A6.379,6.379,0,0,0,106.583,12.744Zm0-9.631a3.259,3.259,0,1,1-3.259,3.26A3.263,3.263,0,0,1,106.583,3.113Z" transform="translate(-8.66 0)"/><path class="b" d="M100.386,68.914H95.5a6.224,6.224,0,0,0-6.217,6.218V85.61a6.2,6.2,0,0,0,2.483,4.965v16.861a1.557,1.557,0,0,0,3.113,0V89.729a1.556,1.556,0,0,0-.831-1.377A3.107,3.107,0,0,1,92.4,85.61V75.132a3.108,3.108,0,0,1,3.1-3.1h4.886a3.108,3.108,0,0,1,3.1,3.1V85.61a3.108,3.108,0,0,1-1.654,2.743,1.556,1.556,0,0,0-.83,1.376v17.707a1.557,1.557,0,0,0,3.113,0V90.575A6.2,6.2,0,0,0,106.6,85.61V75.132A6.225,6.225,0,0,0,100.386,68.914Z" transform="translate(0 -54.611)"/></g><path class="a" d="M-3.98-19.064a4.507,4.507,0,0,1-.325,1.748,4.115,4.115,0,0,1-.868,1.329,3.771,3.771,0,0,1-1.264.845,3.919,3.919,0,0,1-1.5.3,4.1,4.1,0,0,1-1.571-.3,3.586,3.586,0,0,1-1.246-.845,3.886,3.886,0,0,1-.821-1.329,4.905,4.905,0,0,1-.3-1.748,5.174,5.174,0,0,1,.3-1.8,3.909,3.909,0,0,1,.821-1.359,3.616,3.616,0,0,1,1.246-.857,4.033,4.033,0,0,1,1.571-.3,4.077,4.077,0,0,1,1.577.3,3.664,3.664,0,0,1,1.258.857,3.862,3.862,0,0,1,.827,1.359A5.174,5.174,0,0,1-3.98-19.064Zm-2.256,0a4.291,4.291,0,0,0-.13-1.146,2.051,2.051,0,0,0-.36-.744,1.324,1.324,0,0,0-.543-.408,1.8,1.8,0,0,0-.667-.124,1.75,1.75,0,0,0-.662.124,1.29,1.29,0,0,0-.532.408,2.044,2.044,0,0,0-.349.744A4.486,4.486,0,0,0-9.6-19.064a4.167,4.167,0,0,0,.124,1.1,1.924,1.924,0,0,0,.349.715,1.279,1.279,0,0,0,.532.39,1.827,1.827,0,0,0,.662.118,1.875,1.875,0,0,0,.667-.118,1.314,1.314,0,0,0,.543-.39,1.933,1.933,0,0,0,.36-.715A3.988,3.988,0,0,0-6.237-19.064ZM1.7-22.738a1.549,1.549,0,0,1,.354-.319,1.057,1.057,0,0,1,.591-.142H4.762L-7.926-6.553a1.158,1.158,0,0,1-.36.313,1.049,1.049,0,0,1-.526.124h-2.174ZM5.66-10.132a4.506,4.506,0,0,1-.325,1.748,4.115,4.115,0,0,1-.868,1.329A3.847,3.847,0,0,1,3.2-6.2a3.853,3.853,0,0,1-1.5.3A4.033,4.033,0,0,1,.131-6.2a3.656,3.656,0,0,1-1.246-.851,3.886,3.886,0,0,1-.821-1.329,4.905,4.905,0,0,1-.3-1.748,5.174,5.174,0,0,1,.3-1.8,3.909,3.909,0,0,1,.821-1.359,3.616,3.616,0,0,1,1.246-.857,4.033,4.033,0,0,1,1.571-.3,4.077,4.077,0,0,1,1.577.3,3.663,3.663,0,0,1,1.258.857,3.862,3.862,0,0,1,.827,1.359A5.174,5.174,0,0,1,5.66-10.132Zm-2.245,0a4.114,4.114,0,0,0-.136-1.146,2.12,2.12,0,0,0-.366-.744,1.324,1.324,0,0,0-.543-.408,1.8,1.8,0,0,0-.667-.124,1.75,1.75,0,0,0-.662.124,1.249,1.249,0,0,0-.526.408,2.181,2.181,0,0,0-.349.744,4.291,4.291,0,0,0-.13,1.146,4.053,4.053,0,0,0,.13,1.111A2.05,2.05,0,0,0,.515-8.3a1.238,1.238,0,0,0,.526.39,1.827,1.827,0,0,0,.662.118,1.875,1.875,0,0,0,.667-.118,1.314,1.314,0,0,0,.543-.39,2,2,0,0,0,.366-.721A3.886,3.886,0,0,0,3.415-10.132Z" transform="translate(1529 4563)"/><g transform="translate(1382.717 4540)"><path class="b" d="M106.583,12.744a6.372,6.372,0,1,0-6.372-6.371A6.379,6.379,0,0,0,106.583,12.744Zm0-9.631a3.259,3.259,0,1,1-3.259,3.26A3.263,3.263,0,0,1,106.583,3.113Z" transform="translate(-8.66 0)"/><path class="b" d="M100.386,68.914H95.5a6.224,6.224,0,0,0-6.217,6.218V85.61a6.2,6.2,0,0,0,2.483,4.965v16.861a1.557,1.557,0,0,0,3.113,0V89.729a1.556,1.556,0,0,0-.831-1.377A3.107,3.107,0,0,1,92.4,85.61V75.132a3.108,3.108,0,0,1,3.1-3.1h4.886a3.108,3.108,0,0,1,3.1,3.1V85.61a3.108,3.108,0,0,1-1.654,2.743,1.556,1.556,0,0,0-.83,1.376v17.707a1.557,1.557,0,0,0,3.113,0V90.575A6.2,6.2,0,0,0,106.6,85.61V75.132A6.225,6.225,0,0,0,100.386,68.914Z" transform="translate(0 -54.611)"/></g><g transform="translate(1404.717 4540)"><path class="b" d="M106.583,12.744a6.372,6.372,0,1,0-6.372-6.371A6.379,6.379,0,0,0,106.583,12.744Zm0-9.631a3.259,3.259,0,1,1-3.259,3.26A3.263,3.263,0,0,1,106.583,3.113Z" transform="translate(-8.66 0)"/><path class="b" d="M100.386,68.914H95.5a6.224,6.224,0,0,0-6.217,6.218V85.61a6.2,6.2,0,0,0,2.483,4.965v16.861a1.557,1.557,0,0,0,3.113,0V89.729a1.556,1.556,0,0,0-.831-1.377A3.107,3.107,0,0,1,92.4,85.61V75.132a3.108,3.108,0,0,1,3.1-3.1h4.886a3.108,3.108,0,0,1,3.1,3.1V85.61a3.108,3.108,0,0,1-1.654,2.743,1.556,1.556,0,0,0-.83,1.376v17.707a1.557,1.557,0,0,0,3.113,0V90.575A6.2,6.2,0,0,0,106.6,85.61V75.132A6.225,6.225,0,0,0,100.386,68.914Z" transform="translate(0 -54.611)"/></g><path class="c" d="M-3.953-18.768v2.7h2.565v1.207H-3.953v2.717H-5.272v-2.717H-7.824v-1.207h2.552v-2.7Z" transform="translate(1507 4580)"/><path class="c" d="M-3.953-18.768v2.7h2.565v1.207H-3.953v2.717H-5.272v-2.717H-7.824v-1.207h2.552v-2.7Z" transform="translate(1485 4580)"/><path class="c" d="M-3.953-18.768v2.7h2.565v1.207H-3.953v2.717H-5.272v-2.717H-7.824v-1.207h2.552v-2.7Z" transform="translate(1463 4580)"/><path class="c" d="M-3.953-18.768v2.7h2.565v1.207H-3.953v2.717H-5.272v-2.717H-7.824v-1.207h2.552v-2.7Z" transform="translate(1440 4580)"/><path class="c" d="M-3.953-18.768v2.7h2.565v1.207H-3.953v2.717H-5.272v-2.717H-7.824v-1.207h2.552v-2.7Z" transform="translate(1417 4580)"/><path class="c" d="M-3.953-18.768v2.7h2.565v1.207H-3.953v2.717H-5.272v-2.717H-7.824v-1.207h2.552v-2.7Z" transform="translate(1395 4580)"/><path class="c" d="M-3.953-18.768v2.7h2.565v1.207H-3.953v2.717H-5.272v-2.717H-7.824v-1.207h2.552v-2.7Z" transform="translate(1372 4580)"/><path class="c" d="M-3.953-18.768v2.7h2.565v1.207H-3.953v2.717H-5.272v-2.717H-7.824v-1.207h2.552v-2.7Z" transform="translate(1531 4512)"/></g></svg>