<svg xmlns="http://www.w3.org/2000/svg" width="132.927" height="140.109" viewBox="0 0 132.927 140.109"><defs><style>.a{fill:#f38500;stroke:#f38500;}.b,.d{fill:#6bab79;}.b,.c{stroke:#6bab79;}.c,.f{fill:none;}.c{stroke-linecap:round;stroke-linejoin:round;stroke-width:2.1px;}.e{stroke:none;}</style></defs><g transform="translate(-346.494 -3821.5)"><g transform="translate(305.577 3859.522)"><g transform="translate(41.423 0)"><g transform="translate(0 0)"><path class="a" d="M122.451,19.049a17.551,17.551,0,0,0-5.678-6.189c.582-.275,1.169-.572,1.763-.9a1.488,1.488,0,0,0,.088-2.561,23.945,23.945,0,0,0-8.053-3.016c-5.478-.937-10.177.571-13.7,4.366a25.5,25.5,0,0,0-10.44-8.539C80.768-.29,74.14-.679,67.258,1.091A22.826,22.826,0,0,0,50.744,16.805a29.785,29.785,0,0,0-.572,14.061,5.671,5.671,0,0,0-2.052-.079,1.488,1.488,0,1,0,.436,2.944,2.4,2.4,0,0,1,2.683,1.578c1.677,5.615,4.849,12.166,10.4,19.563a11.722,11.722,0,0,0-5.3-.269,8.039,8.039,0,0,0-6.117,5.418,10.935,10.935,0,0,0-.47,5.107,9.043,9.043,0,0,0-6.808,5.105c-3.406,7.289-.034,18.086.112,18.542a1.488,1.488,0,0,0,1.981.926c.443-.181,10.889-4.521,14.294-11.81a9.043,9.043,0,0,0-6.576-12.727,8.435,8.435,0,0,1,.268-4.138,5.037,5.037,0,0,1,3.9-3.5c3.182-.639,7.469,1.058,10.2,4.036a68.2,68.2,0,0,1,14,25.729,63.293,63.293,0,0,1,2.527,12.893,1.488,1.488,0,0,0,1.485,1.407l.082,0a1.488,1.488,0,0,0,1.4-1.567,64.8,64.8,0,0,0-2.619-13.485,74.087,74.087,0,0,0-8.75-19.184c-.014-.034-.027-.067-.043-.1-.276-.559-1.058-2.472.472-3.606A1.488,1.488,0,0,0,73.9,61.251a5.2,5.2,0,0,0-1.6,1.913q-1.388-1.815-2.963-3.592c-7.315-8.224-12.314-16.267-14.86-23.906a32.978,32.978,0,0,1-1.784-13.281,3.706,3.706,0,0,1,3.753-2.055,6.145,6.145,0,0,1,2.793,1.156,7.639,7.639,0,0,0-1.326,1.864,7.562,7.562,0,0,0-.441,5.809c2.065,6.3,10.14,10.86,10.483,11.05a1.488,1.488,0,0,0,2.078-.682c.163-.357,3.97-8.813,1.9-15.112a7.621,7.621,0,0,0-9.6-4.861c-.167.055-.33.117-.492.182a9.4,9.4,0,0,0-5.064-2.365,6.549,6.549,0,0,0-3.22.419c.012-.039.021-.079.033-.117A19.908,19.908,0,0,1,68,3.974q1.238-.318,2.449-.536h0a1.511,1.511,0,0,1,1.19.316,1.8,1.8,0,0,1,.5,1.338,1.488,1.488,0,0,0,1.488,1.469h.019a1.488,1.488,0,0,0,1.469-1.507,5.2,5.2,0,0,0-.442-2.078A23.7,23.7,0,0,1,85.22,4.937a22.375,22.375,0,0,1,7.315,5.212,13.261,13.261,0,0,0-7.279,10.119,18.961,18.961,0,0,0,.274,7.182,1.488,1.488,0,0,0,2.15.922c.464-.253.963-.495,1.491-.751l.437-.212A17.438,17.438,0,0,0,91.742,35.8c4.192,7.687,16.777,15.714,17.311,16.052a1.488,1.488,0,0,0,2.054-.461,1.5,1.5,0,0,0,.138-.281h0c.29-.786.561-1.565.822-2.34,4.369,2.13,6.995,3.137,7.116,3.183a1.488,1.488,0,0,0,1.985-1.083c.027-.127.6-2.879,1.178-7.7q1.188.3,2.413.573h0a1.486,1.486,0,0,0,.311.036h.012a1.488,1.488,0,0,0,1.488-1.477C126.576,41.663,126.642,26.736,122.451,19.049ZM53.3,68.395c.136.052.272.108.406.17a6.067,6.067,0,0,1,2.928,8.066c-2.2,4.715-8.305,8.179-11.184,9.6-.756-3.122-2.013-10.025.19-14.74a6.066,6.066,0,0,1,4.587-3.428c.443,2.515.732,4.935-.886,7.72a1.488,1.488,0,1,0,2.574,1.495A12.53,12.53,0,0,0,53.3,68.395Zm7.273-43.7a4.65,4.65,0,0,1,.8-1.125,13.921,13.921,0,0,1,2.307,4.8,1.488,1.488,0,0,0,2.871-.787,17.321,17.321,0,0,0-2.5-5.381,4.616,4.616,0,0,1,5.062,3.142c1.232,3.756-.236,8.819-1.154,11.357-2.243-1.5-6.423-4.713-7.655-8.469A4.605,4.605,0,0,1,60.57,24.694ZM109.984,9.307a20.3,20.3,0,0,1,4.481,1.324,25.469,25.469,0,0,1-14.99,1.705A11.516,11.516,0,0,1,109.984,9.307ZM90.14,23.142c-.058.228-.108.457-.156.686a20.18,20.18,0,0,1-1.893,1.008c-.337-3.13-.1-9.391,6.381-12.312q.593.831,1.121,1.723A17.439,17.439,0,0,0,90.14,23.142Zm28.443,25.342c-1.256-.537-3.178-1.394-5.607-2.588q.793-2.688,1.332-5.251,2.445.936,5.136,1.726C119.132,45.059,118.812,47.139,118.583,48.484Zm-6.65-12.069a1.488,1.488,0,1,0-1.257,2.7q.41.191.83.377a68.314,68.314,0,0,1-2.419,8.8c-3.462-2.372-11.723-8.41-14.73-13.924a14.518,14.518,0,0,1-.091-13.729c.234,5.159,3.841,10.54,9.9,14.768a1.488,1.488,0,0,0,1.7-2.441c-5.3-3.7-8.45-8.248-8.633-12.48a6.262,6.262,0,0,1,1.973-5.152,25.8,25.8,0,0,0,4.905.461,28.751,28.751,0,0,0,9.134-1.518,14.343,14.343,0,0,1,6.587,6.2c3,5.509,3.608,15.73,3.728,19.926A63.585,63.585,0,0,1,111.933,36.415Z" transform="translate(-41.423 0)"/></g></g><g transform="translate(81.254 48.495)"><g transform="translate(0)"><path class="b" d="M266.442,265.584c-.1-.409-2.447-10.093-8.217-15.648-3.107-2.99-7.115-3.911-9.892-2.493a34.9,34.9,0,0,0-3.912-2.816,1.488,1.488,0,1,0-1.522,2.558,32.254,32.254,0,0,1,3.244,2.319,6.464,6.464,0,0,0-.634,4.6,11.041,11.041,0,0,0,3.248,5.667c5.77,5.555,15.537,7.534,15.95,7.616a1.488,1.488,0,0,0,1.736-1.8Zm-15.621-7.956a8.163,8.163,0,0,1-2.393-4.1,4.169,4.169,0,0,1,.047-1.976,27.179,27.179,0,0,1,3.256,3.709,1.488,1.488,0,0,0,2.418-1.736,29.7,29.7,0,0,0-3.219-3.739c.082,0,.164-.009.247-.009a7.651,7.651,0,0,1,4.983,2.307c3.493,3.363,5.643,8.679,6.666,11.761C259.707,262.936,254.314,260.991,250.82,257.628Z" transform="translate(-242.171 -244.417)"/></g></g></g><g transform="translate(8 3292)"><path class="b" d="M110.628,29.167,88.481.506a1.3,1.3,0,0,0-2.061,0L64.274,29.167a1.3,1.3,0,0,0,1.031,2.1H77.029V52.271a1.461,1.461,0,0,0,1.3,1.476H96.57a1.461,1.461,0,0,0,1.3-1.476V31.266H109.6a1.3,1.3,0,0,0,1.03-2.1ZM96.57,28.66a1.3,1.3,0,0,0-1.3,1.3V51.69H79.634V29.963a1.3,1.3,0,0,0-1.3-1.3H67.957L87.451,3.434,106.945,28.66Z" transform="translate(359.998 530)"/><g class="c" transform="translate(436.704 585.899)"><rect class="e" width="20.962" height="7.623"/><rect class="f" x="1.05" y="1.05" width="18.862" height="5.523"/></g></g><path class="d" d="M-1.184-17.536a6.1,6.1,0,0,1-.44,2.368,5.573,5.573,0,0,1-1.176,1.8,5.107,5.107,0,0,1-1.712,1.144,5.308,5.308,0,0,1-2.032.4,5.558,5.558,0,0,1-2.128-.4,4.857,4.857,0,0,1-1.688-1.144,5.263,5.263,0,0,1-1.112-1.8,6.643,6.643,0,0,1-.4-2.368,7.007,7.007,0,0,1,.4-2.432,5.293,5.293,0,0,1,1.112-1.84,4.9,4.9,0,0,1,1.688-1.16,5.462,5.462,0,0,1,2.128-.408,5.522,5.522,0,0,1,2.136.408,4.962,4.962,0,0,1,1.7,1.16,5.23,5.23,0,0,1,1.12,1.84A7.007,7.007,0,0,1-1.184-17.536Zm-3.056,0a5.812,5.812,0,0,0-.176-1.552A2.778,2.778,0,0,0-4.9-20.1a1.793,1.793,0,0,0-.736-.552,2.432,2.432,0,0,0-.9-.168,2.37,2.37,0,0,0-.9.168,1.747,1.747,0,0,0-.72.552,2.768,2.768,0,0,0-.472,1.008A6.075,6.075,0,0,0-8.8-17.536a5.644,5.644,0,0,0,.168,1.5,2.606,2.606,0,0,0,.472.968,1.732,1.732,0,0,0,.72.528,2.475,2.475,0,0,0,.9.16,2.539,2.539,0,0,0,.9-.16,1.78,1.78,0,0,0,.736-.528,2.618,2.618,0,0,0,.488-.968A5.4,5.4,0,0,0-4.24-17.536ZM6.512-22.512a2.1,2.1,0,0,1,.48-.432,1.431,1.431,0,0,1,.8-.192h2.864L-6.528-.592a1.568,1.568,0,0,1-.488.424A1.42,1.42,0,0,1-7.728,0h-2.944ZM11.872-5.44a6.1,6.1,0,0,1-.44,2.368,5.573,5.573,0,0,1-1.176,1.8A5.21,5.21,0,0,1,8.544-.12,5.218,5.218,0,0,1,6.512.288,5.462,5.462,0,0,1,4.384-.12,4.951,4.951,0,0,1,2.7-1.272a5.263,5.263,0,0,1-1.112-1.8,6.643,6.643,0,0,1-.4-2.368,7.007,7.007,0,0,1,.4-2.432A5.293,5.293,0,0,1,2.7-9.712a4.9,4.9,0,0,1,1.688-1.16,5.462,5.462,0,0,1,2.128-.408,5.522,5.522,0,0,1,2.136.408,4.962,4.962,0,0,1,1.7,1.16,5.23,5.23,0,0,1,1.12,1.84A7.007,7.007,0,0,1,11.872-5.44Zm-3.04,0a5.572,5.572,0,0,0-.184-1.552A2.871,2.871,0,0,0,8.152-8a1.793,1.793,0,0,0-.736-.552,2.432,2.432,0,0,0-.9-.168,2.37,2.37,0,0,0-.9.168A1.691,1.691,0,0,0,4.9-8a2.953,2.953,0,0,0-.472,1.008A5.812,5.812,0,0,0,4.256-5.44a5.489,5.489,0,0,0,.176,1.5A2.776,2.776,0,0,0,4.9-2.96a1.676,1.676,0,0,0,.712.528,2.475,2.475,0,0,0,.9.16,2.539,2.539,0,0,0,.9-.16,1.78,1.78,0,0,0,.736-.528,2.7,2.7,0,0,0,.5-.976A5.263,5.263,0,0,0,8.832-5.44Z" transform="translate(455 3914)"/></g></svg>