<svg xmlns="http://www.w3.org/2000/svg" width="145.421" height="133.54" viewBox="0 0 145.421 133.54"><defs><style>.a,.c,.g,.j{fill:none;}.a,.e{stroke:#f38500;}.a{stroke-width:3px;}.b{fill:#fff;}.c{stroke:#f38800;stroke-width:5px;}.d,.f,.h{fill:#6bab79;}.d,.f,.g{stroke:#6bab79;}.d{stroke-width:2px;}.e{fill:#f38500;}.g{stroke-linecap:round;stroke-linejoin:round;stroke-width:2.1px;}.i{stroke:none;}</style></defs><g transform="translate(-1432 -3823.5)"><g transform="translate(127 3697.207)"><g class="a" transform="translate(1305 162.793)"><ellipse class="i" cx="47.5" cy="48" rx="47.5" ry="48"/><ellipse class="j" cx="47.5" cy="48" rx="46" ry="46.5"/></g><rect class="b" width="97.04" height="4.804" transform="matrix(-0.174, -0.985, 0.985, -0.174, 1359.374, 259.429)"/><rect class="b" width="52.844" height="34.589" transform="translate(1343.512 207.713) rotate(-45)"/><rect class="b" width="97.04" height="4.804" transform="translate(1354.762 162.793) rotate(90)"/><g class="c" transform="translate(1325 182.793)"><circle class="i" cx="28.5" cy="28.5" r="28.5"/><circle class="j" cx="28.5" cy="28.5" r="26"/></g><path class="d" d="M7.586-23.46v12.13H19.095v5.414H7.586V6.273H1.669V-5.916H-9.78V-11.33H1.669V-23.46Z" transform="translate(1348.619 218.677)"/><g transform="translate(1391.223 210.42) rotate(-90)"><g transform="translate(0 0)"><path class="e" d="M14.421,6.83.89.065A.615.615,0,0,0,.1.946L4.191,7.381.1,13.816A.615.615,0,0,0,.89,14.7L14.421,7.931a.615.615,0,0,0,0-1.1Z"/></g></g></g><g transform="translate(1106 3294)"><path class="f" d="M110.628,29.167,88.481.506a1.3,1.3,0,0,0-2.061,0L64.274,29.167a1.3,1.3,0,0,0,1.031,2.1H77.029V52.271a1.461,1.461,0,0,0,1.3,1.476H96.57a1.461,1.461,0,0,0,1.3-1.476V31.266H109.6a1.3,1.3,0,0,0,1.03-2.1ZM96.57,28.66a1.3,1.3,0,0,0-1.3,1.3V51.69H79.634V29.963a1.3,1.3,0,0,0-1.3-1.3H67.957L87.451,3.434,106.945,28.66Z" transform="translate(359.998 530)"/><g class="g" transform="translate(436.704 585.899)"><rect class="i" width="20.962" height="7.623"/><rect class="j" x="1.05" y="1.05" width="18.862" height="5.523"/></g></g><path class="h" d="M-1.184-17.536a6.1,6.1,0,0,1-.44,2.368,5.573,5.573,0,0,1-1.176,1.8,5.107,5.107,0,0,1-1.712,1.144,5.308,5.308,0,0,1-2.032.4,5.558,5.558,0,0,1-2.128-.4,4.857,4.857,0,0,1-1.688-1.144,5.263,5.263,0,0,1-1.112-1.8,6.643,6.643,0,0,1-.4-2.368,7.007,7.007,0,0,1,.4-2.432,5.293,5.293,0,0,1,1.112-1.84,4.9,4.9,0,0,1,1.688-1.16,5.462,5.462,0,0,1,2.128-.408,5.522,5.522,0,0,1,2.136.408,4.962,4.962,0,0,1,1.7,1.16,5.23,5.23,0,0,1,1.12,1.84A7.007,7.007,0,0,1-1.184-17.536Zm-3.056,0a5.812,5.812,0,0,0-.176-1.552A2.778,2.778,0,0,0-4.9-20.1a1.793,1.793,0,0,0-.736-.552,2.432,2.432,0,0,0-.9-.168,2.37,2.37,0,0,0-.9.168,1.747,1.747,0,0,0-.72.552,2.768,2.768,0,0,0-.472,1.008A6.075,6.075,0,0,0-8.8-17.536a5.644,5.644,0,0,0,.168,1.5,2.606,2.606,0,0,0,.472.968,1.732,1.732,0,0,0,.72.528,2.475,2.475,0,0,0,.9.16,2.539,2.539,0,0,0,.9-.16,1.78,1.78,0,0,0,.736-.528,2.618,2.618,0,0,0,.488-.968A5.4,5.4,0,0,0-4.24-17.536ZM6.512-22.512a2.1,2.1,0,0,1,.48-.432,1.431,1.431,0,0,1,.8-.192h2.864L-6.528-.592a1.568,1.568,0,0,1-.488.424A1.42,1.42,0,0,1-7.728,0h-2.944ZM11.872-5.44a6.1,6.1,0,0,1-.44,2.368,5.573,5.573,0,0,1-1.176,1.8A5.21,5.21,0,0,1,8.544-.12,5.218,5.218,0,0,1,6.512.288,5.462,5.462,0,0,1,4.384-.12,4.951,4.951,0,0,1,2.7-1.272a5.263,5.263,0,0,1-1.112-1.8,6.643,6.643,0,0,1-.4-2.368,7.007,7.007,0,0,1,.4-2.432A5.293,5.293,0,0,1,2.7-9.712a4.9,4.9,0,0,1,1.688-1.16,5.462,5.462,0,0,1,2.128-.408,5.522,5.522,0,0,1,2.136.408,4.962,4.962,0,0,1,1.7,1.16,5.23,5.23,0,0,1,1.12,1.84A7.007,7.007,0,0,1,11.872-5.44Zm-3.04,0a5.572,5.572,0,0,0-.184-1.552A2.871,2.871,0,0,0,8.152-8a1.793,1.793,0,0,0-.736-.552,2.432,2.432,0,0,0-.9-.168,2.37,2.37,0,0,0-.9.168A1.691,1.691,0,0,0,4.9-8a2.953,2.953,0,0,0-.472,1.008A5.812,5.812,0,0,0,4.256-5.44a5.489,5.489,0,0,0,.176,1.5A2.776,2.776,0,0,0,4.9-2.96a1.676,1.676,0,0,0,.712.528,2.475,2.475,0,0,0,.9.16,2.539,2.539,0,0,0,.9-.16,1.78,1.78,0,0,0,.736-.528,2.7,2.7,0,0,0,.5-.976A5.263,5.263,0,0,0,8.832-5.44Z" transform="translate(1553 3916)"/></g></svg>