<svg xmlns="http://www.w3.org/2000/svg" width="141.402" height="133.503" viewBox="0 0 141.402 133.503"><defs><style>.a{fill:#f38500;stroke:#f38500;}.b,.d{fill:#6bab79;}.b,.c{stroke:#6bab79;}.c,.f{fill:none;}.c{stroke-linecap:round;stroke-linejoin:round;stroke-width:2.1px;}.e{stroke:none;}</style></defs><g transform="translate(-897.019 -3356.5)"><g transform="translate(897.533 3386.51)"><path class="a" d="M120.032,49.339a9.831,9.831,0,0,0-3.469-6.858,8.99,8.99,0,0,0-6.715-2.085,9.62,9.62,0,0,0-7.681,5.628l-3.015.266-2.976-.834a.748.748,0,0,1-.5-.49,27.93,27.93,0,0,0-3.672-7.228l1.053-2.832,3.324-3.6a6.759,6.759,0,0,0,4.91-2.35,6.87,6.87,0,0,0-.216-9.174,6.754,6.754,0,0,0-4.995-2.116,6.848,6.848,0,0,0-4.955,2.191A6.78,6.78,0,0,0,89.32,24.78L86,28.376,83.21,29.668a27.944,27.944,0,0,0-13.7-3.812l-1.821-2.9-.642-3.192a8.661,8.661,0,0,0,3.071-8.545A9.554,9.554,0,0,0,52.993,8.223a8.528,8.528,0,0,0-1.263,6.548,9.01,9.01,0,0,0,5.82,6.551l.71,3.526-.564,3.437a27.965,27.965,0,0,0-7.066,4.543l-2.088-.372-2.359-1.78a6.823,6.823,0,1,0-5.411,7.968l1.977,1.491.887,1.815a.3.3,0,0,1,0,.254,27.73,27.73,0,0,0-2.548,11.668c0,.752.031,1.517.093,2.273a.312.312,0,0,1-.124.285l-3.339,2.379-3.811,1.2a8.934,8.934,0,0,0-8.281-1.416c-.057.019-.113.039-.169.06l-.047.017a1.51,1.51,0,0,0,1.023,2.841l.071-.026.071-.026A5.92,5.92,0,0,1,32.523,62.8a1.509,1.509,0,0,0,1.493.346l4.837-1.522a1.511,1.511,0,0,0,.423-.211l3.533-2.517a3.349,3.349,0,0,0,1.381-2.99c-.055-.675-.083-1.357-.083-2.028a24.73,24.73,0,0,1,2.272-10.407,3.3,3.3,0,0,0-.033-2.841L45.3,38.486a1.509,1.509,0,0,0-.447-.542L42.012,35.8a1.509,1.509,0,0,0-1.37-.233,3.812,3.812,0,0,1-3.455-.583,3.8,3.8,0,0,1-.592-5.518,3.842,3.842,0,0,1,4.995-.681,3.8,3.8,0,0,1,1.677,2.847,1.509,1.509,0,0,0,.6,1.079l3.148,2.375a1.509,1.509,0,0,0,.644.281l3.172.565a1.509,1.509,0,0,0,1.292-.38,24.981,24.981,0,0,1,7.507-4.809,1.509,1.509,0,0,0,.915-1.151l.743-4.525a1.512,1.512,0,0,0-.01-.543l-.94-4.673a1.509,1.509,0,0,0-1.1-1.164,6.081,6.081,0,0,1-4.547-4.545,5.532,5.532,0,0,1,.825-4.247,6.538,6.538,0,0,1,11.658,1.951,5.722,5.722,0,0,1-2.608,6,1.51,1.51,0,0,0-.66,1.566l.887,4.408a1.512,1.512,0,0,0,.2.5L67.166,27.8a2.277,2.277,0,0,0,1.942,1.073h0a24.917,24.917,0,0,1,12.879,3.582,2.276,2.276,0,0,0,2.136.119l3.413-1.583a1.511,1.511,0,0,0,.473-.345L92,26.334a1.509,1.509,0,0,0,.383-1.256,3.8,3.8,0,0,1,6.514-3.205,3.826,3.826,0,0,1,.119,5.109,3.778,3.778,0,0,1-3.165,1.3,1.509,1.509,0,0,0-1.222.481l-3.986,4.311a1.506,1.506,0,0,0-.307.5l-1.3,3.484a2.273,2.273,0,0,0,.3,2.135,24.931,24.931,0,0,1,3.482,6.735,3.764,3.764,0,0,0,2.547,2.436l3.242.908a1.51,1.51,0,0,0,.54.05l4.21-.372a1.51,1.51,0,0,0,1.294-1.009,6.656,6.656,0,0,1,5.5-4.541,6,6,0,0,1,4.475,1.4,6.835,6.835,0,0,1,2.4,4.775,7.356,7.356,0,0,1-.659,3.662,1.51,1.51,0,0,0,2.737,1.274,10.394,10.394,0,0,0,.931-5.169Z" transform="translate(-19.502 0)"/><path class="a" d="M92.932,249.12a6.095,6.095,0,0,1-7.523-3.41,1.509,1.509,0,0,0-1.5-.865l-3.952.349a1.508,1.508,0,0,0-.523.144l-2.983,1.439a3.762,3.762,0,0,0-2.086,2.881,24.82,24.82,0,0,1-1.417,5.478,3.75,3.75,0,0,0,.22,3.188l1.062,1.9a1.508,1.508,0,0,0,.477.517l2.957,1.984a1.51,1.51,0,0,0,1.381.156,3.812,3.812,0,0,1,3.482.391,3.8,3.8,0,0,1,.9,5.477,3.841,3.841,0,0,1-4.949.957,3.8,3.8,0,0,1-1.832-2.75,1.509,1.509,0,0,0-.654-1.044l-3.275-2.2a1.509,1.509,0,0,0-.659-.245l-2.061-.251a3.879,3.879,0,0,0-3.153,1.055,25.13,25.13,0,0,1-5.509,3.982A3.88,3.88,0,0,0,59.3,271.42l-.261,4.176a1.509,1.509,0,0,0,.043.463l1.3,5.142a1.509,1.509,0,0,0,1.057,1.085,5.109,5.109,0,0,1,3.572,3.66,5.092,5.092,0,0,1-3.835,6.215,5.091,5.091,0,0,1-4.665-8.608,1.509,1.509,0,0,0,.406-1.446l-1.3-5.174a1.509,1.509,0,0,0-.182-.428l-2.01-3.233a4.441,4.441,0,0,0-3.812-2.093h0a25.079,25.079,0,0,1-4.858-.475,4.432,4.432,0,0,0-4.1,1.295l-2.658,2.8a1.513,1.513,0,0,0-.264.383l-2.975,6.172a1.51,1.51,0,0,0,.005,1.322,3.8,3.8,0,0,1-5.284,4.992,3.846,3.846,0,0,1-1.649-4.744,3.772,3.772,0,0,1,2.664-2.27,1.51,1.51,0,0,0,1.018-.815l2.994-6.212a1.5,1.5,0,0,0,.135-.445l.587-4.17a3.743,3.743,0,0,0-1.334-3.414,25.124,25.124,0,0,1-5.678-6.508,3.747,3.747,0,0,0-3.152-1.784l-4.163-.04a1.494,1.494,0,0,0-.467.069l-4.558,1.434a1.51,1.51,0,0,0-1.047,1.271,5.922,5.922,0,0,1-11.513,1.182,5.842,5.842,0,0,1,.038-3.744A1.51,1.51,0,1,0,.488,256.5a8.84,8.84,0,0,0-.053,5.665,8.98,8.98,0,0,0,8.52,6.161,8.854,8.854,0,0,0,2.662-.41,8.954,8.954,0,0,0,6.034-6.539l3.452-1.086,3.924.037a.707.707,0,0,1,.6.329,28.135,28.135,0,0,0,6.359,7.288.708.708,0,0,1,.246.649l-.554,3.937-2.6,5.4A6.821,6.821,0,0,0,27.99,290.3a6.766,6.766,0,0,0,5.4.568,6.849,6.849,0,0,0,4.1-3.547,6.775,6.775,0,0,0,.274-5.269l2.577-5.346,2.5-2.634a1.428,1.428,0,0,1,1.325-.409,28.158,28.158,0,0,0,5.462.532h0a1.434,1.434,0,0,1,1.232.668l1.886,3.033,1.048,4.16a8.075,8.075,0,0,0-1.427,7.656,8.182,8.182,0,0,0,7.742,5.583,7.943,7.943,0,0,0,1.725-.19,8.111,8.111,0,0,0,6.107-9.9,8.135,8.135,0,0,0-4.829-5.538l-1.039-4.122.247-3.941a.841.841,0,0,1,.433-.69,28.164,28.164,0,0,0,6.171-4.46.872.872,0,0,1,.705-.243l1.7.207,2.454,1.647a6.823,6.823,0,1,0,4.961-8.255l-2.057-1.38L75.8,256.85a.741.741,0,0,1-.038-.629,27.845,27.845,0,0,0,1.59-6.145.749.749,0,0,1,.407-.579l2.735-1.319,2.685-.237a9.085,9.085,0,0,0,10.694,4.048,1.51,1.51,0,0,0-.944-2.869Z" transform="translate(0 -192.306)"/><path class="a" d="M167.422,147.037a21.148,21.148,0,1,0,6.441,2.706,1.51,1.51,0,1,0-1.615,2.551,18.045,18.045,0,1,1-5.517-2.318,1.51,1.51,0,1,0,.69-2.94Z" transform="translate(-112.964 -113.744)"/><path class="b" d="M54.194,25.361a7.1,7.1,0,1,0-7.1-7.1A7.108,7.108,0,0,0,54.194,25.361Zm0-11.18a4.081,4.081,0,1,1-4.081,4.081A4.085,4.085,0,0,1,54.194,14.181Z" transform="translate(-37.618 -5.667)"/><path class="b" d="M54.132,386.653a5.2,5.2,0,1,0,5.2,5.2A5.208,5.208,0,0,0,54.132,386.653Zm0,7.385a2.183,2.183,0,1,1,2.183-2.183A2.185,2.185,0,0,1,54.132,394.038Z" transform="translate(-39.084 -305.572)"/><path class="b" d="M383.994,408.111a6.949,6.949,0,1,0,6.948,6.949A6.956,6.956,0,0,0,383.994,408.111Zm0,10.877a3.929,3.929,0,1,1,3.929-3.929A3.933,3.933,0,0,1,383.994,418.988Z" transform="translate(-301.149 -322.711)"/><path class="b" d="M196.986,198.492a6.58,6.58,0,1,0-6.58,6.58A6.588,6.588,0,0,0,196.986,198.492Zm-6.58,3.561a3.561,3.561,0,1,1,3.561-3.561A3.565,3.565,0,0,1,190.405,202.053Z" transform="translate(-146.825 -150.033)"/><path class="b" d="M217.051,288.115a4.961,4.961,0,1,0-4.961-4.961A4.967,4.967,0,0,0,217.051,288.115Zm0-6.9a1.942,1.942,0,1,1-1.942,1.942A1.944,1.944,0,0,1,217.051,281.213Z" transform="translate(-169.4 -218.945)"/><path class="b" d="M268.673,234a4.408,4.408,0,1,0,4.408-4.408A4.413,4.413,0,0,0,268.673,234Zm4.408-1.389A1.388,1.388,0,1,1,271.693,234,1.39,1.39,0,0,1,273.081,232.616Z" transform="translate(-214.593 -180.132)"/></g><g transform="translate(567 2827)"><path class="b" d="M110.628,29.167,88.481.506a1.3,1.3,0,0,0-2.061,0L64.274,29.167a1.3,1.3,0,0,0,1.031,2.1H77.029V52.271a1.461,1.461,0,0,0,1.3,1.476H96.57a1.461,1.461,0,0,0,1.3-1.476V31.266H109.6a1.3,1.3,0,0,0,1.03-2.1ZM96.57,28.66a1.3,1.3,0,0,0-1.3,1.3V51.69H79.634V29.963a1.3,1.3,0,0,0-1.3-1.3H67.957L87.451,3.434,106.945,28.66Z" transform="translate(359.998 530)"/><g class="c" transform="translate(436.704 585.899)"><rect class="e" width="20.962" height="7.623"/><rect class="f" x="1.05" y="1.05" width="18.862" height="5.523"/></g></g><path class="d" d="M-1.184-17.536a6.1,6.1,0,0,1-.44,2.368,5.573,5.573,0,0,1-1.176,1.8,5.107,5.107,0,0,1-1.712,1.144,5.308,5.308,0,0,1-2.032.4,5.558,5.558,0,0,1-2.128-.4,4.857,4.857,0,0,1-1.688-1.144,5.263,5.263,0,0,1-1.112-1.8,6.643,6.643,0,0,1-.4-2.368,7.007,7.007,0,0,1,.4-2.432,5.293,5.293,0,0,1,1.112-1.84,4.9,4.9,0,0,1,1.688-1.16,5.462,5.462,0,0,1,2.128-.408,5.522,5.522,0,0,1,2.136.408,4.962,4.962,0,0,1,1.7,1.16,5.23,5.23,0,0,1,1.12,1.84A7.007,7.007,0,0,1-1.184-17.536Zm-3.056,0a5.812,5.812,0,0,0-.176-1.552A2.778,2.778,0,0,0-4.9-20.1a1.793,1.793,0,0,0-.736-.552,2.432,2.432,0,0,0-.9-.168,2.37,2.37,0,0,0-.9.168,1.747,1.747,0,0,0-.72.552,2.768,2.768,0,0,0-.472,1.008A6.075,6.075,0,0,0-8.8-17.536a5.644,5.644,0,0,0,.168,1.5,2.606,2.606,0,0,0,.472.968,1.732,1.732,0,0,0,.72.528,2.475,2.475,0,0,0,.9.16,2.539,2.539,0,0,0,.9-.16,1.78,1.78,0,0,0,.736-.528,2.618,2.618,0,0,0,.488-.968A5.4,5.4,0,0,0-4.24-17.536ZM6.512-22.512a2.1,2.1,0,0,1,.48-.432,1.431,1.431,0,0,1,.8-.192h2.864L-6.528-.592a1.568,1.568,0,0,1-.488.424A1.42,1.42,0,0,1-7.728,0h-2.944ZM11.872-5.44a6.1,6.1,0,0,1-.44,2.368,5.573,5.573,0,0,1-1.176,1.8A5.21,5.21,0,0,1,8.544-.12,5.218,5.218,0,0,1,6.512.288,5.462,5.462,0,0,1,4.384-.12,4.951,4.951,0,0,1,2.7-1.272a5.263,5.263,0,0,1-1.112-1.8,6.643,6.643,0,0,1-.4-2.368,7.007,7.007,0,0,1,.4-2.432A5.293,5.293,0,0,1,2.7-9.712a4.9,4.9,0,0,1,1.688-1.16,5.462,5.462,0,0,1,2.128-.408,5.522,5.522,0,0,1,2.136.408,4.962,4.962,0,0,1,1.7,1.16,5.23,5.23,0,0,1,1.12,1.84A7.007,7.007,0,0,1,11.872-5.44Zm-3.04,0a5.572,5.572,0,0,0-.184-1.552A2.871,2.871,0,0,0,8.152-8a1.793,1.793,0,0,0-.736-.552,2.432,2.432,0,0,0-.9-.168,2.37,2.37,0,0,0-.9.168A1.691,1.691,0,0,0,4.9-8a2.953,2.953,0,0,0-.472,1.008A5.812,5.812,0,0,0,4.256-5.44a5.489,5.489,0,0,0,.176,1.5A2.776,2.776,0,0,0,4.9-2.96a1.676,1.676,0,0,0,.712.528,2.475,2.475,0,0,0,.9.16,2.539,2.539,0,0,0,.9-.16,1.78,1.78,0,0,0,.736-.528,2.7,2.7,0,0,0,.5-.976A5.263,5.263,0,0,0,8.832-5.44Z" transform="translate(1014 3449)"/></g></svg>