<svg xmlns="http://www.w3.org/2000/svg" width="145.625" height="139.166" viewBox="0 0 145.625 139.166"><defs><style>.a{fill:#f38500;}.b,.c{fill:#6fad76;}.c{stroke:#6fad76;stroke-width:2px;}</style></defs><g transform="translate(-223.375 -4315.778)"><g transform="translate(223.375 4335.838)"><path class="a" d="M114.168,27.912a13.956,13.956,0,1,0-13.957-13.955A13.971,13.971,0,0,0,114.168,27.912Zm0-21.094a7.138,7.138,0,1,1-7.138,7.139A7.146,7.146,0,0,1,114.168,6.819Z" transform="translate(-95.243)"/><path class="a" d="M113.6,68.914H102.9A13.633,13.633,0,0,0,89.283,82.532v22.948a13.59,13.59,0,0,0,5.439,10.875v36.928a3.409,3.409,0,0,0,6.819,0V114.5a3.407,3.407,0,0,0-1.82-3.015,6.805,6.805,0,0,1-3.62-6.006V82.532a6.807,6.807,0,0,1,6.8-6.8h10.7a6.807,6.807,0,0,1,6.8,6.8v22.948a6.806,6.806,0,0,1-3.623,6.008,3.407,3.407,0,0,0-1.817,3.014v38.782a3.409,3.409,0,1,0,6.819,0V116.356a13.588,13.588,0,0,0,5.441-10.875V82.532A13.633,13.633,0,0,0,113.6,68.914Z" transform="translate(-89.283 -37.588)"/></g><g transform="translate(277.22 4315.778)"><path class="b" d="M114.168,27.912a13.956,13.956,0,1,0-13.957-13.955A13.971,13.971,0,0,0,114.168,27.912Zm0-21.094a7.138,7.138,0,1,1-7.138,7.139A7.146,7.146,0,0,1,114.168,6.819Z" transform="translate(-95.243)"/><path class="b" d="M113.6,68.914H102.9A13.633,13.633,0,0,0,89.283,82.532v22.948a13.59,13.59,0,0,0,5.439,10.875v36.928a3.409,3.409,0,0,0,6.819,0V114.5a3.407,3.407,0,0,0-1.82-3.015,6.805,6.805,0,0,1-3.62-6.006V82.532a6.807,6.807,0,0,1,6.8-6.8h10.7a6.807,6.807,0,0,1,6.8,6.8v22.948a6.806,6.806,0,0,1-3.623,6.008,3.407,3.407,0,0,0-1.817,3.014v38.782a3.409,3.409,0,1,0,6.819,0V116.356a13.588,13.588,0,0,0,5.441-10.875V82.532A13.633,13.633,0,0,0,113.6,68.914Z" transform="translate(-89.283 -37.588)"/></g><g transform="translate(331.065 4335.838)"><path class="a" d="M114.168,27.912a13.956,13.956,0,1,0-13.957-13.955A13.971,13.971,0,0,0,114.168,27.912Zm0-21.094a7.138,7.138,0,1,1-7.138,7.139A7.146,7.146,0,0,1,114.168,6.819Z" transform="translate(-95.243)"/><path class="a" d="M113.6,68.914H102.9A13.633,13.633,0,0,0,89.283,82.532v22.948a13.59,13.59,0,0,0,5.439,10.875v36.928a3.409,3.409,0,0,0,6.819,0V114.5a3.407,3.407,0,0,0-1.82-3.015,6.805,6.805,0,0,1-3.62-6.006V82.532a6.807,6.807,0,0,1,6.8-6.8h10.7a6.807,6.807,0,0,1,6.8,6.8v22.948a6.806,6.806,0,0,1-3.623,6.008,3.407,3.407,0,0,0-1.817,3.014v38.782a3.409,3.409,0,1,0,6.819,0V116.356a13.588,13.588,0,0,0,5.441-10.875V82.532A13.633,13.633,0,0,0,113.6,68.914Z" transform="translate(-89.283 -37.588)"/></g><path class="c" d="M-1.828-23.46v5.554h5.27v2.479h-5.27v5.581H-4.537v-5.581H-9.78v-2.479h5.243V-23.46Z" transform="translate(299.405 4386.859)"/></g></svg>