<svg xmlns="http://www.w3.org/2000/svg" width="176.32" height="122.381" viewBox="0 0 176.32 122.381"><defs><style>.a{fill:#f38800;}.b,.c{fill:#6bab79;}.c{stroke:#6bab79;}</style></defs><g transform="translate(-1359 -4472)"><g transform="translate(1269.717 4472)"><path class="a" d="M106.583,12.744a6.372,6.372,0,1,0-6.372-6.371A6.379,6.379,0,0,0,106.583,12.744Zm0-9.631a3.259,3.259,0,1,1-3.259,3.26A3.263,3.263,0,0,1,106.583,3.113Z" transform="translate(-8.66 0)"/><path class="a" d="M100.386,68.914H95.5a6.224,6.224,0,0,0-6.217,6.218V85.61a6.2,6.2,0,0,0,2.483,4.965v16.861a1.557,1.557,0,0,0,3.113,0V89.729a1.556,1.556,0,0,0-.831-1.377A3.107,3.107,0,0,1,92.4,85.61V75.132a3.108,3.108,0,0,1,3.1-3.1h4.886a3.108,3.108,0,0,1,3.1,3.1V85.61a3.108,3.108,0,0,1-1.654,2.743,1.556,1.556,0,0,0-.83,1.376v17.707a1.557,1.557,0,0,0,3.113,0V90.575A6.2,6.2,0,0,0,106.6,85.61V75.132A6.225,6.225,0,0,0,100.386,68.914Z" transform="translate(0 -54.611)"/></g><g transform="translate(1292.717 4472)"><path class="a" d="M106.583,12.744a6.372,6.372,0,1,0-6.372-6.371A6.379,6.379,0,0,0,106.583,12.744Zm0-9.631a3.259,3.259,0,1,1-3.259,3.26A3.263,3.263,0,0,1,106.583,3.113Z" transform="translate(-8.66 0)"/><path class="a" d="M100.386,68.914H95.5a6.224,6.224,0,0,0-6.217,6.218V85.61a6.2,6.2,0,0,0,2.483,4.965v16.861a1.557,1.557,0,0,0,3.113,0V89.729a1.556,1.556,0,0,0-.831-1.377A3.107,3.107,0,0,1,92.4,85.61V75.132a3.108,3.108,0,0,1,3.1-3.1h4.886a3.108,3.108,0,0,1,3.1,3.1V85.61a3.108,3.108,0,0,1-1.654,2.743,1.556,1.556,0,0,0-.83,1.376v17.707a1.557,1.557,0,0,0,3.113,0V90.575A6.2,6.2,0,0,0,106.6,85.61V75.132A6.225,6.225,0,0,0,100.386,68.914Z" transform="translate(0 -54.611)"/></g><g transform="translate(1314.717 4472)"><path class="a" d="M106.583,12.744a6.372,6.372,0,1,0-6.372-6.371A6.379,6.379,0,0,0,106.583,12.744Zm0-9.631a3.259,3.259,0,1,1-3.259,3.26A3.263,3.263,0,0,1,106.583,3.113Z" transform="translate(-8.66 0)"/><path class="a" d="M100.386,68.914H95.5a6.224,6.224,0,0,0-6.217,6.218V85.61a6.2,6.2,0,0,0,2.483,4.965v16.861a1.557,1.557,0,0,0,3.113,0V89.729a1.556,1.556,0,0,0-.831-1.377A3.107,3.107,0,0,1,92.4,85.61V75.132a3.108,3.108,0,0,1,3.1-3.1h4.886a3.108,3.108,0,0,1,3.1,3.1V85.61a3.108,3.108,0,0,1-1.654,2.743,1.556,1.556,0,0,0-.83,1.376v17.707a1.557,1.557,0,0,0,3.113,0V90.575A6.2,6.2,0,0,0,106.6,85.61V75.132A6.225,6.225,0,0,0,100.386,68.914Z" transform="translate(0 -54.611)"/></g><g transform="translate(1337.717 4472)"><path class="a" d="M106.583,12.744a6.372,6.372,0,1,0-6.372-6.371A6.379,6.379,0,0,0,106.583,12.744Zm0-9.631a3.259,3.259,0,1,1-3.259,3.26A3.263,3.263,0,0,1,106.583,3.113Z" transform="translate(-8.66 0)"/><path class="a" d="M100.386,68.914H95.5a6.224,6.224,0,0,0-6.217,6.218V85.61a6.2,6.2,0,0,0,2.483,4.965v16.861a1.557,1.557,0,0,0,3.113,0V89.729a1.556,1.556,0,0,0-.831-1.377A3.107,3.107,0,0,1,92.4,85.61V75.132a3.108,3.108,0,0,1,3.1-3.1h4.886a3.108,3.108,0,0,1,3.1,3.1V85.61a3.108,3.108,0,0,1-1.654,2.743,1.556,1.556,0,0,0-.83,1.376v17.707a1.557,1.557,0,0,0,3.113,0V90.575A6.2,6.2,0,0,0,106.6,85.61V75.132A6.225,6.225,0,0,0,100.386,68.914Z" transform="translate(0 -54.611)"/></g><g transform="translate(1360.717 4472)"><path class="a" d="M106.583,12.744a6.372,6.372,0,1,0-6.372-6.371A6.379,6.379,0,0,0,106.583,12.744Zm0-9.631a3.259,3.259,0,1,1-3.259,3.26A3.263,3.263,0,0,1,106.583,3.113Z" transform="translate(-8.66 0)"/><path class="a" d="M100.386,68.914H95.5a6.224,6.224,0,0,0-6.217,6.218V85.61a6.2,6.2,0,0,0,2.483,4.965v16.861a1.557,1.557,0,0,0,3.113,0V89.729a1.556,1.556,0,0,0-.831-1.377A3.107,3.107,0,0,1,92.4,85.61V75.132a3.108,3.108,0,0,1,3.1-3.1h4.886a3.108,3.108,0,0,1,3.1,3.1V85.61a3.108,3.108,0,0,1-1.654,2.743,1.556,1.556,0,0,0-.83,1.376v17.707a1.557,1.557,0,0,0,3.113,0V90.575A6.2,6.2,0,0,0,106.6,85.61V75.132A6.225,6.225,0,0,0,100.386,68.914Z" transform="translate(0 -54.611)"/></g><g transform="translate(1383.717 4472)"><path class="a" d="M106.583,12.744a6.372,6.372,0,1,0-6.372-6.371A6.379,6.379,0,0,0,106.583,12.744Zm0-9.631a3.259,3.259,0,1,1-3.259,3.26A3.263,3.263,0,0,1,106.583,3.113Z" transform="translate(-8.66 0)"/><path class="a" d="M100.386,68.914H95.5a6.224,6.224,0,0,0-6.217,6.218V85.61a6.2,6.2,0,0,0,2.483,4.965v16.861a1.557,1.557,0,0,0,3.113,0V89.729a1.556,1.556,0,0,0-.831-1.377A3.107,3.107,0,0,1,92.4,85.61V75.132a3.108,3.108,0,0,1,3.1-3.1h4.886a3.108,3.108,0,0,1,3.1,3.1V85.61a3.108,3.108,0,0,1-1.654,2.743,1.556,1.556,0,0,0-.83,1.376v17.707a1.557,1.557,0,0,0,3.113,0V90.575A6.2,6.2,0,0,0,106.6,85.61V75.132A6.225,6.225,0,0,0,100.386,68.914Z" transform="translate(0 -54.611)"/></g><g transform="translate(1405.717 4472)"><path class="a" d="M106.583,12.744a6.372,6.372,0,1,0-6.372-6.371A6.379,6.379,0,0,0,106.583,12.744Zm0-9.631a3.259,3.259,0,1,1-3.259,3.26A3.263,3.263,0,0,1,106.583,3.113Z" transform="translate(-8.66 0)"/><path class="a" d="M100.386,68.914H95.5a6.224,6.224,0,0,0-6.217,6.218V85.61a6.2,6.2,0,0,0,2.483,4.965v16.861a1.557,1.557,0,0,0,3.113,0V89.729a1.556,1.556,0,0,0-.831-1.377A3.107,3.107,0,0,1,92.4,85.61V75.132a3.108,3.108,0,0,1,3.1-3.1h4.886a3.108,3.108,0,0,1,3.1,3.1V85.61a3.108,3.108,0,0,1-1.654,2.743,1.556,1.556,0,0,0-.83,1.376v17.707a1.557,1.557,0,0,0,3.113,0V90.575A6.2,6.2,0,0,0,106.6,85.61V75.132A6.225,6.225,0,0,0,100.386,68.914Z" transform="translate(0 -54.611)"/></g><g transform="translate(1428.717 4472)"><path class="b" d="M106.583,12.744a6.372,6.372,0,1,0-6.372-6.371A6.379,6.379,0,0,0,106.583,12.744Zm0-9.631a3.259,3.259,0,1,1-3.259,3.26A3.263,3.263,0,0,1,106.583,3.113Z" transform="translate(-8.66 0)"/><path class="b" d="M100.386,68.914H95.5a6.224,6.224,0,0,0-6.217,6.218V85.61a6.2,6.2,0,0,0,2.483,4.965v16.861a1.557,1.557,0,0,0,3.113,0V89.729a1.556,1.556,0,0,0-.831-1.377A3.107,3.107,0,0,1,92.4,85.61V75.132a3.108,3.108,0,0,1,3.1-3.1h4.886a3.108,3.108,0,0,1,3.1,3.1V85.61a3.108,3.108,0,0,1-1.654,2.743,1.556,1.556,0,0,0-.83,1.376v17.707a1.557,1.557,0,0,0,3.113,0V90.575A6.2,6.2,0,0,0,106.6,85.61V75.132A6.225,6.225,0,0,0,100.386,68.914Z" transform="translate(0 -54.611)"/></g><g transform="translate(1269.717 4540)"><path class="b" d="M106.583,12.744a6.372,6.372,0,1,0-6.372-6.371A6.379,6.379,0,0,0,106.583,12.744Zm0-9.631a3.259,3.259,0,1,1-3.259,3.26A3.263,3.263,0,0,1,106.583,3.113Z" transform="translate(-8.66 0)"/><path class="b" d="M100.386,68.914H95.5a6.224,6.224,0,0,0-6.217,6.218V85.61a6.2,6.2,0,0,0,2.483,4.965v16.861a1.557,1.557,0,0,0,3.113,0V89.729a1.556,1.556,0,0,0-.831-1.377A3.107,3.107,0,0,1,92.4,85.61V75.132a3.108,3.108,0,0,1,3.1-3.1h4.886a3.108,3.108,0,0,1,3.1,3.1V85.61a3.108,3.108,0,0,1-1.654,2.743,1.556,1.556,0,0,0-.83,1.376v17.707a1.557,1.557,0,0,0,3.113,0V90.575A6.2,6.2,0,0,0,106.6,85.61V75.132A6.225,6.225,0,0,0,100.386,68.914Z" transform="translate(0 -54.611)"/></g><g transform="translate(1292.717 4540)"><path class="b" d="M106.583,12.744a6.372,6.372,0,1,0-6.372-6.371A6.379,6.379,0,0,0,106.583,12.744Zm0-9.631a3.259,3.259,0,1,1-3.259,3.26A3.263,3.263,0,0,1,106.583,3.113Z" transform="translate(-8.66 0)"/><path class="b" d="M100.386,68.914H95.5a6.224,6.224,0,0,0-6.217,6.218V85.61a6.2,6.2,0,0,0,2.483,4.965v16.861a1.557,1.557,0,0,0,3.113,0V89.729a1.556,1.556,0,0,0-.831-1.377A3.107,3.107,0,0,1,92.4,85.61V75.132a3.108,3.108,0,0,1,3.1-3.1h4.886a3.108,3.108,0,0,1,3.1,3.1V85.61a3.108,3.108,0,0,1-1.654,2.743,1.556,1.556,0,0,0-.83,1.376v17.707a1.557,1.557,0,0,0,3.113,0V90.575A6.2,6.2,0,0,0,106.6,85.61V75.132A6.225,6.225,0,0,0,100.386,68.914Z" transform="translate(0 -54.611)"/></g><g transform="translate(1314.717 4540)"><path class="b" d="M106.583,12.744a6.372,6.372,0,1,0-6.372-6.371A6.379,6.379,0,0,0,106.583,12.744Zm0-9.631a3.259,3.259,0,1,1-3.259,3.26A3.263,3.263,0,0,1,106.583,3.113Z" transform="translate(-8.66 0)"/><path class="b" d="M100.386,68.914H95.5a6.224,6.224,0,0,0-6.217,6.218V85.61a6.2,6.2,0,0,0,2.483,4.965v16.861a1.557,1.557,0,0,0,3.113,0V89.729a1.556,1.556,0,0,0-.831-1.377A3.107,3.107,0,0,1,92.4,85.61V75.132a3.108,3.108,0,0,1,3.1-3.1h4.886a3.108,3.108,0,0,1,3.1,3.1V85.61a3.108,3.108,0,0,1-1.654,2.743,1.556,1.556,0,0,0-.83,1.376v17.707a1.557,1.557,0,0,0,3.113,0V90.575A6.2,6.2,0,0,0,106.6,85.61V75.132A6.225,6.225,0,0,0,100.386,68.914Z" transform="translate(0 -54.611)"/></g><g transform="translate(1337.717 4540)"><path class="b" d="M106.583,12.744a6.372,6.372,0,1,0-6.372-6.371A6.379,6.379,0,0,0,106.583,12.744Zm0-9.631a3.259,3.259,0,1,1-3.259,3.26A3.263,3.263,0,0,1,106.583,3.113Z" transform="translate(-8.66 0)"/><path class="b" d="M100.386,68.914H95.5a6.224,6.224,0,0,0-6.217,6.218V85.61a6.2,6.2,0,0,0,2.483,4.965v16.861a1.557,1.557,0,0,0,3.113,0V89.729a1.556,1.556,0,0,0-.831-1.377A3.107,3.107,0,0,1,92.4,85.61V75.132a3.108,3.108,0,0,1,3.1-3.1h4.886a3.108,3.108,0,0,1,3.1,3.1V85.61a3.108,3.108,0,0,1-1.654,2.743,1.556,1.556,0,0,0-.83,1.376v17.707a1.557,1.557,0,0,0,3.113,0V90.575A6.2,6.2,0,0,0,106.6,85.61V75.132A6.225,6.225,0,0,0,100.386,68.914Z" transform="translate(0 -54.611)"/></g><g transform="translate(1360.717 4540)"><path class="b" d="M106.583,12.744a6.372,6.372,0,1,0-6.372-6.371A6.379,6.379,0,0,0,106.583,12.744Zm0-9.631a3.259,3.259,0,1,1-3.259,3.26A3.263,3.263,0,0,1,106.583,3.113Z" transform="translate(-8.66 0)"/><path class="b" d="M100.386,68.914H95.5a6.224,6.224,0,0,0-6.217,6.218V85.61a6.2,6.2,0,0,0,2.483,4.965v16.861a1.557,1.557,0,0,0,3.113,0V89.729a1.556,1.556,0,0,0-.831-1.377A3.107,3.107,0,0,1,92.4,85.61V75.132a3.108,3.108,0,0,1,3.1-3.1h4.886a3.108,3.108,0,0,1,3.1,3.1V85.61a3.108,3.108,0,0,1-1.654,2.743,1.556,1.556,0,0,0-.83,1.376v17.707a1.557,1.557,0,0,0,3.113,0V90.575A6.2,6.2,0,0,0,106.6,85.61V75.132A6.225,6.225,0,0,0,100.386,68.914Z" transform="translate(0 -54.611)"/></g><g transform="translate(1382.717 4540)"><path class="b" d="M106.583,12.744a6.372,6.372,0,1,0-6.372-6.371A6.379,6.379,0,0,0,106.583,12.744Zm0-9.631a3.259,3.259,0,1,1-3.259,3.26A3.263,3.263,0,0,1,106.583,3.113Z" transform="translate(-8.66 0)"/><path class="b" d="M100.386,68.914H95.5a6.224,6.224,0,0,0-6.217,6.218V85.61a6.2,6.2,0,0,0,2.483,4.965v16.861a1.557,1.557,0,0,0,3.113,0V89.729a1.556,1.556,0,0,0-.831-1.377A3.107,3.107,0,0,1,92.4,85.61V75.132a3.108,3.108,0,0,1,3.1-3.1h4.886a3.108,3.108,0,0,1,3.1,3.1V85.61a3.108,3.108,0,0,1-1.654,2.743,1.556,1.556,0,0,0-.83,1.376v17.707a1.557,1.557,0,0,0,3.113,0V90.575A6.2,6.2,0,0,0,106.6,85.61V75.132A6.225,6.225,0,0,0,100.386,68.914Z" transform="translate(0 -54.611)"/></g><g transform="translate(1405.717 4540)"><path class="b" d="M106.583,12.744a6.372,6.372,0,1,0-6.372-6.371A6.379,6.379,0,0,0,106.583,12.744Zm0-9.631a3.259,3.259,0,1,1-3.259,3.26A3.263,3.263,0,0,1,106.583,3.113Z" transform="translate(-8.66 0)"/><path class="b" d="M100.386,68.914H95.5a6.224,6.224,0,0,0-6.217,6.218V85.61a6.2,6.2,0,0,0,2.483,4.965v16.861a1.557,1.557,0,0,0,3.113,0V89.729a1.556,1.556,0,0,0-.831-1.377A3.107,3.107,0,0,1,92.4,85.61V75.132a3.108,3.108,0,0,1,3.1-3.1h4.886a3.108,3.108,0,0,1,3.1,3.1V85.61a3.108,3.108,0,0,1-1.654,2.743,1.556,1.556,0,0,0-.83,1.376v17.707a1.557,1.557,0,0,0,3.113,0V90.575A6.2,6.2,0,0,0,106.6,85.61V75.132A6.225,6.225,0,0,0,100.386,68.914Z" transform="translate(0 -54.611)"/></g><path class="c" d="M-3.953-18.768v2.7h2.565v1.207H-3.953v2.717H-5.272v-2.717H-7.824v-1.207h2.552v-2.7Z" transform="translate(1508 4580)"/><path class="c" d="M-3.953-18.768v2.7h2.565v1.207H-3.953v2.717H-5.272v-2.717H-7.824v-1.207h2.552v-2.7Z" transform="translate(1485 4580)"/><path class="c" d="M-3.953-18.768v2.7h2.565v1.207H-3.953v2.717H-5.272v-2.717H-7.824v-1.207h2.552v-2.7Z" transform="translate(1463 4580)"/><path class="c" d="M-3.953-18.768v2.7h2.565v1.207H-3.953v2.717H-5.272v-2.717H-7.824v-1.207h2.552v-2.7Z" transform="translate(1440 4580)"/><path class="c" d="M-3.953-18.768v2.7h2.565v1.207H-3.953v2.717H-5.272v-2.717H-7.824v-1.207h2.552v-2.7Z" transform="translate(1417 4580)"/><path class="c" d="M-3.953-18.768v2.7h2.565v1.207H-3.953v2.717H-5.272v-2.717H-7.824v-1.207h2.552v-2.7Z" transform="translate(1395 4580)"/><path class="c" d="M-3.953-18.768v2.7h2.565v1.207H-3.953v2.717H-5.272v-2.717H-7.824v-1.207h2.552v-2.7Z" transform="translate(1372 4580)"/><path class="c" d="M-3.953-18.768v2.7h2.565v1.207H-3.953v2.717H-5.272v-2.717H-7.824v-1.207h2.552v-2.7Z" transform="translate(1531 4512)"/><g transform="translate(1428.717 4540)"><path class="b" d="M106.583,12.744a6.372,6.372,0,1,0-6.372-6.371A6.379,6.379,0,0,0,106.583,12.744Zm0-9.631a3.259,3.259,0,1,1-3.259,3.26A3.263,3.263,0,0,1,106.583,3.113Z" transform="translate(-8.66 0)"/><path class="b" d="M100.386,68.914H95.5a6.224,6.224,0,0,0-6.217,6.218V85.61a6.2,6.2,0,0,0,2.483,4.965v16.861a1.557,1.557,0,0,0,3.113,0V89.729a1.556,1.556,0,0,0-.831-1.377A3.107,3.107,0,0,1,92.4,85.61V75.132a3.108,3.108,0,0,1,3.1-3.1h4.886a3.108,3.108,0,0,1,3.1,3.1V85.61a3.108,3.108,0,0,1-1.654,2.743,1.556,1.556,0,0,0-.83,1.376v17.707a1.557,1.557,0,0,0,3.113,0V90.575A6.2,6.2,0,0,0,106.6,85.61V75.132A6.225,6.225,0,0,0,100.386,68.914Z" transform="translate(0 -54.611)"/></g><path class="c" d="M-3.953-18.768v2.7h2.565v1.207H-3.953v2.717H-5.272v-2.717H-7.824v-1.207h2.552v-2.7Z" transform="translate(1531 4580)"/></g></svg>