<svg xmlns="http://www.w3.org/2000/svg" width="125.258" height="141.075" viewBox="0 0 125.258 141.075"><defs><style>.a{fill:#f38500;stroke:#f38500;}</style></defs><g transform="translate(-28.44 0.5)"><g transform="translate(28.952)"><path class="a" d="M153.1,132.9l-6.2-36.278a10.326,10.326,0,0,0-7.237-8.194L122.95,83.388A18.642,18.642,0,0,0,110.014,67.2c.529-.587,1.02-1.172,1.47-1.745a32.441,32.441,0,0,0,6.644-14.424h1.289a6.089,6.089,0,0,0,6.082-6.082V41.83a6.124,6.124,0,0,0-3.153-5.319v-7.5a2.051,2.051,0,1,0-4.1,0V37.43a12.643,12.643,0,0,0-2.727.789,2.059,2.059,0,0,0-.289.129c-.22.1-.441.206-.66.326V22.143a8.291,8.291,0,0,0-8.282-8.282h-5.662a8.51,8.51,0,0,0-5.372,1.916l-.556.454a5.73,5.73,0,0,1-7.254,0l-.555-.454a8.511,8.511,0,0,0-5.372-1.916H75.852a8.291,8.291,0,0,0-8.282,8.282V38.674c-.22-.119-.44-.225-.66-.326a2.057,2.057,0,0,0-.289-.129,12.647,12.647,0,0,0-2.727-.789V16.148A12.06,12.06,0,0,1,75.94,4.1H106.2a12.059,12.059,0,0,1,12.046,12.046v3.224a2.051,2.051,0,1,0,4.1,0V16.148A16.167,16.167,0,0,0,106.2,0H75.94A16.167,16.167,0,0,0,59.791,16.148V36.511a6.124,6.124,0,0,0-3.153,5.319v3.118a6.089,6.089,0,0,0,6.082,6.082H64.01a32.438,32.438,0,0,0,6.644,14.424c.45.572.94,1.156,1.468,1.743a18.71,18.71,0,0,0-12.934,16.19L42.474,88.431a10.326,10.326,0,0,0-7.237,8.194l-2.516,14.732a2.051,2.051,0,0,0,4.044.691l2.516-14.732a6.246,6.246,0,0,1,4.378-4.957l15.459-4.664v4.058a10.263,10.263,0,0,0-7.8,6.459A10.4,10.4,0,0,0,50.709,101l-1.494,19.177a5.214,5.214,0,0,0,5.2,5.619H56.97a2.051,2.051,0,1,0,0-4.1H54.412a1.111,1.111,0,0,1-1.108-1.2L54.8,101.315a6.3,6.3,0,0,1,.369-1.687,6.2,6.2,0,0,1,5.806-3.953l.338,0h.047a6.146,6.146,0,0,1,5.727,3.673,6.291,6.291,0,0,1,.48,1.97l1.495,19.177a1.111,1.111,0,0,1-1.108,1.2H65.4a2.051,2.051,0,1,0,0,4.1h2.557a5.214,5.214,0,0,0,5.2-5.619L71.656,101a10.389,10.389,0,0,0-.793-3.251,10.155,10.155,0,0,0-7.643-6.007V86.456l7.051-2.128c.642,1.351,1.913,4.271,4.431,10.566,2.538,6.351,5.693,14.491,8.718,22.405a2.074,2.074,0,0,0,.074.195c2.019,5.283,3.978,10.458,5.653,14.922a2.051,2.051,0,0,0,3.841,0c1.675-4.464,3.633-9.638,5.653-14.922a2.03,2.03,0,0,0,.074-.195c3.023-7.909,6.176-16.044,8.713-22.393,2.522-6.3,3.794-9.225,4.436-10.577l7.051,2.128V98.572a10.612,10.612,0,1,0,4.1.009V87.694l15.459,4.664a6.246,6.246,0,0,1,4.378,4.957l6.2,36.278a2.037,2.037,0,0,1-2.008,2.38H35.092a2.037,2.037,0,0,1-2.008-2.38l2.045-11.973a2.051,2.051,0,0,0-4.044-.691L29.04,132.9a6.138,6.138,0,0,0,6.051,7.172H147.046A6.139,6.139,0,0,0,153.1,132.9ZM118.269,41.609a8.8,8.8,0,0,1,1.98-.267,2.1,2.1,0,0,0,1-.238,1.943,1.943,0,0,1,.145.726v3.118a1.982,1.982,0,0,1-1.98,1.98h-1.148Zm-54.4,5.318H62.721a1.982,1.982,0,0,1-1.98-1.98V41.83a1.946,1.946,0,0,1,.145-.726,2.092,2.092,0,0,0,1,.238,9.146,9.146,0,0,1,1.98.268Zm4.1,2.3V43.838a2.878,2.878,0,0,0,3.7-2.759V22.143a4.185,4.185,0,0,1,4.18-4.18h5.662a4.4,4.4,0,0,1,2.776.99l.555.454a9.834,9.834,0,0,0,12.448,0l.555-.454a4.4,4.4,0,0,1,2.776-.99h5.662a4.185,4.185,0,0,1,4.18,4.18V41.079a2.878,2.878,0,0,0,3.7,2.761v5.387c0,2.995-2.07,8.811-5.908,13.691a27.043,27.043,0,0,1-4.917,4.871,2.056,2.056,0,0,0-.183.138,20,20,0,0,1-24.181,0,2.079,2.079,0,0,0-.182-.138,27.065,27.065,0,0,1-4.917-4.871C70.042,58.038,67.971,52.222,67.971,49.227Zm36.536,33.141L91.069,92.412,77.63,82.368A9.728,9.728,0,0,0,79.71,76.56V73.253a24.089,24.089,0,0,0,22.718,0V76.56A9.728,9.728,0,0,0,104.507,82.368Zm-30.3-2.29a5.609,5.609,0,0,0-3.459-.174c-.05.012-.1.025-.147.039l-7.087,2.138A14.573,14.573,0,0,1,75.607,70.589V76.56A5.424,5.424,0,0,1,74.207,80.078Zm5.567,16.466-.011-.028-.308-.779L79.4,95.6l-.3-.745-.021-.052q-.456-1.146-.879-2.2l-.062-.153-.24-.6-.086-.214-.228-.563-.066-.164-.4-.981-.106-.259-.15-.367-.16-.39-.06-.146-.046-.112q-.355-.863-.676-1.628l-.005-.012c-.114-.272-.225-.537-.332-.79l-.164-.386L86.983,94.48l-4.829,2.052-.026.011-2.016.857Zm4.894,12.56q-.608-1.577-1.222-3.165-.959-2.478-1.835-4.72l.766-.325L85.5,104.53Zm6.44,16.672a2.042,2.042,0,0,0-.21-.344c-.927-2.45-2.1-5.55-3.405-8.961l1.915-10.485h3.321l1.915,10.485C93.28,120.044,92.055,123.275,91.108,125.776Zm2.39-23.892H88.639l-2.3-2.673L91.069,97.2,95.8,99.211Zm5.193,4.056q-.614,1.584-1.222,3.165l-.836-4.575,3.128-3.636.765.325Q99.65,103.464,98.691,105.939Zm7.857-19.711c-.1.24-.207.491-.315.748l-.042.1c-.106.254-.215.514-.327.785l-.022.055c-.1.233-.2.474-.3.72l-.056.135-.069.169-.137.333-.17.416-.056.137q-.214.525-.439,1.081l-.07.174-.225.558-.089.221-.237.59-.068.168q-.417,1.039-.866,2.168l-.03.074-.294.74-.056.14-.31.783-.006.014-.341.865-2.018-.857-.021-.009-4.832-2.053,11.558-8.638Q106.631,86.031,106.548,86.228Zm4.989-6.284h0l-.005,0a5.606,5.606,0,0,0-3.6.136,5.423,5.423,0,0,1-1.4-3.519V70.586a14.459,14.459,0,0,1,12.1,11.5Zm15.919,29.045a6.511,6.511,0,1,1-6.511-6.511A6.519,6.519,0,0,1,127.456,108.989Z" transform="translate(-28.952)"/></g></g></svg>