<svg xmlns="http://www.w3.org/2000/svg" width="139.641" height="57.343" viewBox="0 0 139.641 57.343"><defs><style>.a{fill:#f38500;}</style></defs><g transform="translate(-5 86)"><g transform="translate(5 -86)"><path class="a" d="M135.277,145.92h-4.364v-3.584c0-1.979-1.954-3.584-4.364-3.584h-4.364v-3.584c0-3.959-3.907-7.168-8.728-7.168H8.728C3.907,128,0,131.209,0,135.168v43.007c0,3.959,3.907,7.168,8.728,7.168H113.458c4.82,0,8.728-3.209,8.728-7.168v-3.584h4.364c2.41,0,4.364-1.6,4.364-3.584v-3.584h4.364c2.41,0,4.364-1.6,4.364-3.584V149.5C139.641,147.524,137.687,145.92,135.277,145.92Zm-21.819-3.584v35.839H52.365V135.168h61.093Z" transform="translate(0 -128)"/></g></g></svg>