<svg xmlns="http://www.w3.org/2000/svg" width="121.187" height="141.297" viewBox="0 0 121.187 141.297"><defs><style>.a{fill:#f38500;stroke:#f38500;}</style></defs><g transform="translate(-36.224 0.503)"><g transform="translate(91.161 5.213)"><path class="a" d="M244.621,22.634h-1.559V21.075a2.049,2.049,0,0,0-4.1,0v1.559h-1.559a2.049,2.049,0,1,0,0,4.1h1.559V28.29a2.049,2.049,0,0,0,4.1,0V26.731h1.559a2.049,2.049,0,0,0,0-4.1Z" transform="translate(-235.357 -19.026)"/></g><g transform="translate(36.736 0)"><g transform="translate(0)"><path class="a" d="M156.812,133.287l-5.987-35.051a10.043,10.043,0,0,0-7.039-7.969l-26.876-8.109a4.465,4.465,0,0,0-3.437.356,5.183,5.183,0,0,1-1.652-3.652V72.154l.208-.179c.1-.089.213-.185.326-.285h2.632a13.09,13.09,0,0,0,13.064-13.917l-.729-11.525v-.173a6.179,6.179,0,0,0-.07-.926l-.817-12.908a2.048,2.048,0,1,0-4.089.259l.483,7.637a6.157,6.157,0,0,0-1.68-.234h-.114a3.7,3.7,0,0,0-2.775-1.65C97,36.339,90.874,29.989,86.4,25.351c-.929-.964-2.453-1.037-4.529-.219A15.836,15.836,0,0,0,71.987,39.36c0,.011,0,.022,0,.034v.529a6.146,6.146,0,0,0-1.184.214l.632-9.982A17.211,17.211,0,0,1,78.708,17.1l.155.405A7.032,7.032,0,0,0,85.393,22h23.382a7.032,7.032,0,0,0,6.53-4.493l.036-.094a17.273,17.273,0,0,1,5.2,6.36,2.049,2.049,0,0,0,3.7-1.769,21.351,21.351,0,0,0-7.384-8.543l1.411-3.686a5.094,5.094,0,0,0-3.744-6.812L102.763.574a28.371,28.371,0,0,0-11.358,0L79.648,2.961A5.093,5.093,0,0,0,75.9,9.773l1.3,3.4A21.278,21.278,0,0,0,67.346,29.9L66.375,45.23a6.159,6.159,0,0,0-.064.843v.173l-.729,11.525A13.09,13.09,0,0,0,78.645,71.689h2.632c.113.1.223.2.326.285l.208.179v6.709a5.182,5.182,0,0,1-1.652,3.652,4.464,4.464,0,0,0-3.437-.356L49.847,90.267a10.044,10.044,0,0,0-7.039,7.969L40.56,111.4a2.049,2.049,0,1,0,4.039.69l2.249-13.167a5.97,5.97,0,0,1,4.183-4.736L77.907,86.08a.378.378,0,0,1,.446.191h0l12.832,25.351a6.306,6.306,0,0,0,11.263,0L115.28,86.271a.376.376,0,0,1,.446-.191L142.6,94.189a5.969,5.969,0,0,1,4.183,4.736l5.987,35.05A1.9,1.9,0,0,1,150.9,136.2H138.208l-3.348-19.6a2.049,2.049,0,1,0-4.039.69l3.23,18.911H59.582l3.23-18.911a2.049,2.049,0,1,0-4.039-.69l-3.348,19.6H42.734a1.9,1.9,0,0,1-1.874-2.221l2.084-12.2a2.049,2.049,0,0,0-4.039-.69l-2.084,12.2a6,6,0,0,0,5.912,7.008H150.9a6,6,0,0,0,5.912-7.007ZM79.789,7.473a.984.984,0,0,1,.675-.5L92.221,4.589a24.319,24.319,0,0,1,9.727,0l11.757,2.387h0a1,1,0,0,1,.732,1.332l-2.959,7.732a2.911,2.911,0,0,1-2.7,1.86H85.394a2.911,2.911,0,0,1-2.7-1.86L79.731,8.309A.984.984,0,0,1,79.789,7.473Zm44.175,50.558a9,9,0,0,1-7.582,9.455,22.788,22.788,0,0,0,5.088-10.679,6.119,6.119,0,0,0,2.377-.617ZM72.088,64.754a8.906,8.906,0,0,1-2.418-6.723l.116-1.841a6.123,6.123,0,0,0,2.377.617,22.788,22.788,0,0,0,5.088,10.679A8.894,8.894,0,0,1,72.088,64.754ZM99.05,109.266l-.257.508a2.336,2.336,0,0,1-.122.205c-.014.021-.025.045-.039.065-.026.038-.056.07-.084.106a2.193,2.193,0,0,1-.326.343c-.025.021-.054.038-.08.057a2.218,2.218,0,0,1-3.3-.775L86.333,92.965H107.3Zm10.325-20.4H84.259l-1.582-3.126a9.249,9.249,0,0,0,3.232-6.879V75.328a19.6,19.6,0,0,0,10.885,3.117h.045a19.607,19.607,0,0,0,10.885-3.116v3.535a9.247,9.247,0,0,0,3.232,6.879Zm-.018-20c-3.788,3.262-6.709,5.407-12.54,5.477-5.83-.07-8.751-2.215-12.54-5.477-5.029-4.33-8.09-9.619-8.187-14.147a2.049,2.049,0,0,0-2.048-2H72.483a2.077,2.077,0,0,1-2.075-2.075V46.075a2.072,2.072,0,0,1,.021-.281c.006-.031.01-.063.015-.094A2.077,2.077,0,0,1,72.483,44h1.553a2.048,2.048,0,0,0,2.049-2.049v-2.54c.123-6.934,6.024-10.174,7.894-10.677,6.008,6.129,13.391,11.7,33.6,13.571A2.049,2.049,0,0,0,119.6,44h1.553a2.077,2.077,0,0,1,2.039,1.7c0,.032.009.063.015.094a2.062,2.062,0,0,1,.021.281v4.569a2.077,2.077,0,0,1-2.075,2.075h-1.559a2.048,2.048,0,0,0-2.048,2C117.447,59.251,114.386,64.539,109.357,68.87Z" transform="translate(-36.736 0)"/></g></g></g></svg>