<svg xmlns="http://www.w3.org/2000/svg" width="141.53" height="134.497" viewBox="0 0 141.53 134.497"><defs><style>.a{fill:#6fad76;stroke:#6fad76;}.b{fill:#f38500;stroke:#f38500;}</style></defs><g transform="translate(-1.5 -4.5)"><path class="a" d="M20,5h4.684V19.053H20Z" transform="translate(24.159)"/><path class="a" d="M0,0H4.684V14.053H0Z" transform="translate(23.31 15.573) rotate(-45)"/><path class="a" d="M0,0H14.053V4.684H0Z" transform="translate(56.43 22.202) rotate(-45)"/><path class="b" d="M130.819,77.238h-.757L118.956,49.47a11.655,11.655,0,0,0-10.875-7.364H91V39.764A11.725,11.725,0,0,0,79.291,28.053H58.212V25.711a11.711,11.711,0,0,0-23.422,0v2.342H13.711A11.725,11.725,0,0,0,2,39.764v60.9a11.725,11.725,0,0,0,11.711,11.711h9.556a16.374,16.374,0,0,0,32.416,0H98.216a16.374,16.374,0,0,0,32.416,0H135.5a7.026,7.026,0,0,0,7.026-7.026v-16.4a11.725,11.725,0,0,0-11.711-11.711ZM108.081,46.79a6.989,6.989,0,0,1,6.523,4.417l10.413,26.031H91V46.79ZM39.475,25.711a7.026,7.026,0,0,1,14.053,0v2.342H39.475Zm0,96.029a11.711,11.711,0,1,1,11.711-11.711A11.711,11.711,0,0,1,39.475,121.74Zm46.843-14.053H55.682a16.374,16.374,0,0,0-32.416,0H13.711a7.027,7.027,0,0,1-7.026-7.027v-60.9a7.026,7.026,0,0,1,7.026-7.026H79.291a7.026,7.026,0,0,1,7.026,7.026Zm28.106,14.053a11.711,11.711,0,1,1,11.711-11.711,11.711,11.711,0,0,1-11.711,11.711Zm23.422-16.4a2.342,2.342,0,0,1-2.342,2.342h-4.872a16.374,16.374,0,0,0-32.416,0H91V81.923h39.817a7.026,7.026,0,0,1,7.026,7.026Z" transform="translate(0 12.079)"/><path class="b" d="M22.026,52a7.026,7.026,0,1,0,7.026,7.026A7.026,7.026,0,0,0,22.026,52Zm0,9.369a2.342,2.342,0,1,1,2.342-2.342A2.342,2.342,0,0,1,22.026,61.369Z" transform="translate(17.448 63.082)"/><path class="b" d="M54.026,52a7.026,7.026,0,1,0,7.027,7.026A7.026,7.026,0,0,0,54.026,52Zm0,9.369a2.342,2.342,0,1,1,2.342-2.342A2.342,2.342,0,0,1,54.026,61.369Z" transform="translate(60.397 63.082)"/><path class="a" d="M49.475,40.053H40.106V30.684A4.684,4.684,0,0,0,35.422,26H30.737a4.684,4.684,0,0,0-4.684,4.684v9.369H16.684A4.684,4.684,0,0,0,12,44.737v4.684a4.684,4.684,0,0,0,4.684,4.684h9.369v9.369a4.684,4.684,0,0,0,4.684,4.684h4.684a4.684,4.684,0,0,0,4.684-4.684V54.106h9.369a4.684,4.684,0,0,0,4.684-4.684V44.737A4.684,4.684,0,0,0,49.475,40.053Zm0,9.369H40.106a4.684,4.684,0,0,0-4.684,4.684v9.369H30.737V54.106a4.684,4.684,0,0,0-4.684-4.684H16.684V44.737h9.369a4.684,4.684,0,0,0,4.684-4.684V30.684h4.684v9.369a4.684,4.684,0,0,0,4.684,4.684h9.369Z" transform="translate(13.422 28.185)"/><path class="b" d="M0,0H11.711V4.682H0Z" transform="matrix(0.8, -0.6, 0.6, 0.8, 94.281, 71.023)"/><path class="b" d="M0,0H23.422V4.682H0Z" transform="matrix(0.8, -0.6, 0.6, 0.8, 94.281, 80.392)"/></g></svg>