<svg xmlns="http://www.w3.org/2000/svg" width="110.339" height="110.337" viewBox="0 0 110.339 110.337"><defs><style>.a{fill:#bf71f9;}</style></defs><g transform="translate(-15.992 -15.999)"><path class="a" d="M71.162,16a55.168,55.168,0,1,0,39.01,16.158A55.168,55.168,0,0,0,71.162,16ZM19.672,71.168A51.123,51.123,0,0,1,33.478,36.084l2.8,2.8a9.149,9.149,0,0,0,1.786,6.536h-.005a7.364,7.364,0,0,0-7.356,7.356v6.344a4.666,4.666,0,0,0,4.512,4.689,4.615,4.615,0,0,0,1-.092v13.2a7.369,7.369,0,0,0-5.517,7.124v6.344a4.666,4.666,0,0,0,4.512,4.689,4.573,4.573,0,0,0,1-.092v14c-.5-.46-.988-.927-1.469-1.409A51.153,51.153,0,0,1,19.672,71.168ZM65.645,39.906a5.517,5.517,0,1,1,5.517,5.517A5.517,5.517,0,0,1,65.645,39.906ZM78.518,49.1A3.682,3.682,0,0,1,82.2,52.778v6.344a.986.986,0,0,1-.9,1.011.919.919,0,0,1-.937-.919V52.778H76.679V63.817A9.172,9.172,0,0,0,66.1,63.5l-.45-.45V52.778H61.967v6.436a.915.915,0,0,1-.012.146l-1.827-1.827V52.778A3.682,3.682,0,0,1,63.806,49.1Zm12.873-9.195a5.517,5.517,0,1,1,5.517,5.517A5.517,5.517,0,0,1,91.391,39.906ZM104.263,49.1a3.682,3.682,0,0,1,3.678,3.678v6.344a.986.986,0,0,1-.9,1.011.919.919,0,0,1-.937-.919V52.778h-3.678V63.817a9.175,9.175,0,0,0-11.034,0V52.778H87.713v6.436a.913.913,0,0,1-.276.656.9.9,0,0,1-.662.263.986.986,0,0,1-.9-1.011V52.778A3.682,3.682,0,0,1,89.552,49.1Zm-1.839,34.94V99.829l-3.678-3.678V95.074H97.669L91.391,88.8V84.04H87.713v1.077l-1.77-1.771a3.683,3.683,0,0,1,3.609-2.984h14.712a3.682,3.682,0,0,1,3.678,3.678v6.344a.986.986,0,0,1-.9,1.011.924.924,0,0,1-.662-.263.913.913,0,0,1-.275-.656V84.04ZM82.2,90.385a.986.986,0,0,1-.9,1.011.919.919,0,0,1-.937-.919V84.04H76.679v23.906H73V95.074H69.323v12.873H65.645V84.04H61.967v6.436a.914.914,0,0,1-.276.656.9.9,0,0,1-.662.263.986.986,0,0,1-.9-1.011V84.04a3.682,3.682,0,0,1,3.678-3.678h13.95L82.2,84.8Zm-25.745,0a.986.986,0,0,1-.9,1.011.919.919,0,0,1-.937-.919V84.04H50.934v23.906H47.256V95.074H43.578v12.873H39.9V84.04H36.222v6.436a.913.913,0,0,1-.276.656.9.9,0,0,1-.662.263.986.986,0,0,1-.9-1.011V84.04a3.682,3.682,0,0,1,3.678-3.678H52.773a3.682,3.682,0,0,1,3.678,3.678ZM46.494,49.1l4.439,4.439V63.817a9.174,9.174,0,0,0-11.034,0V52.778H36.222v6.436a.913.913,0,0,1-.276.656.9.9,0,0,1-.662.263.986.986,0,0,1-.9-1.011V52.778A3.682,3.682,0,0,1,38.061,49.1ZM76.14,73.545l-7.356-7.356a5.516,5.516,0,0,1,7.356,7.356Zm-2.6,2.6a5.517,5.517,0,0,1-7.356-7.356ZM56.451,59.123a.986.986,0,0,1-.9,1.011.919.919,0,0,1-.937-.919v-2l1.839,1.839ZM39.9,71.168a5.517,5.517,0,1,1,5.517,5.517A5.517,5.517,0,0,1,39.9,71.168Zm14.712,5.75V63.72a4.615,4.615,0,0,0,1,.09,4.5,4.5,0,0,0,2.673-.952,4.5,4.5,0,0,0,2.673.953c.08,0,.161,0,.24,0l.764.763V76.917a7.364,7.364,0,0,0-3.678,2.265,7.364,7.364,0,0,0-3.678-2.265ZM85.874,88.48l1.839,1.839v.158a.913.913,0,0,1-.276.656.894.894,0,0,1-.662.263.986.986,0,0,1-.9-1.011ZM91.391,94l3.678,3.678v10.272H91.391Zm7.356,7.356,3.678,3.678v2.916H98.746ZM96.907,76.684a5.517,5.517,0,1,1,5.517-5.517A5.517,5.517,0,0,1,96.907,76.684Zm-10.2-12.873a4.614,4.614,0,0,0,1-.092v13.2a7.364,7.364,0,0,0-3.678,2.265,7.364,7.364,0,0,0-3.678-2.265V63.72a4.619,4.619,0,0,0,1,.09,4.5,4.5,0,0,0,2.673-.952A4.5,4.5,0,0,0,86.708,63.812ZM56.451,53.856,51.7,49.1h1.077a3.682,3.682,0,0,1,3.678,3.678Zm-8.873-8.874-7.237-7.237a5.517,5.517,0,1,1,7.237,7.237ZM39.3,111.624h13.47a1.839,1.839,0,0,0,1.839-1.839v-14.8a4.616,4.616,0,0,0,1,.09,4.5,4.5,0,0,0,2.673-.952,4.5,4.5,0,0,0,2.673.953,4.573,4.573,0,0,0,1-.092v14.8a1.839,1.839,0,0,0,1.839,1.839H78.518a1.839,1.839,0,0,0,1.839-1.839v-14.8a4.619,4.619,0,0,0,1,.09,4.5,4.5,0,0,0,2.673-.952,4.5,4.5,0,0,0,2.673.953,4.572,4.572,0,0,0,1-.092v14.8a1.839,1.839,0,0,0,1.839,1.839h13.47a51.512,51.512,0,0,1-63.719,0Zm66.8-2.916.144.144-.144.134Zm2.744-2.457-2.744-2.744V94.982a4.616,4.616,0,0,0,1,.09,4.666,4.666,0,0,0,4.512-4.688V84.04a7.369,7.369,0,0,0-5.517-7.123V63.72a4.617,4.617,0,0,0,1,.09,4.666,4.666,0,0,0,4.512-4.688V52.778a7.364,7.364,0,0,0-7.356-7.356h-.005a9.195,9.195,0,1,0-14.7,0h-.005a7.339,7.339,0,0,0-5.518,2.5,7.338,7.338,0,0,0-5.516-2.5h-.005a9.195,9.195,0,1,0-14.7,0h-.005a7.339,7.339,0,0,0-5.518,2.5,7.338,7.338,0,0,0-5.516-2.5h-.005A9.191,9.191,0,1,0,37.626,35.031l-1.547-1.548a51.487,51.487,0,0,1,72.768,72.768Z" transform="translate(0 0)"/></g></svg>