<svg xmlns="http://www.w3.org/2000/svg" width="111.856" height="111.896" viewBox="0 0 111.856 111.896"><defs><style>.a{fill:#bf71f9;}.b{fill:#00c3bb;}</style></defs><g transform="translate(-0.062 0.003)"><g transform="translate(0.062 -0.003)"><path class="a" d="M293.3,68.557l-2.153-7.577c13.994-34.825,1.224-59.245-11.73-57.371-4.083-4.267-9.981-4.748-17.988-1.474a1.748,1.748,0,0,0,1.323,3.236C275.928-.015,276.366,7.9,279.188,7.212c11.335-2.779,20.88,21.5,8.987,51.789-9.529-1.322-10.206-7.429-12.663-4.986a1.748,1.748,0,0,0-.007,2.472,20.878,20.878,0,0,0,12.44,6.006l1.865,6.563c-15.583,14.579-23.017,12.68-21.541,16.223a1.748,1.748,0,0,0,2.286.941c9.791-4.079,18.356-11.548,21.344-14.325,27.28,21.47,16.027,39.972,21.683,39.972a1.748,1.748,0,0,0,1.748-1.748c0-18.316-7.806-30.6-22.027-41.563Z" transform="translate(-203.472 0.003)"/><path class="a" d="M303.993,159.25c-3.026-10.65-14.792-7.291-12.248,1.663a1.748,1.748,0,0,0,3.363-.956c-1.3-4.57,3.8-5.81,5.522.248,1.043,3.672.526,7.119-3.133,8.159a1.748,1.748,0,0,0,.955,3.363C304.01,170.148,305.6,164.917,303.993,159.25Z" transform="translate(-227.734 -119.266)"/><path class="a" d="M125.779,102.473c1.794,5.069,1.436,8.677,4.07,7.929a1.748,1.748,0,0,0,1.2-2.159l-2.389-8.407a1.748,1.748,0,0,0-2.159-1.2c-11.954,3.018-13.263,4.685-15.933,3.2a4.341,4.341,0,0,1-2.076-2.622c-2.218-6.883-1.737-8.314-3.357-8.771L100.6,89.154c3.6-10.071,3.818-3.676.175-17.135,5.313.463,8.4-1.444,22.177-5.085a1.748,1.748,0,0,0-.955-3.363l-15.642,4.444C96.308,70.679,89.988,63.48,86.577,53.764c6.129,1.257,13.5-4.181,24.776-11.149a1.748,1.748,0,0,0-1.838-2.974C98.575,46.4,89.16,53.3,85.076,49.288a1.74,1.74,0,0,0-2.995,1.544c1.637,7.855,6.781,17.5,14.818,20.351l2.968,10.444c-4.453,11.753-5.506,9.092,3.383,11.906,1.753,4.781,1.348,8.966,5.619,11.347a7.812,7.812,0,0,0,5.98.7Z" transform="translate(-64.127 -30.756)"/><path class="a" d="M355.918,375.8a12.229,12.229,0,0,0-12.185,12.286l.058,15.732a1.748,1.748,0,0,0,3.5-.013l-.058-15.732a8.74,8.74,0,1,1,17.48-.073l.058,15.732a1.748,1.748,0,0,0,1.748,1.742,1.776,1.776,0,0,0,1.748-1.755l-.058-15.732A12.251,12.251,0,0,0,355.918,375.8Z" transform="translate(-268.643 -293.688)"/><path class="a" d="M234.7,367.954l-.172-.414c1.166-6.506,3.767-9.83,1.021-13.348-1.586-2.032-5.419-3.309-6.242-1.113-5.475,14.864-5.5,14.065-5.321,14.94,3.721,16,2.622,18.885,5.208,18.885a1.748,1.748,0,0,0,1.716-2.091l-3.4-16.99,4.54-12.106c2.4,1.289.685,3.521-1.056,11.537-.246.983.109.863,3.578,9.5a1.748,1.748,0,0,0,1.956,1.043c2.308-.461,1.062-3.393,1.406-7.933,0-2.936,3.5-2.937,3.5,0,0,10.495.423,10.652-2.984,14.059a1.748,1.748,0,0,0,2.472,2.472c4.592-4.593,4.008-6.32,4.008-16.532C244.926,363.055,236.349,362.316,234.7,367.954Z" transform="translate(-175.021 -275.035)"/><path class="a" d="M201.8,251.5a1.748,1.748,0,0,0,0-3.5A1.748,1.748,0,0,0,201.8,251.5Z" transform="translate(-156.362 -193.812)"/><path class="b" d="M1.8,320a1.748,1.748,0,0,0,0,3.5A1.748,1.748,0,0,0,1.8,320Z" transform="translate(-0.062 -250.081)"/><path class="b" d="M33.792,323.5a1.748,1.748,0,0,0,0-3.5A1.748,1.748,0,0,0,33.792,323.5Z" transform="translate(-25.065 -250.081)"/><path class="b" d="M65.8,323.5a1.748,1.748,0,0,0,0-3.5A1.748,1.748,0,0,0,65.8,323.5Z" transform="translate(-50.078 -250.081)"/><path class="b" d="M160,353.792a1.748,1.748,0,0,0,3.5,0A1.748,1.748,0,0,0,160,353.792Z" transform="translate(-125.054 -275.133)"/><path class="a" d="M233.8,251.5a1.748,1.748,0,0,0,0-3.5A1.748,1.748,0,0,0,233.8,251.5Z" transform="translate(-181.371 -193.812)"/><path class="a" d="M331.5,321.8a1.748,1.748,0,0,0-3.5,0A1.748,1.748,0,0,0,331.5,321.8Z" transform="translate(-256.347 -250.129)"/><path class="a" d="M312,297.792a1.748,1.748,0,0,0,3.5,0A1.748,1.748,0,0,0,312,297.792Z" transform="translate(-243.843 -231.368)"/><path class="a" d="M288,273.792a1.748,1.748,0,0,0,3.5,0A1.748,1.748,0,0,0,288,273.792Z" transform="translate(-225.087 -212.612)"/><path class="a" d="M265.792,259.5a1.748,1.748,0,0,0,0-3.5A1.748,1.748,0,0,0,265.792,259.5Z" transform="translate(-206.374 -200.064)"/><path class="a" d="M233.8,27.5a1.748,1.748,0,0,0,0-3.5A1.748,1.748,0,0,0,233.8,27.5Z" transform="translate(-181.371 -18.755)"/><path class="b" d="M38.992,253.984H54.724a1.748,1.748,0,0,0,0-3.5H38.992a3.5,3.5,0,0,1-3.5-3.5c0-4.627,6.992-4.621,6.992,0a1.748,1.748,0,0,0,1.748,1.748c3.672,0,1.42-8.74-5.244-8.74a6.992,6.992,0,0,0,0,13.984Z" transform="translate(-25.022 -187.56)"/><path class="b" d="M54.724,352H38.992a6.992,6.992,0,1,0,6.992,6.992,1.748,1.748,0,0,0-3.5,0c0,4.627-6.992,4.621-6.992,0a3.5,3.5,0,0,1,3.5-3.5H54.724A1.748,1.748,0,0,0,54.724,352Z" transform="translate(-25.022 -275.089)"/><path class="b" d="M111.78,320H97.8a1.748,1.748,0,0,0,0,3.5H111.78A1.748,1.748,0,0,0,111.78,320Z" transform="translate(-75.086 -250.081)"/></g></g></svg>