<svg xmlns="http://www.w3.org/2000/svg" width="83.12" height="83.12" viewBox="0 0 83.12 83.12"><defs><style>.a{fill:#c688fa;}</style></defs><g transform="translate(-1 -1)"><path class="a" d="M29.545,29.189l-1.9-1.9L22.312,32.63l7.026,3.514,1.2-2.4-3.7-1.849Z" transform="translate(7.26 8.957)"/><path class="a" d="M67.989,74.419v-12.6L72.08,56.9A40.257,40.257,0,0,0,81.4,31.178,30.178,30.178,0,0,0,41.674,2.548l-1.06.354a15.257,15.257,0,0,1-9.6,0L26.784,1.493A9.567,9.567,0,0,0,23.747,1,14.765,14.765,0,0,0,9,15.747v.4A14.38,14.38,0,0,0,21.986,30.423a27.377,27.377,0,0,0-.92,6.992v4.856a22.81,22.81,0,0,1-.681,5.528L19.5,51.323l1.245.622a12.811,12.811,0,0,0,4.621,1.3l1.351,5.407h6.229a5.163,5.163,0,0,1-1.322,2.288l-1.41,1.412.438,1.1a11.567,11.567,0,0,0,13.246,7l5.317-1.181V69.3a4.031,4.031,0,0,1-1.684,3.273L43.846,75.2a14.282,14.282,0,0,0-5.284,7.152l-.587,1.764H75.211l-.937-2.814a11.531,11.531,0,0,0-6.285-6.887ZM11.681,16.149v-.4A12.08,12.08,0,0,1,23.747,3.681a6.86,6.86,0,0,1,2.189.357l4.227,1.408a17.936,17.936,0,0,0,11.3,0l1.06-.353A27.494,27.494,0,0,1,78.714,31.178a37.57,37.57,0,0,1-8.693,24.008l-3.463,4.157L56.477,49.261a12.529,12.529,0,0,0,3.472-8.75,5.995,5.995,0,0,0-6.068-5.994,6.065,6.065,0,0,0-4.32,1.783l-.582.583a13.028,13.028,0,0,1-5.746-7.138l-1.008-3.026a6.347,6.347,0,0,0-9.954-2.884l-2.373,1.9a9.506,9.506,0,0,1-5.922,2.081h-.587A11.7,11.7,0,0,1,11.681,16.149Zm40.594,65.29H41.858A11.617,11.617,0,0,1,45.4,77.385l3.689-2.636A6.719,6.719,0,0,0,51.9,69.294v-.633L54.873,68l-.582-2.618-10.971,2.44a8.928,8.928,0,0,1-1.927.21,8.837,8.837,0,0,1-8.016-5.054l.146-.146a7.867,7.867,0,0,0,2.288-5.525V55.967h-7L27.476,50.6H26.428a10.046,10.046,0,0,1-3.794-.748l.353-1.409a25.505,25.505,0,0,0,.76-6.176V37.415a24.766,24.766,0,0,1,1.016-6.954,12.207,12.207,0,0,0,6.809-2.633l2.374-1.9a3.68,3.68,0,0,1,2.356-.8,3.554,3.554,0,0,1,3.378,2.435l1.008,3.026a15.706,15.706,0,0,0,7.93,9.145l.865.432,1.975-1.976a3.458,3.458,0,0,1,2.5-.995,3.29,3.29,0,0,1,2.342.971,3.35,3.35,0,0,1,.969,2.433,9.8,9.8,0,0,1-2.89,6.971l-1.691,1.691L65.307,61.884v11.7a11.491,11.491,0,0,0-12.988,7.723Zm2.861,0a8.89,8.89,0,0,1,16.321,0Z" transform="translate(2.725 0)"/><path class="a" d="M25.27,70.1a2.174,2.174,0,0,1-1.317.438,1.5,1.5,0,0,1-1.063-2.566l1.016-1.016a4.184,4.184,0,0,0-2.959-7.143h-.181a4.2,4.2,0,0,0-2.614.917l-4.5,3.6A2.01,2.01,0,1,1,11.138,61.2l4.428-3.543a4.056,4.056,0,0,0-2.535-7.223H5.022a1.341,1.341,0,0,1,0-2.681h8.24A3.826,3.826,0,0,0,14.972,40.5l-2.1-1.051a2.06,2.06,0,0,1-1.144-1.853,1.914,1.914,0,0,1,2.768-1.712l4.675,2.338,1.2-2.4-4.678-2.339a4.6,4.6,0,0,0-6.647,4.112,4.725,4.725,0,0,0,2.626,4.251l2.1,1.051a1.145,1.145,0,0,1-.511,2.169H5.022a4.022,4.022,0,1,0,0,8.044h8.009a1.375,1.375,0,0,1,.859,2.449L9.462,59.1a4.691,4.691,0,0,0,5.864,7.323l4.5-3.6a1.511,1.511,0,0,1,.938-.328h.181a1.5,1.5,0,0,1,1.063,2.566l-1.016,1.016a4.184,4.184,0,0,0,2.959,7.143,4.9,4.9,0,0,0,2.925-.976l4.42-3.314L29.69,66.784Z" transform="translate(0 10.901)"/><path class="a" d="M15,46h2.681v2.681H15Z" transform="translate(4.769 15.329)"/><path class="a" d="M17,42h2.681v2.681H17Z" transform="translate(5.45 13.967)"/><path class="a" d="M19,48h2.681v2.681H19Z" transform="translate(6.132 16.011)"/><path class="a" d="M21,52h2.681v2.681H21Z" transform="translate(6.813 17.373)"/></g></svg>