<svg xmlns="http://www.w3.org/2000/svg" width="96.835" height="111.337" viewBox="0 0 96.835 111.337"><defs><style>.a{fill:#bf71f9;}</style></defs><g transform="translate(-46.523 -16.001)"><path class="a" d="M115.321,35.271a22.267,22.267,0,0,0-44.31,2.02A48.29,48.29,0,0,0,47.818,88.654a11.178,11.178,0,0,0,6.245,15.791,48.25,48.25,0,1,0,61.251-69.178ZM86.754,58.924,75.516,52.5l4.848-1.212,11.567,1.652,3.037,7.593L92,67.958H86.761a12.116,12.116,0,0,1-2.44-.249l3.172-6.343a1.856,1.856,0,0,0-.739-2.441ZM66.588,58.68H64.115A37.566,37.566,0,0,1,70.989,50.9v1.621ZM109.1,50.67l-1.833,3.665a1.147,1.147,0,0,1-2.052,0l-1.026-2.052-3.319,1.66,1.026,2.051-3.959,1.98-2.375-5.938,7.923-4.754a1.857,1.857,0,0,0,.7-.761L104.8,45.3a2.648,2.648,0,0,1,4.737,0,3.95,3.95,0,0,1,.415,1.758,8.121,8.121,0,0,1-.853,3.613Zm-7.618-7.031-.369.738-8.25,4.95L80.529,47.565a1.86,1.86,0,0,0-.713.037L74.7,48.881V40.892l1.405-1.405a29.3,29.3,0,0,1,20.1-8.632l.309.309a20.637,20.637,0,0,1,5.756,11.265,6.424,6.424,0,0,0-.788,1.21ZM82.618,71.115a15.752,15.752,0,0,0,4.143.554h2.783v1.856H81.413Zm-3.06,6.121h9.536L66.66,99.67l.582-7.08L72.3,82.465l4.838-1.613a1.856,1.856,0,0,0,1.073-.931Zm13.7-4.162v-1.4A1.855,1.855,0,0,0,94.979,70.5l3.449-8.623,6.674-3.337a4.87,4.87,0,0,0,2.859-.174Zm18.556-19.523.611-1.222a11.851,11.851,0,0,0,1.241-5.145c.028-.064.057-.128.084-.192a37.247,37.247,0,0,1,3.373,2.215l-5.309,5.309ZM93.256,19.712A18.581,18.581,0,0,1,111.478,41.8a6.325,6.325,0,0,0-4.305-1.676,6.419,6.419,0,0,0-1.538.19A24.367,24.367,0,0,0,99.141,28.54l-.862-.862a1.856,1.856,0,0,0-1.312-.543A32.97,32.97,0,0,0,74.9,35.522,18.584,18.584,0,0,1,93.256,19.712ZM70.989,41.652V46.16a41.222,41.222,0,0,0-11.24,12.528A1.853,1.853,0,0,0,58.2,59.705L56.34,63.417A1.856,1.856,0,0,0,56.2,64.7l.288,1.153a40.575,40.575,0,0,0-2.165,11.62L50.8,83.514q-.217-2.2-.22-4.422A44.55,44.55,0,0,1,70.983,41.656ZM51.3,97.723a7.489,7.489,0,0,1-.047-7.627L61.458,72.6a1.856,1.856,0,0,0,.2-1.385l-1.689-6.756L61,62.391h2.935l-1.88,2.633,3.02,2.157,8.3-11.625,10.009,5.719-8.149,16.3L70.4,79.187a1.856,1.856,0,0,0-1.073.931L63.762,91.251a1.855,1.855,0,0,0-.19.678l-.775,9.43H57.723A7.527,7.527,0,0,1,51.3,97.723Zm43.81,25.9A44.467,44.467,0,0,1,58.941,105.07h4.68l.006.007a1.856,1.856,0,0,0,1.343.673l.089,0a1.856,1.856,0,0,0,1.312-.543L121.229,50.35a1.856,1.856,0,0,0-.13-2.743A41,41,0,0,0,114.93,43.4a22.143,22.143,0,0,0,.561-3.915,44.541,44.541,0,0,1-20.38,84.144Z" transform="translate(0 0)"/><path class="a" d="M199.2,173.734a1.856,1.856,0,0,0-2.742-.13L141.6,228.463a1.855,1.855,0,0,0,.13,2.742A40.824,40.824,0,0,0,199.2,173.734Zm-1.6,3.977a37.135,37.135,0,0,1,5.586,32.94,29.08,29.08,0,0,0-18.768-16.086v-3.671ZM167.72,236.833a37.177,37.177,0,0,1-22.01-7.229L172.216,203.1l.116.07a1.856,1.856,0,0,0,1.91,0l8.628-5.177a25.381,25.381,0,0,1,18.266,17.87A37.158,37.158,0,0,1,167.72,236.833Z" transform="translate(-72.609 -120.629)"/><circle class="a" cx="1.856" cy="1.856" r="1.856" transform="translate(76.555 41.979)"/><circle class="a" cx="1.856" cy="1.856" r="1.856" transform="translate(85.834 41.979)"/></g></svg>