<svg xmlns="http://www.w3.org/2000/svg" width="264.976" height="316.001" viewBox="0 0 264.976 316.001"><defs><style>.a{fill:#bf71f9;stroke:#bf71f9;}.b{fill:#00c3bb;stroke:#00c3bb;}</style></defs><g transform="translate(-40.903 0.59)"><g transform="translate(41.423 0)"><g transform="translate(0 0)"><path class="a" d="M292.6,59.052A54.407,54.407,0,0,0,275,39.866c1.8-.852,3.625-1.772,5.464-2.776a4.614,4.614,0,0,0,.274-7.939A74.227,74.227,0,0,0,255.773,19.8c-16.982-2.9-31.549,1.771-42.481,13.536A79.04,79.04,0,0,0,180.929,6.866C163.388-.9,142.842-2.1,121.509,3.382,96.454,9.825,77.8,27.581,70.317,52.1c-3.011,9.872-5.2,24.566-1.774,43.588a17.578,17.578,0,0,0-6.36-.246,4.614,4.614,0,1,0,1.352,9.128,7.424,7.424,0,0,1,8.317,4.893c5.2,17.405,15.03,37.713,32.235,60.644a36.338,36.338,0,0,0-16.438-.835c-8.993,1.808-15.728,7.772-18.962,16.795a33.9,33.9,0,0,0-1.458,15.83,28.033,28.033,0,0,0-21.1,15.826c-10.558,22.594-.1,56.064.346,57.478a4.613,4.613,0,0,0,6.141,2.87c1.373-.562,33.754-14.016,44.311-36.611A28.034,28.034,0,0,0,76.539,202c-.607-4.433-.693-8.575.832-12.827,2.161-6.029,6.231-9.684,12.095-10.862,9.863-1.982,23.153,3.279,31.614,12.512,24.5,27.554,37.115,58.58,43.383,79.757,6.827,23.067,7.825,39.8,7.835,39.966a4.613,4.613,0,0,0,4.6,4.362c.084,0,.17,0,.255-.007a4.613,4.613,0,0,0,4.355-4.858c-.039-.714-1.035-17.766-8.118-41.8a229.661,229.661,0,0,0-27.125-59.47c-.042-.1-.084-.208-.134-.311-.856-1.733-3.279-7.662,1.463-11.179a4.613,4.613,0,0,0-5.5-7.411,16.133,16.133,0,0,0-4.965,5.93q-4.3-5.626-9.183-11.136c-22.676-25.492-38.174-50.425-46.064-74.105-4.823-14.473-6.667-28.446-5.53-41.17,2.771-4.711,6.779-6.917,11.635-6.37A19.048,19.048,0,0,1,96.65,66.6a23.68,23.68,0,0,0-4.111,5.78A23.441,23.441,0,0,0,91.17,90.392c6.4,19.526,31.433,33.664,32.495,34.255a4.613,4.613,0,0,0,6.442-2.113c.506-1.106,12.306-27.319,5.9-46.846a23.624,23.624,0,0,0-29.772-15.07c-.518.17-1.023.362-1.524.565a29.128,29.128,0,0,0-15.7-7.33,20.3,20.3,0,0,0-9.982,1.3c.036-.12.065-.244.1-.363,6.517-21.367,22.8-36.846,44.664-42.47q3.838-.987,7.593-1.662h.009a4.684,4.684,0,0,1,3.688.979,5.576,5.576,0,0,1,1.545,4.149,4.614,4.614,0,0,0,4.612,4.555h.06a4.614,4.614,0,0,0,4.555-4.672,16.131,16.131,0,0,0-1.371-6.442,73.461,73.461,0,0,1,32.7,6.079A69.36,69.36,0,0,1,199.864,31.46c-15.637,7.95-20.94,21.19-22.565,31.367a58.778,58.778,0,0,0,.85,22.263,4.613,4.613,0,0,0,6.665,2.858c1.439-.784,2.984-1.533,4.621-2.327q.675-.328,1.354-.659a54.055,54.055,0,0,0,6.617,26c12.994,23.828,52.007,48.713,53.661,49.761a4.61,4.61,0,0,0,6.8-2.3h0c.9-2.437,1.739-4.852,2.549-7.253,13.542,6.6,21.683,9.723,22.06,9.867a4.613,4.613,0,0,0,6.154-3.357c.084-.395,1.869-8.925,3.651-23.881q3.681.929,7.479,1.777h0a4.6,4.6,0,0,0,.964.11h.036a4.614,4.614,0,0,0,4.613-4.577C305.389,129.152,305.6,82.88,292.6,59.052ZM78.233,212.019c.423.162.843.333,1.258.528a18.808,18.808,0,0,1,9.078,25c-6.83,14.616-25.746,25.355-34.67,29.766-2.342-9.677-6.241-31.075.589-45.692A18.8,18.8,0,0,1,68.7,211c1.373,7.8,2.268,15.3-2.746,23.931a4.614,4.614,0,1,0,7.979,4.634C79.926,229.25,79.511,220.168,78.233,212.019ZM100.777,76.551a14.414,14.414,0,0,1,2.473-3.489,43.156,43.156,0,0,1,7.15,14.88,4.614,4.614,0,0,0,8.9-2.439,53.7,53.7,0,0,0-7.742-16.681,14.309,14.309,0,0,1,15.691,9.741c3.818,11.642-.733,27.338-3.577,35.207-6.953-4.658-19.911-14.611-23.728-26.253A14.275,14.275,0,0,1,100.777,76.551Zm153.18-47.7a62.943,62.943,0,0,1,13.891,4.1c-20.281,8.6-37.536,7.11-46.468,5.286C229.951,29.841,240.878,26.682,253.957,28.853ZM192.442,71.739c-.178.707-.335,1.416-.485,2.126a62.564,62.564,0,0,1-5.867,3.126c-1.044-9.7-.314-29.11,19.78-38.165q1.838,2.577,3.475,5.342A54.059,54.059,0,0,0,192.442,71.739Zm88.17,78.559c-3.892-1.663-9.851-4.322-17.382-8.021q2.457-8.332,4.128-16.278,7.579,2.9,15.922,5.35C282.312,139.679,281.321,146.126,280.612,150.3ZM260,112.884a4.613,4.613,0,1,0-3.9,8.363q1.271.592,2.572,1.169a211.794,211.794,0,0,1-7.5,27.292c-10.733-7.354-36.342-26.07-45.663-43.162a45.006,45.006,0,0,1-.281-42.56c.724,15.993,11.906,32.675,30.7,45.779A4.613,4.613,0,0,0,241.2,102.2C224.763,90.73,215.01,76.629,214.443,63.509c-.287-6.643,1.886-12.3,6.116-15.969a79.974,79.974,0,0,0,15.206,1.428,89.125,89.125,0,0,0,28.316-4.705A44.461,44.461,0,0,1,284.5,63.468c9.312,17.076,11.183,48.761,11.556,61.768A197.108,197.108,0,0,1,260,112.884Z" transform="translate(-41.423 0)"/></g></g><g transform="translate(164.896 150.331)"><g transform="translate(0)"><path class="b" d="M317.408,310.034c-.3-1.268-7.586-31.288-25.474-48.507-9.63-9.27-22.056-12.123-30.663-7.729a108.188,108.188,0,0,0-12.126-8.731A4.613,4.613,0,1,0,244.426,253a99.956,99.956,0,0,1,10.056,7.19c-2.329,3.954-3.034,8.886-1.966,14.263a34.225,34.225,0,0,0,10.068,17.568c17.888,17.22,48.162,23.356,49.442,23.609a4.613,4.613,0,0,0,5.382-5.592ZM268.983,285.37a25.3,25.3,0,0,1-7.417-12.718,12.922,12.922,0,0,1,.147-6.125,84.241,84.241,0,0,1,10.094,11.5,4.613,4.613,0,1,0,7.5-5.381,92.045,92.045,0,0,0-9.979-11.59c.253-.015.508-.029.767-.029,4.78,0,10.654,2.537,15.445,7.15,10.829,10.425,17.492,26.9,20.663,36.457C296.531,301.824,279.812,295.794,268.983,285.37Z" transform="translate(-242.171 -244.417)"/></g></g></g></svg>