<svg xmlns="http://www.w3.org/2000/svg" width="107.839" height="111.168" viewBox="0 0 107.839 111.168"><defs><style>.a{fill:#bf71f9;}</style></defs><g transform="translate(0.254)"><path class="a" d="M8.166,78.515h8.685a12.363,12.363,0,0,0,5.993,3.674,8.543,8.543,0,0,0,.02,10.74l7.773,9.539a8.5,8.5,0,0,0,11.942,1.22l6.715-5.474a13.257,13.257,0,0,0,9.777-2.9l11.99-9.782a10.343,10.343,0,0,0,8.57,4.572H97.343a10.251,10.251,0,0,0,10.242-10.295V37.474a10.258,10.258,0,0,0-7.8-10.036V22.613a4.95,4.95,0,0,0-4.925-4.876H94.1V13.953h1.546a1.723,1.723,0,0,0,1.764-1.621V1.638A1.738,1.738,0,0,0,95.651,0H81.325a1.632,1.632,0,0,0-1.646,1.638V5.58A8.35,8.35,0,0,0,75.032,3.96L62.743,3.784h-.018a1.7,1.7,0,0,0-1.655,1.682,1.676,1.676,0,0,0,1.638,1.7L74.982,7.3A4.723,4.723,0,0,1,79.616,12.1a1.559,1.559,0,0,0,.084.531,1.642,1.642,0,0,0,1.624,1.325h1.429v3.784H82.12a4.849,4.849,0,0,0-4.807,4.876v4.825a10.466,10.466,0,0,0-8.04,10.036V49.765a1.551,1.551,0,0,0-.424-.068,5.007,5.007,0,0,0-3.707,1.115l-6.8,5.55a8.673,8.673,0,0,0-1.962-5.411,3.171,3.171,0,0,0-4.368-.494l-1.7,1.334h-.027a8.512,8.512,0,0,0,1.9-5.421,3.1,3.1,0,0,0-3.107-3.093H24.908a11.633,11.633,0,0,0-10.319,6.149H8.166a8.356,8.356,0,0,0-8.42,8.39v12.3a8.364,8.364,0,0,0,8.42,8.4Zm89.177,8.277H79.632a7.019,7.019,0,0,1-5.986-3.375l2.535-2.064H88.488a1.6,1.6,0,0,0,1.6-1.645V53.328l.118.025a10.56,10.56,0,0,0,7.724-.755,7.126,7.126,0,0,1,5.2-.533l1.144.326V79.807a6.936,6.936,0,0,1-6.93,6.984ZM81.275,70.665A5.048,5.048,0,0,0,79.912,69.5l1.615-1.316a5.068,5.068,0,0,0-.789-8.389,5.07,5.07,0,0,0-7.292-6.93l-.316.237a4.49,4.49,0,0,0-.547-1.091V42.8H86.773V78.042H80.242l.307-.245a5.068,5.068,0,0,0,.727-7.132ZM82.989,3.311H94.1v7.332H82.989Zm3.074,10.642h4.73v3.784h-4.73ZM82.12,21.047H94.855a1.637,1.637,0,0,1,1.614,1.566V27.2H80.625V22.613a1.535,1.535,0,0,1,1.5-1.566Zm-2.488,9.46H97.343a6.921,6.921,0,0,1,6.93,6.967V48.956l-.255-.081a10.47,10.47,0,0,0-7.611.777,7.252,7.252,0,0,1-5.3.518l-1.019-.285v-8.65a1.683,1.683,0,0,0-1.6-1.742h-15.9V37.474a7.024,7.024,0,0,1,7.049-6.967ZM55.013,57.028a5.4,5.4,0,0,1-1.972,3.662l-6.3,5.133a1.656,1.656,0,1,0,2.093,2.566l6.295-5.133,12.117-9.878a1.761,1.761,0,0,1,2.226,2.73L53.718,68.956a1.655,1.655,0,1,0,2.093,2.566L71.567,58.674l3.971-3.239a1.762,1.762,0,1,1,2.226,2.73l-2.648,2.158-3.972,3.238L58.037,74.25a1.655,1.655,0,1,0,2.092,2.565l16.864-13.75.217-.176a1.761,1.761,0,1,1,2.226,2.73L74.8,69.4a1.631,1.631,0,0,0-.221.22,4.8,4.8,0,0,0-.44.32L65,77.387a1.656,1.656,0,1,0,2.093,2.566l9.135-7.45a1.762,1.762,0,1,1,2.226,2.73L56.98,92.746a9.932,9.932,0,0,1-7.715,2.128,1.656,1.656,0,0,0-1.494.312l-7.282,5.937a5.184,5.184,0,0,1-7.286-.741l-7.773-9.534a5.178,5.178,0,0,1,.741-7.285l4.422-3.606c.028-.024.055-.047.081-.071l1.3-1.208a1.657,1.657,0,0,0,.48-1.608,8.639,8.639,0,0,1,2.915-8.722L53.944,53.2a5.393,5.393,0,0,1,1.069,3.824Zm-51.956.788a5.043,5.043,0,0,1,5.11-5.079H13.3A10.567,10.567,0,0,0,13,55.3,14.29,14.29,0,0,0,17.233,65.49l.7.684a1.659,1.659,0,0,0,2.341-2.352l-.7-.7a11.138,11.138,0,0,1-3.26-7.9,8.635,8.635,0,0,1,8.593-8.631H48.875a5.3,5.3,0,0,1-5.431,5.2H33.621a1.7,1.7,0,0,0-1.656,1.7A4.692,4.692,0,0,1,27.3,58.187a1.666,1.666,0,0,0-1.656,1.668A1.618,1.618,0,0,0,27.3,61.466,7.853,7.853,0,0,0,35.1,55.1H46.256l-4.321,3.547H38.747a1.689,1.689,0,0,0-.687,3.217l-4.784,3.909A11.983,11.983,0,0,0,29.041,76.88l-.582.544-2.478,2.022a10.427,10.427,0,0,1-9.408-7.883,1.657,1.657,0,0,0-1.989-1.235,1.608,1.608,0,0,0-1.236,1.943A12.6,12.6,0,0,0,14.453,75.2H8.166a5.048,5.048,0,0,1-5.11-5.086Zm0,0" transform="translate(0 0)"/><path class="a" d="M297.263,102.718a7.641,7.641,0,0,0,1.469-8.731,1.484,1.484,0,0,0-.089-.161L293.265,85.3a1.657,1.657,0,0,0-2.8,0l-5.377,8.524a1.557,1.557,0,0,0-.089.161,7.633,7.633,0,0,0,12.265,8.73Zm-8.455-2.342a4.325,4.325,0,0,1-.868-4.867l3.926-6.221,3.926,6.221a4.323,4.323,0,0,1-6.982,4.867Zm0,0" transform="translate(-230.654 -68.536)"/><path class="a" d="M179.6,143.67a6.415,6.415,0,1,0,6.416-6.416A6.415,6.415,0,0,0,179.6,143.67Zm9.52,0a3.1,3.1,0,1,1-3.1-3.105A3.1,3.1,0,0,1,189.118,143.67Zm0,0" transform="translate(-145.82 -111.282)"/><path class="a" d="M87.113,93.678a6.415,6.415,0,1,0,6.416-6.416A6.416,6.416,0,0,0,87.113,93.678Zm9.519,0a3.1,3.1,0,1,1-3.1-3.105A3.1,3.1,0,0,1,96.633,93.678Zm0,0" transform="translate(-70.836 -70.75)"/><path class="a" d="M309.578,526.108a6.415,6.415,0,1,0,6.415-6.416A6.415,6.415,0,0,0,309.578,526.108Zm9.519,0a3.1,3.1,0,1,1-3.1-3.105A3.1,3.1,0,0,1,319.1,526.108Zm0,0" transform="translate(-251.205 -421.355)"/><path class="a" d="M413.309,518.608a6.415,6.415,0,1,0,6.416-6.416A6.416,6.416,0,0,0,413.309,518.608Zm9.52,0a3.1,3.1,0,1,1-3.1-3.105A3.1,3.1,0,0,1,422.828,518.608Zm0,0" transform="translate(-335.308 -415.274)"/></g></svg>