<svg xmlns="http://www.w3.org/2000/svg" width="86.337" height="81.692" viewBox="0 0 86.337 81.692"><defs><style>.a{fill:#c688fa;}</style></defs><g transform="translate(0.001 1.109)"><path class="a" d="M16.683,202.315a12.306,12.306,0,0,0,4.66,2.366,7.574,7.574,0,0,0-.218,9.814l7.12,8.735a7.557,7.557,0,0,0,10.622,1.083l6.224-5.074a11.922,11.922,0,0,0,8.883-2.6L73.646,200.6a4.417,4.417,0,0,0-.842-7.39l1.738-1.416a4.423,4.423,0,0,0-.922-7.432,4.42,4.42,0,0,0-6.194-6.249l-.525.428a4.418,4.418,0,0,0-7.069-2.313L53.22,181.62a7.726,7.726,0,0,0-1.742-5.295,2.624,2.624,0,0,0-3.686-.39l-1.617,1.3h-.591a7.482,7.482,0,0,0,2-5.164,2.587,2.587,0,0,0-2.619-2.579H22.822a10.839,10.839,0,0,0-9.322,5.346H7.487A7.574,7.574,0,0,0,0,182.47v11.268A7.433,7.433,0,0,0,7.487,201.2H15.52a4.507,4.507,0,0,0,1.163,1.113Zm32.74-24.365a.036.036,0,0,1,.029-.009.038.038,0,0,1,.026.014,5.205,5.205,0,0,1-.745,7.323l-5.767,4.7a1.291,1.291,0,1,0,1.632,2l5.766-4.7,0,0,11.1-9.047a1.839,1.839,0,1,1,2.324,2.851L49.354,192.848a1.29,1.29,0,1,0,1.631,2l14.432-11.767,3.639-2.966a1.839,1.839,0,0,1,2.324,2.851l-2.422,1.975,0,0-3.639,2.967,0,0-12,9.786a1.29,1.29,0,1,0,1.631,2l12.006-9.788,3.639-2.967a1.839,1.839,0,1,1,2.324,2.851l-4.244,3.461a1.282,1.282,0,0,0-.195.2,4.473,4.473,0,0,0-.412.3l-8.369,6.824a1.29,1.29,0,1,0,1.63,2l8.37-6.823a1.839,1.839,0,1,1,2.324,2.851l-19.673,16.04a9.33,9.33,0,0,1-7.259,2,1.29,1.29,0,0,0-1.177.239l-6.671,5.438a4.974,4.974,0,0,1-6.991-.711l-7.12-8.733a4.97,4.97,0,0,1,.711-6.991l4.051-3.3c.022-.018.043-.036.063-.055l1.19-1.106a1.291,1.291,0,0,0,.374-1.253,8.142,8.142,0,0,1,2.746-8.219ZM7.487,198.622a4.849,4.849,0,0,1-4.907-4.884V182.47a4.99,4.99,0,0,1,4.907-5.048H12.47a11.5,11.5,0,0,0-.327,2.662,12.966,12.966,0,0,0,3.809,9.214l.638.648a1.287,1.287,0,1,0,1.825-1.815l-.638-.638a10.3,10.3,0,0,1-3.053-7.343,8.086,8.086,0,0,1,8.1-8.073H44.966c.021,0,.038-.024.038,0a5.175,5.175,0,0,1-5.2,5.164h-9a1.3,1.3,0,0,0-1.29,1.306,4.512,4.512,0,0,1-4.5,4.507,1.3,1.3,0,0,0-1.291,1.294,1.279,1.279,0,0,0,1.291,1.278,7.077,7.077,0,0,0,6.962-5.8H43.011l-4.523,3.691a1.187,1.187,0,0,0-.143,0H35.5a1.3,1.3,0,0,0-.152,2.589L30.63,189.94a10.74,10.74,0,0,0-3.779,10.078l-.627.584-2.305,1.88a9.738,9.738,0,0,1-8.95-7.368,1.291,1.291,0,0,0-1.55-.964,1.249,1.249,0,0,0-.964,1.508,11.1,11.1,0,0,0,1.164,2.964Zm0,0" transform="translate(0 -145.425)"/><path class="a" d="M360.78,70.066l-4.975-7.886a1.29,1.29,0,0,0-2.183,0l-4.975,7.886a1.158,1.158,0,0,0-.07.125,6.821,6.821,0,1,0,12.273,0A1.153,1.153,0,0,0,360.78,70.066Zm-3.068,6.1a4.247,4.247,0,0,1-6,0l-.912.912.912-.912a4.244,4.244,0,0,1-.845-4.789l3.842-6.091,3.844,6.091a4.242,4.242,0,0,1-.845,4.787Zm0,0" transform="translate(-296.549 -53.436)"/><path class="a" d="M468.417,26.371a1.289,1.289,0,0,0-1.091.6l-3.317,5.257a1.408,1.408,0,0,0-.07.126,4.977,4.977,0,1,0,8.956,0,1.161,1.161,0,0,0-.07-.126l-3.317-5.257A1.291,1.291,0,0,0,468.417,26.371Zm1.695,9.851a2.4,2.4,0,0,1-3.878-2.682l2.183-3.46,2.183,3.46a2.4,2.4,0,0,1-.488,2.682Zm0,0" transform="translate(-395.044 -23.425)"/><path class="a" d="M278.4-.508a1.29,1.29,0,0,0-2.183,0L272.9,4.75a1.393,1.393,0,0,0-.07.126,4.977,4.977,0,1,0,8.956,0,1.172,1.172,0,0,0-.07-.126Zm.6,9.249a2.4,2.4,0,0,1-3.878-2.682l2.183-3.46,2.183,3.46A2.4,2.4,0,0,1,279,8.742Zm0,0" transform="translate(-232.14)"/><path class="a" d="M505.031,161.106a4.818,4.818,0,0,1-4.362-4.362,1.29,1.29,0,0,0-2.57,0,4.817,4.817,0,0,1-4.362,4.362,1.29,1.29,0,0,0,0,2.57,4.817,4.817,0,0,1,4.362,4.362,1.29,1.29,0,0,0,2.57,0,4.818,4.818,0,0,1,4.362-4.362,1.29,1.29,0,0,0,0-2.57Zm-5.647,3.156a7.414,7.414,0,0,0-1.87-1.871,7.425,7.425,0,0,0,1.87-1.871,7.418,7.418,0,0,0,1.871,1.871A7.416,7.416,0,0,0,499.384,164.262Zm0,0" transform="translate(-419.868 -133.556)"/><path class="a" d="M467.558,408.426a4.818,4.818,0,0,1-4.362-4.362,1.29,1.29,0,0,0-2.57,0,4.817,4.817,0,0,1-4.362,4.362,1.29,1.29,0,0,0,0,2.57,4.816,4.816,0,0,1,4.362,4.362,1.29,1.29,0,0,0,2.57,0A4.817,4.817,0,0,1,467.558,411a1.29,1.29,0,0,0,0-2.57Zm-5.647,3.155a7.414,7.414,0,0,0-1.87-1.871,7.415,7.415,0,0,0,1.87-1.871,7.407,7.407,0,0,0,1.871,1.871A7.416,7.416,0,0,0,461.911,411.582Zm0,0" transform="translate(-387.926 -344.375)"/><path class="a" d="M164.664,53.072a1.29,1.29,0,0,0-2.57,0,4.817,4.817,0,0,1-4.362,4.362,1.29,1.29,0,0,0,0,2.57,4.816,4.816,0,0,1,4.362,4.362,1.29,1.29,0,0,0,2.57,0A4.817,4.817,0,0,1,169.026,60a1.29,1.29,0,0,0,0-2.57A4.818,4.818,0,0,1,164.664,53.072Zm-1.285,7.518a7.414,7.414,0,0,0-1.87-1.871,7.414,7.414,0,0,0,1.87-1.871,7.407,7.407,0,0,0,1.871,1.871A7.416,7.416,0,0,0,163.379,60.59Zm0,0" transform="translate(-133.453 -45.185)"/></g></svg>