<svg xmlns="http://www.w3.org/2000/svg" width="110.066" height="110.066" viewBox="0 0 110.066 110.066"><defs><style>.a{fill:#bf71f9;}.b{fill:#00c3bb;}</style></defs><g transform="translate(-2 -2)"><path class="a" d="M75.205,90.053H71.537V108.4H27.51V90.053H23.841V108.4H14.669V88.864A16.438,16.438,0,0,1,26.253,73.107L40.705,68.59a9.123,9.123,0,0,0,17.636,0l14.452,4.516a16.411,16.411,0,0,1,4.981,2.548l2.2-2.935A20.1,20.1,0,0,0,73.883,69.6L58.7,64.857V58.475A20.193,20.193,0,0,0,69.609,42.358H69.7a7.338,7.338,0,0,0,0-14.676v-5.5a20.179,20.179,0,0,0-40.358,0v5.5a7.338,7.338,0,1,0,0,14.676h.094A20.194,20.194,0,0,0,40.351,58.475v6.382L25.162,69.6A20.091,20.091,0,0,0,11,88.864v21.368a1.834,1.834,0,0,0,1.834,1.834H80.709V108.4h-5.5ZM73.371,35.02A3.669,3.669,0,0,1,69.7,38.689V31.351A3.669,3.669,0,0,1,73.371,35.02ZM49.523,5.669a16.528,16.528,0,0,1,16.51,16.51v1.834H63.124l-4.966-4.966a1.834,1.834,0,0,0-2.4-.171l-6.848,5.136h-15.9V22.179a16.528,16.528,0,0,1,16.51-16.51ZM25.676,35.02a3.669,3.669,0,0,1,3.669-3.669v7.338A3.669,3.669,0,0,1,25.676,35.02Zm7.338,5.5V27.682h16.51a1.834,1.834,0,0,0,1.1-.367l6.065-4.549,4.379,4.379a1.834,1.834,0,0,0,1.3.537h3.669V40.523a16.51,16.51,0,1,1-33.02,0ZM49.523,60.7a20.117,20.117,0,0,0,5.5-.781v6.285a5.5,5.5,0,0,1-11.007,0V59.921A20.117,20.117,0,0,0,49.523,60.7Z" transform="translate(7.51 0)"/><path class="a" d="M33.956,24.832a1.834,1.834,0,0,0-.092-1.884l-3.669-5.5-3.053,2.036,1.768,2.651H25V25.8h7.338A1.834,1.834,0,0,0,33.956,24.832Z" transform="translate(19.192 12.888)"/><path class="a" d="M35.835,25.8h7.338V22.132H39.261l1.768-2.651-3.053-2.036-3.669,5.5A1.834,1.834,0,0,0,35.835,25.8Z" transform="translate(26.702 12.888)"/><path class="a" d="M39.007,31.338h3.669a7.338,7.338,0,0,0-14.676,0h3.669a3.669,3.669,0,1,1,7.338,0Z" transform="translate(21.695 18.358)"/><path class="b" d="M49.833,18.482h.172c2.1-.2,7.191-.82,8.989-2.328a5.506,5.506,0,0,0-7.074-8.438c-1.8,1.508-3.3,6.41-3.852,8.438a1.834,1.834,0,0,0,1.765,2.328Zm4.443-7.956a1.834,1.834,0,1,1,2.359,2.809,13.758,13.758,0,0,1-4.2,1.128,13.648,13.648,0,0,1,1.838-3.937Z" transform="translate(38.385 3.696)"/><path class="b" d="M58.015,15.764c-2.308-.4-7.026,1.6-8.947,2.478a1.834,1.834,0,0,0-.523,2.972c1.5,1.486,5.248,4.982,7.558,5.39a5.5,5.5,0,0,0,1.911-10.84ZM56.744,22.99A13.718,13.718,0,0,1,53.182,20.5a13.925,13.925,0,0,1,4.2-1.123,1.834,1.834,0,1,1-.633,3.612Z" transform="translate(38.385 11.441)"/><path class="b" d="M14.067,12.716h0c1.922,1.343,7.042,1.521,9.154,1.534h.018a1.834,1.834,0,0,0,1.719-2.473c-.734-1.981-2.653-6.734-4.573-8.072a5.5,5.5,0,1,0-6.318,9.011Zm1.651-5.56A1.834,1.834,0,0,1,16.9,6.4a1.807,1.807,0,0,1,1.368.3,13.687,13.687,0,0,1,2.174,3.762,13.679,13.679,0,0,1-4.28-.758A1.834,1.834,0,0,1,15.718,7.156Z" transform="translate(8.112 0.59)"/><path class="b" d="M15.266,23.463a5.6,5.6,0,0,0,.967.084,5.45,5.45,0,0,0,3.144-1c1.922-1.345,3.841-6.1,4.575-8.072A1.834,1.834,0,0,0,22.237,12h-.013c-2.111.013-7.231.183-9.154,1.534h0a5.5,5.5,0,0,0,2.2,9.928Zm-.1-6.921a13.711,13.711,0,0,1,4.28-.758,13.637,13.637,0,0,1-2.163,3.762,1.835,1.835,0,0,1-2.106-3Z" transform="translate(7.279 8.344)"/><path class="b" d="M59.338,64.689V35H55.669V64.689a5.5,5.5,0,1,0,3.669,0Zm-1.834,7a1.834,1.834,0,1,1,1.834-1.834A1.834,1.834,0,0,1,57.5,71.689Z" transform="translate(41.722 27.537)"/><path class="a" d="M70.013,65.891V38.172a9.172,9.172,0,0,0-18.344,0V65.891a12.841,12.841,0,1,0,18.344,0ZM60.841,84.033a9.161,9.161,0,0,1-6.112-15.994,1.834,1.834,0,0,0,.609-1.365v-28.5a5.5,5.5,0,1,1,11.007,0v28.5a1.834,1.834,0,0,0,.609,1.365,9.161,9.161,0,0,1-6.112,15.995Z" transform="translate(38.384 22.53)"/><path class="b" d="M9.338,38H5.669a4.144,4.144,0,0,1-1.394,3.087,7.727,7.727,0,0,0,0,10.95,4.115,4.115,0,0,1,0,6.173A7.639,7.639,0,0,0,2,63.682H5.669A4.142,4.142,0,0,1,7.061,60.6a7.719,7.719,0,0,0,0-10.948,4.116,4.116,0,0,1,0-6.175A7.651,7.651,0,0,0,9.338,38Z" transform="translate(0 30.04)"/><path class="b" d="M12.061,40.651a4.116,4.116,0,0,1,0-6.175A7.651,7.651,0,0,0,14.338,29H10.669a4.144,4.144,0,0,1-1.394,3.087,7.727,7.727,0,0,0,0,10.95,4.115,4.115,0,0,1,0,6.173A7.639,7.639,0,0,0,7,54.682h3.669A4.142,4.142,0,0,1,12.061,51.6a7.719,7.719,0,0,0,0-10.948Z" transform="translate(4.172 22.53)"/></g></svg>