<svg xmlns="http://www.w3.org/2000/svg" width="329.991" height="330.086" viewBox="0 0 329.991 330.086"><defs><style>.a{fill:#00c3bb;}.b{fill:#bf71f9;}</style></defs><g transform="translate(-1179 -6734.889)"><g transform="translate(1179 6734.889)"><path class="a" d="M80.506,115.265a5.5,5.5,0,0,0,6.985,0c1.2-.979,29.408-24.2,38.433-32.955C136.01,72.52,150,63.055,150,39.18c0-41.485-45.6-48.239-66-24.749C63.6-9.053,18-2.333,18,39.18,18,60.366,29.715,71,38.267,78.779,43.6,83.619,48.8,89.174,80.506,115.265Zm41.826-44.631c-5.934,5.4-8.321,8.387-38.334,33.252-30.057-24.9-32.405-27.862-38.334-33.252A50.84,50.84,0,0,1,31.871,53.7a26.856,26.856,0,0,1,13.574-3.179c17.05,0,17.671,11,38.5,11,20.514,0,21.757-11,38.554-11A26.977,26.977,0,0,1,136.126,53.7a50.9,50.9,0,0,1-13.794,16.934ZM54.849,12.022A27.6,27.6,0,0,1,79.087,26.454a5.725,5.725,0,0,0,9.779,0,27.6,27.6,0,0,1,24.282-14.432c18.21,0,27.208,12.149,25.635,30.739A37.949,37.949,0,0,0,122.5,39.521c-20.4,0-21.933,11-38.554,11-17.05,0-17.665-11-38.5-11a37.784,37.784,0,0,0-16.208,3.239c-1.562-18.545,7.386-30.739,25.613-30.739Z" transform="translate(80.997 -0.995)"/><path class="b" d="M313.491,14a16.5,16.5,0,0,0-16.5,16.5v55H99V69A16.5,16.5,0,0,0,82.5,52.5H33v-22a16.5,16.5,0,1,0-33,0V145.875a16.5,16.5,0,0,0,16.5,16.5h6.512a16.5,16.5,0,0,0,15.488,11V184.5h-11a16.5,16.5,0,0,0,0,33h11a11,11,0,0,0,11,11v12.012a16.5,16.5,0,1,0,11,0V228.494a11,11,0,0,0,11-11H258.493a11,11,0,0,0,11,11v12.012a16.5,16.5,0,1,0,11,0V228.494a11,11,0,0,0,11-11h11a16.5,16.5,0,1,0,0-33h-11V173.374a16.5,16.5,0,0,0,15.488-11h6.512a16.5,16.5,0,0,0,16.5-16.5V30.5A16.5,16.5,0,0,0,313.491,14ZM55,261.493a5.5,5.5,0,1,1,5.5-5.5A5.5,5.5,0,0,1,55,261.493Zm219.994,0a5.5,5.5,0,1,1,5.5-5.5A5.5,5.5,0,0,1,274.992,261.493Zm22-126.5H33V96.5H296.992ZM82.5,63.5A5.5,5.5,0,0,1,88,69V85.5H33v-22ZM11,145.875V30.5a5.5,5.5,0,1,1,11,0V151.375H16.5A5.5,5.5,0,0,1,11,145.875Zm16.5,60.619a5.5,5.5,0,1,1,0-11h11v11Zm22,11v-44h11v44Zm22-11v-11H258.493v11Zm208.994,11h-11v-44h11Zm22-22a5.5,5.5,0,1,1,0,11h-11v-11Zm-44-11H71.5V173.374H258.493Zm33-22.12H38.5a5.5,5.5,0,0,1-5.5-5.5V146H296.992v10.879A5.5,5.5,0,0,1,291.492,162.375Zm27.5-16.5a5.5,5.5,0,0,1-5.5,5.5h-5.5V30.5a5.5,5.5,0,0,1,11,0Z" transform="translate(0 57.525)"/></g><g transform="translate(1441.522 6895.242)"><path class="a" d="M316.565,288.129v-9.013h-8.7v9.013h-9.013v8.7h9.013v9.013h8.7V296.83h9.013v-8.7Z" transform="translate(-298.851 -279.116)"/></g></g></svg>