<svg xmlns="http://www.w3.org/2000/svg" width="84.26" height="70.061" viewBox="0 0 84.26 70.061"><defs><style>.a{fill:#c688fa;}</style></defs><g transform="translate(-0.001 -0.144)"><path class="a" d="M42.639,19.441V15.848h.187a1.441,1.441,0,0,0,1.366-1.463V1.511A1.355,1.355,0,0,0,42.827.144H7.718A1.314,1.314,0,0,0,6.4,1.51V14.384a1.4,1.4,0,0,0,1.316,1.463h.237v3.6c0,.009-.049.017-.066.026-.067.034-.141.068-.208.1-.085.044-.174.088-.259.133l-.2.113c-.082.046-.164.091-.244.139s-.135.081-.2.121-.157.1-.235.146l-.2.13-.224.152-.2.138c-.073.053-.146.106-.217.16s-.128.1-.191.146-.14.111-.21.166-.125.1-.186.152-.136.116-.2.175-.121.105-.18.158-.131.121-.2.182-.117.109-.174.164l-.191.189c-.056.057-.112.112-.167.169s-.124.132-.186.2-.107.115-.158.173-.123.14-.183.211-.1.114-.148.173c-.063.076-.125.154-.186.231-.044.055-.089.109-.131.164-.076.1-.15.2-.223.3l-.125.171c-.082.115-.163.231-.241.348-.038.056-.073.113-.11.17-.055.086-.111.171-.165.257-.039.063-.076.127-.115.191-.049.082-.1.162-.145.245s-.075.135-.113.2-.089.161-.132.241-.071.141-.107.212-.082.162-.121.243-.067.144-.1.216-.075.164-.112.247-.063.146-.094.22l-.1.251c-.03.075-.059.15-.086.224s-.064.169-.094.255-.053.151-.079.227-.058.173-.086.259-.048.153-.071.23-.052.175-.076.264-.042.154-.063.231-.045.179-.067.269-.037.154-.054.231-.039.183-.058.276c-.016.076-.031.153-.046.23-.017.094-.033.189-.049.284-.013.075-.026.151-.037.227-.014.1-.026.2-.039.293-.009.074-.02.148-.028.222-.011.1-.02.207-.03.31-.006.069-.013.138-.019.208-.009.116-.014.233-.02.348,0,.058.011.117.009.175-.007.175.008.351.008.526V62.442a7.76,7.76,0,0,0,7.743,7.763H42.788a7.8,7.8,0,0,0,7.79-7.767V32.265a14.384,14.384,0,0,0-2.388-7.975,13.775,13.775,0,0,0-5.55-4.85ZM9.162,2.905H41.432V13.087H9.162ZM47.816,62.434a5.04,5.04,0,0,1-5.033,5.01H7.765a5,5,0,0,1-4.988-5.006V32.265A11.616,11.616,0,0,1,4.95,25.488c.163-.227.326-.448.5-.663.09-.107.177-.254.27-.358a11.806,11.806,0,0,1,4.1-2.925h.012a1.25,1.25,0,0,0,.879-1.2v-4.5H39.878v4.5a1.376,1.376,0,0,0,.869,1.284,11.438,11.438,0,0,1,7.069,10.637Zm0,0"/><path class="a" d="M87.426,176.981H78.97v-8.456a1.381,1.381,0,0,0-1.381-1.381H69.134a1.381,1.381,0,0,0-1.381,1.381v8.456H59.471a1.381,1.381,0,0,0-1.381,1.381V186.3a1.381,1.381,0,0,0,1.381,1.381h8.283v8.456a1.381,1.381,0,0,0,1.381,1.381H77.59a1.381,1.381,0,0,0,1.381-1.381V187.68h8.456a1.381,1.381,0,0,0,1.381-1.381v-7.938A1.381,1.381,0,0,0,87.426,176.981Zm-1.381,7.938H77.59a1.381,1.381,0,0,0-1.381,1.38v8.456H70.515V186.3a1.381,1.381,0,0,0-1.381-1.38H60.851v-5.177h8.283a1.381,1.381,0,0,0,1.381-1.381v-8.456h5.695v8.456a1.381,1.381,0,0,0,1.381,1.381h8.456Zm0,0" transform="translate(-48.065 -138.182)"/><path class="a" d="M326.616,245.623,310.4,239.68a7.339,7.339,0,0,0-5.179,13.734,7.332,7.332,0,0,0,.83,14.619h17.267a7.329,7.329,0,0,0,6.433-10.86,7.334,7.334,0,0,0-3.141-11.549Zm1.773,8.468a4.58,4.58,0,0,1-.455.909,7.3,7.3,0,0,0-4.611-1.635h-7.27l2.8-7.646,6.809,2.5a4.585,4.585,0,0,1,2.723,5.876ZM303.723,248.5a4.579,4.579,0,0,1,5.731-6.225l6.809,2.5-2.42,6.6a1.38,1.38,0,0,0-.822-1.768l-5.514-2.022a1.381,1.381,0,1,0-.95,2.592l5.513,2.021a1.378,1.378,0,0,0,1.77-.82l-.73,1.991h-.006l-6.8-2.494a4.546,4.546,0,0,1-2.578-2.373Zm-2.246,12.2a4.578,4.578,0,0,1,4.579-4.573h7.219v7.031a1.316,1.316,0,0,0-1.346-1.336h-5.873a1.38,1.38,0,0,0,0,2.761h5.873a1.386,1.386,0,0,0,1.346-1.417v2.107h-7.219A4.579,4.579,0,0,1,301.477,260.7Zm21.845,4.573h-7.286v-9.146h7.286a4.573,4.573,0,1,1,0,9.146Zm0,0" transform="translate(-247.168 -197.827)"/></g></svg>