<svg xmlns="http://www.w3.org/2000/svg"  viewBox="0 0 318.27 366.191"><defs><style>.a{fill:#bf71f9;}.b{fill:#00c3bb;}</style></defs><g transform="translate(-33.5 0.001)"><g transform="translate(33.5 -0.002)"><path class="a" d="M381.8,306.161h-2.136a28.257,28.257,0,0,0-4.384-10.568l1.516-1.516a5.364,5.364,0,0,0-7.586-7.586l-1.516,1.516a28.258,28.258,0,0,0-10.568-4.384v-2.136a5.364,5.364,0,0,0-10.728,0v2.136a28.267,28.267,0,0,0-10.569,4.385l-1.516-1.516a5.364,5.364,0,0,0-7.585,7.587l1.516,1.516a28.263,28.263,0,0,0-4.384,10.568h-2.136a5.364,5.364,0,1,0,0,10.728h2.136a28.266,28.266,0,0,0,4.384,10.569l-1.516,1.515a5.364,5.364,0,0,0,7.586,7.587l1.516-1.516a28.245,28.245,0,0,0,10.568,4.384v2.136a5.364,5.364,0,0,0,10.728,0v-2.136a28.258,28.258,0,0,0,10.568-4.384l1.516,1.516a5.364,5.364,0,0,0,7.587-7.586l-1.516-1.516a28.261,28.261,0,0,0,4.384-10.569H381.8a5.365,5.365,0,0,0,0-10.73Zm-30.039,23.054a17.689,17.689,0,1,1,17.689-17.689A17.709,17.709,0,0,1,351.765,329.215Z" transform="translate(-114.055 -78.635)"/><path class="a" d="M444.942,189.528h-2.136a28.264,28.264,0,0,0-4.384-10.569l1.516-1.516a5.364,5.364,0,1,0-7.586-7.586l-1.516,1.516a28.258,28.258,0,0,0-10.568-4.384v-2.136a5.364,5.364,0,1,0-10.728,0v2.136a28.258,28.258,0,0,0-10.568,4.384l-1.516-1.516a5.364,5.364,0,0,0-7.586,7.586l1.516,1.516A28.261,28.261,0,0,0,387,189.528h-2.136a5.364,5.364,0,0,0,0,10.728H387a28.266,28.266,0,0,0,4.384,10.569l-1.516,1.516a5.365,5.365,0,0,0,7.587,7.586l1.516-1.516A28.257,28.257,0,0,0,409.54,222.8v2.136a5.364,5.364,0,1,0,10.728,0V222.8a28.257,28.257,0,0,0,10.568-4.384l1.516,1.516a5.365,5.365,0,1,0,7.587-7.586l-1.516-1.516a28.26,28.26,0,0,0,4.384-10.569h2.135a5.364,5.364,0,0,0,0-10.728ZM414.9,212.582a17.689,17.689,0,1,1,17.689-17.689A17.709,17.709,0,0,1,414.9,212.582Z" transform="translate(-132.036 -45.419)"/><path class="b" d="M190.895,149.378a5.36,5.36,0,0,0,6.415-4.049l1.068-4.722a5.364,5.364,0,1,0-10.464-2.367l-1.068,4.722A5.364,5.364,0,0,0,190.895,149.378Z" transform="translate(-77.133 -38.177)"/><path class="a" d="M309.451,165.981a5.364,5.364,0,0,0,1.139-.122l22.3-4.821a5.364,5.364,0,1,0-2.267-10.486l-22.3,4.821a5.365,5.365,0,0,0,1.129,10.609Z" transform="translate(-110.56 -42.839)"/><path class="a" d="M313.579,251.19a5.364,5.364,0,0,0-.661-7.557l-17.475-14.667a5.364,5.364,0,1,0-6.9,8.217l17.475,14.667a5.364,5.364,0,0,0,7.557-.66Z" transform="translate(-105.588 -64.848)"/><path class="a" d="M333.2,200.318l-20.507-5.077a5.364,5.364,0,1,0-2.577,10.414l20.507,5.077a5.364,5.364,0,1,0,2.577-10.414Z" transform="translate(-111.116 -55.556)"/><path class="b" d="M187.413,125.66a19.689,19.689,0,0,0-20.774,8.317,58.619,58.619,0,0,0,2.8-8.936l8.641-38.207A56.059,56.059,0,0,0,179.3,78.61c7.865-1.295,13.455-5.3,17.748-12.436,6.3-10.464,5.291-28.013-11.8-41.817a5.365,5.365,0,0,0-6.742,8.347c13.924,11.247,12.2,23.194,9.347,27.939-7.826,13-22.474,9.062-77.237-8.064a6.2,6.2,0,0,0-5.148.687c-4.225,2.649-5.872,10.044-9.731,35.961-1.008,6.774-2.366,15.883-3.222,18.648a7.341,7.341,0,0,1-2.271.516c-.441-5.869-1.519-15.507-4.047-21.988A24.477,24.477,0,0,0,84.332,82.1,21.449,21.449,0,0,0,70.249,71.311a21.018,21.018,0,0,0-6.353-.483,75.788,75.788,0,0,1-.866-11.192c-.009-.752-.014-1.207-.052-1.636-.893-9.814,3.278-32.331,14.765-42.266,5.429-4.7,11.817-6.081,19.524-4.232a5.371,5.371,0,0,0,1,.142c25.4,1.186,46.159,4.831,61.691,10.833a5.364,5.364,0,0,0,3.866-10.008C147.317,6.089,125.6,2.214,99.26.949,88.461-1.5,78.6.8,70.725,7.618c-15.112,13.071-19.459,39.825-18.436,51.3.009.185.009.463.013.827A84.9,84.9,0,0,0,53.71,74.918c-3.987,3.229-6.97,8.231-8.415,14.617a31.025,31.025,0,0,0,.932,17.852,19.209,19.209,0,0,0,7.649,9.554,58.13,58.13,0,0,0,6.8,22.858v35.746H51.023a5.364,5.364,0,0,0-5.364,5.364v16.75A16.834,16.834,0,0,0,33.5,213.808v83.443a5.364,5.364,0,0,0,10.728,0V213.808a6.086,6.086,0,0,1,6.079-6.079h78.674A10.383,10.383,0,0,1,139.352,218.1v5.079L85.815,210.943a19.7,19.7,0,0,0-23.964,17.234,19.852,19.852,0,0,0,15.5,21.265l62,14.171v17.295h-4.77a19.669,19.669,0,0,0,0,39.338h4.77V334H44.228v-13.8a5.364,5.364,0,1,0-10.728,0v40.619a5.364,5.364,0,0,0,5.364,5.364H144.716a5.364,5.364,0,0,0,5.364-5.364v-40.58h6.551a19.669,19.669,0,0,0,0-39.338H150.08V266.065l5.777,1.32a18.783,18.783,0,0,0,22.509-14.156l9.042-39.459a5.364,5.364,0,0,0-10.457-2.4l-9.042,39.459a8.089,8.089,0,0,1-9.662,6.094l-39.7-9.074,4-17.508,23,5.257a7.383,7.383,0,0,0,8.841-5.557l19.922-87.165a8.936,8.936,0,1,1,17.422,3.988l-9.538,41.62a5.364,5.364,0,1,0,10.457,2.4l9.538-41.62a19.687,19.687,0,0,0-14.778-23.6Zm-48.062,229.8H44.228V344.731h95.123Zm26.219-54.885a8.95,8.95,0,0,1-8.94,8.94h-11.86l-.055,0-.055,0H134.582a8.94,8.94,0,1,1,0-17.88h22.049a8.95,8.95,0,0,1,8.94,8.94ZM101.185,114.364c1.85-2.385,2.682-6.877,5.167-23.558,1.225-8.225,3.139-21.073,4.807-26.818,25.612,8,42.849,13.279,55.555,14.71.611.069,1.2.114,1.79.164a45.28,45.28,0,0,1-.889,5.607l-8.641,38.207A47.781,47.781,0,0,1,101.891,158.7l-.278-.063a47.832,47.832,0,0,1-36.6-38.941,22.683,22.683,0,0,0,14.766-6.727c.013.306.024.589.031.841a5.364,5.364,0,0,0,4.614,5.151,28.982,28.982,0,0,0,3.929.26c3.949,0,9.67-.787,12.829-4.857ZM121.725,197H108.7v-2.433A8.3,8.3,0,0,1,117,186.273h4.728ZM67.882,81.774A10.855,10.855,0,0,1,74.949,87.3a14.931,14.931,0,0,1,1.359,10.558c-1.681,7.436-8.193,12.323-14.527,10.891-2.558-.579-4.428-2.344-5.557-5.248a20.544,20.544,0,0,1-.466-11.6c.749-3.312,3.129-10.407,9.748-10.407a10.765,10.765,0,0,1,2.377.28Zm3.524,72.2A58.322,58.322,0,0,0,99.246,169.1l.278.063c1.357.307,2.713.558,4.067.766v11.157c-.085.085-.167.173-.251.26a18.961,18.961,0,0,0-13.658-5.8H71.406Zm18.277,32.3a8.3,8.3,0,0,1,8.294,8.294V197H56.387V186.273Zm18.407,59.189-28.348-6.479a9.118,9.118,0,0,1-7.222-9.687,9.015,9.015,0,0,1,4.163-6.741,8.858,8.858,0,0,1,6.742-1.154l28.666,6.552Zm40.045-36.2a21.157,21.157,0,0,0-15.681-11.975V180.909a5.364,5.364,0,0,0-5.364-5.364H117a19.021,19.021,0,0,0-2.678.192V170.57a58.677,58.677,0,0,0,49.816-31.162c-.1.356-.2.716-.281,1.08Z" transform="translate(-33.5 0.002)"/></g></g></svg>