<svg xmlns="http://www.w3.org/2000/svg" viewBox="0 0 185.875 356.5"><defs><style>.a{fill:#bf71f9;}.b{fill:#00c3bb;}</style></defs><g transform="translate(-400 -1222.5)"><path class="a" d="M9.25-330.061A167.646,167.646,0,0,1,27.211-343.8a128.925,128.925,0,0,1,21.095-11.331,131.291,131.291,0,0,1,24.59-7.594,140.156,140.156,0,0,1,28.689-2.772,119.542,119.542,0,0,1,38.212,5.786A85.889,85.889,0,0,1,169.329-343.2a73.637,73.637,0,0,1,19.046,25.916,82.812,82.812,0,0,1,6.75,33.993q0,18.322-5.3,31.7a87.3,87.3,0,0,1-13.38,23.265,106.343,106.343,0,0,1-17.479,17.117q-9.4,7.232-17.84,13.621a141,141,0,0,0-14.586,12.536,24.756,24.756,0,0,0-7.353,13.862l-5.545,35.2H72.9l-4.1-39.3a10.728,10.728,0,0,1-.241-2.049v-2.049a32.107,32.107,0,0,1,5.3-18.443,75.236,75.236,0,0,1,13.26-14.706q7.956-6.871,17.117-13.38a153.547,153.547,0,0,0,17.117-14.1,70.979,70.979,0,0,0,13.26-17.237q5.3-9.643,5.3-22.662a35.891,35.891,0,0,0-3.255-15.55,35.164,35.164,0,0,0-9.041-11.813,40.536,40.536,0,0,0-13.862-7.594,55.714,55.714,0,0,0-17.479-2.652q-13.742,0-23.265,3.014a85.778,85.778,0,0,0-16.153,6.75q-6.63,3.737-11.21,6.75T37.457-298q-8.679,0-12.536-7.233ZM54.815-45.824a37.075,37.075,0,0,1,2.772-14.224A33.99,33.99,0,0,1,65.3-71.62a37.972,37.972,0,0,1,11.693-7.715,36.329,36.329,0,0,1,14.465-2.893,35.733,35.733,0,0,1,14.224,2.893,36.482,36.482,0,0,1,11.572,7.715,36.481,36.481,0,0,1,7.715,11.572,35.733,35.733,0,0,1,2.893,14.224A35.471,35.471,0,0,1,124.97-31.48a36.844,36.844,0,0,1-7.715,11.451,34.9,34.9,0,0,1-11.572,7.594A37.075,37.075,0,0,1,91.459-9.662a37.7,37.7,0,0,1-14.465-2.772A36.283,36.283,0,0,1,65.3-20.028,34.274,34.274,0,0,1,57.587-31.48,36.8,36.8,0,0,1,54.815-45.824Z" transform="translate(390.75 1588)"/><circle class="b" cx="37" cy="37" r="37" transform="translate(445 1505)"/></g></svg>