<svg xmlns="http://www.w3.org/2000/svg" width="314.636" height="314.636" viewBox="0 0 314.636 314.636"><defs><style>.a{fill:#bf71f9;}.b{fill:#00c3bb;}</style></defs><g transform="translate(-2 -2)"><path class="a" d="M194.538,253.708H184.05v52.439H58.2V253.708H47.708v52.439H21.488V250.31A46.991,46.991,0,0,1,54.6,205.265l41.312-12.911a26.078,26.078,0,0,0,50.415,0l41.312,12.911a46.913,46.913,0,0,1,14.237,7.284l6.293-8.39a57.467,57.467,0,0,0-17.415-8.915l-43.414-13.561V163.439a57.725,57.725,0,0,0,31.2-46.073h.267a20.976,20.976,0,0,0,0-41.951V59.683a57.683,57.683,0,0,0-115.366,0V75.415a20.976,20.976,0,1,0,0,41.951h.267A57.725,57.725,0,0,0,94.9,163.44v18.244l-43.42,13.571A57.431,57.431,0,0,0,11,250.31v61.081a5.244,5.244,0,0,0,5.244,5.244H210.269V306.148H194.538ZM189.294,96.391a10.488,10.488,0,0,1-10.488,10.488V85.9A10.488,10.488,0,0,1,189.294,96.391Zm-68.171-83.9a47.248,47.248,0,0,1,47.2,47.2v5.244H160l-14.2-14.2a5.244,5.244,0,0,0-6.854-.488L119.376,64.927H73.927V59.683a47.248,47.248,0,0,1,47.2-47.2Zm-68.171,83.9A10.488,10.488,0,0,1,63.44,85.9v20.976A10.488,10.488,0,0,1,52.952,96.391Zm20.976,15.732V75.415h47.2a5.244,5.244,0,0,0,3.146-1.049l17.336-13,12.517,12.517a5.244,5.244,0,0,0,3.707,1.536h10.488v36.707a47.2,47.2,0,1,1-94.391,0Zm47.2,57.683a57.5,57.5,0,0,0,15.732-2.234v17.966a15.732,15.732,0,1,1-31.464,0V167.572A57.505,57.505,0,0,0,121.123,169.806Z" transform="translate(38.195 0)"/><path class="a" d="M50.6,38.562a5.244,5.244,0,0,0-.262-5.386L39.851,17.445l-8.726,5.821,5.055,7.577H25V41.331H45.976A5.244,5.244,0,0,0,50.6,38.562Z" transform="translate(97.61 65.547)"/><path class="a" d="M39.245,41.331H60.22V30.843H49.04L54.1,23.266l-8.726-5.821L34.882,33.177a5.244,5.244,0,0,0,4.363,8.154Z" transform="translate(135.805 65.547)"/><path class="a" d="M59.464,44.976H69.951a20.976,20.976,0,0,0-41.951,0H38.488a10.488,10.488,0,0,1,20.976,0Z" transform="translate(110.342 93.366)"/><path class="b" d="M53.239,40.884h.493c6.01-.566,20.556-2.344,25.7-6.655A15.738,15.738,0,1,0,59.207,10.107c-5.139,4.311-9.439,18.322-11.012,24.122a5.244,5.244,0,0,0,5.045,6.655Zm12.7-22.743a5.244,5.244,0,1,1,6.744,8.028,39.329,39.329,0,0,1-12,3.225A39.014,39.014,0,0,1,65.94,18.141Z" transform="translate(195.226 18.799)"/><path class="b" d="M76.629,15.863c-6.6-1.154-20.084,4.567-25.575,7.085a5.244,5.244,0,0,0-1.495,8.5c4.295,4.248,15,14.242,21.6,15.407a15.732,15.732,0,0,0,5.464-30.986ZM72.995,36.519A39.214,39.214,0,0,1,62.811,29.4,39.807,39.807,0,0,1,74.8,26.193a5.244,5.244,0,1,1-1.809,10.325Z" transform="translate(195.224 58.189)"/><path class="b" d="M18.425,31.319h0c5.5,3.839,20.131,4.347,26.167,4.384h.052a5.244,5.244,0,0,0,4.914-7.069C47.46,22.97,41.975,9.383,36.485,5.56a15.731,15.731,0,1,0-18.061,25.76Zm4.72-15.894a5.244,5.244,0,0,1,3.388-2.155,5.165,5.165,0,0,1,3.912.865A39.125,39.125,0,0,1,36.658,24.89a39.1,39.1,0,0,1-12.234-2.166A5.244,5.244,0,0,1,23.144,15.424Z" transform="translate(41.259 3)"/><path class="b" d="M23.71,44.769a16,16,0,0,0,2.764.241,15.58,15.58,0,0,0,8.988-2.847c5.5-3.844,10.981-17.431,13.078-23.073a5.244,5.244,0,0,0-4.9-7.09H43.6c-6.036.037-20.672.524-26.167,4.384h0a15.732,15.732,0,0,0,6.293,28.38Zm-.283-19.785a39.193,39.193,0,0,1,12.234-2.166,38.983,38.983,0,0,1-6.183,10.755,5.245,5.245,0,0,1-6.02-8.59Z" transform="translate(37.022 42.439)"/><path class="b" d="M72.977,119.868V35H62.489v84.868a15.732,15.732,0,1,0,10.488,0Zm-5.244,20.011a5.244,5.244,0,1,1,5.244-5.244A5.244,5.244,0,0,1,67.733,139.879Z" transform="translate(212.195 140.05)"/><path class="a" d="M110.927,134.455V55.22a26.22,26.22,0,0,0-52.439,0v79.236a36.707,36.707,0,1,0,52.439,0Zm-26.22,51.862A26.188,26.188,0,0,1,67.235,140.6a5.244,5.244,0,0,0,1.741-3.9V55.22a15.732,15.732,0,1,1,31.464,0v81.475a5.243,5.243,0,0,0,1.74,3.9,26.188,26.188,0,0,1-17.472,45.722Z" transform="translate(195.221 114.586)"/><path class="b" d="M22.976,38H12.488A11.846,11.846,0,0,1,8.5,46.826a22.087,22.087,0,0,0,0,31.3,11.762,11.762,0,0,1,0,17.646A21.836,21.836,0,0,0,2,111.415H12.488a11.841,11.841,0,0,1,3.98-8.815,22.066,22.066,0,0,0,0-31.3,11.767,11.767,0,0,1,0-17.651A21.872,21.872,0,0,0,22.976,38Z" transform="translate(0 152.781)"/><path class="b" d="M21.468,62.3a11.767,11.767,0,0,1,0-17.651A21.872,21.872,0,0,0,27.976,29H17.488A11.846,11.846,0,0,1,13.5,37.826a22.087,22.087,0,0,0,0,31.3,11.762,11.762,0,0,1,0,17.646A21.836,21.836,0,0,0,7,102.415H17.488a11.841,11.841,0,0,1,3.98-8.815,22.066,22.066,0,0,0,0-31.3Z" transform="translate(21.22 114.586)"/></g></svg>