<svg xmlns="http://www.w3.org/2000/svg" width="124.572" height="111.012" viewBox="0 0 124.572 111.012"><defs><style>.a{fill:#bf71f9;}.b{fill:#00c3bb;}</style></defs><path class="a" d="M33.95,187.977a43.485,43.485,0,0,0-19.8.556l-7.77,2.082a2.178,2.178,0,0,1-2.668-2.668l2.31-8.622a42.394,42.394,0,0,0,.8-18.745,42.4,42.4,0,0,1,0-15.188,42.394,42.394,0,0,0-.8-18.745l-2.31-8.622a2.178,2.178,0,0,1,2.668-2.668l7.77,2.082a42.7,42.7,0,0,0,13.8,1.354,1.816,1.816,0,1,0-.231-3.625,39.082,39.082,0,0,1-12.625-1.238l-7.77-2.082A5.811,5.811,0,0,0,.2,118.964l2.31,8.622a38.742,38.742,0,0,1,.738,17.128,46.027,46.027,0,0,0,0,16.541,38.745,38.745,0,0,1-.738,17.128L.2,187.007a5.819,5.819,0,0,0,5.587,7.32,5.917,5.917,0,0,0,1.53-.2l7.77-2.082a39.836,39.836,0,0,1,18.138-.5,1.816,1.816,0,1,0,.723-3.56Z" transform="translate(0 -91.261)"/><path class="a" d="M217.288,175.6a38.742,38.742,0,0,1-.738-17.128,46.027,46.027,0,0,0,0-16.541,38.742,38.742,0,0,1,.738-17.128l2.31-8.622a5.811,5.811,0,0,0-7.117-7.117l-7.77,2.082a39.9,39.9,0,0,1-20.618-.078,103.577,103.577,0,0,0-26.578-3.1,103.577,103.577,0,0,0-26.578,3.1,1.816,1.816,0,0,0,.94,3.509,99.977,99.977,0,0,1,25.639-2.978,99.989,99.989,0,0,1,25.639,2.978,43.539,43.539,0,0,0,22.5.078l7.77-2.082a2.178,2.178,0,0,1,2.668,2.668l-2.31,8.622a42.394,42.394,0,0,0-.8,18.745,42.412,42.412,0,0,1,0,15.188,42.394,42.394,0,0,0,.8,18.745l2.31,8.622a2.178,2.178,0,0,1-2.668,2.668l-7.77-2.082a43.542,43.542,0,0,0-22.5.078c-1.242.333-2.528.639-3.847.917a24.488,24.488,0,0,0,2.7-7.484c3.906-1.254,6.822-6.249,7.145-10.63a7.741,7.741,0,0,0-2.172-6.41,7.439,7.439,0,0,0-1.211-.944v-11.4a20.517,20.517,0,0,0-20.493-20.493h-15.36a20.517,20.517,0,0,0-20.493,20.493V161.18a7.472,7.472,0,0,0-1.371,1.043,7.742,7.742,0,0,0-2.172,6.41c.34,4.611,3.483,9.666,7.482,10.725A24.731,24.731,0,0,0,176.3,191.007c2.708-.449,5.329-1.01,7.79-1.67a39.9,39.9,0,0,1,20.618-.078l7.77,2.082a5.905,5.905,0,0,0,1.53.2,5.819,5.819,0,0,0,5.587-7.32Zm-59.613,20.255a21.152,21.152,0,0,1-20.932-18.349,1.81,1.81,0,0,0-1.827-1.581c-2.358.034-5.141-3.853-5.415-7.561a4.268,4.268,0,0,1,1.082-3.539,5.6,5.6,0,0,1,3.544-1.344,3.437,3.437,0,0,1,.493,0,1.816,1.816,0,0,0,1.942-1.812v-7.762a5.74,5.74,0,0,1,5.734-5.733h19.336a1.816,1.816,0,1,0,0-3.633H142.3a9.38,9.38,0,0,0-9.242,7.852v-2.518a16.88,16.88,0,0,1,16.861-16.861h15.36a16.88,16.88,0,0,1,16.861,16.861v1.745a9.382,9.382,0,0,0-9.083-7.078h-2.54a1.816,1.816,0,1,0,0,3.633h2.54a5.74,5.74,0,0,1,5.733,5.733v7.751a1.816,1.816,0,0,0,1.816,1.816h.011c.113,0,.2,0,.289.008a5.6,5.6,0,0,1,3.544,1.344,4.269,4.269,0,0,1,1.082,3.539c-.264,3.59-2.908,7.4-5.239,7.556a1.816,1.816,0,0,0-1.682,1.578A21.151,21.151,0,0,1,157.675,195.856Z" transform="translate(-95.229 -88.477)"/><path class="a" d="M237.741,393.972a6.717,6.717,0,0,1-8.447,0,1.816,1.816,0,1,0-2.379,2.745,10.343,10.343,0,0,0,13.2,0,1.816,1.816,0,1,0-2.379-2.745Z" transform="translate(-171.232 -304.561)"/><path class="a" d="M286.28,341.234a1.816,1.816,0,0,0-2.275,1.194,2.066,2.066,0,0,1-3.943,0,1.816,1.816,0,0,0-3.468,1.081,5.7,5.7,0,0,0,10.88,0A1.816,1.816,0,0,0,286.28,341.234Z" transform="translate(-209.234 -264.928)"/><path class="a" d="M202.363,343.509a1.816,1.816,0,0,0-3.468-1.081,2.066,2.066,0,0,1-3.943,0,1.816,1.816,0,0,0-3.468,1.081,5.7,5.7,0,0,0,10.88,0Z" transform="translate(-144.832 -264.928)"/><path class="b" d="M379.343,179.836c0,1.491.855,1.98,2.322,1.98h10.878c1.149,0,2.078-.587,2.078-1.687s-.929-1.687-2.078-1.687h-7.822l9.215-10.951a2.234,2.234,0,0,0,.562-1.442,1.643,1.643,0,0,0-1.858-1.833h-10.56c-1.149,0-2.078.587-2.078,1.687s.929,1.687,2.078,1.687h6.991L380,178.3a2.337,2.337,0,0,0-.66,1.54Z" transform="translate(-287.047 -131.042)"/><path class="b" d="M411.37,70.237h8.514a1.305,1.305,0,1,0,0-2.609h-5.493l6.18-6.775a1.756,1.756,0,0,0,.527-1.122,1.312,1.312,0,0,0-1.373-1.465h-7.942a1.305,1.305,0,1,0,0,2.609h4.83l-6.294,6.843a1.718,1.718,0,0,0-.435,1.213A1.342,1.342,0,0,0,411.37,70.237Z" transform="translate(-310.156 -50.87)"/><path class="b" d="M357.447,36.825h6.371a.977.977,0,1,0,0-1.952h-4.11l4.624-5.07a1.313,1.313,0,0,0,.394-.839.982.982,0,0,0-1.028-1.1h-5.943a.977.977,0,1,0,0,1.953h3.614l-4.71,5.121a1.286,1.286,0,0,0-.325.908A1,1,0,0,0,357.447,36.825Z" transform="translate(-269.636 -27.868)"/></svg>