<svg xmlns="http://www.w3.org/2000/svg" width="110.569" height="110.54" viewBox="0 0 110.569 110.54"><defs><style>.a{fill:#bf71f9;}</style></defs><g transform="translate(-0.001 -0.068)"><g transform="translate(0.001 0.068)"><g transform="translate(0 0)"><path class="a" d="M110.541,47.885a9.651,9.651,0,0,0-3.365-6.633l-9.564-8.2V9.759A3.239,3.239,0,0,0,94.373,6.52H81.416a3.2,3.2,0,0,0-3.2,3.239V16.4L61.827,2.424a9.666,9.666,0,0,0-12.638-.009L3.4,41.251A9.713,9.713,0,0,0,2.346,54.959,9.818,9.818,0,0,0,13,57.789v49.58a3.2,3.2,0,0,0,3.2,3.239H94.373a3.239,3.239,0,0,0,3.239-3.239V57.79a9.716,9.716,0,0,0,12.929-9.9ZM84.655,13h6.522V27.5l-6.522-5.553ZM68.5,104.13H42.113V78.173H68.5Zm22.675,0H74.938V74.977A3.239,3.239,0,0,0,71.7,71.738H38.874a3.2,3.2,0,0,0-3.2,3.239V104.13H19.439v-51L55.491,22.548,91.177,53.1v51.03Zm12.135-53.393a3.24,3.24,0,0,1-4.569.352L57.61,15.831a3.239,3.239,0,0,0-4.2-.011L11.832,51.088A3.24,3.24,0,0,1,7.6,46.18L53.393,7.343a3.225,3.225,0,0,1,4.218,0l45.35,38.828A3.243,3.243,0,0,1,103.312,50.737Z" transform="translate(-0.001 -0.068)"/></g></g><g transform="translate(42.157 38.912)"><path class="a" d="M218.27,179.938H198.4a3.2,3.2,0,0,0-3.2,3.239v19.435a3.2,3.2,0,0,0,3.2,3.239H218.27a3.239,3.239,0,0,0,3.239-3.239V183.177A3.239,3.239,0,0,0,218.27,179.938Zm-3.2,19.435H201.642V186.416h13.432Z" transform="translate(-195.207 -179.938)"/></g><g transform="translate(55.501 84.694)"><circle class="a" cx="3.239" cy="3.239" r="3.239"/></g></g></svg>