<svg xmlns="http://www.w3.org/2000/svg" width="555" height="703.484" viewBox="0 0 555 703.484"><g transform="translate(-1022 -5654.516)"><rect width="75" height="330" transform="translate(1502 6028)" fill="rgba(191,113,249,0.6)"/><rect width="75" height="500" transform="translate(1022 5858)" fill="#bf71f9"/><rect width="75" height="431" transform="translate(1142 5927)" fill="rgba(191,113,249,0.9)"/><rect width="75" height="372" transform="translate(1262 5986)" fill="rgba(191,113,249,0.8)"/><rect width="75" height="354" transform="translate(1382 6004)" fill="rgba(191,113,249,0.7)"/><path d="M-8.556-10.836a5.777,5.777,0,0,1,1.914.324A4.632,4.632,0,0,1-5-9.534a4.874,4.874,0,0,1,1.14,1.626A5.542,5.542,0,0,1-3.432-5.64a5.835,5.835,0,0,1-.444,2.274A5.613,5.613,0,0,1-5.124-1.512,5.816,5.816,0,0,1-7.062-.264a6.648,6.648,0,0,1-2.5.456,6.641,6.641,0,0,1-2.5-.444,5.43,5.43,0,0,1-1.884-1.242,5.363,5.363,0,0,1-1.194-1.92,7.147,7.147,0,0,1-.414-2.49,6.957,6.957,0,0,1,.5-2.514A11.341,11.341,0,0,1-13.512-11.1l4.14-5.556a1.715,1.715,0,0,1,.63-.492,2.132,2.132,0,0,1,.954-.2h2.64l-5.148,6.3-.318.384q-.15.18-.294.372a5.227,5.227,0,0,1,1.086-.4A5.264,5.264,0,0,1-8.556-10.836Zm-4.152,5.388a4.136,4.136,0,0,0,.2,1.314,2.741,2.741,0,0,0,.588,1.014,2.665,2.665,0,0,0,.966.654,3.519,3.519,0,0,0,1.332.234,3.444,3.444,0,0,0,1.3-.24A2.982,2.982,0,0,0-7.3-3.144a3.124,3.124,0,0,0,.666-1.014A3.289,3.289,0,0,0-6.4-5.424a3.71,3.71,0,0,0-.228-1.338A2.805,2.805,0,0,0-7.272-7.77,2.781,2.781,0,0,0-8.28-8.4a3.733,3.733,0,0,0-1.3-.216,3.308,3.308,0,0,0-1.284.24,2.938,2.938,0,0,0-.99.666A2.922,2.922,0,0,0-12.486-6.7,3.489,3.489,0,0,0-12.708-5.448Zm18.78-7.7a4.577,4.577,0,0,1-.33,1.776,4.18,4.18,0,0,1-.882,1.35,3.83,3.83,0,0,1-1.284.858,3.981,3.981,0,0,1-1.524.3,4.168,4.168,0,0,1-1.6-.3A3.643,3.643,0,0,1-.81-10.026a3.947,3.947,0,0,1-.834-1.35,4.982,4.982,0,0,1-.3-1.776,5.255,5.255,0,0,1,.3-1.824,3.97,3.97,0,0,1,.834-1.38,3.673,3.673,0,0,1,1.266-.87,4.1,4.1,0,0,1,1.6-.306,4.141,4.141,0,0,1,1.6.306,3.721,3.721,0,0,1,1.278.87,3.923,3.923,0,0,1,.84,1.38A5.255,5.255,0,0,1,6.072-13.152Zm-2.292,0a4.359,4.359,0,0,0-.132-1.164,2.083,2.083,0,0,0-.366-.756,1.344,1.344,0,0,0-.552-.414,1.824,1.824,0,0,0-.678-.126,1.778,1.778,0,0,0-.672.126,1.31,1.31,0,0,0-.54.414,2.076,2.076,0,0,0-.354.756A4.556,4.556,0,0,0,.36-13.152,4.233,4.233,0,0,0,.486-12.03,1.954,1.954,0,0,0,.84-11.3a1.3,1.3,0,0,0,.54.4,1.856,1.856,0,0,0,.672.12,1.9,1.9,0,0,0,.678-.12,1.335,1.335,0,0,0,.552-.4,1.964,1.964,0,0,0,.366-.726A4.05,4.05,0,0,0,3.78-13.152Zm8.064-3.732a1.573,1.573,0,0,1,.36-.324,1.073,1.073,0,0,1,.6-.144h2.148L2.064-.444A1.176,1.176,0,0,1,1.7-.126,1.065,1.065,0,0,1,1.164,0H-1.044Zm4.02,12.8a4.577,4.577,0,0,1-.33,1.776,4.18,4.18,0,0,1-.882,1.35,3.907,3.907,0,0,1-1.284.864,3.913,3.913,0,0,1-1.524.306,4.1,4.1,0,0,1-1.6-.306A3.713,3.713,0,0,1,8.982-.954,3.947,3.947,0,0,1,8.148-2.3a4.982,4.982,0,0,1-.3-1.776,5.255,5.255,0,0,1,.3-1.824,3.97,3.97,0,0,1,.834-1.38,3.673,3.673,0,0,1,1.266-.87,4.1,4.1,0,0,1,1.6-.306,4.141,4.141,0,0,1,1.6.306,3.721,3.721,0,0,1,1.278.87,3.923,3.923,0,0,1,.84,1.38A5.255,5.255,0,0,1,15.864-4.08Zm-2.28,0a4.179,4.179,0,0,0-.138-1.164A2.154,2.154,0,0,0,13.074-6a1.344,1.344,0,0,0-.552-.414,1.824,1.824,0,0,0-.678-.126,1.778,1.778,0,0,0-.672.126A1.269,1.269,0,0,0,10.638-6a2.215,2.215,0,0,0-.354.756,4.359,4.359,0,0,0-.132,1.164,4.116,4.116,0,0,0,.132,1.128,2.082,2.082,0,0,0,.354.732,1.257,1.257,0,0,0,.534.4,1.856,1.856,0,0,0,.672.12,1.9,1.9,0,0,0,.678-.12,1.335,1.335,0,0,0,.552-.4,2.028,2.028,0,0,0,.372-.732A3.947,3.947,0,0,0,13.584-4.08Z" transform="translate(1420 6042)" fill="#fff"/><path d="M-29.988-2.22h3.516V-12.336q0-.588.036-1.236l-2.5,2.088a.885.885,0,0,1-.318.18,1.116,1.116,0,0,1-.318.048.942.942,0,0,1-.438-.1.817.817,0,0,1-.294-.234l-.936-1.284,5.292-4.5h2.436V-2.22h3.12V0h-9.6ZM-5.976-8.676a14.218,14.218,0,0,1-.486,3.942A8.075,8.075,0,0,1-7.806-1.968,5.435,5.435,0,0,1-9.834-.342,6.011,6.011,0,0,1-12.36.192a5.93,5.93,0,0,1-2.514-.534,5.412,5.412,0,0,1-2.01-1.626,8.065,8.065,0,0,1-1.332-2.766,14.386,14.386,0,0,1-.48-3.942,14.371,14.371,0,0,1,.48-3.948,8.068,8.068,0,0,1,1.332-2.76,5.412,5.412,0,0,1,2.01-1.626,5.93,5.93,0,0,1,2.514-.534,6.011,6.011,0,0,1,2.526.534,5.435,5.435,0,0,1,2.028,1.626,8.079,8.079,0,0,1,1.344,2.76A14.2,14.2,0,0,1-5.976-8.676Zm-3.06,0a14.671,14.671,0,0,0-.276-3.12,6.277,6.277,0,0,0-.738-1.968,2.692,2.692,0,0,0-1.062-1.026,2.8,2.8,0,0,0-1.248-.294,2.741,2.741,0,0,0-1.23.294,2.669,2.669,0,0,0-1.05,1.026,6.29,6.29,0,0,0-.726,1.968,14.987,14.987,0,0,0-.27,3.12,14.987,14.987,0,0,0,.27,3.12,6.29,6.29,0,0,0,.726,1.968,2.669,2.669,0,0,0,1.05,1.026,2.741,2.741,0,0,0,1.23.294,2.8,2.8,0,0,0,1.248-.294A2.692,2.692,0,0,0-10.05-3.588a6.277,6.277,0,0,0,.738-1.968A14.671,14.671,0,0,0-9.036-8.676ZM-4.5-1.632a1.845,1.845,0,0,1,.138-.708,1.692,1.692,0,0,1,.384-.576A1.89,1.89,0,0,1-3.4-3.3a1.808,1.808,0,0,1,.72-.144,1.779,1.779,0,0,1,.708.144,1.816,1.816,0,0,1,.576.384,1.816,1.816,0,0,1,.384.576,1.779,1.779,0,0,1,.144.708,1.766,1.766,0,0,1-.144.714,1.834,1.834,0,0,1-.384.57A1.737,1.737,0,0,1-1.968.03a1.845,1.845,0,0,1-.708.138A1.876,1.876,0,0,1-3.4.03a1.806,1.806,0,0,1-.582-.378,1.706,1.706,0,0,1-.384-.57A1.832,1.832,0,0,1-4.5-1.632Zm16.392-14.46a1.385,1.385,0,0,1-.4,1.032,1.864,1.864,0,0,1-1.338.4H5.376L4.752-11.04A10.817,10.817,0,0,1,6.9-11.28a6.549,6.549,0,0,1,2.406.408,4.949,4.949,0,0,1,1.746,1.128A4.732,4.732,0,0,1,12.12-8.058a5.915,5.915,0,0,1,.36,2.082,6.362,6.362,0,0,1-.486,2.52,5.7,5.7,0,0,1-1.35,1.95A6.079,6.079,0,0,1,8.6-.252,7.263,7.263,0,0,1,6.024.192,6.9,6.9,0,0,1,4.476.024,7.68,7.68,0,0,1,3.1-.426a7.661,7.661,0,0,1-1.188-.648,7.51,7.51,0,0,1-.978-.774l.912-1.26a.9.9,0,0,1,.768-.408,1.135,1.135,0,0,1,.606.192q.306.192.714.42a6.217,6.217,0,0,0,.948.42,3.924,3.924,0,0,0,1.308.192,3.67,3.67,0,0,0,1.44-.264A2.805,2.805,0,0,0,8.67-3.294a3.159,3.159,0,0,0,.624-1.128A4.628,4.628,0,0,0,9.5-5.844a2.942,2.942,0,0,0-.822-2.214,3.338,3.338,0,0,0-2.418-.8A7.463,7.463,0,0,0,3.732-8.4L1.884-8.928l1.44-8.424h8.568Zm10.8,2.94a4.577,4.577,0,0,1-.33,1.776,4.18,4.18,0,0,1-.882,1.35,3.83,3.83,0,0,1-1.284.858,3.981,3.981,0,0,1-1.524.3,4.168,4.168,0,0,1-1.6-.3,3.643,3.643,0,0,1-1.266-.858,3.947,3.947,0,0,1-.834-1.35,4.982,4.982,0,0,1-.3-1.776,5.255,5.255,0,0,1,.3-1.824,3.97,3.97,0,0,1,.834-1.38,3.673,3.673,0,0,1,1.266-.87,4.1,4.1,0,0,1,1.6-.306,4.141,4.141,0,0,1,1.6.306,3.721,3.721,0,0,1,1.278.87,3.923,3.923,0,0,1,.84,1.38A5.255,5.255,0,0,1,22.692-13.152Zm-2.292,0a4.359,4.359,0,0,0-.132-1.164,2.083,2.083,0,0,0-.366-.756,1.344,1.344,0,0,0-.552-.414,1.824,1.824,0,0,0-.678-.126,1.778,1.778,0,0,0-.672.126,1.31,1.31,0,0,0-.54.414,2.076,2.076,0,0,0-.354.756,4.556,4.556,0,0,0-.126,1.164,4.233,4.233,0,0,0,.126,1.122,1.954,1.954,0,0,0,.354.726,1.3,1.3,0,0,0,.54.4,1.856,1.856,0,0,0,.672.12,1.9,1.9,0,0,0,.678-.12,1.335,1.335,0,0,0,.552-.4,1.964,1.964,0,0,0,.366-.726A4.05,4.05,0,0,0,20.4-13.152Zm8.064-3.732a1.573,1.573,0,0,1,.36-.324,1.073,1.073,0,0,1,.6-.144h2.148L18.684-.444a1.176,1.176,0,0,1-.366.318A1.065,1.065,0,0,1,17.784,0H15.576Zm4.02,12.8a4.577,4.577,0,0,1-.33,1.776,4.18,4.18,0,0,1-.882,1.35,3.907,3.907,0,0,1-1.284.864,3.913,3.913,0,0,1-1.524.306,4.1,4.1,0,0,1-1.6-.306A3.713,3.713,0,0,1,25.6-.954a3.947,3.947,0,0,1-.834-1.35,4.982,4.982,0,0,1-.3-1.776,5.255,5.255,0,0,1,.3-1.824,3.97,3.97,0,0,1,.834-1.38,3.673,3.673,0,0,1,1.266-.87,4.1,4.1,0,0,1,1.6-.306,4.141,4.141,0,0,1,1.6.306,3.721,3.721,0,0,1,1.278.87,3.923,3.923,0,0,1,.84,1.38A5.255,5.255,0,0,1,32.484-4.08Zm-2.28,0a4.179,4.179,0,0,0-.138-1.164A2.154,2.154,0,0,0,29.694-6a1.344,1.344,0,0,0-.552-.414,1.824,1.824,0,0,0-.678-.126,1.778,1.778,0,0,0-.672.126A1.269,1.269,0,0,0,27.258-6a2.215,2.215,0,0,0-.354.756,4.359,4.359,0,0,0-.132,1.164A4.116,4.116,0,0,0,26.9-2.952a2.082,2.082,0,0,0,.354.732,1.257,1.257,0,0,0,.534.4,1.856,1.856,0,0,0,.672.12,1.9,1.9,0,0,0,.678-.12,1.335,1.335,0,0,0,.552-.4,2.028,2.028,0,0,0,.372-.732A3.947,3.947,0,0,0,30.2-4.08Z" transform="translate(1060 5892)" fill="#fff"/><path d="M-13.1-17.352v1.284a2.834,2.834,0,0,1-.126.93,5.4,5.4,0,0,1-.246.594L-20.04-1.008a2.031,2.031,0,0,1-.576.714A1.583,1.583,0,0,1-21.624,0h-2.148l6.72-13.26a6.914,6.914,0,0,1,.936-1.4h-8.3a.657.657,0,0,1-.48-.2.657.657,0,0,1-.2-.48v-2Zm1.644,15.72a1.845,1.845,0,0,1,.138-.708,1.692,1.692,0,0,1,.384-.576,1.89,1.89,0,0,1,.582-.384,1.808,1.808,0,0,1,.72-.144,1.779,1.779,0,0,1,.708.144,1.816,1.816,0,0,1,.576.384,1.816,1.816,0,0,1,.384.576,1.779,1.779,0,0,1,.144.708,1.766,1.766,0,0,1-.144.714,1.834,1.834,0,0,1-.384.57A1.737,1.737,0,0,1-8.928.03a1.845,1.845,0,0,1-.708.138,1.876,1.876,0,0,1-.72-.138,1.806,1.806,0,0,1-.582-.378,1.706,1.706,0,0,1-.384-.57A1.832,1.832,0,0,1-11.46-1.632ZM.564-17.544A6.46,6.46,0,0,1,2.73-17.2a4.943,4.943,0,0,1,1.65.948,4.153,4.153,0,0,1,1.05,1.422A4.26,4.26,0,0,1,5.8-13.068,5.163,5.163,0,0,1,5.61-11.61a3.393,3.393,0,0,1-.54,1.1,3.273,3.273,0,0,1-.864.792,5.24,5.24,0,0,1-1.158.54,4.532,4.532,0,0,1,2.328,1.5,4.057,4.057,0,0,1,.768,2.532,5.218,5.218,0,0,1-.48,2.292,4.925,4.925,0,0,1-1.3,1.674A5.648,5.648,0,0,1,2.478-.156,7.332,7.332,0,0,1,.2.192a7.759,7.759,0,0,1-2.28-.3A4.95,4.95,0,0,1-3.768-1a5.363,5.363,0,0,1-1.224-1.44A9.718,9.718,0,0,1-5.856-4.4l1.308-.54a1.721,1.721,0,0,1,.684-.144,1.161,1.161,0,0,1,.558.132.9.9,0,0,1,.378.384q.216.42.474.828a3.359,3.359,0,0,0,.618.726A2.941,2.941,0,0,0-.99-2.5a3.063,3.063,0,0,0,1.158.2,3.28,3.28,0,0,0,1.32-.246,2.867,2.867,0,0,0,.942-.642,2.632,2.632,0,0,0,.564-.882,2.718,2.718,0,0,0,.186-.978,4.526,4.526,0,0,0-.132-1.134,1.681,1.681,0,0,0-.552-.87A3,3,0,0,0,1.29-7.62a8.7,8.7,0,0,0-2.106-.2V-9.948A7.177,7.177,0,0,0,1-10.14a3.085,3.085,0,0,0,1.146-.534,1.809,1.809,0,0,0,.594-.822A3.178,3.178,0,0,0,2.9-12.552a2.437,2.437,0,0,0-.672-1.866A2.577,2.577,0,0,0,.4-15.048a2.714,2.714,0,0,0-1.752.557,2.914,2.914,0,0,0-.972,1.432,1.305,1.305,0,0,1-.4.653,1.039,1.039,0,0,1-.66.2,2.525,2.525,0,0,1-.408-.035l-1.56-.272a6.439,6.439,0,0,1,.7-2.191,5.252,5.252,0,0,1,1.29-1.572,5.343,5.343,0,0,1,1.776-.948A7.081,7.081,0,0,1,.564-17.544Zm15.168,4.392a4.577,4.577,0,0,1-.33,1.776,4.18,4.18,0,0,1-.882,1.35,3.83,3.83,0,0,1-1.284.858,3.981,3.981,0,0,1-1.524.3,4.168,4.168,0,0,1-1.6-.3,3.643,3.643,0,0,1-1.266-.858,3.947,3.947,0,0,1-.834-1.35,4.982,4.982,0,0,1-.3-1.776,5.255,5.255,0,0,1,.3-1.824,3.97,3.97,0,0,1,.834-1.38,3.673,3.673,0,0,1,1.266-.87,4.1,4.1,0,0,1,1.6-.306,4.141,4.141,0,0,1,1.6.306,3.721,3.721,0,0,1,1.278.87,3.923,3.923,0,0,1,.84,1.38A5.255,5.255,0,0,1,15.732-13.152Zm-2.292,0a4.359,4.359,0,0,0-.132-1.164,2.083,2.083,0,0,0-.366-.756,1.344,1.344,0,0,0-.552-.414,1.824,1.824,0,0,0-.678-.126,1.778,1.778,0,0,0-.672.126,1.31,1.31,0,0,0-.54.414,2.076,2.076,0,0,0-.354.756,4.556,4.556,0,0,0-.126,1.164,4.233,4.233,0,0,0,.126,1.122,1.954,1.954,0,0,0,.354.726,1.3,1.3,0,0,0,.54.4,1.856,1.856,0,0,0,.672.12,1.9,1.9,0,0,0,.678-.12,1.335,1.335,0,0,0,.552-.4,1.964,1.964,0,0,0,.366-.726A4.05,4.05,0,0,0,13.44-13.152ZM21.5-16.884a1.573,1.573,0,0,1,.36-.324,1.073,1.073,0,0,1,.6-.144h2.148L11.724-.444a1.176,1.176,0,0,1-.366.318A1.065,1.065,0,0,1,10.824,0H8.616Zm4.02,12.8a4.577,4.577,0,0,1-.33,1.776,4.18,4.18,0,0,1-.882,1.35,3.907,3.907,0,0,1-1.284.864A3.913,3.913,0,0,1,21.5.216a4.1,4.1,0,0,1-1.6-.306,3.713,3.713,0,0,1-1.266-.864,3.947,3.947,0,0,1-.834-1.35,4.982,4.982,0,0,1-.3-1.776,5.255,5.255,0,0,1,.3-1.824,3.97,3.97,0,0,1,.834-1.38,3.673,3.673,0,0,1,1.266-.87,4.1,4.1,0,0,1,1.6-.306,4.141,4.141,0,0,1,1.6.306,3.721,3.721,0,0,1,1.278.87,3.923,3.923,0,0,1,.84,1.38A5.255,5.255,0,0,1,25.524-4.08Zm-2.28,0a4.179,4.179,0,0,0-.138-1.164A2.154,2.154,0,0,0,22.734-6a1.344,1.344,0,0,0-.552-.414A1.824,1.824,0,0,0,21.5-6.54a1.778,1.778,0,0,0-.672.126A1.269,1.269,0,0,0,20.3-6a2.215,2.215,0,0,0-.354.756,4.359,4.359,0,0,0-.132,1.164,4.117,4.117,0,0,0,.132,1.128,2.082,2.082,0,0,0,.354.732,1.257,1.257,0,0,0,.534.4,1.856,1.856,0,0,0,.672.12,1.9,1.9,0,0,0,.678-.12,1.335,1.335,0,0,0,.552-.4,2.028,2.028,0,0,0,.372-.732A3.947,3.947,0,0,0,23.244-4.08Z" transform="translate(1179 5965)" fill="#fff"/><path d="M-18.216-10.836a5.777,5.777,0,0,1,1.914.324,4.632,4.632,0,0,1,1.638.978,4.874,4.874,0,0,1,1.14,1.626,5.542,5.542,0,0,1,.432,2.268,5.835,5.835,0,0,1-.444,2.274,5.613,5.613,0,0,1-1.248,1.854A5.816,5.816,0,0,1-16.722-.264a6.648,6.648,0,0,1-2.5.456,6.641,6.641,0,0,1-2.5-.444A5.43,5.43,0,0,1-23.6-1.494,5.363,5.363,0,0,1-24.8-3.414a7.147,7.147,0,0,1-.414-2.49,6.957,6.957,0,0,1,.5-2.514A11.341,11.341,0,0,1-23.172-11.1l4.14-5.556a1.715,1.715,0,0,1,.63-.492,2.132,2.132,0,0,1,.954-.2h2.64l-5.148,6.3-.318.384q-.15.18-.294.372a5.227,5.227,0,0,1,1.086-.4A5.264,5.264,0,0,1-18.216-10.836Zm-4.152,5.388a4.136,4.136,0,0,0,.2,1.314,2.741,2.741,0,0,0,.588,1.014,2.665,2.665,0,0,0,.966.654,3.519,3.519,0,0,0,1.332.234,3.444,3.444,0,0,0,1.3-.24,2.982,2.982,0,0,0,1.02-.672A3.124,3.124,0,0,0-16.3-4.158a3.289,3.289,0,0,0,.24-1.266,3.71,3.71,0,0,0-.228-1.338,2.805,2.805,0,0,0-.648-1.008A2.781,2.781,0,0,0-17.94-8.4a3.733,3.733,0,0,0-1.3-.216,3.308,3.308,0,0,0-1.284.24,2.938,2.938,0,0,0-.99.666A2.922,2.922,0,0,0-22.146-6.7,3.489,3.489,0,0,0-22.368-5.448ZM-11.46-1.632a1.845,1.845,0,0,1,.138-.708,1.692,1.692,0,0,1,.384-.576,1.89,1.89,0,0,1,.582-.384,1.808,1.808,0,0,1,.72-.144,1.779,1.779,0,0,1,.708.144,1.816,1.816,0,0,1,.576.384,1.816,1.816,0,0,1,.384.576,1.779,1.779,0,0,1,.144.708,1.766,1.766,0,0,1-.144.714,1.834,1.834,0,0,1-.384.57A1.737,1.737,0,0,1-8.928.03a1.845,1.845,0,0,1-.708.138,1.876,1.876,0,0,1-.72-.138,1.806,1.806,0,0,1-.582-.378,1.706,1.706,0,0,1-.384-.57A1.832,1.832,0,0,1-11.46-1.632ZM.564-17.544A6.46,6.46,0,0,1,2.73-17.2a4.943,4.943,0,0,1,1.65.948,4.153,4.153,0,0,1,1.05,1.422A4.26,4.26,0,0,1,5.8-13.068,5.163,5.163,0,0,1,5.61-11.61a3.393,3.393,0,0,1-.54,1.1,3.273,3.273,0,0,1-.864.792,5.24,5.24,0,0,1-1.158.54,4.532,4.532,0,0,1,2.328,1.5,4.057,4.057,0,0,1,.768,2.532,5.218,5.218,0,0,1-.48,2.292,4.925,4.925,0,0,1-1.3,1.674A5.648,5.648,0,0,1,2.478-.156,7.332,7.332,0,0,1,.2.192a7.759,7.759,0,0,1-2.28-.3A4.95,4.95,0,0,1-3.768-1a5.363,5.363,0,0,1-1.224-1.44A9.718,9.718,0,0,1-5.856-4.4l1.308-.54a1.721,1.721,0,0,1,.684-.144,1.161,1.161,0,0,1,.558.132.9.9,0,0,1,.378.384q.216.42.474.828a3.359,3.359,0,0,0,.618.726A2.941,2.941,0,0,0-.99-2.5a3.063,3.063,0,0,0,1.158.2,3.28,3.28,0,0,0,1.32-.246,2.867,2.867,0,0,0,.942-.642,2.632,2.632,0,0,0,.564-.882,2.718,2.718,0,0,0,.186-.978,4.526,4.526,0,0,0-.132-1.134,1.681,1.681,0,0,0-.552-.87A3,3,0,0,0,1.29-7.62a8.7,8.7,0,0,0-2.106-.2V-9.948A7.177,7.177,0,0,0,1-10.14a3.085,3.085,0,0,0,1.146-.534,1.809,1.809,0,0,0,.594-.822A3.178,3.178,0,0,0,2.9-12.552a2.437,2.437,0,0,0-.672-1.866A2.577,2.577,0,0,0,.4-15.048a2.714,2.714,0,0,0-1.752.557,2.914,2.914,0,0,0-.972,1.432,1.305,1.305,0,0,1-.4.653,1.039,1.039,0,0,1-.66.2,2.525,2.525,0,0,1-.408-.035l-1.56-.272a6.439,6.439,0,0,1,.7-2.191,5.252,5.252,0,0,1,1.29-1.572,5.343,5.343,0,0,1,1.776-.948A7.081,7.081,0,0,1,.564-17.544Zm15.168,4.392a4.577,4.577,0,0,1-.33,1.776,4.18,4.18,0,0,1-.882,1.35,3.83,3.83,0,0,1-1.284.858,3.981,3.981,0,0,1-1.524.3,4.168,4.168,0,0,1-1.6-.3,3.643,3.643,0,0,1-1.266-.858,3.947,3.947,0,0,1-.834-1.35,4.982,4.982,0,0,1-.3-1.776,5.255,5.255,0,0,1,.3-1.824,3.97,3.97,0,0,1,.834-1.38,3.673,3.673,0,0,1,1.266-.87,4.1,4.1,0,0,1,1.6-.306,4.141,4.141,0,0,1,1.6.306,3.721,3.721,0,0,1,1.278.87,3.923,3.923,0,0,1,.84,1.38A5.255,5.255,0,0,1,15.732-13.152Zm-2.292,0a4.359,4.359,0,0,0-.132-1.164,2.083,2.083,0,0,0-.366-.756,1.344,1.344,0,0,0-.552-.414,1.824,1.824,0,0,0-.678-.126,1.778,1.778,0,0,0-.672.126,1.31,1.31,0,0,0-.54.414,2.076,2.076,0,0,0-.354.756,4.556,4.556,0,0,0-.126,1.164,4.233,4.233,0,0,0,.126,1.122,1.954,1.954,0,0,0,.354.726,1.3,1.3,0,0,0,.54.4,1.856,1.856,0,0,0,.672.12,1.9,1.9,0,0,0,.678-.12,1.335,1.335,0,0,0,.552-.4,1.964,1.964,0,0,0,.366-.726A4.05,4.05,0,0,0,13.44-13.152ZM21.5-16.884a1.573,1.573,0,0,1,.36-.324,1.073,1.073,0,0,1,.6-.144h2.148L11.724-.444a1.176,1.176,0,0,1-.366.318A1.065,1.065,0,0,1,10.824,0H8.616Zm4.02,12.8a4.577,4.577,0,0,1-.33,1.776,4.18,4.18,0,0,1-.882,1.35,3.907,3.907,0,0,1-1.284.864A3.913,3.913,0,0,1,21.5.216a4.1,4.1,0,0,1-1.6-.306,3.713,3.713,0,0,1-1.266-.864,3.947,3.947,0,0,1-.834-1.35,4.982,4.982,0,0,1-.3-1.776,5.255,5.255,0,0,1,.3-1.824,3.97,3.97,0,0,1,.834-1.38,3.673,3.673,0,0,1,1.266-.87,4.1,4.1,0,0,1,1.6-.306,4.141,4.141,0,0,1,1.6.306,3.721,3.721,0,0,1,1.278.87,3.923,3.923,0,0,1,.84,1.38A5.255,5.255,0,0,1,25.524-4.08Zm-2.28,0a4.179,4.179,0,0,0-.138-1.164A2.154,2.154,0,0,0,22.734-6a1.344,1.344,0,0,0-.552-.414A1.824,1.824,0,0,0,21.5-6.54a1.778,1.778,0,0,0-.672.126A1.269,1.269,0,0,0,20.3-6a2.215,2.215,0,0,0-.354.756,4.359,4.359,0,0,0-.132,1.164,4.117,4.117,0,0,0,.132,1.128,2.082,2.082,0,0,0,.354.732,1.257,1.257,0,0,0,.534.4,1.856,1.856,0,0,0,.672.12,1.9,1.9,0,0,0,.678-.12,1.335,1.335,0,0,0,.552-.4,2.028,2.028,0,0,0,.372-.732A3.947,3.947,0,0,0,23.244-4.08Z" transform="translate(1300 6024)" fill="#fff"/><path d="M-14.388-16.092a1.385,1.385,0,0,1-.4,1.032,1.864,1.864,0,0,1-1.338.4H-20.9l-.624,3.624a10.817,10.817,0,0,1,2.148-.24,6.549,6.549,0,0,1,2.406.408,4.949,4.949,0,0,1,1.746,1.128A4.732,4.732,0,0,1-14.16-8.058a5.915,5.915,0,0,1,.36,2.082,6.362,6.362,0,0,1-.486,2.52,5.7,5.7,0,0,1-1.35,1.95A6.079,6.079,0,0,1-17.682-.252a7.263,7.263,0,0,1-2.574.444A6.9,6.9,0,0,1-21.8.024a7.68,7.68,0,0,1-1.374-.45,7.661,7.661,0,0,1-1.188-.648,7.51,7.51,0,0,1-.978-.774l.912-1.26a.9.9,0,0,1,.768-.408,1.135,1.135,0,0,1,.606.192q.306.192.714.42a6.217,6.217,0,0,0,.948.42,3.924,3.924,0,0,0,1.308.192,3.67,3.67,0,0,0,1.44-.264,2.805,2.805,0,0,0,1.038-.738,3.16,3.16,0,0,0,.624-1.128,4.628,4.628,0,0,0,.21-1.422A2.942,2.942,0,0,0-17.6-8.058a3.338,3.338,0,0,0-2.418-.8,7.463,7.463,0,0,0-2.532.456L-24.4-8.928l1.44-8.424h8.568Zm2.928,14.46a1.845,1.845,0,0,1,.138-.708,1.692,1.692,0,0,1,.384-.576,1.89,1.89,0,0,1,.582-.384,1.808,1.808,0,0,1,.72-.144,1.779,1.779,0,0,1,.708.144,1.816,1.816,0,0,1,.576.384,1.816,1.816,0,0,1,.384.576,1.779,1.779,0,0,1,.144.708,1.766,1.766,0,0,1-.144.714,1.834,1.834,0,0,1-.384.57A1.737,1.737,0,0,1-8.928.03a1.845,1.845,0,0,1-.708.138,1.876,1.876,0,0,1-.72-.138,1.806,1.806,0,0,1-.582-.378,1.706,1.706,0,0,1-.384-.57A1.832,1.832,0,0,1-11.46-1.632ZM1.1-10.836a5.777,5.777,0,0,1,1.914.324,4.632,4.632,0,0,1,1.638.978A4.874,4.874,0,0,1,5.8-7.908,5.542,5.542,0,0,1,6.228-5.64a5.835,5.835,0,0,1-.444,2.274A5.613,5.613,0,0,1,4.536-1.512,5.816,5.816,0,0,1,2.6-.264,6.648,6.648,0,0,1,.1.192,6.641,6.641,0,0,1-2.4-.252,5.43,5.43,0,0,1-4.284-1.494a5.363,5.363,0,0,1-1.194-1.92A7.147,7.147,0,0,1-5.892-5.9a6.957,6.957,0,0,1,.5-2.514A11.341,11.341,0,0,1-3.852-11.1l4.14-5.556a1.715,1.715,0,0,1,.63-.492,2.132,2.132,0,0,1,.954-.2h2.64l-5.148,6.3-.318.384q-.15.18-.294.372a5.227,5.227,0,0,1,1.086-.4A5.264,5.264,0,0,1,1.1-10.836ZM-3.048-5.448a4.136,4.136,0,0,0,.2,1.314A2.741,2.741,0,0,0-2.262-3.12a2.665,2.665,0,0,0,.966.654,3.519,3.519,0,0,0,1.332.234,3.444,3.444,0,0,0,1.3-.24,2.982,2.982,0,0,0,1.02-.672,3.124,3.124,0,0,0,.666-1.014,3.289,3.289,0,0,0,.24-1.266,3.71,3.71,0,0,0-.228-1.338A2.805,2.805,0,0,0,2.388-7.77,2.781,2.781,0,0,0,1.38-8.4a3.733,3.733,0,0,0-1.3-.216,3.308,3.308,0,0,0-1.284.24,2.938,2.938,0,0,0-.99.666A2.922,2.922,0,0,0-2.826-6.7,3.489,3.489,0,0,0-3.048-5.448Zm18.78-7.7a4.577,4.577,0,0,1-.33,1.776,4.18,4.18,0,0,1-.882,1.35,3.83,3.83,0,0,1-1.284.858,3.981,3.981,0,0,1-1.524.3,4.168,4.168,0,0,1-1.6-.3,3.643,3.643,0,0,1-1.266-.858,3.947,3.947,0,0,1-.834-1.35,4.982,4.982,0,0,1-.3-1.776,5.255,5.255,0,0,1,.3-1.824,3.97,3.97,0,0,1,.834-1.38,3.673,3.673,0,0,1,1.266-.87,4.1,4.1,0,0,1,1.6-.306,4.141,4.141,0,0,1,1.6.306,3.721,3.721,0,0,1,1.278.87,3.923,3.923,0,0,1,.84,1.38A5.255,5.255,0,0,1,15.732-13.152Zm-2.292,0a4.359,4.359,0,0,0-.132-1.164,2.083,2.083,0,0,0-.366-.756,1.344,1.344,0,0,0-.552-.414,1.824,1.824,0,0,0-.678-.126,1.778,1.778,0,0,0-.672.126,1.31,1.31,0,0,0-.54.414,2.076,2.076,0,0,0-.354.756,4.556,4.556,0,0,0-.126,1.164,4.233,4.233,0,0,0,.126,1.122,1.954,1.954,0,0,0,.354.726,1.3,1.3,0,0,0,.54.4,1.856,1.856,0,0,0,.672.12,1.9,1.9,0,0,0,.678-.12,1.335,1.335,0,0,0,.552-.4,1.964,1.964,0,0,0,.366-.726A4.05,4.05,0,0,0,13.44-13.152ZM21.5-16.884a1.573,1.573,0,0,1,.36-.324,1.073,1.073,0,0,1,.6-.144h2.148L11.724-.444a1.176,1.176,0,0,1-.366.318A1.065,1.065,0,0,1,10.824,0H8.616Zm4.02,12.8a4.577,4.577,0,0,1-.33,1.776,4.18,4.18,0,0,1-.882,1.35,3.907,3.907,0,0,1-1.284.864A3.913,3.913,0,0,1,21.5.216a4.1,4.1,0,0,1-1.6-.306,3.713,3.713,0,0,1-1.266-.864,3.947,3.947,0,0,1-.834-1.35,4.982,4.982,0,0,1-.3-1.776,5.255,5.255,0,0,1,.3-1.824,3.97,3.97,0,0,1,.834-1.38,3.673,3.673,0,0,1,1.266-.87,4.1,4.1,0,0,1,1.6-.306,4.141,4.141,0,0,1,1.6.306,3.721,3.721,0,0,1,1.278.87,3.923,3.923,0,0,1,.84,1.38A5.255,5.255,0,0,1,25.524-4.08Zm-2.28,0a4.179,4.179,0,0,0-.138-1.164A2.154,2.154,0,0,0,22.734-6a1.344,1.344,0,0,0-.552-.414A1.824,1.824,0,0,0,21.5-6.54a1.778,1.778,0,0,0-.672.126A1.269,1.269,0,0,0,20.3-6a2.215,2.215,0,0,0-.354.756,4.359,4.359,0,0,0-.132,1.164,4.117,4.117,0,0,0,.132,1.128,2.082,2.082,0,0,0,.354.732,1.257,1.257,0,0,0,.534.4,1.856,1.856,0,0,0,.672.12,1.9,1.9,0,0,0,.678-.12,1.335,1.335,0,0,0,.552-.4,2.028,2.028,0,0,0,.372-.732A3.947,3.947,0,0,0,23.244-4.08Z" transform="translate(1540 6066)" fill="#fff"/><path d="M5.936-7.126V0H2.17V-20.244H8.764a11.553,11.553,0,0,1,3.514.476,6.764,6.764,0,0,1,2.45,1.33,5.209,5.209,0,0,1,1.428,2.044,7.136,7.136,0,0,1,.462,2.6,7.194,7.194,0,0,1-.49,2.7,5.592,5.592,0,0,1-1.47,2.107,6.841,6.841,0,0,1-2.45,1.372,10.909,10.909,0,0,1-3.444.49Zm0-2.94H8.764a5.674,5.674,0,0,0,1.806-.259,3.355,3.355,0,0,0,1.274-.742,3.042,3.042,0,0,0,.756-1.176,4.5,4.5,0,0,0,.252-1.547,4.082,4.082,0,0,0-.252-1.47,2.906,2.906,0,0,0-.756-1.12,3.363,3.363,0,0,0-1.274-.707,5.974,5.974,0,0,0-1.806-.245H5.936Zm18.928-4.522a6.975,6.975,0,0,1,2.5.434,5.472,5.472,0,0,1,1.967,1.267,5.788,5.788,0,0,1,1.288,2.044,7.719,7.719,0,0,1,.462,2.765,5,5,0,0,1-.035.651,1.042,1.042,0,0,1-.126.406.51.51,0,0,1-.245.21,1.044,1.044,0,0,1-.392.063H21.406A4.946,4.946,0,0,0,22.6-3.5,3.709,3.709,0,0,0,25.34-2.464a4.753,4.753,0,0,0,1.449-.2,6.794,6.794,0,0,0,1.064-.434q.455-.238.8-.434a1.339,1.339,0,0,1,.665-.2.749.749,0,0,1,.364.084.8.8,0,0,1,.266.238l1.008,1.26a5.763,5.763,0,0,1-1.288,1.127,7.223,7.223,0,0,1-1.491.728A8.149,8.149,0,0,1,26.593.1,11.327,11.327,0,0,1,25.032.21a7.673,7.673,0,0,1-2.786-.5,6.237,6.237,0,0,1-2.24-1.47,6.9,6.9,0,0,1-1.5-2.408,9.319,9.319,0,0,1-.546-3.325,7.951,7.951,0,0,1,.476-2.765A6.649,6.649,0,0,1,19.8-12.509a6.426,6.426,0,0,1,2.17-1.519A7.148,7.148,0,0,1,24.864-14.588Zm.07,2.478a3.2,3.2,0,0,0-2.366.854,4.213,4.213,0,0,0-1.092,2.422h6.5A4.309,4.309,0,0,0,27.79-10.1a2.923,2.923,0,0,0-.56-1.043,2.65,2.65,0,0,0-.952-.707A3.242,3.242,0,0,0,24.934-12.11ZM33.894,0V-14.364h2.114a.85.85,0,0,1,.882.63l.238,1.134a7.877,7.877,0,0,1,.917-.812,6.4,6.4,0,0,1,1.022-.63,5.207,5.207,0,0,1,1.155-.406,6.063,6.063,0,0,1,1.344-.14,5.15,5.15,0,0,1,2.086.4,4.122,4.122,0,0,1,1.519,1.12,4.923,4.923,0,0,1,.924,1.722,7.318,7.318,0,0,1,.315,2.2V0H42.952V-9.142a3.068,3.068,0,0,0-.609-2.037,2.257,2.257,0,0,0-1.827-.721,3.6,3.6,0,0,0-1.68.406,6.021,6.021,0,0,0-1.484,1.106V0ZM54.4,3.948a1.336,1.336,0,0,1-.4.553,1.22,1.22,0,0,1-.749.189H50.68l2.688-5.754-5.81-13.3h3.024a.949.949,0,0,1,.644.2,1.288,1.288,0,0,1,.336.448l3.066,7.448a6.572,6.572,0,0,1,.266.756q.112.392.2.784.112-.406.245-.784t.287-.77l2.884-7.434a1.019,1.019,0,0,1,.371-.462.987.987,0,0,1,.581-.182H62.23ZM75.5,0H73.948a1.674,1.674,0,0,1-.77-.147.946.946,0,0,1-.42-.6L72.45-1.764A11.86,11.86,0,0,1,71.379-.9a6.5,6.5,0,0,1-1.085.623A5.534,5.534,0,0,1,69.1.1a7.159,7.159,0,0,1-1.4.126,5.5,5.5,0,0,1-1.68-.246A3.618,3.618,0,0,1,64.7-.759a3.349,3.349,0,0,1-.861-1.222,4.348,4.348,0,0,1-.308-1.7,3.362,3.362,0,0,1,.427-1.608A4.025,4.025,0,0,1,65.38-6.722a9.071,9.071,0,0,1,2.646-1.061,16.9,16.9,0,0,1,4.1-.421V-9.05a3.21,3.21,0,0,0-.609-2.151,2.223,2.223,0,0,0-1.771-.7,4.286,4.286,0,0,0-1.4.2,5.416,5.416,0,0,0-.973.441q-.413.245-.763.441a1.549,1.549,0,0,1-.77.2,1,1,0,0,1-.6-.182,1.433,1.433,0,0,1-.406-.448l-.63-1.106a8.541,8.541,0,0,1,5.978-2.268,5.776,5.776,0,0,1,2.247.413A4.777,4.777,0,0,1,74.1-13.069a4.913,4.913,0,0,1,1.043,1.757,6.752,6.752,0,0,1,.357,2.24Zm-6.72-2.156a4.658,4.658,0,0,0,.98-.1,3.752,3.752,0,0,0,.847-.289,4.514,4.514,0,0,0,.77-.475,6.955,6.955,0,0,0,.749-.668v-2.4A14.04,14.04,0,0,0,69.6-5.9a6.677,6.677,0,0,0-1.631.487,2.1,2.1,0,0,0-.875.691,1.537,1.537,0,0,0-.259.86,1.517,1.517,0,0,0,.539,1.311A2.324,2.324,0,0,0,68.782-2.156ZM82.4-20.8V-8.89h.644a1.242,1.242,0,0,0,.546-.1,1.416,1.416,0,0,0,.42-.364l3.57-4.41a2.086,2.086,0,0,1,.5-.441,1.34,1.34,0,0,1,.7-.161h3.164L87.486-9.03a6.128,6.128,0,0,1-.49.539,3.191,3.191,0,0,1-.546.427,2.581,2.581,0,0,1,.518.49q.224.28.448.6L92.2,0H89.082A1.523,1.523,0,0,1,88.4-.14a1.345,1.345,0,0,1-.5-.476L84.238-6.062a1.114,1.114,0,0,0-.42-.42,1.555,1.555,0,0,0-.63-.1H82.4V0H78.946V-20.8Zm15.624,6.44V0H94.57V-14.364Zm.518-4.186a1.97,1.97,0,0,1-.182.84,2.309,2.309,0,0,1-.483.686,2.309,2.309,0,0,1-.707.469,2.169,2.169,0,0,1-.868.175,2.086,2.086,0,0,1-.847-.175,2.244,2.244,0,0,1-.693-.469,2.268,2.268,0,0,1-.469-.686,2.037,2.037,0,0,1-.175-.84,2.169,2.169,0,0,1,.175-.868,2.222,2.222,0,0,1,.469-.7,2.244,2.244,0,0,1,.693-.469,2.086,2.086,0,0,1,.847-.175,2.169,2.169,0,0,1,.868.175,2.309,2.309,0,0,1,.707.469,2.258,2.258,0,0,1,.483.7A2.1,2.1,0,0,1,98.546-18.55ZM106.652.224a3.778,3.778,0,0,1-2.87-1.057,4.057,4.057,0,0,1-1.008-2.919v-8.022h-1.456a.7.7,0,0,1-.483-.182.7.7,0,0,1-.2-.546v-1.372l2.31-.378.728-3.92a.693.693,0,0,1,.259-.434.821.821,0,0,1,.511-.154h1.792v4.522h3.78v2.464h-3.78V-3.99a1.526,1.526,0,0,0,.336,1.05,1.14,1.14,0,0,0,.9.378A1.627,1.627,0,0,0,108-2.639a2.966,2.966,0,0,0,.378-.161q.161-.084.287-.161a.48.48,0,0,1,.252-.077.4.4,0,0,1,.252.077,1.168,1.168,0,0,1,.21.231l1.036,1.68a5.235,5.235,0,0,1-1.736.952A6.462,6.462,0,0,1,106.652.224ZM1.848,39.69V20.636H3.962a1.034,1.034,0,0,1,.574.154.72.72,0,0,1,.308.476l.28,1.33a7.25,7.25,0,0,1,1.995-1.61,5.418,5.418,0,0,1,2.639-.616,4.709,4.709,0,0,1,2.149.49,4.823,4.823,0,0,1,1.68,1.421,6.816,6.816,0,0,1,1.092,2.3,11.553,11.553,0,0,1,.385,3.129,9.84,9.84,0,0,1-.434,2.982,7.3,7.3,0,0,1-1.239,2.38,5.724,5.724,0,0,1-1.946,1.575,5.662,5.662,0,0,1-2.555.567,5.138,5.138,0,0,1-2.065-.371A5.055,5.055,0,0,1,5.306,33.81v5.88ZM8.568,23.1a3.532,3.532,0,0,0-1.841.455,5.324,5.324,0,0,0-1.421,1.281v6.44a3.291,3.291,0,0,0,1.281,1.015,3.858,3.858,0,0,0,1.491.287A3.351,3.351,0,0,0,9.5,32.284a2.757,2.757,0,0,0,1.078-.9,4.433,4.433,0,0,0,.679-1.519,8.68,8.68,0,0,0,.238-2.163,9.6,9.6,0,0,0-.2-2.135,4.125,4.125,0,0,0-.581-1.421,2.3,2.3,0,0,0-.917-.8A2.86,2.86,0,0,0,8.568,23.1Zm15.05-2.688a6.975,6.975,0,0,1,2.5.434,5.472,5.472,0,0,1,1.967,1.267,5.788,5.788,0,0,1,1.288,2.044,7.719,7.719,0,0,1,.462,2.765,5,5,0,0,1-.035.651,1.042,1.042,0,0,1-.126.406.51.51,0,0,1-.245.21,1.044,1.044,0,0,1-.392.063H20.16A4.946,4.946,0,0,0,21.35,31.5a3.709,3.709,0,0,0,2.744,1.036,4.753,4.753,0,0,0,1.449-.2,6.794,6.794,0,0,0,1.064-.434q.455-.238.8-.434a1.339,1.339,0,0,1,.665-.2.749.749,0,0,1,.364.084.8.8,0,0,1,.266.238l1.008,1.26a5.763,5.763,0,0,1-1.288,1.127,7.224,7.224,0,0,1-1.491.728,8.149,8.149,0,0,1-1.582.385,11.328,11.328,0,0,1-1.561.112,7.673,7.673,0,0,1-2.786-.5,6.237,6.237,0,0,1-2.24-1.47,6.9,6.9,0,0,1-1.5-2.408,9.319,9.319,0,0,1-.546-3.325,7.951,7.951,0,0,1,.476-2.765,6.649,6.649,0,0,1,1.365-2.254,6.426,6.426,0,0,1,2.17-1.519A7.148,7.148,0,0,1,23.618,20.412Zm.07,2.478a3.2,3.2,0,0,0-2.366.854,4.213,4.213,0,0,0-1.092,2.422h6.5a4.309,4.309,0,0,0-.182-1.267,2.923,2.923,0,0,0-.56-1.043,2.65,2.65,0,0,0-.952-.707A3.242,3.242,0,0,0,23.688,22.89ZM32.648,35V20.636h2.03a1.088,1.088,0,0,1,.742.2,1.127,1.127,0,0,1,.28.672l.21,1.736a6.824,6.824,0,0,1,1.806-2.1,3.8,3.8,0,0,1,2.324-.77,3,3,0,0,1,1.764.49l-.448,2.59a.535.535,0,0,1-.182.357.616.616,0,0,1-.378.1,2.358,2.358,0,0,1-.574-.1,3.842,3.842,0,0,0-.966-.1,2.933,2.933,0,0,0-1.848.6,4.581,4.581,0,0,0-1.3,1.743V35Zm11.438,0V20.636H46.2a.85.85,0,0,1,.882.63L47.32,22.4a7.877,7.877,0,0,1,.917-.812,6.4,6.4,0,0,1,1.022-.63,5.207,5.207,0,0,1,1.155-.406,6.063,6.063,0,0,1,1.344-.14,5.15,5.15,0,0,1,2.086.4,4.122,4.122,0,0,1,1.519,1.12,4.923,4.923,0,0,1,.924,1.722,7.318,7.318,0,0,1,.315,2.2V35H53.144V25.858a3.068,3.068,0,0,0-.609-2.037,2.257,2.257,0,0,0-1.827-.721,3.6,3.6,0,0,0-1.68.406,6.021,6.021,0,0,0-1.484,1.106V35ZM71.26,35H69.706a1.674,1.674,0,0,1-.77-.147.946.946,0,0,1-.42-.6l-.308-1.022a11.86,11.86,0,0,1-1.071.861,6.5,6.5,0,0,1-1.085.623,5.534,5.534,0,0,1-1.19.378,7.159,7.159,0,0,1-1.4.126,5.5,5.5,0,0,1-1.68-.246,3.618,3.618,0,0,1-1.323-.737,3.349,3.349,0,0,1-.861-1.222,4.348,4.348,0,0,1-.308-1.7,3.362,3.362,0,0,1,.427-1.608,4.025,4.025,0,0,1,1.421-1.433,9.071,9.071,0,0,1,2.646-1.061,16.9,16.9,0,0,1,4.1-.421V25.95a3.21,3.21,0,0,0-.609-2.151,2.223,2.223,0,0,0-1.771-.7,4.286,4.286,0,0,0-1.4.2,5.416,5.416,0,0,0-.973.441q-.413.245-.763.441a1.549,1.549,0,0,1-.77.2,1,1,0,0,1-.6-.182,1.433,1.433,0,0,1-.406-.448l-.63-1.106A8.541,8.541,0,0,1,65.94,20.37a5.776,5.776,0,0,1,2.247.413,4.776,4.776,0,0,1,1.673,1.148A4.913,4.913,0,0,1,70.9,23.688a6.752,6.752,0,0,1,.357,2.24Zm-6.72-2.156a4.658,4.658,0,0,0,.98-.1,3.752,3.752,0,0,0,.847-.289,4.514,4.514,0,0,0,.77-.475,6.953,6.953,0,0,0,.749-.668v-2.4a14.04,14.04,0,0,0-2.527.19,6.677,6.677,0,0,0-1.631.487,2.1,2.1,0,0,0-.875.691,1.537,1.537,0,0,0-.259.86,1.517,1.517,0,0,0,.539,1.311A2.324,2.324,0,0,0,64.54,32.844ZM74.662,39.69V20.636h2.114a1.034,1.034,0,0,1,.574.154.72.72,0,0,1,.308.476l.28,1.33a7.25,7.25,0,0,1,2-1.61,5.418,5.418,0,0,1,2.639-.616,4.709,4.709,0,0,1,2.149.49,4.823,4.823,0,0,1,1.68,1.421,6.816,6.816,0,0,1,1.092,2.3,11.553,11.553,0,0,1,.385,3.129,9.84,9.84,0,0,1-.434,2.982,7.3,7.3,0,0,1-1.239,2.38,5.724,5.724,0,0,1-1.946,1.575,5.662,5.662,0,0,1-2.555.567,5.138,5.138,0,0,1-2.065-.371A5.055,5.055,0,0,1,78.12,33.81v5.88Zm6.72-16.59a3.532,3.532,0,0,0-1.841.455,5.324,5.324,0,0,0-1.421,1.281v6.44A3.291,3.291,0,0,0,79.4,32.291a3.858,3.858,0,0,0,1.491.287,3.351,3.351,0,0,0,1.421-.294,2.757,2.757,0,0,0,1.078-.9,4.433,4.433,0,0,0,.679-1.519,8.68,8.68,0,0,0,.238-2.163,9.6,9.6,0,0,0-.2-2.135,4.125,4.125,0,0,0-.581-1.421,2.3,2.3,0,0,0-.917-.8A2.86,2.86,0,0,0,81.382,23.1ZM101.752,35H100.2a1.674,1.674,0,0,1-.77-.147.946.946,0,0,1-.42-.6L98.7,33.236a11.86,11.86,0,0,1-1.071.861,6.5,6.5,0,0,1-1.085.623,5.534,5.534,0,0,1-1.19.378,7.159,7.159,0,0,1-1.4.126,5.5,5.5,0,0,1-1.68-.246,3.618,3.618,0,0,1-1.323-.737,3.349,3.349,0,0,1-.861-1.222,4.348,4.348,0,0,1-.308-1.7,3.362,3.362,0,0,1,.427-1.608,4.025,4.025,0,0,1,1.421-1.433,9.071,9.071,0,0,1,2.646-1.061,16.9,16.9,0,0,1,4.1-.421V25.95a3.21,3.21,0,0,0-.609-2.151A2.223,2.223,0,0,0,96,23.1a4.286,4.286,0,0,0-1.4.2,5.416,5.416,0,0,0-.973.441q-.413.245-.763.441a1.549,1.549,0,0,1-.77.2,1,1,0,0,1-.6-.182,1.433,1.433,0,0,1-.406-.448l-.63-1.106a8.541,8.541,0,0,1,5.978-2.268,5.776,5.776,0,0,1,2.247.413,4.777,4.777,0,0,1,1.673,1.148,4.913,4.913,0,0,1,1.043,1.757,6.752,6.752,0,0,1,.357,2.24Zm-6.72-2.156a4.658,4.658,0,0,0,.98-.1,3.752,3.752,0,0,0,.847-.289,4.514,4.514,0,0,0,.77-.475,6.955,6.955,0,0,0,.749-.668v-2.4a14.04,14.04,0,0,0-2.527.19,6.677,6.677,0,0,0-1.631.487,2.1,2.1,0,0,0-.875.691,1.537,1.537,0,0,0-.259.86,1.517,1.517,0,0,0,.539,1.311A2.324,2.324,0,0,0,95.032,32.844Zm18.648-9.408a.923.923,0,0,1-.294.315.762.762,0,0,1-.392.091,1.235,1.235,0,0,1-.539-.14q-.287-.14-.665-.315a6.09,6.09,0,0,0-.861-.315,4.124,4.124,0,0,0-1.141-.14,2.659,2.659,0,0,0-1.61.434,1.346,1.346,0,0,0-.588,1.134,1.082,1.082,0,0,0,.3.777,2.707,2.707,0,0,0,.8.553,7.809,7.809,0,0,0,1.127.427q.63.189,1.288.413t1.288.511a4.491,4.491,0,0,1,1.127.728,3.205,3.205,0,0,1,1.1,2.541,4.767,4.767,0,0,1-.378,1.911,4.2,4.2,0,0,1-1.106,1.512,5.183,5.183,0,0,1-1.8.994,8.373,8.373,0,0,1-3.906.224,8.553,8.553,0,0,1-1.358-.371,7.516,7.516,0,0,1-1.2-.56,5.844,5.844,0,0,1-.973-.7l.8-1.316a1.129,1.129,0,0,1,.364-.364,1.02,1.02,0,0,1,.532-.126,1.118,1.118,0,0,1,.609.182q.287.182.665.392a5.944,5.944,0,0,0,.889.392,3.912,3.912,0,0,0,1.295.182,3.359,3.359,0,0,0,1.057-.147,2.237,2.237,0,0,0,.728-.385,1.445,1.445,0,0,0,.42-.553,1.658,1.658,0,0,0,.133-.651,1.161,1.161,0,0,0-.3-.826,2.635,2.635,0,0,0-.8-.56,7.707,7.707,0,0,0-1.134-.427q-.637-.189-1.3-.413a12.044,12.044,0,0,1-1.3-.525,4.438,4.438,0,0,1-1.134-.763,3.453,3.453,0,0,1-.8-1.134,3.957,3.957,0,0,1-.3-1.624,4.138,4.138,0,0,1,.35-1.68,3.941,3.941,0,0,1,1.029-1.393,5.11,5.11,0,0,1,1.694-.952,7.057,7.057,0,0,1,2.345-.357,7.179,7.179,0,0,1,2.7.49,6.1,6.1,0,0,1,2.03,1.288ZM128.646,35h-1.554a1.674,1.674,0,0,1-.77-.147.946.946,0,0,1-.42-.6l-.308-1.022a11.86,11.86,0,0,1-1.071.861,6.5,6.5,0,0,1-1.085.623,5.534,5.534,0,0,1-1.19.378,7.159,7.159,0,0,1-1.4.126,5.5,5.5,0,0,1-1.68-.246,3.618,3.618,0,0,1-1.323-.737,3.349,3.349,0,0,1-.861-1.222,4.348,4.348,0,0,1-.308-1.7,3.362,3.362,0,0,1,.427-1.608,4.025,4.025,0,0,1,1.421-1.433,9.071,9.071,0,0,1,2.646-1.061,16.9,16.9,0,0,1,4.1-.421V25.95a3.21,3.21,0,0,0-.609-2.151,2.223,2.223,0,0,0-1.771-.7,4.286,4.286,0,0,0-1.4.2,5.416,5.416,0,0,0-.973.441q-.413.245-.763.441a1.549,1.549,0,0,1-.77.2,1,1,0,0,1-.6-.182,1.433,1.433,0,0,1-.406-.448l-.63-1.106a8.541,8.541,0,0,1,5.978-2.268,5.776,5.776,0,0,1,2.247.413,4.777,4.777,0,0,1,1.673,1.148,4.913,4.913,0,0,1,1.043,1.757,6.752,6.752,0,0,1,.357,2.24Zm-6.72-2.156a4.658,4.658,0,0,0,.98-.1,3.752,3.752,0,0,0,.847-.289,4.514,4.514,0,0,0,.77-.475,6.955,6.955,0,0,0,.749-.668v-2.4a14.04,14.04,0,0,0-2.527.19,6.677,6.677,0,0,0-1.631.487,2.1,2.1,0,0,0-.875.691,1.537,1.537,0,0,0-.259.86,1.517,1.517,0,0,0,.539,1.311A2.324,2.324,0,0,0,121.926,32.844ZM132.048,35V20.636h2.114a.85.85,0,0,1,.882.63l.238,1.134a7.877,7.877,0,0,1,.917-.812,6.4,6.4,0,0,1,1.022-.63,5.207,5.207,0,0,1,1.155-.406,6.063,6.063,0,0,1,1.344-.14,5.15,5.15,0,0,1,2.086.4,4.122,4.122,0,0,1,1.519,1.12,4.924,4.924,0,0,1,.924,1.722,7.318,7.318,0,0,1,.315,2.2V35h-3.458V25.858a3.068,3.068,0,0,0-.609-2.037,2.257,2.257,0,0,0-1.827-.721,3.6,3.6,0,0,0-1.68.406,6.021,6.021,0,0,0-1.484,1.106V35ZM156.87,14.2V26.11h.644a1.242,1.242,0,0,0,.546-.1,1.416,1.416,0,0,0,.42-.364l3.57-4.41a2.086,2.086,0,0,1,.5-.441,1.34,1.34,0,0,1,.7-.161h3.164l-4.466,5.334a6.129,6.129,0,0,1-.49.539,3.191,3.191,0,0,1-.546.427,2.581,2.581,0,0,1,.518.49q.224.28.448.6L166.67,35h-3.122a1.523,1.523,0,0,1-.686-.14,1.345,1.345,0,0,1-.5-.476L158.7,28.938a1.114,1.114,0,0,0-.42-.42,1.555,1.555,0,0,0-.63-.1h-.784V35h-3.458V14.2ZM168.812,35V20.636h2.03a1.088,1.088,0,0,1,.742.2,1.127,1.127,0,0,1,.28.672l.21,1.736a6.825,6.825,0,0,1,1.806-2.1,3.8,3.8,0,0,1,2.324-.77,3,3,0,0,1,1.764.49l-.448,2.59a.535.535,0,0,1-.182.357.616.616,0,0,1-.378.1,2.358,2.358,0,0,1-.574-.1,3.842,3.842,0,0,0-.966-.1,2.933,2.933,0,0,0-1.848.6,4.581,4.581,0,0,0-1.3,1.743V35Zm17.57-14.588a7.872,7.872,0,0,1,2.919.518,6.294,6.294,0,0,1,2.233,1.47,6.507,6.507,0,0,1,1.428,2.324,9.62,9.62,0,0,1,0,6.146,6.651,6.651,0,0,1-1.428,2.338,6.2,6.2,0,0,1-2.233,1.484,8.5,8.5,0,0,1-5.845,0,6.259,6.259,0,0,1-2.247-1.484,6.68,6.68,0,0,1-1.442-2.338,9.5,9.5,0,0,1,0-6.146,6.536,6.536,0,0,1,1.442-2.324,6.351,6.351,0,0,1,2.247-1.47A7.927,7.927,0,0,1,186.382,20.412Zm0,12.138a3.041,3.041,0,0,0,2.653-1.2,6.037,6.037,0,0,0,.861-3.528,6.106,6.106,0,0,0-.861-3.542,3.028,3.028,0,0,0-2.653-1.218,3.07,3.07,0,0,0-2.688,1.225,6.073,6.073,0,0,0-.868,3.535,6,6,0,0,0,.868,3.521A3.083,3.083,0,0,0,186.382,32.55ZM196.168,35V20.636h2.114a.85.85,0,0,1,.882.63L199.4,22.4a7.878,7.878,0,0,1,.917-.812,6.4,6.4,0,0,1,1.022-.63,5.207,5.207,0,0,1,1.155-.406,6.063,6.063,0,0,1,1.344-.14,5.15,5.15,0,0,1,2.086.4,4.122,4.122,0,0,1,1.519,1.12,4.923,4.923,0,0,1,.924,1.722,7.318,7.318,0,0,1,.315,2.2V35h-3.458V25.858a3.068,3.068,0,0,0-.609-2.037,2.257,2.257,0,0,0-1.827-.721,3.6,3.6,0,0,0-1.68.406,6.021,6.021,0,0,0-1.484,1.106V35Zm19.6-14.364V35H212.31V20.636Zm.518-4.186a1.97,1.97,0,0,1-.182.84,2.283,2.283,0,0,1-1.19,1.155,2.169,2.169,0,0,1-.868.175,2.086,2.086,0,0,1-.847-.175,2.243,2.243,0,0,1-.693-.469,2.268,2.268,0,0,1-.469-.686,2.037,2.037,0,0,1-.175-.84,2.169,2.169,0,0,1,.175-.868,2.192,2.192,0,0,1,1.162-1.169,2.086,2.086,0,0,1,.847-.175,2.169,2.169,0,0,1,.868.175,2.309,2.309,0,0,1,.707.469,2.258,2.258,0,0,1,.483.7A2.1,2.1,0,0,1,216.286,16.45ZM228.2,23.436a.923.923,0,0,1-.294.315.762.762,0,0,1-.392.091,1.235,1.235,0,0,1-.539-.14q-.287-.14-.665-.315a6.09,6.09,0,0,0-.861-.315,4.124,4.124,0,0,0-1.141-.14,2.659,2.659,0,0,0-1.61.434,1.346,1.346,0,0,0-.588,1.134,1.082,1.082,0,0,0,.3.777,2.707,2.707,0,0,0,.8.553,7.81,7.81,0,0,0,1.127.427q.63.189,1.288.413t1.288.511a4.491,4.491,0,0,1,1.127.728,3.205,3.205,0,0,1,1.1,2.541,4.767,4.767,0,0,1-.378,1.911,4.2,4.2,0,0,1-1.106,1.512,5.183,5.183,0,0,1-1.8.994,8.373,8.373,0,0,1-3.906.224,8.553,8.553,0,0,1-1.358-.371,7.515,7.515,0,0,1-1.2-.56,5.844,5.844,0,0,1-.973-.7l.8-1.316a1.129,1.129,0,0,1,.364-.364,1.02,1.02,0,0,1,.532-.126,1.118,1.118,0,0,1,.609.182q.287.182.665.392a5.944,5.944,0,0,0,.889.392,3.912,3.912,0,0,0,1.295.182,3.359,3.359,0,0,0,1.057-.147,2.236,2.236,0,0,0,.728-.385,1.445,1.445,0,0,0,.42-.553,1.658,1.658,0,0,0,.133-.651,1.161,1.161,0,0,0-.3-.826,2.635,2.635,0,0,0-.8-.56,7.708,7.708,0,0,0-1.134-.427q-.637-.189-1.3-.413a12.044,12.044,0,0,1-1.3-.525,4.438,4.438,0,0,1-1.134-.763,3.453,3.453,0,0,1-.8-1.134,3.957,3.957,0,0,1-.3-1.624,4.138,4.138,0,0,1,.35-1.68,3.94,3.94,0,0,1,1.029-1.393,5.11,5.11,0,0,1,1.694-.952,7.057,7.057,0,0,1,2.345-.357,7.179,7.179,0,0,1,2.7.49,6.1,6.1,0,0,1,2.03,1.288Z" transform="translate(1293.5 5973.5) rotate(-90)" fill="#00c3bb"/><path d="M5.936-7.126V0H2.17V-20.244H8.764a11.553,11.553,0,0,1,3.514.476,6.764,6.764,0,0,1,2.45,1.33,5.209,5.209,0,0,1,1.428,2.044,7.136,7.136,0,0,1,.462,2.6,7.194,7.194,0,0,1-.49,2.7,5.592,5.592,0,0,1-1.47,2.107,6.841,6.841,0,0,1-2.45,1.372,10.909,10.909,0,0,1-3.444.49Zm0-2.94H8.764a5.674,5.674,0,0,0,1.806-.259,3.355,3.355,0,0,0,1.274-.742,3.042,3.042,0,0,0,.756-1.176,4.5,4.5,0,0,0,.252-1.547,4.082,4.082,0,0,0-.252-1.47,2.906,2.906,0,0,0-.756-1.12,3.363,3.363,0,0,0-1.274-.707,5.974,5.974,0,0,0-1.806-.245H5.936Zm18.928-4.522a6.975,6.975,0,0,1,2.5.434,5.472,5.472,0,0,1,1.967,1.267,5.788,5.788,0,0,1,1.288,2.044,7.719,7.719,0,0,1,.462,2.765,5,5,0,0,1-.035.651,1.042,1.042,0,0,1-.126.406.51.51,0,0,1-.245.21,1.044,1.044,0,0,1-.392.063H21.406A4.946,4.946,0,0,0,22.6-3.5,3.709,3.709,0,0,0,25.34-2.464a4.753,4.753,0,0,0,1.449-.2,6.794,6.794,0,0,0,1.064-.434q.455-.238.8-.434a1.339,1.339,0,0,1,.665-.2.749.749,0,0,1,.364.084.8.8,0,0,1,.266.238l1.008,1.26a5.763,5.763,0,0,1-1.288,1.127,7.223,7.223,0,0,1-1.491.728A8.149,8.149,0,0,1,26.593.1,11.327,11.327,0,0,1,25.032.21a7.673,7.673,0,0,1-2.786-.5,6.237,6.237,0,0,1-2.24-1.47,6.9,6.9,0,0,1-1.5-2.408,9.319,9.319,0,0,1-.546-3.325,7.951,7.951,0,0,1,.476-2.765A6.649,6.649,0,0,1,19.8-12.509a6.426,6.426,0,0,1,2.17-1.519A7.148,7.148,0,0,1,24.864-14.588Zm.07,2.478a3.2,3.2,0,0,0-2.366.854,4.213,4.213,0,0,0-1.092,2.422h6.5A4.309,4.309,0,0,0,27.79-10.1a2.923,2.923,0,0,0-.56-1.043,2.65,2.65,0,0,0-.952-.707A3.242,3.242,0,0,0,24.934-12.11ZM33.894,0V-14.364h2.114a.85.85,0,0,1,.882.63l.238,1.134a7.877,7.877,0,0,1,.917-.812,6.4,6.4,0,0,1,1.022-.63,5.207,5.207,0,0,1,1.155-.406,6.063,6.063,0,0,1,1.344-.14,5.15,5.15,0,0,1,2.086.4,4.122,4.122,0,0,1,1.519,1.12,4.923,4.923,0,0,1,.924,1.722,7.318,7.318,0,0,1,.315,2.2V0H42.952V-9.142a3.068,3.068,0,0,0-.609-2.037,2.257,2.257,0,0,0-1.827-.721,3.6,3.6,0,0,0-1.68.406,6.021,6.021,0,0,0-1.484,1.106V0ZM54.4,3.948a1.336,1.336,0,0,1-.4.553,1.22,1.22,0,0,1-.749.189H50.68l2.688-5.754-5.81-13.3h3.024a.949.949,0,0,1,.644.2,1.288,1.288,0,0,1,.336.448l3.066,7.448a6.572,6.572,0,0,1,.266.756q.112.392.2.784.112-.406.245-.784t.287-.77l2.884-7.434a1.019,1.019,0,0,1,.371-.462.987.987,0,0,1,.581-.182H62.23ZM75.5,0H73.948a1.674,1.674,0,0,1-.77-.147.946.946,0,0,1-.42-.6L72.45-1.764A11.86,11.86,0,0,1,71.379-.9a6.5,6.5,0,0,1-1.085.623A5.534,5.534,0,0,1,69.1.1a7.159,7.159,0,0,1-1.4.126,5.5,5.5,0,0,1-1.68-.246A3.618,3.618,0,0,1,64.7-.759a3.349,3.349,0,0,1-.861-1.222,4.348,4.348,0,0,1-.308-1.7,3.362,3.362,0,0,1,.427-1.608A4.025,4.025,0,0,1,65.38-6.722a9.071,9.071,0,0,1,2.646-1.061,16.9,16.9,0,0,1,4.1-.421V-9.05a3.21,3.21,0,0,0-.609-2.151,2.223,2.223,0,0,0-1.771-.7,4.286,4.286,0,0,0-1.4.2,5.416,5.416,0,0,0-.973.441q-.413.245-.763.441a1.549,1.549,0,0,1-.77.2,1,1,0,0,1-.6-.182,1.433,1.433,0,0,1-.406-.448l-.63-1.106a8.541,8.541,0,0,1,5.978-2.268,5.776,5.776,0,0,1,2.247.413A4.777,4.777,0,0,1,74.1-13.069a4.913,4.913,0,0,1,1.043,1.757,6.752,6.752,0,0,1,.357,2.24Zm-6.72-2.156a4.658,4.658,0,0,0,.98-.1,3.752,3.752,0,0,0,.847-.289,4.514,4.514,0,0,0,.77-.475,6.955,6.955,0,0,0,.749-.668v-2.4A14.04,14.04,0,0,0,69.6-5.9a6.677,6.677,0,0,0-1.631.487,2.1,2.1,0,0,0-.875.691,1.537,1.537,0,0,0-.259.86,1.517,1.517,0,0,0,.539,1.311A2.324,2.324,0,0,0,68.782-2.156ZM82.4-20.8V-8.89h.644a1.242,1.242,0,0,0,.546-.1,1.416,1.416,0,0,0,.42-.364l3.57-4.41a2.086,2.086,0,0,1,.5-.441,1.34,1.34,0,0,1,.7-.161h3.164L87.486-9.03a6.128,6.128,0,0,1-.49.539,3.191,3.191,0,0,1-.546.427,2.581,2.581,0,0,1,.518.49q.224.28.448.6L92.2,0H89.082A1.523,1.523,0,0,1,88.4-.14a1.345,1.345,0,0,1-.5-.476L84.238-6.062a1.114,1.114,0,0,0-.42-.42,1.555,1.555,0,0,0-.63-.1H82.4V0H78.946V-20.8Zm15.624,6.44V0H94.57V-14.364Zm.518-4.186a1.97,1.97,0,0,1-.182.84,2.309,2.309,0,0,1-.483.686,2.309,2.309,0,0,1-.707.469,2.169,2.169,0,0,1-.868.175,2.086,2.086,0,0,1-.847-.175,2.244,2.244,0,0,1-.693-.469,2.268,2.268,0,0,1-.469-.686,2.037,2.037,0,0,1-.175-.84,2.169,2.169,0,0,1,.175-.868,2.222,2.222,0,0,1,.469-.7,2.244,2.244,0,0,1,.693-.469,2.086,2.086,0,0,1,.847-.175,2.169,2.169,0,0,1,.868.175,2.309,2.309,0,0,1,.707.469,2.258,2.258,0,0,1,.483.7A2.1,2.1,0,0,1,98.546-18.55ZM106.652.224a3.778,3.778,0,0,1-2.87-1.057,4.057,4.057,0,0,1-1.008-2.919v-8.022h-1.456a.7.7,0,0,1-.483-.182.7.7,0,0,1-.2-.546v-1.372l2.31-.378.728-3.92a.693.693,0,0,1,.259-.434.821.821,0,0,1,.511-.154h1.792v4.522h3.78v2.464h-3.78V-3.99a1.526,1.526,0,0,0,.336,1.05,1.14,1.14,0,0,0,.9.378A1.627,1.627,0,0,0,108-2.639a2.966,2.966,0,0,0,.378-.161q.161-.084.287-.161a.48.48,0,0,1,.252-.077.4.4,0,0,1,.252.077,1.168,1.168,0,0,1,.21.231l1.036,1.68a5.235,5.235,0,0,1-1.736.952A6.462,6.462,0,0,1,106.652.224ZM5.348,14.2V26.11h.644a1.242,1.242,0,0,0,.546-.1,1.416,1.416,0,0,0,.42-.364l3.57-4.41a2.086,2.086,0,0,1,.5-.441,1.34,1.34,0,0,1,.7-.161H14.9L10.43,25.97a6.128,6.128,0,0,1-.49.539,3.191,3.191,0,0,1-.546.427,2.581,2.581,0,0,1,.518.49q.224.28.448.6L15.148,35H12.026a1.523,1.523,0,0,1-.686-.14,1.345,1.345,0,0,1-.5-.476L7.182,28.938a1.114,1.114,0,0,0-.42-.42,1.555,1.555,0,0,0-.63-.1H5.348V35H1.89V14.2ZM28.546,35H26.992a1.674,1.674,0,0,1-.77-.147.946.946,0,0,1-.42-.6l-.308-1.022a11.86,11.86,0,0,1-1.071.861,6.5,6.5,0,0,1-1.085.623,5.534,5.534,0,0,1-1.19.378,7.159,7.159,0,0,1-1.4.126,5.5,5.5,0,0,1-1.68-.246,3.618,3.618,0,0,1-1.323-.737,3.349,3.349,0,0,1-.861-1.222,4.348,4.348,0,0,1-.308-1.7A3.362,3.362,0,0,1,17,29.711a4.025,4.025,0,0,1,1.421-1.433,9.071,9.071,0,0,1,2.646-1.061,16.9,16.9,0,0,1,4.1-.421V25.95a3.21,3.21,0,0,0-.609-2.151,2.223,2.223,0,0,0-1.771-.7,4.286,4.286,0,0,0-1.4.2,5.416,5.416,0,0,0-.973.441q-.413.245-.763.441a1.549,1.549,0,0,1-.77.2,1,1,0,0,1-.6-.182,1.433,1.433,0,0,1-.406-.448l-.63-1.106a8.541,8.541,0,0,1,5.978-2.268,5.776,5.776,0,0,1,2.247.413,4.776,4.776,0,0,1,1.673,1.148,4.913,4.913,0,0,1,1.043,1.757,6.752,6.752,0,0,1,.357,2.24Zm-6.72-2.156a4.658,4.658,0,0,0,.98-.1,3.752,3.752,0,0,0,.847-.289,4.514,4.514,0,0,0,.77-.475,6.954,6.954,0,0,0,.749-.668v-2.4a14.04,14.04,0,0,0-2.527.19,6.677,6.677,0,0,0-1.631.487,2.1,2.1,0,0,0-.875.691,1.537,1.537,0,0,0-.259.86,1.517,1.517,0,0,0,.539,1.311A2.324,2.324,0,0,0,21.826,32.844ZM31.948,35V20.636h2.03a1.088,1.088,0,0,1,.742.2A1.127,1.127,0,0,1,35,21.5l.21,1.736a6.824,6.824,0,0,1,1.806-2.1,3.8,3.8,0,0,1,2.324-.77,3,3,0,0,1,1.764.49l-.448,2.59a.535.535,0,0,1-.182.357.616.616,0,0,1-.378.1,2.358,2.358,0,0,1-.574-.1,3.842,3.842,0,0,0-.966-.1,2.933,2.933,0,0,0-1.848.6,4.581,4.581,0,0,0-1.3,1.743V35Zm21.546,0a.85.85,0,0,1-.882-.63l-.28-1.386a8.586,8.586,0,0,1-.938.91,5.931,5.931,0,0,1-1.057.7,5.508,5.508,0,0,1-1.218.455,5.85,5.85,0,0,1-1.407.161,4.753,4.753,0,0,1-2.156-.49A4.8,4.8,0,0,1,43.869,33.3,6.811,6.811,0,0,1,42.777,31a11.631,11.631,0,0,1-.385-3.136,9.792,9.792,0,0,1,.434-2.968,7.221,7.221,0,0,1,1.246-2.38,5.814,5.814,0,0,1,1.946-1.575,5.618,5.618,0,0,1,2.548-.567,4.985,4.985,0,0,1,2.058.385,5.391,5.391,0,0,1,1.526,1.029V14.2h3.458V35Zm-4.606-2.534a3.537,3.537,0,0,0,1.834-.448,5.447,5.447,0,0,0,1.428-1.274V24.3A3.4,3.4,0,0,0,50.869,23.3,3.778,3.778,0,0,0,49.378,23a3.351,3.351,0,0,0-1.421.294,2.779,2.779,0,0,0-1.078.889A4.354,4.354,0,0,0,46.2,25.7a8.68,8.68,0,0,0-.238,2.163,9.6,9.6,0,0,0,.2,2.135,4.2,4.2,0,0,0,.581,1.428,2.214,2.214,0,0,0,.924.8A2.942,2.942,0,0,0,48.888,32.466Zm14.14-11.83V35H59.57V20.636Zm.518-4.186a1.97,1.97,0,0,1-.182.84,2.283,2.283,0,0,1-1.19,1.155,2.169,2.169,0,0,1-.868.175,2.086,2.086,0,0,1-.847-.175,2.244,2.244,0,0,1-.693-.469,2.268,2.268,0,0,1-.469-.686,2.037,2.037,0,0,1-.175-.84,2.169,2.169,0,0,1,.175-.868,2.192,2.192,0,0,1,1.162-1.169,2.086,2.086,0,0,1,.847-.175,2.169,2.169,0,0,1,.868.175,2.309,2.309,0,0,1,.707.469,2.258,2.258,0,0,1,.483.7A2.1,2.1,0,0,1,63.546,16.45Zm9.52,3.962a7.872,7.872,0,0,1,2.919.518,6.294,6.294,0,0,1,2.233,1.47,6.507,6.507,0,0,1,1.428,2.324,9.62,9.62,0,0,1,0,6.146,6.651,6.651,0,0,1-1.428,2.338,6.2,6.2,0,0,1-2.233,1.484,8.5,8.5,0,0,1-5.845,0,6.259,6.259,0,0,1-2.247-1.484,6.68,6.68,0,0,1-1.442-2.338,9.5,9.5,0,0,1,0-6.146A6.536,6.536,0,0,1,67.893,22.4a6.351,6.351,0,0,1,2.247-1.47A7.927,7.927,0,0,1,73.066,20.412Zm0,12.138a3.041,3.041,0,0,0,2.653-1.2,6.037,6.037,0,0,0,.861-3.528,6.106,6.106,0,0,0-.861-3.542,3.028,3.028,0,0,0-2.653-1.218,3.07,3.07,0,0,0-2.688,1.225,6.073,6.073,0,0,0-.868,3.535,6,6,0,0,0,.868,3.521A3.083,3.083,0,0,0,73.066,32.55ZM89.586,35H86.45L80.738,20.636h2.87a1.08,1.08,0,0,1,.637.182.933.933,0,0,1,.357.462l2.772,7.672q.238.672.4,1.316t.287,1.288q.126-.644.287-1.288a12.133,12.133,0,0,1,.413-1.316L91.6,21.28a.946.946,0,0,1,.35-.462,1,1,0,0,1,.6-.182h2.73Zm19,0H107.03a1.674,1.674,0,0,1-.77-.147.946.946,0,0,1-.42-.6l-.308-1.022a11.86,11.86,0,0,1-1.071.861,6.5,6.5,0,0,1-1.085.623,5.534,5.534,0,0,1-1.19.378,7.159,7.159,0,0,1-1.4.126,5.5,5.5,0,0,1-1.68-.246,3.618,3.618,0,0,1-1.323-.737,3.349,3.349,0,0,1-.861-1.222,4.348,4.348,0,0,1-.308-1.7,3.362,3.362,0,0,1,.427-1.608,4.025,4.025,0,0,1,1.421-1.433,9.071,9.071,0,0,1,2.646-1.061,16.9,16.9,0,0,1,4.1-.421V25.95A3.21,3.21,0,0,0,104.6,23.8a2.223,2.223,0,0,0-1.771-.7,4.286,4.286,0,0,0-1.4.2,5.416,5.416,0,0,0-.973.441q-.413.245-.763.441a1.549,1.549,0,0,1-.77.2,1,1,0,0,1-.6-.182,1.433,1.433,0,0,1-.406-.448l-.63-1.106a8.541,8.541,0,0,1,5.978-2.268,5.776,5.776,0,0,1,2.247.413,4.777,4.777,0,0,1,1.673,1.148,4.913,4.913,0,0,1,1.043,1.757,6.752,6.752,0,0,1,.357,2.24Zm-6.72-2.156a4.658,4.658,0,0,0,.98-.1,3.752,3.752,0,0,0,.847-.289,4.514,4.514,0,0,0,.77-.475,6.955,6.955,0,0,0,.749-.668v-2.4a14.04,14.04,0,0,0-2.527.19,6.677,6.677,0,0,0-1.631.487,2.1,2.1,0,0,0-.875.691,1.537,1.537,0,0,0-.259.86,1.517,1.517,0,0,0,.539,1.311A2.324,2.324,0,0,0,101.864,32.844Zm18.648-9.408a.923.923,0,0,1-.294.315.762.762,0,0,1-.392.091,1.235,1.235,0,0,1-.539-.14q-.287-.14-.665-.315a6.09,6.09,0,0,0-.861-.315,4.124,4.124,0,0,0-1.141-.14,2.659,2.659,0,0,0-1.61.434,1.346,1.346,0,0,0-.588,1.134,1.082,1.082,0,0,0,.3.777,2.707,2.707,0,0,0,.8.553,7.809,7.809,0,0,0,1.127.427q.63.189,1.288.413t1.288.511a4.491,4.491,0,0,1,1.127.728,3.205,3.205,0,0,1,1.1,2.541,4.767,4.767,0,0,1-.378,1.911,4.2,4.2,0,0,1-1.106,1.512,5.183,5.183,0,0,1-1.8.994,8.373,8.373,0,0,1-3.906.224,8.553,8.553,0,0,1-1.358-.371,7.516,7.516,0,0,1-1.2-.56,5.844,5.844,0,0,1-.973-.7l.8-1.316a1.129,1.129,0,0,1,.364-.364,1.02,1.02,0,0,1,.532-.126,1.118,1.118,0,0,1,.609.182q.287.182.665.392a5.944,5.944,0,0,0,.889.392,3.912,3.912,0,0,0,1.295.182,3.359,3.359,0,0,0,1.057-.147,2.237,2.237,0,0,0,.728-.385,1.445,1.445,0,0,0,.42-.553,1.658,1.658,0,0,0,.133-.651,1.161,1.161,0,0,0-.3-.826,2.635,2.635,0,0,0-.8-.56,7.707,7.707,0,0,0-1.134-.427q-.637-.189-1.3-.413a12.044,12.044,0,0,1-1.3-.525,4.438,4.438,0,0,1-1.134-.763,3.453,3.453,0,0,1-.8-1.134,3.957,3.957,0,0,1-.3-1.624,4.138,4.138,0,0,1,.35-1.68,3.941,3.941,0,0,1,1.029-1.393,5.11,5.11,0,0,1,1.694-.952,7.057,7.057,0,0,1,2.345-.357,7.179,7.179,0,0,1,2.7.49,6.1,6.1,0,0,1,2.03,1.288Zm7.21-9.24V26.11h.644a1.242,1.242,0,0,0,.546-.1,1.416,1.416,0,0,0,.42-.364l3.57-4.41a2.086,2.086,0,0,1,.5-.441,1.34,1.34,0,0,1,.7-.161h3.164L132.8,25.97a6.129,6.129,0,0,1-.49.539,3.191,3.191,0,0,1-.546.427,2.581,2.581,0,0,1,.518.49q.224.28.448.6L137.522,35H134.4a1.523,1.523,0,0,1-.686-.14,1.345,1.345,0,0,1-.5-.476l-3.654-5.446a1.114,1.114,0,0,0-.42-.42,1.555,1.555,0,0,0-.63-.1h-.784V35h-3.458V14.2Zm15.106,6.44v9.128a3.068,3.068,0,0,0,.609,2.037,2.257,2.257,0,0,0,1.827.721,3.652,3.652,0,0,0,1.68-.4,5.873,5.873,0,0,0,1.484-1.1V20.636h3.458V35h-2.114a.85.85,0,0,1-.882-.63l-.238-1.148a10.011,10.011,0,0,1-.924.819,5.574,5.574,0,0,1-1.015.63,5.692,5.692,0,0,1-1.162.406,5.811,5.811,0,0,1-1.337.147,5.1,5.1,0,0,1-2.079-.4,4.164,4.164,0,0,1-1.519-1.127,4.935,4.935,0,0,1-.931-1.729,7.318,7.318,0,0,1-.315-2.2V20.636Zm16.436-6.44V35h-3.458V14.2ZM174.426,35h-1.554a1.674,1.674,0,0,1-.77-.147.946.946,0,0,1-.42-.6l-.308-1.022a11.861,11.861,0,0,1-1.071.861,6.5,6.5,0,0,1-1.085.623,5.534,5.534,0,0,1-1.19.378,7.159,7.159,0,0,1-1.4.126,5.5,5.5,0,0,1-1.68-.246,3.618,3.618,0,0,1-1.323-.737,3.349,3.349,0,0,1-.861-1.222,4.348,4.348,0,0,1-.308-1.7,3.362,3.362,0,0,1,.427-1.608,4.025,4.025,0,0,1,1.421-1.433,9.071,9.071,0,0,1,2.646-1.061,16.9,16.9,0,0,1,4.1-.421V25.95a3.21,3.21,0,0,0-.609-2.151,2.223,2.223,0,0,0-1.771-.7,4.286,4.286,0,0,0-1.4.2,5.416,5.416,0,0,0-.973.441q-.413.245-.763.441a1.549,1.549,0,0,1-.77.2,1,1,0,0,1-.6-.182,1.433,1.433,0,0,1-.406-.448l-.63-1.106a8.541,8.541,0,0,1,5.978-2.268,5.776,5.776,0,0,1,2.247.413,4.776,4.776,0,0,1,1.673,1.148,4.913,4.913,0,0,1,1.043,1.757,6.751,6.751,0,0,1,.357,2.24Zm-6.72-2.156a4.658,4.658,0,0,0,.98-.1,3.753,3.753,0,0,0,.847-.289,4.514,4.514,0,0,0,.77-.475,6.954,6.954,0,0,0,.749-.668v-2.4a14.04,14.04,0,0,0-2.527.19,6.677,6.677,0,0,0-1.631.487,2.1,2.1,0,0,0-.875.691,1.537,1.537,0,0,0-.259.86,1.517,1.517,0,0,0,.539,1.311A2.324,2.324,0,0,0,167.706,32.844ZM177.828,35V20.636h2.03a1.088,1.088,0,0,1,.742.2,1.127,1.127,0,0,1,.28.672l.21,1.736a6.825,6.825,0,0,1,1.806-2.1,3.8,3.8,0,0,1,2.324-.77,3,3,0,0,1,1.764.49l-.448,2.59a.535.535,0,0,1-.182.357.616.616,0,0,1-.378.1,2.358,2.358,0,0,1-.574-.1,3.842,3.842,0,0,0-.966-.1,2.933,2.933,0,0,0-1.848.6,4.581,4.581,0,0,0-1.3,1.743V35Z" transform="translate(1053.5 5841.5) rotate(-90)" fill="#00c3bb"/><path d="M19.124,0H15.33V-8.848H5.838V0H2.044V-20.244H5.838v8.708H15.33v-8.708h3.794ZM26.7-14.364V0H23.24V-14.364Zm.518-4.186a1.97,1.97,0,0,1-.182.84,2.309,2.309,0,0,1-.483.686,2.309,2.309,0,0,1-.707.469,2.169,2.169,0,0,1-.868.175,2.086,2.086,0,0,1-.847-.175,2.244,2.244,0,0,1-.693-.469,2.268,2.268,0,0,1-.469-.686,2.037,2.037,0,0,1-.175-.84,2.169,2.169,0,0,1,.175-.868,2.222,2.222,0,0,1,.469-.7,2.244,2.244,0,0,1,.693-.469,2.086,2.086,0,0,1,.847-.175,2.169,2.169,0,0,1,.868.175,2.309,2.309,0,0,1,.707.469,2.258,2.258,0,0,1,.483.7A2.1,2.1,0,0,1,27.216-18.55ZM30.6,4.69V-14.364h2.114a1.034,1.034,0,0,1,.574.154.72.72,0,0,1,.308.476l.28,1.33a7.25,7.25,0,0,1,1.995-1.61,5.418,5.418,0,0,1,2.639-.616,4.709,4.709,0,0,1,2.149.49,4.823,4.823,0,0,1,1.68,1.421,6.816,6.816,0,0,1,1.092,2.3,11.553,11.553,0,0,1,.385,3.129,9.84,9.84,0,0,1-.434,2.982,7.3,7.3,0,0,1-1.239,2.38A5.724,5.724,0,0,1,40.2-.357,5.662,5.662,0,0,1,37.646.21a5.138,5.138,0,0,1-2.065-.371A5.055,5.055,0,0,1,34.062-1.19V4.69Zm6.72-16.59a3.532,3.532,0,0,0-1.841.455,5.324,5.324,0,0,0-1.421,1.281v6.44a3.291,3.291,0,0,0,1.281,1.015,3.858,3.858,0,0,0,1.491.287,3.351,3.351,0,0,0,1.421-.294,2.757,2.757,0,0,0,1.078-.9,4.433,4.433,0,0,0,.679-1.519,8.68,8.68,0,0,0,.238-2.163,9.6,9.6,0,0,0-.2-2.135,4.125,4.125,0,0,0-.581-1.421,2.3,2.3,0,0,0-.917-.8A2.86,2.86,0,0,0,37.324-11.9Zm15.05-2.688a6.975,6.975,0,0,1,2.5.434,5.472,5.472,0,0,1,1.967,1.267,5.788,5.788,0,0,1,1.288,2.044,7.719,7.719,0,0,1,.462,2.765,5,5,0,0,1-.035.651,1.042,1.042,0,0,1-.126.406.51.51,0,0,1-.245.21,1.044,1.044,0,0,1-.392.063H48.916A4.946,4.946,0,0,0,50.106-3.5,3.709,3.709,0,0,0,52.85-2.464a4.753,4.753,0,0,0,1.449-.2,6.794,6.794,0,0,0,1.064-.434q.455-.238.8-.434a1.339,1.339,0,0,1,.665-.2.749.749,0,0,1,.364.084.8.8,0,0,1,.266.238l1.008,1.26a5.763,5.763,0,0,1-1.288,1.127,7.224,7.224,0,0,1-1.491.728A8.149,8.149,0,0,1,54.1.1,11.327,11.327,0,0,1,52.542.21a7.673,7.673,0,0,1-2.786-.5,6.237,6.237,0,0,1-2.24-1.47,6.9,6.9,0,0,1-1.5-2.408,9.319,9.319,0,0,1-.546-3.325,7.951,7.951,0,0,1,.476-2.765,6.649,6.649,0,0,1,1.365-2.254,6.426,6.426,0,0,1,2.17-1.519A7.148,7.148,0,0,1,52.374-14.588Zm.07,2.478a3.2,3.2,0,0,0-2.366.854,4.213,4.213,0,0,0-1.092,2.422h6.5A4.309,4.309,0,0,0,55.3-10.1a2.923,2.923,0,0,0-.56-1.043,2.65,2.65,0,0,0-.952-.707A3.242,3.242,0,0,0,52.444-12.11ZM61.4,0V-14.364h2.03a1.088,1.088,0,0,1,.742.2,1.127,1.127,0,0,1,.28.672l.21,1.736a6.824,6.824,0,0,1,1.806-2.1,3.8,3.8,0,0,1,2.324-.77,3,3,0,0,1,1.764.49l-.448,2.59a.535.535,0,0,1-.182.357.616.616,0,0,1-.378.1,2.358,2.358,0,0,1-.574-.1,3.842,3.842,0,0,0-.966-.1,2.933,2.933,0,0,0-1.848.6,4.581,4.581,0,0,0-1.3,1.743V0ZM77.56.224A3.778,3.778,0,0,1,74.69-.833a4.057,4.057,0,0,1-1.008-2.919v-8.022H72.226a.7.7,0,0,1-.483-.182.7.7,0,0,1-.2-.546v-1.372l2.31-.378.728-3.92a.693.693,0,0,1,.259-.434.821.821,0,0,1,.511-.154H77.14v4.522h3.78v2.464H77.14V-3.99a1.526,1.526,0,0,0,.336,1.05,1.14,1.14,0,0,0,.9.378,1.627,1.627,0,0,0,.539-.077,2.966,2.966,0,0,0,.378-.161q.161-.084.287-.161a.48.48,0,0,1,.252-.077.4.4,0,0,1,.252.077,1.168,1.168,0,0,1,.21.231l1.036,1.68A5.235,5.235,0,0,1,79.59-.1,6.462,6.462,0,0,1,77.56.224ZM89.614-14.588a6.975,6.975,0,0,1,2.5.434,5.472,5.472,0,0,1,1.967,1.267,5.788,5.788,0,0,1,1.288,2.044,7.719,7.719,0,0,1,.462,2.765,5,5,0,0,1-.035.651,1.042,1.042,0,0,1-.126.406.51.51,0,0,1-.245.21,1.044,1.044,0,0,1-.392.063H86.156A4.946,4.946,0,0,0,87.346-3.5,3.709,3.709,0,0,0,90.09-2.464a4.753,4.753,0,0,0,1.449-.2A6.8,6.8,0,0,0,92.6-3.094q.455-.238.8-.434a1.339,1.339,0,0,1,.665-.2.749.749,0,0,1,.364.084A.8.8,0,0,1,94.7-3.4L95.7-2.142a5.763,5.763,0,0,1-1.288,1.127,7.223,7.223,0,0,1-1.491.728A8.149,8.149,0,0,1,91.343.1,11.327,11.327,0,0,1,89.782.21,7.673,7.673,0,0,1,87-.287a6.237,6.237,0,0,1-2.24-1.47,6.9,6.9,0,0,1-1.5-2.408,9.319,9.319,0,0,1-.546-3.325,7.951,7.951,0,0,1,.476-2.765,6.649,6.649,0,0,1,1.365-2.254,6.426,6.426,0,0,1,2.17-1.519A7.148,7.148,0,0,1,89.614-14.588Zm.07,2.478a3.2,3.2,0,0,0-2.366.854,4.213,4.213,0,0,0-1.092,2.422h6.5A4.309,4.309,0,0,0,92.54-10.1a2.922,2.922,0,0,0-.56-1.043,2.65,2.65,0,0,0-.952-.707A3.242,3.242,0,0,0,89.684-12.11ZM98.644,0V-14.364h2.114a.85.85,0,0,1,.882.63l.238,1.134a7.877,7.877,0,0,1,.917-.812,6.4,6.4,0,0,1,1.022-.63,5.207,5.207,0,0,1,1.155-.406,6.063,6.063,0,0,1,1.344-.14,5.15,5.15,0,0,1,2.086.4,4.122,4.122,0,0,1,1.519,1.12,4.923,4.923,0,0,1,.924,1.722,7.318,7.318,0,0,1,.315,2.2V0H107.7V-9.142a3.068,3.068,0,0,0-.609-2.037,2.257,2.257,0,0,0-1.827-.721,3.6,3.6,0,0,0-1.68.406,6.021,6.021,0,0,0-1.484,1.106V0Zm24.444-11.564a.923.923,0,0,1-.294.315.762.762,0,0,1-.392.091,1.235,1.235,0,0,1-.539-.14q-.287-.14-.665-.315a6.091,6.091,0,0,0-.861-.315,4.124,4.124,0,0,0-1.141-.14,2.659,2.659,0,0,0-1.61.434A1.346,1.346,0,0,0,117-10.5a1.082,1.082,0,0,0,.3.777,2.707,2.707,0,0,0,.8.553,7.809,7.809,0,0,0,1.127.427q.63.189,1.288.413t1.288.511a4.491,4.491,0,0,1,1.127.728,3.382,3.382,0,0,1,.8,1.057,3.353,3.353,0,0,1,.3,1.484,4.767,4.767,0,0,1-.378,1.911,4.2,4.2,0,0,1-1.106,1.512,5.183,5.183,0,0,1-1.8.994,7.762,7.762,0,0,1-2.457.357,7.821,7.821,0,0,1-1.449-.133,8.552,8.552,0,0,1-1.358-.371,7.515,7.515,0,0,1-1.2-.56,5.844,5.844,0,0,1-.973-.7l.8-1.316a1.129,1.129,0,0,1,.364-.364A1.02,1.02,0,0,1,115-3.346a1.118,1.118,0,0,1,.609.182q.287.182.665.392a5.944,5.944,0,0,0,.889.392,3.912,3.912,0,0,0,1.295.182,3.36,3.36,0,0,0,1.057-.147,2.237,2.237,0,0,0,.728-.385,1.445,1.445,0,0,0,.42-.553,1.658,1.658,0,0,0,.133-.651,1.161,1.161,0,0,0-.3-.826,2.635,2.635,0,0,0-.8-.56,7.707,7.707,0,0,0-1.134-.427q-.637-.189-1.3-.413a12.044,12.044,0,0,1-1.3-.525,4.438,4.438,0,0,1-1.134-.763,3.453,3.453,0,0,1-.8-1.134,3.957,3.957,0,0,1-.3-1.624,4.138,4.138,0,0,1,.35-1.68,3.941,3.941,0,0,1,1.029-1.393,5.11,5.11,0,0,1,1.694-.952,7.057,7.057,0,0,1,2.345-.357,7.179,7.179,0,0,1,2.7.49,6.1,6.1,0,0,1,2.03,1.288Zm7.392-2.8V0h-3.458V-14.364ZM131-18.55a1.97,1.97,0,0,1-.182.84,2.309,2.309,0,0,1-.483.686,2.309,2.309,0,0,1-.707.469,2.169,2.169,0,0,1-.868.175,2.086,2.086,0,0,1-.847-.175,2.244,2.244,0,0,1-.693-.469,2.268,2.268,0,0,1-.469-.686,2.037,2.037,0,0,1-.175-.84,2.169,2.169,0,0,1,.175-.868,2.222,2.222,0,0,1,.469-.7,2.244,2.244,0,0,1,.693-.469,2.086,2.086,0,0,1,.847-.175,2.169,2.169,0,0,1,.868.175,2.309,2.309,0,0,1,.707.469,2.258,2.258,0,0,1,.483.7A2.1,2.1,0,0,1,131-18.55Z" transform="translate(1430.5 5991.5) rotate(-90)" fill="#00c3bb"/><path d="M20.02-10.122a10.947,10.947,0,0,1-.742,4.088,9.39,9.39,0,0,1-2.086,3.206A9.333,9.333,0,0,1,13.958-.742,11.364,11.364,0,0,1,9.772,0H2.044V-20.244H9.772a11.269,11.269,0,0,1,4.186.749,9.468,9.468,0,0,1,3.234,2.086,9.316,9.316,0,0,1,2.086,3.2A10.947,10.947,0,0,1,20.02-10.122Zm-3.85,0a9.291,9.291,0,0,0-.448-2.989,6.333,6.333,0,0,0-1.274-2.24,5.493,5.493,0,0,0-2.009-1.407,6.912,6.912,0,0,0-2.667-.49H5.838V-3H9.772a6.912,6.912,0,0,0,2.667-.49,5.493,5.493,0,0,0,2.009-1.407,6.333,6.333,0,0,0,1.274-2.24A9.291,9.291,0,0,0,16.17-10.122Zm10.29-4.242V0H23V-14.364Zm.518-4.186a1.97,1.97,0,0,1-.182.84,2.309,2.309,0,0,1-.483.686,2.309,2.309,0,0,1-.707.469,2.169,2.169,0,0,1-.868.175,2.086,2.086,0,0,1-.847-.175,2.244,2.244,0,0,1-.693-.469,2.268,2.268,0,0,1-.469-.686,2.037,2.037,0,0,1-.175-.84,2.169,2.169,0,0,1,.175-.868,2.222,2.222,0,0,1,.469-.7,2.244,2.244,0,0,1,.693-.469,2.086,2.086,0,0,1,.847-.175,2.169,2.169,0,0,1,.868.175,2.309,2.309,0,0,1,.707.469,2.258,2.258,0,0,1,.483.7A2.1,2.1,0,0,1,26.978-18.55ZM41.622,0H40.068a1.674,1.674,0,0,1-.77-.147.946.946,0,0,1-.42-.6L38.57-1.764A11.86,11.86,0,0,1,37.5-.9a6.5,6.5,0,0,1-1.085.623A5.534,5.534,0,0,1,35.224.1a7.159,7.159,0,0,1-1.4.126,5.5,5.5,0,0,1-1.68-.246,3.618,3.618,0,0,1-1.323-.737,3.349,3.349,0,0,1-.861-1.222,4.348,4.348,0,0,1-.308-1.7,3.362,3.362,0,0,1,.427-1.608A4.025,4.025,0,0,1,31.5-6.722a9.071,9.071,0,0,1,2.646-1.061,16.9,16.9,0,0,1,4.1-.421V-9.05a3.21,3.21,0,0,0-.609-2.151,2.223,2.223,0,0,0-1.771-.7,4.286,4.286,0,0,0-1.4.2,5.416,5.416,0,0,0-.973.441q-.413.245-.763.441a1.549,1.549,0,0,1-.77.2,1,1,0,0,1-.6-.182,1.433,1.433,0,0,1-.406-.448l-.63-1.106A8.541,8.541,0,0,1,36.3-14.63a5.776,5.776,0,0,1,2.247.413,4.776,4.776,0,0,1,1.673,1.148,4.913,4.913,0,0,1,1.043,1.757,6.752,6.752,0,0,1,.357,2.24ZM34.9-2.156a4.658,4.658,0,0,0,.98-.1,3.752,3.752,0,0,0,.847-.289,4.514,4.514,0,0,0,.77-.475,6.954,6.954,0,0,0,.749-.668v-2.4a14.041,14.041,0,0,0-2.527.19,6.677,6.677,0,0,0-1.631.487,2.1,2.1,0,0,0-.875.691,1.537,1.537,0,0,0-.259.86A1.517,1.517,0,0,0,33.5-2.551,2.324,2.324,0,0,0,34.9-2.156ZM45.066,0V-20.8h3.458v8.2a6.816,6.816,0,0,1,1.932-1.449,5.568,5.568,0,0,1,2.52-.539,4.766,4.766,0,0,1,2.149.483,4.78,4.78,0,0,1,1.68,1.407A6.741,6.741,0,0,1,57.9-10.416a11.476,11.476,0,0,1,.385,3.122,9.84,9.84,0,0,1-.434,2.982,7.3,7.3,0,0,1-1.239,2.38A5.724,5.724,0,0,1,54.663-.357,5.662,5.662,0,0,1,52.108.21,5.087,5.087,0,0,1,50.9.077a4.257,4.257,0,0,1-.994-.371,4.237,4.237,0,0,1-.833-.581,7.146,7.146,0,0,1-.735-.763l-.154.966a.868.868,0,0,1-.287.518A.894.894,0,0,1,47.348,0Zm6.72-11.9a3.532,3.532,0,0,0-1.841.455,5.324,5.324,0,0,0-1.421,1.281v6.44a3.291,3.291,0,0,0,1.281,1.015,3.9,3.9,0,0,0,1.505.287,3.3,3.3,0,0,0,1.414-.294,2.771,2.771,0,0,0,1.071-.9,4.433,4.433,0,0,0,.679-1.519,8.679,8.679,0,0,0,.238-2.163,9.6,9.6,0,0,0-.2-2.135,4.125,4.125,0,0,0-.581-1.421,2.3,2.3,0,0,0-.917-.8A2.86,2.86,0,0,0,51.786-11.9ZM66.92-14.588a6.975,6.975,0,0,1,2.5.434,5.472,5.472,0,0,1,1.967,1.267,5.788,5.788,0,0,1,1.288,2.044,7.719,7.719,0,0,1,.462,2.765,5,5,0,0,1-.035.651,1.042,1.042,0,0,1-.126.406.51.51,0,0,1-.245.21,1.044,1.044,0,0,1-.392.063H63.462A4.946,4.946,0,0,0,64.652-3.5,3.709,3.709,0,0,0,67.4-2.464a4.753,4.753,0,0,0,1.449-.2,6.8,6.8,0,0,0,1.064-.434q.455-.238.8-.434a1.339,1.339,0,0,1,.665-.2.749.749,0,0,1,.364.084A.8.8,0,0,1,72-3.4l1.008,1.26a5.763,5.763,0,0,1-1.288,1.127,7.223,7.223,0,0,1-1.491.728A8.149,8.149,0,0,1,68.649.1,11.327,11.327,0,0,1,67.088.21a7.673,7.673,0,0,1-2.786-.5,6.237,6.237,0,0,1-2.24-1.47,6.9,6.9,0,0,1-1.5-2.408,9.319,9.319,0,0,1-.546-3.325,7.951,7.951,0,0,1,.476-2.765,6.649,6.649,0,0,1,1.365-2.254,6.426,6.426,0,0,1,2.17-1.519A7.148,7.148,0,0,1,66.92-14.588Zm.07,2.478a3.2,3.2,0,0,0-2.366.854,4.213,4.213,0,0,0-1.092,2.422h6.5a4.309,4.309,0,0,0-.182-1.267,2.922,2.922,0,0,0-.56-1.043,2.65,2.65,0,0,0-.952-.707A3.242,3.242,0,0,0,66.99-12.11ZM80.668.224A3.778,3.778,0,0,1,77.8-.833,4.057,4.057,0,0,1,76.79-3.752v-8.022H75.334a.7.7,0,0,1-.483-.182.7.7,0,0,1-.2-.546v-1.372l2.31-.378.728-3.92a.693.693,0,0,1,.259-.434.821.821,0,0,1,.511-.154h1.792v4.522h3.78v2.464h-3.78V-3.99a1.526,1.526,0,0,0,.336,1.05,1.14,1.14,0,0,0,.9.378,1.627,1.627,0,0,0,.539-.077A2.966,2.966,0,0,0,82.4-2.8q.161-.084.287-.161a.48.48,0,0,1,.252-.077.4.4,0,0,1,.252.077,1.168,1.168,0,0,1,.21.231l1.036,1.68A5.235,5.235,0,0,1,82.7-.1,6.462,6.462,0,0,1,80.668.224ZM92.722-14.588a6.975,6.975,0,0,1,2.5.434,5.472,5.472,0,0,1,1.967,1.267,5.788,5.788,0,0,1,1.288,2.044,7.719,7.719,0,0,1,.462,2.765,5,5,0,0,1-.035.651,1.042,1.042,0,0,1-.126.406.51.51,0,0,1-.245.21,1.044,1.044,0,0,1-.392.063H89.264A4.946,4.946,0,0,0,90.454-3.5,3.709,3.709,0,0,0,93.2-2.464a4.753,4.753,0,0,0,1.449-.2,6.8,6.8,0,0,0,1.064-.434q.455-.238.8-.434a1.339,1.339,0,0,1,.665-.2.749.749,0,0,1,.364.084A.8.8,0,0,1,97.8-3.4l1.008,1.26a5.763,5.763,0,0,1-1.288,1.127,7.223,7.223,0,0,1-1.491.728A8.149,8.149,0,0,1,94.451.1,11.327,11.327,0,0,1,92.89.21a7.673,7.673,0,0,1-2.786-.5,6.237,6.237,0,0,1-2.24-1.47,6.9,6.9,0,0,1-1.5-2.408A9.319,9.319,0,0,1,85.82-7.49a7.951,7.951,0,0,1,.476-2.765,6.649,6.649,0,0,1,1.365-2.254,6.426,6.426,0,0,1,2.17-1.519A7.148,7.148,0,0,1,92.722-14.588Zm.07,2.478a3.2,3.2,0,0,0-2.366.854,4.213,4.213,0,0,0-1.092,2.422h6.5a4.309,4.309,0,0,0-.182-1.267,2.922,2.922,0,0,0-.56-1.043,2.65,2.65,0,0,0-.952-.707A3.242,3.242,0,0,0,92.792-12.11Zm17.486.546a.923.923,0,0,1-.294.315.762.762,0,0,1-.392.091,1.235,1.235,0,0,1-.539-.14q-.287-.14-.665-.315a6.091,6.091,0,0,0-.861-.315,4.124,4.124,0,0,0-1.141-.14,2.659,2.659,0,0,0-1.61.434,1.346,1.346,0,0,0-.588,1.134,1.082,1.082,0,0,0,.3.777,2.707,2.707,0,0,0,.8.553,7.809,7.809,0,0,0,1.127.427q.63.189,1.288.413t1.288.511a4.491,4.491,0,0,1,1.127.728,3.382,3.382,0,0,1,.8,1.057,3.353,3.353,0,0,1,.3,1.484,4.767,4.767,0,0,1-.378,1.911,4.2,4.2,0,0,1-1.106,1.512,5.183,5.183,0,0,1-1.8.994,7.762,7.762,0,0,1-2.457.357,7.821,7.821,0,0,1-1.449-.133,8.552,8.552,0,0,1-1.358-.371,7.515,7.515,0,0,1-1.2-.56,5.844,5.844,0,0,1-.973-.7l.8-1.316a1.129,1.129,0,0,1,.364-.364,1.02,1.02,0,0,1,.532-.126,1.118,1.118,0,0,1,.609.182q.287.182.665.392a5.944,5.944,0,0,0,.889.392,3.912,3.912,0,0,0,1.295.182,3.36,3.36,0,0,0,1.057-.147,2.237,2.237,0,0,0,.728-.385,1.445,1.445,0,0,0,.42-.553,1.658,1.658,0,0,0,.133-.651,1.161,1.161,0,0,0-.3-.826,2.635,2.635,0,0,0-.8-.56,7.707,7.707,0,0,0-1.134-.427q-.637-.189-1.3-.413a12.044,12.044,0,0,1-1.3-.525,4.438,4.438,0,0,1-1.134-.763,3.453,3.453,0,0,1-.8-1.134,3.957,3.957,0,0,1-.3-1.624,4.138,4.138,0,0,1,.35-1.68,3.941,3.941,0,0,1,1.029-1.393,5.11,5.11,0,0,1,1.694-.952,7.057,7.057,0,0,1,2.345-.357,7.179,7.179,0,0,1,2.7.49,6.1,6.1,0,0,1,2.03,1.288Z" transform="translate(1190.5 5914.5) rotate(-90)" fill="#00c3bb"/><path d="M5.936-11.76h.882a2.29,2.29,0,0,0,.882-.147,1.493,1.493,0,0,0,.6-.469l5.586-7.07a2.027,2.027,0,0,1,.735-.623,2.357,2.357,0,0,1,.973-.175h3.248L12.026-11.83a6.17,6.17,0,0,1-.616.658,2.812,2.812,0,0,1-.63.434,2.782,2.782,0,0,1,.833.476,4.4,4.4,0,0,1,.721.784L19.362,0H16.03a2.068,2.068,0,0,1-1-.189,1.568,1.568,0,0,1-.553-.553L8.75-8.218a1.7,1.7,0,0,0-.63-.525A2.446,2.446,0,0,0,7.126-8.9H5.936V0H2.17V-20.258H5.936ZM32.648,0H31.094a1.674,1.674,0,0,1-.77-.147.946.946,0,0,1-.42-.6L29.6-1.764A11.86,11.86,0,0,1,28.525-.9,6.5,6.5,0,0,1,27.44-.28,5.534,5.534,0,0,1,26.25.1a7.159,7.159,0,0,1-1.4.126,5.5,5.5,0,0,1-1.68-.246,3.618,3.618,0,0,1-1.323-.737,3.349,3.349,0,0,1-.861-1.222,4.348,4.348,0,0,1-.308-1.7,3.362,3.362,0,0,1,.427-1.608,4.025,4.025,0,0,1,1.421-1.433,9.071,9.071,0,0,1,2.646-1.061,16.9,16.9,0,0,1,4.1-.421V-9.05a3.21,3.21,0,0,0-.609-2.151,2.223,2.223,0,0,0-1.771-.7,4.286,4.286,0,0,0-1.4.2,5.416,5.416,0,0,0-.973.441q-.413.245-.763.441a1.549,1.549,0,0,1-.77.2,1,1,0,0,1-.6-.182,1.433,1.433,0,0,1-.406-.448l-.63-1.106a8.541,8.541,0,0,1,5.978-2.268,5.776,5.776,0,0,1,2.247.413,4.777,4.777,0,0,1,1.673,1.148,4.913,4.913,0,0,1,1.043,1.757,6.752,6.752,0,0,1,.357,2.24Zm-6.72-2.156a4.658,4.658,0,0,0,.98-.1,3.752,3.752,0,0,0,.847-.289,4.514,4.514,0,0,0,.77-.475,6.954,6.954,0,0,0,.749-.668v-2.4a14.041,14.041,0,0,0-2.527.19,6.677,6.677,0,0,0-1.631.487,2.1,2.1,0,0,0-.875.691,1.537,1.537,0,0,0-.259.86,1.517,1.517,0,0,0,.539,1.311A2.324,2.324,0,0,0,25.928-2.156ZM36.05,0V-14.364h2.114a.85.85,0,0,1,.882.63l.238,1.134a7.877,7.877,0,0,1,.917-.812,6.4,6.4,0,0,1,1.022-.63,5.207,5.207,0,0,1,1.155-.406,6.063,6.063,0,0,1,1.344-.14,5.15,5.15,0,0,1,2.086.4,4.122,4.122,0,0,1,1.519,1.12,4.923,4.923,0,0,1,.924,1.722,7.318,7.318,0,0,1,.315,2.2V0H45.108V-9.142a3.068,3.068,0,0,0-.609-2.037,2.257,2.257,0,0,0-1.827-.721,3.6,3.6,0,0,0-1.68.406,6.021,6.021,0,0,0-1.484,1.106V0ZM55.468-20.8V-8.89h.644a1.242,1.242,0,0,0,.546-.1,1.416,1.416,0,0,0,.42-.364l3.57-4.41a2.086,2.086,0,0,1,.5-.441,1.34,1.34,0,0,1,.7-.161h3.164L60.55-9.03a6.128,6.128,0,0,1-.49.539,3.191,3.191,0,0,1-.546.427,2.581,2.581,0,0,1,.518.49q.224.28.448.6L65.268,0H62.146a1.523,1.523,0,0,1-.686-.14,1.345,1.345,0,0,1-.5-.476L57.3-6.062a1.114,1.114,0,0,0-.42-.42,1.555,1.555,0,0,0-.63-.1h-.784V0H52.01V-20.8Zm17.038,6.216a6.975,6.975,0,0,1,2.5.434,5.472,5.472,0,0,1,1.967,1.267,5.788,5.788,0,0,1,1.288,2.044,7.719,7.719,0,0,1,.462,2.765,5,5,0,0,1-.035.651,1.042,1.042,0,0,1-.126.406.51.51,0,0,1-.245.21,1.044,1.044,0,0,1-.392.063H69.048A4.946,4.946,0,0,0,70.238-3.5a3.709,3.709,0,0,0,2.744,1.036,4.753,4.753,0,0,0,1.449-.2A6.8,6.8,0,0,0,75.5-3.094q.455-.238.8-.434a1.339,1.339,0,0,1,.665-.2.749.749,0,0,1,.364.084.8.8,0,0,1,.266.238L78.6-2.142a5.763,5.763,0,0,1-1.288,1.127,7.223,7.223,0,0,1-1.491.728A8.149,8.149,0,0,1,74.235.1,11.327,11.327,0,0,1,72.674.21a7.673,7.673,0,0,1-2.786-.5,6.237,6.237,0,0,1-2.24-1.47,6.9,6.9,0,0,1-1.5-2.408A9.319,9.319,0,0,1,65.6-7.49a7.951,7.951,0,0,1,.476-2.765,6.649,6.649,0,0,1,1.365-2.254,6.426,6.426,0,0,1,2.17-1.519A7.148,7.148,0,0,1,72.506-14.588Zm.07,2.478a3.2,3.2,0,0,0-2.366.854,4.213,4.213,0,0,0-1.092,2.422h6.5a4.309,4.309,0,0,0-.182-1.267,2.922,2.922,0,0,0-.56-1.043,2.65,2.65,0,0,0-.952-.707A3.242,3.242,0,0,0,72.576-12.11ZM81.536,0V-14.364h2.03a1.088,1.088,0,0,1,.742.2,1.127,1.127,0,0,1,.28.672l.21,1.736a6.824,6.824,0,0,1,1.806-2.1,3.8,3.8,0,0,1,2.324-.77,3,3,0,0,1,1.764.49l-.448,2.59a.535.535,0,0,1-.182.357.616.616,0,0,1-.378.1,2.358,2.358,0,0,1-.574-.1,3.842,3.842,0,0,0-.966-.1,2.933,2.933,0,0,0-1.848.6,4.581,4.581,0,0,0-1.3,1.743V0Z" transform="translate(1551.5 6014.5) rotate(-90)" fill="#00c3bb"/></g></svg>