<svg xmlns="http://www.w3.org/2000/svg" viewBox="0 0 427.395 427.292"><defs><style>.a{fill:#bf71f9;}.b{fill:#00c3bb;}</style></defs><g transform="translate(0 -0.062)"><g transform="translate(0 0.062)"><path class="a" d="M448.144,339.135,408.2,331.147c-.066-7.664.155-8.065-.21-9.516a47.183,47.183,0,0,0,17.873-24.264c1.71-18.538,19.356-48.527-4.468-77.878-35.7-43.98-103.3-6.928-92.224,45.766,6.094,28.256,6.336,44.286,25.694,56.964-.167,1.051-.057,1.051-.089,8.925l-39.938,7.988A33.479,33.479,0,0,0,288,371.876v81.889c0,8.828,13.356,8.842,13.356,0V433.732H321.39v20.034c0,8.828,13.356,8.842,13.356,0V396.724c0-8.829-13.356-8.843-13.356,0v23.651H301.356v-48.5a20.087,20.087,0,0,1,16.106-19.644l24.18-4.837a39.9,39.9,0,0,0,55.2,32.843,39.3,39.3,0,0,0,24.515-32.84l24.168,4.834a20.088,20.088,0,0,1,16.1,19.644v48.5H441.6V396.724c0-8.829-13.356-8.843-13.356,0v57.041c0,8.828,13.356,8.842,13.356,0V433.732h20.034v20.034c0,8.828,13.356,8.842,13.356,0V371.876a33.48,33.48,0,0,0-26.842-32.742ZM411.03,227.909a42.865,42.865,0,0,1,9.155,20.971c-15.827-8.533-25.321.928-38.692.928-13.588,0-23.649-9.844-39.651-.391C346.63,215.1,388.392,200.018,411.03,227.909Zm-61.982,66.011-5.918-27.338a15.66,15.66,0,0,1,18.59-7.075c15.117,4.842,24.413,4.842,39.547,0a15.725,15.725,0,0,1,17.859,5.883l-6.177,28.529C403.1,324.068,358.9,324.1,349.047,293.919Zm13.561,68.265a26.034,26.034,0,0,1-7.789-17.425l7.949-1.586c7.768-1.553,4.758-11.081,5.368-14.96a48.461,48.461,0,0,0,26.712-.29c.642,4.18-2.432,13.69,5.368,15.25l7.948,1.586C407.043,367.472,379.007,378.583,362.608,362.185Z" transform="translate(-47.59 -33.101)"/><path class="a" d="M137.549,355.086l-37.379-8.306v-6.418c26.866-15.026,18.532-43.569,20.034-61.683A6.678,6.678,0,0,0,113.527,272H46.746a6.678,6.678,0,0,0-6.678,6.678c1.493,18.016-6.806,46.671,20.034,61.683v6.418l-37.379,8.306A28.847,28.847,0,0,0,0,383.414v82.249c0,8.828,13.356,8.842,13.356,0v-33.39H26.712v33.39c0,8.828,13.356,8.842,13.356,0V408.622c0-8.829-13.356-8.843-13.356,0v10.3H13.356v-35.5a15.571,15.571,0,0,1,12.265-15.29l21.125-4.694c.349.423-3.89,19.4,30.661,34.87a6.678,6.678,0,0,0,5.458,0c34.046-15.242,30.429-34.588,30.661-34.87l21.125,4.694a15.571,15.571,0,0,1,12.265,15.29v35.5H133.561v-10.3c0-8.829-13.356-8.843-13.356,0v57.041c0,8.828,13.356,8.842,13.356,0v-33.39h13.356v33.39c0,8.828,13.356,8.842,13.356,0V383.414a28.847,28.847,0,0,0-22.724-28.328Zm-84.125-49.7V285.356h53.424V305.39C106.849,341.038,53.424,340.974,53.424,305.39Zm26.712,79.4C54.307,371.5,61.176,362.368,60.1,360.461c3.564-1.386,13.356-.584,13.356-8.325v-7.2a43.016,43.016,0,0,0,13.356,0v7.2c0,7.763,9.651,6.884,13.356,8.325C100.171,360.461,106.021,371.476,80.136,384.79Z" transform="translate(0 -44.998)"/><path class="a" d="M34.712,326.883c8.828,0,8.842-13.356,0-13.356a13.372,13.372,0,0,1-13.356-13.356V273.458a60.1,60.1,0,1,1,120.2,0v26.712A13.372,13.372,0,0,1,128.2,313.527c-8.828,0-8.842,13.356,0,13.356a26.742,26.742,0,0,0,26.712-26.712V273.458A73.458,73.458,0,0,0,8,273.458v26.712a26.742,26.742,0,0,0,26.712,26.712Z" transform="translate(-1.322 -33.1)"/><path class="b" d="M261.356,6.688c0-8.829-13.356-8.842-13.356,0S261.356,15.53,261.356,6.688Z" transform="translate(-40.98 -0.062)"/><path class="b" d="M254.687,237.356c8.829,0,8.842-13.356,0-13.356S245.846,237.356,254.687,237.356Z" transform="translate(-40.99 -37.066)"/><path class="a" d="M208,302.687c0,8.829,13.356,8.842,13.356,0S208,293.846,208,302.687Z" transform="translate(-34.371 -48.973)"/><path class="b" d="M166.688,160c-8.829,0-8.842,13.356,0,13.356S175.53,160,166.688,160Z" transform="translate(-26.449 -26.491)"/><path class="b" d="M342.687,69.356c8.829,0,8.842-13.356,0-13.356S333.846,69.356,342.687,69.356Z" transform="translate(-55.531 -9.305)"/><path class="b" d="M246.688,120c-8.829,0-8.842,13.356,0,13.356S255.53,120,246.688,120Z" transform="translate(-39.669 -19.881)"/><path class="b" d="M253.356,94.678a6.678,6.678,0,1,0-13.356,0C240,103.507,253.356,103.52,253.356,94.678Z" transform="translate(-39.658 -14.593)"/><path class="b" d="M277.356,118.688c0-8.829-13.356-8.842-13.356,0S277.356,127.53,277.356,118.688Z" transform="translate(-43.624 -18.569)"/><path class="b" d="M166.688,45.356c8.829,0,8.842-13.356,0-13.356S157.846,45.356,166.688,45.356Z" transform="translate(-26.449 -5.339)"/><path class="b" d="M233.469,169.583c0,8.828,13.356,8.842,13.356,0v-27.2a46.274,46.274,0,0,0,8.195-1.955l26.659,33.326c5.515,6.893,15.952-1.439,10.429-8.348l-24.941-31.176a47.051,47.051,0,0,0,5.356-4.438c25.614,12.539,24.938,13.076,27.721,13.076,7.036,0,9.258-9.516,2.992-12.652l-22.366-11.186a46.389,46.389,0,0,0,5.539-16.23h27.2c8.83,0,8.841-13.356,0-13.356h-27.2a46.3,46.3,0,0,0-1.9-8.035l12.051-6.026c7.9-3.949,1.933-15.9-5.974-11.945l-12.066,6.033a47.114,47.114,0,0,0-4.471-5.484l25.079-37.618c4.9-7.346-6.21-14.767-11.112-7.408L263.537,55.677a46.381,46.381,0,0,0-16.713-5.814V36.022c0-8.828-13.356-8.842-13.356,0V49.863q-1.9.273-3.746.7L212.61,19.448c-4.257-7.737-15.965-1.311-11.7,6.436l16.258,29.56a46.868,46.868,0,0,0-5.056,3.3c-1.252-1.685-.882-.892-21.679-14.925-7.346-4.9-14.766,6.208-7.408,11.112L202.762,68.1a46.868,46.868,0,0,0-4.09,6.5l-8.963-4.481c-7.9-3.947-13.882,7.992-5.974,11.945l10.509,5.254q-.2,1.057-.359,2.129h-27.2c-8.828,0-8.842,13.356,0,13.356h27.2a46.333,46.333,0,0,0,3.218,11.551L182.96,124c-7.346,5.009.3,15.963,7.525,11.035l13.56-9.246a47.154,47.154,0,0,0,7.156,7l-16.769,26.549c-4.713,7.464,6.571,14.608,11.293,7.132L222.754,139.5a46.321,46.321,0,0,0,10.715,2.883ZM206.757,96.124a33.39,33.39,0,1,1,33.39,33.39A33.39,33.39,0,0,1,206.757,96.124Z" transform="translate(-26.449 -2.683)"/><path class="a" d="M304.883,303.363a6.686,6.686,0,0,0-.048-9.391L284.8,273.938c-6.243-6.241-15.7,3.191-9.444,9.444l8.634,8.634h-37.3c-8.828,0-8.842,13.356,0,13.356h37.3l-8.634,8.634a6.686,6.686,0,0,0,4.722,11.4c3.343,0,3.245.036,24.8-22.043Z" transform="translate(-39.669 -44.98)"/></g></g></svg>