<svg xmlns="http://www.w3.org/2000/svg" width="85.714" height="84.319" viewBox="0 0 85.714 84.319"><defs><style>.a{fill:#c688fa;}</style></defs><g transform="translate(0.005 -4.066)"><path class="a" d="M105.912,42.653a8.379,8.379,0,0,0-2.957-5.845,7.663,7.663,0,0,0-5.723-1.777,8.2,8.2,0,0,0-6.546,4.8l-2.57.227-2.537-.711a.637.637,0,0,1-.425-.418,23.805,23.805,0,0,0-3.13-6.16l.9-2.414,2.833-3.064a5.761,5.761,0,0,0,4.185-2,5.855,5.855,0,0,0-.184-7.819,5.756,5.756,0,0,0-4.257-1.8,5.837,5.837,0,0,0-4.223,1.867,5.779,5.779,0,0,0-1.54,4.192L76.9,24.786l-2.374,1.1a23.818,23.818,0,0,0-11.676-3.249L61.3,20.162l-.547-2.721a7.382,7.382,0,0,0,2.618-7.283,8.143,8.143,0,0,0-14.6-2.55A7.268,7.268,0,0,0,47.7,13.19a7.679,7.679,0,0,0,4.96,5.584l.6,3.006-.481,2.93a23.835,23.835,0,0,0-6.023,3.872l-1.78-.317-2.011-1.517a5.816,5.816,0,1,0-4.612,6.791L40.04,34.81l.756,1.547a.252.252,0,0,1,0,.216,23.635,23.635,0,0,0-2.172,9.945c0,.641.027,1.293.079,1.938a.266.266,0,0,1-.105.243l-2.846,2.027-3.248,1.022a7.615,7.615,0,0,0-7.058-1.207c-.049.016-.1.033-.144.051l-.04.015a1.287,1.287,0,0,0,.872,2.421l.06-.022.061-.022a5.046,5.046,0,0,1,5.069,1.138,1.287,1.287,0,0,0,1.273.295l4.123-1.3a1.288,1.288,0,0,0,.361-.179l3.011-2.146a2.855,2.855,0,0,0,1.177-2.548c-.047-.575-.071-1.157-.071-1.729a21.079,21.079,0,0,1,1.937-8.87,2.816,2.816,0,0,0-.028-2.421L42.217,33.4a1.286,1.286,0,0,0-.381-.462l-2.422-1.828a1.286,1.286,0,0,0-1.167-.2,3.249,3.249,0,0,1-2.945-.5,3.242,3.242,0,0,1-.5-4.7,3.275,3.275,0,0,1,4.257-.581,3.234,3.234,0,0,1,1.429,2.427,1.286,1.286,0,0,0,.507.92L43.674,30.5a1.286,1.286,0,0,0,.549.24l2.7.482a1.286,1.286,0,0,0,1.1-.324,21.292,21.292,0,0,1,6.4-4.1,1.287,1.287,0,0,0,.78-.981l.633-3.857a1.289,1.289,0,0,0-.008-.462l-.8-3.983a1.286,1.286,0,0,0-.94-.992,5.183,5.183,0,0,1-3.876-3.874,4.715,4.715,0,0,1,.7-3.62A5.573,5.573,0,0,1,60.853,10.7a4.877,4.877,0,0,1-2.223,5.112,1.287,1.287,0,0,0-.563,1.335l.756,3.757a1.289,1.289,0,0,0,.171.43l1.859,2.965a1.94,1.94,0,0,0,1.655.914h0a21.237,21.237,0,0,1,10.977,3.053,1.94,1.94,0,0,0,1.821.1l2.909-1.35a1.288,1.288,0,0,0,.4-.294l3.4-3.674a1.286,1.286,0,0,0,.327-1.07,3.241,3.241,0,0,1,5.552-2.732A3.261,3.261,0,0,1,88,23.6a3.22,3.22,0,0,1-2.7,1.11,1.286,1.286,0,0,0-1.041.41l-3.4,3.674a1.284,1.284,0,0,0-.261.425l-1.1,2.97a1.937,1.937,0,0,0,.253,1.819,21.249,21.249,0,0,1,2.968,5.74,3.208,3.208,0,0,0,2.171,2.076l2.763.774a1.287,1.287,0,0,0,.46.043l3.588-.317a1.287,1.287,0,0,0,1.1-.86,5.673,5.673,0,0,1,4.69-3.871,5.11,5.11,0,0,1,3.814,1.19,5.826,5.826,0,0,1,2.043,4.07,6.269,6.269,0,0,1-.562,3.121,1.287,1.287,0,1,0,2.333,1.086,8.859,8.859,0,0,0,.794-4.405Z" transform="translate(-20.228 0)"/><path class="a" d="M79.207,248.488a5.219,5.219,0,0,1-1.108.236,5.272,5.272,0,0,1-5.3-3.142,1.287,1.287,0,0,0-1.279-.737l-3.368.3a1.286,1.286,0,0,0-.446.123l-2.543,1.227a3.206,3.206,0,0,0-1.778,2.455,21.156,21.156,0,0,1-1.208,4.669,3.2,3.2,0,0,0,.188,2.717l.906,1.619a1.285,1.285,0,0,0,.406.44l2.52,1.691a1.287,1.287,0,0,0,1.177.133,3.249,3.249,0,0,1,2.968.333,3.242,3.242,0,0,1,.764,4.668,3.274,3.274,0,0,1-4.218.815,3.235,3.235,0,0,1-1.562-2.344,1.286,1.286,0,0,0-.558-.89l-2.791-1.873a1.285,1.285,0,0,0-.562-.209l-1.757-.214a3.306,3.306,0,0,0-2.687.9,21.42,21.42,0,0,1-4.7,3.394,3.307,3.307,0,0,0-1.726,2.7l-.223,3.559a1.285,1.285,0,0,0,.037.395l1.1,4.383a1.287,1.287,0,0,0,.9.925,4.354,4.354,0,0,1,3.045,3.12,4.34,4.34,0,0,1-3.269,5.3,4.339,4.339,0,0,1-3.976-7.337,1.287,1.287,0,0,0,.346-1.233l-1.111-4.41a1.286,1.286,0,0,0-.155-.365l-1.713-2.756a3.785,3.785,0,0,0-3.249-1.784h0a21.381,21.381,0,0,1-4.141-.4,3.778,3.778,0,0,0-3.5,1.1l-2.265,2.39a1.291,1.291,0,0,0-.225.326l-2.536,5.261a1.287,1.287,0,0,0,0,1.127,3.241,3.241,0,0,1-4.5,4.255,3.278,3.278,0,0,1-1.405-4.043,3.215,3.215,0,0,1,2.271-1.935,1.287,1.287,0,0,0,.868-.695l2.552-5.294a1.284,1.284,0,0,0,.115-.379l.5-3.554a3.19,3.19,0,0,0-1.137-2.91,21.414,21.414,0,0,1-4.84-5.547,3.194,3.194,0,0,0-2.687-1.52l-3.548-.034a1.275,1.275,0,0,0-.4.059l-3.885,1.222a1.287,1.287,0,0,0-.893,1.084,5.047,5.047,0,0,1-9.813,1.008,4.979,4.979,0,0,1,.032-3.191,1.287,1.287,0,1,0-2.434-.838,7.534,7.534,0,0,0-.045,4.828,7.654,7.654,0,0,0,7.262,5.251A7.549,7.549,0,0,0,9.9,264.51a7.631,7.631,0,0,0,5.143-5.574l2.942-.925,3.344.032a.6.6,0,0,1,.51.281,23.98,23.98,0,0,0,5.42,6.212.6.6,0,0,1,.209.553L27,268.444l-2.217,4.6a5.814,5.814,0,0,0-.925,10.546,5.767,5.767,0,0,0,4.6.484,5.838,5.838,0,0,0,3.5-3.023,5.775,5.775,0,0,0,.234-4.491l2.2-4.557,2.127-2.245a1.217,1.217,0,0,1,1.129-.349,24,24,0,0,0,4.655.453h0a1.222,1.222,0,0,1,1.05.569l1.607,2.585.894,3.546a6.882,6.882,0,0,0-1.216,6.525,6.974,6.974,0,0,0,6.6,4.759,6.768,6.768,0,0,0,1.471-.162,6.913,6.913,0,0,0,5.2-8.438,6.934,6.934,0,0,0-4.116-4.72l-.885-3.513.21-3.359a.717.717,0,0,1,.369-.588,24,24,0,0,0,5.26-3.8.743.743,0,0,1,.6-.207l1.451.176,2.092,1.4a5.816,5.816,0,1,0,4.229-7.036l-1.753-1.176-.755-1.35a.631.631,0,0,1-.032-.536,23.734,23.734,0,0,0,1.355-5.238.639.639,0,0,1,.347-.493l2.331-1.124,2.288-.2a7.743,7.743,0,0,0,9.115,3.45,1.287,1.287,0,0,0-.8-2.445Z" transform="translate(0 -199.463)"/><path class="a" d="M163.583,146.954a18.025,18.025,0,1,0,5.49,2.307,1.287,1.287,0,1,0-1.377,2.175,15.38,15.38,0,1,1-4.7-1.976,1.287,1.287,0,1,0,.588-2.505Z" transform="translate(-117.169 -117.977)"/><path class="a" d="M53.146,23.264a6.052,6.052,0,1,0-6.052-6.051,6.058,6.058,0,0,0,6.052,6.051Zm0-9.529a3.478,3.478,0,1,1-3.478,3.478,3.482,3.482,0,0,1,3.478-3.478Z" transform="translate(-39.018 -5.878)"/><path class="a" d="M53.364,386.653a4.434,4.434,0,1,0,4.434,4.434A4.439,4.439,0,0,0,53.364,386.653Zm0,6.295a1.86,1.86,0,1,1,1.86-1.861A1.863,1.863,0,0,1,53.364,392.948Z" transform="translate(-40.539 -316.945)"/><path class="a" d="M382.967,408.111a5.922,5.922,0,1,0,5.922,5.922A5.929,5.929,0,0,0,382.967,408.111Zm0,9.271a3.349,3.349,0,1,1,3.349-3.349A3.353,3.353,0,0,1,382.967,417.382Z" transform="translate(-312.358 -334.722)"/><path class="a" d="M195.042,197.521a5.609,5.609,0,1,0-5.609,5.609A5.615,5.615,0,0,0,195.042,197.521Zm-5.609,3.035a3.035,3.035,0,1,1,3.035-3.035A3.038,3.038,0,0,1,189.434,200.556Z" transform="translate(-152.289 -155.617)"/><path class="a" d="M216.318,286.65a4.228,4.228,0,1,0-4.228-4.228A4.233,4.233,0,0,0,216.318,286.65Zm0-5.883a1.655,1.655,0,1,1-1.655,1.655A1.657,1.657,0,0,1,216.318,280.767Z" transform="translate(-175.705 -227.094)"/><path class="a" d="M268.673,233.354a3.757,3.757,0,1,0,3.757-3.757A3.761,3.761,0,0,0,268.673,233.354Zm3.757-1.184a1.183,1.183,0,1,1-1.183,1.183A1.185,1.185,0,0,1,272.43,232.17Z" transform="translate(-222.579 -186.836)"/></g></svg>