<svg xmlns="http://www.w3.org/2000/svg" width="127.926" height="111.566" viewBox="0 0 127.926 111.566"><defs><style>.a{fill:#bf71f9;}.b,.c{fill:#00c3bb;}.c{stroke:#00c3bb;}</style></defs><g transform="translate(-531 -9064.5)"><g transform="translate(531 9065)"><g transform="translate(26.231 30.951)"><path class="a" d="M204.3,172.232l-13.626-15.725a10.35,10.35,0,0,0-7.9-3.887,8.161,8.161,0,0,0-3.039-2.743,8.143,8.143,0,0,0-7.985-6.633,8.131,8.131,0,0,0-4.189,1.168,8.108,8.108,0,0,0-13.005,5.018,8.082,8.082,0,0,0-4.124,3.241,10.7,10.7,0,0,0-6.882,3.836L129.92,172.232c-2.227,2.452-4.456,5.411-4.157,8.779.257,2.9,2.224,5.313,5.1,8.051l16.069,15.307.043,13.511a2.169,2.169,0,0,0,2.169,2.162H185.1a2.169,2.169,0,0,0,2.169-2.166l.022-13.509,16.068-15.305c2.874-2.737,4.84-5.154,5.1-8.051C208.755,177.641,206.525,174.683,204.3,172.232Zm-47.457-18.9a2.169,2.169,0,0,0,1.94-2.3,3.775,3.775,0,0,1,3.766-4.022,3.788,3.788,0,0,1,3.069,1.576,2.17,2.17,0,0,0,3.356.205,3.769,3.769,0,0,1,5.468-.08,3.674,3.674,0,0,1,1.08,2.641,2.169,2.169,0,0,0,1.559,2.107,3.775,3.775,0,1,1-3.67,6.354,2.169,2.169,0,0,0-3,0,3.776,3.776,0,0,1-5.963-1,2.169,2.169,0,0,0-3.854,0,3.775,3.775,0,1,1-3.756-5.483Zm-3.34,16.2c.008-.037.014-.075.021-.113a13.7,13.7,0,0,1,1.784-4.451,8.121,8.121,0,0,0,7.219-1.716,8.129,8.129,0,0,0,9.388.839,8.117,8.117,0,0,0,6.945.6,13.941,13.941,0,1,1-25.628,7.632A14.118,14.118,0,0,1,153.5,169.532Zm31.73,5.6,4.31,4.974-12.767,10.439c-2.905,0-5.827.005-8.75.006a18.278,18.278,0,0,0,17.207-15.419Zm-18.952,15.419c-2.951,0-5.9,0-8.835-.006L144.677,180.1l4.415-5.095a18.288,18.288,0,0,0,17.187,15.54Zm37.855-9.921c-.116,1.3-1.243,2.887-3.769,5.293l-16.739,15.945a2.169,2.169,0,0,0-.673,1.567l-.02,12.27H151.3l-.039-12.274a2.168,2.168,0,0,0-.673-1.564L133.853,185.92c-2.526-2.406-3.653-3.989-3.769-5.293-.119-1.34.826-3.035,3.064-5.5l.035-.039,13.642-15.744a7.571,7.571,0,0,1,2.312-1.847,8.089,8.089,0,0,0,2.383,5.336,17.974,17.974,0,0,0-2.135,5.206l-9.449,10.9a2.169,2.169,0,0,0,.266,3.1l15.093,12.341a2.17,2.17,0,0,0,1.37.49c3.465,0,6.954.007,10.443.007s6.979,0,10.443-.007a2.17,2.17,0,0,0,1.37-.49l15.093-12.341a2.169,2.169,0,0,0,.266-3.1l-9.288-10.718a18.312,18.312,0,0,0-2.628-6.1,8.072,8.072,0,0,0,1.763-5,6.927,6.927,0,0,1,3.265,2.219l13.643,15.744.035.039C203.308,177.591,204.253,179.286,204.134,180.627Z" transform="translate(-125.736 -142.678)"/></g><g transform="translate(0 0)"><path class="a" d="M48.13,10.454A14.1,14.1,0,0,0,38.26,6.4a13.8,13.8,0,0,0-2.421.217A16.322,16.322,0,0,0,18.084.659,17.726,17.726,0,0,0,8.651,7.33,21.806,21.806,0,0,0,4.815,20.463l0,88.434a2.169,2.169,0,0,0,2.169,2.169H25.588a2.169,2.169,0,0,0,2.169-2.169V59.991a2.169,2.169,0,0,0-2.169-2.169H19.314c.007-5.828.041-11.717.073-17.433.037-6.464.075-13.147.075-19.773.175-2.774,1.238-4.712,2.78-5.062a2.817,2.817,0,0,1,2.763,1.155,14.5,14.5,0,0,0-.477,3.634,14.684,14.684,0,0,0,3.882,10.02,2.17,2.17,0,0,0,1.561.7h.037a2.169,2.169,0,0,0,1.546-.648L48.162,13.53a2.17,2.17,0,0,0-.033-3.075ZM23.419,62.16v44.567H17.467V98.373a2.169,2.169,0,1,0-4.339,0v8.354H9.151V62.16Zm3.444-49.613a6.872,6.872,0,0,0-5.579-1.226c-2.756.625-5.821,3.345-6.155,9.1,0,.042,0,.084,0,.126,0,6.636-.038,13.335-.075,19.814-.033,5.723-.066,11.62-.073,17.458H9.151l0-37.371c0-.008,0-.017,0-.025C9.046,11.1,14.313,6.252,19.278,4.83a11.857,11.857,0,0,1,12.24,3.349,13.691,13.691,0,0,0-2.971,2.289A13.95,13.95,0,0,0,26.863,12.548ZM30.246,25.56A10.159,10.159,0,0,1,31.64,13.51a9.216,9.216,0,0,1,6.62-2.773,9.658,9.658,0,0,1,5.117,1.471Z" transform="translate(-4.812 0)"/></g><g transform="translate(32.69 28.149)"><path class="b" d="M160.614,131.556l-1.544-1.288a2.169,2.169,0,1,0-2.779,3.331l1.544,1.288a2.169,2.169,0,0,0,2.78-3.331Z" transform="translate(-155.511 -129.765)"/></g><g transform="translate(40.081 25.091)"><path class="b" d="M194.685,117.459l-1.543-1.288a2.169,2.169,0,1,0-2.78,3.331l1.543,1.288a2.169,2.169,0,1,0,2.78-3.331Z" transform="translate(-189.582 -115.667)"/></g><g transform="translate(42.759 17.938)"><path class="b" d="M207.744,85.081,205.485,83.2a2.169,2.169,0,0,0-2.78,3.331l2.259,1.885a2.169,2.169,0,0,0,2.78-3.331Z" transform="translate(-201.926 -82.692)"/></g><g transform="translate(8.316 89.715)"><path class="b" d="M45.316,413.572a2.169,2.169,0,0,0-2.169,2.169v.079a2.169,2.169,0,0,0,4.339,0v-.079A2.169,2.169,0,0,0,45.316,413.572Z" transform="translate(-43.147 -413.572)"/></g></g><g transform="translate(638.017 9065)"><path class="c" d="M10.628,0A6.5,6.5,0,0,0,4.136,6.492V37.585a10.2,10.2,0,1,0,16.692,7.856,10.107,10.107,0,0,0-3.709-7.856V6.492A6.5,6.5,0,0,0,10.628,0Zm8.346,45.441A8.346,8.346,0,1,1,5.62,38.775a.928.928,0,0,0,.371-.742V35.239H7.846V33.385H5.991V30.6H7.846V28.748H5.991V25.966H7.846V24.111H5.991V21.329H7.846V19.475H5.991V16.692H7.846V14.838H5.991V12.056H7.846V10.2H5.991V6.492a4.637,4.637,0,1,1,9.274,0V38.035a.927.927,0,0,0,.371.742,8.283,8.283,0,0,1,3.338,6.664Zm0,0" transform="translate(-0.419)"/><path class="c" d="M64.232,119.816V87.266H62.378v32.55a4.637,4.637,0,1,0,1.855,0Zm-.927,7.326a2.782,2.782,0,1,1,2.782-2.782A2.782,2.782,0,0,1,63.305,127.142Zm0,0" transform="translate(-53.097 -78.92)"/></g></g></svg>