<svg xmlns="http://www.w3.org/2000/svg" width="46.173" height="44.134" viewBox="0 0 46.173 44.134"><defs><style>.a{fill:#f38500;stroke:#f38500;}</style></defs><path class="a" d="M44.967,16.792a3.188,3.188,0,0,0-2.79-1.981l-11.669-1.7L25.289,2.542A3.188,3.188,0,0,0,22.543.5,3.189,3.189,0,0,0,19.8,2.542L14.579,13.116l-11.67,1.7a3.188,3.188,0,0,0-2.79,1.981,3.188,3.188,0,0,0,1.093,3.242l8.444,8.231L7.663,39.888a3.358,3.358,0,0,0,.589,2.863,2.526,2.526,0,0,0,1.972.883,4.068,4.068,0,0,0,1.883-.518l10.437-5.487,10.438,5.487a4.073,4.073,0,0,0,1.882.518h0a2.526,2.526,0,0,0,1.972-.884,3.357,3.357,0,0,0,.589-2.863L35.431,28.266l8.444-8.23a3.188,3.188,0,0,0,1.093-3.243Zm-2.937,1.351L33.09,26.859a1.321,1.321,0,0,0-.38,1.169l2.11,12.307a1.616,1.616,0,0,1,.011.656,1.628,1.628,0,0,1-.621-.213L23.158,34.968a1.321,1.321,0,0,0-1.229,0l-11.052,5.81a1.632,1.632,0,0,1-.621.213,1.622,1.622,0,0,1,.011-.656l2.111-12.307A1.321,1.321,0,0,0,12,26.859L3.056,18.143a1.628,1.628,0,0,1-.395-.525,1.626,1.626,0,0,1,.627-.193l12.357-1.8a1.321,1.321,0,0,0,.994-.723l5.525-11.2a1.626,1.626,0,0,1,.377-.537,1.627,1.627,0,0,1,.377.537l5.526,11.2a1.322,1.322,0,0,0,.995.723l12.356,1.8a1.623,1.623,0,0,1,.627.193,1.628,1.628,0,0,1-.394.525Zm0,0" transform="translate(0.518 0)"/></svg>