<svg xmlns="http://www.w3.org/2000/svg" width="35.963" height="43.961" viewBox="0 0 35.963 43.961"><defs><style>.a{fill:#f38500;}</style></defs><g transform="translate(-46.577)"><g transform="translate(46.577)"><path class="a" d="M82.511,24.963,82.316,21.5,80.2,24.249a5.809,5.809,0,0,1-.984.959,13.707,13.707,0,0,0,.449-2.036,14.447,14.447,0,0,0-3.053-10.878l-1.339-1.788L74.4,12.56c-1.012,2.37-2.65,3.559-4.173,3.029-1.172-.408-2.125-1.749-2.613-3.68-.456-1.8-.721-4.971.607-9.842L68.78,0,66.69.471c-7.051,1.588-11.8,6.6-13.74,14.479A35.059,35.059,0,0,0,52,23.528a14.056,14.056,0,0,1-2.52-2.56L47.9,18.637l-.723,2.73A17.991,17.991,0,0,0,64.337,43.958l.222,0,.222,0A18,18,0,0,0,82.54,25.98C82.54,25.651,82.53,25.308,82.511,24.963ZM64.559,41.383a6.038,6.038,0,0,1-6.032-6.032c0-5.8,2.745-8.4,4.884-9.549a6.816,6.816,0,0,0,.423,3.909,4.218,4.218,0,0,0,3.231,2.715,3.314,3.314,0,0,0,2.342-.662,6.031,6.031,0,0,1-4.848,9.619Zm7.615-2.019a8.6,8.6,0,0,0-1.865-10.421l-1.057-.949-.842,1.144c-.214.291-.637.774-1.058.726-.333-.037-.82-.418-1.155-1.185a4.3,4.3,0,0,1,.567-4.259L68.549,22l-2.982.374a11.181,11.181,0,0,0-4.859,2.11c-3.933,2.956-4.759,7.54-4.759,10.866a8.555,8.555,0,0,0,.995,4.014A15.413,15.413,0,0,1,49.155,25.98q0-.733.069-1.46a20.037,20.037,0,0,0,3.548,2.673l2.24,1.328-.3-2.587A33,33,0,0,1,55.47,15.5c1.521-6.121,4.792-10.12,9.737-11.917a20.555,20.555,0,0,0-.1,8.959c.705,2.786,2.26,4.785,4.265,5.482a4.915,4.915,0,0,0,4.231-.508,7.135,7.135,0,0,0,2.061-1.966A11.339,11.339,0,0,1,77.129,22.7a10.3,10.3,0,0,1-1.262,3.837l-1.1,1.692,2,.288a4.9,4.9,0,0,0,3.084-.643A15.435,15.435,0,0,1,72.174,39.365Z" transform="translate(-46.577)"/></g></g></svg>