<svg xmlns="http://www.w3.org/2000/svg" width="134.092" height="139.188" viewBox="0 0 134.092 139.188"><defs><style>.a,.b{fill:#f38500;}.b{stroke:#f38500;}</style></defs><g transform="translate(-0.5 -0.5)"><path class="a" d="M32,38a4,4,0,0,0,4-4V32H28v2A4,4,0,0,0,32,38Zm2-4a2,2,0,0,1-4,0Z" transform="translate(35.546 42.452)"/><path class="b" d="M22,13.3l5.418-4.515A4.408,4.408,0,0,0,24.586,1h-.172A4.383,4.383,0,0,0,22,1.717,4.383,4.383,0,0,0,19.586,1h-.172a4.405,4.405,0,0,0-2.832,7.787ZM17.707,3.708A2.4,2.4,0,0,1,19.414,3h.172a2.4,2.4,0,0,1,1.707.708L22,4.414l.707-.706A2.4,2.4,0,0,1,24.414,3h.172a2.405,2.405,0,0,1,1.551,4.251L22,10.7,17.863,7.251a2.4,2.4,0,0,1-.156-3.543Z" transform="translate(20.735)"/><path class="b" d="M8,23.3l5.418-4.515A4.408,4.408,0,0,0,10.586,11h-.172A4.383,4.383,0,0,0,8,11.717,4.383,4.383,0,0,0,5.586,11H5.414a4.405,4.405,0,0,0-2.832,7.787ZM3.707,13.708A2.4,2.4,0,0,1,5.414,13h.172a2.4,2.4,0,0,1,1.707.708L8,14.414l.707-.706A2.4,2.4,0,0,1,10.414,13h.172a2.405,2.405,0,0,1,1.551,4.251L8,20.7,3.863,17.251a2.4,2.4,0,0,1-.156-3.543Z" transform="translate(0 15.431)"/><path class="b" d="M42,13.3l5.418-4.515A4.408,4.408,0,0,0,44.586,1h-.172A4.383,4.383,0,0,0,42,1.717,4.383,4.383,0,0,0,39.586,1h-.172a4.405,4.405,0,0,0-2.832,7.787ZM37.707,3.708A2.4,2.4,0,0,1,39.414,3h.172a2.4,2.4,0,0,1,1.707.708L42,4.414l.707-.706A2.4,2.4,0,0,1,44.414,3h.172a2.405,2.405,0,0,1,1.551,4.251L42,10.7,37.863,7.251a2.4,2.4,0,0,1-.156-3.543Z" transform="translate(50.357)"/><path class="b" d="M50.582,18.787,56,23.3l5.418-4.515A4.408,4.408,0,0,0,58.586,11h-.172A4.383,4.383,0,0,0,56,11.717,4.383,4.383,0,0,0,53.586,11h-.172a4.405,4.405,0,0,0-2.832,7.787Zm1.125-5.079A2.4,2.4,0,0,1,53.414,13h.172a2.4,2.4,0,0,1,1.707.708l.707.706.707-.706A2.4,2.4,0,0,1,58.414,13h.172a2.405,2.405,0,0,1,1.551,4.251L56,20.7l-4.137-3.447a2.4,2.4,0,0,1-.156-3.543Z" transform="translate(71.092 15.431)"/><path class="a" d="M127.227,49.911h-2.98l-2-2.393a7.191,7.191,0,0,0-5.53-2.737c-3.37,0-6.352,2.568-7.419,6.39l-.68,2.439-29.7,33.125-1.76-4.209a21.869,21.869,0,0,0,7.837-12.092h1.874c4.735,0,8.587-4.6,8.587-10.26A11.472,11.472,0,0,0,93.61,53.9l1.153-5.5a33.065,33.065,0,0,0,.689-6.715C95.452,26.42,85.058,14,72.281,14H62.81C50.034,14,39.64,26.42,39.64,41.687a32.934,32.934,0,0,0,.691,6.715l1.151,5.492a11.487,11.487,0,0,0-1.842,6.277c0,5.659,3.851,10.26,8.587,10.26H50.1A21.849,21.849,0,0,0,57.94,82.523l-1.76,4.209L26.476,53.61l-.68-2.442c-1.067-3.819-4.049-6.387-7.419-6.387a7.19,7.19,0,0,0-5.53,2.737l-2,2.393H7.865C4.08,49.911,1,53.592,1,58.114c0,3.9,2.321,7.28,5.517,8.044l6.264,1.5,29.005,37.134v34.9H93.306v-34.9l29.005-37.134,6.264-1.5c3.2-.764,5.517-4.148,5.517-8.044C134.092,53.592,131.011,49.911,127.227,49.911ZM58.959,96.29l3.381,3.232a15.225,15.225,0,0,0-3.381,1.68ZM86.866,65.3H85.8l.614-10.26h.455c2.368,0,4.293,2.3,4.293,5.13S89.233,65.3,86.866,65.3Zm-42.933-5.13c0-2.829,1.926-5.13,4.293-5.13h.455l.612,10.26H48.226C45.858,65.3,43.933,63,43.933,60.171Zm4.293-13.839v.605c0,.336.011.669.032,1l.118,1.978h-.15a7.32,7.32,0,0,0-3.012.685L44.5,47.161a26.894,26.894,0,0,1-.562-5.474c0-12.438,8.469-22.557,18.878-22.557h9.471c10.409,0,18.878,10.119,18.878,22.557a26.869,26.869,0,0,1-.562,5.471L89.877,50.6a7.312,7.312,0,0,0-3.012-.685h-.148l.086-1.439a12.536,12.536,0,0,0,2.209-7.223v-1.6H84.719v1.6c0,3.363-2.288,6.1-5.1,6.1a4.81,4.81,0,0,1-3.982-2.291l-2.544-3.8c-2.868-4.281-7.144-6.738-11.736-6.738h-.249A14.474,14.474,0,0,0,52.049,37.8a10.9,10.9,0,0,0-3.823,8.537Zm5.362,18.83-1.05-17.6q-.019-.312-.019-.623v-.605a5.446,5.446,0,0,1,1.913-4.268,10.665,10.665,0,0,1,6.674-2.414h.249a10.135,10.135,0,0,1,8.38,4.815l2.544,3.8a8.875,8.875,0,0,0,7.337,4.214,7.964,7.964,0,0,0,2.67-.462L81.5,65.163c-.522,8.708-6.652,15.529-13.957,15.529S54.11,73.871,53.588,65.163ZM67.546,85.822A15.414,15.414,0,0,0,73.262,84.7l2.321,5.548-8.037,7.682-8.037-7.682L61.829,84.7a15.414,15.414,0,0,0,5.717,1.126ZM76.132,96.29V101.2a15.224,15.224,0,0,0-3.381-1.68ZM5.293,58.114a2.86,2.86,0,0,1,2.572-3.073h4.757l3.261-3.9a3.244,3.244,0,0,1,2.494-1.234,3.646,3.646,0,0,1,3.349,2.881l.38,1.362-8.784,8.4L7.363,61.128a3,3,0,0,1-2.069-3.014Zm83.719,44.653v31.791H46.079V102.767L17.031,65.576l7.475-7.146,30.16,33.638v20.469l3.664-4.381a11.5,11.5,0,0,1,8.846-4.379h.738a11.5,11.5,0,0,1,8.846,4.379l3.664,4.381V92.068l30.16-33.638,7.475,7.146Zm38.719-41.639-5.959,1.424-8.784-8.4.38-1.359a3.642,3.642,0,0,1,3.347-2.883,3.247,3.247,0,0,1,2.494,1.234l3.261,3.9h4.757a2.86,2.86,0,0,1,2.572,3.073A3,3,0,0,1,127.731,61.128Z" transform="translate(0 0)"/></g></svg>