<svg xmlns="http://www.w3.org/2000/svg" width="43.814" height="43.814" viewBox="0 0 43.814 43.814"><defs><style>.a{fill:#f38500;stroke:#f38500;}</style></defs><g transform="translate(0.5 0.5)"><path class="a" d="M216.9,85.333a3.568,3.568,0,1,0,3.568,3.568A3.571,3.571,0,0,0,216.9,85.333Zm0,5.352a1.784,1.784,0,1,1,1.784-1.784A1.786,1.786,0,0,1,216.9,90.685Z" transform="translate(-195.494 -78.197)"/><path class="a" d="M200.028,192h-7.136a.891.891,0,0,0-.892.892v3.568a.891.891,0,0,0,.892.892h.892v13.38a.891.891,0,0,0,.892.892h5.352a.891.891,0,0,0,.892-.892V192.892A.892.892,0,0,0,200.028,192Zm-.892,17.839h-3.568V196.46a.891.891,0,0,0-.892-.892h-.892v-1.784h5.352v16.055Z" transform="translate(-175.945 -175.945)"/><path class="a" d="M21.407,0A21.407,21.407,0,1,0,42.814,21.407,21.432,21.432,0,0,0,21.407,0Zm0,41.031A19.623,19.623,0,1,1,41.031,21.407,19.646,19.646,0,0,1,21.407,41.031Z"/></g></svg>