<svg xmlns="http://www.w3.org/2000/svg" width="30.724" height="44.775" viewBox="0 0 30.724 44.775"><defs><style>.a{fill:#f38500;}</style></defs><g transform="translate(-0.5 0)"><path class="a" d="M25.414,11.627a1.312,1.312,0,0,0-2.434.678,2.9,2.9,0,1,1-5.807,0V1.311a1.312,1.312,0,0,0-2.24-.927A64.172,64.172,0,0,0,7.745,9.365a50.965,50.965,0,0,0-4.956,9.241A29.285,29.285,0,0,0,.5,29.412a15.362,15.362,0,1,0,30.724,0c0-5.422-1.955-11.406-5.809-17.785ZM15.861,42.151A12.753,12.753,0,0,1,3.123,29.412c0-6.914,3.685-13.9,6.776-18.549a65.9,65.9,0,0,1,4.65-6.149v7.591a5.525,5.525,0,0,0,10.042,3.184C27.253,20.5,28.6,25.174,28.6,29.412A12.753,12.753,0,0,1,15.861,42.151Zm0,0" transform="translate(0 0)"/><path class="a" d="M83.471,253.168h-5.62a1.312,1.312,0,0,0,0,2.624H80.3l-5.6,5.6-3.046-3.046a1.312,1.312,0,0,0-1.855,0l-2.981,2.98a1.312,1.312,0,1,0,1.855,1.855l2.053-2.053,3.046,3.046a1.312,1.312,0,0,0,1.855,0l6.532-6.531V260.1a1.312,1.312,0,0,0,2.624,0v-5.62a1.312,1.312,0,0,0-1.312-1.312Zm0,0" transform="translate(-60.168 -231.029)"/></g></svg>