<svg xmlns="http://www.w3.org/2000/svg" width="28.93" height="24" viewBox="0 0 28.93 24">
  <g id="arrow" transform="translate(0.001 -43.625)">
    <g id="Group_9" data-name="Group 9" transform="translate(5.317 43.625)">
      <g id="Group_8" data-name="Group 8" transform="translate(0 0)">
        <path id="Path_12" data-name="Path 12" d="M117.014,44.284a2.249,2.249,0,0,0-2.633-.4L95.371,53.37a2.286,2.286,0,0,0-1.2,2.611A2.257,2.257,0,0,0,96.4,57.744h4.635l-5.463,5.463a.659.659,0,1,0,.931.931l6.587-6.587a.659.659,0,0,0-.466-1.124H96.4a.94.94,0,0,1-.942-.754.965.965,0,0,1,.512-1.126l19.011-9.489a.937.937,0,0,1,1.116.168.983.983,0,0,1,.2,1.158l-9.486,18.972a.965.965,0,0,1-1.122.539.953.953,0,0,1-.759-.968V58.732a.659.659,0,0,0-1.317,0v6.192a2.272,2.272,0,0,0,1.774,2.25,2.373,2.373,0,0,0,.549.065,2.285,2.285,0,0,0,2.055-1.3l9.489-18.977A2.3,2.3,0,0,0,117.014,44.284Z" transform="translate(-94.104 -43.625)" fill="#fff"/>
      </g>
    </g>
    <g id="Group_11" data-name="Group 11" transform="translate(-0.001 59.72)">
      <g id="Group_10" data-name="Group 10" transform="translate(0 0)">
        <path id="Path_13" data-name="Path 13" d="M7.711,328.668a.659.659,0,0,0-.931,0L.192,335.256a.659.659,0,1,0,.931.931L7.711,329.6A.659.659,0,0,0,7.711,328.668Z" transform="translate(0.001 -328.475)" fill="#fff"/>
      </g>
    </g>
    <g id="Group_13" data-name="Group 13" transform="translate(8.234 63.014)">
      <g id="Group_12" data-name="Group 12">
        <path id="Path_14" data-name="Path 14" d="M150.147,386.96a.659.659,0,0,0-.931,0l-3.294,3.294a.659.659,0,1,0,.931.931l3.294-3.294A.659.659,0,0,0,150.147,386.96Z" transform="translate(-145.729 -386.767)" fill="#fff"/>
      </g>
    </g>
  </g>
</svg>
