<svg xmlns="http://www.w3.org/2000/svg" width="34" height="11.712" viewBox="0 0 34 11.712">
  <g id="Likes" transform="translate(-40 -424.288)">
    <text id="_128_" data-name="128 " transform="translate(52 433)" fill="#2883c8" font-size="11" font-family="Istok-Bold, Istok" font-weight="700"><tspan x="0" y="0">128</tspan><tspan y="0" font-family="Istok-Regular, Istok" font-weight="400"> </tspan></text>
    <g id="smile" transform="translate(40 424.288)">
      <g id="Group_47" data-name="Group 47">
        <g id="Group_46" data-name="Group 46">
          <path id="Path_138" data-name="Path 138" d="M108.4,224.057a.223.223,0,0,0-.316.017,2.486,2.486,0,0,1-3.69,0,.223.223,0,1,0-.333.3,2.934,2.934,0,0,0,4.356,0A.224.224,0,0,0,108.4,224.057Z" transform="translate(-101.094 -217.741)" fill="#2883c8"/>
          <path id="Path_139" data-name="Path 139" d="M5.141,0a5.141,5.141,0,1,0,5.141,5.141A5.147,5.147,0,0,0,5.141,0Zm0,9.834A4.694,4.694,0,1,1,9.834,5.141,4.7,4.7,0,0,1,5.141,9.834Z" fill="#2883c8"/>
          <path id="Path_140" data-name="Path 140" d="M209.118,128A1.119,1.119,0,0,0,208,129.118a.224.224,0,1,0,.447,0,.671.671,0,0,1,1.341,0,.224.224,0,0,0,.447,0A1.119,1.119,0,0,0,209.118,128Z" transform="translate(-202.189 -124.424)" fill="#2883c8"/>
          <path id="Path_141" data-name="Path 141" d="M81.788,129.118a.223.223,0,1,0,.447,0,1.118,1.118,0,1,0-2.235,0,.224.224,0,1,0,.447,0,.671.671,0,0,1,1.341,0Z" transform="translate(-77.765 -124.424)" fill="#2883c8"/>
        </g>
      </g>
    </g>
  </g>
</svg>
