<svg xmlns="http://www.w3.org/2000/svg" width="30" height="30" viewBox="0 0 30 30">
  <g id="plus" transform="translate(0 -0.002)">
    <g id="Group_37" data-name="Group 37" transform="translate(0 0.002)">
      <path id="Path_30" data-name="Path 30" d="M28.358,12.658H17.344V1.663A1.658,1.658,0,0,0,15.706,0H14.3a1.66,1.66,0,0,0-1.64,1.661V12.658H1.641A1.639,1.639,0,0,0,0,14.3v1.418a1.636,1.636,0,0,0,1.641,1.633H12.656V28.38A1.626,1.626,0,0,0,14.3,30h1.41a1.624,1.624,0,0,0,1.638-1.621V17.346H28.358A1.638,1.638,0,0,0,30,15.713V14.3A1.64,1.64,0,0,0,28.358,12.658Z" transform="translate(0 -0.002)"/>
    </g>
  </g>
</svg>
