<svg xmlns="http://www.w3.org/2000/svg" width="30.186" height="30.186" viewBox="0 0 30.186 30.186">
  <g id="wheel" transform="translate(0 0)">
    <path id="Path_39" data-name="Path 39" d="M140.825,133.609a7.216,7.216,0,1,0,7.216,7.216A7.224,7.224,0,0,0,140.825,133.609Zm0,12.628a5.412,5.412,0,1,1,5.412-5.412A5.418,5.418,0,0,1,140.825,146.237Zm0,0" transform="translate(-125.732 -125.732)"/>
    <path id="Path_40" data-name="Path 40" d="M29.476,11.656l-2.32-.5a12.626,12.626,0,0,0-.747-1.8l1.284-2a.9.9,0,0,0-.121-1.125L23.958,2.613a.9.9,0,0,0-1.125-.121l-2,1.284a12.627,12.627,0,0,0-1.8-.747L18.53.71A.9.9,0,0,0,17.649,0H12.537a.9.9,0,0,0-.881.71l-.5,2.32a12.626,12.626,0,0,0-1.8.747l-2-1.284a.9.9,0,0,0-1.125.121L2.613,6.228a.9.9,0,0,0-.121,1.125l1.284,2a12.627,12.627,0,0,0-.747,1.8l-2.32.5a.9.9,0,0,0-.71.881v5.111a.9.9,0,0,0,.71.881l2.32.5a12.626,12.626,0,0,0,.747,1.8l-1.284,2a.9.9,0,0,0,.121,1.125l3.614,3.614a.9.9,0,0,0,1.125.121l2-1.284a12.627,12.627,0,0,0,1.8.747l.5,2.32a.9.9,0,0,0,.881.71h5.111a.9.9,0,0,0,.881-.71l.5-2.32a12.627,12.627,0,0,0,1.8-.747l2,1.284a.9.9,0,0,0,1.125-.121l3.614-3.614a.9.9,0,0,0,.121-1.125l-1.284-2a12.626,12.626,0,0,0,.747-1.8l2.32-.5a.9.9,0,0,0,.71-.881V12.537A.9.9,0,0,0,29.476,11.656Zm-1.094,5.266-2.127.462a.9.9,0,0,0-.677.639,10.823,10.823,0,0,1-1,2.41.9.9,0,0,0,.027.931L25.783,23.2,23.2,25.783,21.364,24.6a.9.9,0,0,0-.931-.027,10.829,10.829,0,0,1-2.41,1,.9.9,0,0,0-.639.677l-.462,2.127H13.264L12.8,26.255a.9.9,0,0,0-.639-.677,10.822,10.822,0,0,1-2.41-1,.9.9,0,0,0-.931.027L6.989,25.783,4.4,23.2l1.178-1.832a.9.9,0,0,0,.027-.931,10.834,10.834,0,0,1-1-2.41.9.9,0,0,0-.677-.639L1.8,16.922V13.264L3.931,12.8a.9.9,0,0,0,.677-.639,10.822,10.822,0,0,1,1-2.41.9.9,0,0,0-.027-.931L4.4,6.989,6.989,4.4,8.822,5.581a.9.9,0,0,0,.931.027,10.829,10.829,0,0,1,2.41-1,.9.9,0,0,0,.639-.677L13.264,1.8h3.657l.462,2.127a.9.9,0,0,0,.639.677,10.822,10.822,0,0,1,2.41,1,.9.9,0,0,0,.931-.027L23.2,4.4l2.586,2.586L24.6,8.822a.9.9,0,0,0-.027.931,10.823,10.823,0,0,1,1,2.41.9.9,0,0,0,.677.639l2.128.462Zm0,0"/>
  </g>
</svg>
