<?xml version="1.0" encoding="utf-8"?>
<!-- Generator: Adobe Illustrator 22.0.1, SVG Export Plug-In . SVG Version: 6.00 Build 0)  -->
<svg version="1.2" baseProfile="tiny" id="Layer_1" xmlns="http://www.w3.org/2000/svg" xmlns:xlink="http://www.w3.org/1999/xlink"
	 x="0px" y="0px" viewBox="0 0 537.1 149.1" xml:space="preserve">
<g transform="translate(-330.473 -263.915)">
	<g transform="translate(332.516 266.018)">
		<path fill="none" stroke="#FFFFFF" stroke-width="4" d="M57.4,37.2L55.9,37l-3-1.7l-2.4-1.9l0.4-1.1l1.8-1.6l0.8-0.2h2.8l0.8,0.5
			l1.8,3.3l0,0.8L57.4,37.2z M2.4,1.5l1.1,0.5l0.9,1.6L5.4,4l1.9-1.1l9.4,2.7l5.5,0.9l5-0.5l1.9-0.7l4.8-4.2L36.5,0l1,0.2l13.1,4.9
			l5.4,3.4l3.6,4.7l3.7,2l0.4,1l-0.2,1l-0.9,1.2l-3.8,3.3l-5.6,2.8l-2.8,0.9l-2.7,0.2l-3.4,1.6l-2.9,2.7l0.1,2.1l-3.8,2.3l1.5,1.9
			l0.3-1.1l0.6,2l-1,1.5l-3.1,0.9l-2.8-0.3l-0.5-1l2.3-1.8l1.7-0.7l-0.7-1.3l0.8-1.8l-1-1.4l-4-4.2l-7.4-6.4l-2.1-1.2l-4.6-1.8
			l-4.1-0.8l-6.1,0.3l-7-8.8L0,2.9l0.4-1.2L2.4,1.5z"/>
	</g>
	<g transform="translate(401.525 267.164)">
		<path fill="none" stroke="#FFFFFF" stroke-width="4" d="M171.1,15.9l0.3,0.9l1.9-0.9l-0.1,0.5l0.8,1l-0.8,1.2l-0.9-0.7l-0.4,0.9
			l-0.5,0.2l-0.4-0.5l-0.4-2.7l0.5-0.3L171.1,15.9L171.1,15.9z M44.6,14.1l0.1,1.1l-0.5,0.9l-0.2,2l-1.6,1.5l-1.2,4.9l-4.6,6.8
			L36,33l-2.2,2.8l-0.3,1.7l1.9,0.1l1.4,1l1.1,0.2l-1.3,1.8l-1.8,0.6l-0.3-0.5l-0.7,0.1l-1.3,0.9l-1.8-0.1l1.3-4.2l-2.4,0.5
			l-1.1,1.1l0.3,1.5l-0.3,3l-1.1-0.1l-0.5-1l-3.3-1.1l-1.1,0.4l-3.2-0.5l-0.8,0.7l-1.1-0.3l-0.4-2.1L16,39l-2.5,0.5l-0.7,0.7
			L11.7,40l-0.8-0.7l-0.6,0.1l-0.4,1.1L9,40.8l-1.7-1.2l-1.6-1.9l-1.1,0.2l-1.3-0.6H1.6l-1-1.1L0,34.4l1.1-2.1l1-0.2l0.2,1.1
			l2.2,1.2h0.9l1.6-1.7l1.2-0.1l1.3,0.7l0.8-0.6v-0.5l0.9,0.1l0.7-0.7l0.4-4.6l-0.1-4.5l-1.6-1.5l-0.5-2.2l1.3-1.9l2.3-1.4l0.3-1.4
			l0.9,0.3l0.1-0.4l2.8-1.2l1.4-2.2l2.6-2l4.7-1.7l3.2,0.3l2.3,0.7l1.3,0.9l6.9,1.6l4,3.2L44.6,14.1L44.6,14.1z M87.7,3.6L91,3.4
			l1.3,0.7l0.3,0.6l-3.6,2.6l-2.4,5.3l-2,2.7l-2.9-1.8l1.8-3.6l-0.5-1.1l-0.7,0l0.3-1.6l-0.3-1.9L83.9,4L86,3.1L87.7,3.6L87.7,3.6z
			 M160.9,8.7h-2l-1.4-1.1L157.4,5l0.9-1.6l1.5-1.1l2.3,0.2l1.1,1.1l0.4,1.5l-0.7,2l-1.2,1.3L160.9,8.7L160.9,8.7z M105.7,1.1
			l3.2-0.4l1.1,0.6l1.3-0.2l3.7,1.4l0.1,2.4l0.9,3l1.5,1.6l0.6,0.1l1.1,2.7l3.4,1.8l0.9,0.1l1.1-1l1.9-0.6l0.9-1.9l3.1-2.5h2
			l0.8,0.8l2.5,0.1l4.4,1.4l1.5,2.4l0.2,1.5l-0.4,4.5l-1.1,1.7l0.2,1.2l1.8-0.6l0.6-1.1l0.4-2.3l-0.8-1.1l0.1-1.2l1.3-2.4l0.9-1.1
			l2.9-2.1h1.2l0.5,0.7l2.9-0.2l4.6,1.1l-0.5,1.9l0.2,1.3l2.7,4.1l0.1,2.7l-1.5,0.7l0.2,1.1l-0.5,0.6l1.1,1.8l-0.1,2.3l0.8,0.5h1.2
			l1.1-0.8l1.5-0.3l-1-1.6l1.1,0.1l0.7-0.4l0.2-1l0.9-0.6l0.9,1.4l-0.4,1.9l-0.9,1.3l0.4,3.2l-1.9,1.5l-1-0.3l-0.9,0.4l-2.6-0.9
			l-3.4,0.7l-1.5-1.9l-1.7-1.1l-1.4,0.6l-0.4,1l-0.7,0.1l-2.3-0.7l-1.8,0.1l-0.5-0.5l-1.1,0.6l-0.6,1.1l-1.5,0.7l0.3,0.4l1.5,0.7
			l7.9-0.1l2.3,1.3l0.5,1.3l-1.1,0.9l-3.9,0.5l-1.3-0.4l-2.2-1.4l-2.4-0.6l-3.5,0.7l-6.4,3l-3.1,0.7l-3.6-1.4l-0.9-2.1l0.3-1.8
			l1.9-2.3l0.2-1l-0.4-0.8l0.7-1.2l-0.5-1.4l-0.8-1.1h-0.4l-0.3,0.5l0.2,1.6l0.4,0.3l-0.4,0.8l-0.9,0.6l-1.2-0.4l-1.1,1.7l-1.9,0.9
			l-0.4,1.5l-1.3,0.3l-3.9,4l-2.6,1.1l-2.3-1.7h-0.9l-0.8,0.7l-2.1,0.1l-0.9,1.7l-1.4,0.7h-1l-3.1,1.8l-1.8-0.7l-0.5-0.6v-0.9
			l-1.9,0.6L97,42.3l-1.5,0.1l-0.9-0.7h-0.9L92.5,42l-6.9,3.9l-6.8,2.3l-3.7,0.2l-4.7-1.6L67.5,47l-2.8,2.9l-4.8,1.1l-2.9-1
			l-0.9-1.1l-1.9-0.4l-1.1,0.7l-5.5-2.1l-2.3-1.4l-0.9-1.4l0.7-0.9l0.1-1.1L45,41.8l0.5-2.4l0.9-0.1l0.6-0.7l-0.2-1.1l2.2-0.4
			l-0.4-1.6l-1.9-2.8l0.8-0.7L46.4,29l1.9-4l1.3-0.4l0.3-0.6l-0.6-2.4l1.3,0.9l4.5-0.7l6.6-4.5l1.9-2.5l1.4-0.4H66l2.8,1.7l0.7-0.1
			l8.5,3.4l0.6-1.4l1.3-1.1l1.8-0.7l1.3,0.4l3.4-0.4l0.7,0.8l1.1,0.1l1.3,1.4l1.8-0.1l0.9,2.7l-0.4,0.7l-1.8,0.5l-0.2,0.5l0.5,0.7
			l1.3,0.7l2.6-0.2l-0.9-3.7l1.1-0.4l1.1,2.7l1.6,0.1l0.1,1.3l-2.3,0.2l0.9,1.1L95.4,27l0.9,3.5l0.9,1.3l4.3-0.9l3.7,1.6h1l4.2-3.5
			l3.9-0.9l1.9,0.2l1.1,1l4.5-1.8l-0.6-2.1l-1.1-0.3l-0.4-1l-1.6-0.4l-0.4,0.7l-1-1.7l-1.8-1.1l-0.9-1.4l-1.1,0.3l-1.4-2.1l-4.8,0.6
			l-8.4-5.3l-2.3-3l-2.6-2.4l-0.5-1L94,4.5l3.3-2.4l2,0.1l4.9-2.3L105.7,1.1L105.7,1.1z"/>
	</g>
	<g transform="translate(555.128 266.448)">
		<path fill="none" stroke="#FFFFFF" stroke-width="4" d="M221.5,121.1l2-0.2l0.3,0.5l-3.4,4l-1.1,0.4l0.4,0.5l2.9,0.4l0.6,2.3
			l-1.4,1.7l-2.7-0.1l-1.7,0.8l-0.8,1l-2.2,0.8l-0.5,1l0.2,1l-1.1,2.5l-0.7-0.3l-1.1,0.7l-1.4-0.9l-1.1-0.1l-1.4,0.8l-1,1.4l-5,0.3
			l-1.6,1.2l1,1l-0.8,1.5l-1.1,0l-0.3-0.9l-1.3,0.1l-0.2-0.5l-1.7,0.4l-0.3,1.1l-1.4-0.9l-0.3-1.4l0.4-2.3l-1.3-2.5l0.4-1.1l2.4-1.1
			l1.9-0.1l1.8-0.9l2.1,0.3l1.1-0.6l2.2-0.3l4-3.9l1.5,0.1l1.4-0.9l0.6-1.9l1.3,0.1l-0.2-1.1l2.4-2.5l5-2.2l0.6-2.4l1.7,1.8
			l-0.9,0.7L221.5,121.1L221.5,121.1z M150.3,118.2l2,0.3l0.5,0.5l-0.5,3.8l-0.9,1l-1.7,0.5l-1.6,1.7l-2.1,1.3l-1.7,0.3l-1.5-0.7
			l-2.8,0.3l-3.2-1.9l7.5-4.2l0.6-2.4l1.2-0.7l1.9-0.6L150.3,118.2L150.3,118.2z M225.3,104.4l1.5-0.3l0.3,1.3l-2.2,0.7l-0.3,1.1
			l-1.1,0.6l-0.5,0l0-0.9l-1.3-0.1l0,1.2l0.8,0.4l0.4,1l-0.3,0.8l0.4,1l-1.2-0.2l0.3,0.8l0.6,0.2l-0.3,1.2l-1.1,0l-0.4-1.3l-0.5-0.1
			l-1.1,0.2l-0.7,1.4l-0.4,0.1l-0.7-1.3l0.2-1.5l-0.4-0.7l1.2-1.7l1.5-0.8l1.5-2.5l0.4-1.7l2.8-1.1l0.6,0.9L225.3,104.4L225.3,104.4
			z M54.3,65.9l1.1,0.7l1.3,2.5l1.2,1.1l1.4,0.4l2.9-0.6l0.8,0.3l1.1,1.7l0.3,1.3l0.2,3.5l1.1,1.4l2,0.1l1.1,1.3h0.6l2-1.1l4.9-1.2
			l1.3,1.6l0.2,1.2l4.9,2.5l0.9,2.5l3.4,6.3l2.9,1l3,1.8l1.4,2l1,3.1l-0.6,2.3l-2,1.7l-1.3,0.2l-1.8,2.7l-2.5,1.6l-1.8,0.1l-1.2,1
			l-3-0.6l-1.4,0.3l-2.6,1.3l-0.2,1l-0.7,0.8l-0.9,0.1l-2.3-1.3l-1.6-1.6l-4.2,0.1l-2-0.3l-1.2,0.3l-3.2-1.4l-2.1-2.1l-1.1-0.3
			l-2.1-2.6l-1.3-0.3l-0.4-0.4l0.5-1l-0.7-1.8l-3-3.4l-1.9-0.6l-0.2-0.9h-1.3l-0.1-1.3l-3.7-0.6l-0.8,0.2l-0.9-1.3l-3.5-2.3L37.6,88
			l-0.7-2.1h-0.9L35,86.5l-0.6-1.1L33,84.9l-3.5-0.5l-2.4-0.9l-2.7,1.1l-0.8,1.4l-2.9-1.5l-1.1,0.3l-0.6-1l-4.4-0.3L13,83.9
			l-0.3-0.4l-5.7-1.9l-1.2-0.9l-2.9-3.9l-1.9-1.4L0,73.7l1.8-3.1L3.5,69l1.9-1.1l4.2-1l3.2-1.9l0.8,0.2l0.7,0.8l2.9-1.4l1.4-0.2
			l2.2,0.9h3l2.6-0.9l3.6,0.9l2.3-1.5l3-0.1l2.1,1.5l2.9,0.6l1-0.2l1.7,0.7l1.7-1.6l3.4-2.1l1.6-2.4l0.6-0.1l1.5,2.9L54.3,65.9
			L54.3,65.9z M298.1,44.3l0.6,0.2l-0.9,1.8l0,1.5l0.7,1l1.5,0.7l1.3,0l1.9-1.5l1.7-0.5l0.9-1l0.8-1.8l1.2,1.3l0.7,0.1l1.7,1.5
			l0.1,2.4l-0.7,2.5l0.4,2.1l-2,0.2l-1.8,1.1l-0.1,0.4l-2.1-1.6l-3,0.1l-0.8,1.6l-0.1,1.1l0.7,3.1l2.8,1.9l0.1,1.7l1.4,1.6l0.5,3.4
			l0,0l-2.6,1.9l-2.2,2.5l-0.5,4.7l-1.5,1.6l-3.2,1.3l-1.5,1.3L290,88l-1.7,2.9l-1.9,0.7l-2.3,2.3l-5.4,3.2l-1.9,4l-4.1,3.1
			l-1.6,0.7l-1.4,0l-9.8-0.8l-1.4,0.3l-1.3,0.5l-1.5,1.5l-0.5,1.3l-2.2,1.3l-0.8,1.1l-2.9,0.4l-3.4,1.5l-0.7,0.9l-3.7,1.1h-2.2
			l-2.6,0.6l-1.5-0.7l-0.9,0l-2,1l-0.8-1l-2.8-1.1l-3.9,1.5l0.1-1.5l0.7-0.5l1.1-2.3l-0.4-2l1.7-0.6l0.2-1.9l4.3-1.8l1.7-0.1
			l1.6-1.1l2.9-1.1l1.4-2.5l-0.6-0.8l-2.9-1l-0.9,0.3L234,97l-1.2,0.5l-0.7,1l-0.9-0.3l-0.3-0.5l0-5.2l1-1.3l0.8-0.3l0.9,0.3
			l1.1-1.4l0.3-3.1l-1.3-1.9l1.4-0.6l0.5-1l0.1-1.8l-0.7-3.3l3.4-3.6l2.2-0.9l0.4-1.7l0.9-0.7l0.5,0.1l1.4-1.1l1.8-0.6l0.9-1.7
			l1.5-0.5l0.3-1l1.1-0.8l0.5-1.2l0.9-0.8l2.5-0.2l0,0l2.5,3.4l1.3-0.1l0.7,0.9l1.2-0.3l0.6-1.4l2-1.2l0.6,0.1l2.4,2.3l0.7,1.7
			l-0.4,2.5l3.5-0.8l0.7-1.4l-0.6-1.3l1.6-1.9l-0.3-0.7l0.3-0.9l0.5,0.1l0.9-1.1l1.4-0.2l0.4-1.2l0.9-0.4l-0.3-1.6l0.6-1.2l0.1-1.7
			l0.5-0.7l-0.1-0.9l0,0l1.3,0.3l2.4-0.3l2.5-0.9l4.3-3.5l0.2-1.6l2.3-0.3l2.8-2l3.1-0.7l1.5-1.3L298.1,44.3L298.1,44.3z M43.3,37.6
			l-1.2-0.1l0-0.8l0.7-0.8l0.7,0.4L43.3,37.6L43.3,37.6z M37,36.8l-0.1,0.4l-1.7-0.7l1.3-0.6L37,36.8z M33.8,29.3l-0.7,0.4l-0.4-0.4
			l-0.9,0.1l-0.4,0.8l0.8,0.8l-0.6,0l-1.2-1.2l3-1.9l0.4,0.2L33.8,29.3z M35.8,27l0.8,0l0,1.7l0.5,2l0.3-0.6l1.3-0.1l0.1-0.7l-0.9-1
			l1.1,0.4l0.5-1.3l1.1,0.3l1-0.5l1.5,0l0.7,0.5l-0.3,1.7l-2,0.4L41,30.9l-0.6,0.5h-0.5l-0.1-0.7l-0.6,0l-0.7,1.1l-0.2,1.1l1.4,0.5
			l0.4,0.9L40,35L38.2,37l-0.8,0l-0.1-1l-0.7-0.7l-2.1,0.9l-0.6-1.9l0.8-2.5l0.7-0.3l1.2,0.3l-0.4-1.4l-0.7,0.6L35,30.6l0.5-0.3
			l0.1-1L34.4,27l0.9-0.4L35.8,27L35.8,27z M171.1,18l1.7,0.9l0.3-0.6l0.3,0.5l-0.4,1.5l-1.2,1l-1.6-0.5l-1-1.3l0.1-1.5L171.1,18z
			 M27.2,19.1l0,1.3l0.5,0.3l3.3,0.6l1.1-0.5L32,22.7l0.4,0.7L32,23.5l-0.6-0.9l-0.3,0.5l0.5,0.7v2l0.6,0.3l-2.6,0.4v-1.4L28.6,25
			l-0.1,0.8l-1,0.9l-1.1,0.1l0.5,1l0.7-0.1l0.6-0.7l0.1,0.4l-0.5,0.7l-0.1,0.4l-0.4,0.6L26.3,29l-0.9,1.3l1.1,1.3L26,32.7l1.2,0.7
			l-1.5,0.7L24,32.7l-1.5,0.6l0.3-1.4l1.1-0.9l0.3-1.7L24,28.6l-1-0.8l-0.6,0.3l0.7-1.4l-0.7-0.7l0.8-1.4l0.6,0.1l1.1-0.6V23
			l0.5-0.1l-0.1-0.7l-0.9-0.4l1.2-0.9l-0.1-0.6l-0.6-0.3l-0.1-1.3l1.4,0.3l0.2-1.3L27.2,19.1L27.2,19.1z M210,18l0.2,0.9l-0.9,0.8
			l-3.8,1.4l-1.3-0.1l-1-0.6l-2.1,1.7l-2.2,4.2l-1.3,0.8l-1.2-0.1l-0.8-1.3l0.7-2.9l3.1-1.7l0.2-1.4l1.2-1.3l1.1-0.1L203,19l0.9-0.7
			h3.9l1.1-0.6L210,18L210,18z M138.6,11.4l0.6,0.1l0.6,1.4l-0.3,1l-0.7,0.4l-2.2-0.7l-0.5,0.4l-0.2-0.3l0.5-0.4l0.6-1.7l0.9-0.4
			L138.6,11.4L138.6,11.4z M212.6,8.5l0.4,0.3l0.6-0.7l0.6-0.1l1,0.9l1.8,0.1l1.7,0.9l-0.8,1.3l-0.7,0.2l0.2,2.9l-0.8,1.7l-2.8,0.3
			l-3-0.5l-5.4,1.3l-1.2-0.5l-2.2,0.4l-0.1-2.1l1.7-3l3.4-2l1.9-1.7l1.9,0.3l1.2-0.7l0.4,0.1L212.6,8.5L212.6,8.5z M264.6,14.1
			l-2.4,3l-0.4,3.1l-3.8,3.6l-3,0.4l-0.7-0.5l0.6-2.3l-1.6-3.7l-2.3-0.1l-1.9,1.4l0,0.5l-1.6-0.5l0-0.6l1.4-1.5l0.9-2.8l4.7-2.7
			l1.5,0.9l0.1,1.9l0.5,0.4l1.1-0.3l1.8-1.9L260,11l1.9-1.1l2.1-3.5l1.2-1l1.8,0l0.7,0.5l0.3,1.1l-1.3,2.3l0.2,2.8l-0.5,1
			L264.6,14.1L264.6,14.1z M243.8,7l2.9,0.3l1.3,1.8l-4.2,1.6l-1.8-0.5l-2.1,0.8l-1.1,1.4l-0.2,1.3l-1.7,1.7l-0.2,0.9l-1.1,1.4
			l-1-0.1l0.1-0.7l-0.4-0.2l-1.2,0l-1.5,1.7l-1.3,0.7l-0.4,1.1l1.1,1.4L231,23l-1.5,1.8l-1.7-0.1l-0.8-2l-0.6-0.3l-2.1,0.9l-1.3,2.1
			l-1.1,0.3l-2.2-0.9l-0.6-1.1l-1.5-0.8l-1.2,1l-2.5-0.4l-0.5,0.7l-1-0.9l0.1-1.2l1.1,0l3.7-3.1l1.2-2.4l2.3-0.8l0.6-0.7l2.2-0.4
			l1.7-1.2l-2.1-2.1l-1.2-0.2l-2.8,0.5l1.7-2.1l1.3-0.6l0.8,0.7l1.8,0.2l1.4-1.4l1.7-0.3l1.8,0.3l0.3,0.3l-0.7,0.7l-0.3,1.3
			l-2.1,2.5l-0.1,0.8l2.7,0.9l2-1.6l0-0.9l-0.9-0.4l0-1.2h1.4l-0.2,1l0.2,0.5l1.7-1.4l-0.5-2L232,8.5V7.6l2-0.3l0.7,0.3l-0.1,1.1
			l2,0.4l0.4-0.4l-0.3-1.3l4.4-2.7L243.8,7L243.8,7z M277.3,2.7l4.1,0.3l-0.5,0.9l-0.1,2l0.7,0.5l2.4-1.4l4.8-0.9l3.8,0.7l4.2,0.1
			l2.2-1l2.4,0.5l1.8-0.4l2.7,0.1l2,4l-0.2,3.3l0.3,1.5l-1.1,0.9l-2.6,0.7l-8.6,0.3l-4.5,1.7l-3.1,0.2l-3.9-0.5l-3.1,2l-2.5,0.6
			l-0.7-0.9l-1.6-0.4l-3.5,2l-0.5-0.1l-0.2-0.9l-2.5,0.3l-1.1-1.1l0.1-1l0.3-0.9l2.7-3.3l0.1-1.1l1.2-0.4l2.3-1.8l1.8-0.2l1.5-0.9
			l-0.5-0.4l-1.9,0.3l-4.6,2.3l0.2-1.4l-0.5-1.1l2.8-3.7l1-1.1L277.3,2.7L277.3,2.7z M198.5,1.9l2.2,1.5l0.1,1.3l-0.6,1.6l0.8,0.9
			l0.1,1.7l1.9,2l0.1,1.2l-2,1.9l-0.8,0.1l-1.9-1.1l-0.6,0.2l-1.7,2.4l0.7,1.6l-0.3,1.7l-1.3,0.2l-1.5-1l-1.8-0.5l-0.5,0.4l0.3,2.5
			l2.5,2.7l0.1,1.7l-0.6,1.1l-2.5,1l-2.4,0l-0.3,1.2l-0.6-0.5h-2.4l-2.4,1.5l-0.8-0.2l-0.7,0.6l-1.4,0.2l-1.7,2.1l-5.6,1.9l-2.2,0.2
			l-1.5-0.6l-3.1,0.7l-2-0.7l-2,0.3l-1-0.9l-3,0.1l-1.3,0.4l-0.9,1.2l-0.6,0.1l-1.4,1.4l-5.4,1.9l-2.8,0.1l-0.6,0.9l-3.4,1.4
			l-2.5-0.2l-1.5-1.2l-1.5-0.2l-0.5,0.4l0.2,1.3l-0.4,1l-0.7,0.2l-0.9-0.4l0.9-3l-1.7-0.7l-1.4-1.1l-2.1,0.4l-7.2-0.9l-0.7,0.1
			l-0.5,1.7l0.2,2.4l-1.2,1.2l-1.6,0.5l-2-1.1l-3.9,0.4l-0.8-0.4l-4.5,1.7l-2.6,1.7l-1.2-0.1l-4.2-1.4l-2.6-2.1l-0.8-2.3L95,38.2
			l-2.3,0.5l-1,2.1l-1.3,0.3l-2.7-1.1l-2.3-0.2l-2.5-2.6l-7.4,0.1l-2.2,0.4l-0.7-0.4l-3.5,1.8l-0.9-0.5l-0.8,0.5L64,38.3l-2.3-2.4
			l-0.9-0.1l-6.4,1.7l-2.5,0.3l-1.2-0.3l-1,1.1v0.9L49,39.8l-1.2-0.4l0.4-0.8l-0.5-0.3l0-1.3l-2.3-0.2L45,36l-1.5-1.3l-0.2-1.1
			l0-0.7l0.3-1l-0.3-0.7L44,30l0-3.2l-0.6-0.3l0.3-0.9L45,24l-0.1-0.4l1.4-0.5l0.9-1.1l0.2-1.6l-1-1.3l-0.2-1.1l1.2-0.1l0.1,1.7
			l0.9,0.2l0.3,0.5l1.4-0.9l0.7,0l1.1-1.2l1.4,1.3l0.7-1l-0.7-0.4l0.1-0.7l1-1.6l1.5,0.1l0.7-0.5l0.6,0l0.4,1.2l0.6,0.5l-0.5,1
			l1.1,0.1l0.6-1.1l0-2.9l1.8,0.8l0.7-1.2h0.4l0.9-2.1L64,12l1.4-0.4l0.7-0.7l1.4-0.1l2-0.1l2.2,0.6l2-0.7L74,9.2l0.5-0.5l1.3,1.1
			l0,0.9l1.1,0.7l2.4-0.9l1.5,0.8l2.1,0l0.5-0.6l-0.7-0.8l0.3-0.6l2.1,1l2.1,2.5l1.4-0.1l1.2,1.1l3.4-0.4l2.6,0.8l3.3,0l1.5-0.5
			l1.4,0.2l-0.1,1l0.4,0.4l1.4-0.1v1l0.6,1.1l2-0.3l1.9,0.8l1.8,0.1l1.1,0.7l1.2-0.2l2.1,1.3l2.2,0.3l1.4,0.6l2.1,3.5l3.5,1.6
			l2.4-1.3l0.7,0.9l0.9,0.4l0.6,1.5l1.5-1.7l1.7-0.6l-0.7-0.6l0-1l0.5-0.2l1.9,1.2l-0.6-1.2l0.3-2.3l0.6-0.6l1.3,0.3l-0.1,1l1.1-0.3
			l0.7,0.9l2.5-0.9l2.5,0.3l0.8,0.5l1.5-0.6l0.8-0.9l0.8,0.6l2.5,0.1l0.8-0.5l1.5-2.1l-0.2,1.4l1.5-1.3l1.4-0.3l0.7,0.2L153,21
			l0.3,1.9l2.6-0.3l0.8,1l0.9-0.7l2.8,1.3l3.5,3.5l3.3,0.8l1.7-1.1l1.5-0.3l4.3-0.5l1.2,0.3l2.2-3l-0.1-1.1l-1.7-1.5l0.6-1l3.2-0.9
			l0.9-1.3l0.9-0.3l0.4-1.6l0.8,0.2l0.8-0.8l1.5,0.4l3.4-1.5l1.6,0.3l2.2-3.2l3.2-0.3l1-0.7l1-3.2l1.2-0.7l-1.7-1l-1.8,0l-2.7,0.9
			l-1.2,1.9L188.8,8l-0.1-0.4l1.3-1.1l1.2-2.1V2.1l2.3-0.6l1.8-1.5L198.5,1.9L198.5,1.9z"/>
	</g>
</g>
</svg>
