<svg xmlns="http://www.w3.org/2000/svg" width="125.53" height="117.995" viewBox="0 0 125.53 117.995"><defs><style>.a{fill:#d38a54;}.b{fill:#ffb272;}.c{fill:#9b9b9b;}.d{fill:#af6a3a;}.e{fill:#8c5835;}.f{fill:#ffd8b3;}.g{fill:#828282;}.h{fill:#dbdbdb;}.i{fill:#fff;}</style></defs><path class="a" d="M337,413.328h17.453v10.325H337Z" transform="translate(-254.158 -315.491)"/><path class="b" d="M318.879,347.151h26.362v16.268H318.879Z" transform="translate(-240.492 -265.582)"/><path class="c" d="M127.258,313.213H81.085L82.709,308c.857-3.4,4.621-5.848,8.993-5.848h24.774c4.306,0,8.032,2.376,8.957,5.712Z" transform="translate(-61.153 -231.643)"/><path class="c" d="M331.347,313.213H290.391L292.015,308c.857-3.4,4.621-5.848,8.993-5.848h19.557c4.306,0,8.032,2.376,8.957,5.712Z" transform="translate(-219.007 -231.643)"/><path class="b" d="M130.248,261.974h22v9.876h-22Z" transform="translate(-98.23 -201.343)"/><path class="c" d="M134.331,228.036H95l1.624-5.214c.857-3.4,4.621-5.848,8.993-5.848H123.55c4.306,0,8.032,2.376,8.957,5.712Z" transform="translate(-71.647 -167.405)"/><path class="b" d="M144.164,180.328h15.161v9.008H144.164Z" transform="translate(-108.725 -139.767)"/><path class="c" d="M141.957,150.161H110l1.624-3.985c.857-3.4,4.621-5.848,8.993-5.848h10.558c4.306,0,8.032,2.376,8.957,5.712Z" transform="translate(-82.96 -109.6)"/><path class="b" d="M159.164,95.328h7.786V106.39h-7.786Z" transform="translate(-120.038 -75.662)"/><path class="c" d="M147.04,65.161H120l1.624-3.985c.857-3.4,4.621-5.848,8.993-5.848h5.642c4.306,0,8.032,2.376,8.957,5.712Z" transform="translate(-90.501 -45.495)"/><path class="b" d="M108.5,347.151h32.694v26.592H108.5Z" transform="translate(-81.828 -265.582)"/><path class="d" d="M53.656,455.328h99.151v7.866H53.656Z" transform="translate(-40.466 -347.166)"/><path class="e" d="M154.164,380.24h10.284V398.7H154.164Z" transform="translate(-116.267 -290.537)"/><g transform="translate(1.967 19.666)"><path class="a" d="M8,417.784H19.223v17.1H8Z" transform="translate(-8 -338.517)"/><path class="a" d="M457,417.784h11.223v17.1H457Z" transform="translate(-346.626 -338.517)"/><path class="a" d="M166.949,95.328h-7.786c3.586,1.177,6.473,2.593,7.786,4.548Z" transform="translate(-122.004 -95.328)"/><path class="a" d="M168,180.151H155.666c5.681,1.177,10.254,2.593,12.333,4.548Z" transform="translate(-119.367 -159.3)"/><path class="a" d="M173.691,261.974H158.678c6.916,1.432,12.483,3.156,15.013,5.536Z" transform="translate(-121.638 -221.009)"/><path class="a" d="M195.439,347.151H180.426c6.916,1.432,12.483,6.513,15.013,8.893Z" transform="translate(-138.04 -285.247)"/><path class="a" d="M380.06,347.151H365.047c6.916,1.432,12.483,6.513,15.013,8.893Z" transform="translate(-277.277 -285.247)"/></g><path class="d" d="M368.406,413.328H355.5c5.945,1.231,10.73,5.6,12.906,7.645Z" transform="translate(-268.11 -315.491)"/><path class="f" d="M159.164,130.939h5.286a8.739,8.739,0,0,0-5.286-3.088Z" transform="translate(-120.038 -100.19)"/><path class="f" d="M144.164,205.63h6.33a10.468,10.468,0,0,0-6.33-3.7Z" transform="translate(-108.725 -156.06)"/><path class="f" d="M130.248,290.807h6.33a10.468,10.468,0,0,0-6.33-3.7Z" transform="translate(-98.23 -220.299)"/><path class="f" d="M318.879,394.112H329.6c-2.81-3.778-7.062-5.448-10.723-6.263Z" transform="translate(-240.492 -296.275)"/><path class="b" d="M337,441.187h7.891A13.047,13.047,0,0,0,337,436.578Z" transform="translate(-254.158 -333.025)"/><path class="f" d="M108.5,423.652h6.33c-1.659-2.231-4.169-9.843-6.33-10.325Z" transform="translate(-81.828 -315.491)"/><path class="g" d="M196.842,222.686c-.925-3.336-4.651-5.712-8.957-5.712h-7.58c4.306,0,8.032,2.376,8.957,5.712l1.824,5.35h7.58Z" transform="translate(-135.982 -167.405)"/><path class="g" d="M181.842,146.04c-.925-3.336-4.651-5.712-8.957-5.712H165.3c4.306,0,8.032,2.376,8.957,5.712l1.824,4.121h7.58Z" transform="translate(-124.669 -109.6)"/><path class="g" d="M177.023,61.039c-.925-3.336-4.651-5.712-8.957-5.712-6.393,0-5.585,0-5.892,0,4.2.091,7.8,2.438,8.7,5.708L172.7,65.16h6.146Z" transform="translate(-122.308 -45.494)"/><path class="g" d="M204.664,307.863c-.925-3.336-4.651-5.712-8.957-5.712h-9.566c4.306,0,8.032,2.376,8.957,5.712l1.824,5.35h9.566Z" transform="translate(-140.384 -231.643)"/><path class="g" d="M394.423,307.863c-.925-3.336-4.651-5.712-8.957-5.712h-9.02c4.306,0,8.032,2.376,8.957,5.712l1.824,5.35h9.02Z" transform="translate(-283.907 -231.643)"/><path class="h" d="M98.5,302.151H91.7c-4.372,0-8.136,2.448-8.993,5.849l-1.624,5.213h6.8L89.507,308C90.364,304.6,94.128,302.151,98.5,302.151Z" transform="translate(-61.153 -231.643)"/><path class="h" d="M112.415,216.974h-6.8c-4.372,0-8.136,2.448-8.993,5.849L95,228.036h6.8l1.624-5.213c.857-3.4,4.621-5.849,8.993-5.849Z" transform="translate(-71.647 -167.405)"/><path class="h" d="M126.661,140.328h-6.044c-4.372,0-8.136,2.448-8.993,5.848L110,150.161h6.044l1.624-3.985c.857-3.4,4.621-5.848,8.993-5.848Z" transform="translate(-82.96 -109.6)"/><path class="h" d="M135.78,55.328h-5.162c-4.372,0-8.136,2.448-8.993,5.848L120,65.161h5.162l1.624-3.985C127.644,57.776,131.408,55.328,135.78,55.328Z" transform="translate(-90.501 -45.495)"/><path class="h" d="M297.395,313.213,299.019,308c.857-3.4,4.62-5.848,8.991-5.849h-7c-4.372,0-8.136,2.448-8.993,5.849l-1.624,5.213Z" transform="translate(-219.007 -231.643)"/><path class="e" d="M53.656,478.252h99.151v2.231H53.656Z" transform="translate(-40.466 -364.455)"/><path class="d" d="M457,471.328h11.223v3.933H457Z" transform="translate(-344.66 -359.233)"/><path class="f" d="M457,424.872v-7.088h11.223Z" transform="translate(-344.66 -318.851)"/><path class="d" d="M8,471.328H19.223v3.933H8Z" transform="translate(-6.033 -359.233)"/><path class="f" d="M8,424.872v-7.088H19.223Z" transform="translate(-6.033 -318.851)"/><path class="i" d="M126.12,479.328h-1.906a1.966,1.966,0,1,0,0,3.933h1.906a1.966,1.966,0,1,0,0-3.933Z" transform="translate(-92.197 -365.267)"/><path class="i" d="M123.564,112.293H112.34a1.967,1.967,0,0,0-1.967,1.967v7.263h-8.112v-6.391h2.488a1.967,1.967,0,0,0,1.967-1.967v-14.3h5.624a1.967,1.967,0,0,0,1.861-2.6l-1.808-5.3c-1.193-4.18-5.638-7.094-10.835-7.094H93.535V76.783a1.967,1.967,0,1,0-3.933,0v7.085H82a11.607,11.607,0,0,0-9.815,4.856,1.967,1.967,0,0,0,3.3,2.134A7.775,7.775,0,0,1,82,87.8h19.557c3.406,0,6.376,1.8,7.062,4.271.02.074-.062-.173.971,2.858H71.384a1.967,1.967,0,1,0,0,3.933h5.036v14.3a1.967,1.967,0,0,0,1.967,1.967h2.488v6.391H61.332V105.03a1.967,1.967,0,0,0-3.933,0v16.492H50.148V105.03a1.967,1.967,0,0,0-1.967-1.967H37.9a1.967,1.967,0,0,0-1.967,1.967v16.492H28.638V98.863H66.105a1.968,1.968,0,0,0,1.861-2.6l-1.808-5.3c-1.142-4-5.264-6.84-10.173-7.076V77.924h6.7a1.967,1.967,0,0,0,1.861-2.6l-1.807-5.3c-1.142-4-5.264-6.84-10.173-7.076V57.854H59a1.968,1.968,0,0,0,1.8-2.763l-1.77-4c-1.178-3.954-5.275-6.753-10.147-6.987V41.63a1.967,1.967,0,1,0-3.933,0v2.212H41.092V36.959H56.539a1.968,1.968,0,0,0,1.8-2.763l-1.77-4c-1.231-4.132-5.649-7-10.81-7h-.772v-5.9a1.967,1.967,0,0,0-3.933,0v5.9h-.936c-5.27,0-9.712,2.95-10.863,7.192L27.677,34.25A1.968,1.968,0,0,0,29.5,36.96h7.661V44.1c-5.05.179-9.25,3.075-10.364,7.182l-1.576,3.866a1.968,1.968,0,0,0,1.821,2.709H48.632V62.93H33.97c-5.306,0-9.772,2.99-10.886,7.278l-1.609,5.165a1.968,1.968,0,0,0,1.878,2.552h6.7v5.952c-5.085.181-9.309,3.116-10.387,7.269l-1.609,5.165a1.968,1.968,0,0,0,1.878,2.552H24.7v22.659H15.156v-.246a1.967,1.967,0,1,0-3.933,0v8.112H3.933V116.227H13.19a1.967,1.967,0,0,0,0-3.933H1.967A1.967,1.967,0,0,0,0,114.26v17.1a1.967,1.967,0,0,0,1.967,1.967H26.672a1.967,1.967,0,0,0,0-3.933H15.156v-3.933h95.217v3.933h-70.8a1.967,1.967,0,0,0,0,3.933h83.987a1.967,1.967,0,0,0,1.967-1.967v-17.1a1.967,1.967,0,0,0-1.967-1.967ZM33.03,31.489c.637-2.528,3.618-4.363,7.086-4.363h5.642c3.406,0,6.376,1.8,7.062,4.271a15.718,15.718,0,0,0,.7,1.629H32.424A13.9,13.9,0,0,0,33.03,31.489ZM30.572,52.384c.637-2.528,3.618-4.363,7.086-4.363H48.216c3.406,0,6.376,1.8,7.062,4.271a15.717,15.717,0,0,0,.7,1.629H29.966a13.9,13.9,0,0,0,.606-1.537ZM46.624,77.925a1.967,1.967,0,1,0,0-3.933h-20.6l.829-2.662c.962-3.079,4.062-4.467,7.116-4.467H51.9c3.406,0,6.376,1.8,7.062,4.271.023.081-.044-.12.971,2.858h-7a1.967,1.967,0,0,0-.881,3.723v5.908H33.985v-5.7ZM23.434,92.268C24.4,89.188,27.5,87.8,30.55,87.8H55.324c3.406,0,6.376,1.8,7.062,4.271.023.081-.057-.156.971,2.858H22.6Zm61.374,22.863h4.3a1.967,1.967,0,1,0,0-3.933H80.354V98.863h22.429V111.2H94.764a1.967,1.967,0,1,0,0,3.933h3.564v6.391H84.808ZM39.863,107h6.351v14.525H39.863ZM121.6,129.388h-7.29V116.226h7.29Z" transform="translate(0 -15.327)"/></svg>