<svg xmlns="http://www.w3.org/2000/svg" width="70.385" height="28.903" viewBox="0 0 70.385 28.903"><defs><style>.a{fill:#fff;}</style></defs><g transform="translate(-5 86)"><g transform="translate(5 -86)"><path class="a" d="M68.185,137.032h-2.2v-1.806a2.032,2.032,0,0,0-2.2-1.806h-2.2v-1.806c0-2-1.97-3.613-4.4-3.613H4.4c-2.43,0-4.4,1.618-4.4,3.613V153.29c0,2,1.97,3.613,4.4,3.613H57.188c2.43,0,4.4-1.618,4.4-3.613v-1.806h2.2a2.032,2.032,0,0,0,2.2-1.806v-1.806h2.2a2.032,2.032,0,0,0,2.2-1.806v-7.226A2.032,2.032,0,0,0,68.185,137.032Zm-11-1.806V153.29H26.394V131.613H57.188Z" transform="translate(0 -128)"/></g></g></svg>