<svg xmlns="http://www.w3.org/2000/svg" width="73.383" height="54.516" viewBox="0 0 73.383 54.516"><defs><style>.a{fill:#fff;stroke:#fff;stroke-width:3px;}</style></defs><g transform="translate(1.5 -54.9)"><g transform="translate(0 56.4)"><path class="a" d="M69.178,81.087H63.224c2.475-5.62,2.208-10.169,1.271-13.247A15.926,15.926,0,0,0,49.442,56.4a18.821,18.821,0,0,0-6.49,1.2,33.66,33.66,0,0,0-7.493,3.747A32.121,32.121,0,0,0,27.966,57.6a19.109,19.109,0,0,0-6.49-1.2A15.926,15.926,0,0,0,6.423,67.841C5.486,71.119,5.152,76.07,8.3,82.292H1.07a1.07,1.07,0,0,0,0,2.141h8.5a14.124,14.124,0,0,0,1.2,1.806c6.958,10.036,22.078,20.941,24.821,21.61v.067a.207.207,0,0,0,.134-.067h.2v-.067c2.342-1.137,16.86-10.5,24.487-21.61a24.613,24.613,0,0,0,1.873-3.011h7.025a1.057,1.057,0,0,0,1.07-1.07A1.124,1.124,0,0,0,69.178,81.087Zm-10.7,3.947c-7.092,10.37-20.138,18.733-22.948,20.539-2.877-1.806-15.856-10.236-23.015-20.539l-.4-.6h9.835a1.1,1.1,0,0,0,1-.6L27.431,75l7.025,18a1.1,1.1,0,0,0,1,.669h.067a1.066,1.066,0,0,0,1-.8l6.155-21.075,3.278,10.638a1.091,1.091,0,0,0,.87.736,1.158,1.158,0,0,0,1.07-.468l2.609-3.814,2.208,3.747a1.068,1.068,0,0,0,.937.535h6.021C59.277,83.831,58.875,84.433,58.474,85.035Zm2.409-3.947H54.326L51.583,76.4a1.068,1.068,0,0,0-.937-.535,1.012,1.012,0,0,0-.937.468l-2.275,3.345-3.68-11.976a1.241,1.241,0,0,0-1.07-.8,1.145,1.145,0,0,0-1.07.8L35.392,89.183,28.635,71.922a1.006,1.006,0,0,0-.937-.669,1.038,1.038,0,0,0-1,.6l-5.285,10.37H10.771C8.1,77.341,7.359,72.658,8.564,68.443a13.668,13.668,0,0,1,12.979-9.835,17.8,17.8,0,0,1,5.754,1.07,32.525,32.525,0,0,1,7.56,3.88,1.017,1.017,0,0,0,1.338,0,29.168,29.168,0,0,1,7.56-3.88,16.174,16.174,0,0,1,5.754-1.07,13.734,13.734,0,0,1,12.979,9.835C63.625,72.323,63.023,76.6,60.882,81.087Z" transform="translate(0 -56.4)"/></g></g></svg>