<svg xmlns="http://www.w3.org/2000/svg" width="1297.317" height="667.322" viewBox="0 0 1297.317 667.322"><defs><style>.a{fill:#d5f7ff;}.b{fill:#aaecff;}.c{fill:#ff9761;}.d,.h{fill:#e54c29;}.e{fill:#ff7752;}.f{fill:#a8694a;}.g{fill:#601212;}.h{opacity:0.58;}.i{fill:#c1260c;}.j{fill:#ffe69d;}.k{fill:#f9bd46;}.l{fill:#84472c;}.m{fill:#84c330;}.n,.p{fill:#fed3b2;}.o{fill:#f7b88d;}.p{opacity:0.5;}.q{fill:#6ba314;}.r{fill:#612f00;}.s{fill:#c63434;}.t{fill:#eae8e8;}.u{fill:#753b14;}.v{fill:#ffc999;}.w{fill:#494848;}.x{fill:#c64747;}.y{fill:#f2eeeb;}.z{fill:#a83226;}.aa{fill:#fd7854;}.ab{fill:#704623;}.ac{fill:#d6d4d4;}</style></defs><g transform="translate(376.8 1455.204)"><g transform="translate(-376.8 -1455.204)"><g transform="translate(0 0)"><g transform="translate(0 0)"><path class="a" d="M1238.958,419.048c22.251,0,23.5-33.273,1.248-34.624-.832,0-1.767-.1-2.6-.1a43.718,43.718,0,0,0-6.446.52,40.982,40.982,0,0,0,.728-8.006,45.338,45.338,0,0,0-85.677-20.691,39.218,39.218,0,0,0-61.97,26.93c-1.456-.1-2.911-.208-4.367-.208a38.937,38.937,0,0,0-14.765,2.911c-17.572,7.174-12.165,33.376,6.758,33.376h167.091Z" transform="translate(-37.299 -266.619)"/><g transform="translate(462.904 81.752)"><path class="a" d="M1313.494,768.691,1084.434,499.183c-34.52-2.911-37.848-20.483-78.5-20.483-44.19,0-44.19,20.9-88.484,20.9-44.19,0-44.19-20.9-88.484-20.9-40.655,0-43.982,17.676-78.607,20.483L521.4,768.691Z" transform="translate(-521.4 -342.517)"/><path class="b" d="M908.791,504.808c-44.19,0-44.19-20.9-88.484-20.9-40.655,0-43.982,17.676-78.606,20.483L849.628,377.436c33.688-39.615,84.637-39.615,118.325,0l107.824,126.955c-34.52-2.911-37.848-20.483-78.5-20.483C952.981,483.909,952.981,504.808,908.791,504.808Z" transform="translate(-512.639 -347.725)"/></g><g transform="translate(19.756 271.899)"><rect class="c" width="178.424" height="81.102" transform="translate(51.676 102.937)"/><g transform="translate(66.129 141.512)"><rect class="d" width="45.23" height="28.49"/><rect class="d" width="45.23" height="28.49" transform="translate(104.185)"/><rect class="d" width="25.994" height="28.49" transform="translate(62.282)"/></g><path class="e" d="M236.088,573.23c-62.282,0-115.934-17.468-140.888-42.63l37.848,129.347H339.025L376.873,530.6C352.022,555.762,298.37,573.23,236.088,573.23Z" transform="translate(-95.2 -530.6)"/><path class="d" d="M128.1,643l3.639,12.477H337.821L341.46,643Z" transform="translate(-93.892 -526.13)"/><g transform="translate(199.011)"><path class="d" d="M315.609,560.857,286.6,659.947h46.062L370.509,530.6C358.344,542.869,339.212,553.371,315.609,560.857Z" transform="translate(-286.6 -530.6)"/></g><path class="f" d="M326.814,711.086H141.943a3.728,3.728,0,0,1-3.743-3.743h0a3.728,3.728,0,0,1,3.743-3.743H326.918a3.728,3.728,0,0,1,3.743,3.743h0A3.888,3.888,0,0,1,326.814,711.086Z" transform="translate(-93.49 -523.72)"/><g transform="translate(51.26 180.815)"><rect class="f" width="6.447" height="53.132"/><g transform="translate(19.132)"><rect class="f" width="6.447" height="53.132"/></g><g transform="translate(38.367)"><rect class="f" width="6.447" height="53.132"/></g><g transform="translate(57.603)"><rect class="f" width="6.447" height="53.132"/></g><g transform="translate(76.735)"><rect class="f" width="6.447" height="53.132"/></g><g transform="translate(95.97)"><rect class="f" width="6.447" height="53.132"/></g><g transform="translate(115.206)"><rect class="f" width="6.447" height="53.132"/></g><g transform="translate(134.338)"><rect class="f" width="6.447" height="53.132"/></g><g transform="translate(153.574)"><rect class="f" width="6.447" height="53.132"/></g><g transform="translate(172.705)"><rect class="f" width="6.447" height="53.132"/></g></g><g transform="translate(54.692 212.84)"><rect class="f" width="172.809" height="6.447"/></g></g><path class="b" d="M736.944,513.7,521.4,767.3H957.374L737.464,514.22C737.256,514.116,737.152,513.908,736.944,513.7Z" transform="translate(-58.496 -259.373)"/><path class="g" d="M660.9,707.6c.1,1.144.208,2.391.312,3.535C661.108,709.887,661,708.744,660.9,707.6Z" transform="translate(-52.948 -251.662)"/><path class="g" d="M660.1,700.1c.1.832.208,1.768.312,2.6C660.308,701.764,660.2,700.932,660.1,700.1Z" transform="translate(-52.98 -251.961)"/><path class="g" d="M660.4,702.6c.208,1.768.416,3.431.52,5.2C660.816,706.031,660.608,704.368,660.4,702.6Z" transform="translate(-52.968 -251.861)"/><path class="g" d="M661.2,711c.208,2.287.312,4.575.416,6.863C661.512,715.575,661.408,713.287,661.2,711Z" transform="translate(-52.936 -251.527)"/><path class="g" d="M661.212,711.135c-.1-1.144-.208-2.391-.312-3.535C661,708.744,661.108,709.887,661.212,711.135Z" transform="translate(-52.948 -251.662)"/><path class="g" d="M660.412,702.7c-.1-.832-.208-1.768-.312-2.6C660.2,700.932,660.308,701.764,660.412,702.7Z" transform="translate(-52.98 -251.961)"/><path class="g" d="M661.612,717.835c-.1-1.976-.208-4.055-.312-6.135h0C661.4,713.78,661.508,715.755,661.612,717.835Z" transform="translate(-52.933 -251.499)"/><path class="g" d="M660.92,707.8c-.208-1.664-.312-3.431-.52-5.2C660.608,704.368,660.816,706.031,660.92,707.8Z" transform="translate(-52.968 -251.861)"/><path class="g" d="M661.3,711.728h0a1.77,1.77,0,0,0-.1-.728A2.031,2.031,0,0,0,661.3,711.728Z" transform="translate(-52.936 -251.527)"/><path class="a" d="M934.9,768.132,714.882,515.053c-25.89-29.737-64.881-29.737-90.772,0L404.2,768.132Z" transform="translate(-63.157 -260.206)"/><path class="b" d="M664.3,610.608c-33.9,0-33.9-15.7-67.9-15.7-31.193,0-33.792,13.205-60.306,15.389l82.765-95.243c25.89-29.737,64.882-29.737,90.772,0L792.4,610.3c-26.514-2.184-29.01-15.389-60.2-15.389C698.3,595.011,698.3,610.608,664.3,610.608Z" transform="translate(-57.911 -260.206)"/><g transform="translate(829.11 254.119)"><path class="d" d="M991.862,517.035c-.208-1.976-2.5-3.535-5.095-3.535H983.44c-2.7,0-4.887,1.56-5.095,3.431L966.7,610.3h36.808Z" transform="translate(-869.898 -513.5)"/><path class="c" d="M988.76,587.8c-47-.312-85.781,79.542-87.86,136.209l173.641,1.352C1073.293,668.59,1035.654,588.112,988.76,587.8Z" transform="translate(-872.514 -510.545)"/><path class="h" d="M1045.9,725.153l25.682.208c-1.144-56.771-38.783-137.249-85.781-137.561a44.2,44.2,0,0,0-13.205,1.976C1013.567,602.565,1044.76,673.581,1045.9,725.153Z" transform="translate(-869.663 -510.545)"/><path class="d" d="M1080.96,737.823H895.466a9.541,9.541,0,0,1-9.566-9.566v-4.991a9.541,9.541,0,0,1,9.566-9.566H1080.96a9.541,9.541,0,0,1,9.566,9.566v4.991A9.475,9.475,0,0,1,1080.96,737.823Z" transform="translate(-873.111 -505.539)"/><path class="i" d="M1095.174,756.527H882.334a8.787,8.787,0,0,1-8.734-8.734v-6.758a8.787,8.787,0,0,1,8.734-8.734H1095.07a8.787,8.787,0,0,1,8.734,8.734v6.758A8.632,8.632,0,0,1,1095.174,756.527Z" transform="translate(-873.6 -504.799)"/><g transform="translate(29.425 83.453)"><g transform="translate(20.116 76.376)"><rect class="d" width="10.294" height="10.294" transform="translate(0 7.344) rotate(-45)"/><rect class="d" width="10.294" height="10.294" transform="translate(39.068 7.279) rotate(-45)"/><rect class="d" width="10.294" height="10.294" transform="translate(78.062 7.287) rotate(-45)"/><rect class="d" width="10.294" height="10.294" transform="translate(117.057 7.295) rotate(-45)"/></g><g transform="translate(29.945 22.1)"><rect class="d" width="10.294" height="10.294" transform="translate(29.239 7.279) rotate(-45)"/><rect class="d" width="10.294" height="10.294" transform="translate(68.233 7.287) rotate(-45)"/><path class="d" d="M934.547,621.2c-1.352,1.872-2.6,3.743-3.847,5.615l4.679-4.679Z" transform="translate(-930.7 -614.77)"/><path class="d" d="M1040.039,628.286q-2.34-3.9-4.991-7.486l-1.248,1.248Z" transform="translate(-926.6 -614.786)"/></g><g transform="translate(0 104.022)"><rect class="d" width="10.294" height="10.294" transform="translate(35.831 7.292) rotate(-45)"/><rect class="d" width="10.294" height="10.294" transform="translate(78.058 7.322) rotate(-45)"/><rect class="d" width="10.294" height="10.294" transform="translate(120.358 7.279) rotate(-45)"/><path class="d" d="M910.01,701.035l-6.135-6.135c-.832,4.263-1.456,8.422-1.976,12.581l.832.832Z" transform="translate(-901.9 -693.762)"/><path class="d" d="M1065.478,708.345l1.664-1.664c-.52-4.159-1.144-8.318-1.872-12.581l-7.071,7.07Z" transform="translate(-895.685 -693.793)"/></g><g transform="translate(35.822 49.647)"><rect class="d" width="10.294" height="10.294" transform="translate(0 7.292) rotate(-45)"/><rect class="d" width="10.294" height="10.294" transform="translate(42.227 7.322) rotate(-45)"/><rect class="d" width="10.294" height="10.294" transform="translate(84.527 7.279) rotate(-45)"/></g><rect class="d" width="10.294" height="10.294" transform="translate(78.025 7.279) rotate(-45)"/></g><rect class="d" width="69.144" height="24.746" transform="translate(80.582 66.545)"/></g><g transform="translate(291.031 133.922)"><rect class="j" width="106.368" height="94.619" transform="translate(45.75 277.306)"/><rect class="j" width="91.084" height="80.998" transform="translate(53.444 197.452)"/><rect class="j" width="74.343" height="66.129" transform="translate(61.762 132.57)"/><rect class="j" width="50.221" height="44.606" transform="translate(73.823 78.19)"/><rect class="j" width="41.279" height="36.704" transform="translate(78.294 38.575)"/><rect class="j" width="26.202" height="23.291" transform="translate(85.781 9.046)"/><rect class="k" width="6.758" height="23.291" transform="translate(105.224 9.046)"/><rect class="k" width="14.349" height="36.704" transform="translate(105.224 38.575)"/><rect class="k" width="18.82" height="44.606" transform="translate(105.224 78.19)"/><rect class="k" width="30.881" height="66.129" transform="translate(105.224 132.57)"/><rect class="k" width="39.199" height="80.998" transform="translate(105.224 197.452)"/><rect class="k" width="46.893" height="94.619" transform="translate(105.224 277.306)"/><rect class="k" width="35.248" height="8.526" transform="translate(81.31 6.655)"/><path class="f" d="M475.313,408.818c-2.7-6.55-10.813-10.918-19.963-10.918h-6.239c-9.15,0-17.26,4.471-19.964,10.918l-1.248,3.119h48.661Z" transform="translate(-353.245 -397.9)"/><rect class="k" width="55.42" height="13.517" transform="translate(71.224 34.936)"/><path class="f" d="M489.055,438.46c-4.159-10.294-16.948-17.26-31.4-17.26h-9.878c-14.453,0-27.242,6.966-31.4,17.26l-1.976,4.887h76.839Z" transform="translate(-353.782 -396.973)"/><rect class="k" width="67.377" height="16.324" transform="translate(65.297 73.719)"/><path class="f" d="M497.276,477.4c-5.095-12.477-20.587-21-38.263-21H447.055c-17.572,0-33.065,8.526-38.263,21L406.4,483.33h93.267Z" transform="translate(-354.1 -395.574)"/><rect class="k" width="99.714" height="24.227" transform="translate(49.077 126.02)"/><path class="f" d="M519.346,531.785c-7.59-18.4-30.569-30.985-56.563-30.985H445c-25.994,0-48.973,12.581-56.563,30.985l-3.639,8.838H522.985Z" transform="translate(-354.959 -393.808)"/><rect class="k" width="122.173" height="29.737" transform="translate(37.847 189.342)"/><path class="f" d="M534.707,595.555c-9.254-22.563-37.432-38.055-69.352-38.055H443.623c-31.921,0-60.1,15.389-69.352,38.055L369.8,606.369H538.97Z" transform="translate(-355.555 -391.553)"/><rect class="k" width="142.76" height="34.728" transform="translate(27.554 267.948)"/><path class="f" d="M548.665,673.7c-10.814-26.41-43.67-44.4-81-44.4H442.3c-37.224,0-70.184,17.988-81,44.4l-5.2,12.581H553.864Z" transform="translate(-356.1 -388.698)"/><path class="l" d="M474.546,408.818c-2.7-6.55-10.814-10.918-19.963-10.918H447.2c8.734.312,16.324,4.679,18.82,10.918l1.248,3.119h8.526Z" transform="translate(-352.477 -397.9)"/><path class="l" d="M487.935,438.46c-4.159-10.294-16.948-17.26-31.4-17.26H445.2c13.829.416,25.89,7.278,29.945,17.156l1.976,4.887H489.91Z" transform="translate(-352.557 -396.973)"/><path class="l" d="M495.721,477.4c-5.095-12.477-20.587-21-38.263-21H445.5c17.572,0,33.065,8.526,38.159,21l2.391,5.927h12.061Z" transform="translate(-352.545 -395.574)"/><path class="l" d="M517.206,531.785c-7.59-18.4-30.569-30.985-56.563-30.985h-17.78c-1.456,0-2.911,0-4.263.1,24.227,1.248,45.126,13.517,52.3,30.881l3.639,8.838h26.306Z" transform="translate(-352.819 -393.808)"/><path class="l" d="M532,595.555c-9.254-22.563-37.432-38.055-69.352-38.055H437.9c30.673.936,57.4,16.116,66.337,37.952l4.471,10.813H536.47Z" transform="translate(-352.847 -391.553)"/><path class="l" d="M545.507,673.7c-10.814-26.41-43.67-44.4-81-44.4h-25.37c-1.248,0-2.391,0-3.639.1,35.768,1.144,66.857,18.82,77.359,44.4l5.2,12.581H550.81Z" transform="translate(-352.943 -388.698)"/><path class="f" d="M452.1,701.4c-11.645,0-21,11.333-21,25.266v31.193h42.007V726.667C473.107,712.629,463.645,701.4,452.1,701.4Z" transform="translate(-353.118 -385.831)"/><path class="l" d="M451.63,701.4a17.536,17.536,0,0,0-8.63,2.287c7.278,3.951,12.373,12.789,12.373,22.979v31.193h17.364V726.667C472.633,712.629,463.172,701.4,451.63,701.4Z" transform="translate(-352.644 -385.831)"/></g><path class="m" d="M1360.728,754.9H88.885A12.736,12.736,0,0,0,76.2,767.585V775.8a12.736,12.736,0,0,0,12.685,12.685H1360.832a12.736,12.736,0,0,0,12.685-12.685v-8.214A12.758,12.758,0,0,0,1360.728,754.9Z" transform="translate(-76.2 -249.781)"/><g transform="translate(490.146 38.159)"><g transform="translate(85.365)"><path class="n" d="M670.459,352.174c0,22.563-20.379,40.759-20.379,40.759s-20.379-18.3-20.379-40.759S650.079,305.8,650.079,305.8,670.459,329.611,670.459,352.174Z" transform="translate(-629.7 -305.8)"/><path class="o" d="M656.214,314.118c-3.431-5.095-6.135-8.318-6.135-8.318S629.7,329.611,629.7,352.174s20.379,40.759,20.379,40.759.624-.52,1.664-1.56c-5.927-7.382-13.725-19.652-13.725-33.584C638.018,339.8,651.015,320.877,656.214,314.118Z" transform="translate(-629.7 -305.8)"/><path class="n" d="M670.141,351.855c0-14.349-8.214-29.113-14.245-38.055-5.2,6.758-18.2,25.682-18.2,43.67,0,13.933,7.8,26.2,13.725,33.584C656.208,386.168,670.141,370.467,670.141,351.855Z" transform="translate(-629.382 -305.482)"/></g><g transform="translate(74.447 92.955)"><path class="n" d="M636.564,395.2h27.969l17.26,314.737H619.2Z" transform="translate(-619.2 -395.2)"/><path class="p" d="M650.34,395.2h13L680.6,709.937H649.3V395.2Z" transform="translate(-618.003 -395.2)"/></g><g transform="translate(74.447 92.955)"><path class="n" d="M636.564,395.2h27.969l17.26,314.737H619.2Z" transform="translate(-619.2 -395.2)"/><path class="o" d="M650.34,395.2h13L680.6,709.937H649.3V395.2Z" transform="translate(-618.003 -395.2)"/></g><path class="n" d="M675.547,690.3h0l-6.447,8.838h0Z" transform="translate(-542.769 -290.51)"/><g transform="translate(10.398 401.038)"><path class="n" d="M639.014,691.5H557.6L589,750.871H717l31.3-59.371Z" transform="translate(-557.6 -691.5)"/><path class="o" d="M639.014,691.5H557.6l6.447,8.942h177.8l6.446-8.942Z" transform="translate(-557.6 -691.5)"/><path class="o" d="M649.5,700.1v50.429h63.842l24.85-50.429Z" transform="translate(-553.945 -691.158)"/></g><rect class="f" width="211.593" height="11.022" transform="translate(0 393.552)"/><rect class="f" width="154.925" height="10.398" transform="translate(28.282 457.289)"/><path class="n" d="M663.024,698.1h0Z" transform="translate(-543.035 -290.199)"/><path class="n" d="M649.516,406.014h0L649.1,395.2Z" transform="translate(-543.564 -302.245)"/><path class="o" d="M663.886,395.2h-27.97l-.416,10.814h28.7Z" transform="translate(-544.105 -302.245)"/><rect class="o" width="36.6" height="18.508" transform="translate(87.444 68.729)"/><rect class="f" width="51.468" height="19.86" transform="translate(79.958 78.606)"/><rect class="l" width="26.514" height="19.86" transform="translate(105.12 78.606)"/></g><path class="a" d="M335.4,470.416c22.771,0,24.019-34,1.248-35.352-.936,0-1.768-.1-2.7-.1a45.148,45.148,0,0,0-6.551.52,43.106,43.106,0,0,0,.728-8.214,46.205,46.205,0,0,0-87.34-21,39.94,39.94,0,0,0-63.218,27.45,30.713,30.713,0,0,0-4.367-.208,40.543,40.543,0,0,0-15.077,2.911c-17.884,7.278-12.477,34,6.862,34Z" transform="translate(-73.376 -264.646)"/><path class="a" d="M578.015,347.5c19.964,0,21-29.841,1.144-30.985-.728,0-1.56-.1-2.391-.1a34.448,34.448,0,0,0-5.719.416,40.559,40.559,0,0,0-76.007-25.682,34.713,34.713,0,0,0-20.691-6.758,35.077,35.077,0,0,0-34.832,30.777c-1.248-.1-2.6-.208-3.847-.208a34.765,34.765,0,0,0-13.205,2.6c-15.7,6.343-10.917,29.841,6.031,29.841H578.015Z" transform="translate(-62.81 -269.1)"/><path class="a" d="M909.857,375.248c22.251,0,23.5-33.273,1.248-34.624-.832,0-1.768-.1-2.6-.1a43.724,43.724,0,0,0-6.447.52,40.964,40.964,0,0,0,.728-8.006,45.338,45.338,0,0,0-85.677-20.691,39.218,39.218,0,0,0-61.97,26.93c-1.456-.1-2.911-.208-4.367-.208a38.937,38.937,0,0,0-14.765,2.911c-17.572,7.174-12.165,33.377,6.758,33.377h167.09Z" transform="translate(-50.386 -268.36)"/><path class="a" d="M1330.672,785.8H112.377c-6.862,0-12.477,7.694-12.477,17.26v8.63c0,9.462,5.615,17.26,12.477,17.26h66.649c5.615,0,10.19,5.615,10.19,12.373h0c0,6.862-4.575,12.373-10.19,12.373H139.619c-6.447,0-11.853,6.446-11.853,14.349h0c0,7.9,5.3,14.349,11.853,14.349H262.727c3.535,0,6.447,3.535,6.447,7.9s-2.911,7.9-6.447,7.9h-86.4c-2.807,0-5.095,3.119-5.095,7.07V908.8c0,3.847,2.287,7.07,5.095,7.07h1090.4c2.807,0,5.095-3.119,5.095-7.07v-3.535c0-3.847-2.287-7.07-5.095-7.07h-86.4c-3.535,0-6.446-3.535-6.446-7.9s2.911-7.9,6.446-7.9H1303.43c6.446,0,11.853-6.447,11.853-14.349h0c0-7.9-5.3-14.349-11.853-14.349h-39.407c-5.615,0-10.19-5.615-10.19-12.373h0c0-6.863,4.575-12.373,10.19-12.373h66.649c6.863,0,12.477-7.694,12.477-17.26v-8.63C1343.149,793.6,1337.534,785.8,1330.672,785.8Z" transform="translate(-75.258 -248.552)"/><g transform="translate(253.391 468.727)"><path class="m" d="M409.32,756.188a45.687,45.687,0,0,0-89.42,0Z" transform="translate(-319.9 -719.9)"/><path class="q" d="M321.976,748.2A37.26,37.26,0,0,0,320,755.063h89.316a47.625,47.625,0,0,0-1.976-6.862Z" transform="translate(-319.896 -718.775)"/><path class="q" d="M363.5,719.9a45.392,45.392,0,0,0-13.1,1.976,45.58,45.58,0,0,1,31.5,34.312h26.306A45.812,45.812,0,0,0,363.5,719.9Z" transform="translate(-318.687 -719.9)"/></g><g transform="translate(74.239 477.981)"><path class="m" d="M214.145,755.834a33.992,33.992,0,0,0-66.545,0Z" transform="translate(-147.6 -728.8)"/><path class="q" d="M149.156,749.9a28.552,28.552,0,0,0-1.456,5.095h66.545a41,41,0,0,0-1.456-5.095Z" transform="translate(-147.596 -727.961)"/><path class="q" d="M180.074,728.9a33.677,33.677,0,0,0-9.774,1.456,33.991,33.991,0,0,1,23.5,25.578h19.548A34,34,0,0,0,180.074,728.9Z" transform="translate(-146.697 -728.796)"/></g><g transform="translate(456.354 473.094)"><path class="m" d="M593.706,756.021a40.157,40.157,0,0,0-78.606,0Z" transform="translate(-515.1 -724.1)"/><path class="q" d="M516.868,749a40.129,40.129,0,0,0-1.768,6.031h78.71A40.127,40.127,0,0,0,592.043,749Z" transform="translate(-515.1 -723.11)"/><path class="q" d="M553.341,724.1a41.831,41.831,0,0,0-11.541,1.664,40.275,40.275,0,0,1,27.762,30.257h23.083A40.16,40.16,0,0,0,553.341,724.1Z" transform="translate(-514.038 -724.1)"/></g><g transform="translate(805.611 469.455)"><path class="m" d="M938.648,756.16a44.723,44.723,0,0,0-87.548,0Z" transform="translate(-850.996 -720.6)"/><path class="q" d="M852.976,748.4A46.273,46.273,0,0,0,851,755.159h87.652a50.364,50.364,0,0,0-1.975-6.758Z" transform="translate(-851 -719.495)"/><path class="q" d="M893.693,720.6a43.943,43.943,0,0,0-12.893,1.872,44.955,44.955,0,0,1,30.985,33.689h25.786A45.019,45.019,0,0,0,893.693,720.6Z" transform="translate(-849.815 -720.6)"/></g><g transform="translate(882.346 475.173)"><path class="m" d="M998.416,755.941a37.621,37.621,0,0,0-73.616,0Z" transform="translate(-924.8 -726.1)"/><path class="q" d="M926.464,749.4a34.845,34.845,0,0,0-1.664,5.615h73.615a31.976,31.976,0,0,0-1.664-5.615Z" transform="translate(-924.8 -725.173)"/><path class="q" d="M960.614,726.1a37.254,37.254,0,0,0-10.813,1.56,37.637,37.637,0,0,1,25.994,28.282h21.627A37.679,37.679,0,0,0,960.614,726.1Z" transform="translate(-923.806 -726.1)"/></g><g transform="translate(14.141 469.455)"><path class="m" d="M177.348,756.16a44.723,44.723,0,0,0-87.548,0Z" transform="translate(-89.8 -720.6)"/><path class="q" d="M91.776,748.4a46.252,46.252,0,0,0-1.976,6.758h87.548a50.36,50.36,0,0,0-1.976-6.758Z" transform="translate(-89.8 -719.495)"/><path class="q" d="M132.393,720.6a43.942,43.942,0,0,0-12.893,1.872,44.651,44.651,0,0,1,30.881,33.689h25.786A44.817,44.817,0,0,0,132.393,720.6Z" transform="translate(-88.619 -720.6)"/></g><g transform="translate(1043.51 96.594)"><rect class="f" width="16.012" height="34.104" transform="translate(109.695 24.746)"/><rect class="r" width="7.694" height="34.104" transform="translate(118.014 24.746)"/><path class="k" d="M1201.635,379.5h-16.22l-5.615,14.661h27.45Z" transform="translate(-1075.823 -361.304)"/><path class="j" d="M1179.2,391.737h28.7L1193.549,362Z" transform="translate(-1075.847 -362)"/><rect class="f" width="27.034" height="57.707" transform="translate(104.185 51.676)"/><rect class="r" width="8.63" height="57.707" transform="translate(122.588 51.676)"/><path class="k" d="M1207.612,401h-27.45l-9.462,24.746h46.374Z" transform="translate(-1076.185 -360.449)"/><path class="j" d="M1207.612,398.6h-27.45l-9.462,24.85h46.374Z" transform="translate(-1076.185 -360.545)"/><rect class="f" width="48.453" height="103.353" transform="translate(93.475 98.05)"/><rect class="r" width="12.581" height="103.353" transform="translate(129.347 98.05)"/><path class="k" d="M1219.125,437.1h-49.077L1153.1,481.6h82.973Z" transform="translate(-1076.885 -359.014)"/><path class="j" d="M1219.125,432.9h-49.077L1153.1,477.4h82.973Z" transform="translate(-1076.885 -359.181)"/><rect class="f" width="83.909" height="179.152" transform="translate(75.799 173.745)"/><rect class="r" width="29.425" height="179.152" transform="translate(130.179 173.745)"/><path class="k" d="M1238.378,495.8h-85.157L1123.9,572.951h143.7Z" transform="translate(-1078.046 -356.679)"/><path class="j" d="M1238.378,488.5h-85.157L1123.9,565.651h143.7Z" transform="translate(-1078.046 -356.97)"/><rect class="f" width="137.457" height="133.922" transform="translate(48.973 274.29)"/><rect class="r" width="25.058" height="133.922" transform="translate(161.372 274.29)"/><rect class="r" width="137.457" height="53.444" transform="translate(48.973 274.29)"/><path class="k" d="M1267.27,590H1127.733L1079.8,672.661h235.4Z" transform="translate(-1079.8 -352.933)"/><path class="j" d="M1267.27,582.2H1127.733L1079.8,664.862h235.4Z" transform="translate(-1079.8 -353.243)"/><path class="k" d="M1196.535,391.737h10.814L1193,362Z" transform="translate(-1075.298 -362)"/><path class="k" d="M1216.012,423.45h-15.7L1197.4,398.6h9.15Z" transform="translate(-1075.124 -360.545)"/><path class="k" d="M1234.153,477.406H1206.7l-5.3-44.606h15.8Z" transform="translate(-1074.964 -359.185)"/><path class="k" d="M1264.252,565.651h-47L1208,488.5h27.034Z" transform="translate(-1074.702 -356.97)"/><path class="k" d="M1309.66,664.862h-80.686L1219.2,582.2h42.526Z" transform="translate(-1074.257 -353.243)"/><path class="r" d="M1194.971,684.2h-1.976a23.32,23.32,0,0,0-23.395,23.187V757.4h48.869V707.387A23.477,23.477,0,0,0,1194.971,684.2Z" transform="translate(-1076.229 -349.187)"/><path class="k" d="M1207.349,391.737h-10.814L1193,362Z" transform="translate(-1075.298 -362)"/><path class="k" d="M1216.012,423.45h-15.7L1197.4,398.6h9.15Z" transform="translate(-1075.124 -360.545)"/><path class="k" d="M1234.153,477.406H1206.7l-5.3-44.606h15.8Z" transform="translate(-1074.964 -359.185)"/><path class="k" d="M1264.252,565.651h-47L1208,488.5h27.034Z" transform="translate(-1074.702 -356.97)"/><path class="k" d="M1309.66,664.862h-80.686L1219.2,582.2h42.526Z" transform="translate(-1074.257 -353.243)"/></g><g transform="translate(1188.141 469.455)"><path class="m" d="M1306.548,756.16a44.723,44.723,0,0,0-87.548,0Z" transform="translate(-1218.896 -720.6)"/><path class="q" d="M1220.876,748.4a46.273,46.273,0,0,0-1.976,6.758h87.548a50.311,50.311,0,0,0-1.976-6.758Z" transform="translate(-1218.9 -719.495)"/><path class="q" d="M1261.593,720.6a43.943,43.943,0,0,0-12.893,1.872,44.651,44.651,0,0,1,30.881,33.689h25.786A44.818,44.818,0,0,0,1261.593,720.6Z" transform="translate(-1217.715 -720.6)"/></g><g transform="translate(641.819 313.49)"><g transform="translate(0)"><g transform="translate(0 20.412)"><g transform="translate(0 0)"><rect class="s" width="17.988" height="12.373" transform="matrix(-0.861, -0.508, 0.508, -0.861, 15.537, 19.797)"/><rect class="t" width="6.239" height="17.988" transform="matrix(0.508, -0.861, 0.861, 0.508, 0, 10.601)"/></g><path class="u" d="M701.013,622.766h0a.742.742,0,0,0,1.04-.312l14.037-23.811a.742.742,0,0,0-.312-1.04h0a.742.742,0,0,0-1.04.312L700.7,621.727A.941.941,0,0,0,701.013,622.766Z" transform="translate(-693.187 -589.942)"/></g><path class="v" d="M697.317,614.717l-.624.312h0a4.412,4.412,0,0,0-1.56,6.551l4.367,6.135,2.911-1.56.624-.312,2.911-1.56-2.391-7.07a4.514,4.514,0,0,0-6.239-2.5Z" transform="translate(-693.441 -568.863)"/><g transform="translate(47.601 169.69)"><path class="l" d="M745.956,760.736h-1.872a5.01,5.01,0,0,1-4.783-5.823l1.144-9.67a1.329,1.329,0,0,1,1.248-1.144h6.654a1.248,1.248,0,0,1,1.248,1.144l1.04,9.67A4.884,4.884,0,0,1,745.956,760.736Z" transform="translate(-739.253 -733.391)"/><rect class="v" width="8.006" height="13.829" transform="translate(1.817)"/><path class="v" d="M745.828,759.625h-1.664a4.288,4.288,0,0,1-4.263-4.783l1.144-8.942h8.006l1.04,9.046A4.254,4.254,0,0,1,745.828,759.625Z" transform="translate(-739.229 -733.319)"/><path class="l" d="M750.41,755.719H739.7l.312-5.719H750.1Z" transform="translate(-739.235 -733.156)"/><g transform="translate(14.349)"><path class="l" d="M759.756,760.736h-1.872a5.01,5.01,0,0,1-4.783-5.823l1.144-9.67a1.329,1.329,0,0,1,1.248-1.144h6.655a1.248,1.248,0,0,1,1.248,1.144l1.04,9.67A5,5,0,0,1,759.756,760.736Z" transform="translate(-753.053 -733.391)"/><rect class="v" width="8.006" height="13.829" transform="translate(1.713)"/><path class="v" d="M759.628,759.625h-1.664a4.288,4.288,0,0,1-4.263-4.783l1.144-8.942h8.006l1.04,9.046A4.377,4.377,0,0,1,759.628,759.625Z" transform="translate(-753.029 -733.319)"/><path class="l" d="M764.11,755.719H753.4l.312-5.719H763.8Z" transform="translate(-753.039 -733.156)"/></g></g><g transform="translate(35.901)"><ellipse class="w" cx="7.174" cy="5.407" rx="7.174" ry="5.407" transform="translate(17.468)"/><path class="x" d="M751.962,581.2c3.327,0,6.031-1.664,6.862-3.951A22.309,22.309,0,0,0,751.858,576a20.485,20.485,0,0,0-6.758,1.144C745.828,579.535,748.635,581.2,751.962,581.2Z" transform="translate(-727.32 -570.385)"/><g transform="translate(0 7.07)"><path class="w" d="M774.214,608.9a25.443,25.443,0,0,0,1.144-7.382c0-12.685-10.294-24.123-22.979-24.123S729.4,588.837,729.4,601.523a25.442,25.442,0,0,0,1.144,7.382Z" transform="translate(-727.944 -577.4)"/><g transform="translate(2.911 3.743)"><path class="v" d="M774.054,603.553a36.352,36.352,0,0,1-9.358-.624c-8.318-1.664-15.076-6.031-18.612-11.229-4.055,6.342-9.878,10.5-15.285,11.229V602.2c0,11.957,9.67,23.811,21.627,23.811s21.627-11.853,21.627-23.811C774.054,602.722,774.054,603.137,774.054,603.553Z" transform="translate(-730.8 -580.575)"/><path class="w" d="M746.085,592.125c3.535,5.2,10.294,9.462,18.612,11.229a36.059,36.059,0,0,0,9.358.624c0-.416.1-.832.1-1.352A21.611,21.611,0,0,0,752.531,581a11.943,11.943,0,0,0-1.976.1,5.21,5.21,0,0,0-1.248.208c-.208,0-.52.1-.728.1l-1.248.312a4.5,4.5,0,0,0-.52.1c-.416.1-.936.312-1.352.416-.1,0-.208.1-.312.1-.52.208-1.04.416-1.456.624a20.839,20.839,0,0,0-3.847,2.287c-.1.1-.208.1-.312.208a17.957,17.957,0,0,0-2.911,2.7l-.416.416a5.21,5.21,0,0,1-.728.832c-.208.208-.312.416-.52.624a3.643,3.643,0,0,0-.52.832,9.508,9.508,0,0,0-.832,1.352,5.084,5.084,0,0,0-.312.728c-.208.312-.312.728-.52,1.04a5.077,5.077,0,0,0-.312.728c-.208.416-.312.832-.52,1.352a.789.789,0,0,1-.208.416,10.877,10.877,0,0,0-.416,1.768,4.5,4.5,0,0,1-.1.52,7.015,7.015,0,0,0-.208,1.456,1.32,1.32,0,0,1-.1.624,12.571,12.571,0,0,0-.1,1.975v.728C736.207,602.627,742.03,598.468,746.085,592.125Z" transform="translate(-730.8 -581)"/></g><g transform="translate(13.725 28.074)"><circle class="w" cx="1.04" cy="1.04" r="1.04" transform="translate(19.548)"/><circle class="w" cx="1.04" cy="1.04" r="1.04"/></g><g transform="translate(19.652 36.808)"><path class="x" d="M756.674,612.8v1.664a4.792,4.792,0,0,1-1.04,2.7,4.932,4.932,0,0,1-3.847,1.872,4.906,4.906,0,0,1-4.887-4.575V612.8Z" transform="translate(-746.9 -612.8)"/><path class="y" d="M756.674,612.8v1.664H746.9V612.8Z" transform="translate(-746.9 -612.8)"/></g><ellipse class="v" cx="2.807" cy="3.015" rx="2.807" ry="3.015" transform="translate(0 25.89)"/><ellipse class="v" cx="2.807" cy="3.015" rx="2.807" ry="3.015" transform="translate(43.566 25.89)"/></g><path class="v" d="M746.7,623v5.407c0,3.119,5.2,5.719,5.2,5.719s5.2-2.6,5.2-5.719V623a11.7,11.7,0,0,1-5.3,1.248A14.114,14.114,0,0,1,746.7,623Z" transform="translate(-727.256 -568.516)"/></g><path class="v" d="M772.967,671.682H732V635.5a7.788,7.788,0,0,1,7.8-7.8h25.37a7.788,7.788,0,0,1,7.8,7.8Z" transform="translate(-691.94 -568.329)"/><path class="l" d="M770.363,680.641V666.5H734.8v14.141h-5.3l8.318,60.722h29.529l8.318-60.722Z" transform="translate(-692.04 -566.786)"/><rect class="d" width="40.863" height="34.624" transform="translate(40.06 67.585)"/><g transform="translate(40.06 97.218)"><rect class="z" width="40.863" height="6.343"/><path class="z" d="M751.947,665.9,748.1,696.677h9.15L755.794,665.9Z" transform="translate(-731.36 -664.028)"/><path class="z" d="M750.7,665.9l4.887,27.034,5.511-1.144-7.174-25.89Z" transform="translate(-731.256 -664.028)"/></g><g transform="translate(33.405 59.475)"><g transform="translate(33.377)"><path class="aa" d="M778.5,682.852,763,695.537,757.7,665.8h11.541Z" transform="translate(-757.7 -626.289)"/><path class="aa" d="M771.821,671.678H758.2V627.8h5.927a7.677,7.677,0,0,1,7.694,7.694Z" transform="translate(-757.68 -627.8)"/></g><path class="aa" d="M725.6,682.852l15.6,12.685,5.3-29.737H734.958Z" transform="translate(-725.6 -626.289)"/><path class="aa" d="M732.1,671.678h13.621V627.8h-5.927a7.677,7.677,0,0,0-7.694,7.694Z" transform="translate(-725.342 -627.8)"/><g transform="translate(6.655 37.744)"><rect class="i" width="40.863" height="6.343"/><path class="i" d="M751.947,665.7,748.1,696.685h9.15L755.69,665.7Z" transform="translate(-731.36 -664.036)"/><path class="i" d="M750.7,665.7l4.887,27.242L761.1,691.8l-7.174-26.1Z" transform="translate(-731.256 -664.036)"/></g></g><path class="aa" d="M790.1,650.02c-3.431-9.046-11.23-16.636-21.315-21a5.311,5.311,0,0,0-4.159,9.774c7.486,3.119,13.1,8.63,15.6,14.973,1.456,3.639,1.56,7.278.312,9.878-1.56,3.431-5.615,5.3-8.734,6.342v1.768h-.208l4.471,8.11c4.991-1.768,11.125-5.2,14.141-11.645C792.593,662.913,792.489,656.466,790.1,650.02Z" transform="translate(-690.772 -568.294)"/><path class="aa" d="M743.186,630.038a5.963,5.963,0,0,0-8.526,0c-2.08,2.08-9.358,8.006-14.869,7.59-2.807-.208-8.63-7.9-12.685-16.428L696.5,626.919c3.639,7.694,11.749,21.835,22.251,22.667.52,0,1.04.1,1.456.1,11.333,0,21.627-9.982,22.771-11.126A5.8,5.8,0,0,0,743.186,630.038Z" transform="translate(-693.352 -568.588)"/></g><g transform="translate(103.68 5.407)"><path class="v" d="M818.7,676.718l-.312.624h0a4.443,4.443,0,0,1-6.446,1.871l-6.239-4.159,1.456-3.015.312-.624,1.456-3.015,7.174,2.183a4.419,4.419,0,0,1,2.6,6.135Z" transform="translate(-792.69 -572.118)"/><g transform="translate(26.06 164.255)"><path class="ab" d="M822.981,760.736h1.872a5.01,5.01,0,0,0,4.783-5.823l-1.144-9.67a1.329,1.329,0,0,0-1.248-1.144h-6.655a1.248,1.248,0,0,0-1.248,1.144l-1.04,9.67A4.939,4.939,0,0,0,822.981,760.736Z" transform="translate(-818.251 -733.363)"/><rect class="v" width="8.006" height="13.829" transform="translate(9.651 13.829) rotate(180)"/><path class="v" d="M823.064,759.625h1.664a4.288,4.288,0,0,0,4.263-4.783l-1.144-8.942h-8.006l-1.04,9.046A4.314,4.314,0,0,0,823.064,759.625Z" transform="translate(-818.23 -733.291)"/><path class="ab" d="M818.6,755.719h10.71L829,750H818.912Z" transform="translate(-818.237 -733.128)"/></g><rect class="w" width="13.309" height="32.025" transform="translate(25.072 134.13)"/><g transform="translate(44.258 164.255)"><path class="ab" d="M840.481,760.736h1.872a5.01,5.01,0,0,0,4.783-5.823l-1.144-9.67a1.329,1.329,0,0,0-1.248-1.144H838.09a1.248,1.248,0,0,0-1.248,1.144l-1.04,9.67A5,5,0,0,0,840.481,760.736Z" transform="translate(-835.753 -733.363)"/><rect class="v" width="8.006" height="13.829" transform="translate(9.71 13.829) rotate(180)"/><path class="v" d="M840.564,759.625h1.664a4.288,4.288,0,0,0,4.263-4.783l-1.144-8.942H837.34l-1.04,9.046A4.377,4.377,0,0,0,840.564,759.625Z" transform="translate(-835.732 -733.291)"/><path class="ab" d="M836.1,755.719h10.71L846.5,750H836.412Z" transform="translate(-835.739 -733.128)"/></g><rect class="w" width="13.309" height="32.025" transform="translate(43.268 134.13)"/><path class="l" d="M853.059,672.1H813.444L812.3,712.027h42.007Z" transform="translate(-792.427 -571.97)"/><g transform="translate(77.996 14.89)"><g transform="translate(1.174 0)"><rect class="s" width="17.988" height="12.373" transform="matrix(0.861, -0.508, 0.508, 0.861, 0, 9.141)"/><rect class="t" width="17.988" height="6.239" transform="matrix(0.861, -0.508, 0.508, 0.861, 3.256, 14.587)"/></g><path class="u" d="M883.381,622.766h0a.743.743,0,0,1-1.04-.312L868.3,598.644a.742.742,0,0,1,.312-1.04h0a.743.743,0,0,1,1.04.312l14.037,23.811A.721.721,0,0,1,883.381,622.766Z" transform="translate(-868.2 -589.827)"/></g><path class="v" d="M886.93,614.717l.624.312h0a4.412,4.412,0,0,1,1.56,6.551l-4.367,6.135-2.911-1.56-.624-.312-2.911-1.56,2.391-7.07a4.574,4.574,0,0,1,6.239-2.5Z" transform="translate(-789.803 -574.27)"/><g transform="translate(16.234 1.56)"><path class="w" d="M855.21,609.117a24.338,24.338,0,0,0,1.248-7.694c0-12.685-10.294-24.123-22.979-24.123S810.5,588.737,810.5,601.423a24.334,24.334,0,0,0,1.248,7.694Z" transform="translate(-808.732 -577.3)"/><g transform="translate(3.015 3.847)"><path class="v" d="M811.8,603.553a36.353,36.353,0,0,0,9.358-.624c8.318-1.664,15.077-6.031,18.612-11.229,4.055,6.342,9.878,10.5,15.285,11.229V602.2c0,11.957-9.67,23.811-21.627,23.811S811.8,614.159,811.8,602.2A5.856,5.856,0,0,0,811.8,603.553Z" transform="translate(-811.698 -580.575)"/><path class="w" d="M839.774,592.125c-3.535,5.2-10.294,9.462-18.612,11.229a36.058,36.058,0,0,1-9.358.624c0-.416-.1-.832-.1-1.352A21.61,21.61,0,0,1,833.327,581a11.944,11.944,0,0,1,1.976.1,5.212,5.212,0,0,1,1.248.208c.208,0,.52.1.728.1l1.248.312a4.506,4.506,0,0,1,.52.1c.416.1.936.312,1.352.416.1,0,.208.1.312.1.52.208,1.04.416,1.456.624a20.832,20.832,0,0,1,3.847,2.287c.1.1.208.1.312.208a17.955,17.955,0,0,1,2.911,2.7l.416.416a5.221,5.221,0,0,0,.728.832c.208.208.312.416.52.624a3.642,3.642,0,0,1,.52.832,9.51,9.51,0,0,1,.832,1.352,5.105,5.105,0,0,1,.312.728c.208.312.312.728.52,1.04a5.089,5.089,0,0,1,.312.728c.208.416.312.832.52,1.352a.789.789,0,0,0,.208.416,10.852,10.852,0,0,1,.416,1.768,4.5,4.5,0,0,0,.1.52,7.027,7.027,0,0,1,.208,1.456,1.318,1.318,0,0,0,.1.624,12.593,12.593,0,0,1,.1,1.975v.728C849.652,602.627,843.829,598.468,839.774,592.125Z" transform="translate(-811.7 -581)"/></g><g transform="translate(13.933 28.178)"><circle class="w" cx="1.04" cy="1.04" r="1.04"/><circle class="w" cx="1.04" cy="1.04" r="1.04" transform="translate(19.548)"/></g><g transform="translate(19.756 36.912)"><path class="x" d="M827.8,612.8v1.664a4.793,4.793,0,0,0,1.04,2.7,4.932,4.932,0,0,0,3.847,1.872,4.906,4.906,0,0,0,4.887-4.575V612.8Z" transform="translate(-827.8 -612.8)"/><path class="y" d="M827.8,612.8v1.664h9.774V612.8Z" transform="translate(-827.8 -612.8)"/></g><ellipse class="v" cx="2.807" cy="3.015" rx="2.807" ry="3.015" transform="translate(43.566 25.994)"/><ellipse class="v" cx="2.807" cy="3.015" rx="2.807" ry="3.015" transform="translate(0 25.994)"/></g><path class="ac" d="M842.465,630.038a5.963,5.963,0,0,1,8.526,0c2.08,2.08,9.358,8.006,14.869,7.59,2.807-.208,8.63-7.9,12.685-16.428l10.606,5.719c-3.639,7.694-11.749,21.835-22.251,22.667-.52,0-1.04.1-1.456.1-11.333,0-21.627-9.982-22.771-11.126A5.967,5.967,0,0,1,842.465,630.038Z" transform="translate(-791.295 -573.995)"/><path class="v" d="M837.9,623v8.422c0,4.991-5.2,9.046-5.2,9.046s-5.2-4.055-5.2-9.046V622.9a8.82,8.82,0,0,0,5.3,1.976A9.045,9.045,0,0,0,837.9,623Z" transform="translate(-791.823 -573.927)"/><path class="ac" d="M845.969,627.8h-7.486v.416c0,3.743-5.2,6.862-5.2,6.862s-5.2-3.119-5.2-6.862V627.8H820.6c-4.263,0-7.8,4.159-7.8,9.358v43.358h40.863V637.158C853.663,631.959,850.232,627.8,845.969,627.8Z" transform="translate(-792.407 -573.732)"/><path class="w" d="M832.572,634.852A22.063,22.063,0,0,1,830.7,633.5v46.79h3.847V633.5C833.4,634.332,832.572,634.852,832.572,634.852Z" transform="translate(-791.696 -573.505)"/><path class="ac" d="M818.163,675h0Z" transform="translate(-792.364 -571.855)"/><rect class="w" width="45.334" height="23.083" transform="translate(17.897)"/><path class="ac" d="M823.354,631.924a5.308,5.308,0,0,0-6.966-2.807c-10.086,4.263-17.884,11.957-21.315,21-2.5,6.447-2.5,12.893-.1,18.2,2.807,5.927,8.11,9.254,12.789,11.229l5.2-9.462c-3.015-1.04-6.862-2.911-8.318-6.239-1.248-2.6-1.04-6.239.312-9.878,2.5-6.343,8.11-11.853,15.6-14.973A5.461,5.461,0,0,0,823.354,631.924Z" transform="translate(-793.187 -573.697)"/></g></g></g><path class="a" d="M339.741,317.5l7.382,22.355,22.355,7.486-22.355,7.382-7.382,22.355-7.486-22.355L309.9,347.341l22.355-7.486Z" transform="translate(-66.907 -267.175)"/><path class="a" d="M712.155,417.8l5.511,16.74,16.844,5.615-16.844,5.615-5.511,16.74-5.615-16.74-16.74-5.615,16.74-5.615Z" transform="translate(-51.799 -263.187)"/><path class="a" d="M996.478,299.1l7.071,21.107,21.107,7.07-21.107,7.07-7.071,21.107-7.07-21.107-21.107-7.07,21.107-7.07Z" transform="translate(-40.724 -267.907)"/><path class="a" d="M1299.335,459.8l5.407,16.324,16.324,5.511-16.324,5.407-5.407,16.428-5.511-16.428-16.324-5.407,16.324-5.511Z" transform="translate(-28.428 -261.517)"/><path class="a" d="M250.992,511.3l4.471,13.517,13.621,4.575-13.621,4.471-4.471,13.621-4.575-13.621L232.9,529.392l13.517-4.575Z" transform="translate(-69.969 -259.469)"/><path class="a" d="M150.592,293.2l4.575,13.517,13.517,4.575-13.517,4.471-4.575,13.621-4.471-13.621L132.5,311.292l13.621-4.575Z" transform="translate(-73.961 -268.142)"/></g></g></g></svg>