<svg xmlns="http://www.w3.org/2000/svg" width="122.941" height="124.713" viewBox="0 0 122.941 124.713"><defs><style>.a{fill:#fff;}.b{fill:#ffc843;}.c{fill:none;}.d{fill:#5baee5;}</style></defs><path class="a" d="M184.205,202.3H118.984s.766-3.027,1.865-7.493c.565-2.287,1.216-4.952,1.9-7.78.236-.978.475-1.975.715-2.985.077-.322.16-.694.248-1.106.318-1.466.694-3.439,1.074-5.524a14.178,14.178,0,0,1,13.95-11.626h25.722a14.176,14.176,0,0,1,13.95,11.626c.381,2.081.756,4.051,1.069,5.518.09.414.174.788.252,1.112.242,1.009.481,2.007.716,2.986.682,2.829,1.333,5.493,1.9,7.779,1.1,4.466,1.865,7.493,1.865,7.493Zm0,0" transform="translate(-90.124 -125.403)"/><path class="b" d="M8.336,478.551H127.46v6.239H8.336Zm0,0" transform="translate(-6.427 -361.986)"/><path class="c" d="M34.74,439.441a2.365,2.365,0,0,0-2.365,2.365v7.162H139.788v-7.162a2.365,2.365,0,0,0-2.364-2.365Zm0,0" transform="translate(-24.611 -332.402)"/><path class="a" d="M148.8,412.165H49.945l2.15-4.2L53,406.206a5.192,5.192,0,0,1,4.621-2.824h83.5a5.2,5.2,0,0,1,4.621,2.824l.9,1.763Zm0,0" transform="translate(-37.901 -305.127)"/><path class="d" d="M149.251,382.064H67.678a5.194,5.194,0,0,1-5.062-4.031l-.651-2.834h93l-.651,2.834a5.2,5.2,0,0,1-5.062,4.031Zm0,0" transform="translate(-46.993 -283.808)"/><path class="a" d="M161.1,346.86H73.93l1.387-4.562.52-1.71a4.027,4.027,0,0,1,3.854-2.854h75.65a4.023,4.023,0,0,1,3.851,2.854l.52,1.71Zm0,0" transform="translate(-56.044 -255.469)"/><path class="d" d="M105.8,315.7h71.641v5.367H105.8Zm0,0" transform="translate(-80.155 -238.798)"/><path class="a" d="M227.233,137.323H202.883l.5-3.555.791-5.612h21.769l.791,5.612Zm0,0" transform="translate(-153.587 -96.94)"/><path class="d" d="M227.233,154.75H202.883l.5-3.555h23.35Zm0,0" transform="translate(-153.587 -114.367)"/><path class="a" d="M244.136,37.143h-8.292l.61-8.407,1.517-20.9h4.037l1.519,20.9Zm0,0" transform="translate(-178.519 -5.927)"/><g transform="translate(12.044 22.809)"><path class="b" d="M184.205,292.422H118.984s.766-3.027,1.865-7.493H182.34c1.1,4.466,1.865,7.493,1.865,7.493Zm0,0" transform="translate(-102.167 -238.335)"/><path class="b" d="M148.8,426.41H49.945l2.15-4.2h94.554Zm0,0" transform="translate(-49.945 -342.18)"/><path class="b" d="M161.1,361.031H73.93l1.387-4.562h84.394Zm0,0" transform="translate(-68.088 -292.449)"/><path class="b" d="M244.136,102.048h-8.292l.61-8.407h7.072Zm0,0" transform="translate(-190.563 -93.64)"/><path class="b" d="M161.81,195.811l-3.755,3.755-3.755-3.755,3.755-3.755Zm0,0" transform="translate(-128.882 -168.083)"/><path class="b" d="M216.915,195.809l-3.755,3.756-3.755-3.756,3.755-3.755Zm0,0" transform="translate(-170.564 -168.083)"/><path class="b" d="M272.021,195.809l-3.755,3.756-3.755-3.756,3.755-3.755Zm0,0" transform="translate(-212.248 -168.083)"/><path class="b" d="M327.127,195.809l-3.756,3.756-3.755-3.756,3.755-3.755Zm0,0" transform="translate(-253.93 -168.083)"/><path class="b" d="M161.81,273.27l-3.755,3.755L154.3,273.27l3.755-3.755Zm0,0" transform="translate(-128.882 -226.676)"/><path class="b" d="M216.916,273.27l-3.756,3.755-3.755-3.755,3.755-3.755Zm0,0" transform="translate(-170.564 -226.676)"/><path class="b" d="M272.022,273.27l-3.756,3.755-3.754-3.755,3.754-3.755Zm0,0" transform="translate(-212.248 -226.676)"/><path class="b" d="M327.127,273.268l-3.756,3.755-3.755-3.755,3.755-3.756Zm0,0" transform="translate(-253.93 -226.673)"/><path class="b" d="M189.362,234.91l-3.755,3.756-3.755-3.756,3.755-3.755Zm0,0" transform="translate(-149.722 -197.66)"/><path class="b" d="M140.368,234.911l-3.754,3.755-2.192-2.191c.237-.978.476-1.975.716-2.985.077-.322.16-.694.247-1.106l1.228-1.227Zm0,0" transform="translate(-113.845 -197.66)"/><path class="b" d="M244.467,234.91l-3.755,3.755-3.756-3.755,3.756-3.755Zm0,0" transform="translate(-191.405 -197.66)"/><path class="b" d="M352.841,236.476l-2.188,2.189-3.755-3.755,3.755-3.755,1.22,1.221c.09.414.174.788.252,1.112q.363,1.514.717,2.987Zm0,0" transform="translate(-274.567 -197.66)"/><path class="b" d="M299.573,234.91l-3.755,3.755-3.755-3.755,3.755-3.755Zm0,0" transform="translate(-233.088 -197.66)"/></g><path class="a" d="M121.533,114.657h-3.947V109.4a4.279,4.279,0,0,0-4.273-4.274h-.749l-2.523-4.921a7.106,7.106,0,0,0-1.994-2.393,7.114,7.114,0,0,0,1.634-3.164l.651-2.834a1.908,1.908,0,0,0-1.861-2.336h-1.5l-1.5-4.919A5.9,5.9,0,0,0,99.8,80.356h-.1V76.9a1.909,1.909,0,0,0-1.909-1.909H96.07c-.68-2.715-2.227-8.933-3.861-15.747-.083-.349-.166-.7-.251-1.05-.3-1.276-.741-3.471-1.3-6.525a16.077,16.077,0,0,0-14.85-13.158l-1.064-7.556a1.909,1.909,0,0,0-1.89-1.643H67.893l-2-27.537A1.91,1.91,0,0,0,63.991,0H59.952a1.909,1.909,0,0,0-1.9,1.771l-2,27.537H51.086a1.908,1.908,0,0,0-1.89,1.643l-1.064,7.555A16.077,16.077,0,0,0,33.284,51.665c-.423,2.317-.777,4.138-1.056,5.441,0,.01-.007.019-.009.029-.085.4-.165.753-.238,1.06-.24,1.007-.479,2-.715,2.978,0,.007,0,.012,0,.019-1.454,6.03-2.776,11.343-3.391,13.8H26.15A1.909,1.909,0,0,0,24.242,76.9v3.46h-.1a5.9,5.9,0,0,0-5.678,4.207l-1.5,4.919h-1.5a1.908,1.908,0,0,0-1.861,2.336l.651,2.834A7.114,7.114,0,0,0,15.9,97.815a7.106,7.106,0,0,0-1.994,2.393l-.881,1.718-.013.027-1.629,3.176h-.749A4.279,4.279,0,0,0,6.356,109.4v5.253H2.409A1.909,1.909,0,0,0,.5,116.565V122.8a1.909,1.909,0,0,0,1.909,1.909H121.533a1.909,1.909,0,0,0,1.909-1.909v-6.239a1.909,1.909,0,0,0-1.909-1.909ZM61.727,3.817h.488l1.85,25.49H59.877ZM52.164,37.254h1.79a1.909,1.909,0,1,0,0-3.817H52.7l.044-.311H71.2l.752,5.348H51.993Zm-15.126,15.1a.281.281,0,0,0,.007-.032A15.816,15.816,0,0,1,41.57,44.88a12.244,12.244,0,0,1,7.54-2.588H74.832a12.244,12.244,0,0,1,7.6,2.636,14.016,14.016,0,0,1,4.424,7.192c.016.057.033.153.048.231.167.915,4.692,20.474,5.231,22.638H31.807c.54-2.164,5.065-21.723,5.231-22.638ZM28.059,78.806H95.883v1.55H28.059ZM18.383,93.3H69.69a1.909,1.909,0,1,0,0-3.817H20.961l1.159-3.808a2.106,2.106,0,0,1,2.026-1.5H99.8a2.106,2.106,0,0,1,2.027,1.5l1.159,3.808H77.411a1.909,1.909,0,1,0,0,3.817h28.661l-.113.5a3.272,3.272,0,0,1-3.2,2.55H21.184a3.269,3.269,0,0,1-3.2-2.55l-.114-.5Zm-8.209,16.1a.457.457,0,0,1,.457-.457H44.708a1.909,1.909,0,1,0,0-3.817H15.668l.194-.378H26.15a1.909,1.909,0,0,0,0-3.818H18.108a3.272,3.272,0,0,1,2.114-.77h83.5a3.27,3.27,0,0,1,2.923,1.786l1.631,3.18H52.692a1.909,1.909,0,1,0,0,3.817h60.621a.457.457,0,0,1,.456.457v.833h-8.211a1.909,1.909,0,0,0,0,3.817h8.211v.6H10.173ZM119.624,120.9H4.318v-2.422H119.624Zm0,0" transform="translate(-0.5 0)"/><path class="a" d="M392.157,452.57h-1.748a1.909,1.909,0,0,0,0,3.817h1.748a1.909,1.909,0,0,0,0-3.817Zm0,0" transform="translate(-293.991 -342.333)"/><path class="a" d="M294.741,418.2h3.086a1.909,1.909,0,1,0,0-3.818h-3.086a1.909,1.909,0,0,0,0,3.818Zm0,0" transform="translate(-221.626 -313.445)"/></svg>