<?xml version="1.0" encoding="utf-8"?>
<!-- Generator: Adobe Illustrator 22.0.1, SVG Export Plug-In . SVG Version: 6.00 Build 0)  -->
<svg version="1.2" baseProfile="tiny" id="Layer_1" xmlns="http://www.w3.org/2000/svg" xmlns:xlink="http://www.w3.org/1999/xlink"
	 x="0px" y="0px" viewBox="0 0 438.2 129.4" xml:space="preserve">
<g transform="translate(-168.066 -221.484)">
	<g transform="translate(221.995 233.412)">
		<path fill="none" stroke="#FFFFFF" stroke-width="5" d="M28.8,0.9l1.8,1.8l1,0.2l5.1-1.2l2.1,0.6l2,2.2l2.8,4.8l3.7,1.4l2.4,0.3
			l2,2.2l1-0.8l0.5,0.3l1.1-0.1l3-1.8l1.4,0l0.3,1l1.4-0.8l0.3,0.6l-0.6,0l0.2,1.2l2.5,0.9l3.3,1.9l3.7,1.1l2.3-1.4l1-1.1L73,13.3
			l-0.8-0.8l0.9,0.1l0.6,0.6l3.1-0.1l1.5,1l0.2-1.1l0.3-0.2l0.7,0.9l0.4,1.2l-0.3,0.4l0.6,1.9l3.1,3.5l3.1,1.9l0.3,2.8l-0.2,1.3
			l0.9,4.3l1.5,2.7l1.4,0.3l0.6-0.8L92,34l0.2,1.3l2.7,0.6l2.1-1.1l0.1-0.9l-0.7-0.3l0.5-0.6l1.1-0.1l0,0l-0.2,3.4l-1.3,2L96,38.7
			l-1,1.3l0.4,1.2l-0.1,1.5l1.5,0.9l-0.1,0.8L96,45l0.2,0.7l-0.4,0.9l0.1,0.9L95.3,48l-1.5,0.1l-1.1,1.3l-1.3,0.1l-0.8-0.7l-0.8,0
			L87.5,50l0,1.3l0.6,0.6v1.2L87,55l0.2,1.9l0.4,0l0.5,0.6l2.7-0.2l1.2,1.1l0.3,1.1l1.3,1.4l-0.3,1.1l0.2,1l0.7,0.9l0.8,2.2
			l-0.2,1.2l-0.7,1l1.6,1.7l1.1,0.6l0,0l-1.6,1l-1.2-0.7l-1.7-0.1l-1.1,0.7l-0.1,0.3l0.8,0.8l-0.3,0.3l-0.8-0.5L90.5,71l-2.4-0.1
			l-2.1,0.5L85,72.3l-0.2,2.6l-1,0.7l-1.4,0.6h-3.9l-10.3-1.8l-3.6-1.2l-3.4-0.4l-2.4,0.2l-0.4-0.2l-0.2-1.1l-1-0.6L56,70.5
			l-3.5-0.4l-0.8-1.7l-2.8-2l-5-1.8L43,63.9l-3-0.6l-5.9-0.4l-4.6-1.2L7.5,60.1l-2-0.6l-1.1-1.1l-2-0.6l-1.3,0.4l0-0.8L0,55l0-1.8
			L1.3,51l2-0.4l-0.6-1.2l0.2-0.9l1.1-1l1-0.4l1.5-2l-0.2-2.1l-1.2-1.2l-2.8-0.3L1.4,42l-0.7,0.7l0,0l-0.4-1.8l0.4-0.4l-0.2-1
			L2,37.9l0.2-1.6l2.2-1l0.1-0.6l0.9-0.6L4,32.5l-0.5,0.1l-1-1.1H2.2l-0.3-0.8l0.2-4l-1.3-2.9l0.3-2.2l1.4-0.2l0.6-0.8l-1-3.2
			l1.5-1.5l0.8,0.2l0.5,1.5l1.2-0.1l0-0.6l-0.7-0.4l0.2-0.1L8,17.1l0.7,0.8l6.7,0l0.4-1.4l0,0l0.1-0.3l0,0l1.2-0.1l-0.6,1.6l0.3,0.3
			l2.1-0.6l2,1.1l0.4-0.1l0.5-2.2l-0.5-0.9L21.2,14l1.5-0.4l0.9-2L23.7,7l0,0l0.9-0.1L25,6.3l-0.6-0.9l1-0.6L25,4.2l-0.4,0.2
			l-0.1-0.8l0.7-0.6l0.3-1.5L25.1,1l-0.7,0.2V0.9L25.8,0L28.8,0.9z"/>
	</g>
	<g transform="translate(402.665 225.438)">
		<path fill="none" stroke="#FFFFFF" stroke-width="5" d="M96.2,109.4l1.5,0.3l2-0.1l1.1,0.7l-0.4,0.9l-2.3,0.6l-2.3,0.1l-1-0.4
			l0.1-1.2l0.8-0.3l0.2-0.6L96.2,109.4L96.2,109.4z M194.7,55.8l1.2,0.4l-0.2,0.6l0.5,0.5l1.2,0.1l0.2,0.5h0.6l0.4-0.3v-0.9l0.9-0.4
			l0-0.5l0.6-0.3l-0.6,3.6l-0.7,0.5l-1.8,0.1l-3-1.5l-0.4-0.8l0.6-1l-0.4-1l0.3-0.6L194.7,55.8L194.7,55.8z M139.7,58.5l-0.6,0.1
			l-1.6-0.4l-1.8-1.3l-0.7-1.4l0.5-1.3l2-0.6l1.1,0.8l1.7,3.5L139.7,58.5L139.7,58.5z M189.9,50.2l1.3,0.8l0.4,0.9l-1.3-0.5
			l-1.3,0.3l-1.1-0.4l-0.1-0.8l-0.6-0.1l-0.3-0.6l0.6-0.8L189.9,50.2L189.9,50.2z M124.2,46.7l4.1,2.1l0.7,1.8l-1.3,0l-0.8,0.7
			l-1.2,0.4l-2.8,0.2l-0.8,0.6l-1-0.5l-0.5,0.3l1.4,0.6l1,1.1l3.3,0.2l0.5,1.5l-3.7-0.4l-1.5-1.1l0.2-0.7l-1-0.4l-1.3,1l-0.3,0.6
			l-0.1,0.4l0.6,0.3l0.3,0.7l-0.3,0.5l-8.3-1l-1.4,0.9l-0.5-0.2l-1.3,0.3l-1,1.1l-1,2.8l-1.6,1l-0.5-0.4l0.3-0.2l-0.2-0.4l-1.8-0.3
			L95.2,60l-0.7,0.4l-2.9,0.1l-0.7-1.1l-0.8,0.1l0-0.5l0.5-0.6l-0.8-0.7l-0.9,1l0.4,0.9l0.9,0.8L88,60.6l-8.2-2l-1.1-0.6l-3.4-0.2
			l-0.9,0.6l-1.5,0l-1-0.8l0.5-2.2h-0.6L71,53.8l0.5-1.1l1.4,0.3l2.8-2.4l1.4-2.1L77,47.8l2.5-0.9l3.7,0l1.6-0.3l3.8,0.5l12.9-0.1
			l2.8,0.4l8-0.6l2.7,0.1l5.9-0.9L124.2,46.7L124.2,46.7z M175.6,44.6l5.1,0.4l2.2,0.8l3.4,1.9l0.6,1l-1,1.4l-1-0.6l-1,0.1l-1-1
			l-2.4,0.4l-0.8-0.9l-0.9,0.1l-0.2,0.3l-1.2-0.1l0.2,0.5l1.6,0.8l0.9,1.3l-2.7,0.3l-0.6-0.9l-0.4,0l-0.5,0.3l0.1,0.9l-0.6,0.2
			l-1.5-1.5l1.1-1.2l-0.7,0.2l-1.9-0.2l-0.3-0.7l0.4-1.4l1.2-0.2l0.6-0.8l0-0.4l-1-0.5l0.2-0.2l0.8-0.4L175.6,44.6L175.6,44.6z
			 M33.7,42.2l1.2,0.1l1.9,0.9l1.5,0l2.1-0.5l1.6-0.9l1,0.1l2.7,4.4l0.9,0.7l2.1,0.3l2.1-0.1l2.4-1l1.1,0.3l3-0.6l2.9,0.4l0.6-0.3
			l1.2,0.3l1.4,1l1.5,0.3l0.9-1.1L65.1,46l0.6-0.4l-0.1-0.8l0.9,0.8l0.3-0.2l0,0.7l0.6,0.9l0.7,0l0.5,0.6l-0.3,0.6L67.9,48l0,0.6
			l0.7,2.3l1.4,1l0.2,1.3l-0.9,1L69,56.2l1.8,1.6l0.1,0.9l-0.7,0.4v0.7l0.6,0.4l1.5,0.1l0.4-0.9l1.9-0.2l0.8,0.6l0.9,1.6l1.6,1.3
			l0,1.2l-0.5,0.6l0.5,0.2l-0.4,2.7l0.1,2.9l-0.9,0.1l0.8,1.4l1.1,0.3l0.3,0.5l-0.3,2l0.5,0.1l0.6,1.1l1.8,0.6l0.6-0.4l0.9,0.9
			l1.1,0.5l0.9-0.4l1,0.3l1.7,1.9l3.3,1.7l1.6-0.3l1.5,0.3l1.4,1.6l0.9-0.5l0.6,0.2l1.2-0.5l0.9-0.9l1.4-0.1l3.8-1.5l1.9,0.5
			l1.2-0.1l3.6,1l1.7-1l1.5,1.1l0.5,0l1.2-0.3l1-1.2l1.3-0.6l2.9,0.7l2.5-2.5l2-1l1.3,0.9l1.4,2.8l0.4,0.2l3.7,0.3l1.5-0.7l2,1.8
			l3.6,0.6l2.3,1.4l1,1.5v2.1l-1.8,1.6l0.5,3l0,2.6l-1,1.8l-0.2,1.8l-0.7,1.5l0.2,1.7l-0.9,1.8l-1,5.1l-0.1,1.3l1,1.9l-0.5,1.5
			l0.5,0.5l0.4-0.2l0.4-2l-0.2-1.3l0.3-0.2l0.5,0.5l0,1.2l0.5,1.2l-0.3,1.3l0.9,2.2l1.1,1.3l1.1-0.9l1.4,1.4l2.3,0.4l1.4,2.1
			l-0.6,1.8l-0.8,0.6l-1.6,0.4l-3.8-1.3l-2.5,0.1l-1.1-0.3l-0.1-0.5l1-0.5l0.3-0.8l-0.4-1.3l-1.4-1.4l-2.8-1.3l-1.2,0.1l-0.3,0.4
			l0.1,1.1l-0.4,0.2l-4.5-1.2l-2.5,0.7l-0.6-0.4v-1.1l-0.7-0.3l-0.6,0.4l-0.1,0.5l-1.4,0.1l-0.5-0.6l0.9-0.2l0-0.6l-0.6-0.8h-0.7
			l-0.7,0.8l-1.3-0.8l-1.9-0.3l0-0.9l-0.7,0.8l-0.4-0.1l0-2l-0.5-0.3l-1.5,0.5l-0.4,0.6l-0.5,0.2l-0.5-0.3l-0.3,0.3l-0.2-0.1l0.4-1
			l-0.3-0.6l-0.9,0.6l-0.5-0.4l-0.4,0.3l-1.8-2.1l-1-0.4l-0.9,0.1l0.1-0.3l-0.4-0.3l-0.6,0.3l-1.2-0.2l-1.8-0.9l0-0.9l-0.9-0.4
			l-1.4,0.1l-1.4,0.8l-1.5-2.5l-0.7-0.6l-1.8-1.2l-2.1-0.5l-2-0.1l-6.2,1l-2.4,1.4l-0.8,1.4l-1.2,1l-8.4,1.2l0.2,1.2l-0.9,0.3
			l-2.8-1.5l-2.5-0.8l-4.6-0.4l-1.1-0.6h-1.1l-1.9-1.4l-1.8-0.5l-1.4,0.7l-1.4-0.2l-1.3-0.7l-5.8-0.2l-1.1-0.2l-0.6-0.7l-1.1-0.5
			l-1.5-0.2l-0.2,0.3l0.3,0.5H40l-1.6-1.4l-0.5,0l-0.3,0.6l-1.5-0.4L36,102l-0.9,0.2l0.2,2.5l-0.7,0.4l-0.8-0.1l0.3-0.8l-0.5-0.9
			l-0.8,0l-0.2,0.4l0.5,0.8l-0.9,0l-0.2,0.5l0.9,0.8l0.2,0.6l-1.2,0.3l-0.7,0l-0.4-0.6l-1.7-0.2l0.3-0.5l-0.2-0.8h-0.5l-0.1,0.3
			l-0.8-0.2l-0.3,0.4l-0.6-0.2l0-0.9l-0.7-0.2l-0.6,1.1l-3-0.7l-0.4-1.8l-0.8-0.5l-1.5,0.9l-5.8-1.2l-1.2,0.8l-2.9,0.3l-1.9-1.3
			L8,100.5l-0.6,0l-0.2,1l-2.3,0.3l-4.5-1.5l0,0L0,98.4l0.6-2.1l1.6-2.1l2.9,0.8l1.9-1.4l1.3,0.7l1-1.6l-0.2-2.5l0.6-0.4L9.7,89
			l0.4-0.4l1.5-0.4l0.2,0.6l1-0.1l0.6,0.8l0.7-0.2l1.4-1.6l0.4-1.6l0.7-0.6l-1.3-3l0.2-1.3l-2.2,0.1l-1.9-1.6l0.2-0.9l-0.2-1.8
			l0.4-1.4l-1.5-1L10,72.8l0.1-1.5l-0.6-0.8l-0.7-2.4L9.8,66l-0.1-1.1l0.3-1l-0.4-0.3L10,62l0.2-0.3l0.8,0.2l0.9-0.3l0.2-0.4
			l0.5,0.1l1.1,1.3l2.7,1l1.7,1.2l2.6,0.6l0.6,0.7l0.9,0.3l0.2-0.6l-0.7-0.3l0.4-1.3H21l0.8-2.1l0.5-0.5l0.3,0.2l0.5-0.4l0.2,0.2
			l2.2-1.2l1.6-1.6l1.5-3l-0.1-1.2l0.5-0.8l-0.5-2.1l0.4-1l-2.3-1.5l0.7-1.2l0.9-0.4l0.6-3.1l1.5-0.2l0.3-0.5l-0.1-1.4l0.4-0.4
			l0.4,0.3l0.5-0.8l0,0l0.9,0.6L33.7,42.2L33.7,42.2z M72.2,0.7l0.9,0.2l0,0.7l0.6,1.2l-0.4,1.9l-1.8,0.9l-1.5-0.1l-0.4-0.3
			l-0.8,0.4h-1.1l-0.7-1.2l0.6-2.1l0.7-0.1l0.2-0.9l0.8-0.5l0.7-0.3L71,0.8L71.5,0L72.2,0.7L72.2,0.7z"/>
	</g>
	<g transform="translate(171.286 240.461)">
		<path fill="none" stroke="#FFFFFF" stroke-width="5" d="M6.2,17.5l-0.6,1.1L6,20.3l-0.7,1.4l-1.5,0.5l-1,1.3L2.4,23l0.9-1L3.3,21
			l-0.8-0.6l0-1L2,19.5l-1.3,1.1l-0.1,0.7L0,21l0.6-1.4l2.3-1.7l1.2,0.3v-0.6l1.1,0l0.6-0.4L6.2,17.5L6.2,17.5z M65.3,0.4l4.2,0.8
			l1.7-0.9L74.4,0l0,0l-0.1,4.6l-0.9,2L71.9,7L72,8.3l0.5,0.9L72,11.3l-0.4,0.1l-2-1.1l-2.1,0.6l-0.3-0.4L67.8,9l-1.2,0.1l0,0
			l-1-1.8l-0.4-1.7l-0.9-0.2l0-1.5L63,3.2L63,0.6L64.4,0l0,0L65.3,0.4L65.3,0.4z"/>
	</g>
	<g transform="translate(309.036 252.919)">
		<path fill="none" stroke="#FFFFFF" stroke-width="5" d="M125.5,14.1l-0.5,0.8l-0.4-0.3l-0.4,0.4l0.1,1.4l-0.3,0.5l-1.5,0.2
			l-0.6,3.1l-0.9,0.4l-0.7,1.2l2.3,1.6l-0.4,1l0.5,2.1l-0.5,0.7l0.1,1.2l-1.5,2.9l-1.6,1.6L117,34l-0.2-0.2l-0.5,0.4l-0.3-0.2
			l-0.5,0.5l-0.8,2.1h1.1l-0.4,1.3l0.7,0.3l-0.2,0.6l-0.9-0.3l-0.6-0.7l-2.6-0.6l-1.7-1.2l-2.7-1l-1.1-1.3l-0.5-0.1l-0.2,0.4
			l-0.9,0.3l-0.7-0.2l-0.2,0.3l-0.4,1.6l0.4,0.3l-0.3,1l0.1,1.1l-1.1,2.2l0.7,2.4l0.6,0.7l-0.1,1.5l0.4,1.8l1.5,1l-0.4,1.4l0.2,1.8
			l-0.2,0.9l1.9,1.6l2.2-0.1l-0.2,1.3l1.3,3l-0.7,0.6l-0.4,1.6l-1.4,1.6L107,62l-0.6-0.7l-0.9,0.1l-0.2-0.7l-1.5,0.4l-0.4,0.4
			l0.1,0.7l-0.6,0.5l0.2,2.4l-1,1.6l-1.3-0.7l-1.9,1.4l-2.9-0.8l-1.6,2.1l-0.6,2.1l0.3,1.9l0,0l-2.8-0.7l0,0l0.1-1.2L91,70.8
			l-0.4,0.4L90.4,71l0.6-1.4l-0.5,0l-0.7,0.9L89.1,70l0.1-1.7l-1.3-3.7l0.5-1.3l0-2.5l0.7-1.9l0.1-2.1l-0.7-0.4L88,57l-0.9-1.1
			l-0.7-0.3L86,56.1l-0.9,0.1l-0.4-0.8L84.1,56l-0.3-0.3l-2.5,0.5l-0.5-0.8l-0.5-0.2l-0.8,0.5l-1-0.9l-0.7-0.1l-1.9-9L70.2,50
			l-1.3,1.8l-0.6-0.3l0.1-1.4l-0.5-0.4L67.2,50l-2.9-0.3l-1.4,0.4l-0.4,1l0.7,0.6l-0.3,2l-0.8,1.2l-0.6,0.2l-0.5,1l-0.9,0.6l-0.7,3
			l-1.3-0.1l0,0l-3.9-1.4l-8.4-2.3l-7.7-1.2l-1.1-0.4l-2.8,0.6L33.3,54l0.4-1.2l-4.3-1l-7.1-0.5l-1.8,0.3l-1.4,0.8l-0.4,0.7L18.5,54
			l0.4,0.6l0.6-0.2l0.3,0.4l-0.4,0.6l-8.6-1.8l-1.2,0.2L9.3,53l0.4-0.6l-0.6-0.2l0.7-0.7l1.1-0.2l0.4-0.6h0.9v-0.3l-0.5-0.2
			l-1.9,0.7l0,0l-1.1-0.6l-1.6-1.7l0.7-1l0.2-1.2l-0.8-2.2l-0.7-0.9l-0.2-1l0.3-1.1l-1.3-1.4L5,38.8l-1.2-1.1l-2.7,0.2l-0.5-0.6
			l-0.4,0L0,35.5l1.1-1.9v-1.2l-0.6-0.6l0-1.3l2.3-1.1l0.8,0l0.8,0.7l1.3-0.1l1.1-1.3l1.5-0.1l0.6-0.6L8.8,27l0.4-0.9L9,25.4
			l0.6-0.5l0.1-0.8l-1.5-0.9l0.1-1.5L8,20.6l1-1.3L9.5,19l1.3-2l0.2-3.4l0,0l0.2,0.6L11,14.8l0.7,0.1l0.6,1L16,17l0.6-0.9l0.8,0
			l1.6-1.1l0.7,0.2l0.8-0.9l0.3,2.1l1.5,1.4h2l1.1,0.6l2.8,0.4l1.8,0l1.4-0.5l1,0.2l2.3-0.6l2.4-1.3l1.6-1.5l2.2,2.4l3.4,0.4
			l8.7,2.8l2-0.2l1.5,0.4l1.8-0.1l5.4-1.8l0.9-0.6l0.2-0.6l1.8,0.6l1.2,1.9l2,0.7l0.8,0.6l2.3,0.7l2.6-0.6l0.3,0.5l1.4-0.5l0-1
			l1.1-1.6l0.5-1.7l1.4-1.1l0.9-1.8l-1.3-0.1l-0.3-0.5l0.9,0.2l-0.6-1.1l0.8-0.2l0.6,0.4l0.9-0.7l1.5-1.9l-0.2-1.9l0.6-0.2L84,6.6
			l-0.3-0.4L85,4.8L84.3,4L85,3.8l1.6-2L89.1,1h1.1L91,0.3L93.9,0l2,0.5L97,0.1l2.5,0.8l2.4,7.1l1.5,2l2.4,0.5l1.6,0.9l5.3,0.5
			l3.2-1.4l0.4-1.1l1.1-0.6l0.7,0.5l0.9-0.2l1.6,0.7L125.5,14.1z"/>
	</g>
	<g transform="translate(367.164 298.589)">
		<path fill="none" stroke="#FFFFFF" stroke-width="5" d="M33,26.4l-4.7-0.2l-13.5-4.9l-0.9-0.8l-0.6-1.1L8.7,18L3,15l-3-1.1l0,0
			L1.3,14l0.7-3L3,10.4l0.5-1L4,9.2l0.8-1.2l0.3-2L4.4,5.4l0.4-1L6.2,4l2.9,0.3L9.8,4l0.5,0.4l-0.1,1.4l0.6,0.3l1.3-1.8L17.6,0
			l1.9,9l0.7,0.1l1,0.9L22,9.5l0.5,0.2l0.5,0.8l2.5-0.5l0.3,0.3l0.6-0.5l0.4,0.8l0.9-0.1l0.4-0.5l0.7,0.3l0.9,1.1l0.6-0.6l0.7,0.4
			L31,13.1L30.3,15l0,2.5l-0.5,1.3l1.3,3.7L31,24.3l0.5,0.4l0.7-0.9l0.5,0l-0.6,1.4l0.2,0.3l0.4-0.4l0.3,0.1L33,26.4z"/>
	</g>
	<g transform="translate(175.192 232.141)">
		<path fill="none" stroke="#FFFFFF" stroke-width="5" d="M60.5,8.3l-1.4,0.6l-0.1,2.6l1.4,0.8l0,1.5l0.9,0.2l0.4,1.7l1,1.8l0,0
			l-0.1,0.3l0,0l-0.4,1.4l-6.7,0l-0.7-0.8l-2.4-0.6l-0.2,0.1l0.7,0.4l0,0.6l-1.2,0.1l-0.5-1.5l-0.8-0.2l-1.5,1.5l1,3.2l-0.6,0.8
			l-1.4,0.2l-0.3,2.2l1.3,2.9l-0.2,4l0.3,0.8h0.4l1,1.1l0.5-0.1l1.3,1.5l-0.9,0.6l-0.1,0.6l-2.2,1l-0.2,1.6l-1.5,1.6l0.2,1l-0.4,0.4
			l0.4,1.8l0,0l-1.1,0.4L44,44.5l-0.2-0.6l-1.5-0.1l-0.1-0.5L41.3,43l0.1-1l-2.1-1L38,41l-1.2-0.9l-1.1-0.2L34.1,38l-1.2-0.5
			l-3.3-0.3l-6.8,1.4l-3.5-0.4l-4.9,0.8l-0.9,0.7l-1.6-0.4L11,39.4l-1.4-1.3L8.9,38l-0.3,0.7l-0.4,0l0.2-0.6l-1.3-0.9l-2.7-0.6
			l-0.7,0.2l-0.5,1l-0.8,0.6l-0.9-0.2L1,36l-0.5-0.6H0.2L0,34.8l2.3,0.2l0.8-1l1.8-1.3l-0.3-1l1.9-0.9l1.3,2.9l-0.4,0.1l-0.2,0.5
			L8.4,35l0.7,1.2l0.1,1l0.7,0.6l0.5-0.1l1.2-1.5L12,34l2.4-2l0.2-0.9l0.8-0.3l0.7-1l0.5-1.6l-0.2-1.8l1.2-2.2l0.9-0.7l0.3,1.1
			L18.5,25l0.9,0.7l0.8,0.1l2.4-0.5l1.6-2.2l0.4-1.3l0.2-7.1l1.4-5.2L27.1,9L27,7.6l1.7-1.1l0.6-0.9l1.8-1.5l0.4-2L31,2.2l2-1.9
			L34.7,0L36,1.5l0,3l2.4,1.3l0.6,0.1L40.7,5l0.6-0.7l0.3-1.1l0.5-0.4l2,0.7l0.3,0.5L45,4.2L46,3.2l0.6,0.6l0.7,0.1l-0.2,0.3
			l0.5,1.2L48.8,6l0.9-0.2l1.7,0.5L53,5.2l1.1,0.7l2.1-0.4l0.5-0.4l1,0.6l1.1-0.3L60,6.4l-0.2,0.3L60.5,8.3z"/>
	</g>
</g>
</svg>
