<svg xmlns="http://www.w3.org/2000/svg" width="122.608" height="128.454" viewBox="0 0 122.608 128.454"><defs><style>.a{fill:#9e512b;}.b{fill:#828487;}.c{fill:#fff;}</style></defs><path class="a" d="M124.678,154.7H128.4c-4.253-4.253-6.1-15.1-12.227-20.2a8.268,8.268,0,0,1-3.19-5.848l2.658-.532a27.725,27.725,0,0,0-9.569-13.291h3.721a28.406,28.406,0,0,0-7.37-7.225,29.648,29.648,0,0,0-10.715-4.79,23.149,23.149,0,0,1-3.255,3.828s0,7.793-9.4,12.244a27.349,27.349,0,0,0-7.517,4.865,1.855,1.855,0,0,1-1.327.545h-.036a1.853,1.853,0,0,1-1.327-.545,27.35,27.35,0,0,0-7.517-4.865c-9.4-4.451-9.4-12.244-9.4-12.244a23.149,23.149,0,0,1-3.255-3.828,29.648,29.648,0,0,0-10.715,4.79,28.4,28.4,0,0,0-7.369,7.225H34.3a27.728,27.728,0,0,0-9.569,13.291l2.658.532A8.268,8.268,0,0,1,24.2,134.5c-6.126,5.105-7.974,15.949-12.227,20.2h3.721s1.595,2.127,0,5.848,4.784-1.063,4.784-1.063l1.063,4.784,1.177-.453a3.276,3.276,0,0,1,1.532-2.165,1.194,1.194,0,0,0,.351-1.585,4.721,4.721,0,0,1-.29-3.771,1.408,1.408,0,0,1,1.265-.96c4.548-.636,18.809,9.886,17.874,5.213-.6-2.988-1.067-5.335,1.662-6.058a2.183,2.183,0,0,1,2.525,1.257l2.837,6.383a26.908,26.908,0,0,0,1.76,3.138,7.682,7.682,0,0,1,.766,6.4,29.249,29.249,0,0,0,5.77-.521,9.65,9.65,0,0,1,4.531.144,25.282,25.282,0,0,0,13.771,0,9.648,9.648,0,0,1,4.531-.144,29.252,29.252,0,0,0,5.77.521,7.683,7.683,0,0,1,.766-6.4,26.947,26.947,0,0,0,1.76-3.138l2.837-6.383a2.184,2.184,0,0,1,2.525-1.257c2.729.723,2.259,3.07,1.662,6.058-.935,4.673,13.326-5.849,17.874-5.213a1.409,1.409,0,0,1,1.265.96,4.722,4.722,0,0,1-.289,3.771,1.2,1.2,0,0,0,.351,1.586,3.276,3.276,0,0,1,1.532,2.165l1.177.453,1.063-4.784s6.379,4.784,4.784,1.063S124.678,154.7,124.678,154.7Z" transform="translate(-8.883 -51.226)"/><path class="a" d="M128.179,39.469c0-8.827-5.846-16.725-5.846-16.725l2.435.465c-2.257-4.306-6.188-6.22-9.854-12.025l3.974.874c-3.9-6.5-8.28-7.433-8.28-7.433l2.923-.929C103.3.444,97.862,4.857,97.862,4.857l.568-2.091a14.894,14.894,0,0,0-8.582,6.692,45.05,45.05,0,0,1-6.795,9.125,19.618,19.618,0,0,0-3.586,4.624l2.435-.465s-5.846,7.9-5.846,16.725l2.435-1.858s-4.384,9.756,5.358,19.048c0,0,0,7.793,9.4,12.244a27.359,27.359,0,0,1,7.517,4.865,1.853,1.853,0,0,0,1.327.545h.037a1.853,1.853,0,0,0,1.327-.545A27.336,27.336,0,0,1,110.98,68.9c9.4-4.451,9.4-12.244,9.4-12.244,9.742-9.292,5.358-19.048,5.358-19.048Z" transform="translate(-40.815 -1.241)"/><g transform="translate(1.257 13.022)"><path class="b" d="M191.517,217.61c1.521-2.475.224-3.954-.872-4.686a1.169,1.169,0,0,1-.366-1.559,4.717,4.717,0,0,0,.3-3.8c-1.595-4.784-20.2,9.569-19.139,4.253.6-2.976,1.063-5.316-1.629-6.05a2.466,2.466,0,0,0-2.705,1.58l-2.689,6.051a19.5,19.5,0,0,1-1.591,2.893c-4.444,6.174,3.341,17.293,11.273,12,8.132-5.422,12.759-4.253,15.949-5.848,2.278-1.139,1.845-2.82,1.411-3.689A1.185,1.185,0,0,1,191.517,217.61Z" transform="translate(-84.662 -115.517)"/><path class="b" d="M34.016,217.61c-1.521-2.475-.224-3.954.872-4.686a1.169,1.169,0,0,0,.366-1.559,4.717,4.717,0,0,1-.3-3.8c1.595-4.784,20.2,9.569,19.139,4.253-.6-2.976-1.063-5.316,1.629-6.05a2.466,2.466,0,0,1,2.705,1.58l2.689,6.051A19.5,19.5,0,0,0,62.7,216.3c4.444,6.174-3.341,17.293-11.273,12-8.132-5.422-12.759-4.253-15.949-5.848-2.278-1.139-1.845-2.82-1.411-3.689A1.184,1.184,0,0,0,34.016,217.61Z" transform="translate(-20.777 -115.517)"/><path class="b" d="M225.468,206.235s-1.6,2.126,0,5.848-4.784-1.063-4.784-1.063l-1.063,4.784-1.177-.453a3.72,3.72,0,0,1-.659,2.521,1.184,1.184,0,0,0-.055,1.154c.434.868.867,2.549-1.411,3.689a9.058,9.058,0,0,1-2.069.692,12.017,12.017,0,0,0,4.3-1.191.693.693,0,0,1,.9.946c-.944,1.847-1.786,4.423.17,5.4,2.126,1.063,9.569,0,11.164-7.974S225.468,206.235,225.468,206.235Z" transform="translate(-110.93 -115.78)"/><path class="b" d="M20.794,222.216a12.018,12.018,0,0,0,4.3,1.191,9.037,9.037,0,0,1-2.069-.692c-2.278-1.139-1.845-2.82-1.411-3.689a1.185,1.185,0,0,0-.055-1.154,3.72,3.72,0,0,1-.659-2.521l-1.177.453-1.063-4.784s-6.379,4.784-4.784,1.063,0-5.848,0-5.848-6.912,6.38-5.317,14.354,9.037,9.037,11.164,7.974c1.955-.978,1.114-3.554.17-5.4A.693.693,0,0,1,20.794,222.216Z" transform="translate(-8.319 -115.779)"/><path class="b" d="M120.195,49.146a35.286,35.286,0,0,1,4.689,1.17,1.464,1.464,0,0,0,1.757-.69,13.674,13.674,0,0,0,1.456-6.156,13.862,13.862,0,0,0-6.769-11.875,8.293,8.293,0,0,1-2.688-2.566c-.495-.76-.946-1.362-1.217-1.709a.315.315,0,0,0-.5.014l-.58.829a.192.192,0,0,1-.312,0l-1.459-2.088a.313.313,0,0,0-.536.048,7.149,7.149,0,0,1-1.319,1.83,10.437,10.437,0,0,1-3.87,2.525,13.934,13.934,0,0,0-9.06,12.991,13.678,13.678,0,0,0,1.428,6.1,1.487,1.487,0,0,0,1.786.745,35.173,35.173,0,0,1,4.688-1.17,14.156,14.156,0,1,0,12.506,0Z" transform="translate(-53.895 -25.945)"/><path class="b" d="M117.848,135.724a25.37,25.37,0,0,0-6.615,4.427,1.855,1.855,0,0,1-1.327.545h-.037a1.853,1.853,0,0,1-1.327-.545,25.373,25.373,0,0,0-6.614-4.427c-6.083,3.835-10.277,11.926-10.277,21.289,0,13.066,8.164,23.657,18.236,23.657s18.236-10.592,18.236-23.657C128.125,147.649,123.931,139.558,117.848,135.724Z" transform="translate(-49.842 -80.646)"/></g><path class="c" d="M168.608,229.7a9.065,9.065,0,0,1-6.423-2.909c-2.944-3.051-4.512-8.462-1.622-12.477a18.381,18.381,0,0,0,1.464-2.67l2.689-6.051a3.721,3.721,0,0,1,4.18-2.281c3.672,1,3.155,4.346,2.6,7.161a40.507,40.507,0,0,0,6.186-2.691c5.438-2.685,9.167-4.375,11.369-3.457a2.553,2.553,0,0,1,1.467,1.572,6.011,6.011,0,0,1-.361,4.777c2.233,1.528,2.681,3.883,1.2,6.317a3.751,3.751,0,0,1-1.989,5.334,14.981,14.981,0,0,1-4.128,1.14,27.334,27.334,0,0,0-11.687,4.629,8.839,8.839,0,0,1-4.943,1.606Zm-.5-23.986a1.424,1.424,0,0,0-1.095.9l-2.689,6.051a20.727,20.727,0,0,1-1.72,3.117c-2.1,2.911-.847,6.949,1.391,9.27a6.127,6.127,0,0,0,8.168.958A29.9,29.9,0,0,1,184.791,221a13.112,13.112,0,0,0,3.452-.916c.627-.314.98-.666,1.05-1.049a1.663,1.663,0,0,0-.2-.957,2.43,2.43,0,0,1,.109-2.372c.81-1.318.66-2.211-.5-2.986a2.438,2.438,0,0,1-.76-3.224,3.448,3.448,0,0,0,.23-2.711c-.009-.023-.018-.046-.026-.069a.2.2,0,0,0-.025-.056s-.532-.378-3.039.521a65.649,65.649,0,0,0-6.289,2.852c-5.131,2.533-7.663,3.7-9.145,2.563a2.129,2.129,0,0,1-.68-2.27c.709-3.545.6-4.232-.729-4.593A.512.512,0,0,0,168.1,205.717Zm22.167,10.647h0Z" transform="translate(-82.158 -101.249)"/><path class="c" d="M54.433,229.7A8.833,8.833,0,0,1,49.49,228.1,27.334,27.334,0,0,0,37.8,223.469a15,15,0,0,1-4.128-1.14,3.751,3.751,0,0,1-1.989-5.334c-1.482-2.434-1.035-4.789,1.2-6.317a6.013,6.013,0,0,1-.361-4.777,2.553,2.553,0,0,1,1.467-1.572c2.2-.919,5.931.772,11.369,3.457a40.563,40.563,0,0,0,6.186,2.691c-.557-2.815-1.074-6.161,2.6-7.161a3.72,3.72,0,0,1,4.181,2.281l2.689,6.052a18.337,18.337,0,0,0,1.463,2.67c2.891,4.016,1.323,9.426-1.621,12.478a9.075,9.075,0,0,1-6.423,2.908Zm-20.593-14a2.43,2.43,0,0,1,.109,2.371,1.664,1.664,0,0,0-.2.958c.07.382.423.735,1.05,1.049a13.128,13.128,0,0,0,3.452.916,29.905,29.905,0,0,1,12.632,5.01,6.129,6.129,0,0,0,8.168-.958c2.239-2.32,3.487-6.358,1.391-9.27a20.837,20.837,0,0,1-1.72-3.117l-2.689-6.051c-.257-.577-.827-.989-1.23-.88-1.328.362-1.437,1.049-.729,4.593a2.13,2.13,0,0,1-.68,2.27c-1.482,1.138-4.013-.03-9.145-2.563a65.648,65.648,0,0,0-6.289-2.852c-2.5-.9-3.033-.525-3.04-.52s-.011.015-.025.055c-.008.023-.017.047-.026.069A3.432,3.432,0,0,0,35.1,209.5a2.438,2.438,0,0,1-.76,3.224C33.18,213.5,33.03,214.389,33.84,215.707Z" transform="translate(-18.276 -101.249)"/><path class="c" d="M81.877,203.988a26.586,26.586,0,0,1-7.21-1,8.489,8.489,0,0,0-3.96-.126,31.619,31.619,0,0,1-6.019.546,1.254,1.254,0,0,1-1.2-1.6,6.336,6.336,0,0,0-.747-5.562,20.839,20.839,0,0,1-1.72-3.117l-2.689-6.051c-.257-.577-.827-.989-1.23-.879-1.328.362-1.437,1.049-.729,4.593a2.13,2.13,0,0,1-.68,2.27c-1.482,1.137-4.013-.03-9.144-2.561-3.31-1.634-7.416-3.668-9.106-3.433a1.259,1.259,0,0,1-1.383-.912A18.577,18.577,0,0,1,36,176.844c.789-3.3,2.362-5.474,4.675-6.45,2.552-1.077,5.852-.628,9.831,1.33a47.026,47.026,0,0,1-.449-6.47,1.254,1.254,0,1,1,2.509,0,44.551,44.551,0,0,0,.833,8.564,1.254,1.254,0,0,1-1.873,1.319c-2.956-1.763-7.068-3.616-9.876-2.432-1.536.648-2.616,2.237-3.21,4.721a16.334,16.334,0,0,0-.18,7.146c2.436.24,5.834,1.918,9.4,3.678a40.554,40.554,0,0,0,6.186,2.689c-.557-2.815-1.074-6.162,2.6-7.162a3.72,3.72,0,0,1,4.181,2.281l2.689,6.052a18.34,18.34,0,0,0,1.463,2.67,8.444,8.444,0,0,1,1.46,6.088,26.161,26.161,0,0,0,3.979-.464,11.027,11.027,0,0,1,5.134.171,24.145,24.145,0,0,0,13.059,0,11.006,11.006,0,0,1,5.134-.171,26.176,26.176,0,0,0,3.979.464,8.451,8.451,0,0,1,1.459-6.088,18.376,18.376,0,0,0,1.464-2.67l2.689-6.051a3.721,3.721,0,0,1,4.18-2.281c3.672,1,3.155,4.347,2.6,7.162a40.549,40.549,0,0,0,6.185-2.689c3.566-1.761,6.965-3.437,9.4-3.678a16.342,16.342,0,0,0-.18-7.146c-.594-2.485-1.674-4.073-3.21-4.721-2.807-1.184-6.92.669-9.877,2.432a1.254,1.254,0,0,1-1.873-1.319,44.5,44.5,0,0,0,.833-8.564,1.254,1.254,0,1,1,2.509,0,46.96,46.96,0,0,1-.449,6.47c3.981-1.958,7.279-2.407,9.832-1.33,2.312.975,3.885,3.145,4.674,6.449a18.577,18.577,0,0,1-.061,9.312,1.26,1.26,0,0,1-1.383.912c-1.678-.234-5.8,1.8-9.106,3.433-5.131,2.533-7.663,3.7-9.143,2.561a2.129,2.129,0,0,1-.68-2.27c.709-3.545.6-4.232-.729-4.593-.4-.109-.972.3-1.229.88l-2.689,6.051a20.725,20.725,0,0,1-1.72,3.117,6.335,6.335,0,0,0-.746,5.562,1.255,1.255,0,0,1-.2,1.1,1.3,1.3,0,0,1-1.05.5,30.475,30.475,0,0,1-5.97-.546,8.491,8.491,0,0,0-3.96.126A26.559,26.559,0,0,1,81.877,203.988Z" transform="translate(-20.574 -81.713)"/><path class="c" d="M220.25,228.909a5.605,5.605,0,0,1-2.436-.471,3.267,3.267,0,0,1-1.691-1.926,5.792,5.792,0,0,1,.374-3.856,10.838,10.838,0,0,1-3.469.758,1.24,1.24,0,0,1-1.268-1.1,1.254,1.254,0,0,1,.968-1.374,7.763,7.763,0,0,0,1.785-.59c.627-.314.98-.666,1.05-1.049a1.663,1.663,0,0,0-.2-.957,2.431,2.431,0,0,1,.109-2.372,2.58,2.58,0,0,0,.488-1.676,1.255,1.255,0,0,1,1.5-1.415l.751-3.378a1.255,1.255,0,0,1,1.977-.732,24.328,24.328,0,0,0,2.54,1.669c-1.258-3.807.411-6.1.488-6.2a1.254,1.254,0,0,1,1.854-.169c.3.28,7.409,6.955,5.7,15.521a11.315,11.315,0,0,1-6.038,8.246A10.38,10.38,0,0,1,220.25,228.909Zm-2.213-9.207a1.948,1.948,0,0,1,.961.557,1.923,1.923,0,0,1,.323,2.227c-1.034,2.023-.915,2.942-.816,3.244a.753.753,0,0,0,.43.465,6.423,6.423,0,0,0,4.693-.615,8.685,8.685,0,0,0,4.681-6.484c1-4.987-1.751-9.388-3.539-11.625a6.639,6.639,0,0,0,.605,2.871c.551,1.287.461,2.231-.27,2.805-.42.33-1.335,1.05-4.852-1.263l-.655,2.946a1.255,1.255,0,0,1-1.314.979,6.251,6.251,0,0,1-.661,1.447A4.035,4.035,0,0,1,218.037,219.7Zm5.187-7.907h.005Z" transform="translate(-108.428 -101.512)"/><path class="c" d="M68.942,172.254a26.572,26.572,0,0,1-7.226-1,8.338,8.338,0,0,0-3.943-.121,30.509,30.509,0,0,1-5.975.546,1.289,1.289,0,0,1-1.045-.5,1.254,1.254,0,0,1-.2-1.1,6.411,6.411,0,0,0-.61-5.362,28.116,28.116,0,0,1-1.857-3.316l-2.836-6.383a.93.93,0,0,0-1.057-.554c-1.352.358-1.465,1.046-.754,4.6a2.13,2.13,0,0,1-.68,2.27c-1.48,1.138-4.013-.029-9.143-2.561-3.31-1.634-7.426-3.669-9.106-3.433a.525.525,0,0,0-.228.066.282.282,0,0,0-.02.048c-.008.024-.016.047-.026.07a3.435,3.435,0,0,0,.219,2.692,2.462,2.462,0,0,1-.748,3.242,2.09,2.09,0,0,0-.989,1.31,1.254,1.254,0,0,1-.79.982l-1.177.453a1.254,1.254,0,0,1-1.675-.9l-.655-2.947c-3.526,2.308-4.466,1.566-4.851,1.264-.731-.574-.822-1.518-.27-2.805a5.586,5.586,0,0,0,.382-4.1H10.73a1.254,1.254,0,0,1-.887-2.141c1.7-1.7,3.07-4.757,4.517-7.991,1.937-4.329,4.134-9.237,7.794-12.288a7.644,7.644,0,0,0,2.568-3.89l-1.48-.3a1.253,1.253,0,0,1-.951-1.6,28.328,28.328,0,0,1,7.357-11.663h-.313a1.254,1.254,0,0,1-1.055-1.933,29.214,29.214,0,0,1,7.695-7.567,30.756,30.756,0,0,1,11.168-4.994,1.253,1.253,0,0,1,1.317.523,22.018,22.018,0,0,0,3.08,3.62,1.255,1.255,0,0,1,.388.908c0,.281.17,7.079,8.687,11.111a27.793,27.793,0,0,1,7.877,5.122.6.6,0,0,0,.429.168.632.632,0,0,0,.468-.169,27.793,27.793,0,0,1,7.876-5.122c8.588-4.064,8.687-11.04,8.687-11.111a1.255,1.255,0,0,1,.388-.908,22.064,22.064,0,0,0,3.08-3.62,1.253,1.253,0,0,1,1.317-.523,30.748,30.748,0,0,1,11.168,4.994A29.207,29.207,0,0,1,109.6,112.9a1.254,1.254,0,0,1-1.055,1.933h-.312a28.328,28.328,0,0,1,7.357,11.663,1.254,1.254,0,0,1-.951,1.6l-1.486.3a7.6,7.6,0,0,0,2.575,3.889c3.661,3.051,5.857,7.958,7.794,12.288,1.447,3.234,2.814,6.288,4.517,7.991a1.254,1.254,0,0,1-.887,2.141H124.2a5.586,5.586,0,0,0,.382,4.1c.551,1.286.461,2.231-.27,2.805-.384.3-1.328,1.044-4.851-1.264l-.655,2.947a1.254,1.254,0,0,1-1.675.9l-1.177-.453a1.253,1.253,0,0,1-.79-.982,2.089,2.089,0,0,0-.988-1.309,2.462,2.462,0,0,1-.749-3.242,3.454,3.454,0,0,0,.219-2.692c-.01-.023-.018-.046-.026-.07a.194.194,0,0,0-.022-.05.554.554,0,0,0-.226-.064c-1.676-.231-5.8,1.8-9.106,3.433-5.131,2.533-7.663,3.7-9.143,2.561a2.129,2.129,0,0,1-.68-2.27c.711-3.554.6-4.242-.754-4.6a.928.928,0,0,0-1.057.554L89.8,161.395a28.1,28.1,0,0,1-1.856,3.316,6.411,6.411,0,0,0-.61,5.362,1.256,1.256,0,0,1-.2,1.1,1.324,1.324,0,0,1-1.045.5,30.518,30.518,0,0,1-5.976-.546,8.443,8.443,0,0,0-3.942.121,26.6,26.6,0,0,1-7.228,1Zm-9.422-3.808a10.6,10.6,0,0,1,2.878.391,24.141,24.141,0,0,0,13.089,0,10.98,10.98,0,0,1,5.119-.167,26.143,26.143,0,0,0,3.98.464,8.526,8.526,0,0,1,1.26-5.8,25.57,25.57,0,0,0,1.662-2.96l2.837-6.383a3.454,3.454,0,0,1,3.992-1.961c3.717.985,3.2,4.346,2.639,7.173a40.59,40.59,0,0,0,6.185-2.689c4.177-2.062,8.126-4.006,10.564-3.669A2.646,2.646,0,0,1,116,154.63a6.014,6.014,0,0,1-.362,4.776,5.24,5.24,0,0,1,1.217,1.133l.572-2.572a1.254,1.254,0,0,1,1.977-.732,24.287,24.287,0,0,0,2.541,1.67c-1.258-3.807.411-6.1.488-6.2a1.255,1.255,0,0,1,1-.5h1.137a49.255,49.255,0,0,1-3.335-6.6c-1.916-4.28-3.9-8.706-7.111-11.385a9.512,9.512,0,0,1-3.641-6.811,1.254,1.254,0,0,1,1.008-1.23l1.247-.249a26.807,26.807,0,0,0-8.626-11.311,1.254,1.254,0,0,1,.714-2.285h1.213a31.517,31.517,0,0,0-5.591-4.95A28.205,28.205,0,0,0,91,102.987a24.8,24.8,0,0,1-2.568,2.969c-.185,1.993-1.453,8.729-10.092,12.817a25.428,25.428,0,0,0-7.157,4.609,3.185,3.185,0,0,1-4.483,0,25.435,25.435,0,0,0-7.157-4.609c-8.639-4.088-9.906-10.825-10.092-12.817a24.874,24.874,0,0,1-2.568-2.969,28.206,28.206,0,0,0-9.449,4.392,31.561,31.561,0,0,0-5.591,4.95h1.213a1.254,1.254,0,0,1,.714,2.285,26.972,26.972,0,0,0-8.625,11.312l1.246.249a1.255,1.255,0,0,1,1.008,1.23,9.51,9.51,0,0,1-3.641,6.811c-3.214,2.679-5.195,7.1-7.111,11.385a49.315,49.315,0,0,1-3.335,6.6H14.45a1.255,1.255,0,0,1,1,.5c.077.1,1.746,2.4.488,6.2a24.327,24.327,0,0,0,2.54-1.669,1.254,1.254,0,0,1,1.977.732l.572,2.572a5.262,5.262,0,0,1,1.217-1.134,6.018,6.018,0,0,1-.362-4.776,2.647,2.647,0,0,1,2.273-1.783c2.439-.339,6.386,1.606,10.564,3.669a40.549,40.549,0,0,0,6.185,2.689c-.559-2.827-1.078-6.188,2.639-7.173a3.454,3.454,0,0,1,3.992,1.961l2.837,6.383a25.729,25.729,0,0,0,1.663,2.96,8.527,8.527,0,0,1,1.259,5.8,26.142,26.142,0,0,0,3.98-.464,11.4,11.4,0,0,1,2.242-.224Zm62.916-8.183h.006Z" transform="translate(-7.638 -49.979)"/><path class="c" d="M16.6,228.91a10.381,10.381,0,0,1-4.481-1.075,11.316,11.316,0,0,1-6.038-8.246c-1.713-8.566,5.392-15.241,5.7-15.521a1.254,1.254,0,0,1,1.854.169c.077.1,1.746,2.4.488,6.2a24.227,24.227,0,0,0,2.54-1.67,1.254,1.254,0,0,1,1.977.731l.751,3.378a1.255,1.255,0,0,1,1.5,1.415,2.576,2.576,0,0,0,.488,1.676,2.43,2.43,0,0,1,.109,2.371,1.664,1.664,0,0,0-.2.958c.07.382.423.735,1.05,1.049a7.731,7.731,0,0,0,1.785.59,1.254,1.254,0,0,1-.3,2.478,10.814,10.814,0,0,1-3.469-.758,5.792,5.792,0,0,1,.374,3.856,3.265,3.265,0,0,1-1.691,1.926A5.618,5.618,0,0,1,16.6,228.91Zm-4.521-21.438c-1.787,2.237-4.536,6.638-3.539,11.625a8.685,8.685,0,0,0,4.681,6.484,6.431,6.431,0,0,0,4.693.615.751.751,0,0,0,.43-.465c.1-.3.218-1.221-.817-3.244a1.923,1.923,0,0,1,.324-2.227,1.95,1.95,0,0,1,.961-.558,4.035,4.035,0,0,1,.413-2.445,6.236,6.236,0,0,1-.661-1.448,1.239,1.239,0,0,1-.682-.146,1.253,1.253,0,0,1-.632-.833l-.655-2.946c-3.517,2.312-4.432,1.593-4.852,1.263-.731-.574-.822-1.518-.27-2.805A6.642,6.642,0,0,0,12.078,207.472Zm6.953,14.643h0Z" transform="translate(-5.813 -101.512)"/><path class="c" d="M71.777,187.713a1.251,1.251,0,0,1-.826-.311L66.7,183.682a1.254,1.254,0,0,1,1.652-1.888l4.253,3.721a1.255,1.255,0,0,1-.826,2.2Z" transform="translate(-35.938 -90.424)"/><path class="c" d="M177.725,187.714a1.254,1.254,0,0,1-.827-2.2l4.254-3.721a1.254,1.254,0,0,1,1.652,1.888L178.55,187.4A1.249,1.249,0,0,1,177.725,187.714Z" transform="translate(-90.848 -90.425)"/><path class="c" d="M176.634,137.169a1.254,1.254,0,0,1-1.126-.7c-1.177-2.384-2.244-4.184-2.255-4.2a1.254,1.254,0,0,1,.619-1.808l1.39-.547-5.182-7.26a1.254,1.254,0,0,1,2.042-1.457l6.115,8.567a1.254,1.254,0,0,1-.562,1.9l-1.537.605c.429.776,1.008,1.854,1.62,3.1a1.255,1.255,0,0,1-1.124,1.81Z" transform="translate(-87.548 -60.122)"/><path class="c" d="M68.9,137.168a1.255,1.255,0,0,1-1.124-1.81c.613-1.241,1.191-2.32,1.621-3.1l-1.537-.605a1.255,1.255,0,0,1-.562-1.9l6.115-8.567a1.254,1.254,0,0,1,2.042,1.457l-5.181,7.26,1.39.547a1.254,1.254,0,0,1,.619,1.808c-.011.018-1.081,1.824-2.255,4.2A1.256,1.256,0,0,1,68.9,137.168Z" transform="translate(-36.334 -60.122)"/><path class="c" d="M100.89,74.317a3.146,3.146,0,0,1-2.26-.922,25.451,25.451,0,0,0-7.157-4.609C82.835,64.7,81.567,57.962,81.382,55.969c-5.038-4.983-6.246-10.088-6.363-13.527a17.722,17.722,0,0,1,.157-3.023,1.254,1.254,0,0,1-1.619-1.2c0-6.217,2.706-11.908,4.513-15.016a1.254,1.254,0,0,1-.96-1.828,20.8,20.8,0,0,1,3.8-4.918,43.965,43.965,0,0,0,6.6-8.872A16.333,16.333,0,0,1,96.786.325a1.254,1.254,0,0,1,1.616.891c2.712-1.1,7.523-2.109,14.262.033a1.254,1.254,0,0,1,.075,2.364,19.934,19.934,0,0,1,5.979,6.549,1.254,1.254,0,0,1-1.345,1.869l-.8-.177a46.311,46.311,0,0,0,3.49,3.816,23.77,23.77,0,0,1,4.571,5.7,1.255,1.255,0,0,1-.96,1.828c1.808,3.108,4.513,8.8,4.513,15.016a1.254,1.254,0,0,1-1.619,1.2,17.671,17.671,0,0,1,.157,3.023c-.116,3.439-1.326,8.544-6.363,13.527-.186,1.993-1.453,8.729-10.092,12.817a25.434,25.434,0,0,0-7.157,4.609,3.116,3.116,0,0,1-2.221.923ZM77.247,35.106a1.255,1.255,0,0,1,1.144,1.769c-.16.364-3.863,9.1,5.08,17.626a1.255,1.255,0,0,1,.388.908c0,.281.17,7.079,8.687,11.11a27.779,27.779,0,0,1,7.876,5.122.6.6,0,0,0,.43.168.632.632,0,0,0,.468-.169,27.8,27.8,0,0,1,7.876-5.122c8.518-4.031,8.685-10.829,8.687-11.117a1.269,1.269,0,0,1,.388-.9c8.943-8.53,5.24-17.263,5.078-17.63a1.255,1.255,0,0,1,1.907-1.507l.238.181a32.886,32.886,0,0,0-5.418-13.306,1.255,1.255,0,0,1,.814-1.984c-.773-.958-1.656-1.85-2.613-2.818a38.372,38.372,0,0,1-5.67-6.833,1.254,1.254,0,0,1,1.33-1.894l.847.186c-2.938-3.612-5.651-4.286-5.684-4.293a1.254,1.254,0,0,1-.836-1.836C101.159,1.626,97.447,4.545,97.4,4.58a1.255,1.255,0,0,1-2.045-.966,12.988,12.988,0,0,0-5.671,5.217A46.485,46.485,0,0,1,82.7,18.209c-.7.719-1.314,1.38-1.852,2.045a1.255,1.255,0,0,1,.813,1.984,32.886,32.886,0,0,0-5.418,13.306l.238-.181a1.256,1.256,0,0,1,.762-.257Z" transform="translate(-39.568 0.009)"/><path class="c" d="M133.6,57.878a1.255,1.255,0,0,1-1.254-1.25,3.7,3.7,0,0,1,3.689-3.713h.012a3.705,3.705,0,0,1,3.7,3.689,1.254,1.254,0,0,1-1.25,1.258h0a1.255,1.255,0,0,1-1.254-1.25,1.194,1.194,0,0,0-1.193-1.189h0a1.193,1.193,0,0,0-1.188,1.2,1.254,1.254,0,0,1-1.25,1.258Z" transform="translate(-68.863 -26.362)"/><path class="c" d="M115.019,57.87a1.254,1.254,0,0,1-1.254-1.254,1.192,1.192,0,1,0-2.384,0,1.254,1.254,0,0,1-2.509,0,3.7,3.7,0,1,1,7.4,0A1.254,1.254,0,0,1,115.019,57.87Z" transform="translate(-57.165 -26.362)"/><path class="c" d="M112.7,76.45a15.7,15.7,0,0,1-11.512-26.056,2.748,2.748,0,0,1-2.337-1.51,14.845,14.845,0,0,1-1.559-6.658,15.279,15.279,0,0,1,9.869-14.163,9.214,9.214,0,0,0,3.406-2.217,5.922,5.922,0,0,0,1.093-1.5,1.567,1.567,0,0,1,2.7-.235l.634.908a1.579,1.579,0,0,1,.9-.316h.042a1.568,1.568,0,0,1,1.233.6c.3.388.771,1.015,1.279,1.8a7,7,0,0,0,2.285,2.176,15.033,15.033,0,0,1,7.375,12.949,14.84,14.84,0,0,1-1.589,6.719,2.691,2.691,0,0,1-2.3,1.453A15.7,15.7,0,0,1,112.7,76.45Zm-6.252-29.8a1.254,1.254,0,0,1,.561,2.376,12.9,12.9,0,1,0,11.382,0,1.254,1.254,0,0,1,.782-2.356,36.651,36.651,0,0,1,4.856,1.212.225.225,0,0,0,.249-.06,12.348,12.348,0,0,0,1.323-5.593,12.545,12.545,0,0,0-6.162-10.8,9.492,9.492,0,0,1-3.091-2.956c-.141-.217-.279-.42-.409-.609a1.448,1.448,0,0,1-2.177-.224l-.641-.918a10.717,10.717,0,0,1-.735.855,11.738,11.738,0,0,1-4.334,2.833A12.757,12.757,0,0,0,99.8,42.226a12.353,12.353,0,0,0,1.3,5.543.236.236,0,0,0,.276.109,36.592,36.592,0,0,1,4.854-1.211,1.2,1.2,0,0,1,.219-.02Zm10.262-19.841,0,0ZM114.07,26.2l0,0Zm-.142-.789v0Z" transform="translate(-51.393 -11.679)"/><path class="c" d="M115.586,102.388c-4.665,0-9-1.008-11.9-2.765a1.254,1.254,0,0,1,1.3-2.145c2.477,1.5,6.438,2.4,10.595,2.4s8.118-.9,10.595-2.4a1.254,1.254,0,0,1,1.3,2.145C124.586,101.38,120.251,102.388,115.586,102.388Z" transform="translate(-54.282 -48.476)"/><path class="c" d="M131.714,78.051a1.255,1.255,0,0,1-1.212-.937l-.487-1.858a1.254,1.254,0,1,1,2.426-.636l.487,1.858a1.254,1.254,0,0,1-.9,1.531,1.272,1.272,0,0,1-.319.041Z" transform="translate(-67.68 -36.71)"/><path class="c" d="M121.035,78.051a1.255,1.255,0,0,1-1.214-1.572l.487-1.858a1.254,1.254,0,1,1,2.426.636l-.487,1.858A1.255,1.255,0,0,1,121.035,78.051Z" transform="translate(-62.6 -36.71)"/><path class="c" d="M108.643,180.678c-10.747,0-19.491-11.175-19.491-24.911,0-9.563,4.162-18.127,10.862-22.35a1.254,1.254,0,0,1,1.227-.062,26.022,26.022,0,0,1,6.953,4.673.6.6,0,0,0,.429.168.632.632,0,0,0,.468-.169,26.034,26.034,0,0,1,6.952-4.672,1.254,1.254,0,0,1,1.227.062c6.7,4.223,10.862,12.787,10.862,22.35,0,13.736-8.742,24.911-19.489,24.911Zm-7.876-44.752c-5.553,3.857-9.106,11.552-9.106,19.841,0,12.353,7.618,22.4,16.982,22.4s16.982-10.05,16.982-22.4c0-8.289-3.554-15.983-9.106-19.841a22.361,22.361,0,0,0-5.634,3.855,3.185,3.185,0,0,1-4.483,0A22.385,22.385,0,0,0,100.767,135.927Z" transform="translate(-47.339 -66.378)"/></svg>