<?xml version="1.0" encoding="utf-8"?>
<!-- Generator: Adobe Illustrator 22.0.1, SVG Export Plug-In . SVG Version: 6.00 Build 0)  -->
<svg version="1.2" baseProfile="tiny" id="Layer_1" xmlns="http://www.w3.org/2000/svg" xmlns:xlink="http://www.w3.org/1999/xlink"
	 x="0px" y="0px" viewBox="0 0 430.7 306.2" xml:space="preserve">
<g transform="translate(-501.199 -79.214)">
	<g transform="translate(630.346 147.419)">
		<path fill="none" stroke="#FFFFFF" stroke-width="5" d="M109.3,108.9l1.1,1.3L103,107l-0.2-1.7l0.8,0.3l1.8,1.4L109.3,108.9z
			 M23,53.5l-1.8,0.1l-5.3-1.6l-4.5-2.3L10.9,49l0.9-0.8l5.2-1.9l2.1-1.1l8-1.5l0.1,0.8l2,2.9l0.1,3.8l-1.4,0.9L23,53.5z M16.4,31.8
			l-2.5,0.8l-2.3-0.8l0.1-0.5l0.5-0.5l2.7-0.7l2.3,0.8L16.4,31.8L16.4,31.8z M41.1,23.7l0.9,1.1l1.6-0.2l1-0.4l1,1.5l-0.1,2.8
			l-0.9,3.9L43.5,35l-0.3,0.4l-0.6,0.2l-2.2-0.4l-3-2.5l-0.5-1.5l-1.1-1.6l0.5-0.8l-0.4-1.1l-0.6-0.9l-0.8-0.3l-0.1-0.3l0.1-0.4
			l0.5-0.3l5-1.6L41.1,23.7z M41.5,21.2l-0.7,1.1l-2.4,1l-3.3,0.7L33,24.3l-2.7-0.1l-0.9,0.1l-0.8,0.4l-0.4-0.1l1.3-1.5l1-0.8
			l6.2-0.2l2-0.4l0.9-1h1.2L41.5,21.2z M33.6,14.9L30,14.5L29.7,13l0.6-0.5l3.4-1L35,12l0.8,0.7l0,0.4l-0.7,1.1L33.6,14.9L33.6,14.9
			z M109.3,20.3l4.5,0.1l0.1-0.8l5.8,0.1l3.3,2.7l-2.1,3.3l2.5,4.7l2,1.8l1.9,3.5l-1.2,1.3l-0.4,3.7l-3.4,3.1l0.9,5.2l0.6,1.3
			l-0.3,3l0.7,6.8l1.6,2.8l0.8,0.3l1.7,1.7l3.6,9l0.8,0l0.8-0.7l-1.3-5.3l-0.1-1.7l0.4-0.9l1.4-1.4l0.8,0.2l1.8,1.1l0.4,1.3l0.1,6.4
			l0,0l-3.7,3.3l-2.3,1.2V79l-0.4,1.2l-2.4,1.4l-1.4,1.8l-1.7,3.7l2,0.6l2.9,1.4l9.5,2.8l4.5,1.8l4.2,1.3l1.8,0.8h0.7l1.3,0.6
			l-3.4,4.2l-1.6,2.4l-1,2l-1.6,1.2l-2.4,3.5l0,0l-1.7-0.7l-4-3.3l-0.1-0.3l1.1-4.2l0.6-0.3l3.7,0.5l1.5,0.7l0.5,0l1-0.7l0-0.3
			l-1.7-0.3l-5.8-0.4l-1.4,1.1l-0.5,1.3l-1.9,0.4l-1.4-2l-0.9-0.9l-1.7-0.4l-0.7,2.4l-0.9,0.5l-2.3-1.3l-0.8-0.6l-0.5-1.1l0.1-0.8
			l0.6-0.4l0.1-0.4l-0.4-0.9l-0.9-0.9l-0.4-0.2l-2.6,1.3l-2.6-1.4l-2.4-4.1l-0.8,0.4l-0.1,0.2l0.2,1.4l-0.6,0.1l-1.8-1.1l-1.6-3.2
			l-0.2-0.8l0.1-0.3l1.3-0.9l0.2-0.4l0.1-1.6l-0.4-1.9l0.6-2.1l1.8-1.5l2-1.3l0-1.9l-0.9-1.2l-2.5,2.3l-1.8,2.2l-0.5,3.9l0.1,3.1
			l-1,0.2l-1.6,1.1l0.6,0.5l0.6,1.3l-0.1,0.9l-2.5,1.9l-2.3,2.3l-0.1,0.4l0.3,1.3l0.9,0.8l0.3,0.9l-3.5,3.7l-1.9,1.6l-1,0.1
			l-3.9-0.4l-0.5,0.3l-1,1.1l-2-0.5l-1.7-2.2L90,101l0.3-0.2l-0.2-0.9l-1.7-4.4l0.8-2.2l2.7-1l0.8-0.6l0.2-0.4l-1.1-2.1L91.3,89
			l-0.4,0.2l-0.7-0.6l-0.5-2.1l0.5-1.3L90.1,85l-0.6-0.7L88.7,84l-0.9,0.4l0,1.3l-0.2,0.2L87.3,86l-1.2-0.5l-1.7-2.3l-0.1-1.3
			l-0.9-1.7L81,78.3L77.2,76l-1.1-0.3H74l-2.8,0.7L68,71.8l0.3-0.3l4.4-2.1l1.8-0.4l2.8,0.1l4.9,0.5l1.6,0.4l1.8,1.1l0.6,0.8
			l1.4,0.7l3.1-2.2l4.5-5.9l2.2-1.3l1.3-0.4l2.2-0.3l1.6,0.8l1.9,1.9l3.1,1.1l1-0.1l1.5-0.6l1.1,0.1l0.8,1.1l-0.1,1.3l0.2,2l0.4-0.5
			l0.5-3.7l-0.1-0.9l0.4-0.1l0.5,0.3l1.6,3.3l0.3,0.2l0.1-3l-0.4-1.2l-0.6-0.4l1.5-1.4l1.9-0.9l1-1.5l0.1-2.4l-0.3-0.6l-0.6,1.5
			l-2.2,0.7l-0.5,0l-0.8-1.1l0.2-0.3l3-1.2l0.9-0.7l-0.3-1.7l-1.5,0.3l-5.9,3.1l-2.6,0.2l-2.7-0.2l-1-0.5l-2.6-0.5l-2.5,0.3
			l-6.1,1.9L92,59.1l-2.1-0.9L89,58.4l-2.4,1.3l-1.3-0.6l-0.3-0.3l-0.3-1.2l-0.6-0.8l-0.4-0.1l-3,0.8l-1.6,1l-1.4,0.3l-1-0.1l-3.6-3
			l-1.2-0.5L70.1,54l-1.8-3l-1-2.3L67.2,47l1.1-1.2L68,44.4l-1.9-1.7L62,41.2l-0.5-0.6l0-0.4l-2.9-1.4l-8.1-2.7l0.3,0.6l1.2,0.8
			l0.1,0.6l-1.2,1l-2,0.7l-0.8-1.3L46.4,38L44.8,38l-2.2-1.3l1.2-1.7l0.6-1.5l0.6-0.8l3-0.6l1.8-3.1l0.9-4.5L50.1,22l6.6-2.2
			l0.5,0.1l0.1,0.3l1,0.3l5-0.9l2.5-0.8l1.2-1.8l4.8-4l1.8-1.1l2.4-1l4.2-1l7.1,0.6l2.7,1.4l7.5,2.9l1.5,0.1l5.1,4.5l1.4,0.4
			L109.3,20.3L109.3,20.3z M40.5,1.6l4.2,1.2l2.5,0.2l4.1,2.3l0.3,0.9l0.2,1.8l-0.6,1.4l-1,1.5l-2.2-1.2l-1.6-0.1l-1.8,0.7L43,10.4
			l-0.8-0.5l-1.8-2.4l-2.2-0.9l-2.1-3.1l-0.5-0.4l-1.9,0.2l0.3,1.2l2.6,2.7l2.5,1.1l1.5,0.2l0.9,0.5l0.6,1.1l-0.7,1.1l-1.7,0.8
			l-2.3,0.3l-0.8-0.3l-0.4-0.6l-0.7-2.9l-2.3,0.5l-1.2,1.1l-0.8-2.8L29,8.1l-1.8-0.2l-3-1l-0.6-0.4l0.5-0.3l0.6,0.3l3.1,0.3L29,6.2
			l-0.7-1.2l-1.6,0l0.2,0.9l-1.3-0.3l-0.5-0.9l0.2-0.8l1.9-0.5h2.2l5.4-0.9l1.1-0.4l0.5,0.4l1.2-0.1L37.3,2l0.8-0.5l1-0.1L40.5,1.6
			L40.5,1.6z M6.8,6.6L6.3,6.8L5,5.2L0,0.3L0,0l0.4,0l0.9,0.6l5.2,4.2l0.6,1l0.1,0.5L6.8,6.6L6.8,6.6z"/>
	</g>
	<g transform="translate(540.624 219.117)">
		<path fill="none" stroke="#FFFFFF" stroke-width="5" d="M82.7,139.7l-2.3-0.1l-2.2-1.1l-0.2-0.5l1.5-0.6l2,0.1l1.5,0.8l0.1,0.8
			L82.7,139.7L82.7,139.7z M52.8,135.5l2.7,1l2.6,0.2l1.3-0.2l0.6,0.4l0,0.4l-2.3,2.5l-0.3,0.1l-5-1.7l-0.7-0.4l-1-1.9L52.8,135.5z
			 M128.3,141.9l-1,0.1l0-0.3l2.3-2.5l1.8-1l0.9-1.5l1.3-1.5l0.5-0.1l3.7,1.2l-0.9,0.9l-4.7,1.8l-1.6,1.1l-0.2,0.6l-1.7,1.1
			L128.3,141.9L128.3,141.9z M101.9,134.4L100,134l-2.8-3.5L97,130l0.2-1.1l0.1-0.6l0.4-0.5l2.4-0.3l3,0.8l0.6,0.5l0.5,2.1
			L101.9,134.4z M24.1,124.5l1.2,0l0.6,2l-2.1,0.1l-2.5,0.8l-1.3,0.9l-1.4,1.8l-2.2,1.1l-3.6-0.4l-4-0.8l-1.5,0L4,130.7l-3.3,2.6
			l-0.4,0.1L0,133l1-3.9l4.1-5l5.4,1.6l3.9-0.7l1.8-1.6l1.9-0.9l3.4-0.9l0.3,0.2l0.1,1L24.1,124.5L24.1,124.5z M41.3,124l-0.4,0.2
			l-0.5-0.1l-0.4-0.6l0.5-3l0.5-0.3l2.5,0.8l0.1,0.4l-0.2,1L41.3,124L41.3,124z M135.2,120.4l-2-0.6l-0.3-0.8l0.5-0.7l0.8-0.3
			l3.4-0.4l0.3,0.2l-1.1,1.3L135.2,120.4L135.2,120.4z M152.2,112.6l-1.1,0.5l-0.6-0.1l-0.9,0.7l1,4.8v1l-1.3,3.8l-1.5,1.9l-4.4,3.2
			l-1.5,2.4l-0.1,1.9l-0.3,0.5l-0.7,0.4l-4.2-0.4l-0.7-0.4l-0.6-3.4l2.7-4.6l-0.3-0.8l1.5-4.2l1.8-1.5l0.7-0.3l1.3-1.3l1.8-2.2
			l2-3.5l1.1-0.6l1.9-0.2l1.4,0.7L152.2,112.6L152.2,112.6z M157,110l1.3,2l0.2,0.9l-0.4,0.8l-0.3,0.1l-1.2-0.9l-0.6-1.3l-1.5-0.3
			l-1.7,0.4l-0.8-0.1l-0.2-0.3l0.1-0.7l0.4-0.3L157,110z M73.5,112.6l-0.7,0.3l-2.2-1.4l-0.3-0.6l0.1-0.3l0.5-0.5l1.8-1.1l2,1.1
			l0.1,0.3l-0.6,1.5L73.5,112.6L73.5,112.6z M232.9,90.7l-0.4,0.5l-0.9,2.1l-0.1,1l-0.9,1.8l-0.4-0.3l-0.7,0.1l-0.1,0.6l0.3,0.7
			l0.4,0.3V98h-0.5l-0.5,0.3l-0.2,1l-1,1.5l-0.8,0.7h-0.4l-0.8-0.6l0.1-0.7l0.7-0.7l0.5-1.2l0.1-1.2l0.6-0.9l-0.4,0l-0.3-0.4
			l-0.5-1.3l0.1-0.7l1-0.7l1.1-0.4l0-1.1l0.3-0.3l1-0.5l0.4-0.8l1.5-1.2l0.8,0l0.4,0.4L232.9,90.7L232.9,90.7z M178.6,80.2l-0.9,0.4
			l-1.2-0.4l-0.6-0.6l0.1-1.8l-0.3-3.2l-0.7-2l0.2-0.5l1.7-0.5l2.7,5.1v1.7L178.6,80.2z M228.6,73.7l0.1,1.5l0.6,1.6l-0.9,0.2v0.4
			l1.9,1l0,0.5l-0.3,0.4l-0.6,0.1l-1.1-0.5l0,0.7l0.6,0.4l0.1,0.3l-0.1,0.6l-0.4,0.2l-0.5-0.1l-0.9-0.7l-0.3,0.2V81l1.4,1l0.3,0.5
			l0.8,0.5l0.5,0.9l-0.5,3.4l-0.4,1.4l-1,1.7l-1.9,1l-0.7-0.1l-0.3,0.3l0.5,1.5l0.8,0.5l-0.1,0.7l-1.6,1.5l-1.3-0.4l-0.5,0.3
			l-0.3,0.8l0.1,0.5l0.7-0.3l0,0.7l-0.9,1.5l-1,0.7l-1.9,2.2l0,1l-0.7,0.9l-3,1.3l-0.4,0.5l-0.7-0.1l-0.5-1.3l-0.5-0.4h-1l-1.1-1.9
			V101l0.3-0.3l0.5-2.2l0.3-4.6l0.4-1.1l0-0.6l0.4-1.5l-0.2-2.6l-0.6-2.2l1-0.1l-0.6-1.8l0.3-0.8v-0.7l0.6-0.5l0.3,0.3v0.5l0.4,0
			l0.7-0.4h0.7l0.1,1l0.3,0.3l0.5-0.1l0.7-0.7l0.8-1.9v-0.3l-0.7-0.4l0-0.4l0.3-0.4l0.8-0.6l0.1-0.5l0.6-0.5l0.4-0.9l-0.1-0.3
			l-0.4-0.2l-0.7,0.4l-1.1-0.9l-1.2-0.1l-0.7-0.8l0.1-0.5l0.9-1l1.5,0.9l0.5,0l1.9-1.5l0.9-2.4l1.1-0.7l0.1-0.9l-0.3-1.3l0.3-0.7
			l1.3-1.8l0.9-0.3l0.5,0.3l1.4,2.4l0.7,0.6l0,0.5l0.6,1l0,1.7l1.2,1.6l-0.1,0.7L228.6,73.7L228.6,73.7z M183.2,78.4l-2.7,3.5
			l-0.3-0.1l0-0.5l2.4-7.4l0.5-0.9l0.9-0.8l3.3-8.2l0.6-0.3l0.8,0.1l0.5,1l-2,6.5l-0.8,1l-1.3,0.7l-1.7,2.4L183,77L183.2,78.4z
			 M70.1,21.2l-3.1,0.6l-0.2-0.2l0.4-0.9l0-1.4l0.8-0.6l1.8,0.2l1.4,1.3l0,0.3L70.1,21.2z M72.7,18.7l1.2,0.4l0.5-1l0.4,0l0.4,1.1
			v1.8l-2.1,0.3l-0.3-0.1L71,18.9l0-0.5l0.3-0.3l0.4,0L72.7,18.7L72.7,18.7z M65.3,21.4l-0.9,1.7l-1.5,1.2l-3.1,0.9l-0.6-0.1
			l2.7-2.5l0.3-0.7l-0.4-0.2l-5.4,3.4l-1.1-0.1l-0.6-0.8l0-1.2l1.3-1.5l1.6-1l4-0.8l1.1-1.4l1-0.4l0.8,0.2l0.8,0.5l0.2,0.4
			L65.3,21.4z M47.4,14.8L44.6,14l-1-1l1.1-0.9l1.2,0.1l1.4,1.3l0.7,1L47.4,14.8L47.4,14.8z M51,12l-2.6,0l-0.9-0.7l1.8-1.6l1.2-0.2
			l0.9,0.7l-0.1,1.7L51,12L51,12z M31.1,9.2l2.8,1.7l0.3,1.4l-1.5-0.1l-0.3,0.5l0.3,1.1l1.1,1l0.8-0.3l0.5-0.5l3,1l-0.6,6.1
			l-0.5,0.9l-0.8,0.2l-1-0.3L34,22.4l-2.3,0.9l-3.8,2l-4.4,1.4L18.8,25l-3.2-1.5L12,21.1l-5.1-4.8l-0.7-1.9L6,10.2l0.4-0.8l1.8-1.2
			l0.6,0.1l0.6,0.9l0.8,0.7l0.9,0L12,8.8l1-0.6l3.4-0.9L24.6,7l2.3,0.4L31.1,9.2z M102.6,3.2l5.7,2.3l1.8,0.1l6.3-0.6l1,0.3l5.4,3.9
			l1,2.7v2l0.4,1.3l0.7,0.8l1.8-0.1l1.2,0.3l0.9,0.9l1.2,3.5l-0.1,0.9l-0.9,1.3l-0.4,3.7l0.2,1.2l-5.5-2.1L122,24l-4.1-2.4l-6.7-2.3
			l-3.6-1.9l-0.8-1.1l0-1.3l-1.2-0.9L105,14l-6-0.5l-3.5-0.5L95,13.6l0.2,0.8l1.1,1.3l0.3,0.8l-0.4,0.8l-0.7,0.2l-5.4-1.3L88.6,16
			l-2.4-0.9l-1.1-0.7l-4.2,0.2l-0.5-0.4l0.2-0.6l1-0.9l0.1-1l-1-0.7l-1.3-0.2l-2.8,1.8l-2.2,2L74,15.3l-1.5,1.3l-3,0.6l-0.7,0
			l-1-0.4l-0.7-0.6l-2.6-3.9l-2.2-1.5l-0.9-3.5l-1,0l-1.2,1.2l-0.9,2.2l-0.5,3.3L57.2,15l-0.6,0.2l-1.4,2.5l-0.5,2.1l-0.2-0.4
			l-0.4-1.5l0.8-1.7l0.2-1.8l-1.3-2l-0.7-2l3.3-2.5l4.8-5.8L67,2l4.2-0.2l7.3,0.3l3.1-0.7l1.3-1l0.5,0l0.5,0.3l0.2,0.5l0,2l0.8,0.9
			l0.8,0.5l2-0.4L91.1,2l0.5-0.4l0.3-1l0.7-0.3L95.7,0l2.6,0.8l3.6,1.5L102.6,3.2L102.6,3.2z"/>
	</g>
	<g transform="translate(503.706 81.828)">
		<path fill="none" stroke="#FFFFFF" stroke-width="5" d="M44.5,129.5l-0.8,0.1l-0.8-0.4l-0.7-0.9l-0.5-1.1l-0.4-2.4l-1.3-1.9
			l-0.9-3.7l0.6-1.6l0.4-0.6l0.5-0.3l0.9,0.1l1.2,1l0,0.6l-0.8,2.2l0,0.9l3,6.6L44.5,129.5z M28.3,112.5l5.6,0.5l1.9-0.3l0.8-0.5
			l5.8-0.2l9.2,0.8l-0.4,0.6l-2.1,0.9l-6.9,0.8l-13.1,0.8l-3-1.4l-0.2-0.3l0-1.2l0.9-1.1l0.9-0.1l0.3,0.6L28.3,112.5L28.3,112.5z
			 M16,109.9l1.4,0.5l2.7-0.7l4.4,1l0.7,1.4l0,2.5l-0.6-0.2l-3.5-0.1l-2.7,0.4l-0.7,0.3l-0.2,0.9l-0.6,0.2l-3.7-1.2l-1.7,0.4
			l-2.4,1.4l-3,0.8L5,117.8l-3,0.1l-2-3.4l0-1.6l1-3.2l0.7-0.8l3.5-0.7l2.7,0L16,109.9L16,109.9z M90.7,102.9l5.9,3.4l0.8,0.7
			l0.4,0.8l0,0.6l-0.5,1.1l-1.2,0.7l-0.8,0.1l-9-0.7l-1.7,1l-2.4,0.4l-2.9-1.3l-1-0.8l-0.4-0.6l0.4-1.5l-0.1-0.7l0.3-1.5l0.5-1.1
			l0.4-0.5l0.5,0.4l4.3-2.7l2.4,0.5L90.7,102.9L90.7,102.9z M83.9,98.6l-3,0.3l-1-0.7V98l1.3-1.2l1-0.4l2.7,1.1L83.9,98.6z
			 M76.3,86.9l-1,0.4l-3-0.7l-0.2-0.3l0-0.7l0.9-2.7l0.4-0.4l0.6-0.1l0.7,0.1l1,1.8L76.3,86.9z M82.8,74.9l2.9,3.7L85.2,80l-1,1
			l-0.6,1.2l0.1,0.7l1.1,1.7l0.8,0.5l0.9-0.6l1.8-0.3l1.6,0.7l1.1,1.5L91,87.2l-2,1.6l-1.6,0.4l-2-0.9l-1.8-2.2l-3.1,1.3l-0.6-0.2
			l-0.5-0.9l-0.9-3.9l-2.5-2.7l-0.3-1.5l0.8-2.9l1.3-0.3l1.1,0.9l1.8-0.4l1.3-1L82.8,74.9L82.8,74.9z M72.9,80.1L71.2,80l-0.2-0.6
			l0-5.2l1-0.7l2.4-0.3l0.6,0.7l0.6,2.5l-0.7,2.9L72.9,80.1L72.9,80.1z M90.4,20.9l0.7,0.3l0.5-0.1l0.6,0.2l1.4,1.3l0.4,0.7l0.6,4.9
			l-1.2,4.4l-2.1,3.6l-1.9,1.5L84.9,41l-0.6,0.9l0.1,1.5l0.6,1l2.5,1.8l1,0.4l1.3-0.2l1.9-1.4l0.3-3.3l1.2-2l1.6-1.3l1.3-0.2
			l1.2,0.2L98,38l0.7-1.5l-0.2-0.7L98,35.4l-0.6-0.1l-0.3-1.2l1.5-2.3l4.7-3.3l1.7-0.7l2.7-0.8l2-0.3l1.5,0l0.6,0.1l0.4,0.4
			l-0.7,11.5l-0.9,1l-5.6,3.3l-3.7,1.1l-2.2,2.2l0,0.6l0.6,1.3l1.6,1.4l1.3,0.7l6.1,2.2l1.1,0l1.1,0.2l0.5,3.7l-0.3,1.3l1,0.7
			l2.8,0.7L116,60l0.8,1.5l-1.3-1l-1-0.4l-6.9-1.6l-2.3-1.9l-2.4,0l-2,0.3l-1.7-0.4L98.3,56l-0.5-0.7l-2.2-0.4l-3-0.3l-0.9,0.6
			l-0.4,0.5l-0.7,3.4l0.7,0.6l0.4,3.5l-1,1.7l0.1,2l3.8,10.1l1.5,2.7l1.1,1.5l1.9,3.3l4.8,4.8l-3.1-0.2l-0.8-0.3l-0.6-0.5l0.2-0.5
			l-2.6-1.9L95,84.9l-0.8-0.6l-2-4.4l-2.1-3.5l-3.6-2l-1.4-2.2l0.9-7.1l-0.3-3.3L85,58l-1-0.5l-1.2-1.3l-1.1-3.4l-0.1-1.4l0.6-2.9
			l1.1-1.1l0.8-1.6L83.9,45l-2.7-0.8l-0.3-0.4l0.4-1.4l-0.7-2.4l-2.1,0.4l-0.2-0.6l0.2-3.8l3.2-5.8l0.2-1.5l-0.2-0.6l1.1-5.5
			l3.2-4.7l5.6-5.9l1-0.8l2.7,0l-0.4,1.7l-2.4,3.6l-0.6,0.7l-0.7,0.2l-1,0.8l-0.1,2.3L90.4,20.9L90.4,20.9z M106.4,14.8l-2.8,0.1
			l-2.8,0.7l-0.8-2.1l-0.5-3.7l0.1-1.5l1.5-2.8l1.4-1.7l2.2-2.2l3.3-1.5l0.4,0.1l2.8,3.8l0.2,1.2l-1.9,5.5l-1.3,2.4l-1.4,1.6
			L106.4,14.8z"/>
	</g>
	<g transform="translate(755.539 164.706)">
		<path fill="none" stroke="#FFFFFF" stroke-width="5" d="M119.6,197.9l-3.7-0.2l-4.1-0.7l-0.5-0.3l-0.3-0.8l0.1-0.3l4-3.5l2.5-0.7
			l0.3,0.1l0.4,1.3l1.9,4l0,0.5L119.6,197.9L119.6,197.9z M112.4,193.8l-3.8,3.1l-1.9,0.8l-2,0.4l-0.7-0.1l-0.6-0.5l-1-0.3l-8.8-0.6
			l-4.2,1l-0.8,0.5l-0.7,0.1l-0.4-0.6l0.1-0.8l2.4-6.2l4.5-8.7l2.9-4.4l0.8-0.8l4.4-3.1l3.6-1.4l7-1.3l3.1,0.2l1.2,0.3l0.5,0.5
			l1.6,2.7l0.9,0.9l1.9,0.4l0.9,1.4l-1.4,4l-1.7,2.8l-0.8,4l-0.8,1.1l-1.7,1.6l-2.9,0.6L112.4,193.8L112.4,193.8z M113.1,154.7
			l0.9,0.7l1.9,0.4l1.2,1.8l-1.5,0.9l-1.1-0.4l-1.7-2.3l-0.2-0.8L113.1,154.7z M53.5,26.7l4.2,0.8l8.8,0.6l2.3,1l0.1,0.2l-0.6,0.7
			l-4.7,0.8l-3.7,1.2l-8.3-0.7l-5.9-1.4l-1.3-1l-1.5-0.7l-3.8-1.1l-1.5-0.3L35.9,27l-3.1-0.5l-1.6-1.9l1.4-0.4l1.7,0.6l16.3,1.2
			L53.5,26.7L53.5,26.7z M119.1,33.6l1.8,0l2.9,1l9.2,4.2l9.5,5l2.6,0.4l3.8-0.5l1.9-0.9l1.5,0.1l0.3,0.8l1,1.3l2.8,1.3l1.4-0.3
			l0.1-0.4l2.4,0l3.9,0.6l2.3,0.8l0.5,0.4l0.2,0.6l-0.4,0.9l-0.7,0.7l-0.2,0.5l0.7,0.6l2.5-0.7l3.7-0.1l0.9,0.1l0.1,0.2v94.6l-1,0.1
			l-1,2.9l0.6,0.8l-0.1,0.5l-1.4,2.6l-0.8,0.8l-0.1,1.2l0.3,2.8l0.8,1.8l1.2,1.2l0.8,0.1l0.6-0.3l0,57.2l-1.6-1l-1.7-0.5l-0.9-0.6
			l-2.2-2.7l-3.8-3.5l-2.7-4.4l-7-6l-4.5-3.3l-1.7-1.9l-0.3-0.4l0.2-1l2-1.7l1.8-3.4l0.4-1.4l-2.4,1l-0.4,1.7l0.1,1.5l-1.9,1.1
			l-1.3,0.5l-5.2,0l-2.3,0.3l-2.3,1.3l-2.8,0.7l-1.3,0.1l-1-0.1l-1.3-0.8l-1.5-2.1l-3.4,1.3l-2.8,2.1l-0.9,1.9l-0.7,0.1l-1.6-3
			l-0.3-1.3l1.7-2.4l0.2-3.2l0.3-0.3l1.8-0.8l0.4-1.2l-0.1-1.5l1.3-3.3l1-1l0-0.8l-0.6-0.6l-1.6-0.6l-1.8-1.3l-0.9-2.1l-0.9-1.1
			l-2.5-1.7l-2.4-1.2l-0.2-0.6l0.3-0.2l6.6,0.3l1.5,0.9l1.4,0.3l3.2-0.3l1.2-1.9l-1.2,0.5l-0.4,0.5l-3,0.3l-5-1.5l-2.5-1.1l-4.3-3.8
			l-0.5-0.6l0-0.8l0.9-0.7l1.2,0l1.4,0.5l1.1,0l1.6-1l2.7-0.3l1.9,0.6l1.7,1.7l1.5,0.9l0.8,0.2l1.3-0.3l-1.5-0.3l-1-0.5l-1.8-1.7
			l-0.8-0.4l-1.3-0.5l-1.4-0.2l-5.1-2.7L114,153l1-0.3l-0.7-1l-5-4.8l-1.1-1.5l-0.8-1.7l-0.5-1.6l0.1-1.3l-0.7-2.1l-1.8-3.3l0-3
			l-2.2-0.6l-1.1-1l0.6-0.9l4.1-2l-0.3-0.2l-0.7,0l-2.4,0.4l-1.5,0.8l-2,0.6l-0.4-0.2l-0.5-2.7l0.5-4.8l-0.2-0.7l-0.7,1.3l-2.2-0.8
			l-4.3-2.9l-0.7-0.9l-2.2-1.4l-1.4-0.4l-0.9-0.5l-0.1-0.3l0.6-0.5l-1.9,0l-2.8-1.3l-2.7-1.9l-0.9-1.1l-1.5,0.6l-5.3-1.5L67,109
			l-0.6-0.6l-4.3-2l-6.9-3.7l-2.6,0l-5.7-2.3l-0.7-0.6l-0.9-1.4L44.1,98l-3.2-0.2l-2,0.2l-7.6-1.7l-2.4,0.2l-2.5,0.6L25,96.7
			l-5.5-3.1l-2.4-1l0,0l2.4-3.5l1.6-1.2l1-2l1.6-2.4l3.4-4.2l-1.3-0.6h-0.7l-1.8-0.8l-4.2-1.3l-4.5-1.8l-9.5-2.8l-2.9-1.4l-2-0.6
			l1.7-3.7l1.4-1.8L5.5,63l0.4-1.2v-1.7l2.3-1.2l3.7-3.3l0,0l0.9,3.7l0.7,0.5l1-0.2l1-0.7l0.1-0.7l0.5-0.5l0.7,0.1l0.2,1l-0.3,1.8
			L15.9,61l-0.3,2.1l1.6,3.2l3,2.2l3.1,0.8L29,70l3.3-0.6l1.4-0.7l1-0.9l0.4-0.9l0-0.6l0.9-1.1l0.7-0.5l2-0.6l1.4-1.1l0-0.4
			l-0.6-0.5l0.6-0.8l3.7-1.6l0.8-1.2l0.5-4l1.8-2.2l0.6-0.1l3.4-1.6l1.8-1.5l0.6-1.1l1.6-4.2l0.1-1l-0.3-1.2l0.6-0.7l1.3-0.9
			l1.9-0.1l1.3,0.1l0.1,0.4l0.3,0.2l1.4,0.4l1.7,0.1l2.2-0.2l2.2-1.2l3.9-1.7l1.9-0.6l1.2,0.2l1.9-0.3l1.2-0.8l0.1-0.4l-0.9-2.7
			L75.7,33l-1.3-1.5l0.3-1.8l1.8-0.9l1.8-0.5l2.1-0.9l3.7-1.9l0.6-0.8l2.3-1.1l6.2-2.2l0.8,0l1.4,0.4l1.2,1.4l2.1,1.6l9,3.2l6.2,1.5
			l2.3,1.4l1.1,1.5l1.4,1.2L119.1,33.6L119.1,33.6z M18.5,12.7l-1.4,0l-1.7-2.4l0.3-1.5l0.7-1l1.2-0.1l1.1,0.5l1.6,1.6l-0.1,1.5
			l-0.7,1L18.5,12.7z M32.7,0.9L35.4,1l2.2,0.4L40,2.9l1.4-1.1l0.8-0.1l1,0.6L47.7,6l3.3,4.8l1.8-0.3l2.5,1.1l0.5,0.5l-1.2,1.1
			l-1.9,1.1L50,14.8l-1.5,0l-1.3-1l-0.7-0.2L45,13.7l-1.1,0.4l-0.9-0.2l-1.3-1.3L40.6,8l0-1.4l-0.8-1.8l-0.7-0.1L36.4,6l-2.6-2.2
			l-1-0.2l0.1,0.8l-0.6-0.2l-1.5-1.4l-0.9-2L30.3,0L32.7,0.9L32.7,0.9z"/>
	</g>
</g>
</svg>
