<svg xmlns="http://www.w3.org/2000/svg" width="12.472" height="10.376" viewBox="0 0 12.472 10.376"><defs><style>.a{fill:#fff;}</style></defs><g transform="translate(0 -41.346)"><g transform="translate(0 41.346)"><path class="a" d="M12.272,46.049l-4.5-4.5a.685.685,0,0,0-.965,0l-.409.409a.678.678,0,0,0-.2.483.691.691,0,0,0,.2.488l2.628,2.633H.674A.666.666,0,0,0,0,46.23v.578a.692.692,0,0,0,.674.7H9.051L6.394,50.157a.676.676,0,0,0,0,.958l.409.408a.685.685,0,0,0,.965,0l4.5-4.5a.688.688,0,0,0,0-.969Z" transform="translate(0 -41.346)"/></g></g></svg>