<?xml version="1.0" encoding="utf-8"?>
<!-- Generator: Adobe Illustrator 22.0.1, SVG Export Plug-In . SVG Version: 6.00 Build 0)  -->
<svg version="1.2" baseProfile="tiny" id="Layer_1" xmlns="http://www.w3.org/2000/svg" xmlns:xlink="http://www.w3.org/1999/xlink"
	 x="0px" y="0px" viewBox="0 0 324.3 467.8" xml:space="preserve">
<g transform="translate(-404.861 -46.199)">
	<g transform="translate(577.511 48.978)">
		<path fill="none" stroke="#FFFFFF" stroke-width="5" d="M79.6,121.4l-2,2.8l-1.7,5.7l-2.3,4.1l-3.5,4.8l-3,1.3l-3.4,2.6l-2.7,2.6
			l-3.4,5.8l-0.9,2.5l-4.4,5.3l-4.7,2.4l-2.9,0.7l-2.3,0l-9.5,1.5l-6.7,1.6l-5.1,0.6l-2.3-0.7l-5,0l0,0l0.6-2.2l1.9-3.2l-0.2-2.3
			l0.4-2.4l-0.7-1.9l-1.2-1.3l-4.6-0.8l-2.7-2l-1.4-1.2l-0.6-1.9l0.1-1L3.6,143l-1.9-0.5l-1.2-0.9L0,139.8l0,0l5.3-0.2l5.2,1.1
			l6.8,2.3l0.7,0.1l1.3-0.8l8.7,2.1l3.6-0.1l2.8-1.7l12-5.3l1-1.2l1.9-4.9l2.2-0.9l6.1,0.4l0.5-0.3l1-1.3l0-1.4l-1.2-0.7l-1.4,0.1
			l-0.6-1l-0.1-0.8l1-1.8l2.6-1.9l2.2,0.8l1.6-0.1l4.6-2.6l0.5-1.2l-1.2-2.4l0.1-0.7l5.9-4.6l2.4-0.2l3.9,1.1l1.5,1.2l-0.4,1.2
			l0.2,1.1l3.3,2.8l-0.7,1.9l-1.4,0.8l-1.5,0.1L79.6,121.4L79.6,121.4z M90.3,74.3l-0.5,0.2l-1.1-0.5l-0.9-3.3l1-2.7l1.2-0.5
			l1.2,0.7l0.3,0.6l-0.2,0.8l-1.7,1.9l0.1,1l0.9,1.3L90.3,74.3L90.3,74.3z M97.1,36l-0.5,1.3l2.3,2.9l0.4-0.2l1,0.6l0.3,2.8L99,45.5
			l-0.5-0.3l-0.4,0.2L98,46.8l-0.4-0.2l0-0.7l-0.7-1.3l-1.1,0l-0.5-0.7l-0.9-0.3L94.3,43l-0.6,0.1l-0.7-1.6l-0.1-1.1l1.1-2.4
			l-0.2-0.4h-0.6l-0.2-0.9l0.7-0.3l-0.2-0.3l-0.8,0.2L90,34.8L89.5,34l0.2-2.1l1.7-0.6l2.3,0.4L97.1,36z M141,28.8l-0.7,0.1
			l-0.5-0.7l-2.9-6.3l-0.3-2.3l0.6,0l0.9,0.7l3.1,4.2l0.1,1L141,28.8z M142.9,21.5l-2.4-0.3l-0.4-2.9l1.6-1.4l2.2-4.2v-0.9l-0.5-0.4
			l-2.3-0.5l-0.4-0.4l-0.7-2.2L140.1,7l1.2-5.6l0.8-1.4l2.9,0.5l1.8,1.6l2.2,8.2l-1.8,2.6l-2.9,7.3L142.9,21.5L142.9,21.5z"/>
	</g>
	<g transform="translate(489.796 332.993)">
		<path fill="none" stroke="#FFFFFF" stroke-width="5" d="M7,0l3.7,0.9L12,1.5l1,1.2l0.9,0.3l1.6-1.3l1.6-0.5L18,1.5l1.3,3.1
			l-0.7,1.3v0.7L19,7.3l2.5,1.2l2.7,0.4l1-0.5l2.5-2.6l3.4-1.3l0,0l6,2.4l4.5,1.3L43,7.4l1.7,0.3l2.4-0.1l1,0.5l1.2,1.5l2.4,0.5
			l0.4,0.7l-0.2,2l1,0.4l1,1.4l1.2-0.2l1,2.4l1.2-0.1l0.4,0.3l-0.2,0.5l0.3,1l0,0l-2,2.8L56,23l3,0.9l0.8,0.8l1.2,0.5l1.6,2.6
			l-0.3,0.9l-0.8,0.3L57.3,25l-1.4-0.8l-1.7,0l1.6,2.9l-1,2.8L52.2,31l-0.1,0.9l1.9,3l3.8,2.7l5,2.8l-0.1,0.5l1.3,1.6l0.2,1.1l1,0.7
			l3.6-0.3l1.4,0.2l0.2,0.9l-1.1,0.8L68.8,48l1.5,0.8l0.2,0.8l-0.7,1l1.3,2.9l0.4,0.3l5.5-0.4l-0.2-0.9l-1.9-1.4l-0.4-0.9l0.5-0.2
			l1.4,0.1l1.6,1.1l1.5,3.6l0.4,2.4l-0.3,6.2l-2.7,2.2L75,64.4L71.2,61l-0.7,0.1l-0.4,0.3l0.5,0.9l2.6,2.3l0.8,1.2l0.2,1l-0.6,0.8
			L72.9,68l-0.7-0.9l-1.3,0.6l-1.5-3l-1.7-1.1l-3,1.7L63,65.9l-1.9-0.2l-6.2,1.7L53.2,67l-3,1.7l-2.1,0.4l-1.4,2.6l-0.8,3.2l0.7,2.4
			l1.9,1.8l0,0.7l-2.8,2.9l-3.8,0.1l-3.5-1.6l-4.7-0.5l-1.3,0.6l-0.9-0.2l-0.5-0.9l-1-0.7l-3.5-1.4l-1.2-1.1l-0.5-1.2l-1.3-1.3
			l-0.5-1l0.6-4.1l0.4-0.3l1.3-4.8l-0.2-3.2l0.9-2.6l1.2-0.6l1.5-3.2l-0.1-3.2l-0.6-1.3l-3-1.2l-5.4-0.8l-1-0.8l-2.5-3.7l-1-0.5
			l-0.5-0.8v-1.1l-1.2-0.2l-1.4,0.2L10,38.4L3,32.3l-1.4-1.8l-1-0.5l-0.5-1.5L0,26.7l0.8-2.1l3.6-5L6,18.8l1.4-3.5l-0.1-5.2l0.3-1.2
			l0.8-1l0-2.7L8.1,5l0.3-0.9L7.7,4.5L7.2,4.1L6.9,2.3H6.6l-0.3,1L5,3l0.3,0.7l0.5,0.1L5.7,4.3L5,4.2L4.8,2.6L4.1,2.1l0-0.5L5.2,2
			l1.1-1.7L7,0z"/>
	</g>
	<g transform="translate(430.619 298.644)">
		<path fill="none" stroke="#FFFFFF" stroke-width="5" d="M61.7,210.7l2.5-0.1l2.6,0.8l-0.7,1.1l-1.7,0.3l-7.2-1.2l-1-0.6l0-0.5
			l0.9-0.6l2.2,0.7L61.7,210.7L61.7,210.7z M52.1,201.3l2.5,1.2l1-0.6L56,203l-0.6,1.8l-3.8,0.5l-1.4-1l-0.5-1.4l0.3-2.7l1,0.2
			L52.1,201.3z M45,177.2l-1,2.1l-0.8-4.1l0.5-2.9l-1-5.6l-0.2-9.7l0.9-4.7l0.4-0.8l0.5-0.1l0.3,0.7l0,1.5l1,1.9l1.6,6.1l-1,8.9
			L45,177.2L45,177.2z M20.1,5.1L21,6.3l0.8-0.7l1.3-0.3l2.1-2.1l0.7,0.4l3.3-0.3l0.3,1.3l1.9,0.9h4.1l3,1.3l1.8-5.6V0.3L41,0
			l2.9,3.3l0.4,1l3.3,4.6l2.6,2.4l2.9,1.5l1.7,0.7h1.9l0.2-0.7l1-0.3l2.3,0.3l0.5,0.5l1.7,0.2l10.6,4.5l3.9,0.7l2.2,1.3l1.9-0.2
			l1.5,0.3l2.9,2.2l1.4,0.5l1.9,0.1l1.5,2.3l1-0.1l1.4,1.1l2.8,5.8l-1.4,0.4l-0.6,0.6l-1.7,3.4L90.9,37l-0.6,1.7l0,0L86.9,40
			l-2.5,2.6l-1,0.5l-2.7-0.3l-2.5-1.2l-0.4-0.7v-0.7l0.7-1.3l-1.4-3.1l-0.9-0.2L74.7,36l-1.6,1.3L72.2,37l-1-1.2l-1.3-0.6l-3.7-0.9
			l0,0l1-1l-1.7-2.5l-8.3-2.2l-1.6-0.1l-3.7,1.4l-4.1,2.5l-7.8,5.6L33.2,42l2.6,6.8l3,2.2l1.3,0.5l1.2,2l-0.3,1.9l-0.2,7.9l1.3,3
			l0.7,5l-0.3,1.2l-2.6,4.2l-0.8,2.3l-0.4,7.6l1.7,2.4l-1.2,8.5l1.5,4.1l1,7.2l-1.2,4.1l-2,2l-1.2,0.7l0,5.4l-1.7,6.3l4.6,7.8
			l3.1,10.4l-0.3,0.5l-1.9-0.6l-2.3-3.6l-0.8-0.4l-4.2,1.2l-3,1.5l-1.9,0.5l-6.6-1.3l-2.9,2.5l-0.6,1.7l-2.1,1.4l-4.4-0.1l-0.7-0.5
			l-0.5-1.2l0.1-0.6l-0.7-0.9l-6.2-2.2l-4.3-6.4L0,134.7l1-6l0.9-1.8l2.7-3.5l2-4.9l0.2-1.7l-0.9-2.1l-0.4-3.2l4-6.7l1.1-9.3
			l0.1-5.3l-1.1-8.4l-2.4-3.9L3.8,71L5,67.8l1.4-1.9l-1-3.1l0,0l-0.8-4.2l-1.1-2.6l-0.2-2.1l-1.6-1.5v-0.9l0.9-0.7l0.9-0.1l0.5,0.7
			l2-0.6l0.6-0.5l0.5-1.3l1.5-0.6l2.4,0.1l0.1-0.9L9.6,46l-1.1-2.6l0.7-1.6l-0.2-1.4l-0.6-0.7l0.5-2v-2.3l0.7-1.7l1.7,0.7l2.4-0.9
			h1.1l1.6-1.8l0.5-1.7l2.8-2.1l0.5-1.3l-0.2-1.8l-0.5-0.8l-1.3-0.7l-2.1-0.4l-0.4-0.5l-0.6-1.2v-1.9l-0.7-0.7L11,16.8l0.1-2.9
			l4-2.9l1-1l0.3-0.8L18.1,9l0.3-0.7l-0.6-2L20.1,5.1L20.1,5.1z"/>
	</g>
	<g transform="translate(407.396 258.055)">
		<path fill="none" stroke="#FFFFFF" stroke-width="5" d="M31.5,0l0.2,2l-0.5,1.3l0,2.1l0.6,2l0.4,3.1l0.2,0.6l0.9-0.2l0.1,1.2
			L32,14.9l0.1,1.2L31.7,17l-3.5,0.4l-0.4,0.8l1.2-0.4l0.2,0.5L28,19.1l-1.5,0.2l0,0.6l1.1,1.4l0.7,0.5l0.8-0.1l0.9,1.3l1.4-0.2
			l1.3-1h0.8l1.7,1l1.3,1.2l-0.2,0.6l-1.2,1.3l0.7,1.9l2.4,2.2L38,31.4l0.9,0.3l1,1.7l-0.7,0.9l-0.2,1.2l0.9,0.6l1.4-0.2l1.2,0.5
			l0.7-0.3l0.1,6.2l0.3,0.8l-0.8,0.5l0.5,2l0,0l-2.3,1l0.6,2l-0.3,0.7l-1.6,0.2l-0.3,0.8l-1.1,1l-4,2.9l-0.1,2.9l3.4,1.7l0.7,0.7
			v1.9l0.6,1.2l0.4,0.4l2.1,0.4l1.3,0.7l0.5,0.8l0.2,1.8l-0.5,1.3l-2.8,2.1L39.5,72l-1.6,1.8h-1.1l-2.4,0.9l-1.7-0.7l-0.7,1.7v2.3
			l-0.5,2l0.6,0.7l0.2,1.4l-0.7,1.6l1.1,2.6l1.3,1.5l-0.1,0.9l-2.4-0.1l-1.5,0.6l-0.5,1.3L29,91.1l-2,0.6L26.5,91l-0.9,0.1l-0.8,0.7
			v0.9l1.6,1.5l0.2,2.1l1.2,2.6l0.8,4.2l0,0l-5.4-2.1l-2.3-0.3l-2.8,2.5l-1.1,0.2l-2.2-0.3l-3.2,0.7L8,105.3l-1,1.3l-0.4-0.2
			l-3.2-7.2l-0.3-1.7L3,87.1l0.6-0.6L5.1,80l-0.2-0.9l-0.7-0.7L2,78.1l-1.6,0.7L0,75.4l0.9-3.7l0.8-1.6l0.8-0.5l1.6,1.3h1.6l3.9-2.6
			l5.4-5.3v-2.3l-0.8-2.4l0.1-1.8l0.5-2.8l2.7-7.5l1-1.4l1-0.6l1.7-0.5l1.3,0.6l0.7-1.4l0.6-3.7l-0.3-0.7l-1.2-0.6l-0.3-0.5
			l-1.1-3.9l0-1.2l1-2.4l-1-5l-0.2-2.9l0.1-0.6l1.5-1.1l-0.5-2.1l-0.5-0.7l0.1-0.7l1.7-3.4l4-3.4l1-4.5l1.2-3.1L30,1.1L31.5,0z"/>
	</g>
	<g transform="translate(433.83 173.709)">
		<path fill="none" stroke="#FFFFFF" stroke-width="5" d="M164.2,261l-2.6-0.2l-1.5-2.8l-0.2-1.8l3,0.3l1.1,0.9l0.4,0.8L164.2,261z
			 M101.1,264.9l-2.3,0.1l-3.8-4.6l-2.2-3.5l0.2-1.8l1.9-5.1l1.9-1.3l2.3,0.5l0.5,0.4l3.1,5.9l-0.2,7.5l-0.4,1.4L101.1,264.9z
			 M128.4,232.3l1.4,9l0.5,0.9l-0.2,2.3l-5,4.4l-1.8,3.9l0.2,1.1l1.1,0.8l1,2.3l-0.5,3l-1.6,2.7l-2.1,0.6l-3.7-1.3l-5.6-0.5
			l-1.1-0.4l-0.4-2.1l1.9-6.8l0.6-1.4l2-1.2l0.3-0.8l-0.3-3.3l-2.3-5.2l1.7-3.6l0.9-0.5l2.3-0.1l2.6-0.7l3.2-2.5l3.7-1.8
			L128.4,232.3L128.4,232.3z M147.8,234.6l0.1,4.8l-0.5,1.9l-1.4-1.5l0.3-2.3l-1.7-2.5l-0.9,0.5l0.4,4.7l-0.8,0.6l-1.4-0.6l-0.3-0.6
			l0.1-0.9l0.8-1.2l-0.1-0.8l-0.3-0.3l-1,0.5l-1.2,3l-1,4.3l-0.4,6.3l1.7,1.4l0.8-0.2l6.6,5.2l0.1,0.8l-2.8,3.6l-3.6,1.6l-0.8-0.2
			l-1.3-1l-3.8,1.7l-1,1l-0.5,1.6l1.5,0.1l0.5,0.7l-0.5,1.3l-2.9,4.5l-1,0.6l-5.8-0.3l-2-3.4l-1.4-3.5l6.5-9.9l1.8-4.9l2.8-12.4
			l-0.4-6.3l0.8-2.9l2-4l4.6-3.3l1-0.3l0.8,0.3l-0.7,1.2l0.5,1.7l2.3,1.3l2.3,3.2L147.8,234.6L147.8,234.6z M142.6,208.2l0.8,0.1
			l3.3-0.8l1.6,1.6l0.8,1.6l-0.2,1.6l-3.5,4.7l-0.6,0.3l-3.1-0.2l-2-2l-2-2.7l-0.4-1.1l0-1.7l2.1-2.4l1.5-0.3L142.6,208.2z
			 M147.5,97.5l1.1,2.2l-1.6,2.6l1.9,3.6l1-0.2l0.9-2.2l1.1-0.8l0.4-1.1l1.3-1.5l1.8-0.8l5.7,2.7l-1,6.2l-1.5,0.9l-1.3,1.9l-1.2,0.1
			l-2.7-1.2l-0.6-1.3l-1.5-1.5l-1.2,0.5l-0.6,1.1l-0.4,1.3l-0.2,3.8l-0.4,0.7h-0.7l-1.1,0.7l-1.2-0.6h-1l-0.7-0.3l-0.2-0.9l0.4-0.6
			l0.8-0.1l1.8-2.1l-0.7-2.4l-0.6-4.9l-0.4-0.7l-0.9,0.6l-2.7,3l-0.6,2.4l-1.7,2.1l-0.1,0.7l-2.7,2.4l-0.9,0.4l-1.2-0.2l-1.6-3.7
			l-1.2-0.5l-0.4-0.7V107l1.1-4.2l2.3-2.7l0.6-1.2l0.7-0.9l1-0.1l1.7,1l0.8-0.6l4.4-1.3l1.4,1.6l1-2h0.7L147.5,97.5L147.5,97.5z
			 M70.7,4l1,0.1l4.6-0.7l2.1-1.9H79L79.8,2V3l-0.5,0.7l-1.3,0L77.4,4l0.5,0.2l0.4,1.6l1.3,1.9l2.1,2.2l1.3,0.6l1.5,0.4l13-1.8
			l0.4,0.2l1.3,2.7l0.7,0.3l0.8-0.2l2-1.6l1.1,0l4.1,1.7l0,0l-5.1,1.9l-0.6-0.1l-1.2,1.4h-0.9L99.9,17l-0.7,0.6l-1-0.4L97.1,16
			l-1.1-1.8l-1.9,0.3l-1.8,1.4l-2.5,0.7l-4.7,2.2h-3.3l-1.1,0.9l-3-0.1l-2-1.2L75,19.3l0,2.2l-1.2,0.2l-2.2-0.9l-2.4,0.9l-0.8,0.8
			l-0.1,2.4l-0.7,0.4l0.6,1l1.3,0.7l1.1,1.8l2.4,0.8l1.6,0.1l0.4,3.3L74.2,34l0,0l-3.1-0.9l-3.9,1l-1.4,1.9l-4.5-0.5l-3.5,0.8
			l-1.3-0.4l-1-1l-4.3-1.3l-1.8-1.2l-7.7-0.4l-2.6,1.5l-3.8,1.3l-3.8,3.9l-4.8,7l0.8,0.7l-1.2,1.9l-0.5,4.8l-1.3,1.4l-1.1-0.2l0.2,3
			l-1,2.3l-0.1,3.1l0.8,1.3l0.1,1.9l1.4,3.3l-0.6,1.9l-0.3,5l0.7,1.6l2.7,4.1l5.4,6l0.4,1l1.1,0.6l0.8-0.1l1.7-1.2l0.7-0.2l1.3,1
			l0.5,1.3l2.5,0.2l3.3,5.3l-1,3.4l0.2,1.3l0.6,1l1.2,0.5l2.3,4.9l1.2,0.1l1.9-1l0.6-1.3l1.2-0.5l1.5,0v1.6l0.5,0.8l1.2,0.4l2.7-0.4
			l5.5,0.7l1-0.7l2.1-2.8l2.4-4.9l5-6.3l0.9-0.3l0.7-1.1l1.9-1.5l1.5-2.7l1.4-0.8l2.6-0.7l0.5-2.1l1.1-0.3l0.8,0l0.7,0.7l-0.7,3.3
			l0.6,0.8h0.6l2.6,1.5l4.9,0.6l2.1,0.9l3-2l1.7-0.3l1.6,0.6l1.1,0l1.2-1.2l0.9-4.5l3.4-1.3l2.2,1l6.1-2.3l8.4,1.2l3.8,0l5.9-0.6
			l1.6-0.8l-0.2-0.6l-3.3-1.2l-4.5-0.5l-1.1-0.7l0.1-0.6l3.3-1.4l3.4-0.5l4.1,0.1l1.1-0.3l0.8-1.5l0.5,0l6,0.2l3.5,1.3l3.8,2.1
			l1.7,4.3l-0.3,2.8l-1.8,2.1l-0.8,4.4l-1.1,1.5l-0.7,0.5l-2.6-0.4l-0.9-0.5l-2.8-3.3l-0.7-2l-3.3-0.8l-9.7,1.4l-0.9,1.2l-0.2,1.6
			l-1.1,2.1l-2.9,3.2l-2.3,3.9l-2.7,2.1l-4.7,5l-2.5,3.2l-8.4,4.7l-5.9,0.8l-2.3,1.5l-4.5,0.9l-1.5,1.1l-2.2,5.4l-1.9,1.9l-1.1,0.6
			l-2.4,0.4l-2.5-0.1l-0.7-1.4l-2.9-2.9l-4.4-1.9l-1.2,0.6l-0.4,2.3l2,5.7l0.9-0.7l2.4-0.1l2.1,2.3l3.5,5l1.9,0.8l2.1-0.4l1.8,0.5
			l4.8,4.9l5.1,8.8l1.8,5.7l4.6,3.7l6.9,4.8l0,1.5l-1.6,2.5l0,0.8l4.3,3.9l0.6,0.3l1.2-0.6l2.1,1.5l-2.5,2.9l-2.2-0.6l-0.7,0.7l0,0
			l-0.3-1l0.2-0.5l-0.4-0.3l-1.2,0l-1-2.4l-1.2,0.2l-1-1.4l-1-0.4l0.2-2l-0.4-0.7l-2.4-0.5l-1.2-1.6l-1-0.5l-2.4,0.1l-1.7-0.3
			l-1.5,0.7l-4.5-1.2l-6-2.4l0,0l0.6-1.7l0.9-0.5l1.7-3.4l0.6-0.6l1.4-0.4l-2.8-5.8l-1.4-1.1l-1,0.1l-1.5-2.3l-1.9-0.1l-1.4-0.5
			l-2.9-2.2l-1.5-0.3l-1.9,0.2l-2.2-1.3l-3.9-0.7l-10.6-4.5l-1.7-0.2l-0.5-0.5l-2.3-0.3l-1,0.3l-0.2,0.7h-1.9l-1.7-0.7l-2.9-1.5
			l-2.6-2.4l-3.3-4.6l-0.4-1l-2.9-3.3l-0.7,0.3v0.9l-1.8,5.6l-3-1.3h-4.1l-1.9-0.9l-0.3-1.3l-3.3,0.3l-0.7-0.4l-2.1,2.1l-1.3,0.3
			l-0.8,0.7l-0.9-1.2l0,0l-0.5-2l0.8-0.5l-0.3-0.8l-0.1-6.2l-0.7,0.2l-1.3-0.5l-1.4,0.2l-0.9-0.6l0.2-1.2l0.7-0.9l-1-1.7l-0.9-0.3
			l0.2-1.4l-2.4-2.2l-0.6-1.9l1.2-1.3l0.2-0.6l-1.3-1.2l-1.7-1H6.2l-1.3,1l-1.4,0.2l-0.9-1.3l-0.8,0.1l-0.7-0.5L0,104.5v-0.6
			l1.5-0.2l1.3-0.7l-0.2-0.6l-1.2,0.5l0.4-0.9l3.5-0.4l0.4-0.9l-0.1-1.2l1.2-2.7l-0.1-1.1l-0.9,0.2l-0.2-0.6l-0.3-3.1l-0.6-2v-2.1
			l0.5-1.3l-0.2-2l0,0l4.3-3.5l0.3-2.2l1.4-1.3l0.7,0l2,4.4l0.5,2.2l1.3,2l0.5,0.1l0.7-1.2l0.2-1.2l-0.7-4.1l-1.9-2.4l-1.9-6.4
			l0.3-5.8H13l0.3-1.7l1.4-3.7L14.1,57L11,57.9l-0.7-0.3l-1.6-1.1l-2.2-4.1L9,52.8l-0.2-1.3l1.9,1l1.2,0.9l-0.1,0.9l1.2,0.8l0.5,1.2
			l1.6,0.4l1.5-1.8l0.9-2.3L17.3,49l-0.7-1.4l-3-3.1l-0.3-0.8l1-0.6l1.9,0.7l2.1,0.1l0.2-0.6L17.6,41l-1.3-1.6l-0.1-0.5l1.2-1.8
			l0.1-1.5l1-1.5l1.5-0.9l2.1-0.2l1.2-0.9l0.3-1.8l-0.8-3.7l0-1.2l0.4-0.8l1.7-1.4h1.7l4-2.2l0.6-1.1l0.1-3.4l0.5-1.6l1.4-1l1.4,0
			l0.7,0.5l0.2,1.1l-0.5,2.6l0.3,0.9l3.1,2.1l6.1,1.1l1.1-2.6l0.3-1.7l1.4-2.3l1.6-1.6l2.5-0.9l1.9-2l1.1-5.1L54,2.5l0.5-1.7L59.2,0
			l5.6,0.7l1.9,0.8L70.7,4L70.7,4z"/>
	</g>
	<g transform="translate(501.419 186.011)">
		<path fill="none" stroke="#FFFFFF" stroke-width="5" d="M40.3,0l1.3,0.5l5.5-0.1l3.8,0.4L58.6,3l0.5,0.8l6.7,4.1l2.5-1.6l1.9-2.8
			L76,2.8l0,0l0.5,1.9l1.2,0.9L79.7,6l1.6,1.6l-0.1,1.1l0.6,1.9l1.4,1.2l2.7,2l4.6,0.8l1.2,1.3l0.7,1.9l-0.3,2.4l0.2,2.3l-1.8,3.2
			L89.8,28l0,0L85,28.1l-3.4-0.9l-2.9-2.7l-1.8-2.7l-2.3-2l-1.2,0.9l-3.1,0.3l-19.1-0.7h-4.1l-6.9,0.7l-5.4-0.1l-1.2,0.3l-1.4,1.2
			L28.6,23l-4,0.1l-3.3-3.8l-6.6-0.7l-0.5,0.3l-0.5,1.5L13,21l-6.3,0.7l0,0l0.6-1.1L7,17.3l-1.6-0.1L3,16.5l-1.1-1.8L0.6,14L0,13
			l0.7-0.4l0.1-2.4l0.8-0.8L4,8.6l2.2,0.9l1.2-0.2l0-2.2l0.8-0.9l2,1.2l3,0.1l1.1-0.9l3.3,0l4.7-2.1l2.5-0.7l1.8-1.4l1.9-0.3
			l1.1,1.8l1.1,1.2l1,0.4l0.7-0.6l0.3-1.5h0.8l1.2-1.4l0.6,0.1L40.3,0z"/>
	</g>
</g>
</svg>
