<svg xmlns="http://www.w3.org/2000/svg" width="121.789" height="121.789" viewBox="0 0 121.789 121.789"><defs><style>.a{fill:#ffeb3a;}.b{fill:#fdd834;}.c{fill:#ef314c;}.d{fill:#bb193b;}.e{fill:#607d8b;}.f{fill:#37474f;}.g{fill:#7f8e94;}.h{fill:#545c60;}.i{fill:#02a9f4;}.j{fill:#fff;}</style></defs><g transform="translate(0)"><g transform="translate(2.025 2.492)"><path class="a" d="M118.731,63.239a6.089,6.089,0,0,1-6.089,6.089H7.092a6.089,6.089,0,1,1,4.222-10.474,7.839,7.839,0,0,1-.162-1.705,10.129,10.129,0,0,1,9.7-10.129A3.294,3.294,0,0,1,21.3,47a10.117,10.117,0,0,1,8.748,5.034,22.328,22.328,0,0,1,11.55-3,24.772,24.772,0,0,1,4.141.345A18,18,0,0,1,55.1,53.536C58.832,48.685,67.7,47,74.076,47h.183c7.246.041,13.579,1.969,17.132,4.872a10.149,10.149,0,0,1,17.172,6.861,6.077,6.077,0,0,1,10.169,4.506Z" transform="translate(-0.998 47.938)"/><path class="b" d="M54.582,57.7a5.9,5.9,0,0,1,5.911-1.273A9.962,9.962,0,0,0,47.5,48.512a10.1,10.1,0,0,1,7.08,9.189Z" transform="translate(46.893 48.97)"/><path class="b" d="M56.045,52.84A6.073,6.073,0,0,1,53,64.179h6.089A6.089,6.089,0,1,0,56.045,52.84Z" transform="translate(52.555 53.088)"/><path class="c" d="M63.468,48.473a6.057,6.057,0,0,1-1.725,4.242,29.838,29.838,0,0,1-14.676,7.855,1.983,1.983,0,0,0-1.522,2.091c.1,1.563.142,3.167.142,4.709A100.9,100.9,0,0,1,43.657,88.3a24.776,24.776,0,0,0-4.141-.345,22.328,22.328,0,0,0-11.55,3,10.117,10.117,0,0,0-8.748-5.034,3.29,3.29,0,0,0-.447.02,74.9,74.9,0,0,0,4.384-12.1A28.9,28.9,0,0,1,5.07,66.173,6.248,6.248,0,0,1,3.994,58.2a6.089,6.089,0,0,1,9.378-.934,16.581,16.581,0,0,0,9.987,4.384,2.03,2.03,0,0,0,2.212-1.928c.061-1.116.1-2.172.061-2.923A44.333,44.333,0,0,0,24.15,45.306a2.056,2.056,0,0,0-2.05-1.5A25.677,25.677,0,0,1,8.013,40.435a6.264,6.264,0,0,1-2.4-7.916,6.1,6.1,0,0,1,8.85-2.415,8.525,8.525,0,0,0,1.36.69,2.03,2.03,0,0,0,2.659-2.537,78.932,78.932,0,0,1-3.146-11.895,6.11,6.11,0,0,1,11.793-3.045l.02.081a68.655,68.655,0,0,0,4.1,9.215A8.01,8.01,0,0,0,35.6,17.62a6.049,6.049,0,0,1,4.384-4.608,6.134,6.134,0,0,1,7.47,7.409A19.892,19.892,0,0,1,38.6,32.458a1.993,1.993,0,0,0-.71,2.558c.974,2.03,2.6,5.46,3.451,7.673.548,1.421,1.056,2.862,1.482,4.324A2.03,2.03,0,0,0,45.3,48.473a16.977,16.977,0,0,0,7.794-4.3,5.953,5.953,0,0,1,6.577-1.34,6.043,6.043,0,0,1,3.8,5.643Z" transform="translate(1.085 9.016)"/><path class="d" d="M13.276,13.32l.02.081a68.655,68.655,0,0,0,4.1,9.215,8.233,8.233,0,0,0,4.06-4.151c-.763-1.669-1.463-3.349-2.06-5.075l-.02-.081a6.122,6.122,0,0,0-6.82-4.019,6.045,6.045,0,0,0-1.991.737,6.152,6.152,0,0,1,2.712,3.292Z" transform="translate(8.854 9.013)"/><path class="d" d="M26.865,18.585a19.892,19.892,0,0,1-8.85,12.037,1.993,1.993,0,0,0-.71,2.558c.974,2.03,2.6,5.46,3.451,7.673.548,1.421,1.056,2.862,1.482,4.324a2.03,2.03,0,0,0,2.476,1.461,20.732,20.732,0,0,0,3.654-1.382c0-.028-.032-.049-.041-.079-.426-1.461-.934-2.9-1.482-4.324-.853-2.213-2.476-5.643-3.451-7.673a1.993,1.993,0,0,1,.71-2.558,19.892,19.892,0,0,0,8.85-12.037,6.134,6.134,0,0,0-7.47-7.409,4.977,4.977,0,0,0-1.569.609,6.11,6.11,0,0,1,2.949,6.8Z" transform="translate(15.583 10.852)"/><path class="d" d="M42.122,26a6,6,0,0,0-5.338.371A6.089,6.089,0,0,1,38.1,35.887a29.838,29.838,0,0,1-14.676,7.855,1.983,1.983,0,0,0-1.522,2.091c.1,1.563.142,3.167.142,4.709a100.822,100.822,0,0,1-1.985,20.7c.637-.047,1.281-.112,1.9-.112a24.777,24.777,0,0,1,4.141.345,100.9,100.9,0,0,0,2.03-20.927c0-1.543-.041-3.146-.142-4.709a1.983,1.983,0,0,1,1.522-2.091A29.838,29.838,0,0,0,44.192,35.9a6.089,6.089,0,0,0-2.07-9.885Z" transform="translate(18.635 25.844)"/><path class="e" d="M61.265,54.143a10.082,10.082,0,0,0-7.043,2.842c-3.552-2.9-9.885-4.831-17.132-4.872a12.179,12.179,0,0,1,24.175,2.03Z" transform="translate(36.17 42.825)"/><path class="f" d="M44.516,42a12.088,12.088,0,0,0-2.988.406,12.179,12.179,0,0,1,9.077,11.773,10.086,10.086,0,0,0-4.086.875,16.266,16.266,0,0,1,3.132,1.967,10.082,10.082,0,0,1,7.043-2.842A12.179,12.179,0,0,0,44.516,42Z" transform="translate(40.741 42.79)"/><path class="g" d="M75.22,52.245V74.573A6.077,6.077,0,0,0,65.05,70.067a10.129,10.129,0,0,0-10.129-9.7A12.165,12.165,0,0,0,43.25,48.206a16.238,16.238,0,0,1,31.97,4.039Z" transform="translate(42.514 36.605)"/><path class="h" d="M52.545,36a16.373,16.373,0,0,0-3.045.294A16.239,16.239,0,0,1,62.694,52.239V68.477a6.089,6.089,0,0,1,6.089,6.089V52.239A16.238,16.238,0,0,0,52.545,36Z" transform="translate(48.95 36.611)"/><g transform="translate(2.646 0)"><ellipse class="i" cx="7" cy="4.5" rx="7" ry="4.5" transform="translate(65.896 14.169)"/><ellipse class="i" cx="6.5" cy="7" rx="6.5" ry="7" transform="translate(21.896 0.169)"/><ellipse class="i" cx="4" cy="4.5" rx="4" ry="4.5" transform="translate(83.896 0.169)"/><ellipse class="i" cx="5" cy="3" rx="5" ry="3" transform="translate(-0.104 9.169)"/></g></g><circle class="j" cx="1.5" cy="1.5" r="1.5" transform="translate(33.568 87.661)"/><ellipse class="j" cx="1" cy="2" rx="1" ry="2" transform="translate(39.568 79.661)"/><ellipse class="j" cx="1" cy="2.5" rx="1" ry="2.5" transform="translate(39.568 65.661)"/><ellipse class="j" cx="1.5" cy="2.5" rx="1.5" ry="2.5" transform="translate(36.568 54.661)"/><ellipse class="j" cx="2" cy="1" rx="2" ry="1" transform="translate(24.568 44.661)"/><path class="j" d="M103.52,63.8a18.25,18.25,0,0,0-13.273,5.708,30.492,30.492,0,0,1-1.175-3.9,13.431,13.431,0,0,1,6.822-3.9,2.03,2.03,0,1,0-.986-3.938,18.268,18.268,0,0,0-6.585,3.075v-.073A38.643,38.643,0,0,1,88.3,54.4c.2.01.406.039.609.039A17.68,17.68,0,0,0,100.9,49a5.166,5.166,0,0,1,5.777-1.648,2.031,2.031,0,0,0,1.815-3.633A9.134,9.134,0,0,0,98.028,46.13a13.774,13.774,0,0,1-9.221,4.22q.2-1.149.461-2.344a49.625,49.625,0,0,1,1.64-5.744c2.789-2.791,5.759-2.817,10.583-2.817a12.7,12.7,0,0,0,12.118-9.656,2.03,2.03,0,0,0-3.936-.995c-.063.27-1.79,6.591-8.182,6.591a28.7,28.7,0,0,0-8.014.749c.406-.855.824-1.679,1.218-2.474a39.506,39.506,0,0,0,3.167-7.51,14.006,14.006,0,0,0,7.648-10.657,2.03,2.03,0,0,0-3.978-.8,11.4,11.4,0,0,1-3.106,6.193,27.139,27.139,0,0,0-3.238-10.758,2.031,2.031,0,1,0-3.633,1.815c3.633,7.265,3.394,11.138,1.571,15.563a8.3,8.3,0,0,1-3.814-6.343,2.03,2.03,0,0,0-4.06.014,12.4,12.4,0,0,0,6.142,10.017c-.108.213-.2.424-.323.643a72.463,72.463,0,0,0-4.163,9.579,33.6,33.6,0,0,0-4.589-3.654c-4.508-3-1.47-9.321-1.338-9.589a2.03,2.03,0,1,0-3.635-1.809c-1.681,3.361-3.276,10.778,2.72,14.775A27.126,27.126,0,0,1,85.6,45.927c-.1.406-.2.786-.3,1.2a48.528,48.528,0,0,0-1.165,9.179,29.092,29.092,0,0,0-4.06-2.436,5.192,5.192,0,0,1-2.941-4.3,2.03,2.03,0,1,0-4.06.02,9.248,9.248,0,0,0,5.182,7.916,23.951,23.951,0,0,1,6.077,4.236c.128,1.267.309,2.462.53,3.581.041.2.079.424.124.627A8.3,8.3,0,0,1,76.538,64.4a2.03,2.03,0,0,0-2.87,2.87,12.311,12.311,0,0,0,8.375,3.292,12.51,12.51,0,0,0,4.019-.7,32.258,32.258,0,0,0,1.4,3.485,18.191,18.191,0,0,0-1.187,2.683,14.1,14.1,0,0,0-12.6,10.149c-6.215.2-13.484,1.827-17.749,5.755a20.559,20.559,0,0,0-6.818-2.974,102.6,102.6,0,0,0,1.721-19.346,47.815,47.815,0,0,0-.2-4.823,32,32,0,0,0,15.688-8.414,8.129,8.129,0,0,0-2.777-13.194,7.991,7.991,0,0,0-8.807,1.827,14.369,14.369,0,0,1-6.855,3.674c-.406-1.421-.93-2.927-1.53-4.486-.962-2.495-2.884-6.5-3.55-7.786h.016a21.847,21.847,0,0,0,9.717-13.255,8.1,8.1,0,0,0-2.064-7.628,8.213,8.213,0,0,0-7.788-2.253,8.068,8.068,0,0,0-5.933,6.049A5.312,5.312,0,0,1,35.134,21.9a60.707,60.707,0,0,1-2.9-6.751c-.016-.065-.057-.2-.077-.272a8.14,8.14,0,0,0-15.711,4.06,80.415,80.415,0,0,0,3.227,12.179,5.856,5.856,0,0,1-.97-.473,8.087,8.087,0,0,0-6.585-1.082A8.18,8.18,0,0,0,6.9,33.858,8.322,8.322,0,0,0,10.027,44.38a27.687,27.687,0,0,0,15.266,3.654,42.829,42.829,0,0,1,1.421,11.095c.041.727-.016,1.89-.03,2.726a14.351,14.351,0,0,1-8.767-3.8,8.062,8.062,0,0,0-6.5-2.34,8.182,8.182,0,0,0-6,3.57A8.263,8.263,0,0,0,6.763,69.856a30.218,30.218,0,0,0,16.876,7.965A71.043,71.043,0,0,1,20.5,86.3a12.179,12.179,0,0,0-10.23,10.271,8.119,8.119,0,1,0-2.152,15.948H113.67a8.119,8.119,0,0,0,8.119-8.119V82.07A18.289,18.289,0,0,0,103.52,63.8ZM87.282,80.04a3.14,3.14,0,0,1,.424.018,10.1,10.1,0,0,1,9.54,8.322,12.016,12.016,0,0,0-4.922,2.081,30.581,30.581,0,0,0-14.363-4.224,10.066,10.066,0,0,1,9.321-6.2ZM9.589,66.948a4.222,4.222,0,0,1-.812-5.371,4.06,4.06,0,0,1,6.27-.639A18.268,18.268,0,0,0,26.229,65.9h.081a31.119,31.119,0,0,0,3.972.254,26.057,26.057,0,0,0,4.606-.365,2.03,2.03,0,0,0-.767-3.985,23.167,23.167,0,0,1-3.422.284v-.028a28.621,28.621,0,0,0,.065-3.012,46.448,46.448,0,0,0-1.551-12.033,4.025,4.025,0,0,0-4.043-3,23.812,23.812,0,0,1-12.962-3.045,4.216,4.216,0,0,1-1.652-5.312,4.074,4.074,0,0,1,5.943-1.6,9.965,9.965,0,0,0,1.723.861,4.06,4.06,0,0,0,5.308-5.075,77.928,77.928,0,0,1-3.071-11.592,4.089,4.089,0,0,1,7.823-2.223c.016.063.053.2.075.268a70.15,70.15,0,0,0,4.218,9.487,2.03,2.03,0,0,0,2.7.881,10.078,10.078,0,0,0,5.409-6.292,4.118,4.118,0,0,1,2.842-3.144,4.169,4.169,0,0,1,4.039,1.106A4.072,4.072,0,0,1,48.6,22.154a17.862,17.862,0,0,1-7.979,10.823,15.63,15.63,0,0,1-6.177,2.407,2.03,2.03,0,1,0,.065,4.06h.067a13.7,13.7,0,0,0,4.669-1.185c.662,1.384,2.446,5.117,3.323,7.4.56,1.455,1.039,2.858,1.421,4.163a4.1,4.1,0,0,0,4.961,2.842,18.64,18.64,0,0,0,8.716-4.849,4.06,4.06,0,0,1,5.74,5.726A27.973,27.973,0,0,1,49.71,60.824a4.009,4.009,0,0,0-3.077,4.2c.091,1.421.138,2.966.138,4.608a98.47,98.47,0,0,1-1.664,18.644c-.812-.073-1.64-.124-2.476-.124a25.472,25.472,0,0,0-10.937,2.377A12.2,12.2,0,0,0,24.9,86.4a83.576,83.576,0,0,0,3.333-9.794,2.03,2.03,0,0,0-1.8-2.56,27,27,0,0,1-16.839-7.1Zm104.081,41.51H8.119a4.06,4.06,0,1,1,2.815-6.983,2.03,2.03,0,0,0,3.388-1.906,5.759,5.759,0,0,1-.114-1.261,8.095,8.095,0,0,1,14.775-4.6,7.89,7.89,0,0,1,1.409,4.571,2.03,2.03,0,0,0,2.005,2.054h.024a2.03,2.03,0,0,0,2.03-2.007,11.955,11.955,0,0,0-.737-4.216,21.2,21.2,0,0,1,8.911-1.9A19.466,19.466,0,0,1,53.48,95.18a7.51,7.51,0,0,0-.749,3.1,2.03,2.03,0,0,0,2.005,2.054h.024a2.03,2.03,0,0,0,2.03-2.007,4.118,4.118,0,0,1,1.037-2.493c3.118-3.9,10.892-5.649,17.276-5.649,6.558,0,12.7,1.691,16.036,4.413a2.03,2.03,0,0,0,2.7-.112,8.119,8.119,0,0,1,13.732,5.48,2.03,2.03,0,0,0,3.392,1.421,4.06,4.06,0,1,1,2.71,7.066Zm4.06-11.05a7.941,7.941,0,0,0-6.642-.7,12.12,12.12,0,0,0-9.743-8.389A14.123,14.123,0,0,0,90.5,76.35a14.209,14.209,0,0,1,27.228,5.72Z" transform="translate(0 9.272)"/><path class="j" d="M34,14.119A8.119,8.119,0,1,0,42.119,6,8.119,8.119,0,0,0,34,14.119Zm12.179,0a4.06,4.06,0,1,1-4.06-4.06A4.06,4.06,0,0,1,46.179,14.119Z" transform="translate(35.014 6.179)"/><path class="j" d="M20.119,0A8.119,8.119,0,1,0,25.86,2.378,8.119,8.119,0,0,0,20.119,0Zm0,12.179A4.06,4.06,0,1,1,22.99,10.99a4.06,4.06,0,0,1-2.871,1.189Z" transform="translate(12.358)"/><path class="j" d="M42,6.089A6.089,6.089,0,1,0,48.089,0,6.089,6.089,0,0,0,42,6.089Zm8.119,0a2.03,2.03,0,1,1-2.03-2.03A2.03,2.03,0,0,1,50.119,6.089Z" transform="translate(43.252)"/><path class="j" d="M2,10.089A6.089,6.089,0,1,0,8.089,4,6.089,6.089,0,0,0,2,10.089ZM8.089,8.06a2.03,2.03,0,1,1-2.03,2.03A2.03,2.03,0,0,1,8.089,8.06Z" transform="translate(2.06 4.119)"/><ellipse class="j" cx="0.5" cy="3" rx="0.5" ry="3" transform="translate(78.568 5.661)"/><ellipse class="j" cx="2" cy="3" rx="2" ry="3" transform="translate(16.568 5.661)"/></g></svg>