<svg xmlns="http://www.w3.org/2000/svg" width="123.781" height="68.08" viewBox="0 0 123.781 68.08"><defs><style>.a{fill:#c82226;}.b{fill:#a7a7a7;}.c{fill:#fff;}</style></defs><path class="a" d="M84.378,152v59.168a29.341,29.341,0,0,1-12.378,0V152Z" transform="translate(-57.559 -145.811)"/><path class="a" d="M412.378,152v58.554a23.567,23.567,0,0,1-8.252,1.274,29.238,29.238,0,0,1-4.126-.266V152Z" transform="translate(-300.975 -145.811)"/><rect class="b" width="123" height="8" transform="translate(0.646 38.11)"/><path class="c" d="M119.15,364.126a22.026,22.026,0,0,1-9.55-1.915A25.811,25.811,0,0,0,98.519,360a25.81,25.81,0,0,0-11.081,2.211,22.023,22.023,0,0,1-9.549,1.915,22.02,22.02,0,0,1-9.548-1.915A25.814,25.814,0,0,0,57.259,360a25.81,25.81,0,0,0-11.081,2.211,22.021,22.021,0,0,1-9.549,1.915,22.02,22.02,0,0,1-9.549-1.915A25.81,25.81,0,0,0,16,360v4.126a22.022,22.022,0,0,1,9.549,1.915,25.809,25.809,0,0,0,11.081,2.211,25.81,25.81,0,0,0,11.081-2.211,22.021,22.021,0,0,1,9.549-1.915,22.022,22.022,0,0,1,9.549,1.915,25.808,25.808,0,0,0,11.081,2.211,25.81,25.81,0,0,0,11.081-2.211,22.022,22.022,0,0,1,9.549-1.915,22.026,22.026,0,0,1,9.55,1.915,25.812,25.812,0,0,0,11.082,2.211,25.812,25.812,0,0,0,11.081-2.211,22.024,22.024,0,0,1,9.55-1.915V360a25.813,25.813,0,0,0-11.082,2.211A22.023,22.023,0,0,1,119.15,364.126Z" transform="translate(-16 -300.172)"/><path class="c" d="M139.781,169.26v-4.126H129.466V139.426c2.2,2.275,4.469,4.485,6.794,6.6l2.779-3.05c-3.326-3.031-6.543-6.256-9.573-9.588V128H125.34v4.126h-8.252V128h-4.126v5.388a144.069,144.069,0,0,1-29.98,25.1l2.194,3.494a148.185,148.185,0,0,0,30.757-25.732h6.736a143.361,143.361,0,0,1-37.559,28.1,143.43,143.43,0,0,1-40.229-30.963V128H40.756v4.126H32.5V128H28.378v5.39A144.658,144.658,0,0,1,16.7,144.857l2.719,3.1a148.806,148.806,0,0,0,11.929-11.709h6.731a144.311,144.311,0,0,1-21.2,18.185l2.369,3.378q2.54-1.782,5-3.67v10.989H16v4.126H40.756v4.126H16v4.126H28.378v10.315H32.5V177.513h8.252v10.315h4.126V177.513h68.08v10.315h4.126V177.513h8.252v4.126h4.126v-4.126h10.315v-4.126H129.466V169.26Zm-86.647-4.126V147.347q2.032,1.8,4.126,3.531v14.256Zm8.252-10.977q2.036,1.559,4.126,3.047v7.93H61.387Zm8.252,5.879q4.048,2.679,8.28,5.1h-8.28Zm22.665,5.1q4.231-2.417,8.28-5.1v5.1Zm12.406-7.93q2.09-1.488,4.126-3.047v10.977H104.71Zm8.252-6.326q2.094-1.726,4.126-3.531v17.787h-4.126Zm8.252-7.338q2.1-2.012,4.126-4.11v25.7h-4.126Zm-72.206,0v21.594H44.882v-25.7q2.025,2.1,4.126,4.11Zm-20.63,7.322q2.094-1.726,4.126-3.525v17.8H28.378Zm8.252,14.272v-21.6q2.1-2.014,4.126-4.109v25.711Zm88.71,8.252H44.882V169.26H125.34Z" transform="translate(-16 -128)"/></svg>