<?xml version="1.0" encoding="utf-8"?>
<!-- Generator: Adobe Illustrator 22.0.1, SVG Export Plug-In . SVG Version: 6.00 Build 0)  -->
<svg version="1.2" baseProfile="tiny" id="Layer_1" xmlns="http://www.w3.org/2000/svg" xmlns:xlink="http://www.w3.org/1999/xlink"
	 x="0px" y="0px" viewBox="0 0 441.9 390.5" xml:space="preserve">
<g transform="translate(2.301 -27.215)">
	<g transform="translate(0.256 29.748)">
		<path fill="none" stroke="#FFFFFF" stroke-width="5" d="M70.4,120.3l-0.3,0.2l-1.4-2.1l-2.4-2.6l-1.9-0.9l-1.1-0.2l-0.5-0.3
			l0.2-0.3l1.9-0.4l4,0.3l1.3,2.1l0.7,1.9l0,1.7L70.4,120.3L70.4,120.3z M17.2,2.3l5,2.7l0.2,1.3l0.5,0.9l2,1.9l3.5,2.7l1.6,0.7
			l7.6,1.9l7.8,0.5l3.7-0.7l4.3-1.7H54l1.7,0.9l2.9-0.7l2.2,0.2l2.7,1l0.7,0.6l0.6,1.7l1.2,0.4l1.9-0.4l7.6-2.9l0.9,0l1.7,1.7
			l2.1,2.9l4.2,4.4l3,2.5l2.3,0.5l1.7,3.4l0.3,2.9l0.8,1.9l0.8,1.1l-0.2,1.8l1.6-0.2l1.9,0.7l1.2,0.6l4,3.1l0.3,2.6l-0.7,1.7l0,0
			l-0.8,0.3l-1.5-0.3l-1.5,0.4l-0.1,0.6l-0.5,0.2L96,46.6l-0.7-0.2l-0.2,0.4l0.6,1l-0.1,0.7L94.9,49l0.3,0.9l-0.9,1.3l0.1,1.9
			l-0.4,0.6l-0.5,2.6l-2.3,1.3l0.1,0.7l-0.3,0.5L89.8,58l-0.3,0.1l-0.2,0.6l0.8,1.4l-0.2,0.7L87,63.1l-0.8,1.2l0.6,1.6l0.9,1v0.6
			l0.5,0.3l-0.1,1.4l1.4,0.7l0.4,1.7l1.1,0.8l-0.6,1l0.5,1.1l0.1,0.8l1.3,0.8l0.5-0.2l0.7,1.4l-0.5,1.5l-4.6,1.3l0.2,0.3l1.1,0.2
			l1,1l0.1,1.4l1.2,1.3l-0.2,1.9l-1.2-0.1l-0.3,0.2l0.4,0.5l-0.1,1l0.5,1.7v2l1.8,0.5l1.1,2l1.8,0.2l-0.1,0.5l0.5,0.6l-0.6,1
			l-0.1,0.7l0.3,1.3l1,1l0.1,0.5l-1.2,0.4l-0.5,2.7l0.3,1.9l0.8,1.1l-0.1,1.4l1.6,0.7l1,3.1l-1.2,5.4l0,0l-6.8-3.8h-0.8l-1.8,0.9
			l-4.1-1l-3.2-4.4l-0.2-7.7l-0.6-4.2l-1.1-3.4l-0.4-0.4l-1.5,0l-3-1.2l-0.9-0.4l-1.3-1.2l-2.4-3.3l-0.9-3.8l-0.9-1.5l-3-1l-3.1-4.9
			l-2.4-4.5l-2.7-1.5l-0.9-1l-0.6-2.2l-3.1-2.2l-5.1-0.3l-2.6,0.4l-1.3-0.3l-1-0.6L39,59.8l-3.6-5.3L32.2,51l-1.5-0.5l-2.5-2
			l-1.9-0.8l-2.3-2l-3.8-4.6l-5.5-5.1l-4.4-3.6L6.7,27L2,17.9l0.7-1.3L2.6,16l-2.3-3.6l0.8-4.1L0,5.9l0.3-3l1.7,0l4.2-2.7L7,0
			l5.5,0.9L17.2,2.3L17.2,2.3z"/>
	</g>
	<g transform="translate(330.951 267.2)">
		<path fill="none" stroke="#FFFFFF" stroke-width="5" d="M59.1,50.9l-1.2,0.3l-1.1-0.3l-3.3-1.9l0.6-1.5l2.2-1l3.3,1.4l0.3,0.6
			L59.1,50.9z M90.6,34.7L99,37l6,4.8l1,3.4l-2.9,5.1l-0.3,3.7l-3.1,1.4l-0.9,2.2l-3.1,0.7l-0.3-0.6l-0.2-2.2l-3.3-3.8l-0.7,0.3
			L90.2,53l0.7,0.8l-0.1,1.5L90,55.8l-5.7,1.8l-1.1-0.5l-1.1-6.8l1.1-3.2l0.1-4.4l0.7-0.8l-0.1-1.8l0.5-3.7l0.5-0.7l1.4-0.2l2,0.1
			L90.6,34.7L90.6,34.7z M32.4,9.3l1.6,2.6l0.9,2.7l0,3.5l0.7,3.7l1.8,5.4l1,2.1l1.5,1.9l1.4,1.3l1,0.4l7.7,1.4l5.5,2.2l-1.3,0.8
			l-2,2.3l-2.5,6.3l-0.2,1.6l0.3,0.9l1.5,0.9l0.6-0.1l2.3,1.1v2.4l-0.8,0.8l-6.6,0.1l-2.5-4l-5.4-2.5l-4.5-1.3l-1.8-0.9l-3.2-0.3
			L28.4,44l-1.8-3L26,38.4v-1.1l1.3-2.9l-0.2-1.7l-1.2-1l-1.4-0.4l-1.1-1.4L22.7,23l-0.3-0.6l-1.5-1.1l-8.9-1L9.8,21l-2.5,0.2
			l-6.9-1.7L0,17.8l0.7-2.5l1.2-0.9l3.6-1.3l3.3-2.3l0.4-0.7l0.1-0.9L8.9,8.3L7.1,7.3l0.3-1.8L9,3.9l2.1-1.3l4.1-1.3l0.9,0.2
			l1.4,3.4l0.3,3.2l1.8,1.4l2.4,0.6l0.9-0.1l-3.4-8.1l1.2-0.6L25.5,0l0.8,0.2l3.9,2.6l0.6,0.8l-0.5,1.6l0.3,1.1L32.4,9.3L32.4,9.3z"
			/>
	</g>
	<g transform="translate(193.984 293.446)">
		<path fill="none" stroke="#FFFFFF" stroke-width="5" d="M34.7,16.1l0.4,1.1l1.6,1l0.3,1.4l1.7,1l0.3,0.5l0.9,0.3l0.6,2.3l0.8,1.2
			l1.2,0.3l0.9,0.9l2.2-0.8l1.9,0.4l1.2,1.1l0.6,1.4L49,30.7l0.4,0.3l-0.4,1l3.2,2.9l1.2,0.2l0.5,0.5l1.5-1.1l1.7-0.1l1.7-1.1
			l0.5,0.2l0.1,0.7l0.6,0.9l0.5-0.2l1.1,0.5l1.1-0.5l-0.3,0.2l0.1,1.1l0.4,0.4l1.6-0.6l1.5,0.2l0.4,0.9l-0.3,0.7l0.1,1.6l-0.3,1.8
			l-0.1,0.3l-0.6,0.2l-0.6,1.4l-1.4,1.4l-0.3-0.1L62.1,43l-1-1.1l-1-0.6l-0.3,0.1l-0.1,2.8l-0.9,0.6l-1.2,1.5l-0.2,2.2l-2.6,0.9
			l-0.4,0.7l-0.9,0.3l1.3,0.4l0.8,0.8l0.3,0.8l1.7,1l1.6,2.1l1.3,0.8l1.5,0.4L63,56l0.8,0.3l0.5,1l0.4,0.2l2.4,0.1l1.8-0.3l0.6,0.5
			l0.8,0.1l1,2.6l0.9,1.3l0,3.1l3.7,0.6l0.9,1.1l1.4,0.9l1.4,0l1.1,0.4l0.8-0.2l0.7,1.2l1.1,0.6l1.9-0.7l1.1,0.3l0.6,1.3l0,1.1
			l-1.1,1l-0.5,1l2.1,2l-1.4,1.2l1.5,0.1l1.2,1l0.6,0.8l0.3,1.7l-0.8,0.9l0.7-0.2l1.2,0.6l0.8,0l0.7,1.2l-0.2,0.6l0,0l-0.2,0.1l0,0
			l-0.2,0.2l-1.6-0.1l-0.3,1l-1,0.8l-0.8,0.2l-1.1,1l-0.6,0.1l-0.3,1l0,0l-1.6-0.2l-1-1.1l-0.9-0.4l-1.6-0.4l-0.6,0.4l-0.6-0.3
			l-0.1-0.5l0.4-0.3l-0.5-0.8l-1-0.7l-0.6,0l-0.5,0.5l-0.8-0.6l-0.1-0.3l0.5-0.7l-3.1-3.4l-6.1-4l-5.1-1.9l0.1-0.5l-1.2-1.6
			l-1.9-1.4l-0.3-0.7L52.6,64l-1.5-1.4l-8.8-6.3l-0.3-0.4l0.1-2l0.8-0.2l0.1-0.5l-1.7-3.3l-0.5-3.1l-4.3-3.5l-3.9-2.4l-2.4-0.9
			l0.1-0.6l-10.8-7.8l-2.8-3.6l0.2-0.5l-0.4-1l-0.7-0.5l-0.4-1.4L14.7,24l-2.3-3.4L10,14.9l-6.2-3.5L1.6,8.4L0,6.8l0,0l3.1-2.1
			l0.8-0.9L6,3l1.4-1.1L9,0l0,0l0,0l0,0l9.1,5.7l-0.6,3.8l0.3,0.2l0.5-0.9l0.8-0.2L19.8,9l1.1-0.3l0.2-0.6l0.7,0.1l0.8,1.3l2.8,3
			l0.8,0.3l0.4,0.7l0.6,0.2l0.9,0.9l1.3,0.4l2.6-0.3l1.6,1L34.7,16.1L34.7,16.1L34.7,16.1z"/>
	</g>
	<g transform="translate(161.712 134.212)">
		<path fill="none" stroke="#FFFFFF" stroke-width="5" d="M104.5,66.6l-1.1-0.3l-0.6-1.5l0.9-3.3l1-1l1-0.2l1.6,1.3l0.7,1.1l0.3,2.7
			l-0.8,0.7L104.5,66.6L104.5,66.6z M85.8,50.5l0.8,0.1l2.3-0.8l1.5,0.1l5.5,3.2l3.5,2.6l0.4,0.6l0.3,1.5l-0.5,2l-1.1,0.6l-2.4-2.4
			l-2-0.9L87.4,57l-3.3,0.9l-1-0.1L81,56.7l-2.5-2.4l1-1.5l1.7-0.2l0.4-0.3v-1.4l-1-2.2l0.1-1.9l0.6-0.8l1.2-0.2l1.1,0.5l2,2.6
			l-0.3,0.9L85.8,50.5z M99.6,49l4.3,4.8l0.1,1l-0.7,0.8l-1.2,0.3l-0.9-0.2l-4.7-3.3l-6.1-3.1l-1.1-0.2L88,49.5l-1.2-1l1.8-3.2
			l1-0.4h1.4l2.8,0.8l3,1.4L99.6,49L99.6,49z M78.2,52.8h-0.8l-3-2.8l-0.7-0.7l-0.8-1.6L71.7,41l0.1-3.7l0.2-0.4l1.6-0.3l1,0.3
			l5.7,5.1l0.5,0.9l0,0.6l-1.1,3.3l0.1,2.1l0.7,2.2l-0.1,0.5L78.2,52.8z M81.5,35.4l0.3,5.6l-0.5,0.7l-1-0.5l-5.1-4.9l-1.6-0.5
			l-3.8-0.3l-1.6-0.7L66.4,33l-1.7-2.9l0.5-0.4l1.6-0.1l3.6,1.4l5.7,0.8l3.4,0.9l1.4,0.8L81.5,35.4L81.5,35.4z M51.6,26.7l-1.5-0.1
			L48,26.1l-0.7-0.4l-0.8-1l-1.8-4.8l0.2-2.5l0.4-1.3l1.1-1l6.7-1.9l1.3,0.3l0.7,0.6l2.4,3.3l0.1,1.7l-1.5,1.9l0,2.6l-0.5,0.9
			L53,26.3L51.6,26.7L51.6,26.7z M18.9,13.1l1.6-0.3l1.8,1.1l1.4,0.3l1-0.8l-2.2-1.4L22,10.9l-0.2-1.5l0.4-0.8L24,7.6l4.6-0.5
			l4.8,0.6l-0.2,1l0.7,1.5l6.7,4.5l1.4,1.5l0.5,1.6l0,2.6l1.4,4.1l1.3,2.1l4.5,2.1l1.4,0.1l3.3-0.8l2.3,0.6l8.7,7.3l3.9,2.1l2.1,5.9
			l-0.4,3.3l0.8,2.6l0.8,1.2l6.4,6l1.3,1l2.7,1.2l1,0.1l4.6-0.4l5,0.3l1.3,0.5l0.9,0.7l4.9,5.9l0.3,1l-0.3,1.3L84,77.6l-1.4-0.7
			l-1.4-1.6l-1.9,0l3.7,2.6l1.6,0.5l2.4-2.2l8.2-1.5l8.6-4.9l0.5-0.4l1.4-2.2l4.4-1.6l1.1,0.1l2.2,1.1l9.7,7.3l0.5,1.1l1.9,8.4
			l-1.2,0.4l-5.7,0.3l-0.5,0.8l-0.2,1.8l-5.1,3.5l0.3,0.5l0.6-0.1l1.3-1.1l1.3-0.3l1.1,0.1l0.1,0.3l-0.7,0.9l3.1,0.4l0.1,0.4l3.1,1
			l1.7,2.5l-1.2-0.2l-1.7,0.3l-3.2,1.4l-0.4,0.4l0.3,0.5l-0.6,1.3l-5.1,3.4l-0.7,4.1l0.2,0.8l1.9,1.9l0,0l-2.3,0.2l-1.6,0.9
			l-0.8-0.6l-7-1.2l-1.6,0.4l-2.3-0.2l-1.7,2.6l-1.6,1.9l-4.1,2.9l-0.2,0.7l-0.9,0.9l-1,1.7l-1.3,0.2l-1,1.2l-0.6,0.1l-1.2-0.8
			l-1.3,0.2l-1.6-0.6l-1.5,0l-0.9-1.5l-2.4-0.2l0.1-1.2l-1.9-1l-0.6-1.5L74,114l-1.7,0.9l-0.8,0.1l-0.4-0.3v-0.6l-0.8-0.7l-0.8-0.1
			L69,114l-1.8-0.9l-0.8,0.3l-0.9-0.6l-0.8-0.1l-0.9,0.5l-0.2,0.7l-0.5-0.4l-1.1,0.6l-0.3,1.2l-1.6,0.3l-0.1,0.6l-1.2-0.2l0,0
			l-0.4-0.3h-1.7l-1-0.6l-2.5-0.7l0.1-0.6l-0.7-0.3l-1.3-1.7l-2.2-1.3l-0.9-0.1l-0.5-0.7l-2.8-1.7L45,107l-1-0.2l-0.7-0.6l0.3-0.6
			l-0.2-0.2l-3.3-1.2l-0.8-1.1l-1.3-0.5l-0.2-0.8l-2.2-0.9l-0.7-0.8l-0.5,0.1l-0.6-0.3l-1.4-3l0.3-0.7L33,95l-1.5-1.1l-0.8-0.1
			l-1.7,0.5l-0.2,0.3l0.3,0.2l-0.5,1l-1.1-0.9l-0.9-0.1l-0.4-0.6L26,92.9l-1-0.6l-0.6-1l0,0l-0.2-0.7l0.2-0.9l0,0l-1-1.8l-0.1-0.5
			l0.3-0.3l-0.5-1.7l0.1-0.7l0.9-0.7l0.4-0.1l0.6,0.9l1.1-2l0.2-1.6l-0.7-1.8v-0.9l0.5-1.6l-0.7-1.9l-0.3-0.5l-0.7-0.2l-1.3,0.4
			l-2.1,1.8l-0.5,0.7l-2.1-0.1L13,75.9l-1.5-3.3l-0.7-0.5l-0.7-0.3l-1.8,0.9H7.8l-0.3-0.9v-2.2L5,64.5l0.2-1.8l1.6-2.5l-0.9-1.4
			l-2-0.8l0,0l-1.7-2l0.5-0.4l-0.2-0.4l0.2-1.7l-0.8,0.1l-0.8-0.9v-0.4l1.4-0.1L3,51.6l0.3-1.2l-0.7-2l-0.8-0.3l0.1-0.8L3,46.6
			l1.2-0.2l-0.2-0.6L2.9,45l-0.5-1L2,41l-1-1.8l-0.5,0.1l-0.5-0.5L0,38l0.8-0.5l5.8-0.3v-0.7l0.9-0.2l1.1,0.2l0.5-0.3l0.1-0.8h1.5
			l1.6-1.4l0.2-0.9l-0.5-0.4l0.2-0.8l0.8-1.4l0.2-0.9l-0.3-0.6l0.2-0.8L13,27.7l-1.1-0.2l0.1-0.8l0.5-0.5L12,24.6L8.4,24l-0.5-0.6
			v-0.8l0.9-2.4l0.5-5.8l1-3.3L9.9,9.3l-1.4-3L8.2,3.7l0.1-1.3L8.9,0l1.6,4.8l1.1,2.3l2.6,2.7l3,2.3L18.9,13.1L18.9,13.1z"/>
	</g>
	<g transform="translate(112.889 187.67)">
		<path fill="#FFFFFF" stroke="#FFFFFF" stroke-width="5" d="M62.4,132l-0.1,1.2l0.5,1l-0.1,0.4l-1.9,0.3l-0.9,0.4l2.6,5.1l0.1,0.4
			l-0.8,0.5l-0.6-0.3l-0.6-1.3l-0.4,0.1l-0.8-0.6l0.4-0.3l-0.4-0.6l-1.5-0.5l0.3-1.4l-0.4-0.9l0.1-1.2l-1.2-1.5l-1.2,0.1l-1.3-1.5
			l-1.3-2.4l-0.1-0.4l0.6-1.2l-0.9-3.7l0.1-0.6l2-0.7l2.6,3.3l1.7,1l2.3,3l1,0.7L62.4,132z M51.8,123.4l-0.1,0.8h-1.9l-0.1,0.3
			l-1-0.9l-0.3,1l-0.4,0.3l-0.8-0.7l0.3-0.6l-0.7-0.8l0.6-1.9v-1.8l-0.7-1.5l0.1-1.1l-0.9-0.6l0.5-0.6l-0.2-1.5l0.4-0.6l1,0.2l1.4,2
			l2,1.2l0.6,0.8l1.4,0.6l0.9,2l0.7,0.8l-0.3,1.5l-1.2,0.4L51.8,123.4L51.8,123.4z M37.4,101.4l1.3,2.6l1,1l0.1,0.7l1.2,0.6l0.8,1.4
			l0.6,1.4v0.4l-0.3,0.3l-0.4-0.1l0.1-0.7l-0.4-0.6l-0.4,0.4h-0.7l-0.4-1h-1.6l-1.9-1.6l-1-0.4l-1.7,0.2l-0.5-1.6l-0.5-0.3l-1.4-2.4
			l0.1-0.4l0.4-0.3l0.8,0.4l0.1-0.3l-0.6-0.8l-0.3-1.7l0.3-0.7l1-0.8h1.2l2.6,2.2L37.4,101.4z M11.3,61.7l0.6,1.9l-0.4,0.1l-0.4-1
			L10.9,63l0.8,2.5l1.9,1.5l0.2,1.5L15,70l0.1,0.8l0.8,1.4l-0.3,0.6l1.1,1.3l0.1,1.2l2,1.9l0.3,0.6l0.2,1.4l-0.5-0.4l-0.6,0.1l0.8,1
			l1.4,0.5l0.2,0.5l-0.2,0.8l0.8,1.9l1.3-0.4l0.9,1.3l0.2,2.8l-0.6,1l-1.2-2.2l-0.3,0.1l0.4,1.9l0.5,1.1l-0.8,0.8l-0.7-0.6l-1.5-0.1
			l-0.8,0.3l-0.1,0.6l-1.1,0.2l-7.9-4.3l-0.4-1.1l-1.2-1l0.4-0.2V83l-1.2-2.4l-5.2-7.6l-0.4-1.3l-0.8-0.4l-0.3-0.6L0,69.9l0.7-0.8
			L2.3,65l-0.1-2l1.2-1.3l0.8-0.2L5,61.9l2.2-0.2l1.5-0.6l1.3-1l0.4,0.1L11.3,61.7L11.3,61.7z M43.2,0l0.8,0.7l1.3-0.2l0.6,1.4
			l2.5,0.9l0.5,0.7L53,4.8l-0.4-0.3l0,0l2,0.8l0.9,1.4L54,9.3l-0.2,1.8l2.5,5.1v2.2l0.3,0.9h0.5l1.8-0.9l0.7,0.3l0.7,0.5l1.5,3.3
			l5.5,1.5l2.1,0.1l0.5-0.7l2.1-1.8l1.3-0.4l0.7,0.2l0.3,0.5l0.7,1.9l-0.5,1.6v0.9l0.7,1.8L75,29.6l-1.1,2l-0.6-0.9l-0.4,0.1
			l-0.9,0.7l-0.1,0.7l0.5,1.7L72,34.2l0.1,0.5l1,1.8l0,0L72.9,37l0.2,1l0,0l0.6,1l1,0.6l0.1,1.2l0.4,0.6l0.9,0.1l1.1,0.9l0.5-1
			l-0.3-0.2l0.2-0.3l1.7-0.5l0.7,0.1l1.5,1.1l-0.1,1.3l-0.3,0.7l1.4,3l0.6,0.3l0.5-0.1l0.7,0.8l2.2,0.9l0.2,0.8l1.3,0.5l0.9,1.1
			l3.3,1.2l0.2,0.2l-0.3,0.6l0.7,0.6l1,0.2l0.2,1.1l2.8,1.7l0.5,0.7l0.9,0.1l2.2,1.3l1.3,1.7l0.7,0.3L102,61l2.5,0.7l1,0.6h1.7
			l0.5,0.3l0,0l0.1,1.9l0.3,0.2l-0.2,1.5l1,0.9l0.7-0.5l0.2,0.2l-0.6,1.6l-1.6,2l-1.2,0.3l-0.6,0.5l-1.2-0.1l-1.2,1.2l0.1,1.1
			l0.7,1.6v0.4l-0.8,0.9v0.4l0.8,0.7v0.4l-1.2,2.1L99,82.3l-2.3,3.5l-1.9,0.5L94,85.6L92.8,86l-1.1-0.1l-1,0.5l-2-0.1L87.6,87
			l-1.3-1.4L86,85.7l-0.3,0.7l-1-0.7l-0.3,0.1l0.4,7l0.3,0.8l0.9,1l0.3,1l0.7,0.8l1.4,0.6l0.7,1.4l1.1,3.2l0.3,3.2l0,0l-0.5,1l0,0
			l-1.5,1.9l-1.4,1.1l-2.1,0.9l-0.8,0.9l-3.1,2.1l0,0l-0.5-1l-3.9-4.3l-0.8-3.1l-1.6-2.3l0.1-0.9l1.4-1.3l0.6-1.1l0-2.3l-0.9-3.2
			l-3.8-5.5l-2.8-3.4l-1.7-4.6l-1.5-1.5l0.7-1.1l0.1-1.2L65.6,74l-0.8-0.5l-1.4-0.2l-1.5-1.4L61,72.4l-0.7-0.2l0.3-1.2l0.8,0.1
			l-0.6-1.3l-0.7-0.2L59,68l0-0.6l0.6,0L59,66l0.6-0.7v-0.6l-1.1-3L58,59l-0.5-1l-0.8-1.2l-5.5-5.4l-1.4-2.7l-1.3-1.7L44,43.3v-0.4
			l-0.9-1.4l-2.2-1.3l-0.7-1.6v-1l-1.3-2.3L38.4,35l0.4-1.3L38.6,33l0.4-0.6l-1.1-1.7l-1.7-1.2L35,28.3l-2.6-1.4L28,25.1l-1.3-0.3
			L25.8,23l-0.7-0.7l-1.5-0.2l-2.1,0.8l-2.3-0.8l1.8-2.7l1.4-0.7l1.5-0.1l1.2-1.5l1.7-3.1l0.9-0.2l2.4-1.5l2,0.8l2.8-1l1,1.3
			l0.2,0.8l1.2,0.9l1.6-0.8l0.5-0.1l1,0.2l0.2,0.4l1.2,0.1l1.4-0.2l1-0.6l1.3-1.6v-1.3l-1.3-1l-0.2-2.3l-1.2-0.5h-1.2l-0.5-1.5V5.3
			l0.5-0.6l-0.2-4L42.6,0L43.2,0L43.2,0z"/>
	</g>
	<g transform="translate(228.709 271.893)">
		<path fill="none" stroke="#FFFFFF" stroke-width="5" d="M57.3,105.1l0.2-0.6l-0.7-1.2l-0.8,0l-1.2-0.6l-0.7,0.2l0.8-0.9l-0.3-1.7
			l-0.6-0.8l-1.2-1l-1.5-0.1l1.4-1.2l-2.1-2l0.5-1l1.1-1l0-1.1l-0.6-1.3l-1.1-0.3l-1.9,0.7l-1.1-0.6l-0.7-1.2L46,89.6l-1.1-0.4
			l-1.4,0L42,88.3l-0.9-1.1l-3.7-0.6l0-3.1l-0.9-1.3l-1-2.6l-0.8-0.1L34.2,79l-1.8,0.3L30,79.1l-0.4-0.2l-0.5-1l-0.8-0.3l-1.2,0.6
			l-1.5-0.4L24.3,77l-1.6-2.1l-1.7-1l-0.3-0.8l-0.8-0.8L18.6,72l0.9-0.3l0.4-0.7l2.6-0.9l0.2-2.2l1.2-1.5l0.9-0.6L25,63l0.3-0.1
			l1,0.6l1,1.1l0.7,1.2l0.3,0.1l1.4-1.4l0.6-1.4l0.6-0.2l0.1-0.3l0.3-1.8l-0.1-1.6l0.3-0.7l-0.4-0.9l-1.5-0.2l-1.6,0.6l-0.4-0.4
			l-0.1-1.1l0.3-0.2l-1.1,0.5l-1.1-0.5l-0.5,0.2l-0.6-0.9l-0.1-0.7l-0.5-0.2L22.4,56L20.7,56l-1.5,1.1l-0.5-0.5l-1.2-0.2l-3.2-2.9
			l0.4-1l-0.4-0.3l0.2-2.4l-0.6-1.4l-1.2-1.1l-1.9-0.4l-2.2,0.8l-0.9-0.9l-1.2-0.3l-0.8-1.2L5.1,43l-0.8-0.3L4,42.2l-1.7-1L2,39.8
			l-1.6-1L0,37.6l0,0l1,0.3l0,0l0.8-1.4l1.2-0.3l0.4-0.4l1.6-0.2l0.8-0.9l0.2-1.4l1.1-0.5l1.6,1h0.6l0.4-0.4l1,0.6l1.1,1.1l1.3,0.3
			h1.5l0.2,0.3l1.2-0.9l0.8-0.2l0.9,0.4l1.2-1.3v-0.6l0.4-0.4l1.5-0.6l1.8-1.5l0.5,0.3l0.5-0.1l0.9-0.7l2-3.4l0.9-0.7l-1.2-1.9
			l1.1-1.6l1.4,0.5l3.7,0.6l0.6-1l0.4,0.1l0.2,0.5l2.2,0.7l3-1.2l-0.3-1.4l-1.3-1.3l0.5-1.2l0.4-0.6l0.6-0.2l0.3-0.9l0.5-0.5
			l0.9,0.2l0.6,0.7l0.2,1.5l1.3,1.1l0.3,0.9L44,22l0.7,1.3l1,0.2l0.4,0.7l0.3-0.1l-0.2-1.5l0.4-0.4l-0.4-3l0.2-0.8l2.1-0.5l1.3-0.9
			L48.7,16v-2.6l0.4-0.8l-0.2-0.6l0.4-1.5V9l2.1-1.9l4.2-1.6l3.2-0.2l0.6-1l1.4-0.7l0.9,0.2l2,1l1-0.3h1.4l2.1,0.5l2.6-0.6l1.8-0.8
			l1.9,0.2l2-0.5L77,2.5L76.8,1l0.3-0.5l0.6-0.3l1-0.2l2.5,1l0,0l1.2,1.9l0.3,1.7l-0.3,1l-0.9,0.7l-0.6,1.4v1.4l0.4,0.8l0.4-0.2
			l0.9-2.3l0.8,0.1L86,9.7l4,2.5l2.6,0.1l1.4,1.3l0.4,0.9l0.6,3L95,18.5l-0.5,0.7l-0.8,0.2l-0.7,1.2l-0.6-0.1l-1.1,0.9L89,24.8
			l1.7,0.3l0.5-0.3l2-2.8l2-0.4l0.9,1.5l2.2,0.1l0.9,0.7l3,0.8l2.9-1.6l4.7,1.6l5.9,0.7l3.1,0l0.5,1.2l-0.9,3.3l0.5,2.8l0.3,0.7
			l1.4,1.2L122,35l1.6-0.1l0.7,0.3l0.4,1.2l-0.4,3.9l1.2,2.5l1.4,1.2l2,0.2l1.4-0.4l0.6,0.1l1.5,0.7l0.9,0.8l0.3,1.9l-0.3,2.4l1.5,3
			v0.8l-0.6,0.8l-3.3,1.7l-2.1,2.2l-2.3,4.8l-0.7,2.2l-0.3,2.2l0.5,1.7l0.9,0.9l2.5,1.4l0.8,1.9l-0.4,1.6l-1.7,2.7l-1.2,2.5
			l-0.4,3.2l-0.5,0.7l0,0l-0.6-1.1l-1-0.5l-0.4,0.1l-0.1,0.5l-0.6,0.3l-1.5-0.2l-0.3-0.3l0.2-0.9l-0.5-0.2l-0.1-0.5h-1.3v-0.5
			l0.6-0.6l-0.2-0.1l-0.9,0.1l-0.5-0.3v0.5l-0.5-0.1l0.1-0.6l0.8-1l-0.6-0.6v-0.5l-0.9-0.7h0.7l-0.2-0.6l-0.2-0.2l-0.6,0.4l-0.5-0.4
			l0.1-0.9l-0.7-0.5l-0.4,0.3l-0.7-0.3l0.3-1.6h-1.2l-0.3-0.5l-1.5,0.1l-0.2-1.4l-0.6-0.2l-1,0.2l-0.6,0.5l-0.6-2.1l-0.4-0.3
			l-0.7,0.9l-0.2,1.1l-0.8,0.6l0.5,1.2l-0.4,0.9l-1.4,1.2l-1.3-0.5l-1,0.5l-0.2,1l-0.3,0.2l-0.4-0.3l-0.5,2.1l-0.8,0.8l0.6,0.7
			l-0.7,0.1l-0.6,0.6l-0.6,1.9l-1.2,0.8l-0.7,1l-1.2-0.1L96,84.9L93.8,86l-0.2,0.7l-2.9,0.5l-4.3-0.2l-0.4-0.1l-0.8-1L84,86.9
			l-2.3,0.9l-1.2,1l-1.2-0.1l-1,1.1L76.7,91l-0.2,0.7l-0.5,0.2l-0.5,1.6l0.6,5.2l-1.3,1.3l-0.5,1.5l1,0.6l0.1,1.6l1.3,1.2l0.2,0.7
			l-0.1,0.7l-1.4,1.8l-0.7,0.2l-0.8-0.7l-0.6,0.4h-0.8l-0.9-0.5l-0.7,0.2l-0.3,0.7l-1.9,1l-1.8-0.5l-0.2-0.5l-0.4-0.1l-0.5,0.4
			l-2.7,0.3l-1-0.7l-0.3,1.7l-0.6,0.7l-1.4-1.4l-0.7-0.1v-0.4l0.8-0.8v-1l-0.7-0.9l-0.8,0l-0.1-1l-1.3,0.1l0,0L57.3,105.1z"/>
	</g>
	<g transform="translate(15.899 74.824)">
		<path fill="none" stroke="#FFFFFF" stroke-width="5" d="M91.2,151.1l0.8,0.1l1.4,1.6l1,1.8l0.1,1l-0.6,0.7l0.4,0.4l-0.3,1.5
			l0.2,0.9l-0.4,0.6l-0.5,0.2l0.7,1.5l-0.1,0.4l-0.4,0.2l-0.7,0.1l0.4-1.2l-0.2-0.3l-0.6,0.5l-0.6-0.3l-0.4,0.2l-0.4,0.8l0.4,0.6
			l-0.2,0.5l-0.6-0.8l-1.2-0.8l-2.7-0.9l1.1-0.5l0.1,0.4l0.7,0l0.4-1.6l0.6-0.4l-0.1-2.2l0.4-1.6l0.8-0.7l0.8-0.4l0.3-0.8l-1-1.4
			L91.2,151.1L91.2,151.1z M90.2,142.9l0.2,0.4l0.6-0.4v0.9l2.1,2.5l0.2,1.1l-0.3,0.7l0.5,1l-0.1,0.6l1.9,1.4l0.8,1.1l-0.2,1.8
			l-0.7,0l-0.1,0.4l0.5,1.2l-0.2,0.4l-1-2.3l-0.6-0.4l-1.9-3.1l-0.5-0.2v-0.8l-2.1-2.6v-0.3l-0.6-1.8l-1.9-0.9l1.9-0.9L90.2,142.9
			L90.2,142.9z M97.7,137.1l2,0.2l1-0.3l0.6,0.6l2.4-0.5l2,1.9l-0.3,0.8l0.2,0.3l-0.8,0.2l-0.4-0.4l-1.2-0.2l-1,0.8l-0.7,0.1
			l-0.8-0.3l-1.7,0.3l-1.7-0.7l-1.7,0l-0.6-0.4l-0.2-1.3l1.5-1l1.3-0.2L97.7,137.1z M61.2,95.6l0.6,1.5l4.8,6.5l3.4,1.2l4.1,3.6
			l0.9,2.3l-1.4,3.1l-0.3,7.8l-0.5,1l-2,2.1l-3.7-0.9l-0.7-0.8l0.3-0.6l-2.6-6.5l-4-4.1l-1.8-0.1l-0.9-0.4l-0.6-1.9l-1.6-3L52,101
			l-4.5-4.4L49,96l2.2,0.1l0.9-0.3l2.7-2.4l2.1-0.4l2.9,1L61.2,95.6z M93.8,87.8l1.3,0.2l0.6-1l0.8,0.5l0.8,1.3l-1.3,0.2l-2.5-0.2
			l-1.4-0.5l-0.4-0.9l0.9-1.2l1.1,0.5L93.8,87.8L93.8,87.8z M24.7,65.1l-3.3-0.3l-0.6-0.4l-0.6-1.9l-7.9-5.2l-6.1-2.2l-2-0.4
			l-3.9-3.7L0,49.9l0.2-0.6l3.1-3.9L6.4,46l3.8,4.7l1.1,0.5l2.4,0.3l3.8,4.1l4.5,3.1l2.8,1.2l0.9,1.4l0,0.9l0.8,2.1L24.7,65.1
			L24.7,65.1z M82.2,71.5l1.2-5.4l-1-3.1l-1.6-0.7l0.1-1.4L80,59.8l-0.3-1.9l0.5-2.7l1.2-0.4l-0.1-0.5l-1-1L80,52l0.1-0.7l0.6-1
			l-0.5-0.6l0.1-0.5L78.5,49l-1.1-2l-1.8-0.5v-2l-0.5-1.7l0.1-1l-0.4-0.5l0.3-0.2l1.2,0.1l0.2-1.9L75.3,38l-0.1-1.4l-1-1l-1.1-0.2
			L72.9,35l4.6-1.3l0.5-1.5l-0.7-1.4l-0.5,0.2l-1.3-0.8l-0.1-0.8l-0.5-1.1l0.6-1l-1.1-0.8L74,24.8l-1.4-0.7l0.1-1.4l-0.5-0.3v-0.6
			l-0.9-1l-0.6-1.6l0.8-1.2l2.9-2.3l0.2-0.7l-0.8-1.4l0.2-0.6l0.3-0.1l1.1,0.7l0.3-0.5l-0.1-0.7l2.3-1.3l0.5-2.6L78.7,8l-0.1-1.9
			l0.9-1.3l-0.3-0.9L80,3.5l0.1-0.7l-0.6-1l0.2-0.4l0.7,0.2l1.1-0.2L82,1l0.1-0.6L83.6,0l1.5,0.3L85.9,0l0,0l0.2,5.2l1.5,2l2.3-0.1
			l2.9,1.2l2.1,1.3l1.6,2.5l3.4,0.8l0.7,1.1l-0.2,1l0.4,1.6l4.1,2.7l4.3,1.4l3.4,1.9l7.6,4.8l2.3,2l2.3,0.9l1.8,1.3l1.4,2.5l0.7,0.7
			l1,0.6l2.6,0.8l3.6,2l4.6,4.6l2.7,2.1l0.3,0.6l0.2,4.2l-0.3,1.2l-1.1,1.5l0.1,0.8l2.2,2.5l-0.5,0.5l1-0.3l-0.6-1.4l0.5-0.9l-1-0.8
			l-0.7,0.1l-0.1-0.3l1.8-1.2l0.8,0.1l1.4,1.5l-0.1,2.7l1.4,3.3l0.3,0l-0.8-3.1v-1.4l0.6-1l1.1-0.7l1.2,0l1.4,1.7l1.3,2.5l1,1
			l0.4,1.1l-0.8,2.5l0.2,3.9l1.4,3l0.3,1.8l-1,3.3l-0.5,5.8l-0.9,2.4v0.8l0.5,0.6l3.6,0.7l0.5,1.5l-0.6,0.5l-0.1,0.8l1.1,0.2
			l0.2,0.6l-0.2,0.8L159,89l-0.2,0.9l-0.8,1.4l-0.2,0.8l0.5,0.5l-0.2,0.9l-1.6,1.4h-1.5l-0.1,0.8l-0.5,0.3l-1.1-0.2l-0.9,0.2v0.7
			l-5.8,0.3l-0.8,0.5l0.1,0.8l0.5,0.5l0.5-0.1l1,1.8l0.4,3.1l0.5,1l1.1,0.8l0.2,0.6l-1.2,0.2l-1.1,0.6l-0.1,0.8l0.8,0.3l0.7,2
			l-0.3,1.2l-0.5,0.5l-1.4,0.1v0.4l0.8,0.9l0.8-0.1l-0.2,0.8l0.2,1.4l-0.5,0.4l1,1.4l1.1,0.8l-4.1-1.4l-0.5-0.7l-2.5-0.9l-0.6-1.4
			l-1.3,0.2l-0.8-0.7l-0.5-0.1l-1.1,0.7l0.2,4l-0.5,0.6v0.6l0.5,1.5h1.2l1.2,0.5l0.2,2.3l1.3,1v1.3l-1.3,1.6l-1,0.6l-1.4,0.2
			l-1.2-0.1l-0.2-0.4l-1-0.2l-0.5,0.1l-1.6,0.8l-1.2-0.9l-0.2-0.8l-1-1.3l-2.8,1l-2-0.8l-2.4,1.5l-0.9,0.2l-1.7,3.1l-1.2,1.5
			l-1.5,0.2l-1.4,0.7l-1.8,2.7l-0.4-0.1l-0.5-0.4l0.6-0.3v-1.7l-1.5-0.9l0.8-2.2l-1.1-5.7l-2.3-6.3l-2.4-5.4l-4.2-12.4l-2.6-5.9
			l-1.6-2l0-0.6l0.4,0l0.9,0.9l0.4,0.2l0.4-0.3l1.6-2.6l0-1.6l-1.8-2.6l-1.5-1.2l-0.5,0.1l-0.4,0.5l1,0.3l0.4,1.3l-0.8,0.1L99.6,85
			l-3.9-5.3l-1.1-1l-2.8-1.8l-6.6-3.3L82.2,71.5L82.2,71.5z"/>
	</g>
	<g transform="translate(197.325 242.518)">
		<path fill="none" stroke="#FFFFFF" stroke-width="5" d="M112.6,30.4l-2.5-1l-1,0.2l-0.6,0.3l-0.3,0.5l0.2,1.4l-0.6,0.8l-2,0.5
			l-1.9-0.2l-1.8,0.8l-2.6,0.6l-2.1-0.5H96l-1,0.3l-2-1l-0.9-0.2l-1.4,0.7l-0.6,1L87,35l-4.2,1.6l-2.1,1.9V40l-0.4,1.5l0.2,0.6
			l-0.4,0.8v2.6l1.1,0.9l-1.3,0.9l-2.1,0.5l-0.2,0.8l0.4,3L77.6,52l0.2,1.5l-0.3,0.1l-0.4-0.7l-1-0.2l-0.7-1.3l-1.6-0.9l-0.3-0.9
			l-1.3-1.1l-0.2-1.5l-0.6-0.7l-0.9-0.2L70,46.7l-0.3,0.9l-0.6,0.2l-0.4,0.6l-0.5,1.2l1.3,1.3l0.3,1.4l-3,1.2l-2.2-0.7l-0.2-0.5
			l-0.4-0.1l-0.6,1L60,52.5L58.6,52l-1.1,1.6l1.2,1.9l-0.9,0.7l-2,3.4l-0.9,0.7l-0.5,0.1l-0.5-0.3l-1.8,1.5l-1.5,0.6L50,62.6v0.6
			l-1.2,1.3l-0.9-0.4l-0.8,0.2L46,65.1l-0.2-0.3h-1.5L43,64.5l-1.1-1.1l-1-0.6l-0.4,0.4H40l-1.6-1l-1.1,0.5l-0.2,1.4l-0.8,0.9
			l-1.6,0.2l-0.4,0.4l-1.2,0.3l-0.8,1.4l0,0L31.3,67l0,0l-0.9-0.2l-1.6-1L26.2,66l-1.3-0.4l-0.9-0.9l-0.6-0.2l-0.4-0.7l-0.8-0.3
			l-2.8-3l-0.8-1.3l-0.7-0.1l-0.2,0.6L16.4,60l-0.6-0.4L15,59.8l-0.5,0.9l-0.3-0.2l0.6-3.8l-9.1-5.7l0,0l0.4-1l0,0l-0.3-3.2
			l-1.1-3.2l-0.8-1.4l-1.4-0.6l-0.7-0.8l-0.3-1l-0.9-1L0.4,38l-0.4-7l0.3-0.1l1,0.7l0.3-0.7L2,30.8l1.3,1.4l1.1-0.7l2,0.1l1-0.5
			l1.1,0.1l1.2-0.3l0.7,0.7l2-0.5l2.3-3.5l3.9-2.4l1.2-2.2v-0.5L19,21.8v-0.4l0.8-0.9L19,17.4l1.2-1.2l1.2,0.1l0.6-0.5l1.2-0.3
			l1.6-2l0.6-1.7l-0.2-0.2l-0.7,0.5l-1-0.9l0.2-1.5l-0.3-0.2l-0.1-1.9l0,0l-0.1,0l0,0l1.2,0.2l0.1-0.6L26,6.9l0.3-1.2l1.1-0.6
			L28,5.6l0.2-0.7l0.9-0.5l0.8,0.1l0.9,0.6l0.8-0.3l1.8,0.9l0.7-0.6l0.8,0.1l0.8,0.7v0.6L36,6.7l0.8-0.1l1.7-0.9l1.1-0.1L40.1,7
			L42,8l-0.1,1.2l2.4,0.2l0.9,1.5l1.5,0l1.5,0.6l1.3-0.2l1.2,0.8l0.6-0.1l1-1.2l1.3-0.2l1-1.7l0.9-0.9l0.2-0.7l4.1-2.9l1.6-1.9
			l1.7-2.6l2.3,0.2L67,0l7,1.2l0.8,0.6l1.6-0.9l2.3-0.2l0,0l0.8,0.8L81,2.2l1.7,2.1l1.7,1.4l1.9,0.8l1.2,1l2.1,0.5l1,0.7l1.6-0.7
			l-0.1,0.2l2.4-0.5l5.1,1.4l3.7,1.4l4.2-1.4l0.8,0.1l1.4,3.4l-0.6,2.8l0.5,1.6l1.4,2.3l0.2,2l-0.6,3.8l0.9,3.6L112.6,30.4z"/>
	</g>
	<g transform="translate(279.985 341.555)">
		<path fill="none" stroke="#FFFFFF" stroke-width="5" d="M6.1,35.4l1.3-0.1l0.1,1l0.8,0.1l0.7,0.9v1l-0.8,0.8v0.4l0.7,0.1l1.4,1.4
			l0.6-0.7l0.3-1.7l1,0.7l2.7-0.3l0.5-0.4l0.4,0.1l0.2,0.5l1.8,0.5l1.9-1l0.3-0.7l0.7-0.2l0.9,0.5h0.8l0.6-0.4l0.8,0.7l0.7-0.2
			l1.4-1.8l0.1-0.7l-0.2-0.7L24.2,34l-0.1-1.6l-1-0.6l0.5-1.5l1.3-1.2l-0.6-5.2l0.5-1.6l0.5-0.2l0.2-0.7l1.5-1.1l1-1.1l1.2,0.1
			l1.2-1l2.3-0.9l1.3-1.1l0.8,1l0.4,0.1l4.3,0.2l2.9-0.5l0.2-0.7l2.2-1.1l1.2-0.5l1.2,0.1l0.7-1L49,13l0.6-1.9l0.6-0.6l0.7-0.1
			l-0.6-0.7L51.2,9l0.5-2.1l0.4,0.3L52.5,7l0.2-1l1-0.5L55,6l1.4-1.2l0.4-0.9l-0.5-1.2L57.1,2l0.2-1.1L57.9,0l0.4,0.3L59,2.3
			l0.6-0.5l1-0.2l0.6,0.2l0.2,1.4l1.5-0.1l0.4,0.5h1.1l-0.3,1.5l0.3,0.3l0.8-0.3l0.7,0.5l-0.1,0.9l0.5,0.4l0.6-0.4l0.2,0.2l0.2,0.6
			h-0.7l0.9,0.7v0.5L68,9.2l-0.8,1l-0.1,0.6l0.5,0.1v-0.5l0.5,0.3l0.9-0.1l0.2,0.1l-0.6,0.6v0.5h1.3l0.1,0.5l0.5,0.2l-0.2,0.9
			l0.4,0.3l1.4,0.2l0.6-0.3l0.1-0.5l0.4-0.1l1,0.5l0.6,1.1l0,0l-0.4,5.2l2.8,4.7l0.1,0.6v2.4l-0.7,1.6l0,0.7l0.9,0.9l-1.2,2.4
			l-0.7,3.6L76,38l0.9,1.2l0.2,0.7l-0.1,0.4l-0.9,0.5l-0.5,2.4l0.3,7l-0.3,1l-0.9,0.6l-0.3,1l0.2,4.2l-0.3,3.1l0.4,1.4l-1.1,4.1
			l0.1,2.3l-0.7,2l-1.5,2.2L71,72.5l-0.3-1.9l-3.2-0.4l-0.7-0.5l-0.4-1l0-1l0.3-0.7l-0.2-0.4l-1.1-1.1h-1L64.1,65l-2.7-1.5l-1.6-1.5
			l-0.5-1.4L57,57.3l-0.6-0.1l-0.7,0.3l-0.3,0.6v3.4L55.2,62l-1.4-0.5l-1.2,0.8l0.8,0.9l0,0.6l0.6,0l-0.9,0.7l0.4,0.4l0,0.7l0.8,0.6
			l-0.2,0.2l-1.2,0l-0.7,0.8l0.5,0.9l1.4-0.2l-1,1L52,69.2l-3.2-1.8l-3.2-1.4l-5.8-3.7l-1.4-1.1l-1.5-1.9l-1.1,0l-2-0.6L32,59.6
			l-0.9,0.8l0.8,0.5l0.3,1.1l2,2.3l0.7,0.5l0.6,1l0,0.7L35,66.8l2.3,3.4l-0.2,0.6L38,73l-0.2,0.4L33,73.6l-0.7-0.4l-0.2-0.4l0.6-0.3
			l-0.3-1.4l-4.1-3.7L27.5,66l-1.6-1.2l-2.3-1.1l0.6-0.9l-1.8-2.2l-5.7-4l-2.9-3.3l-0.2-2L13,50.7l-2.5-0.6l-0.1-0.8l1-1.1l-0.3-0.9
			l-0.8-0.9l-0.5-0.4l-0.7,0l-0.9-1.2l-1.9-1.4H5.7l0,0.4l-0.3,0.1L5,43.6l0.1-1.4l-1.5-1.3L2.2,41L1,40l-1-0.3l0,0l0.3-1L1,38.6
			l1.1-1l0.8-0.2l1-0.8l0.3-1l1.6,0.1l0.2-0.2l0,0L6.1,35.4L6.1,35.4z"/>
	</g>
	<g transform="translate(270.502 176.835)">
		<path fill="none" stroke="#FFFFFF" stroke-width="5" d="M39.1,52.2l0.2,0.5l1.5,0.4l0.2,0.9l1.1,1.8l0.8,0.6l-0.1,0.5l-2,1.6
			L40.1,60l-0.3,2.1l-0.2,0.2l-0.8-0.2l-1.3-1.7h-0.4l-0.9,0.4l-0.3,2.5L35,63.7l-0.4-0.6l-0.2-1.9l-0.7-2.4l-1.2-0.6l-1-1.2
			l0.4-1.7l0.5-0.6l0-0.7l1.2-0.1l0.2-0.3l0.1-1.5l0.4,1.5l-0.9,0.8l0.8,1.2l0.3-0.3l0-1.4l0.2-0.1l0.5,0.5l1.2,0.1l0.9-0.6v-1.1
			l0.3-0.4l1.2-0.4L39.1,52.2L39.1,52.2z M49.3,47.6l0.3,0.2l0.7-0.2l0-1.7l0.5-0.4l2.3,3.1l1.8,1.5l1.5,0.1l0.1,0.9l-0.6,0.1
			l-2.2-0.9l-0.6,0.5l0.9,1l-0.2,0.5l-1.8-0.9l-0.8,0.2l-1.8-1.3l0.1-0.4l-0.3-0.2l-0.7,0.1l-0.6-1l-1.6-0.9l-1.7,0.3l-1.7,1.2
			l-1-0.2l-1.3,1l-0.7-0.3l-0.3-0.9l-1.4,0.3l-0.9-0.5l-0.1-0.4l0-1.2l1.3-1l0.2-0.4l1.1-0.4l-0.3-4.4l1.6-0.7l2,1l1.2,1.1l1,1.6
			l0.5,0l0.5,0.9l1.2,0.9l0,0.8l0.4,0.6L49.3,47.6z M35.9,36l0.3,0.4l0.1-0.9l0.5,0.2l0.5-0.1l3.7,4l-0.9,0.3L40,39.7l-0.8,0.7
			l-0.9-0.6l-2.5-2.7l-1.8-3l0.4,0.1L35.9,36L35.9,36z M40.6,33l3.4,4.2l1.5,1.5l1.1,0.6l0.2,0.5l-0.3,0.6l-1.3-0.6l-1.2-1.2
			l-1.8-1.2l-1.7-2.4L39,33.9l0-1l1.2,0.3l0.1-0.4L40.6,33z M36.7,30l1.1,0.8l-0.1,0.2l-0.9-0.1l-0.1,0.3l0.5,0.1l0.2,0.5l-0.5,0.1
			l-1.2-0.8l0.1,0.5l-0.4,0.1L35,32.5l-0.6-0.1l-0.9-1.6l-0.4,0.1l-0.1-1.2l0.1-0.3l0.9,0.8l0.3-0.1l0.1-0.9l-0.9-0.4l-0.4-0.6
			l0.6,0.1L36.7,30L36.7,30z M32.1,14.7l-0.4,0.8l0,0.8l1.4,1l-0.6,0.1L31.5,18l1.8,0.3l0.1-0.6l0.8,0.6l-0.4,0.6l-1.2-0.3v1.8
			l-0.2,0.2l-1.1-0.9l-2.5-4.2l0-0.3l0.9-0.2l0.6-0.1l1.2-0.4L32.1,14.7z M20.5,15.5l-0.2,0.3l-0.9-1.2l-2-1.7l-0.4-0.7l-0.1-1.1
			l1.9,0.8l1.3,1.2l0.2,0.8l0.8,1l-0.2,0.6L20.5,15.5L20.5,15.5z M17.6,15L17.1,16l-0.3-0.8l-0.7-0.1L14.5,14l-0.9-1.5v-0.8l0.5,0
			l0.6-0.8l2.2,2.5L17.6,15L17.6,15z M5.6,11.4l0.2,1.2L8,15.2l-0.4,0.7l-1.9-1.4l0.8,1.4l-0.3,1.5L6.8,18l-0.8,1.9l-0.3,0.3
			l-0.7,0.1l-0.5-0.7l-0.3,0.3l-1.1-0.3l-0.6-1.2l-1.2-1.4l-0.3-3.5l0.6-0.9l0.1-1.4l1,0.3l0.4,0.6l-0.2-1.1L3.3,10L3.1,9.8L4.2,9
			l1,0.1l0.3,0.5L5.6,11.4L5.6,11.4z M27,9.4l0.6,0.2l0.3-0.8l0.8-0.1l0.6,0.8l-0.3,1l-0.6,0.1l0.2,1l0.8,0.3l0.7-0.1l1.5,0.7v0.4
			l-0.6,0.7l-1.9,1.3l-0.7,0.1l-0.7-2.3l-1.3-0.6L26.1,12l0-1.8l-0.4-0.3L25,10.5L24.5,10l0.3-1.3l0.9-0.2l1.1,0.5L27,9.4z
			 M16.4,8.8H16l-1.4-1.5V6.7l0.8-0.7L16.4,7V8.8z M18.7,5.1l-0.1,0.5l0.6,0.7l0.5,0.4l0.5,0.5l2.4,1.3l0.1,0.9l-0.6-0.1l-0.2,0.3
			l-0.2,0.4l0.2,0.8l-0.3,0.3h-0.4L20.2,10l-1.4-0.5l-1.3-1V7.4L17.9,7l-1.2-1.2l0.2-0.6l0.7,0.3l0.7-0.5V4.2l0.3,0.2L18.7,5.1z
			 M3.2,3l0.1,0.3L3.1,3.4L2.4,3.2L2.3,4.7l0.5,1.2l0.7,0.1l1,2.2L2.7,8L2.6,7.6L1.4,7.5L0,6.4l0-1.5l0.3-0.3l0.3-0.9l1.4-0.4
			l0.6-1.1L3.2,3z M27.9,2.9L28,3.8l-0.4,0.4v2.3l-1.4,0.1l-0.3,0.8l0.4,0.8L24.6,8l-0.5,0.4l-0.9-0.3l-0.3-0.5l-1.5-0.2L20,6.6
			l-0.6-2l0.1-0.5L20.3,4L20.1,5l0.7,0l-0.1-1.4l-0.3-0.1l0-0.5l2.3,0.2L23,1.6l0.7-0.1l1.1,1.4l0.7,0.2l0.3-0.5l-0.5-0.3V1.6
			l1.1-0.5l0.9,0.7L27.9,2.9L27.9,2.9z M42.3,1.9l0.3,1.3L44,4l0.9,2.3l-0.5,2.4l0.1,0.8L45,9.8v0.8l-0.5,0.1v0.5l0.5,0.2l1.2-0.1
			l-0.2,1l-1.5,2l-1.1-0.5l-1.9,0l-1.1-0.4l-1.5-1.3l-0.5,0.2l-1.3-0.3l0-0.3l1.3-0.3l-0.9-0.8l0.2-0.5l-0.2-0.3L36.7,9l0.4-0.7
			l1.1,0.1l-0.4-0.8l0.8-1l-0.9-0.8l-1.5,0.8l0,1.1L35.9,8h-0.6l0.1-0.7L34.6,7l-0.3,0.7l-0.4,0.2l-2.3-0.1l-0.7-0.6L30.3,6
			l-0.2-0.8l1-1.5L34,3.2l-0.5-1.5l0.8-0.3l1.4,0.3l0.2-0.4L36.5,1l2.2,0.9l1.2,0L41,1.2l0.4-1L42.2,0l0.3,0.2L42.3,1.9L42.3,1.9z"
			/>
	</g>
</g>
</svg>
