<svg xmlns="http://www.w3.org/2000/svg" width="71.563" height="70.417" viewBox="0 0 71.563 70.417"><defs><style>.a{fill:#fff;stroke:#fff;}</style></defs><g transform="translate(0.511 -3.555)"><path class="a" d="M91.5,35.829a6.9,6.9,0,0,0-2.434-4.812,6.307,6.307,0,0,0-4.711-1.463A6.749,6.749,0,0,0,78.964,33.5l-2.115.187L74.761,33.1a.525.525,0,0,1-.35-.344,19.6,19.6,0,0,0-2.576-5.071l.739-1.987,2.332-2.522a4.742,4.742,0,0,0,3.444-1.649A4.82,4.82,0,0,0,78.2,15.1a4.738,4.738,0,0,0-3.5-1.485A4.786,4.786,0,0,0,69.95,18.6l-2.332,2.523-1.954.907a19.605,19.605,0,0,0-9.611-2.675l-1.278-2.038-.451-2.239a6.077,6.077,0,0,0,2.155-5.995,6.7,6.7,0,0,0-12.015-2.1,5.983,5.983,0,0,0-.886,4.594,6.321,6.321,0,0,0,4.083,4.6l.5,2.474-.4,2.411a19.62,19.62,0,0,0-4.958,3.188l-1.465-.261-1.655-1.249a4.787,4.787,0,1,0-3.8,5.59l1.387,1.046.622,1.273a.207.207,0,0,1,0,.178,19.455,19.455,0,0,0-1.788,8.186c0,.528.022,1.065.065,1.6a.219.219,0,0,1-.087.2l-2.342,1.669-2.673.841a6.268,6.268,0,0,0-5.81-.993l-.119.042-.033.012a1.059,1.059,0,0,0,.718,1.993l.05-.018.05-.018a4.153,4.153,0,0,1,4.172.936,1.059,1.059,0,0,0,1.048.243l3.393-1.068a1.06,1.06,0,0,0,.3-.148L37.32,42.53a2.35,2.35,0,0,0,.969-2.1c-.038-.474-.058-.952-.058-1.423a17.35,17.35,0,0,1,1.594-7.3,2.318,2.318,0,0,0-.023-1.993l-.734-1.5a1.058,1.058,0,0,0-.314-.38l-1.994-1.5a1.059,1.059,0,0,0-.961-.163,2.674,2.674,0,0,1-2.424-.409,2.669,2.669,0,0,1-.415-3.871,2.7,2.7,0,0,1,3.5-.478,2.662,2.662,0,0,1,1.176,2,1.059,1.059,0,0,0,.418.757l2.209,1.666a1.059,1.059,0,0,0,.452.2l2.225.4a1.058,1.058,0,0,0,.906-.266,17.526,17.526,0,0,1,5.267-3.374,1.059,1.059,0,0,0,.642-.808l.521-3.175a1.061,1.061,0,0,0-.007-.381l-.66-3.279a1.059,1.059,0,0,0-.774-.817,4.267,4.267,0,0,1-3.19-3.189,3.881,3.881,0,0,1,.579-2.979,4.587,4.587,0,0,1,8.179,1.369,4.014,4.014,0,0,1-1.83,4.208,1.059,1.059,0,0,0-.463,1.1l.622,3.093a1.061,1.061,0,0,0,.141.354l1.53,2.441a1.6,1.6,0,0,0,1.362.753h0a17.481,17.481,0,0,1,9.035,2.513,1.6,1.6,0,0,0,1.5.083L68.7,22.955a1.06,1.06,0,0,0,.332-.242l2.8-3.025a1.059,1.059,0,0,0,.269-.881,2.668,2.668,0,0,1,4.57-2.249,2.684,2.684,0,0,1,.083,3.585,2.65,2.65,0,0,1-2.22.913,1.059,1.059,0,0,0-.857.337l-2.8,3.025a1.057,1.057,0,0,0-.215.35l-.909,2.444a1.6,1.6,0,0,0,.208,1.5A17.491,17.491,0,0,1,72.4,33.436a2.641,2.641,0,0,0,1.787,1.709l2.274.637a1.06,1.06,0,0,0,.379.035l2.954-.261a1.059,1.059,0,0,0,.908-.708,4.67,4.67,0,0,1,3.861-3.186,4.206,4.206,0,0,1,3.14.979,4.8,4.8,0,0,1,1.681,3.35,5.161,5.161,0,0,1-.462,2.569,1.059,1.059,0,0,0,1.921.894,7.292,7.292,0,0,0,.653-3.626Z" transform="translate(-20.969 0)"/><path class="a" d="M65.2,247.843a4.3,4.3,0,0,1-.912.194,4.339,4.339,0,0,1-4.366-2.587,1.059,1.059,0,0,0-1.053-.607l-2.773.245a1.058,1.058,0,0,0-.367.1l-2.093,1.01a2.639,2.639,0,0,0-1.463,2.021,17.414,17.414,0,0,1-.994,3.843,2.631,2.631,0,0,0,.154,2.237l.745,1.333a1.057,1.057,0,0,0,.334.363l2.074,1.392a1.06,1.06,0,0,0,.969.11,2.674,2.674,0,0,1,2.443.274,2.669,2.669,0,0,1,.629,3.842,2.7,2.7,0,0,1-3.472.671,2.662,2.662,0,0,1-1.285-1.929,1.059,1.059,0,0,0-.459-.733l-2.3-1.541a1.058,1.058,0,0,0-.462-.172l-1.446-.176a2.721,2.721,0,0,0-2.212.74,17.631,17.631,0,0,1-3.865,2.793,2.722,2.722,0,0,0-1.421,2.221l-.183,2.93a1.058,1.058,0,0,0,.03.325l.909,3.608a1.059,1.059,0,0,0,.742.761,3.584,3.584,0,0,1,2.506,2.568,3.572,3.572,0,0,1-2.691,4.36A3.572,3.572,0,0,1,39.645,272a1.059,1.059,0,0,0,.285-1.015l-.915-3.63a1.058,1.058,0,0,0-.128-.3l-1.41-2.268A3.116,3.116,0,0,0,34.8,263.32h0a17.6,17.6,0,0,1-3.408-.333,3.11,3.11,0,0,0-2.878.908l-1.865,1.968a1.062,1.062,0,0,0-.185.269l-2.087,4.33a1.059,1.059,0,0,0,0,.928,2.668,2.668,0,0,1-3.707,3.5,2.7,2.7,0,0,1-1.157-3.328,2.646,2.646,0,0,1,1.869-1.593,1.059,1.059,0,0,0,.714-.572l2.1-4.358a1.056,1.056,0,0,0,.095-.312l.412-2.926a2.626,2.626,0,0,0-.936-2.4,17.627,17.627,0,0,1-3.984-4.566,2.629,2.629,0,0,0-2.212-1.251l-2.921-.028a1.048,1.048,0,0,0-.328.049l-3.2,1.006a1.059,1.059,0,0,0-.735.892,4.155,4.155,0,0,1-8.078.83,4.1,4.1,0,0,1,.026-2.627,1.059,1.059,0,0,0-2-.689A6.2,6.2,0,0,0,.3,257a6.3,6.3,0,0,0,5.978,4.322,6.212,6.212,0,0,0,1.867-.288,6.282,6.282,0,0,0,4.234-4.588l2.422-.762,2.753.026a.5.5,0,0,1,.42.231,19.739,19.739,0,0,0,4.461,5.113.5.5,0,0,1,.172.455l-.389,2.762L20.4,268.056a4.786,4.786,0,0,0-.761,8.681,4.747,4.747,0,0,0,3.788.4,4.805,4.805,0,0,0,2.877-2.488,4.753,4.753,0,0,0,.192-3.7L28.3,267.2l1.751-1.848a1,1,0,0,1,.929-.287,19.756,19.756,0,0,0,3.832.373h0a1.006,1.006,0,0,1,.864.468L37,268.034l.736,2.919a5.665,5.665,0,0,0-1,5.371,5.741,5.741,0,0,0,5.432,3.917,5.574,5.574,0,0,0,1.21-.133,5.691,5.691,0,0,0,4.284-6.946,5.708,5.708,0,0,0-3.388-3.885l-.729-2.892.173-2.765a.59.59,0,0,1,.3-.484,19.759,19.759,0,0,0,4.33-3.129.612.612,0,0,1,.495-.171l1.194.145,1.722,1.155a4.787,4.787,0,1,0,3.481-5.792l-1.443-.968-.622-1.112a.52.52,0,0,1-.026-.441,19.536,19.536,0,0,0,1.115-4.311.526.526,0,0,1,.286-.406l1.919-.926,1.884-.166a6.374,6.374,0,0,0,7.5,2.84,1.059,1.059,0,0,0-.662-2.013Z" transform="translate(0 -206.769)"/><path class="a" d="M159.665,146.87a14.837,14.837,0,1,0,4.519,1.9,1.059,1.059,0,1,0-1.133,1.79,12.66,12.66,0,1,1-3.87-1.626,1.059,1.059,0,1,0,.484-2.062Z" transform="translate(-121.461 -122.299)"/><path class="a" d="M52.075,21.124a4.981,4.981,0,1,0-4.981-4.981A4.987,4.987,0,0,0,52.075,21.124Zm0-7.844a2.863,2.863,0,1,1-2.863,2.863A2.866,2.866,0,0,1,52.075,13.28Z" transform="translate(-40.447 -6.093)"/><path class="a" d="M52.58,386.653a3.65,3.65,0,1,0,3.65,3.65A3.654,3.654,0,0,0,52.58,386.653Zm0,5.181a1.531,1.531,0,1,1,1.531-1.532A1.533,1.533,0,0,1,52.58,391.834Z" transform="translate(-42.024 -328.555)"/><path class="a" d="M381.92,408.111a4.875,4.875,0,1,0,4.875,4.875A4.88,4.88,0,0,0,381.92,408.111Zm0,7.631a2.756,2.756,0,1,1,2.757-2.756A2.76,2.76,0,0,1,381.92,415.742Z" transform="translate(-323.799 -346.982)"/><path class="a" d="M193.058,196.529a4.617,4.617,0,1,0-4.617,4.617A4.622,4.622,0,0,0,193.058,196.529Zm-4.617,2.5a2.5,2.5,0,1,1,2.5-2.5A2.5,2.5,0,0,1,188.442,199.027Z" transform="translate(-157.867 -161.317)"/><path class="a" d="M215.571,285.154a3.481,3.481,0,1,0-3.481-3.481A3.485,3.485,0,0,0,215.571,285.154Zm0-4.843a1.362,1.362,0,1,1-1.362,1.362A1.364,1.364,0,0,1,215.571,280.312Z" transform="translate(-182.141 -235.412)"/><path class="a" d="M268.673,232.689a3.092,3.092,0,1,0,3.092-3.092A3.1,3.1,0,0,0,268.673,232.689Zm3.092-.974a.974.974,0,1,1-.974.974A.975.975,0,0,1,271.765,231.715Z" transform="translate(-230.732 -193.68)"/></g></svg>