<svg xmlns="http://www.w3.org/2000/svg" width="241.115" height="21.255" viewBox="0 0 241.115 21.255"><g transform="translate(-220.579 -72.196)"><path d="M1.094-7.178a10,10,0,0,1,1.328-5.229q1.328-2.222,4.6-2.222a5.775,5.775,0,0,1,2.142.355,3.54,3.54,0,0,1,1.613,1.531h.055q-.055-.547-.055-1.094v-5.523q0-.82.785-.82h2.094q.785,0,.785.82V-.82a.725.725,0,0,1-.82.82h-2.16q-.684,0-.684-.82v-.793h0A3.54,3.54,0,0,1,9.16-.082,5.775,5.775,0,0,1,7.018.273q-3.268,0-4.6-2.222A10,10,0,0,1,1.094-7.178Zm4.047,0A8.576,8.576,0,0,0,5.725-3.7,2.437,2.437,0,0,0,8.211-2.406,2.157,2.157,0,0,0,10.02-3.562a5.407,5.407,0,0,0,.753-3v-1.23a5.407,5.407,0,0,0-.753-3,2.157,2.157,0,0,0-1.809-1.155,2.437,2.437,0,0,0-2.486,1.292A8.576,8.576,0,0,0,5.141-7.178ZM18.977,0a.725.725,0,0,1-.82-.82V-13.535a.725.725,0,0,1,.82-.82h2.188a.725.725,0,0,1,.82.82V-.82a.725.725,0,0,1-.82.82Zm0-16.461a.725.725,0,0,1-.82-.82v-1.75a.725.725,0,0,1,.82-.82h2.188a.725.725,0,0,1,.82.82v1.75a.725.725,0,0,1-.82.82ZM26.518,0A.723.723,0,0,1,25.7-.82V-13.535a.725.725,0,0,1,.82-.82h2.16a.725.725,0,0,1,.82.82v1.121h0a3.833,3.833,0,0,1,1.2-1.545,3.107,3.107,0,0,1,1.992-.67,3.756,3.756,0,0,1,1.3.191.512.512,0,0,1,.369.656l-.383,1.627q-.123.547-.738.328a2.113,2.113,0,0,0-.688-.123,2.527,2.527,0,0,0-2.188,1.572A9.68,9.68,0,0,0,29.5-5.8V-.82a.723.723,0,0,1-.815.82Zm9.9-5.961v-7.574a.725.725,0,0,1,.82-.82H39.43a.725.725,0,0,1,.82.82v6.59a10.27,10.27,0,0,0,.41,3.76,1.763,1.763,0,0,0,1.723.779,2.4,2.4,0,0,0,2.14-1.114q.732-1.114.732-4.628v-5.387a.723.723,0,0,1,.815-.82H48.24a.723.723,0,0,1,.815.82V-.82a.725.725,0,0,1-.82.82h-2.16a.725.725,0,0,1-.82-.82v-.793h0A3.379,3.379,0,0,1,43.632-.13a6.123,6.123,0,0,1-2.329.4,4.833,4.833,0,0,1-3.486-1.34Q36.422-2.406,36.422-5.961ZM53.588,0a.723.723,0,0,1-.815-.82V-13.535a.725.725,0,0,1,.82-.82h2.16a.725.725,0,0,1,.82.82v.793h0a2.971,2.971,0,0,1,1.382-1.381,3.971,3.971,0,0,1,1.819-.506,4.979,4.979,0,0,1,2.63.584,3.329,3.329,0,0,1,1.29,1.3h.056a6.548,6.548,0,0,1,2.191-1.532,7.5,7.5,0,0,1,2.511-.354,4.851,4.851,0,0,1,3.471,1.34q1.412,1.34,1.412,4.895V-.82a.725.725,0,0,1-.82.82H70.328a.725.725,0,0,1-.82-.82V-7.41a10.079,10.079,0,0,0-.418-3.76,1.535,1.535,0,0,0-1.482-.779,2.291,2.291,0,0,0-1.816,1.121q-.823,1.121-.823,4.621V-.82a.725.725,0,0,1-.82.82H61.961a.725.725,0,0,1-.82-.82V-7.41a10.024,10.024,0,0,0-.421-3.76,1.547,1.547,0,0,0-1.491-.779A2.31,2.31,0,0,0,57.4-10.835q-.828,1.114-.828,4.628V-.82A.723.723,0,0,1,55.76,0Z" transform="translate(294 93)" fill="#f38500"/><path d="M-34.959-.957q-.67-.479-.369-1.025l.7-1.271q.369-.684,1.148-.164a5.545,5.545,0,0,0,1.839.766,8.613,8.613,0,0,0,1.935.246,5.1,5.1,0,0,0,1.148-.123,1.883,1.883,0,0,0,.9-.479,1.377,1.377,0,0,0,.369-1.039,1.1,1.1,0,0,0-.219-.692,1.4,1.4,0,0,0-.561-.434,4.546,4.546,0,0,0-.725-.244q-.506-.121-1.456-.4a16.547,16.547,0,0,1-1.825-.658,5.987,5.987,0,0,1-1.415-.891A3.623,3.623,0,0,1-34.5-8.647a4.16,4.16,0,0,1-.321-1.73,3.855,3.855,0,0,1,.8-2.42,4.085,4.085,0,0,1,2.071-1.436,10.81,10.81,0,0,1,3.172-.4,8.571,8.571,0,0,1,2.5.369,7.675,7.675,0,0,1,1.736.7q.82.52.41,1.107l-.834,1.217q-.383.547-1.23.082a8.323,8.323,0,0,0-1.265-.574,4.162,4.162,0,0,0-1.388-.219,4.466,4.466,0,0,0-1,.109,1.79,1.79,0,0,0-.813.41,1.015,1.015,0,0,0-.335.793,1.072,1.072,0,0,0,.308.813,1.9,1.9,0,0,0,.711.431l.772.26q.766.246,1.545.472t1.586.54a5.521,5.521,0,0,1,1.354.779,2.919,2.919,0,0,1,.957,1.285,4.909,4.909,0,0,1,.3,1.777,4.21,4.21,0,0,1-.793,2.461A4.315,4.315,0,0,1-26.346-.205a8.723,8.723,0,0,1-3.021.479A16.853,16.853,0,0,1-32.648,0,5.949,5.949,0,0,1-34.959-.957ZM-21.4-7.178a8.051,8.051,0,0,1,1.729-5.455,6.119,6.119,0,0,1,4.888-2q3.664,0,5.441,1.887t1.777,6.07q0,.82-.766.82H-17.35q.219,2.27,1.121,2.857a3.745,3.745,0,0,0,2.092.588,3.981,3.981,0,0,0,1.736-.3,2.957,2.957,0,0,0,1.012-.822A.785.785,0,0,1-10.24-3.72l1.367.835q.807.493.232,1.177A5.314,5.314,0,0,1-10.6-.219a9.4,9.4,0,0,1-3.541.492q-3.924,0-5.592-2A8.248,8.248,0,0,1-21.4-7.178Zm4.047-1.408h5.961a3.8,3.8,0,0,0-.74-2.423,2.816,2.816,0,0,0-2.357-.94,2.525,2.525,0,0,0-2.042.9A4,4,0,0,0-17.35-8.586ZM-3.76,0a.725.725,0,0,1-.82-.82V-19.359a.725.725,0,0,1,.82-.82h2.188a.725.725,0,0,1,.82.82v5.523q0,.547-.055,1.094h.055a3.356,3.356,0,0,1,1.6-1.483,6.12,6.12,0,0,1,2.345-.4,4.909,4.909,0,0,1,3.538,1.34q1.4,1.34,1.4,4.895V-.82a.725.725,0,0,1-.82.82H5.127a.725.725,0,0,1-.82-.82V-7.41a10.27,10.27,0,0,0-.41-3.76,1.807,1.807,0,0,0-1.764-.779,2.408,2.408,0,0,0-2.16,1.114Q-.752-9.721-.752-6.207V-.82a.725.725,0,0,1-.82.82Zm14.82-3.828a4.121,4.121,0,0,1,2.611-3.965,14.688,14.688,0,0,1,5.961-1.312v-.547A2.191,2.191,0,0,0,19-11.43a2.672,2.672,0,0,0-1.75-.52,4.018,4.018,0,0,0-1.4.226,5.15,5.15,0,0,0-1.053.52,8.486,8.486,0,0,0-.8.595q-.629.547-1.039.055l-1.135-1.395q-.424-.52.205-1.066a5.037,5.037,0,0,1,1.114-.738,9.3,9.3,0,0,1,1.688-.595,10.93,10.93,0,0,1,2.734-.28,6.5,6.5,0,0,1,4.368,1.313,4.826,4.826,0,0,1,1.524,3.869V-.82a.728.728,0,0,1-.826.82H20.376q-.744,0-.744-.82v-.41h0A4.894,4.894,0,0,1,17.7-.089a6.819,6.819,0,0,1-2.071.362,4.772,4.772,0,0,1-3.4-1.1A3.935,3.935,0,0,1,11.061-3.828Zm4.047-.082a1.693,1.693,0,0,0,.191.827,1.141,1.141,0,0,0,.6.513,2.447,2.447,0,0,0,.916.164A4.809,4.809,0,0,0,18.17-2.6a4.058,4.058,0,0,0,1.463-.9V-6.467a10.052,10.052,0,0,0-3.076.67,3.359,3.359,0,0,0-1.114.848A1.66,1.66,0,0,0,15.107-3.91ZM26.7-11.621q-.807,0-.807-.684v-1.367q0-.684.807-.684h.93v-.479a2.231,2.231,0,0,1,.287-1.121L28.971-17.8a.851.851,0,0,1,.711-.52h.957a.725.725,0,0,1,.82.82v3.145h2.215q.807,0,.807.684V-12.3q0,.684-.807.684H31.459V-4.84a7.145,7.145,0,0,0,.2,2,.947.947,0,0,0,1.032.608,3.723,3.723,0,0,0,.957-.144,5.646,5.646,0,0,0,.834-.28q.479-.219.629.314l.41,1.559a.539.539,0,0,1-.355.684A6.351,6.351,0,0,1,33.927.28a7.413,7.413,0,0,1-1.579.171,6.506,6.506,0,0,1-3.336-.807q-1.381-.807-1.381-3.322v-7.943Z" transform="translate(256 93)" fill="#6bab79"/><path d="M-28.67,0q-.957,0-.957-1.025V-2.857q0-1.025.957-1.025h2.078q.957,0,.957,1.025v1.832Q-25.635,0-26.592,0Zm6.7-7.178a7.979,7.979,0,0,1,1.75-5.469q1.75-1.982,5.373-1.982a7.826,7.826,0,0,1,3.295.561,4.571,4.571,0,0,1,1.887,1.641q.424.643-.137,1.012l-1.449.957q-.615.41-1.08-.314a2.888,2.888,0,0,0-.889-.766,3.015,3.015,0,0,0-1.627-.41,2.638,2.638,0,0,0-2.311,1.087,6.633,6.633,0,0,0-.766,3.685,6.633,6.633,0,0,0,.766,3.685,2.638,2.638,0,0,0,2.311,1.087,3.128,3.128,0,0,0,1.791-.465,6.085,6.085,0,0,0,1.285-1.2.7.7,0,0,1,1.094-.178l1.271,1q.574.451.068,1.2A5.627,5.627,0,0,1-11.149-.492a7.277,7.277,0,0,1-3.7.766q-3.623,0-5.373-1.982A7.978,7.978,0,0,1-21.971-7.178Zm14.848,0a7.841,7.841,0,0,1,1.8-5.469A6.864,6.864,0,0,1,.027-14.629,6.864,6.864,0,0,1,5.38-12.646a7.841,7.841,0,0,1,1.8,5.469,7.841,7.841,0,0,1-1.8,5.469A6.864,6.864,0,0,1,.027.273,6.864,6.864,0,0,1-5.325-1.709,7.841,7.841,0,0,1-7.123-7.178Zm4.047,0a6.4,6.4,0,0,0,.8,3.685,2.686,2.686,0,0,0,2.3,1.087,2.686,2.686,0,0,0,2.3-1.087,6.4,6.4,0,0,0,.8-3.685,6.4,6.4,0,0,0-.8-3.685,2.686,2.686,0,0,0-2.3-1.087,2.686,2.686,0,0,0-2.3,1.087A6.4,6.4,0,0,0-3.076-7.178ZM10.945,0a.723.723,0,0,1-.815-.82V-13.535a.725.725,0,0,1,.82-.82h2.16a.725.725,0,0,1,.82.82v.793h0a2.971,2.971,0,0,1,1.382-1.381,3.971,3.971,0,0,1,1.819-.506,4.979,4.979,0,0,1,2.63.584,3.329,3.329,0,0,1,1.29,1.3h.056A6.548,6.548,0,0,1,23.3-14.275a7.5,7.5,0,0,1,2.511-.354,4.851,4.851,0,0,1,3.471,1.34q1.412,1.34,1.412,4.895V-.82a.725.725,0,0,1-.82.82H27.686a.725.725,0,0,1-.82-.82V-7.41a10.079,10.079,0,0,0-.418-3.76,1.535,1.535,0,0,0-1.482-.779,2.291,2.291,0,0,0-1.816,1.121q-.823,1.121-.823,4.621V-.82a.725.725,0,0,1-.82.82H19.318a.725.725,0,0,1-.82-.82V-7.41a10.024,10.024,0,0,0-.421-3.76,1.547,1.547,0,0,0-1.491-.779,2.31,2.31,0,0,0-1.827,1.114q-.828,1.114-.828,4.628V-.82a.723.723,0,0,1-.815.82Z" transform="translate(431 93)"/><path d="M13.1,0H11.55a1.674,1.674,0,0,1-.77-.147.946.946,0,0,1-.42-.6l-.308-1.022A11.86,11.86,0,0,1,8.981-.9,6.5,6.5,0,0,1,7.9-.28,5.534,5.534,0,0,1,6.706.1a7.159,7.159,0,0,1-1.4.126,5.5,5.5,0,0,1-1.68-.246A3.618,3.618,0,0,1,2.3-.759a3.349,3.349,0,0,1-.861-1.222,4.348,4.348,0,0,1-.308-1.7,3.362,3.362,0,0,1,.427-1.608A4.025,4.025,0,0,1,2.982-6.722,9.071,9.071,0,0,1,5.628-7.783,16.9,16.9,0,0,1,9.73-8.2V-9.05A3.21,3.21,0,0,0,9.121-11.2a2.223,2.223,0,0,0-1.771-.7,4.286,4.286,0,0,0-1.4.2,5.416,5.416,0,0,0-.973.441q-.413.245-.763.441a1.549,1.549,0,0,1-.77.2,1,1,0,0,1-.6-.182,1.433,1.433,0,0,1-.406-.448l-.63-1.106A8.541,8.541,0,0,1,7.784-14.63a5.776,5.776,0,0,1,2.247.413A4.777,4.777,0,0,1,11.7-13.069a4.913,4.913,0,0,1,1.043,1.757,6.752,6.752,0,0,1,.357,2.24ZM6.384-2.156a4.658,4.658,0,0,0,.98-.1,3.752,3.752,0,0,0,.847-.289,4.514,4.514,0,0,0,.77-.475,6.954,6.954,0,0,0,.749-.668v-2.4A14.041,14.041,0,0,0,7.2-5.9a6.677,6.677,0,0,0-1.631.487,2.1,2.1,0,0,0-.875.691,1.537,1.537,0,0,0-.259.86,1.517,1.517,0,0,0,.539,1.311A2.324,2.324,0,0,0,6.384-2.156ZM16.506,0V-20.8h3.458v7.994A7.318,7.318,0,0,1,21.812-14.1a5.355,5.355,0,0,1,2.366-.49,5.15,5.15,0,0,1,2.086.4,4.122,4.122,0,0,1,1.519,1.12,4.923,4.923,0,0,1,.924,1.722,7.318,7.318,0,0,1,.315,2.2V0H25.564V-9.142a3.068,3.068,0,0,0-.609-2.037,2.257,2.257,0,0,0-1.827-.721,3.6,3.6,0,0,0-1.68.406,6.021,6.021,0,0,0-1.484,1.106V0Z" transform="translate(369 93)" fill="#f38500"/></g></svg>