<svg xmlns="http://www.w3.org/2000/svg" width="250" height="250" viewBox="0 0 113.406 113.406"><g transform="translate(-24 -24)"><path d="M186.657,149.327a3.908,3.908,0,0,0-3.422,2.02c-.156-.041-19.231-.064-19.231-.064s14.854-14.888,14.936-15.027a3.911,3.911,0,1,0-2.675-2.675c-.139.082-15.027,14.936-15.027,14.936s-.024-21.03-.064-21.187a3.911,3.911,0,1,0-3.782,0c-.04.156-.064,21.187-.064,21.187S142.44,133.663,142.3,133.581a3.911,3.911,0,1,0-2.675,2.675c.082.139,14.936,15.027,14.936,15.027s-19.075.024-19.231.064a3.911,3.911,0,1,0,0,3.783c.156.04,19.231.064,19.231.064s-14.854,14.888-14.936,15.027a3.911,3.911,0,1,0,2.675,2.675c.139-.082,15.027-14.936,15.027-14.936s.024,21.03.064,21.187a3.911,3.911,0,1,0,3.782,0c.04-.156.064-21.187.064-21.187s14.887,14.854,15.027,14.936a3.911,3.911,0,1,0,2.675-2.675C178.857,170.08,164,155.192,164,155.192s19.075-.024,19.231-.064a3.911,3.911,0,1,0,3.422-5.8Z" transform="translate(-78.58 -72.534)" fill="#6bab79"/><path d="M218.091,228.392l-14.982,14.982-14.982-14.982a7.259,7.259,0,1,1,10.265-10.266l4.717,4.717,4.717-4.717a7.259,7.259,0,1,1,10.266,10.265Z" transform="translate(-122.406 -145.073)" fill="#f38500"/><path d="M254.937,279.259a1.955,1.955,0,0,1-1.382-3.338l1.5-1.5a1.955,1.955,0,1,1,2.765,2.765l-1.5,1.5a1.949,1.949,0,0,1-1.383.573Z" transform="translate(-173.016 -188.78)" fill="#fff"/><path d="M279.555,250a1.955,1.955,0,0,1-1.383-3.338l3.008-3.008a1.955,1.955,0,1,1,2.765,2.765l-3.008,3.008A1.949,1.949,0,0,1,279.555,250Z" transform="translate(-191.617 -165.532)" fill="#fff"/><g transform="translate(24 24)"><path d="M234.338,31.081l-8.561,8.561-8.561-8.561a4.148,4.148,0,1,1,5.866-5.866l2.7,2.7,2.7-2.7a4.148,4.148,0,1,1,5.866,5.866Z" transform="translate(-169.073 -24)" fill="#f38500"/><path d="M98.338,95.081l-8.561,8.561-8.561-8.561a4.148,4.148,0,1,1,5.866-5.866l2.7,2.7,2.7-2.7a4.148,4.148,0,1,1,5.866,5.866Z" transform="translate(-66.313 -72.358)" fill="#f38500"/><path d="M42.338,247.081l-8.561,8.561-8.561-8.561a4.148,4.148,0,1,1,5.866-5.866l2.7,2.7,2.7-2.7a4.148,4.148,0,1,1,5.866,5.866Z" transform="translate(-24 -187.207)" fill="#f38500"/><path d="M82.338,375.081l-8.561,8.561-8.561-8.561a4.148,4.148,0,1,1,5.866-5.866l2.7,2.7,2.7-2.7a4.148,4.148,0,1,1,5.866,5.866Z" transform="translate(-54.224 -283.923)" fill="#f38500"/><path d="M353.215,95.081l8.561,8.561,8.561-8.561a4.148,4.148,0,1,0-5.866-5.866l-2.7,2.7-2.7-2.7a4.148,4.148,0,1,0-5.866,5.866Z" transform="translate(-271.833 -72.358)" fill="#f38500"/><path d="M409.215,247.081l8.561,8.561,8.561-8.561a4.148,4.148,0,1,0-5.866-5.866l-2.7,2.7-2.7-2.7a4.148,4.148,0,1,0-5.866,5.866Z" transform="translate(-314.147 -187.207)" fill="#f38500"/><path d="M369.215,375.081l8.561,8.561,8.561-8.561a4.148,4.148,0,1,0-5.866-5.866l-2.7,2.7-2.7-2.7a4.148,4.148,0,1,0-5.866,5.866Z" transform="translate(-283.923 -283.923)" fill="#f38500"/><path d="M234.338,431.081l-8.561,8.561-8.561-8.561a4.148,4.148,0,1,1,5.866-5.866l2.7,2.7,2.7-2.7a4.148,4.148,0,1,1,5.866,5.866Z" transform="translate(-169.073 -326.236)" fill="#f38500"/></g></g></svg>