<svg xmlns="http://www.w3.org/2000/svg" width="27.304" height="27.304" viewBox="0 0 27.304 27.304"><g transform="translate(0 0.001)"><path d="M18.621,187.395a6.182,6.182,0,0,0-.019-1.329,5.99,5.99,0,0,0-.4-1.53q-.037-.091-.077-.181a6.023,6.023,0,0,0-1.245-1.805l-.023-.023a6.075,6.075,0,0,0-1.146-.89l-1.892,1.872a1.207,1.207,0,0,0-.337.613,2.839,2.839,0,0,1,1.124.68l.011.011a2.84,2.84,0,0,1-.011,4.022l-6.453,6.384a2.972,2.972,0,0,1-4.115,0l-.011-.011a2.84,2.84,0,0,1,.011-4.022l3.69-3.651a7.618,7.618,0,0,1-.674-3.147q0-.363.034-.721l-5.3,5.244a6.039,6.039,0,0,0-.023,8.558l.023.023a6.146,6.146,0,0,0,8.616,0l6.453-6.384a5.983,5.983,0,0,0,1.758-3.676Z" transform="translate(0 -171.95)" fill="#979797"/><path d="M164.11,16.727a6.079,6.079,0,0,0,1.146.89l1.892-1.872a1.207,1.207,0,0,0,.337-.613,2.838,2.838,0,0,1-1.124-.68l-.011-.011a2.84,2.84,0,0,1,.011-4.022l6.453-6.384a2.972,2.972,0,0,1,4.115,0l.008.008a2.84,2.84,0,0,1-.008,4.024l-3.69,3.651a7.619,7.619,0,0,1,.674,3.146q0,.363-.034.721l5.3-5.244a6.039,6.039,0,0,0,.023-8.558l-.023-.023a6.146,6.146,0,0,0-8.616,0L164.11,8.146a6.039,6.039,0,0,0-.023,8.558l.023.023Z" transform="translate(-153.665 0)" fill="#979797"/></g></svg>