<svg xmlns="http://www.w3.org/2000/svg" width="27.304" height="27.527" viewBox="0 0 27.304 27.527"><g transform="translate(-1 -1)"><path d="M8.856,25.248l.446.223a11.66,11.66,0,0,0,6.026,1.637h0A11.889,11.889,0,0,0,23.736,6.8,11.837,11.837,0,0,0,3.5,15.278a12.2,12.2,0,0,0,1.786,6.249l.3.446-1.19,4.39Z" transform="translate(-0.64 -0.589)" fill="#fff"/><path d="M24.361,5.018A13.393,13.393,0,0,0,14.764,1,13.59,13.59,0,0,0,1.149,14.689a14.365,14.365,0,0,0,1.786,6.77L1,28.527l7.217-1.86A13.285,13.285,0,0,0,14.689,28.3h0A13.685,13.685,0,0,0,28.3,14.615,13.5,13.5,0,0,0,24.361,5.018ZM14.764,26h0a11.053,11.053,0,0,1-5.729-1.562l-.446-.223L4.274,25.328,5.39,21.088l-.3-.446a11.293,11.293,0,1,1,15.549,3.646A10.846,10.846,0,0,1,14.764,26Zm6.547-8.258-.818-.372s-1.19-.521-1.934-.893c-.074,0-.149-.074-.223-.074a1.075,1.075,0,0,0-.521.149h0s-.074.074-1.116,1.265a.409.409,0,0,1-.372.223h-.074a.564.564,0,0,1-.3-.149l-.372-.149h0a7.232,7.232,0,0,1-2.158-1.414c-.149-.149-.372-.3-.521-.446a8.31,8.31,0,0,1-1.414-1.786l-.074-.149c-.074-.074-.074-.149-.149-.3a.558.558,0,0,1,.074-.372s.3-.372.521-.6c.149-.149.223-.372.372-.521a.916.916,0,0,0,.149-.744,28.964,28.964,0,0,0-1.19-2.827.861.861,0,0,0-.521-.372H9.853c-.149,0-.3.074-.446.074l-.074.074c-.149.074-.3.223-.446.3-.149.149-.223.3-.372.446A3.794,3.794,0,0,0,7.7,11.416h0a4.413,4.413,0,0,0,.372,1.711l.074.223a12.394,12.394,0,0,0,2.753,3.794l.3.3a4.489,4.489,0,0,1,.6.6,13.294,13.294,0,0,0,5.357,2.827c.223.074.521.074.744.149h.744a2.758,2.758,0,0,0,1.116-.3c.223-.149.372-.149.521-.3l.149-.149c.149-.149.3-.223.446-.372a1.972,1.972,0,0,0,.372-.446,4.265,4.265,0,0,0,.3-1.042v-.521A.921.921,0,0,0,21.311,17.74Z" transform="translate(0 0)" fill="#6bab79"/></g></svg>