<svg xmlns="http://www.w3.org/2000/svg" width="288.51" height="211.8" viewBox="0 0 288.51 211.8"><defs><style>.a{fill:#6bab79;}.b{fill:#f38500;}</style></defs><g transform="translate(0 -68.066)"><g transform="translate(221.314 158.441)"><path class="a" d="M425.98,233.414c-9.817-4.908-28.224-4.965-29-4.965a4.226,4.226,0,0,0,0,8.452c4.75,0,18.54.732,25.223,4.073a4.226,4.226,0,0,0,3.78-7.56Z" transform="translate(-392.751 -228.449)"/></g><g transform="translate(0 68.066)"><path class="b" d="M275.613,223.577l-17.454-4.987a1.772,1.772,0,0,1-1.28-1.7v-5.826a31.763,31.763,0,0,0,4.041-3.314,31.09,31.09,0,0,0,9.516-22.492v-8.039l1.688-3.375a26.961,26.961,0,0,0,2.831-11.995V140.073a4.226,4.226,0,0,0-4.226-4.226H230.059a26.851,26.851,0,0,0-26.82,26.82v.252a22.416,22.416,0,0,0,2.354,9.973l2.164,4.329v6.9a32.976,32.976,0,0,0,13.557,26.662v6.106c0,.942,0,1.332-3.49,2.329l-8.517,2.433L184.672,212.7a4.221,4.221,0,0,0-1.152-3.236l-7.873-8.271V187.3c.832-.686,1.653-1.39,2.448-2.135a49.6,49.6,0,0,0,15.627-36.059V138.022a48.851,48.851,0,0,0,4.519-20.543V72.292a4.226,4.226,0,0,0-4.226-4.226H130.752a40.422,40.422,0,0,0-40.376,40.376v9.038a48.851,48.851,0,0,0,4.519,20.543v9.541a51.641,51.641,0,0,0,18.075,39.414V201.19l-7.873,8.271a4.221,4.221,0,0,0-1.152,3.236l-26,9.455a22.163,22.163,0,0,0-5.225,2.737l-4.083-2.042c12.155-5.291,16-12.732,16.19-13.1a4.225,4.225,0,0,0,0-3.78c-3.047-6.094-3.416-17.263-3.712-26.237-.1-2.988-.192-5.81-.371-8.323C79.3,151.134,63.89,135.847,44.895,135.847S10.488,151.134,9.048,171.406c-.179,2.514-.272,5.336-.371,8.325-.3,8.974-.666,20.142-3.712,26.235a4.225,4.225,0,0,0,0,3.78c.185.37,4.027,7.8,16.206,13.092L9.83,228.508A17.691,17.691,0,0,0,0,244.414v31.223a4.226,4.226,0,0,0,8.452,0V244.414a9.28,9.28,0,0,1,5.157-8.345l14.123-7.061,4.913,4.669a17.774,17.774,0,0,0,24.5,0l4.912-4.668,4.6,2.3a22.255,22.255,0,0,0-3.4,11.8v32.528a4.226,4.226,0,0,0,8.452,0V243.11A13.891,13.891,0,0,1,80.831,230.1l27.415-9.969,11.412,17.12a8.713,8.713,0,0,0,6.414,3.852q.438.043.872.043a8.711,8.711,0,0,0,6.174-2.562l6.963-6.963v44.023a4.226,4.226,0,1,0,8.452,0V231.616l6.963,6.963a8.707,8.707,0,0,0,6.174,2.562q.434,0,.871-.043a8.713,8.713,0,0,0,6.415-3.852l11.413-17.119,27.415,9.969a13.892,13.892,0,0,1,9.116,13.015v32.528a4.226,4.226,0,1,0,8.452,0V243.112a22.342,22.342,0,0,0-6.251-15.463l1.044-.3a23.178,23.178,0,0,0,3.933-1.42l10.79,10.79v38.918a4.226,4.226,0,1,0,8.452,0V236.721l10.715-10.715a10.055,10.055,0,0,0,1.8.714l17.455,4.987a9.37,9.37,0,0,1,6.767,8.971v34.962a4.226,4.226,0,0,0,8.452,0V240.678A17.86,17.86,0,0,0,275.613,223.577Zm-248.5-7.465c-7.905-2.845-11.871-6.637-13.563-8.708a46.585,46.585,0,0,0,2.409-10.12,31.515,31.515,0,0,0,11.154,13.762ZM51.323,227.55a9.326,9.326,0,0,1-12.855,0l-3.93-3.735a8.744,8.744,0,0,0,1.028-4.127v-4.5a31.426,31.426,0,0,0,18.66,0v4.5a8.745,8.745,0,0,0,1.028,4.129Zm-6.426-19.4a22.912,22.912,0,0,1-22.886-22.886,4.2,4.2,0,0,0-4.92-4.164c.012-.363.024-.727.037-1.088.094-2.906.185-5.651.352-8.005a31.376,31.376,0,0,1,8.544-19.7,26.259,26.259,0,0,1,37.744,0,31.376,31.376,0,0,1,8.544,19.7c.167,2.354.258,5.1.354,8,.008.25.017.5.025.754-4.6-7.084-11.7-12.305-20.875-15.253a53.04,53.04,0,0,0-16.075-2.547,4.227,4.227,0,0,0-2.925,1.291l-7.625,7.908a4.226,4.226,0,1,0,6.085,5.867l6.345-6.58c5.464.267,23.044,2.311,29.881,17.366A22.831,22.831,0,0,1,44.9,208.149Zm17.78,7.977v-5.04a31.261,31.261,0,0,0,11.158-13.777,46.526,46.526,0,0,0,2.406,10.1C74.558,209.457,70.575,213.283,62.677,216.126Zm40.67-68.563V137.078a4.227,4.227,0,0,0-.42-1.838,40.538,40.538,0,0,1-4.1-17.76v-9.037a31.96,31.96,0,0,1,31.924-31.924h59.037v40.962a40.538,40.538,0,0,1-4.1,17.76,4.227,4.227,0,0,0-.42,1.838v12.033A40.573,40.573,0,0,1,172.315,179a42.066,42.066,0,0,1-3.245,2.747c-.025.017-.048.035-.073.053a40.636,40.636,0,0,1-27.424,8.181C120.138,188.6,103.347,169.964,103.347,147.563Zm23.8,85.038a.266.266,0,0,1-.236.084.269.269,0,0,1-.215-.129l-13.144-19.716,4.23-4.444,19.939,13.629Zm17.166-16.309-22.886-15.644v-7.889a47.585,47.585,0,0,0,19.6,5.66q1.671.108,3.325.108a48.953,48.953,0,0,0,22.843-5.6v7.72Zm17.616,16.265a.269.269,0,0,1-.215.129.26.26,0,0,1-.236-.084L150.9,222.027l19.939-13.63,4.23,4.444Zm77.171-3.566-9.591-9.59a11.593,11.593,0,0,0,.261-2.51v-1.783a29.633,29.633,0,0,0,8.369,1.479c.326.01.649.015.973.015a31.393,31.393,0,0,0,9.318-1.409v1.7a10.1,10.1,0,0,0,.305,2.463Zm15.937-27.3a22.714,22.714,0,0,1-16.644,6.45c-12.23-.367-22.18-11.139-22.18-24.012v-7.9a4.222,4.222,0,0,0-.446-1.89l-2.611-5.221a13.922,13.922,0,0,1-1.462-6.193v-.252A18.389,18.389,0,0,1,230.059,144.3H266.5v17.553a18.465,18.465,0,0,1-1.939,8.215l-2.133,4.267a4.224,4.224,0,0,0-.446,1.89v9.037A22.706,22.706,0,0,1,255.033,201.688Z" transform="translate(0 -68.066)"/></g><g transform="translate(261.982 244.298)"><path class="a" d="M469.149,380.814a4.226,4.226,0,0,0-4.226,4.226v27.113a4.226,4.226,0,0,0,8.452,0V385.04A4.227,4.227,0,0,0,469.149,380.814Z" transform="translate(-464.923 -380.814)"/></g><g transform="translate(18.075 249.885)"><path class="a" d="M36.3,390.728a4.226,4.226,0,0,0-4.226,4.226V416.48a4.226,4.226,0,0,0,8.452,0V394.954A4.227,4.227,0,0,0,36.3,390.728Z" transform="translate(-32.077 -390.728)"/></g><g transform="translate(108.45 106.461)"><path class="a" d="M262.938,148.753c-15.984-15.984-49.427-12.928-63.065-10.873a8.676,8.676,0,0,0-7.413,8.643v9.736a4.226,4.226,0,0,0,8.452,0v-9.737a.28.28,0,0,1,.221-.286A133.519,133.519,0,0,1,228.59,144.9c13.179.877,22.725,4.186,28.371,9.833a4.226,4.226,0,0,0,5.976-5.976Z" transform="translate(-192.46 -136.203)"/></g><g transform="translate(90.376 253.336)"><g transform="translate(0 0)"><path class="a" d="M164.61,396.853a4.226,4.226,0,0,0-4.226,4.226v18.075a4.226,4.226,0,1,0,8.452,0V401.079A4.227,4.227,0,0,0,164.61,396.853Z" transform="translate(-160.384 -396.853)"/></g></g><g transform="translate(189.789 253.336)"><g transform="translate(0 0)"><path class="a" d="M341.032,396.853a4.226,4.226,0,0,0-4.226,4.226v18.075a4.226,4.226,0,1,0,8.452,0V401.079A4.227,4.227,0,0,0,341.032,396.853Z" transform="translate(-336.806 -396.853)"/></g></g></g></svg>