<svg xmlns="http://www.w3.org/2000/svg" width="225.841" height="214.834" viewBox="0 0 225.841 214.834"><defs><style>.a,.b{fill:none;stroke-width:6px;}.a{stroke:#f38500;}.b{stroke:#6bab79;}</style></defs><g transform="translate(3.046 -4.548)"><path class="a" d="M125.088,205.408a49.922,49.922,0,0,0-35.4,5.658A50.145,50.145,0,0,0,.106,230.3c-.022.1-.043.209-.065.314a1.96,1.96,0,0,0,3.5,1.543c10.8-14.854,29.915-18.366,50.44-14.027a49.963,49.963,0,0,1,30.088,19.5,49.973,49.973,0,0,1,35.4-5.658c20.525,4.335,36.572,15.279,40.451,33.229a1.96,1.96,0,0,0,3.829.012l.065-.307A50.2,50.2,0,0,0,125.088,205.408Z" transform="translate(0 -50.366)"/><path class="b" d="M228.559,132.277a42.031,42.031,0,0,0-30.1-2.091,42.208,42.208,0,0,0-77.118-1.259.024.024,0,0,0-.007.014,1.7,1.7,0,0,0,2.653,2.011c11.668-9.967,27.925-9.184,43.855-1.76A42.045,42.045,0,0,1,188.8,150.9a42.042,42.042,0,0,1,30.1,2.088c16.248,7.576,27.42,19.847,26.828,35.642a1.506,1.506,0,0,0,1.125,1.5,1.49,1.49,0,0,0,1.7-.783c.151-.307.3-.614.446-.922A42.26,42.26,0,0,0,228.559,132.277Z" transform="translate(-33.371 -26.693)"/><path class="a" d="M94.27,29.391a1.031,1.031,0,0,0,1.233-.357c5.258-7.511,14.783-9.494,25.111-7.584a25.1,25.1,0,0,1,15.376,9.422,25.121,25.121,0,0,1,17.741-3.3c10.328,1.908,18.506,7.165,20.742,16.061a1.015,1.015,0,0,0,1.983-.064,25.226,25.226,0,0,0-37.979-26.129A25.236,25.236,0,0,0,93.655,28.266,1.018,1.018,0,0,0,94.27,29.391Z" transform="translate(-25.788)"/><path class="b" d="M251.226,30.543A18.99,18.99,0,0,1,257.414,42.7a19.04,19.04,0,0,1,12.75,4.883c6.145,5.527,9.354,12.48,6.736,19.367a.578.578,0,0,0,.953.613c.216-.219.433-.446.642-.68a19.083,19.083,0,0,0-14.164-31.863,19.087,19.087,0,0,0-33.182-10.735.772.772,0,0,0,.88,1.226C238.389,22.744,245.32,25.232,251.226,30.543Z" transform="translate(-63.604 -2.855)"/></g></svg>