<svg xmlns="http://www.w3.org/2000/svg" width="215.844" height="216.436" viewBox="0 0 215.844 216.436"><defs><style>.a{fill:#f38500;}.b{fill:#6bab79;}</style></defs><g transform="translate(-140 -207)"><path class="a" d="M215.844,33.753A33.8,33.8,0,0,0,158.121,9.9L22.058,146.515a40.493,40.493,0,0,0-9.77,15.834l-.127.386L0,216.21,53.623,204.2l.4-.132A40.56,40.56,0,0,0,69.876,194.3L205.958,57.668a33.579,33.579,0,0,0,9.886-23.915ZM29.736,192.255l-5.686-5.689,4.106-18.059L47.84,188.2ZM194.007,45.748,61.9,178.39,37.973,154.452l90.5-90.859,13.78,13.78,11.935-11.935L140.379,51.634l12.838-12.888,13.83,13.83,11.935-11.935L165.127,26.787l4.944-4.964a16.922,16.922,0,1,1,23.937,23.925ZM88.789,199.149H215.844v16.878H71.968Zm0,0" transform="translate(140 207.001)"/><path class="b" d="M6487.016-522.039l17.588-17.772,127.625.183v17.364Z" transform="translate(-6276.398 945.475)"/></g></svg>