<svg xmlns="http://www.w3.org/2000/svg" width="234.993" height="234.993" viewBox="0 0 234.993 234.993"><defs><style>.a{fill:#f38500;}.b{fill:#6bab79;}</style></defs><g transform="translate(0)"><g transform="translate(0 0)"><path class="a" d="M220.183,59.423a51.023,51.023,0,0,0-32.11-15.093A57.592,57.592,0,0,0,85.847,23.181a48.33,48.33,0,0,0-29.877.028,4.59,4.59,0,1,0,2.857,8.723,39.1,39.1,0,0,1,27,1.021,4.588,4.588,0,0,0,5.6-1.736A48.411,48.411,0,0,1,179.757,49.5a4.59,4.59,0,0,0,4.463,3.828,42.187,42.187,0,0,1-.6,84.37h-5.085V111.168c0-5.291-3.4-12.813-19.579-18.6-11.146-3.988-25.872-6.183-41.464-6.183s-30.318,2.2-41.464,6.183c-16.182,5.789-19.579,13.311-19.579,18.6v26.527H38.625a29.445,29.445,0,0,1-9.194-57.419,4.59,4.59,0,0,0,3.1-5.091,39.35,39.35,0,0,1-.5-6.251,38.953,38.953,0,0,1,1.679-11.35,4.59,4.59,0,0,0-8.782-2.673,48.123,48.123,0,0,0-2.077,14.023c0,1.325.056,2.656.165,3.983a38.627,38.627,0,0,0,15.612,73.957H56.453v63.334c0,5.291,3.4,12.813,19.579,18.6,11.146,3.988,25.872,6.183,41.464,6.183s30.319-2.2,41.464-6.183c16.182-5.789,19.579-13.311,19.579-18.6V146.874h5.085a51.366,51.366,0,0,0,36.559-87.451ZM169.36,144.182c0,2.367-3.533,6.4-13.491,9.958-10.179,3.641-23.807,5.647-38.373,5.647S89.3,157.782,79.124,154.14c-9.958-3.563-13.491-7.591-13.491-9.958V124.837a51.085,51.085,0,0,0,10.4,4.933c11.146,3.988,25.872,6.183,41.464,6.183s30.319-2.2,41.464-6.183a51.1,51.1,0,0,0,10.4-4.933ZM65.633,157.85a51.084,51.084,0,0,0,10.4,4.933c11.146,3.988,25.872,6.183,41.464,6.183s30.319-2.2,41.464-6.183a51.1,51.1,0,0,0,10.4-4.933v19.345c0,2.367-3.533,6.4-13.491,9.958-10.179,3.641-23.807,5.647-38.373,5.647s-28.194-2.005-38.373-5.647c-9.958-3.562-13.491-7.59-13.491-9.958Zm13.491-56.64C89.3,97.568,102.93,95.563,117.5,95.563s28.193,2.005,38.373,5.647c9.958,3.562,13.491,7.59,13.491,9.958s-3.533,6.4-13.491,9.958c-10.179,3.641-23.807,5.647-38.373,5.647s-28.194-2.005-38.373-5.647c-9.958-3.563-13.491-7.591-13.491-9.958S69.166,104.772,79.124,101.21Zm76.745,118.956c-10.179,3.641-23.807,5.647-38.373,5.647s-28.194-2.005-38.373-5.647c-9.958-3.562-13.491-7.591-13.491-9.958V190.863a51.084,51.084,0,0,0,10.4,4.933c11.146,3.988,25.872,6.183,41.464,6.183s30.319-2.2,41.464-6.183a51.1,51.1,0,0,0,10.4-4.933v19.345C169.36,212.576,165.827,216.6,155.869,220.167Z" transform="translate(0 0)"/><path class="b" d="M81.45,83.038A4.591,4.591,0,1,0,78.2,81.694,4.623,4.623,0,0,0,81.45,83.038Z" transform="translate(-41.584 -39.96)"/></g></g></svg>