<svg xmlns="http://www.w3.org/2000/svg" width="294" height="220" viewBox="0 0 294 220"><defs><style>.a{fill:none;stroke:#979797;stroke-width:4px;}.b,.c,.d{fill:#979797;font-family:Lato-Regular, Lato;}.b{font-size:12px;}.c{font-size:13px;}.d{font-size:14px;}.e{fill:#e5e5e5;}</style></defs><g transform="translate(6732.24 626.706)"><g transform="translate(-6718.241 -626.706)"><g transform="translate(0 0)"><line class="a" x2="259" transform="translate(21 193)"/><line class="a" y1="185" transform="translate(21 8)"/><text class="b" transform="translate(14 198)"><tspan x="-6.96" y="0">0</tspan></text><text class="c" transform="translate(15 13)"><tspan x="-15.08" y="0">96</tspan></text></g></g><text class="d" transform="translate(-6554.241 -409.706)"><tspan x="-30.198" y="0">Date</tspan></text><text class="d" transform="translate(-6718.24 -540.706) rotate(-90)"><tspan x="-29.96" y="0">Data</tspan></text><g transform="translate(-6694.789 -561.803)"><path class="e" d="M0,2.669H21.023V-10.417H0V2.669" transform="translate(0 122.952)"/><path class="e" d="M0,25.353H21.023V-98.958H0V25.353" transform="translate(23.359 100.267)"/><path class="e" d="M0,10.141H21.023V-39.583H0V10.141" transform="translate(46.556 115.479)"/><path class="e" d="M0,13.077H21.023V-51.042H0V13.077" transform="translate(47.105 112.543)"/><path class="e" d="M0,2.135H21.023V-8.333H0V2.135" transform="translate(62.806 123.485)"/><path class="e" d="M0,13.878H21.023V-54.167H0V13.878" transform="translate(78.508 111.743)"/><path class="e" d="M0,21.35H21.023V-83.333H0V21.35" transform="translate(94.21 104.27)"/><path class="e" d="M0,5.871H21.023V-22.917H0V5.871" transform="translate(109.911 119.749)"/><path class="e" d="M0,6.939H21.023V-27.083H0V6.939" transform="translate(125.613 118.682)"/><path class="e" d="M0,11.476H21.023V-44.792H0V11.476" transform="translate(141.314 114.145)"/><path class="e" d="M0,13.878H21.023V-54.167H0V13.878" transform="translate(157.016 111.743)"/><path class="e" d="M0,0H0" transform="translate(172.718 125.62)"/><path class="e" d="M0,25.62H21.023V-100H0V25.62" transform="translate(188.419 100)"/><path class="e" d="M0,4.27H21.023V-16.667H0V4.27" transform="translate(188.968 121.35)"/><path class="e" d="M0,24.019H21.023V-93.75H0V24.019" transform="translate(212.165 101.601)"/><path class="e" d="M0,15.479H21.023v-75.9H0v75.9" transform="translate(235.524 110.141)"/></g></g></svg>