<svg xmlns="http://www.w3.org/2000/svg" width="236.505" height="217.567" viewBox="0 0 236.505 217.567"><defs><style>.a{fill:#f38500;}.b{fill:#6bab79;}</style></defs><g transform="translate(0 -20.499)"><g transform="translate(92.445 20.499)"><path class="a" d="M208.022,21.852a4.628,4.628,0,1,0,1.349,3.266A4.665,4.665,0,0,0,208.022,21.852Z" transform="translate(-200.132 -20.499)"/></g><g transform="translate(76.814 20.499)"><path class="b" d="M252.519,97.329l-3.827-19.407a40.286,40.286,0,0,0-11.119-20.808l-6.544-6.526V25.118a4.619,4.619,0,1,0-9.238,0V52.506a4.62,4.62,0,0,0,1.358,3.271l7.9,7.879a31.088,31.088,0,0,1,8.578,16.053l3.827,19.407a2.851,2.851,0,0,1-5.565,1.23l-1.977-8.065a5.7,5.7,0,0,0-11.228,1.357V131.21a2.688,2.688,0,0,1-5.353.353v-19.62a4.619,4.619,0,0,0-4.619-4.619h-.026a4.619,4.619,0,0,0-4.619,4.619V131.21c0,.252.011.5.026.749v6.154a2.689,2.689,0,0,1-5.379,0v-6.156c.015-.247.026-.5.026-.746V111.944a4.619,4.619,0,0,0-4.619-4.619H200.1a4.619,4.619,0,0,0-4.619,4.619v19.619a2.688,2.688,0,0,1-5.353-.352V124.32c.015-.247.026-.5.026-.746v-11.63a4.619,4.619,0,0,0-4.619-4.619H185.5a4.619,4.619,0,0,0-4.619,4.619v11.982a2.688,2.688,0,0,1-5.353-.352V82.958A30.984,30.984,0,0,1,184.7,60.869l5.107-5.092a4.62,4.62,0,0,0,1.358-3.271V41.591a4.619,4.619,0,1,0-9.238,0v9l-3.749,3.738a40.162,40.162,0,0,0-11.883,28.63v40.616a11.92,11.92,0,0,0,15.224,11.461,11.929,11.929,0,0,0,14.838,7.566,11.925,11.925,0,0,0,22.1,0,11.931,11.931,0,0,0,15.471-11.391V109.693a12.081,12.081,0,0,0,18.6-12.364Z" transform="translate(-166.293 -20.499)"/></g><g transform="translate(0 142.562)"><path class="a" d="M115.053,332.995A11.982,11.982,0,0,0,113,330.37a11.929,11.929,0,0,0-.864-16.626A11.929,11.929,0,0,0,101.089,294.6a11.932,11.932,0,0,0-17.6-7.7L64.851,297.659a12.081,12.081,0,0,0-20.006-9.923L29.952,300.754a40.293,40.293,0,0,0-12.461,20.033l-2.379,8.93-12.8,7.391a4.619,4.619,0,1,0,4.619,8l14.462-8.35a4.62,4.62,0,0,0,2.154-2.811l2.873-10.783a31.084,31.084,0,0,1,9.613-15.455l14.893-13.018a2.85,2.85,0,0,1,4.059.314,2.857,2.857,0,0,1-.212,3.89l-6,5.745a5.7,5.7,0,0,0,6.789,9.046L88.105,294.9a2.682,2.682,0,0,1,2.9,4.5L74.1,309.17a4.619,4.619,0,0,0-1.691,6.31l.007.011.006.012a4.619,4.619,0,0,0,6.31,1.691l16.686-9.633c.217-.125.428-.259.635-.4l5.33-3.077a2.69,2.69,0,0,1,2.69,4.658l-5.332,3.078c-.221.11-.442.225-.659.351l-16.686,9.633a4.619,4.619,0,0,0-1.691,6.31,4.726,4.726,0,0,0,.619.834,4.6,4.6,0,0,0,5.7.88l16.99-9.809a2.688,2.688,0,0,1,2.372,4.812l-5.965,3.444c-.223.111-.444.227-.661.352l-10.072,5.815A4.619,4.619,0,0,0,87,340.754a4.7,4.7,0,0,0,4.017,2.333,4.6,4.6,0,0,0,2.305-.619l10.378-5.992a2.683,2.683,0,0,1,3.355,1.139,2.693,2.693,0,0,1-.984,3.674l-14.8,8.547L70.894,361.6a30.987,30.987,0,0,1-23.713,3.1l-6.963-1.877a4.617,4.617,0,0,0-3.512.46l-14.462,8.35a4.619,4.619,0,1,0,4.619,8l12.8-7.391,5.112,1.378A40.167,40.167,0,0,0,75.513,369.6l11.666-6.735h0l8.7-5.025.79-.456,14.014-8.091A11.941,11.941,0,0,0,115.053,332.995Z" transform="translate(0 -284.749)"/></g><g transform="translate(119.613 135.895)"><g transform="translate(0 0)"><path class="a" d="M373.528,329.341l-12.8-7.391-1.363-5.116a40.162,40.162,0,0,0-18.853-24.607l-20.37-11.761-14.8-8.547a11.919,11.919,0,0,0-17.535,7.448,11.947,11.947,0,0,0-13.976,9.072,11.924,11.924,0,0,0-11.047,19.135,11.94,11.94,0,0,0,2.131,19.1l18.635,10.759a12.081,12.081,0,0,0,1.409,22.287l18.72,6.389a40.29,40.29,0,0,0,23.58.775l8.923-2.4,12.8,7.391a4.619,4.619,0,1,0,4.619-8l-14.462-8.35a4.615,4.615,0,0,0-3.512-.46l-10.774,2.9a31.082,31.082,0,0,1-18.192-.6l-18.72-6.389a2.85,2.85,0,0,1,1.717-5.434l7.973,2.32a5.7,5.7,0,0,0,4.44-10.4l-32.539-18.786a2.69,2.69,0,0,1,.649-4.927,2.665,2.665,0,0,1,1.722.114l16.992,9.81a4.6,4.6,0,0,0,5.7-.877,4.707,4.707,0,0,0,.622-.837,4.619,4.619,0,0,0-1.691-6.31l-16.686-9.633c-.218-.126-.44-.242-.663-.353l-5.328-3.076a2.69,2.69,0,1,1,2.689-4.658L278.864,301c.207.138.418.271.636.4l16.685,9.633a4.6,4.6,0,0,0,5.7-.878,4.72,4.72,0,0,0,.622-.836,4.619,4.619,0,0,0-1.691-6.31L283.9,293.241a2.683,2.683,0,0,1,2.905-4.5l5.968,3.445c.206.137.416.27.633.4l10.072,5.815a4.6,4.6,0,0,0,5.7-.877,4.78,4.78,0,0,0,.622-.836,4.619,4.619,0,0,0-1.691-6.31l-10.377-5.991a2.688,2.688,0,0,1,2.981-4.46l14.014,8.091.79.456,8.7,5.025h0l11.666,6.735a30.985,30.985,0,0,1,14.545,18.984l1.857,6.969a4.618,4.618,0,0,0,2.154,2.811l14.462,8.35a4.618,4.618,0,1,0,4.618-8Z" transform="translate(-258.947 -270.316)"/></g></g></g></svg>