<svg xmlns="http://www.w3.org/2000/svg" width="576.183" height="382.241" viewBox="0 0 576.183 382.241"><defs><style>.a{fill:#f1f2f2;}.b{fill:#eac1a4;}.c{fill:#ebb044;}.d{fill:#eacdb0;}.e{fill:#262d3a;}.f{fill:#3b455a;}.g,.m{fill:#fff;}.h{fill:#7fc5a3;}.i{fill:#91979b;}.j{fill:#445c6e;}.k{fill:#afbcc6;}.l{fill:#ccd2d9;}.m{opacity:0.08;}.n{fill:#474ebb;}.o{fill:#d34e4e;}.p{fill:#c13a3a;}.q{fill:#6d2727;}.r{fill:#211d1d;}.s{fill:#282828;}.t{fill:#b5b8c4;}.u{fill:#8b8d96;}.v{fill:#ffbc57;}.w,.z{fill:#272525;}.w,.y{opacity:0.1;}.x{fill:#4b4b4b;}</style></defs><g transform="translate(-62.438 -92.987)"><g transform="translate(62.438 412.012)"><path class="a" d="M326.7,626.083c-16.877.06-33.753.479-50.57,2.334-6.344.718-12.568,2.274-18.911,2.873-12.687,1.257-25.2,3.591-37.943,4.668-10.294.838-20.587,1.376-30.821,2.454a110.083,110.083,0,0,1-29.744-.9c-7.062-1.257-14.124-1.975-21.066-4.01a86.186,86.186,0,0,0-24.3-3.83c-11.55.06-22.742.12-33.813,4.07-3.89,1.376-8.618,3.711-11.55,6.643-6.763,6.763-7.66,23.579-.9,30.581,11.311,11.79,35.489,16.4,51.348,16.637,17.415.239,34.292-1.077,51.707-1.8,16.159-.718,32.317-1.736,48.535-1.676,33.1.06,66.25,0,99.285-2.214,31.06-2.095,62.18-1.376,93.3-1.376,31.9,0,63.617.239,95.276,4.488,13.824,1.855,27.888,2.514,41.773,3.77,12.448,1.137,24.357,0,36.746-1.077a88.156,88.156,0,0,0,30.163-8.079c7.481-3.591,20.767-14.662,23.1-23.22,6.4-23.879-90.548-23.34-105.449-23.28-16.637.06-33.454.6-50.091,0a115.359,115.359,0,0,1-20.707-3.112c-6.823-1.5-13.645-1.137-20.587-1.736-28.786-2.633-57.632-2.214-86.478-2.214C345.489,626.143,336.093,626.083,326.7,626.083Z" transform="translate(-62.438 -626.059)"/></g><g transform="translate(82.942 92.987)"><g transform="translate(150.753 113.806)"><path class="b" d="M362.544,294.85a1.3,1.3,0,0,1,.3-.239,4.305,4.305,0,0,0,1.137-3.711c-.838-.18-1.616-.419-2.454-.6a9.224,9.224,0,0,1-1.676,2.514c-.18.18-.359.359-.6.3-.239,0-.359-.18-.479-.359a13.016,13.016,0,0,1-2.454-8.977,10.11,10.11,0,0,1-2.454-.359,2.535,2.535,0,0,0-2.274,0,1.565,1.565,0,0,0-.479.18c-.479.18-1.017.359-1.5.539a1.573,1.573,0,0,0-.838.539,1.825,1.825,0,0,0-.18.958v8.917a3.138,3.138,0,0,0,.12,1.077,3.907,3.907,0,0,0,.778.958,15.461,15.461,0,0,0,4.848,2.932,2.011,2.011,0,0,1,.9.539,1.536,1.536,0,0,1,.3.718c.479,1.616.9,3.292,1.376,4.907a19.794,19.794,0,0,1,6.463-1.077,13.411,13.411,0,0,0-.778-6.7,6.128,6.128,0,0,1-.6-2.035C361.946,295.329,362.185,295.149,362.544,294.85Z" transform="translate(-348.6 -283.15)"/><path class="c" d="M357,310.876l10.234-1.676,10.473,28.607,24.717-4.189-5.386,32.916-31.419-18.792Z" transform="translate(-351.973 -293.61)"/></g><g transform="translate(277.568 233.17)"><g transform="translate(48.535 60.804)"><g transform="translate(0.18)"><path class="d" d="M641.9,584.2l.359,22.8c-.18,6.344.419,12.628.778,18.971.359,5.865-.838,11.909,1.975,17.355.9,1.676,2.753,2.873,4.129.9,1.077-1.5.6-4.129.838-5.925,2.035-13.226,5.805-26.093,7.66-39.379C659.615,585.038,654.288,585.4,641.9,584.2Z" transform="translate(-641.9 -584.2)"/></g><path class="e" d="M643.1,675.878l-1.5,3.77,7.241,6.4,6.583.239,2.154-3.471-8.917-7.72Z" transform="translate(-641.6 -620.7)"/></g><g transform="translate(13.226 59.667)"><g transform="translate(0.838)"><path class="d" d="M602.492,583.617,598.3,606.059c-1.436,10.054-4.728,19.809-6.164,29.863-.359,2.334-.18,4.847-1.137,7s-2.813,2.214-4.429.778c-2.154-1.915-1.2-5.386-1.137-8.019.239-17.595-1.137-34.95-1.436-52.6a.857.857,0,0,1,.18-.658.8.8,0,0,1,.539-.12C586.454,582.42,602.373,584.155,602.492,583.617Z" transform="translate(-584 -582.3)"/></g><path class="e" d="M584.874,677.9l-2.274,3.411,5.566,7.78,6.4,1.8,2.873-2.932-6.942-9.516Z" transform="translate(-582.6 -620.687)"/></g><path class="f" d="M632.735,557.887l-3.112-32.616-1.5-21.186-5.087-17.3-27.23-4.189-33.693,5.745-1.616,6.523,6.523,60.624,32.437,2.394-.419-37.7,5.027,23.4-.239,14.3Z" transform="translate(-560.5 -482.6)"/></g><path class="g" d="M575.063,358.572c-.06,1.077-.06,2.214-.12,3.292-.419,22.383.838,45,.958,67.567a252.6,252.6,0,0,1,34.89-2.992c2.693-.06,15.021,1.855,16.7.239,2.334-2.214-.239-1.8-.06-4.608.239-3.711-1.556-6.7-.9-11.072.778-5.147,2.334-10.234,3.232-15.381a227.482,227.482,0,0,0,3.232-31.24c.3-9.276,0-18.911-4.01-27.29-9.875-20.707-41.593-20.288-50.331,1.257C576.259,344.687,575.362,351.629,575.063,358.572Z" transform="translate(-288.697 -184.889)"/><path class="d" d="M673.243,274.461c3.89-3.95,5.925-8.5,8.079-14.243,1.616-4.309,3.052-8.618,4.488-12.987a46.2,46.2,0,0,0,2.214-8.319c.359-2.454,2.154-5.745.239-7.96a1.816,1.816,0,0,1,2.813-.3c.12.12.239.3.359.359a.683.683,0,0,0,.778-.3,6.9,6.9,0,0,0,1.077-2.334c.479-1.317,1.2-3.471,2.334-4.309a9.362,9.362,0,0,1,3.172-1.317.723.723,0,0,1,.958.359,31.565,31.565,0,0,1,2.753,4.189c-1.616,1.017-2.095,2.813-3.172,4.369-1.376,2.035-2.932,3.531-3.411,6.044-.778,3.89-1.257,7.84-2.035,11.67-1.616,7.6-3.651,15.021-5.685,22.5-1.376,4.967-2.753,9.994-5.386,14.423-2.633,4.369-5.865,6.763-10.114,9.575a7.761,7.761,0,0,1-3.172,1.5,6.148,6.148,0,0,1-4.848-1.676,9.939,9.939,0,0,1-1.5-12.747c1.436-2.035,3.651-3.471,5.685-4.907A30.444,30.444,0,0,0,673.243,274.461Z" transform="translate(-323.501 -145.065)"/><path class="h" d="M629.218,321.008l-8.618,15.74c.479,15.859.9,31.778,1.376,47.638.18,7.3.419,14.662.6,21.964.06,2.514.12,5.087.239,7.6.06,1.137-.3,3.052.359,4.01,1.436,2.035,6.583,1.376,8.8,1.556,3.531.3,7.062.539,10.353,1.8,2.214.778,4.309,2.035,6.583,2.334a2.117,2.117,0,0,0,1.5-.239,2.166,2.166,0,0,0,.6-1.616c.778-10.892.838-22.143,1.436-33.155.479-9.037,1.736-18.552.957-27.589a1.318,1.318,0,0,0-.06-.479c-.778-4.369,0-18.672,0-18.672.06-.6,2.095-2.154,2.514-2.573l6.164-6.344c4.07-4.249,11.969-9.456,8.8-16.278a7.271,7.271,0,0,0-1.616-2.214c-4.668-4.967-10.593-7.78-13.884-13.884-5.805,2.873-10.533,8.5-16.7,10.892a17.322,17.322,0,0,1-9.994.838c-1.975-.479-6.224-2.035-5.147,1.915C624.131,316.4,627.722,319.212,629.218,321.008Z" transform="translate(-307.065 -176.351)"/><path class="h" d="M586.812,330.716l8.618,15.74c-.18,0-1.077,38.541-1.2,41.115-.3,9.875-.539,19.749-.838,29.684-.06,2.753.3,5.985-.239,8.678-.778,3.77-4.728,3.052-8.079,3.351-7.421.658-15.2,1.915-22.622,1.556-2.154-.12.658-44.765.658-48.954,0-15.021-3.112-31.659,4.489-45.244,2.214-3.95,6.1-10.294,10.413-12.269,4.01-1.8,9.755-2.154,14.124-3.172l.239,2.813Z" transform="translate(-283.391 -184.623)"/><g transform="translate(296.662 95.47)"><path class="f" d="M631.927,269.332a17.307,17.307,0,0,1,2.154,7.84c.06.718.06,1.556.658,1.975.658.479.06,1.5.539.838.479-.6,2.095-2.753,2.154-3.531a27.606,27.606,0,0,0,0-5.446,8.185,8.185,0,0,0-1.5-4.429,8.646,8.646,0,0,0-2.214-1.676,11.466,11.466,0,0,0-3.711-1.676c-2.334-.419-3.71.419-1.676,2.035A15.678,15.678,0,0,1,631.927,269.332Z" transform="translate(-606.436 -256.772)"/><g transform="translate(2.694 6.825)"><path class="d" d="M605.221,300.712c0,1.137-.239,2.274.778,3.172a3.108,3.108,0,0,0,1.736.658,11.064,11.064,0,0,0,4.848-.359,4.367,4.367,0,0,0,1.8-.958,2.254,2.254,0,0,0,.658-1.8c.06-.838.18-1.676.3-2.573.239-1.855.359-3.77.419-5.626,2.753-.479,6.044-1.376,7-4.249a9.208,9.208,0,0,0,.3-2.873c0-4.01.06-8.079.06-12.089a12.031,12.031,0,0,0-.479-4.129c-.838-2.274-2.932-3.591-5.027-4.488a18.159,18.159,0,0,0-16.458,1.017,9.134,9.134,0,0,0-3.292,3.292c-1.137,2.214-1.017,4.967-.838,7.481.18,2.334.359,4.728.479,7.062.18,2.693.6,5.805,2.693,7.241,1.137.778,2.573.9,3.531,1.855,1.676,1.736.9,4.249,1.376,6.344A3.322,3.322,0,0,1,605.221,300.712Z" transform="translate(-596.907 -263.915)"/></g><path class="f" d="M624.014,296.96c-.06-.718-.359-2.932-1.5-1.556a2,2,0,0,0-.359,1.317,5.825,5.825,0,0,1-.12,1.436,2.582,2.582,0,0,1-2.514,1.5,2.1,2.1,0,0,1-1.2-.3,3.938,3.938,0,0,1-.9-.838c-.658-.778-1.317-1.5-1.975-2.274-1.137-1.317-3.351-.718-4.848-.539a9.964,9.964,0,0,0-4.907,1.915c-.12.12-.3.239-.419.359a6.073,6.073,0,0,1-1.077.778,3.3,3.3,0,0,1-3.95-1.257c-.419-.539-.838-1.317-1.5-1.376a1.44,1.44,0,0,0-1.317.778,3.14,3.14,0,0,0-.359,1.676,12.116,12.116,0,0,0,1.077,6.044c1.975,4.01,5.745,4.488,9.516,4.429,1.5-.06,2.992-.06,4.488-.12,2.753-.06,5.626-.18,7.96-1.8a10.086,10.086,0,0,0,3.77-6.284A20.823,20.823,0,0,0,624.014,296.96Zm-9.994,5.685a5.356,5.356,0,0,1-4.668.539c-.658-.18-.419-1.376.3-1.137a4.037,4.037,0,0,0,3.77-.419C614.02,301.209,614.618,302.226,614.02,302.645Z" transform="translate(-594.274 -269.557)"/><path class="f" d="M622.744,258.13a24.078,24.078,0,0,0,.6-2.992,6.077,6.077,0,0,1-2.932.239v-1.736c0-.479-6.523-.838-7.062-.838-4.967-.419-9.456-.778-13.944,1.855a13.575,13.575,0,0,0-6.882,10.054,21.032,21.032,0,0,0,3.232,13.226c0-1.137-.658-3.77-.419-4.848a10.786,10.786,0,0,1,1.017-3.052,12.728,12.728,0,0,1,4.429-4.668,25.179,25.179,0,0,1,9.635-3.232c3.112-.419,6.882-.838,9.935,0,1.5.419,1.735.778,2.573-.718a21.246,21.246,0,0,0,1.257-3.292Z" transform="translate(-592.406 -252.511)"/></g><g transform="translate(180.546)"><g transform="translate(57.874 32.783)"><path class="i" d="M508.694,152.155l1.855,15.68a4.857,4.857,0,0,1-4.488,5.326h0a5.106,5.106,0,0,1-5.626-4.369l-1.855-15.68a4.858,4.858,0,0,1,4.489-5.326h0A5.106,5.106,0,0,1,508.694,152.155Z" transform="translate(-496.477 -147.766)"/><path class="j" d="M510.463,172.943c-3.95,1.616-7.84,3.292-11.73,4.967a.912.912,0,0,0,.718,1.676c3.89-1.676,7.78-3.351,11.73-4.967A.912.912,0,0,0,510.463,172.943Z" transform="translate(-496.33 -157.841)"/><path class="j" d="M509.263,163.443c-3.95,1.616-7.84,3.292-11.73,4.967a.912.912,0,0,0,.718,1.676c3.89-1.676,7.78-3.351,11.73-4.967A.912.912,0,1,0,509.263,163.443Z" transform="translate(-495.848 -154.027)"/><path class="j" d="M507.363,155.155c-3.95,1.616-7.84,3.292-11.73,4.967a.912.912,0,0,0,.718,1.676c3.89-1.676,7.78-3.351,11.73-4.967C509.158,156.412,508.44,154.736,507.363,155.155Z" transform="translate(-495.085 -150.706)"/></g><path class="k" d="M501.482,148.851c-2.334.658-4.608,1.317-6.942,2.035-1.676.539-4.488.9-5.626,2.394-1.137,1.436-.838,4.01-.838,5.745a56.189,56.189,0,0,0,.419,7.122c.3,2.095.718,4.249,1.2,6.284.419,1.616.9,3.232,2.633,3.651,3.89,1.017,8.678-1.436,12.089-2.992,2.035-.9.838-4.249-1.257-3.292a29.181,29.181,0,0,1-8.8,2.873c-1.2.12-1.077.06-1.376-1.137-.239-.9-.419-1.736-.6-2.633a40.86,40.86,0,0,1-.658-4.728,42.049,42.049,0,0,1-.239-4.788,20.241,20.241,0,0,1,.06-2.693c.18-1.2.239-1.077,1.137-1.556a29.446,29.446,0,0,1,4.608-1.436c1.8-.539,3.591-1.077,5.386-1.556C504.893,151.545,503.636,148.253,501.482,148.851Z" transform="translate(-434.383 -115.389)"/><path class="k" d="M519.673,146.568c-1.736.239-3.411.718-5.147.958-.3,0-.539.06-.838.06-2.334.3-2.154,3.77.239,3.591.6-.06,1.257-.12,1.855-.18,1.5-.06,2.932.18,3.531,1.676a20.278,20.278,0,0,1,1.2,6.523,31.5,31.5,0,0,1-.359,6.7c-.239,1.317-.06,1.5-1.317,1.855-1.137.359-2.274.658-3.411,1.017a2.273,2.273,0,0,0,.359,4.07c3.172.479,7.182.6,8.857-2.633.838-1.676.479-3.77.419-5.566-.06-2.154-.12-4.309-.239-6.4-.12-3.052.718-7.84-1.5-10.353A3.718,3.718,0,0,0,519.673,146.568Z" transform="translate(-444.016 -114.482)"/><path class="k" d="M451.746,184.544A146.131,146.131,0,0,1,437.5,188.2c-3.232.718-6.4,1.436-9.7,1.855-3.232.359-6.523.6-9.755,1.077-2.394.359-10.294.778-10.353,4.07-.06,1.975,2.633,3.172,4.189,3.89,2.274,1.077,4.668,2.095,7.062,2.992a89.338,89.338,0,0,0,21.964,5.386,54.022,54.022,0,0,0,17.834-.419c.658-.12,1.317-.3,1.975-.479a1.855,1.855,0,0,0,.778-.359,1.282,1.282,0,0,0,.18-1.137,151.59,151.59,0,0,0-3.95-19.33,3.853,3.853,0,0,0-1.2-2.214C455.337,182.689,452.883,184.125,451.746,184.544Z" transform="translate(-402.123 -129.238)"/><path class="l" d="M516.732,128.687a1.531,1.531,0,0,1,1.975,1.376l2.035,18.193a1.641,1.641,0,0,1-1.2,1.8l-7.66,2.095,1.975,17.236h0c.06-.3,2.274-1.257,2.873-1.915a15.164,15.164,0,0,1,3.591-2.573c8.917-4.967,18.732-9.575,29.444-7.481,17.236,3.411,34.412,7.241,51.528,11.012,17.415,3.83,34.711,7.84,52.007,12.209.359.06.718.18,1.017.239,8.558,2.154,17.056,4.429,25.554,6.643,4.429,1.137,8.857,2.334,13.286,3.471,4.788,1.2,8.319,3.112,12.448-.419a25.885,25.885,0,0,0,7.78-12.628,22.887,22.887,0,0,0,0-11.55c-1.017-4.129-1.8-9.456-7-10.174-2.274-.3-4.548-.6-6.823-1.077-34.232-5.685-68.823-11.072-103-17.655-2.394-.479-4.848-.958-7.241-1.376-8.977-1.676-24.118-5.087-33.035-7.062-17.355-3.83-22.2-10.174-35.13-18.373-5.207-3.292-10.294-6.822-15.261-10.473l3.531,30.641Z" transform="translate(-441.554 -95.883)"/><path class="l" d="M434.061,94.311c-10.533,2.454-28.726,24.178-33.753,29.444-5.027,5.207,1.376,8.2,1.376,8.2,1.2-.3,2.394-.658,3.591-.958,3.232-.838,6.523-1.616,9.815-2.394l7.182-1.616c1.2-.239,2.394-.539,3.591-.778.958-.18,1.975-.12,2.992-.239,1.077-.12,2.214-.239,3.351-.3a22.2,22.2,0,0,1,6.583.658c.718.239,2.035,1.017,2.154,1.855,0,.12,4.668,47.4,4.668,47.4a.915.915,0,0,0,1.2.718l23.879-9.815s-1.5-.359-2.633-3.292a44.463,44.463,0,0,1-1.8-6.284c-.479-2.214-.838-4.429-1.2-6.7l-6.4,1.8a3.23,3.23,0,0,1-4.07-2.932l-1.2-15.919a1.694,1.694,0,0,1,1.137-1.736l7.361-2.214a326.6,326.6,0,0,1-2.334-34.172c1.017.778,2.035,1.5,3.052,2.274l-.18-1.376C456.564,93.055,444.594,91.858,434.061,94.311Z" transform="translate(-398.382 -92.987)"/><path class="g" d="M509.9,188.058c.359,2.214.718,4.488,1.2,6.7a46.86,46.86,0,0,0,1.8,6.284c1.137,2.992,2.633,3.292,2.633,3.292L513.551,187.1Z" transform="translate(-443.161 -130.777)"/><path class="g" d="M503.134,130.672l4.249-1.257-3.531-30.641c-1.017-.778-2.035-1.5-3.052-2.274A327.7,327.7,0,0,0,503.134,130.672Z" transform="translate(-439.507 -94.398)"/><g transform="translate(157.527 42.559)"><path class="c" d="M661.6,194.921c.3.06.6.12.958.18,18.493,4.07,36.985,8.319,55.358,12.987.359.12.718.18,1.077.3,9.1,2.334,18.133,4.728,27.23,7.122,4.728,1.257,9.456,2.454,14.184,3.651,5.087,1.317,8.857,3.351,13.226-.479a28.158,28.158,0,0,0,8.319-13.465,24.346,24.346,0,0,0,0-12.269c-1.077-4.369-1.915-10.054-7.481-10.832-2.454-.359-4.848-.658-7.241-1.137-32.5-5.386-66.729-10.832-99.285-16.877Z" transform="translate(-661.6 -164.1)"/><path class="g" d="M828.774,212.692a7.393,7.393,0,0,1,5.985,8.618,7.532,7.532,0,0,1-8.977,5.626,7.393,7.393,0,0,1-5.985-8.618A7.532,7.532,0,0,1,828.774,212.692Z" transform="translate(-725.061 -183.547)"/></g><path class="m" d="M606.234,173l1.975-9.4a3.384,3.384,0,0,0-2.693-3.89c-11.79-2.394-50.989-10.473-54.041-12.328-2.693-1.676-5.506-3.172-8.319-4.728-1.616-.9-7.6-5.506-9.276-5.266-3.77.539-1.017,10.174-.718,12.568q.808,7.182,1.8,14.363a2.42,2.42,0,0,0,3.292,1.855c3.232-1.2,8.618-2.813,13.585-2.095,6.4.9,39.5,8.738,50.331,11.311A3.25,3.25,0,0,0,606.234,173Z" transform="translate(-451.999 -110.814)"/><g transform="translate(251.56 71.309)"><path class="j" d="M834.749,221.512a8.044,8.044,0,0,1-9.516,5.985,7.887,7.887,0,0,1-6.344-9.216,8.044,8.044,0,0,1,9.516-5.985A7.887,7.887,0,0,1,834.749,221.512Zm-15.021-3.052a7.057,7.057,0,0,0,5.685,8.2,7.137,7.137,0,0,0,8.5-5.326,7.244,7.244,0,0,0-14.184-2.873Z" transform="translate(-818.725 -212.141)"/></g></g><g transform="translate(173.674 220.303)"><path class="n" d="M390.79,464.152,387.8,495.99l-.9,27.888,12.388,73.611,8.438.658,10.653-68.764L435.316,461.1Z" transform="translate(-386.9 -461.1)"/><g transform="translate(6.822 135.313)"><path class="f" d="M412.3,687.918l-.359,4.548-9.456,3.83-4.189-4.907,4.907-4.189Z" transform="translate(-398.3 -687.2)"/></g></g><g transform="translate(188.337 218.986)"><path class="n" d="M454.609,461.832,453.352,523l-5.925,72.235-8.379.658-10.713-68.764L411.4,458.9Z" transform="translate(-411.4 -458.9)"/><g transform="translate(27.589 135.253)"><path class="f" d="M457.5,685.618l.359,4.548,9.456,3.89,4.189-4.907L466.6,684.9Z" transform="translate(-457.5 -684.9)"/></g></g><g transform="translate(162.578 151.395)"><path class="c" d="M445.645,429.05c.12,5.326-.06,12.508-1.975,12.747a1.567,1.567,0,0,1-1.017-.3c-3.292-1.915-5.685-4.668-8.917-6.523a35.226,35.226,0,0,0-11.191-3.71,100.757,100.757,0,0,0-17.475-1.915c-4.608-.06-9.216.359-13.825.718-3.83.359-7.361,1.556-11.251,1.257a24.074,24.074,0,0,1-11.311-3.83.721.721,0,0,1-.3-.3.636.636,0,0,1,.06-.479c.838-2.394,1.376-4.728,2.873-6.7a42.733,42.733,0,0,0,4.01-7.481,119.471,119.471,0,0,0,6.583-16.218c2.633-7.541,5.626-14.9,8.139-22.442a127.292,127.292,0,0,1,5.745-15.56c1.855-3.89,5.207-9.575,9.216-11.311a10.657,10.657,0,0,1,4.309-.658c.658,0,1.257-.06,1.915,0a4.546,4.546,0,0,0-.359,3.052,3.173,3.173,0,0,0,1.975,1.736,5.069,5.069,0,0,0,1.017.239,3.53,3.53,0,0,0,.838-.12,7.99,7.99,0,0,0,1.077-.419,8.654,8.654,0,0,0,3.172-3.83,3.169,3.169,0,0,1,.359-.6c.359-.419.958-.359,1.436-.359.658,0,1.317-.06,1.975-.06a10.8,10.8,0,0,1,4.788.6c2.214,1.077,3.471,3.531,4.548,5.865a117.8,117.8,0,0,1,9.755,32.975c.9,5.985,1.736,12.029,2.394,18.074.718,6.763,1.257,13.525,1.317,20.288C445.466,424.442,445.585,426.537,445.645,429.05Z" transform="translate(-368.359 -345.959)"/></g><g transform="translate(191.108 107.731)"><g transform="translate(4.69 16.69)"><path class="b" d="M432.8,331.417a4.489,4.489,0,0,0,.18,1.8,5.883,5.883,0,0,0,3.471,3.77,2.689,2.689,0,0,0,2.693-.18,4.754,4.754,0,0,0,.838-1.077,17.772,17.772,0,0,0,1.915-11.072,19.448,19.448,0,0,0,4.608-2.454c1.077-1.436,1.2-3.89,1.616-5.626.958-3.651,1.855-7.78-.12-11.072-2.035-3.351-6.344-4.548-10.294-4.608-4.907-.12-10.413,1.317-12.987,5.566-2.274,3.83.6,9.456,1.436,13.525.419,1.975,1.017,4.249,2.873,5.087.958.419,2.154.419,3.052,1.017C433.761,327.168,432.923,329.382,432.8,331.417Z" transform="translate(-423.866 -300.889)"/></g><path class="f" d="M427.323,294.126c6.4-2.573,15.021,2.753,20.707-1.915,5.207-4.309,7.241-12.927,5.685-19.211-5.745,2.633-12.388,1.137-18.672,1.616a23.026,23.026,0,0,0-13.525,5.147c-8.259,7.182-6.044,16.577-.9,24.6,1.376-.778,1.257-4.249,2.095-5.805A8.548,8.548,0,0,1,427.323,294.126Z" transform="translate(-416.03 -273)"/><path class="f" d="M459.7,306.119a12.237,12.237,0,0,1-.419,8.618,31.328,31.328,0,0,0,5.566-8.8,6.752,6.752,0,0,0,.718-3.411c-.18-1.975-1.676-3.471-3.112-4.788a12.726,12.726,0,0,0-4.429-2.932,4.931,4.931,0,0,0-4.967.9c-2.214,2.334-.12,3.77,1.556,4.848C456.887,301.99,458.743,303.426,459.7,306.119Z" transform="translate(-430.513 -281.642)"/></g><g transform="translate(186.716 208.931)"><path class="o" d="M460.224,515.109a2.291,2.291,0,0,1,2.214-2.394l11.67-.18a2.287,2.287,0,0,1,2.274,2.334v1.676l49.433-.718,19.63-21.186a.22.22,0,0,1,.18-.06l-.18-14.184c-.06-4.548-3.112-8.259-6.823-8.2l-40.1.6.06,5.566c.06,2.095-1.317,3.83-2.992,3.83s-3.112-1.676-3.112-3.77l-.06-5.566-33.394.479.06,5.925c.06,2.095-1.257,3.83-2.932,3.95h-.06c-1.676,0-3.052-1.616-3.112-3.71l-.06-6.044-22.8.359a6.148,6.148,0,0,0-4.848,2.693l-12.927,13.525-2.394,2.514a9.108,9.108,0,0,0-1.257,5.027L409,517.5l51.229-.778Z" transform="translate(-408.692 -454.185)"/><path class="p" d="M526.14,531.986l-49.553.718.06,2.573a2.291,2.291,0,0,1-2.214,2.394l-11.67.18a2.287,2.287,0,0,1-2.274-2.334l-.06-2.573-51.229.778.6,42.311c.06,4.548,3.112,8.259,6.822,8.2l108.561-1.616a5.982,5.982,0,0,0,3.77-1.5l.9-.9L543.675,565.8a6.8,6.8,0,0,0,.9-.958l.06-.06a9.466,9.466,0,0,0,1.975-5.985l-.718-48-19.57,21.066C526.26,531.926,526.2,531.986,526.14,531.986Z" transform="translate(-408.896 -469.685)"/><path class="q" d="M637.68,509.62c-.06-.06-.12-.12-.18-.12v.778l.18-.18A.364.364,0,0,0,637.68,509.62Z" transform="translate(-500.566 -469.163)"/><path class="q" d="M408.8,548.259a.335.335,0,0,0,.3.359V547.9C408.92,547.9,408.8,548.02,408.8,548.259Z" transform="translate(-408.735 -484.582)"/><path class="q" d="M590.863,509.543l-19.63,21.186-49.433.718v.718l49.553-.718c.06,0,.12-.06.18-.06l19.57-21.126v-.778C590.982,509.424,590.923,509.483,590.863,509.543Z" transform="translate(-454.109 -469.146)"/><rect class="q" width="51.229" height="0.718" transform="matrix(1, -0.015, 0.015, 1, 0.305, 63.337)"/><path class="r" d="M488.464,454.608c-.06-2.454,1.556-4.548,3.531-4.548l26.153-.359c1.975,0,3.651,1.975,3.711,4.429l.12,6.583,6.1-.06-.12-6.583c-.12-6.7-4.548-12.029-9.934-11.969l-26.153.359c-5.386.06-9.635,5.566-9.575,12.268l.12,6.583,6.1-.12Z" transform="translate(-438.248 -442.099)"/><path class="r" d="M548.66,478.626c.06,2.095,1.436,3.77,3.112,3.77s3.052-1.736,2.992-3.83L554.7,473l-6.1.06Z" transform="translate(-464.87 -454.507)"/><path class="r" d="M485.772,483.775h.06c1.676-.06,2.992-1.8,2.932-3.95l-.06-5.925-6.1.12.06,6.044C482.72,482.159,484.1,483.834,485.772,483.775Z" transform="translate(-438.368 -454.868)"/><path class="r" d="M494.86,550.213a2.287,2.287,0,0,0,2.274,2.334l11.67-.18a2.291,2.291,0,0,0,2.214-2.394l-.06-2.573-16.159.239Z" transform="translate(-443.267 -484.381)"/><path class="r" d="M508.584,539.5l-11.67.18a2.291,2.291,0,0,0-2.214,2.394v1.676l16.159-.239v-1.676A2.325,2.325,0,0,0,508.584,539.5Z" transform="translate(-443.227 -481.209)"/><rect class="r" width="16.159" height="0.718" transform="matrix(1, -0.015, 0.015, 1, 51.529, 62.543)"/></g><g transform="translate(373.023 99.505)"><g transform="translate(32.507 41.929)"><g transform="translate(0 21.92)"><path class="d" d="M776.521,374.775a1.266,1.266,0,0,1,.419-.18c1.376-.359,2.274.239,3.651.3.6,0,1.5-1.317,2.214-.239.239.419.718,1.5,1.257,2.394a9.14,9.14,0,0,0,4.129,3.052c6.164,2.573,12.807,3.351,19.45,3.95a2.444,2.444,0,0,0,1.137-.06c.6-.239.9-.958,1.137-1.616a50.337,50.337,0,0,1,4.07-8.5,18.526,18.526,0,0,1,5.506-6.284,8.607,8.607,0,0,1,8.019-1.077,6.7,6.7,0,0,1,3.77,4.788c.958,5.147-5.386,9.336-8.558,12.448a90.463,90.463,0,0,1-9.635,8.2,3.784,3.784,0,0,1-1.376.718,5.256,5.256,0,0,1-1.676-.06,192.94,192.94,0,0,1-20.767-5.506c-1.915-.6-3.232-2.095-4.967-2.633-1.137-.359-2.214.18-3.351.12a9.969,9.969,0,0,1-3.531-.958c-1.975-.958-2.394-3.172-2.932-5.087a2.274,2.274,0,0,1-.12-1.257,3.936,3.936,0,0,1,1.257-1.736A2.91,2.91,0,0,1,776.521,374.775Z" transform="translate(-774.317 -365.943)"/></g><g transform="translate(37.394)"><path class="h" d="M847.991,367.009c-3.711-1.975-7.481-3.95-11.191-5.925.239.12,7.9-17.475,8.378-18.493,1.855-3.95,3.83-8.019,7.182-10.832,7.182-5.985,18.014-.239,16.218,9.216a51.789,51.789,0,0,1-15.62,27.709,1.242,1.242,0,0,1-.6.359,1.285,1.285,0,0,1-.9-.239C850.385,368.266,849.188,367.668,847.991,367.009Z" transform="translate(-836.8 -329.315)"/></g></g><g transform="translate(49.37)"><g transform="translate(0 108.795)"><g transform="translate(0 98.54)"><g transform="translate(10.46)"><path class="d" d="M827.529,652.979a47.965,47.965,0,0,1-5.027-.6c-1.376-15.321-2.693-31.3-2.514-46.68,4.249.359,10.892.658,15.141,1.017-2.693,8.139.958-3.651,0,4.907C834.951,613,827.769,652.979,827.529,652.979Z" transform="translate(-819.972 -605.7)"/></g><g transform="translate(0 43.642)"><path class="e" d="M814.886,678.669a2.477,2.477,0,0,0-2.334.778c-.419.359-.658.778-1.137,1.017a4.239,4.239,0,0,1-1.556.3c-3.052.18-10.114-.12-6.224,4.728,3.591,4.429,12.568,2.992,17.774,1.975a1.7,1.7,0,0,0,.958-.359,1.824,1.824,0,0,0,.479-.958c.539-2.035,1.257-4.488-1.436-5.446-1.137-.419-2.214.3-3.411-.18C817.04,680.225,815.963,678.908,814.886,678.669Z" transform="translate(-802.494 -678.622)"/></g></g><path class="f" d="M813.165,548.742c7.9-.18,15.859-.3,23.759-.479q9.605-45.783,16.937-91.924c.359-2.394.718-4.848.06-7.182-1.317-4.369-5.985-6.882-10.473-7.72-7-1.317-19.809.539-23.4,7.78-3.77,7.66-3.172,21.365-4.07,29.863A510.638,510.638,0,0,0,813.165,548.742Z" transform="translate(-806.698 -441.045)"/><g transform="translate(34.647)"><g transform="translate(20.834 98.6)"><path class="d" d="M902.86,652.36a49.521,49.521,0,0,0,5.207-.419c.778-15.141,2.992-30.941,2.394-46.142-3.89.18-11.431.419-15.261.6,2.693,8.139,3.351,16.637,4.429,25.076C899.748,632.791,902.621,652.36,902.86,652.36Z" transform="translate(-895.2 -605.8)"/><g transform="translate(5.672 43.107)"><path class="e" d="M912.352,677.872a2.293,2.293,0,0,1,2.155.838c.359.359.6.838,1.077,1.077a3.629,3.629,0,0,0,1.436.359c2.813.3,9.276.18,5.805,4.848-3.112,4.249-11.431,2.573-16.218,1.376a1.685,1.685,0,0,1-.9-.359,2.406,2.406,0,0,1-.479-.958c-.539-1.975-1.317-4.488,1.2-5.326,1.077-.359,2.035.359,3.112-.06C910.437,679.368,911.394,678.051,912.352,677.872Z" transform="translate(-904.678 -677.83)"/></g></g><path class="f" d="M901.509,548.742c-7.9-.18-15.859-.3-23.759-.479q-9.605-45.783-16.937-91.924c-.359-2.394-.718-4.848-.06-7.182,1.317-4.369,5.985-6.882,10.473-7.72,7-1.317,19.809.539,23.4,7.78,3.77,7.66,3.172,21.365,4.07,29.863A510.648,510.648,0,0,1,901.509,548.742Z" transform="translate(-860.387 -441.045)"/></g></g><g transform="translate(7.903 39.406)"><path class="o" d="M863.278,334.914a56.183,56.183,0,0,1,13.944,21.844c5.087,14.243,5.147,29.444,5.207,44.346,0,4.967.06,9.935.06,14.9,0,4.907-.419,5.925-5.745,5.266-9.815-1.2-20.049-3.232-28.966-7.6-4.249-2.095-8.2-4.728-12.628-6.344-6.463-2.394-13.106-1.317-19.45-2.873,1.616-4.907,4.07-9.4,5.147-14.543a106.039,106.039,0,0,0,2.035-15.68c.6-9.156,1.736-18.313,2.454-27.47.479-6.583-.359-11.909,6.583-16.218,3.77-2.334,10.713-6.344,16.039-5.267C853.7,326.536,859.747,331.563,863.278,334.914Z" transform="translate(-815.7 -325.099)"/></g><g transform="translate(31.466)"><g transform="translate(0 5.368)"><path class="d" d="M856.166,291.19c1.2,2.633,3.172,4.788,4.788,7.182a16.177,16.177,0,0,1,2.514,7.122c.3,1.975,1.017,3.471,3.351,3.83,4.429.658,3.172-3.052,4.189-5.685,1.137-3.052,3.591-5.446,5.326-8.2,4.967-7.84,3.531-23.4-6.763-26.751C858.261,265.1,852.516,283.231,856.166,291.19Z" transform="translate(-855.073 -268.223)"/></g><g transform="translate(11.866 8.583)"><path class="s" d="M882.082,285.747a5.924,5.924,0,0,1,3.651,1.017c.958.838.838,2.753-.419,2.932-1.137.18-2.633-1.017-3.292-.12-.419.479-.06,1.257.239,1.855a10.4,10.4,0,0,1,.958,7.3c.479.419,1.2,0,1.616-.479a22.951,22.951,0,0,0,4.668-7.66,5.175,5.175,0,0,0,1.736,1.676,5.173,5.173,0,0,1,.12-3.292c.958-3.95,1.616-8.618-1.137-11.909a10.455,10.455,0,0,0-6.044-3.172,33.125,33.125,0,0,0-6.882-.239c-.958.06-2.214.239-2.394,1.137a10.731,10.731,0,0,1,5.446,4.548C880.705,280,881.962,285.747,882.082,285.747Z" transform="translate(-874.9 -273.595)"/></g><g transform="translate(1.749)"><path class="f" d="M870.8,270.413c.06.06.18.12.239.18a11.114,11.114,0,0,0,3.052,1.975c1.676.479,3.531-.359,5.207.239,1.855.658,3.112,2.873,4.488,4.189.419.419,1.616,1.855,2.334,1.676.958-.239,1.137-2.334,1.017-3.052-.239-1.137-1.017-2.154-1.137-3.292a7.625,7.625,0,0,1,.9-3.411c.419-1.137.658-2.514-.06-3.411-.359-.479-1.017-.838-1.137-1.436a7.246,7.246,0,0,1,.06-1.137c.12-2.035-2.873-3.292-4.489-3.591-1.975-.359-3.95.479-5.925.9a12.632,12.632,0,0,1-4.967-.06,21.789,21.789,0,0,0-4.369-.9,7.091,7.091,0,0,0-5.506,3.172,14.475,14.475,0,0,0-2.334,10.114c-.12-.539,1.616-2.394,1.975-2.753a5.1,5.1,0,0,1,2.813-1.8C865.6,267.6,868.71,268.917,870.8,270.413Z" transform="translate(-857.994 -259.254)"/></g></g></g><g transform="translate(0 31.148)"><path class="t" d="M732.987,342.779l-11.371-.3A1.661,1.661,0,0,1,720,340.8l.778-27.888a1.661,1.661,0,0,1,1.676-1.616l11.371.3Z" transform="translate(-720 -311.3)"/><path class="t" d="M797.873,317.818l-25.554-.718-.718,25.674,26.273.718c15.979-12.448,32.257-1.017,32.257-1.017l2.154-2.992C823.547,322.965,797.873,317.818,797.873,317.818Z" transform="translate(-740.719 -313.629)"/><path class="u" d="M758.258,316.109c-10.234,5.147-15.68-4.309-15.68-4.309l-.359,13.585v.419l-.06,3.292v.419L741.8,343.1s5.925-9.156,15.859-3.471l2.035,1.2.3-11.191.06-3.292.3-11.191Z" transform="translate(-728.753 -311.501)"/><rect class="u" width="16.278" height="75.167" transform="translate(35.84 29.348) rotate(1.555)"/><path class="n" d="M778.307,570.263h0a11.958,11.958,0,0,1-11.61-12.268l1.915-71.157,4.07-8.738,16.218.419,3.591,8.917-1.915,71.157A11.894,11.894,0,0,1,778.307,570.263Z" transform="translate(-738.749 -378.276)"/><circle class="v" cx="4.608" cy="4.608" r="4.608" transform="translate(33.671 181.382) rotate(-61.1)"/><path class="w" d="M768.8,576.849a11.994,11.994,0,0,0,9.875,6.344c6.882.18,12.568-3.95,12.867-14.423l1.616-58.47S789.208,575.832,768.8,576.849Z" transform="translate(-739.595 -391.206)"/><path class="w" d="M779.9,360.3,796,367l.18-6.224Z" transform="translate(-744.052 -330.975)"/></g><g transform="translate(35.3 62.609)"><g transform="translate(0 21.248)"><path class="d" d="M781.627,402.2c.12-.06.3-.12.419-.18,1.376-.18,2.214.539,3.591.718.6.06,1.676-1.137,2.214.06.18.419.539,1.556,1.017,2.514a9.6,9.6,0,0,0,3.71,3.531A49.9,49.9,0,0,0,798.8,411.9a78.225,78.225,0,0,0,14.243,3.83,21.719,21.719,0,0,1,15.5-16.1,5.633,5.633,0,0,1,2.454-.18,5.361,5.361,0,0,1,1.8,1.017c5.446,4.907.6,9.875-3.172,14.064a73.584,73.584,0,0,1-7.6,7.361c-3.77,3.112-8.019,2.813-12.568,1.5A75.775,75.775,0,0,1,795.212,418a58.183,58.183,0,0,1-5.925-4.129c-1.975-1.436-2.454-.479-4.488-1.317a21.387,21.387,0,0,1-3.411-1.376c-1.855-1.2-2.035-3.471-2.334-5.386a2.96,2.96,0,0,1,0-1.257,3.289,3.289,0,0,1,1.436-1.556A3.507,3.507,0,0,1,781.627,402.2Z" transform="translate(-778.985 -399.376)"/></g><g transform="translate(37.473)"><path class="o" d="M852.073,400.1c-3.471-2.394-6.942-4.788-10.473-7.122.239.18,9.815-16.458,10.413-17.415,2.334-3.71,4.728-7.541,8.378-9.935,7.78-5.147,17.894,1.8,15.081,11.012A52.117,52.117,0,0,1,856.8,402.429a1.872,1.872,0,0,1-.6.3c-.3.06-.6-.18-.838-.3C854.287,401.591,853.15,400.873,852.073,400.1Z" transform="translate(-841.6 -363.871)"/></g></g></g><g transform="translate(249.739 60.333)"><path class="d" d="M539.315,267.411a7.717,7.717,0,0,0,1.317-8.857c-2.693-5.386-5.446-10.772-8.139-16.1-1.5-2.992-4.189-6.523-4.608-9.815-.718-5.805.6-12.628,1.137-18.433.3-2.932,0-7.062,1.257-9.755.239-.479,3.651-4.429,3.591-4.548l-.718-1.077-1.077.718-.9-.18,2.454-2.992L530.1,193.8l-4.728,1.855c-.239,3.172.3,6.523-.718,9.575-.419,1.317-1.077,2.514-1.616,3.77-.9,2.154-1.556,4.429-2.274,6.643-.718,2.154-1.8,4.189-2.454,6.344-1.436,4.788-2.873,9.575-4.309,14.3L526.508,264.9A7.786,7.786,0,0,0,539.315,267.411Z" transform="translate(-514 -193.8)"/><path class="h" d="M563.917,309.466a40.184,40.184,0,0,1-12.987-12.209c-.06-.18-.18-.359-.239-.539-.3-.718-3.83-8.379-3.95-8.319-.06.06-.18.06-.239.12l-.778.419h-.12c-1.8,0-4.788,2.154-6.463,2.873-4.429,1.975-8.857,3.95-13.226,5.925a1.679,1.679,0,0,0-.838.6,1.659,1.659,0,0,0-.18,1.2l-1.2.6a28.631,28.631,0,0,1,1.556,2.514,20.055,20.055,0,0,0,3.411,9.4c.12.18.239.3.359.479a87.209,87.209,0,0,0,3.591,10.533c4.07,9.037,11.85,16.1,15.8,25.2,3.172-.9,5.386-3.77,7.062-6.643,3.292-5.566,5.506-11.73,7.72-17.894,1.137-3.112,2.214-6.224,3.351-9.336a4.016,4.016,0,0,0,.359-1.676C566.789,311.2,565.233,310.244,563.917,309.466Z" transform="translate(-517.895 -231.785)"/></g><g transform="translate(217.823 151.898)"><g transform="translate(25.812 49.852)"><path class="b" d="M511.64,435.247a48.736,48.736,0,0,0-.18-5.147c-2.573.359-5.087.778-7.66,1.257.12.479.239.9.359,1.317.838,2.813,2.573,6.583,2.394,9.516,0,.539-1.8,5.446-1.676,5.506l1.077.718.718-1.077.9-.18-1.2,3.651,4.249,1.137,3.71-3.471c-.958-3.052-2.693-5.925-2.873-9.156C511.46,438,511.58,436.623,511.64,435.247Z" transform="translate(-503.8 -430.1)"/></g><path class="c" d="M460.688,366.25c-.718,1.2,20.348,14.363,20.348,14.363l7.541,26.033h6.882l-2.932-31.6L464.4,346.8Z" transform="translate(-460.67 -346.8)"/></g><g transform="translate(0 97.521)"><g transform="translate(35.274 56.412)"><path class="b" d="M160.045,350.2a1.317,1.317,0,0,1,.479.06c1.317.359,1.8,1.376,2.932,2.035.539.3,1.915-.359,1.975.9,0,.479-.12,1.616-.12,2.633a9.086,9.086,0,0,0,1.915,4.608,40.457,40.457,0,0,0,4.369,5.147,74.446,74.446,0,0,0,11.251,9.037,21.21,21.21,0,0,1,20.228-8.259,4.753,4.753,0,0,1,2.214.838,4.561,4.561,0,0,1,1.2,1.616c2.932,6.523-3.351,9.037-8.379,11.311a69.507,69.507,0,0,1-9.7,3.531c-4.608,1.317-8.259-.658-11.85-3.651A73.017,73.017,0,0,1,165.97,369.53a52.319,52.319,0,0,1-3.651-6.044c-1.2-2.035-2.035-1.436-3.531-2.932a17.037,17.037,0,0,1-2.514-2.573c-1.2-1.8-.419-3.89.06-5.745a2.433,2.433,0,0,1,.479-1.137,3.505,3.505,0,0,1,1.915-.838C159.207,350.26,159.626,350.2,160.045,350.2Z" transform="translate(-155.64 -350.2)"/><g transform="translate(4.345 0.989)"><path class="n" d="M199.825,385.156a73.986,73.986,0,0,1-7.481,2.095c-3.651.9-7.6,1.736-10.952.06a18.377,18.377,0,0,1-3.471-2.514c-5.147-4.488-10.114-9.156-15.021-13.944a34.936,34.936,0,0,1,6.763-8.319,4.211,4.211,0,0,1,2.633-1.376c1.5-.06,2.633,1.257,3.531,2.454,1.436,1.975,2.873,3.89,4.369,5.865a3.012,3.012,0,0,0,1.8,1.436,3.281,3.281,0,0,0,1.5-.239c9.216-3.232,16.218-7.72,24.238-13.106,3.531-2.394,7.182-4.848,11.431-5.566,8.977-1.5,15.321,8.678,9.1,15.8C221.19,376,210.418,381.685,199.825,385.156Z" transform="translate(-162.9 -351.853)"/></g></g><g transform="translate(61.821)"><g transform="translate(31.06 119.49)"><g transform="translate(12.628 133.098)"><path class="f" d="M286.226,682.369l-.18,4.369-8.8,4.07L273,686.319l4.488-4.249,8.857-4.07Z" transform="translate(-273 -678)"/></g><path class="f" d="M295.648,462.183l-.419,13.226-19.45,56.675,2.454,59.607-8.678,1.436L251.9,520.294l1.376-21.365,9.516-43.329Z" transform="translate(-251.9 -455.6)"/></g><g transform="translate(0 128.168)"><g transform="translate(5.566)"><path class="f" d="M223.543,470.1l-11.072,54.46L209.3,596.915l7.96,1.5,17.355-63.976,23.22-62.839Z" transform="translate(-209.3 -470.1)"/></g><g transform="translate(0 125.737)"><path class="f" d="M213.645,681.816l-.838,4.249-9.336,2.693L200,683.671l5.087-3.471Z" transform="translate(-200 -680.2)"/></g></g><g transform="translate(3.267 54.413)"><path class="n" d="M283.942,426.18c.12,5.087-.06,11.909-1.975,12.149a1.567,1.567,0,0,1-1.017-.3c-3.351-1.855-5.745-4.429-9.1-6.224a37.525,37.525,0,0,0-11.371-3.531,110.525,110.525,0,0,0-17.774-1.855,136.281,136.281,0,0,0-14,.718c-3.89.3-7.481,1.5-11.431,1.2a25.221,25.221,0,0,1-11.49-3.651.721.721,0,0,1-.3-.3.675.675,0,0,1,.06-.479c.838-2.274,1.436-4.488,2.932-6.4a39.858,39.858,0,0,0,4.07-7.122,113.225,113.225,0,0,0,6.643-15.44c2.693-7.182,5.685-14.184,8.259-21.425,1.8-5.027,3.411-10.114,5.865-14.842,1.915-3.71,5.266-9.156,9.336-10.772a13.337,13.337,0,0,1,4.369-.658l13.525-.359a11.069,11.069,0,0,1,4.848.6c2.214,1.017,3.531,3.351,4.608,5.566a108.7,108.7,0,0,1,9.935,31.419c.9,5.745,1.8,11.431,2.454,17.236.718,6.4,1.257,12.867,1.376,19.33C283.822,421.751,283.882,423.786,283.942,426.18Z" transform="translate(-205.459 -346.859)"/></g><g transform="translate(22.622 54.395)"><path class="g" d="M266.885,371.828a36.686,36.686,0,0,0,.539,7.66q3.322,23.161,6.643,46.261-18.133-.18-36.267-.3c.419-5.805.9-11.55,1.317-17.355a85.973,85.973,0,0,1,1.317-11.072c1.257-5.865,3.77-11.371,6.284-16.877,4.668-10.114,9.276-20.228,13.944-30.282a4.915,4.915,0,0,1,.958-1.5,3.97,3.97,0,0,1,2.035-.718c3.471-.6,7.361-1.137,10.832-.6.9,3.172-2.334,8.678-3.531,11.61C269.279,362.911,267.185,367.16,266.885,371.828Z" transform="translate(-237.8 -346.83)"/></g><g transform="translate(30.697)"><g transform="translate(9.071 28.457)"><path class="d" d="M276.175,332.4c2.514-.12,5.027-.239,7.541-.3a39.957,39.957,0,0,0-.06-5.985c0,.239,4.01-1.855,4.369-2.334,1.017-1.376,1.137-3.71,1.556-5.326.9-3.471,1.736-7.421-.12-10.533-1.915-3.232-6.044-4.309-9.815-4.429-4.728-.12-9.935,1.257-12.388,5.267-2.154,3.651.6,9.037,1.376,12.867.359,1.915.958,4.07,2.753,4.848.958.419,2.095.359,2.932.958C275.816,328.451,275.457,330.725,276.175,332.4Z" transform="translate(-266.451 -303.488)"/></g><g transform="translate(1.581 11.335)"><path class="f" d="M254.872,290.272c-.3-2.573-.539-5.207-.838-7.78a6.622,6.622,0,0,1,.12-2.873,5.224,5.224,0,0,1,3.651-2.932c1.556-.419,3.172-.419,4.788-.778,1.676-.359,3.292-1.137,5.027-1.017,3.292.12,5.805,3.172,9.037,3.711,4.488.718,8.618-1.317,11.311,3.95.479.958.658,2.095,1.077,3.052a22.411,22.411,0,0,0,2.394,3.471c3.531,5.087,2.394,12.747-1.915,17.056-2.095,2.095-2.932,3.95-5.805,4.608,1.317-2.693-.419-13.286-4.01-14.483-.958-.3-3.83.838-4.848,1.017a29.8,29.8,0,0,0-6.822,1.616,32.49,32.49,0,0,1-10.353,2.573,1.662,1.662,0,0,1-1.317-.239,1.928,1.928,0,0,1-.419-1.2C255.59,296.736,255.231,293.5,254.872,290.272Z" transform="translate(-253.936 -274.879)"/></g><path class="c" d="M264.344,282.368a83.181,83.181,0,0,1,12.807,0,82.823,82.823,0,0,1,13.047,2.693c1.855.479,3.71.958,5.506,1.436.06,0,0-4.369-.06-4.668a4.757,4.757,0,0,0-1.137-2.334c-.6-.838-.479-.9-.6-1.915a25.6,25.6,0,0,0-1.8-6.583,36.046,36.046,0,0,0-4.129-8.5c-5.805-8.079-15.5-7.78-24.058-4.01-7.66,3.351-10.353,9.635-11.012,17.475a3.863,3.863,0,0,1-.239,1.137c-.778,1.5-1.436,1.077-1.376,3.172a40.831,40.831,0,0,0,.958,4.967,18.617,18.617,0,0,1,3.531-1.556,10.983,10.983,0,0,1,2.753-.718A31.853,31.853,0,0,1,264.344,282.368Z" transform="translate(-251.294 -255.939)"/></g></g><g transform="translate(0 25.41)"><rect class="u" width="4.848" height="21.664" transform="translate(68.731 27.533) rotate(29.795)"/><path class="t" d="M196.741,344.819l-3.172,5.506-1.2,2.154-3.172,5.506,2.573,5.207,4.788-8.319,1.2-2.154,4.788-8.319Z" transform="translate(-133.842 -316.869)"/><path class="o" d="M279.613,377.418,223.657,345.4l-12.029.18-5.147,8.977-2.334,4.07L199,367.6l5.805,14.363a22.021,22.021,0,0,0,9.037,10.593l16.458,9.935a6.761,6.761,0,0,1,3.112,6.823l-6.044,34.412a9.063,9.063,0,0,0,4.369,9.4l5.207,2.992a9.012,9.012,0,0,0,13.346-6.224L255.2,422a3.036,3.036,0,0,1,4.01-2.334c3.292,1.017,8.378,1.2,12.089-5.326l4.668-8.2,2.753-4.788,1.2-2.035,1.2-2.035,2.753-4.788A11.308,11.308,0,0,0,279.613,377.418Z" transform="translate(-137.777 -317.271)"/><rect class="u" width="5.626" height="6.822" transform="translate(57.381 37.602) rotate(-150.205)"/><rect class="u" width="44.286" height="4.429" transform="translate(39.062 25.849) rotate(-150.205)"/><rect class="w" width="1.197" height="43.269" transform="translate(0.592 3.881) rotate(-60.205)"/><rect class="w" width="1.616" height="5.566" transform="translate(52.476 34.762) rotate(-60.205)"/><path class="t" d="M99.632,305.027,96.7,303.351,102.445,300l2.932,1.676Z" transform="translate(-96.7 -299.041)"/><path class="t" d="M109.392,310.587l-2.992-1.736,5.805-3.351,2.873,1.736Z" transform="translate(-100.595 -301.249)"/><path class="t" d="M119.132,316.127l-2.932-1.676,5.745-3.351,2.932,1.736Z" transform="translate(-104.53 -303.498)"/><path class="t" d="M128.832,321.727l-2.932-1.676,5.745-3.351,2.932,1.676Z" transform="translate(-108.425 -305.747)"/><path class="t" d="M138.592,327.327l-2.992-1.676,5.805-3.351,2.873,1.676Z" transform="translate(-112.32 -307.995)"/><path class="t" d="M148.332,332.887l-2.932-1.736,5.745-3.351,2.932,1.736Z" transform="translate(-116.255 -310.204)"/><path class="t" d="M158.032,338.427l-2.932-1.676,5.745-3.351,2.932,1.736Z" transform="translate(-120.15 -312.452)"/><rect class="t" width="12.269" height="14.662" transform="translate(47.117 19.523) rotate(29.795)"/><path class="u" d="M163.187,330.2l-2.095,3.71-.838,1.436-2.154,3.71,3.112,4.309,3.232-5.626.838-1.436,3.172-5.626Z" transform="translate(-121.354 -311.167)"/><path class="x" d="M257.292,488.194l3.77-21.245a9.223,9.223,0,0,0-4.488-9.575l-4.548-2.573L246.4,486.758l6.284,3.591A3.1,3.1,0,0,0,257.292,488.194Z" transform="translate(-156.81 -361.199)"/><rect class="x" width="1.795" height="18.433" transform="translate(82.507 35.417) rotate(29.795)"/><rect class="x" width="1.795" height="18.433" transform="translate(86.213 37.528) rotate(29.795)"/><path class="g" d="M306.492,405.883l-19.57-11.191a1.087,1.087,0,0,1-.419-1.5l1.5-2.573a1.087,1.087,0,0,1,1.5-.419l19.57,11.191a1.087,1.087,0,0,1,.419,1.5l-1.5,2.573A1.087,1.087,0,0,1,306.492,405.883Z" transform="translate(-172.855 -335.203)"/></g><g transform="translate(129.754 96.556)"><path class="d" d="M318.951,421.706c.18.6.06,1.376-.479,1.556a2.227,2.227,0,0,1-1.077-.12,3.172,3.172,0,0,0-3.531,1.556,4.01,4.01,0,0,0,.958,4.488,8.154,8.154,0,0,0,4.369,1.975,3.776,3.776,0,0,0,2.932-.359,3.353,3.353,0,0,0,.958-1.257c1.257-2.394,2.394-5.566.6-8.019C322.3,419.551,317.814,417.7,318.951,421.706Z" transform="translate(-313.512 -418.102)"/><path class="n" d="M333.786,421.421a4.122,4.122,0,0,0-.658-.778c-1.975-1.975-4.668-3.89-7.6-3.232a26.886,26.886,0,0,1-3.77,15.56,1.284,1.284,0,0,0-.3,1.2c.239.778,2.573,1.5,3.292,1.616a8.859,8.859,0,0,0,8.079-3.052,9.788,9.788,0,0,0,1.5-4.249C334.744,426.269,335.1,423.456,333.786,421.421Z" transform="translate(-316.678 -417.279)"/></g></g><g transform="translate(77.338 2.661)"><g transform="translate(58.274 76.524)"><path class="n" d="M345.922,274.853l-.3.06a8.337,8.337,0,0,1-10.413-5.566L323.3,230.267l16.278-4.967,11.909,39.08A8.376,8.376,0,0,1,345.922,274.853Z" transform="translate(-323.3 -225.3)"/></g><g transform="translate(3.893)"><path class="h" d="M316.078,122.07l-69.063,21.066a10.158,10.158,0,0,1-12.747-6.822l-1.376-4.608a10.158,10.158,0,0,1,6.822-12.747l69.063-21.066a10.158,10.158,0,0,1,12.747,6.822l1.376,4.608A10.205,10.205,0,0,1,316.078,122.07Z" transform="translate(-232.432 -97.432)"/><g class="y" transform="translate(1.656 11.112)"><path class="z" d="M249.324,150.232l66.789-20.348A11.234,11.234,0,0,0,323.833,116L235.2,142.991A11.159,11.159,0,0,0,249.324,150.232Z" transform="translate(-235.2 -116)"/></g></g><g transform="translate(0 36.427)"><path class="u" d="M294.136,200.432l-3.591,1.077-2.214-7.3A2.992,2.992,0,0,0,286,192.113l-50.81-8.259a6.781,6.781,0,0,1-5.147-4.548l-3.83-12.568a6.845,6.845,0,0,1,4.668-8.438l1.077,3.471a3.19,3.19,0,0,0-2.154,3.89l3.83,12.568a2.992,2.992,0,0,0,2.334,2.095l50.81,8.259a6.781,6.781,0,0,1,5.147,4.548Z" transform="translate(-225.927 -158.3)"/></g><g class="y" transform="translate(73.236 84.723)"><path class="z" d="M348.3,279.157a8.755,8.755,0,0,0,7.541,1.257,8.345,8.345,0,0,0,5.745-10.294L352.13,239C352.07,239,361.346,274.309,348.3,279.157Z" transform="translate(-348.3 -239)"/></g><g transform="translate(75.821 116.328)"><path class="v" d="M352.728,295.275a2.708,2.708,0,0,1,1.855-3.351,2.755,2.755,0,0,1,3.411,1.736,2.756,2.756,0,0,1-5.266,1.616Z" transform="translate(-352.62 -291.81)"/></g></g></g></g></svg>