<svg xmlns="http://www.w3.org/2000/svg" width="257" height="35" viewBox="0 0 257 35"><g transform="translate(-224 -65)"><g transform="translate(-553 -1412)"><rect width="8" height="8" transform="translate(934 1496)" fill="#f38500"/><path d="M19140.463,2868.088l12.859-10.774,12.2,10.774" transform="translate(-18215 -1378)" fill="none" stroke="#f38500" stroke-width="3"/><path d="M19161.191,2857.314v4.833" transform="translate(-18215 -1378)" fill="none" stroke="#6bab79" stroke-width="3"/><path d="M19143.016,2869v13.508h20.059V2869" transform="translate(-18215 -1378)" fill="none" stroke="#000" stroke-linejoin="round" stroke-width="1.5"/><path d="M19148.818,2882.508v-8.721h8.354v8.721" transform="translate(-18215 -1378)" fill="none" stroke="#000" stroke-linejoin="round" stroke-width="1.5"/><g transform="translate(935 1487)" fill="#6bab79" stroke="#000" stroke-linejoin="round" stroke-width="1.5"><rect width="6" height="6" stroke="none"/><rect x="0.75" y="0.75" width="4.5" height="4.5" fill="none"/></g><path d="M19140.736,2866.019c.375-.245,10.879-9.506,10.879-9.506" transform="translate(-18214.799 -1378.202)" fill="none" stroke="#000" stroke-width="1.5"/><path d="M19143.486,2868.493l10.141-8.827,9.818,8.6" transform="translate(-18215.471 -1377.666)" fill="none" stroke="#000" stroke-width="1.5"/><path d="M19155.191,2856.915l11.09,9.771" transform="translate(-18215.813 -1378.604)" fill="none" stroke="#000" stroke-width="1.5"/><path d="M19159.619,2860.672v-3.455h3.355v6.239" transform="translate(-18215 -1378)" fill="none" stroke="#000" stroke-linejoin="round" stroke-width="1.5"/><g transform="translate(924 1487)" fill="none" stroke="#000" stroke-width="1.5"><circle cx="2.5" cy="2.5" r="2.5" stroke="none"/><circle cx="2.5" cy="2.5" r="1.75" fill="none"/></g><g transform="translate(947 1487)" fill="none" stroke="#000" stroke-width="1.5"><circle cx="2.5" cy="2.5" r="2.5" stroke="none"/><circle cx="2.5" cy="2.5" r="1.75" fill="none"/></g><g transform="translate(935.6 1477)" fill="none" stroke="#000" stroke-width="1.5"><circle cx="2.5" cy="2.5" r="2.5" stroke="none"/><circle cx="2.5" cy="2.5" r="1.75" fill="none"/></g><path d="M19141.549,2867.376l7.105-6.173,4.256-3.7" transform="translate(-18214.918 -1377.842)" fill="none" stroke="#f38500" stroke-linecap="round" stroke-linejoin="round" stroke-width="2.3"/><path d="M19152.914,2867.191l-7.109-6.057-4.256-3.634" transform="translate(-18203.549 -1377.842)" fill="none" stroke="#f38500" stroke-linecap="round" stroke-linejoin="round" stroke-width="2.3"/><g transform="translate(939 1498)" stroke="#000" stroke-width="2"><circle cx="0.75" cy="0.75" r="0.75" stroke="none"/><circle cx="0.75" cy="0.75" r="0.25" fill="none"/></g></g><text transform="translate(224 93)" fill="#6bab79" font-size="28" font-family="Istok-Bold, Istok" font-weight="700"><tspan x="0" y="0">sehat</tspan><tspan y="0" xml:space="preserve" fill="#f38500">dirum   h</tspan><tspan y="0" fill="#000">.com</tspan></text></g></svg>