<svg xmlns="http://www.w3.org/2000/svg" width="22.333" height="70.121" viewBox="0 0 22.333 70.121"><g transform="translate(-89.283)"><path d="M108.428,16.433a8.216,8.216,0,1,0-8.217-8.216A8.225,8.225,0,0,0,108.428,16.433Zm0-12.418a4.2,4.2,0,1,1-4.2,4.2A4.207,4.207,0,0,1,108.428,4.014Z" transform="translate(-8.003)"/><path d="M103.6,68.914H97.3a8.026,8.026,0,0,0-8.017,8.018v13.51a8,8,0,0,0,3.2,6.4v21.741a2.007,2.007,0,0,0,4.014,0V95.753a2.006,2.006,0,0,0-1.071-1.775A4.006,4.006,0,0,1,93.3,90.442V76.932a4.007,4.007,0,0,1,4-4h6.3a4.007,4.007,0,0,1,4,4v13.51a4.007,4.007,0,0,1-2.133,3.537,2.006,2.006,0,0,0-1.07,1.774v22.832a2.007,2.007,0,1,0,4.014,0V96.844a8,8,0,0,0,3.2-6.4V76.932A8.026,8.026,0,0,0,103.6,68.914Z" transform="translate(0 -50.471)"/></g></svg>