<svg xmlns="http://www.w3.org/2000/svg" width="180.945" height="20.121" viewBox="0 0 180.945 20.121"><g transform="translate(-220.579 -64.619)"><g transform="translate(325.109 65)"><g transform="translate(1.01 1.598)"><rect width="6" height="5" transform="translate(5.881 11.592)" fill="#f38500"/><path d="M19140.463,2864.752l8.877-7.438,8.422,7.438" transform="translate(-19140.463 -2857.314)" fill="none" stroke="#f38500" stroke-width="3"/><path d="M19161.191,2857.314v3.336" transform="translate(-19146.883 -2857.314)" fill="none" stroke="#6bab79" stroke-width="3"/></g><g transform="translate(0 0)"><path d="M19143.016,2869v9.325h13.848V2869" transform="translate(-19140.244 -2859.335)" fill="none" stroke="#000" stroke-linejoin="round" stroke-width="1.5"/><path d="M19148.818,2879.808v-6.021h5.768v6.021" transform="translate(-19142.041 -2860.818)" fill="none" stroke="#000" stroke-linejoin="round" stroke-width="1.5"/><g transform="translate(7.891 7.189)" fill="#6bab79" stroke="#000" stroke-linejoin="round" stroke-width="1.5"><rect width="4" height="4" stroke="none"/><rect x="0.75" y="0.75" width="2.5" height="2.5" fill="none"/></g><path d="M19140.736,2863.075c.26-.169,7.51-6.562,7.51-6.562" transform="translate(-19139.398 -2855.608)" fill="none" stroke="#000" stroke-width="1.5"/><path d="M19143.486,2865.759l7-6.094,6.779,5.935" transform="translate(-19140.715 -2856.214)" fill="none" stroke="#000" stroke-width="1.5"/><path d="M19155.191,2856.915l7.656,6.745" transform="translate(-19144.574 -2856.01)" fill="none" stroke="#000" stroke-width="1.5"/><path d="M19159.619,2859.6v-2.385h2.316v4.307" transform="translate(-19145.385 -2855.687)" fill="none" stroke="#000" stroke-linejoin="round" stroke-width="1.5"/><g transform="translate(-0.109 7.189)" fill="none" stroke="#000" stroke-width="1.5"><ellipse cx="2" cy="1.5" rx="2" ry="1.5" stroke="none"/><ellipse cx="2" cy="1.5" rx="1.25" ry="0.75" fill="none"/></g><g transform="translate(15.891 7.189)" fill="none" stroke="#000" stroke-width="1.5"><circle cx="1.5" cy="1.5" r="1.5" stroke="none"/><circle cx="1.5" cy="1.5" r="0.75" fill="none"/></g><g transform="translate(8.008)" fill="none" stroke="#000" stroke-width="1.5"><circle cx="1.726" cy="1.726" r="1.726" stroke="none"/><circle cx="1.726" cy="1.726" r="0.976" fill="none"/></g></g><path d="M19141.549,2864.318l4.9-4.261,2.939-2.556" transform="translate(-19139.732 -2855.665)" fill="none" stroke="#f38500" stroke-linecap="round" stroke-linejoin="round" stroke-width="2.3"/><path d="M19149.395,2864.19l-4.906-4.182-2.939-2.508" transform="translate(-19131.885 -2855.665)" fill="none" stroke="#f38500" stroke-linecap="round" stroke-linejoin="round" stroke-width="2.3"/><g transform="translate(10.355 14.497)" stroke="#000" stroke-width="2"><circle cx="0.518" cy="0.518" r="0.518" stroke="none"/><circle cx="0.518" cy="0.518" r="0.482" fill="none"/></g></g><path d="M1.094-11.2a6.9,6.9,0,0,1,.917-3.61,3.392,3.392,0,0,1,3.173-1.534,3.987,3.987,0,0,1,1.479.245,2.444,2.444,0,0,1,1.114,1.057h.038q-.038-.378-.038-.755v-3.813q0-.566.542-.566H9.763q.542,0,.542.566v12.8a.5.5,0,0,1-.566.566H8.248q-.472,0-.472-.566v-.547h0A2.444,2.444,0,0,1,6.662-6.306a3.987,3.987,0,0,1-1.479.245A3.392,3.392,0,0,1,2.011-7.594,6.9,6.9,0,0,1,1.094-11.2Zm2.794,0a5.92,5.92,0,0,0,.4,2.4,1.683,1.683,0,0,0,1.716.892,1.489,1.489,0,0,0,1.249-.8,3.732,3.732,0,0,0,.52-2.072v-.849a3.732,3.732,0,0,0-.52-2.072,1.489,1.489,0,0,0-1.249-.8,1.683,1.683,0,0,0-1.716.892A5.92,5.92,0,0,0,3.887-11.2Zm9.551,4.955a.5.5,0,0,1-.566-.566v-8.777a.5.5,0,0,1,.566-.566h1.51a.5.5,0,0,1,.566.566v8.777a.5.5,0,0,1-.566.566Zm0-11.363a.5.5,0,0,1-.566-.566v-1.208a.5.5,0,0,1,.566-.566h1.51a.5.5,0,0,1,.566.566v1.208a.5.5,0,0,1-.566.566ZM18.645-6.249a.5.5,0,0,1-.562-.566v-8.777a.5.5,0,0,1,.566-.566H20.14a.5.5,0,0,1,.566.566v.774h0a2.646,2.646,0,0,1,.831-1.067,2.145,2.145,0,0,1,1.375-.462,2.593,2.593,0,0,1,.9.132.353.353,0,0,1,.255.453L23.8-14.64q-.085.378-.509.227a1.459,1.459,0,0,0-.475-.085A1.744,1.744,0,0,0,21.3-13.413a6.682,6.682,0,0,0-.6,3.162v3.435a.5.5,0,0,1-.562.566Zm6.837-4.115v-5.229a.5.5,0,0,1,.566-.566h1.51a.5.5,0,0,1,.566.566v4.549a7.09,7.09,0,0,0,.283,2.6A1.217,1.217,0,0,0,29.6-7.91a1.656,1.656,0,0,0,1.477-.769,6.612,6.612,0,0,0,.505-3.195v-3.719a.5.5,0,0,1,.562-.566h1.5a.5.5,0,0,1,.562.566v8.777a.5.5,0,0,1-.566.566H32.145a.5.5,0,0,1-.566-.566v-.547h0a2.333,2.333,0,0,1-1.12,1.024,4.227,4.227,0,0,1-1.608.278,3.336,3.336,0,0,1-2.407-.925A4.632,4.632,0,0,1,25.482-10.364Zm11.85,4.115a.5.5,0,0,1-.562-.566v-8.777a.5.5,0,0,1,.566-.566h1.491a.5.5,0,0,1,.566.566v.547h0A2.051,2.051,0,0,1,40.347-16a2.741,2.741,0,0,1,1.256-.349,3.437,3.437,0,0,1,1.816.4,2.3,2.3,0,0,1,.891.9h.039A4.52,4.52,0,0,1,45.861-16.1a5.177,5.177,0,0,1,1.733-.245,3.349,3.349,0,0,1,2.4.925,4.593,4.593,0,0,1,.975,3.379v5.229a.5.5,0,0,1-.566.566h-1.51a.5.5,0,0,1-.566-.566v-4.549a6.958,6.958,0,0,0-.289-2.6A1.06,1.06,0,0,0,47.01-14.5a1.582,1.582,0,0,0-1.253.774,5.976,5.976,0,0,0-.568,3.19v3.719a.5.5,0,0,1-.566.566h-1.51a.5.5,0,0,1-.566-.566v-4.549a6.92,6.92,0,0,0-.291-2.6,1.068,1.068,0,0,0-1.029-.538,1.6,1.6,0,0,0-1.261.769,5.943,5.943,0,0,0-.571,3.195v3.719a.5.5,0,0,1-.562.566Z" transform="translate(270.925 90.578)" fill="#f38500"/><path d="M-6.111-6.442V-20.8h2.387v5.518a5.052,5.052,0,0,1,1.276-.889,3.7,3.7,0,0,1,1.633-.338,3.555,3.555,0,0,1,1.44.275,2.845,2.845,0,0,1,1.049.773,3.4,3.4,0,0,1,.638,1.189,5.052,5.052,0,0,1,.217,1.522v6.311H.142v-6.311a2.118,2.118,0,0,0-.42-1.406,1.558,1.558,0,0,0-1.261-.5,2.486,2.486,0,0,0-1.16.28,4.156,4.156,0,0,0-1.024.764v7.171Z" transform="translate(354.614 90.772)" fill="#f38500"/><path d="M-35.1-6.91q-.462-.33-.255-.708l.481-.878q.255-.472.793-.113a3.828,3.828,0,0,0,1.269.529,5.946,5.946,0,0,0,1.335.17A3.521,3.521,0,0,0-30.685-8a1.3,1.3,0,0,0,.623-.33.951.951,0,0,0,.255-.717.761.761,0,0,0-.151-.478.966.966,0,0,0-.387-.3,3.138,3.138,0,0,0-.5-.169q-.349-.083-1.005-.278a11.423,11.423,0,0,1-1.26-.454,4.133,4.133,0,0,1-.977-.615,2.5,2.5,0,0,1-.7-.882,2.872,2.872,0,0,1-.222-1.194,2.661,2.661,0,0,1,.552-1.671,2.82,2.82,0,0,1,1.43-.991,7.462,7.462,0,0,1,2.19-.274,5.917,5.917,0,0,1,1.727.255,5.3,5.3,0,0,1,1.2.481q.566.359.283.764l-.576.84q-.264.378-.849.057a5.745,5.745,0,0,0-.873-.4,2.873,2.873,0,0,0-.958-.151,3.083,3.083,0,0,0-.689.076,1.236,1.236,0,0,0-.562.283.7.7,0,0,0-.231.547.74.74,0,0,0,.212.562,1.312,1.312,0,0,0,.491.3l.533.179q.529.17,1.067.326t1.095.373a3.811,3.811,0,0,1,.934.538,2.015,2.015,0,0,1,.661.887A3.389,3.389,0,0,1-27.165-9.2a2.906,2.906,0,0,1-.547,1.7,2.978,2.978,0,0,1-1.444,1.114,6.022,6.022,0,0,1-2.086.33,11.634,11.634,0,0,1-2.265-.189A4.107,4.107,0,0,1-35.1-6.91ZM-25.74-11.2a5.558,5.558,0,0,1,1.194-3.766,4.224,4.224,0,0,1,3.374-1.378,4.931,4.931,0,0,1,3.756,1.3,5.977,5.977,0,0,1,1.227,4.191q0,.566-.529.566h-6.229q.151,1.567.774,1.973a2.586,2.586,0,0,0,1.444.406,2.748,2.748,0,0,0,1.2-.208,2.041,2.041,0,0,0,.7-.567.542.542,0,0,1,.793-.132l.944.576q.557.34.16.813A3.668,3.668,0,0,1-18.284-6.4a6.492,6.492,0,0,1-2.444.34,4.777,4.777,0,0,1-3.86-1.378A5.694,5.694,0,0,1-25.74-11.2Zm2.794-.972h4.115a2.624,2.624,0,0,0-.511-1.673,1.944,1.944,0,0,0-1.627-.649,1.743,1.743,0,0,0-1.41.621A2.764,2.764,0,0,0-22.946-12.176Zm9.381,5.927a.5.5,0,0,1-.566-.566v-12.8a.5.5,0,0,1,.566-.566h1.51a.5.5,0,0,1,.566.566V-15.8q0,.378-.038.755h.038a2.317,2.317,0,0,1,1.108-1.024,4.225,4.225,0,0,1,1.619-.278,3.389,3.389,0,0,1,2.443.925,4.622,4.622,0,0,1,.966,3.379v5.229a.5.5,0,0,1-.566.566H-7.43A.5.5,0,0,1-8-6.815v-4.549a7.09,7.09,0,0,0-.283-2.6A1.247,1.247,0,0,0-9.5-14.5a1.662,1.662,0,0,0-1.491.769,6.668,6.668,0,0,0-.5,3.195v3.719a.5.5,0,0,1-.566.566ZM-3.334-8.892a2.845,2.845,0,0,1,1.8-2.737,10.139,10.139,0,0,1,4.115-.906v-.378a1.512,1.512,0,0,0-.434-1.227A1.844,1.844,0,0,0,.942-14.5a2.774,2.774,0,0,0-.967.156,3.555,3.555,0,0,0-.727.359,5.858,5.858,0,0,0-.552.411q-.434.378-.717.038l-.783-.963q-.293-.359.142-.736a3.477,3.477,0,0,1,.769-.51,6.419,6.419,0,0,1,1.166-.411,7.545,7.545,0,0,1,1.888-.193,4.49,4.49,0,0,1,3.015.906,3.332,3.332,0,0,1,1.052,2.671v5.955a.5.5,0,0,1-.57.566H3.1q-.513,0-.513-.566V-7.1h0a3.378,3.378,0,0,1-1.335.788,4.707,4.707,0,0,1-1.43.25,3.294,3.294,0,0,1-2.35-.76A2.717,2.717,0,0,1-3.334-8.892ZM-.54-8.948a1.169,1.169,0,0,0,.132.571.787.787,0,0,0,.415.354A1.689,1.689,0,0,0,.64-7.91a3.32,3.32,0,0,0,.934-.132,2.8,2.8,0,0,0,1.01-.623v-2.048a6.94,6.94,0,0,0-2.124.462,2.319,2.319,0,0,0-.769.585A1.146,1.146,0,0,0-.54-8.948Zm8-5.323q-.557,0-.557-.472v-.944q0-.472.557-.472h.642v-.33a1.54,1.54,0,0,1,.2-.774l.727-1.274a.587.587,0,0,1,.491-.359h.661a.5.5,0,0,1,.566.566v2.171h1.529q.557,0,.557.472v.944q0,.472-.557.472H10.748V-9.59a4.933,4.933,0,0,0,.137,1.383.654.654,0,0,0,.713.42,2.57,2.57,0,0,0,.661-.1,3.9,3.9,0,0,0,.576-.193q.33-.151.434.217l.283,1.076a.372.372,0,0,1-.245.472,4.385,4.385,0,0,1-.854.26,5.118,5.118,0,0,1-1.09.118,4.491,4.491,0,0,1-2.3-.557,2.438,2.438,0,0,1-.953-2.293v-5.484Z" transform="translate(256 90.578)" fill="#6bab79"/><path d="M-28.966-4.53q-.661,0-.661-.708V-6.5q0-.708.661-.708h1.435q.661,0,.661.708v1.265q0,.708-.661.708Zm4.625-4.955a5.508,5.508,0,0,1,1.208-3.775,4.694,4.694,0,0,1,3.709-1.369,5.4,5.4,0,0,1,2.275.387,3.156,3.156,0,0,1,1.3,1.133q.293.444-.094.7l-1,.661q-.425.283-.746-.217A1.994,1.994,0,0,0-18.3-12.5a2.081,2.081,0,0,0-1.123-.283,1.821,1.821,0,0,0-1.6.75,4.579,4.579,0,0,0-.529,2.544,4.579,4.579,0,0,0,.529,2.544,1.821,1.821,0,0,0,1.6.75,2.159,2.159,0,0,0,1.236-.321,4.2,4.2,0,0,0,.887-.831.486.486,0,0,1,.755-.123l.878.689q.4.311.047.831A3.884,3.884,0,0,1-16.871-4.87a5.024,5.024,0,0,1-2.553.529A4.694,4.694,0,0,1-23.134-5.71,5.508,5.508,0,0,1-24.342-9.485Zm10.25,0a5.413,5.413,0,0,1,1.241-3.775,4.738,4.738,0,0,1,3.7-1.369,4.738,4.738,0,0,1,3.7,1.369A5.413,5.413,0,0,1-4.22-9.485,5.413,5.413,0,0,1-5.461-5.71a4.738,4.738,0,0,1-3.7,1.369,4.738,4.738,0,0,1-3.7-1.369A5.413,5.413,0,0,1-14.092-9.485Zm2.794,0a4.419,4.419,0,0,0,.552,2.544,1.854,1.854,0,0,0,1.59.75,1.854,1.854,0,0,0,1.59-.75,4.419,4.419,0,0,0,.552-2.544,4.419,4.419,0,0,0-.552-2.544,1.854,1.854,0,0,0-1.59-.75,1.854,1.854,0,0,0-1.59.75A4.419,4.419,0,0,0-11.3-9.485ZM-1.619-4.53A.5.5,0,0,1-2.181-5.1v-8.777a.5.5,0,0,1,.566-.566H-.124a.5.5,0,0,1,.566.566v.547h0A2.051,2.051,0,0,1,1.4-14.28a2.741,2.741,0,0,1,1.256-.349,3.437,3.437,0,0,1,1.816.4,2.3,2.3,0,0,1,.891.9H5.4A4.52,4.52,0,0,1,6.91-14.384a5.177,5.177,0,0,1,1.733-.245,3.349,3.349,0,0,1,2.4.925,4.594,4.594,0,0,1,.975,3.379V-5.1a.5.5,0,0,1-.566.566H9.937A.5.5,0,0,1,9.371-5.1V-9.646a6.958,6.958,0,0,0-.289-2.6,1.06,1.06,0,0,0-1.023-.538,1.582,1.582,0,0,0-1.253.774,5.976,5.976,0,0,0-.568,3.19V-5.1a.5.5,0,0,1-.566.566H4.161A.5.5,0,0,1,3.6-5.1V-9.646a6.92,6.92,0,0,0-.291-2.6,1.068,1.068,0,0,0-1.029-.538,1.6,1.6,0,0,0-1.261.769A5.943,5.943,0,0,0,.443-8.815V-5.1A.5.5,0,0,1-.12-4.53Z" transform="translate(389.51 88.859)"/></g></svg>