<svg xmlns="http://www.w3.org/2000/svg" width="147.275" height="160.197" viewBox="0 0 147.275 160.197"><g transform="translate(-4 -1)"><ellipse cx="2.5" cy="3" rx="2.5" ry="3" transform="translate(55.568 36.744)" fill="#979797"/><ellipse cx="2.5" cy="3" rx="2.5" ry="3" transform="translate(40.568 36.744)" fill="#979797"/><path d="M28.335,29.335A10.346,10.346,0,0,0,38.671,19H33.5a5.168,5.168,0,1,1-10.335,0H18A10.346,10.346,0,0,0,28.335,29.335Z" transform="translate(22.173 28.509)" fill="#979797"/><path d="M147.939,79.892,122.7,62.423a13.72,13.72,0,0,0,.152-1.995,15.464,15.464,0,0,0-24.51-12.581,2.582,2.582,0,0,0,.036,4.222l5.274,3.651a2.589,2.589,0,0,1,.656,3.594,2.651,2.651,0,0,1-3.6.656l-4.653-3.222a2.585,2.585,0,0,0-4.036,1.809l-.047.341a11.069,11.069,0,0,0-.129,1.53,15.519,15.519,0,0,0,15.5,15.5,14.969,14.969,0,0,0,5.876-1.209l1.274.881L104.131,90.418,86.718,78.228A35.044,35.044,0,0,0,71.673,72.28l-8.744-1.245-1.5-5.976a19.849,19.849,0,0,0,6.648-7.217h3.1A10.346,10.346,0,0,0,81.515,47.506V32H84.1a7.751,7.751,0,1,0,0-15.5H79.365A25.9,25.9,0,0,0,55.676,1H45.341A25.867,25.867,0,0,0,19.5,26.838V47.509A10.346,10.346,0,0,0,29.838,57.844h3.1a19.826,19.826,0,0,0,6.648,7.217l-1.5,5.976L27.21,72.59a27.26,27.26,0,0,0-11.172,4.268A26.977,26.977,0,0,0,4,99.35v23.089a12.934,12.934,0,0,0,12.919,12.919H19.5V161.2H81.515V105.745l16.9,7.506a16.457,16.457,0,0,0,6.754,1.437,16.626,16.626,0,0,0,13.666-7.16l13.539-19.554,6.744,4.669a7.754,7.754,0,0,0,8.826-12.751ZM46.576,81.377l-6.4,6.4v-11.2Zm3.933,3.374,6.682,6.682H43.827Zm10.335-8.175v11.2l-6.4-6.4Zm10.335-23.9H70.159a29.178,29.178,0,0,0,1.021-7.751V42.341a5.168,5.168,0,1,1,0,10.335ZM76.347,38.61a10.229,10.229,0,0,0-5.168-1.437V32.006h5.168ZM84.1,21.671a2.584,2.584,0,0,1,0,5.168H50.951a7.766,7.766,0,0,1,7.31-5.168ZM45.341,6.168H55.676A20.725,20.725,0,0,1,73.585,16.5H58.26A12.939,12.939,0,0,0,45.6,26.838H24.671A20.7,20.7,0,0,1,45.341,6.168Zm-15.5,25.838v5.168a10.229,10.229,0,0,0-5.168,1.437v-6.6Zm0,20.671a5.168,5.168,0,1,1,0-10.335v2.584a29.177,29.177,0,0,0,1.021,7.751Zm5.168-7.751V32.006H66.012V44.925c0,10.986-6.085,18.087-15.5,18.087S35.006,55.911,35.006,44.925Zm15.5,23.254a21.075,21.075,0,0,0,6.157-.9l1.256,5.033-7.413,5.558L43.1,72.311l1.256-5.033a21.075,21.075,0,0,0,6.157.9ZM27.944,77.706l7.062-1.01V96.6H66.012V76.7l4.93.705a29.612,29.612,0,0,1,5.405,1.354v61.771H71.179V101.769H29.838v12.919H24.671V78.468A21.64,21.64,0,0,1,27.944,77.706Zm7.062,67.988V135.359H45.341a10.335,10.335,0,1,0,0-20.671H35.006v-7.751H66.012v38.757Zm10.335-25.838a5.168,5.168,0,0,1,0,10.335H40.173V119.856ZM9.168,122.439V99.35a21.82,21.82,0,0,1,9.738-18.2c.191-.129.4-.23.6-.351v39.052h15.5v10.335H16.919A7.761,7.761,0,0,1,9.168,122.439Zm20.671,12.919v5.168H24.671v-5.168Zm-5.168,10.335h5.168v5.168H47.925v5.168H24.671Zm28.422,10.335v-5.168H71.179v-5.168h5.168v10.335Zm61.49-51.444a11.449,11.449,0,0,1-14.071,3.945l-19-8.441V81.083c.762.437,1.524.876,2.243,1.38L105.4,97.614l7.392-10.56,9.312,6.658Zm10.467-15.12-9.291-6.643,2.992-4.276,9.369,6.485Zm20.6-1.731a2.651,2.651,0,0,1-3.6.656l-27.12-18.774a2.587,2.587,0,0,0-2.705-.147,10.1,10.1,0,0,1-4.878,1.294,10.36,10.36,0,0,1-9.63-6.576l.049.034a7.954,7.954,0,0,0,10.785-1.961A7.763,7.763,0,0,0,106.6,51.472L105,50.369a10.089,10.089,0,0,1,2.351-.276,10.346,10.346,0,0,1,10.335,10.335,10.094,10.094,0,0,1-.357,2.519,2.585,2.585,0,0,0,1.034,2.76L145,84.142a2.589,2.589,0,0,1,.656,3.592Z" transform="translate(0 0)" fill="#979797"/></g></svg>