<svg xmlns="http://www.w3.org/2000/svg" width="130" height="60" viewBox="0 0 130 60"><defs><style>.a,.d{fill:none;}.a{stroke:#975265;}.b{fill:#975265;}.c{stroke:none;}</style></defs><g transform="translate(-1506 -1348)"><g class="a" transform="translate(1506 1348)"><rect class="c" width="130" height="60"/><rect class="d" x="0.5" y="0.5" width="129" height="59"/></g><line class="a" x2="116" transform="translate(1511.5 1355.5)"/><line class="a" x2="116" transform="translate(1511.5 1369.5)"/><line class="a" x2="116" transform="translate(1511.5 1385.5)"/><line class="a" x2="116" transform="translate(1511.5 1400.5)"/><line class="a" y1="14" x2="116" transform="translate(1511.5 1355.5)"/><line class="a" y1="16" x2="116" transform="translate(1511.5 1369.5)"/><line class="a" y1="15" x2="116" transform="translate(1511.5 1385.5)"/><g transform="translate(1622.997 1398)"><g transform="translate(0.003 0)"><path class="b" d="M5.634,2.667.35.025A.24.24,0,0,0,.04.369l1.6,2.513L.04,5.395a.24.24,0,0,0,.31.344L5.634,3.1a.24.24,0,0,0,0-.43Z" transform="translate(-0.003 0)"/></g></g><g transform="translate(1509.997 1353)"><g transform="translate(0.003 0)"><path class="b" d="M5.634,2.667.35.025A.24.24,0,0,0,.04.369l1.6,2.513L.04,5.395a.24.24,0,0,0,.31.344L5.634,3.1a.24.24,0,0,0,0-.43Z" transform="translate(-0.003 0)"/></g></g></g></svg>