<svg xmlns="http://www.w3.org/2000/svg" width="52.356" height="21.5" viewBox="0 0 52.356 21.5"><defs><style>.a{fill:#975265;}</style></defs><g transform="translate(-5 86)"><g transform="translate(5 -86)"><path class="a" d="M50.72,134.719H49.084v-1.344a1.512,1.512,0,0,0-1.636-1.344H45.812v-1.344A3.023,3.023,0,0,0,42.54,128H3.272A3.023,3.023,0,0,0,0,130.688v16.125A3.023,3.023,0,0,0,3.272,149.5H42.54a3.023,3.023,0,0,0,3.272-2.687v-1.344h1.636a1.512,1.512,0,0,0,1.636-1.344v-1.344H50.72a1.512,1.512,0,0,0,1.636-1.344v-5.375A1.512,1.512,0,0,0,50.72,134.719Zm-8.181-1.344v13.438H19.634V130.688H42.54Z" transform="translate(0 -128)"/></g></g></svg>