<svg xmlns="http://www.w3.org/2000/svg" width="71.587" height="85.06" viewBox="0 0 71.587 85.06"><defs><style>.a{fill:#eb5600;stroke:#eb5600;}</style></defs><g transform="translate(-40.776 0.525)"><g transform="translate(41.423 0)"><g transform="translate(0 0)"><path class="a" d="M108.451,15.758a14.519,14.519,0,0,0-4.7-5.12c.481-.227.967-.473,1.458-.741a1.231,1.231,0,0,0,.073-2.119,19.808,19.808,0,0,0-6.662-2.495A11.969,11.969,0,0,0,87.287,8.9a21.092,21.092,0,0,0-8.636-7.064A24.073,24.073,0,0,0,62.794.9a18.882,18.882,0,0,0-13.661,13,24.639,24.639,0,0,0-.473,11.632,4.691,4.691,0,0,0-1.7-.066,1.231,1.231,0,1,0,.361,2.436,1.981,1.981,0,0,1,2.22,1.306,52.111,52.111,0,0,0,8.6,16.183,9.7,9.7,0,0,0-4.387-.223,6.65,6.65,0,0,0-5.06,4.482,9.045,9.045,0,0,0-.389,4.224A7.481,7.481,0,0,0,42.678,58.1c-2.817,6.029-.028,14.961.092,15.338a1.231,1.231,0,0,0,1.639.766c.366-.15,9.007-3.74,11.825-9.77a7.481,7.481,0,0,0-5.44-10.528,6.978,6.978,0,0,1,.222-3.423,4.167,4.167,0,0,1,3.227-2.9c2.632-.529,6.178.875,8.436,3.339A56.419,56.419,0,0,1,74.257,72.206a52.357,52.357,0,0,1,2.091,10.665,1.231,1.231,0,0,0,1.228,1.164l.068,0a1.231,1.231,0,0,0,1.162-1.3,53.607,53.607,0,0,0-2.166-11.155A61.286,61.286,0,0,0,69.4,55.712c-.011-.028-.022-.056-.036-.083-.228-.462-.875-2.045.39-2.983a1.231,1.231,0,0,0-1.467-1.978,4.305,4.305,0,0,0-1.325,1.582q-1.148-1.5-2.451-2.972c-6.051-6.8-10.187-13.456-12.292-19.775a27.28,27.28,0,0,1-1.476-10.986,3.066,3.066,0,0,1,3.1-1.7,5.083,5.083,0,0,1,2.311.956,6.319,6.319,0,0,0-1.1,1.542,6.255,6.255,0,0,0-.365,4.805c1.708,5.211,8.388,8.983,8.671,9.141a1.231,1.231,0,0,0,1.719-.564c.135-.3,3.284-7.29,1.576-12.5a6.3,6.3,0,0,0-7.945-4.021c-.138.045-.273.1-.407.151a7.773,7.773,0,0,0-4.189-1.956,5.418,5.418,0,0,0-2.664.346c.01-.032.017-.065.027-.1A16.468,16.468,0,0,1,63.406,3.287q1.024-.263,2.026-.443h0a1.25,1.25,0,0,1,.984.261,1.488,1.488,0,0,1,.412,1.107,1.231,1.231,0,0,0,1.231,1.215h.016a1.231,1.231,0,0,0,1.215-1.247,4.3,4.3,0,0,0-.366-1.719,19.6,19.6,0,0,1,8.725,1.622A18.509,18.509,0,0,1,83.7,8.395a10.97,10.97,0,0,0-6.021,8.37,15.685,15.685,0,0,0,.227,5.941,1.231,1.231,0,0,0,1.779.763c.384-.209.8-.409,1.233-.621l.361-.176a14.425,14.425,0,0,0,1.766,6.939c3.468,6.359,13.878,13,14.32,13.279a1.231,1.231,0,0,0,1.7-.381,1.239,1.239,0,0,0,.115-.232h0c.24-.65.464-1.295.68-1.936,3.614,1.762,5.786,2.595,5.887,2.633a1.231,1.231,0,0,0,1.642-.9c.022-.105.5-2.382.974-6.373q.982.248,2,.474h0a1.229,1.229,0,0,0,.257.029h.01a1.231,1.231,0,0,0,1.231-1.221C111.863,34.464,111.918,22.117,108.451,15.758Zm-57.2,40.82c.113.043.225.089.336.141A5.019,5.019,0,0,1,54,63.391c-1.823,3.9-6.87,6.766-9.252,7.943-.625-2.582-1.665-8.293.157-12.193A5.018,5.018,0,0,1,48.7,56.305c.367,2.081.605,4.082-.733,6.386A1.231,1.231,0,1,0,50.1,63.928,10.365,10.365,0,0,0,51.246,56.578Zm6.016-36.15a3.847,3.847,0,0,1,.66-.931,11.516,11.516,0,0,1,1.908,3.971,1.231,1.231,0,0,0,2.375-.651,14.329,14.329,0,0,0-2.066-4.451,3.818,3.818,0,0,1,4.187,2.6c1.019,3.107-.2,7.3-.955,9.4-1.855-1.243-5.313-3.9-6.332-7.006A3.809,3.809,0,0,1,57.262,20.428ZM98.138,7.7a16.8,16.8,0,0,1,3.707,1.095,21.068,21.068,0,0,1-12.4,1.411A9.526,9.526,0,0,1,98.138,7.7ZM81.723,19.143c-.048.189-.089.378-.129.567a16.692,16.692,0,0,1-1.566.834c-.279-2.589-.084-7.768,5.278-10.184q.49.688.927,1.425A14.426,14.426,0,0,0,81.723,19.143Zm23.528,20.964c-1.039-.444-2.629-1.153-4.638-2.14q.656-2.223,1.1-4.344,2.023.774,4.249,1.428C105.705,37.274,105.44,38.994,105.251,40.107Zm-5.5-9.984a1.231,1.231,0,1,0-1.04,2.232q.339.158.686.312a56.516,56.516,0,0,1-2,7.283c-2.864-1.963-9.7-6.957-12.185-11.518a12.01,12.01,0,0,1-.075-11.357c.193,4.268,3.177,8.719,8.191,12.216a1.231,1.231,0,1,0,1.409-2.019c-4.387-3.06-6.99-6.823-7.141-10.324a5.18,5.18,0,0,1,1.632-4.262,21.342,21.342,0,0,0,4.058.381,23.783,23.783,0,0,0,7.556-1.256,11.865,11.865,0,0,1,5.449,5.125c2.485,4.557,2.984,13.012,3.084,16.483A52.6,52.6,0,0,1,99.75,30.123Z" transform="translate(-41.423 0)"/></g></g><g transform="translate(74.372 40.116)"><g transform="translate(0)"><path class="a" d="M262.248,261.927c-.08-.338-2.024-8.349-6.8-12.944-2.57-2.474-5.886-3.235-8.183-2.062a28.863,28.863,0,0,0-3.236-2.33,1.231,1.231,0,1,0-1.259,2.116,26.671,26.671,0,0,1,2.683,1.919,5.347,5.347,0,0,0-.525,3.806,9.133,9.133,0,0,0,2.687,4.688c4.773,4.6,12.852,6.233,13.194,6.3a1.231,1.231,0,0,0,1.436-1.492Zm-12.922-6.582a6.753,6.753,0,0,1-1.979-3.394,3.448,3.448,0,0,1,.039-1.635,22.48,22.48,0,0,1,2.694,3.068,1.231,1.231,0,0,0,2-1.436,24.568,24.568,0,0,0-2.663-3.093c.068,0,.135-.008.2-.008a6.329,6.329,0,0,1,4.122,1.908c2.89,2.782,4.668,7.179,5.514,9.729C256.677,259.736,252.216,258.127,249.326,255.345Z" transform="translate(-242.171 -244.417)"/></g></g></g></svg>