<svg xmlns="http://www.w3.org/2000/svg" width="50.549" height="49.744" viewBox="0 0 50.549 49.744"><defs><style>.a{fill:#af625d;stroke:#af625d;}</style></defs><g transform="translate(0.51 -3.558)"><path class="a" d="M71.519,26.369a4.843,4.843,0,0,0-1.709-3.379A4.429,4.429,0,0,0,66.5,21.964a4.739,4.739,0,0,0-3.784,2.772l-1.485.131-1.466-.411a.368.368,0,0,1-.246-.241,13.76,13.76,0,0,0-1.809-3.561l.519-1.4,1.638-1.771a3.33,3.33,0,0,0,2.419-1.158,3.384,3.384,0,0,0-.107-4.52,3.327,3.327,0,0,0-2.461-1.043,3.374,3.374,0,0,0-2.441,1.079,3.34,3.34,0,0,0-.89,2.423l-1.638,1.771-1.372.637A13.766,13.766,0,0,0,46.63,14.8l-.9-1.431L45.416,11.8a4.267,4.267,0,0,0,1.513-4.209,4.707,4.707,0,0,0-8.437-1.474A4.2,4.2,0,0,0,37.87,9.34a4.438,4.438,0,0,0,2.867,3.227l.35,1.737L40.809,16a13.777,13.777,0,0,0-3.481,2.238L36.3,18.053l-1.162-.877A3.361,3.361,0,1,0,32.471,21.1l.974.735.437.894a.145.145,0,0,1,0,.125A13.661,13.661,0,0,0,32.628,28.6c0,.371.015.748.046,1.12a.154.154,0,0,1-.061.141l-1.645,1.172-1.877.591a4.4,4.4,0,0,0-4.08-.7l-.083.03-.023.009a.744.744,0,0,0,.5,1.4l.035-.013.035-.013a2.916,2.916,0,0,1,2.93.657.744.744,0,0,0,.736.17l2.383-.75a.744.744,0,0,0,.208-.1l1.741-1.24a1.65,1.65,0,0,0,.68-1.473c-.027-.333-.041-.669-.041-1a12.183,12.183,0,0,1,1.12-5.127,1.628,1.628,0,0,0-.016-1.4L34.7,21.023a.743.743,0,0,0-.22-.267l-1.4-1.056a.744.744,0,0,0-.675-.115,1.878,1.878,0,0,1-1.7-.287,1.874,1.874,0,0,1-.292-2.718,1.893,1.893,0,0,1,2.461-.336,1.87,1.87,0,0,1,.826,1.4.744.744,0,0,0,.293.532l1.551,1.17a.743.743,0,0,0,.317.138l1.563.278a.743.743,0,0,0,.636-.187,12.307,12.307,0,0,1,3.7-2.369.744.744,0,0,0,.451-.567l.366-2.229a.745.745,0,0,0,0-.267l-.463-2.3a.744.744,0,0,0-.544-.573,3,3,0,0,1-2.24-2.239,2.725,2.725,0,0,1,.407-2.092,3.221,3.221,0,0,1,5.743.961,2.819,2.819,0,0,1-1.285,2.955.744.744,0,0,0-.325.771L44.3,13.8a.745.745,0,0,0,.1.248l1.074,1.714a1.122,1.122,0,0,0,.957.528h0a12.275,12.275,0,0,1,6.345,1.764,1.121,1.121,0,0,0,1.052.059l1.682-.78a.744.744,0,0,0,.233-.17l1.964-2.124a.744.744,0,0,0,.189-.619A1.873,1.873,0,0,1,61.1,12.838a1.885,1.885,0,0,1,.058,2.517A1.861,1.861,0,0,1,59.6,16a.743.743,0,0,0-.6.237l-1.964,2.124a.742.742,0,0,0-.151.246l-.638,1.716a1.12,1.12,0,0,0,.146,1.052,12.282,12.282,0,0,1,1.715,3.318,1.854,1.854,0,0,0,1.255,1.2l1.6.448a.744.744,0,0,0,.266.025l2.074-.183a.744.744,0,0,0,.637-.5,3.279,3.279,0,0,1,2.711-2.237,2.954,2.954,0,0,1,2.2.688,3.367,3.367,0,0,1,1.181,2.352,3.624,3.624,0,0,1-.325,1.8.744.744,0,0,0,1.349.628,5.121,5.121,0,0,0,.459-2.546Z" transform="translate(-21.996 0)"/><path class="a" d="M45.78,246.948a3.016,3.016,0,0,1-.64.136,3.047,3.047,0,0,1-3.066-1.816.744.744,0,0,0-.739-.426l-1.947.172a.743.743,0,0,0-.258.071l-1.47.709a1.853,1.853,0,0,0-1.027,1.419,12.228,12.228,0,0,1-.7,2.7,1.848,1.848,0,0,0,.108,1.571l.523.936a.743.743,0,0,0,.235.255l1.457.977a.744.744,0,0,0,.68.077,1.878,1.878,0,0,1,1.715.193,1.874,1.874,0,0,1,.442,2.7,1.892,1.892,0,0,1-2.438.471,1.87,1.87,0,0,1-.9-1.355.744.744,0,0,0-.322-.514l-1.613-1.082a.743.743,0,0,0-.325-.121l-1.015-.123a1.911,1.911,0,0,0-1.553.52,12.38,12.38,0,0,1-2.714,1.961,1.912,1.912,0,0,0-1,1.559l-.129,2.057a.743.743,0,0,0,.021.228l.638,2.533a.744.744,0,0,0,.521.535,2.517,2.517,0,0,1,1.76,1.8,2.509,2.509,0,0,1-1.889,3.062,2.508,2.508,0,0,1-2.3-4.241.744.744,0,0,0,.2-.712l-.642-2.549a.743.743,0,0,0-.09-.211l-.99-1.593a2.188,2.188,0,0,0-1.878-1.031h0a12.355,12.355,0,0,1-2.393-.234,2.184,2.184,0,0,0-2.021.638L18.712,259.6a.746.746,0,0,0-.13.189l-1.466,3.041a.744.744,0,0,0,0,.651,1.873,1.873,0,0,1-2.6,2.459A1.9,1.9,0,0,1,13.7,263.6a1.858,1.858,0,0,1,1.313-1.118.744.744,0,0,0,.5-.4l1.475-3.06a.741.741,0,0,0,.066-.219l.289-2.054a1.844,1.844,0,0,0-.657-1.682,12.377,12.377,0,0,1-2.8-3.206,1.846,1.846,0,0,0-1.553-.879l-2.051-.02a.736.736,0,0,0-.23.034l-2.245.706a.744.744,0,0,0-.516.626,2.917,2.917,0,0,1-5.672.583,2.878,2.878,0,0,1,.019-1.845.744.744,0,1,0-1.407-.484,4.355,4.355,0,0,0-.026,2.791,4.424,4.424,0,0,0,4.2,3.035,4.363,4.363,0,0,0,1.311-.2,4.411,4.411,0,0,0,2.973-3.222l1.7-.535,1.933.018a.348.348,0,0,1,.295.162,13.86,13.86,0,0,0,3.133,3.591.349.349,0,0,1,.121.32l-.273,1.94-1.282,2.659a3.36,3.36,0,0,0-.534,6.1,3.333,3.333,0,0,0,2.66.28,3.374,3.374,0,0,0,2.02-1.747,3.338,3.338,0,0,0,.135-2.6l1.269-2.634,1.229-1.3a.7.7,0,0,1,.653-.2,13.87,13.87,0,0,0,2.691.262h0a.706.706,0,0,1,.607.329l.929,1.494.516,2.05a3.978,3.978,0,0,0-.7,3.772,4.031,4.031,0,0,0,3.814,2.75,3.913,3.913,0,0,0,.85-.093,4,4,0,0,0,3.008-4.877A4.008,4.008,0,0,0,31.088,262l-.512-2.031.122-1.941a.414.414,0,0,1,.213-.34,13.874,13.874,0,0,0,3.04-2.2.43.43,0,0,1,.347-.12l.839.1,1.209.811a3.361,3.361,0,1,0,2.444-4.067l-1.013-.68-.436-.78a.365.365,0,0,1-.019-.31,13.718,13.718,0,0,0,.783-3.027.369.369,0,0,1,.2-.285l1.347-.65,1.323-.117a4.476,4.476,0,0,0,5.268,1.994.744.744,0,0,0-.465-1.413Z" transform="translate(0 -216.896)"/><path class="a" d="M154.235,146.753a10.419,10.419,0,1,0,3.173,1.333.744.744,0,1,0-.8,1.257,8.89,8.89,0,1,1-2.718-1.142.744.744,0,1,0,.34-1.448Z" transform="translate(-127.409 -128.288)"/><path class="a" d="M50.592,18.157a3.5,3.5,0,1,0-3.5-3.5A3.5,3.5,0,0,0,50.592,18.157Zm0-5.508a2.01,2.01,0,1,1-2.01,2.01A2.013,2.013,0,0,1,50.592,12.649Z" transform="translate(-42.428 -6.391)"/><path class="a" d="M51.493,386.653a2.563,2.563,0,1,0,2.563,2.563A2.566,2.566,0,0,0,51.493,386.653Zm0,3.638a1.075,1.075,0,1,1,1.075-1.075A1.077,1.077,0,0,1,51.493,390.291Z" transform="translate(-44.082 -344.646)"/><path class="a" d="M380.468,408.111a3.423,3.423,0,1,0,3.423,3.423A3.427,3.427,0,0,0,380.468,408.111Zm0,5.359a1.936,1.936,0,1,1,1.936-1.936A1.938,1.938,0,0,1,380.468,413.47Z" transform="translate(-339.658 -363.976)"/><path class="a" d="M190.309,195.154a3.242,3.242,0,1,0-3.242,3.242A3.245,3.245,0,0,0,190.309,195.154Zm-3.242,1.754a1.754,1.754,0,1,1,1.754-1.754A1.756,1.756,0,0,1,187.067,196.908Z" transform="translate(-165.599 -169.218)"/><path class="a" d="M214.534,283.081a2.444,2.444,0,1,0-2.444-2.444A2.447,2.447,0,0,0,214.534,283.081Zm0-3.4a.956.956,0,1,1-.956.956A.958.958,0,0,1,214.534,279.681Z" transform="translate(-191.061 -246.942)"/><path class="a" d="M268.673,231.768a2.172,2.172,0,1,0,2.172-2.172A2.174,2.174,0,0,0,268.673,231.768Zm2.172-.684a.684.684,0,1,1-.684.684A.685.685,0,0,1,270.845,231.084Z" transform="translate(-242.033 -203.165)"/></g></svg>