<svg xmlns="http://www.w3.org/2000/svg" width="15.158" height="15.158" viewBox="0 0 15.158 15.158"><defs><style>.a{fill:#ff3426;}</style></defs><path class="a" d="M110.481,224.084a.33.33,0,0,0-.465.026,3.666,3.666,0,0,1-5.44,0,.33.33,0,1,0-.491.44,4.325,4.325,0,0,0,6.422,0A.33.33,0,0,0,110.481,224.084Z" transform="translate(-99.716 -214.773)"/><path class="a" d="M7.579,0a7.579,7.579,0,1,0,7.579,7.579A7.588,7.588,0,0,0,7.579,0Zm0,14.5a6.92,6.92,0,1,1,6.92-6.92A6.927,6.927,0,0,1,7.579,14.5Z"/><path class="a" d="M209.648,128A1.649,1.649,0,0,0,208,129.648a.33.33,0,1,0,.659,0,.989.989,0,0,1,1.977,0,.33.33,0,0,0,.659,0A1.649,1.649,0,0,0,209.648,128Z" transform="translate(-199.433 -122.728)"/><path class="a" d="M82.636,129.648a.33.33,0,1,0,.659,0,1.648,1.648,0,0,0-3.3,0,.33.33,0,1,0,.659,0,.989.989,0,0,1,1.977,0Z" transform="translate(-76.705 -122.728)"/></svg>