<svg xmlns="http://www.w3.org/2000/svg" width="51.187" height="48.675" viewBox="0 0 51.187 48.675"><defs><style>.a{fill:#af625d;stroke:#af625d;}</style></defs><g transform="translate(-1.5 -4.5)"><path class="a" d="M20,5h1.673v5.019H20Z" transform="translate(-2.944 0)"/><path class="a" d="M0,0H1.673V5.019H0Z" transform="translate(9.611 8.776) rotate(-45)"/><path class="a" d="M0,0H5.019V1.673H0Z" transform="translate(21.438 11.143) rotate(-45)"/><path class="a" d="M48,36.584h-.27l-3.966-9.917a4.162,4.162,0,0,0-3.884-2.63h-6.1V23.2A4.187,4.187,0,0,0,29.6,19.019H22.075v-.836a4.182,4.182,0,0,0-8.365,0v.836H6.182A4.187,4.187,0,0,0,2,23.2V44.949a4.187,4.187,0,0,0,4.182,4.182H9.595a5.848,5.848,0,0,0,11.576,0h15.19a5.848,5.848,0,0,0,11.576,0h1.74a2.509,2.509,0,0,0,2.509-2.509V40.766A4.187,4.187,0,0,0,48,36.584ZM39.885,25.71a2.5,2.5,0,0,1,2.33,1.578l3.719,9.3H33.785V25.71Zm-24.5-7.528a2.509,2.509,0,0,1,5.019,0v.836H15.383Zm0,34.294a4.182,4.182,0,1,1,4.182-4.182,4.182,4.182,0,0,1-4.182,4.182Zm16.729-5.019H21.171a5.848,5.848,0,0,0-11.576,0H6.182a2.509,2.509,0,0,1-2.509-2.509V23.2a2.509,2.509,0,0,1,2.509-2.509H29.6A2.509,2.509,0,0,1,32.112,23.2ZM42.15,52.477a4.182,4.182,0,1,1,4.182-4.182,4.182,4.182,0,0,1-4.182,4.182Zm8.365-5.855a.836.836,0,0,1-.836.836h-1.74a5.848,5.848,0,0,0-11.576,0H33.785v-9.2H48a2.509,2.509,0,0,1,2.509,2.509Z" transform="translate(0 -1.472)"/><path class="a" d="M17.509,52a2.509,2.509,0,1,0,2.509,2.509A2.509,2.509,0,0,0,17.509,52Zm0,3.346a.836.836,0,1,1,.836-.836A.836.836,0,0,1,17.509,55.346Z" transform="translate(-2.126 -7.687)"/><path class="a" d="M49.509,52a2.509,2.509,0,1,0,2.509,2.509A2.509,2.509,0,0,0,49.509,52Zm0,3.346a.836.836,0,1,1,.836-.836A.836.836,0,0,1,49.509,55.346Z" transform="translate(-7.36 -7.687)"/><path class="a" d="M25.383,31.019H22.037V27.673A1.673,1.673,0,0,0,20.365,26H18.692a1.673,1.673,0,0,0-1.673,1.673v3.346H13.673A1.673,1.673,0,0,0,12,32.692v1.673a1.673,1.673,0,0,0,1.673,1.673h3.346v3.346a1.673,1.673,0,0,0,1.673,1.673h1.673a1.673,1.673,0,0,0,1.673-1.673V36.037h3.346a1.673,1.673,0,0,0,1.673-1.673V32.692A1.673,1.673,0,0,0,25.383,31.019Zm0,3.346H22.037a1.673,1.673,0,0,0-1.673,1.673v3.346H18.692V36.037a1.673,1.673,0,0,0-1.673-1.673H13.673V32.692h3.346a1.673,1.673,0,0,0,1.673-1.673V27.673h1.673v3.346a1.673,1.673,0,0,0,1.673,1.673h3.346Z" transform="translate(-1.635 -3.435)"/><path class="a" d="M0,0H4.182V1.672H0Z" transform="matrix(0.8, -0.6, 0.6, 0.8, 34.956, 28.579)"/><path class="a" d="M0,0H8.365V1.672H0Z" transform="matrix(0.8, -0.6, 0.6, 0.8, 34.956, 31.924)"/></g></svg>