<svg xmlns="http://www.w3.org/2000/svg" viewBox="0 0 329.074 254.951">
    <defs>
        <style>.a{fill:#eb8a83;}.b{fill:#ce382d;}.c{fill:#f4a49d;}.d{fill:#dd645b;}.e{fill:#e67c74;}</style>
    </defs>
    <g transform="translate(-250.132 -51.388)">
        <g transform="translate(181.206 57.448)">
            <path class="a"
                  d="M275.824,229.078l-.673-.121-1-2.5.259-.518,2.745-.811,1.07.242.95,1.053.034.449-.552,1.088-2.832,1.122Zm20.391-19.925.932.1.725-.57,1.088.069.794.811.691.207.587-.242.57-.691.811.414.535.915.328,1.485-.121.915.4.432v.432l-8.65,4.99-2.262-.742-.76-.777.967-1.053.311-.881.725-3.8-.069-.742,1.295-1.813,1.105.535Zm3.35-91.1-.863,2.383-.656.38-.518,1.295-1.036.121-.086.829.294,1.122.777.553.691,1.07,2.072.518.259.6-.725,3.695.518,1.122,3.142,3.125.6.259,1.433,2.227,2.193.086.863.345.432.518.294,2.4,2.573,1.278.6,1.5.742.6,1.036-.121,1.26.259.777,1.157.259.9.829.691.725,1.243.553,1.675H320.3l1.675.432,1.554,2.365.6.466,2.072.725,1.26.121.95-.207.691-1.157.777.777.777-.035.656-.553,1.329-.432,1.64-.95,1.243-.207,1.088-.95.466-1.036,6.647-.863,3.367-.984.553.518,3.022.984.863.553.863-.035,1.209-.518,1.329.207,1.209,2.02.4-.035.173-.9.9-.121,1.951-1.416.466-.035,1.727.9,1-.294,2.935.6.552-1.329,2.331-2.4,5.56-.38-.052-1.122.432-1.036.259-2.573,1.468-1.45.086-1.122-.725-1.122.863-.95h.725L379.386,135l2.711-.6.95-.466.138-.518,1.761-.639,5.007.639,2.849-.207.95.691.6.035.984-.518.6-.812.345-.086,1.416.38,1.588-.121,1.088.207.9.518.224.691-.294.086-.863,1.709-.863.294-.518.518-.259.777,1.295.121,2.331-.777.639.086.656,1.157,1.295.38,2.763-.259,1.329.345,1.243.863.294.6,1.036.639.518.639.691.035.57-.518.984-.38,1.416-.086,1.157.518,1.295,2.314.553.173h.518l.6-.38.656-.777,3.281-1.329.483-1.45-.224-.345.121-.294,3.315-1.364.691-.777,5.266-.553,1.675,1.122.345.483h0l-.052.017h0l-1.416.725-.207,2.97.363.311-.57.725V143.7l-.363,1.191-.518.518-.9-.155-.95.622-.518-.259-1.209.1-.9.725-.155,1.14-.518.414-1.157.259-.155.622.57.518.207.725-.311.881-.9.881-.155.466.466,1.191,1,.829v.518l-.9,1.088.1,1.4-.311.622-1.157.466-.311.932.207.414h0l-.881.5-.4,1.226-.622.414-.328.76-.639.276-.328.725h-.691l-1.174.725-.466,1.882-2.262,1.312-.276.535-1.657,1.416-.086.4-.915.708-1.588.967L410.1,171.2l-1.278.345-1.088.656-.052.328,1.778,1.744,2.676,1.416-.259,2.314.328.6.622.432-.449.656-.311,1.312.639.086.121.38-.622,1.364-.76.449.587.345-.138.57-.622.121-.466.984-.967.9-1.468.311-.725,1.036-.915.639-.328,1.036-.5.38,1.347,1.226.328,1.347-1.14,1.381-.276.846-.207.138-.259-.242-.5-.863-.846-.017-.242-.6-.656.207-.466.9h-.639l-.57.4-2.3-.242-.57.535-2.486.725-1.157,1.088-1.209.207-1-.311-1,.259-.138,1.485-1.278.052-.432.725-1.537.052-1.036.6v.345l-1.589.138-.173.328-1.468-.276-.138.794-.4.4-.639-.449-.017-1.053-.639-.242-.846.76-1.468.535-.708-.311-.622.76-.708-.829-1.105-2.089-.587-.5-.95-.052-1.416,1.968.4,1.243-.173.121h-.656l-1.329-.535-1.865-.19-.328.311.535,1.934-.121.535-2.089.587-.639-.259-.846-.915-.242,1.485.5,1.312-1.157-.259-.259.121-.276.984-.794.449-1.744-.121-1.329.466-.38.518-1.606.967-1.019.069-.518.639.311,1.191-.812.829-.829.259-.466.932.535,1.105-.449.829.57.5-.207.518-2.055.345-.535.449-1.917.017-.38.311-.207.932h-.518l-.622,1.295-1.088.57-.276,1.036-.725.829-.363.069.069.5-1.917-.38-.207.915-.656-.242.242,1.364-.138,1.122-.535-.242-.069-.846-.466-.276-1.416.846.449.673.121.777-1.4.38-.639-.725-.829.259-.518.518-.846-.673-.76.932-1.519.38-.5.725-.95.656.069,1.347.76.19.311.76.449.328.725-.173.311-.242.19-.777.725-.311.5.276.38.9.207,2.072-.259.656-.639.587-.19.76-.052,1.105.57.708-.069.639-.587.725.259.725.587.4.9-.242,1.537.207.069.259-.259.691.121.725-1.209,1.019,1.174,2.227-.069.4-.328.4.052.5-1.07,1.243,1.191,1.951.9,3.142.138,2.262.915,3.557-.57,1.416.777.466.587-.017.259.777-.9,1.571-1.554.777-2.5.639-.259.984-1.07.9-2.037.345-1.347.829-2.089.708-.656.5-.587,1.623h0l-2.3,1.433-.587-.242.138-.518L329,267.875l.138-1.45-.639-1.5-.812-.984-1.105-.121-1.865.57-2.262,1.088-3.367,2.763-.345-.466-.811-.173-.294-1.623-.587-.984.932-1.847.173-1.036-.587-.812-.708-.328-.311-2.866-2.176-.639,1.157-1.381.432-2.176-1.8-6.561-1.26-1.5.069-1.917.846-2.521.017-1.174-1.209-3.108-1.191-.863-2.883-1.226-1.347-1.295.328-1.588,2.314-1.364,1.191-2.072,1.122-5.75.017-2.624-.38-1.278-.363-.656-1.14-.9-1.381-.311-1.5-1.9.9-2.417L305,211.795l-2.02-2.78-1.157-.708-1.26.846-1.951-1.295-.708-1.312-.518-.466-3.419-.95-.5-.466-.829.207.345,1.45-.449.708-.449.138-2.97-.984-.967-.984-.794-1.537.345-4.489.794.207.622.639,1.986.587,1.364.069,1.813,1.088.035-.881-1.675-1.26-1.5-.052-.4-.794.466-.794.069-1.14-2.452.052-.691.224-2.9-1.036-1.243-1.4-.742-3.332L281.54,186.9l.587-1.019,1.105-.224-.294-1.4,1.951-3.091.656-2.78-.345-2.037-1.45-3.263-1.9-2-1.416-.414-2.124-.086-.483-.449.052-1.088.777-1.623v-.9l-1.226-1.45.812-3.66-.466-1.588-1.26-1.364.432-1.5-1.295-1.537.259-.742,1.191-.95.9-.086,1.157-1.191.673-1.968-.742-2.452-.846-.725-.812-2.348.224-.345,1.26.294v-1.312l1.036-1.934,1.26-1.26.4-1.364-.345-2.176.224-1.537.639-1.191,1.278-1.191,3.833-2.314.932-1.019v-.777l.863-1.882,1.209-1.658.1-1.813-.449-1.053.121-.449.812-.294,2.383-.052.535-.76.812-.345,2.918-.052,2.089-2.417ZM275.444,94.973l-.294.1L273.476,93.8l1.588-1.329.535-1.813.829-.294.466.138.311.6-.311,2.573ZM259.68,70.4l-3.954.829-2.521-1.4,1.036-1.45,2.158-1.571-1.088-.639-3.091-1.019-1.692-3.194-.4-1.934,1.019-1.226,1.278-.363,3.384-3.54,2.089.483.19,1.45.38.846,3.8,3.747.276,3.091-.38,1.347L259.68,70.4Z"
                  transform="translate(-181.206 -54.898)"/>
        </g>
        <g transform="translate(424.726 104.118)">
            <path class="b"
                  d="M445.733,86.745l2.486,2.711L449.5,91.58l-.035.742-1.053,1.588-4.679,4.23L442,97.416l-.518.017.811.76.363,1.226-.155,3.747.259,1.036,1.381,1.571,3.971,2.745,2.5,2.521,8.512,5.007.915,2.331,2.279,1.053,1.019-.155,1.036.311,5.352,4.593.6,1.588,1.312,1.537,2.02.812.466-.052,2.158.708.311.276.121,1.64-.967,1.381-1.26,1.191-4.178,2.883-3.522-1.329-5.128.483-4.817-.432-5.318-1-2.814-1.278-1.209-1.243-1.157-3.108-1.157-.984-1.4-.691-.414.155-.052.76,4.144,7.079.155,1.278-.4.639-.656.121-.587-.173-1.295-1.209-1-.173-2.745.881-2.072,2.02-.622,1.329-.017,1.571-2.952,6.095-1.571,1.14-1.4,2.987-1.226,3.626-.414,2.124.76,2.124.811.725.259,1.191-.328.742-1.088,1.157-1.364,4.265.017.812,1.036,2.21L430,175.424l4.437-2.883.777-.242.363.155.121.466-1.83,6.2,1.416,3.056.052.76-.242.38-4.817,2.141-3.695-.207-1.209-1.433-.725.449-.242,1.381-3.367,4.058-3.54,5.767-.656.57-2.417,1.07-3.177.57-2.279-5.128.535-1.934-.138-.345-.414.1-.829,2.227.017.932,1.209,1.209,1.019,2.262-.95,3.453-3.885,1.347-2.59,1.813-.224.276.155,1.312.846,1.364-.19.829-.57.691-4.092,1.623-2.866,1.4-2.469,1.554.207.535.915.466,1.209-.259,1.019-.812,1.416-.311,1.243.138.6.363.449,3.868-.069,3.919-.673.846-1.882.656-.432.483,2.279.483h1.4l.708-.691.587,1.278-.086.587,2.452.656-.19,2.4-1.209,4.265h0l-2.3-1.053-1.9-.5-4.662-.052-2.21-.725-4.714-.259-.673-.121-.915-.846-.932.846-1.347.5-.173.535-.673.622-.932.294-.483-.915.052-1.761-1.226-2.987.311-2.624.622-.967-.259-.432-1.036-.432-.863.242-.6-.483-.311.069.363-1.036-.483-.553v-.725l.553-1.226.121-1.226-.242-3.229-.622-1.278-.846-.967-.19-.863.242-.535-1.226-.984-.242-.553.242-1.209-.483-.673-1.053-.19-1.036.432-.311-.6.121-.6,1.105-.984.742-1.157,1.416-1.209.553.121-.259,1.329.432.121L379,200.494l.432-1.709h0l-.017.017h0l.4-2.245.777-.915,1.571-1.14.052-.449-1.312-1.14-.552.121-.587.57-.4-.242-.328-1.191-.587-.242-.691-.76-.725.086-.363-1.64-.4-.5-2.279-1.45-1.036-1.692-1.364-1.191-2.9-.518-.708-1.744.052-2.055-.483-3.281-.863-.742-.673-1.778-1.243-1.278-.4-.1.363-1.882-.639-.173-.328-2.521.725-.138.069-.829-.5-.777.95-1.64v-1.157l.76-.449.725-1-.622-1.934L361.7,162.8l-.5,1.14-.812.017-.812.4-1.312,1.14-1.554-.414-1.761.328v-.915l-.363-.812.138-1.105-.777-1.468-.173-2.486-.414-.535-.639.035-.553-.6-1.019.19-.5-.863.639-1.519-.138-.725.742-.829.035-.6.673-.121.328-.345.915-1.951,1.157-.742.466.1.19.363.535-.276,1.26-.086.294.035.587.829.259-.553,2.055-1.433.345-.673.086-1.226-1.122-.984-.552-1.122-1.26-1.485-.967-2-.5-2.78L356,137.507l-.777-.639-.881-.242-1.381,1.295-.069.4.518.829-.812-.207-.345-.725-.915-.57-.673.414-.863-.121-1.416,1.036-.553-.242-.95.173-.846,1.122-1.537,1.105-1.364.052v1.088l-.363.673-1.727.052-1.157.777.1,1.157-.363.1-1.209-.207-.881-.742-1.26-.311-2.676.311-.725-.311-.173-.725-1.088-.57v-.363l.57-.57-.57-1.675-1.26-.777-.518.207-.622-.155-2.21,1.14-.932-.155-1.209.414-.414-.1-.432.311-.725-.57h-.846l-.207-.414.311-.932,1.157-.466.311-.622-.1-1.416.9-1.088v-.518l-1-.829-.466-1.209.155-.466.9-.881.311-.881-.207-.742-.587-.518.155-.622,1.157-.259.518-.414.173-1.14.881-.742,1.209-.1.518.259.95-.622.881.155.535-.518.363-1.191v-1.191l.57-.742-.363-.311.207-2.97,1.416-.725h0l.639-.259h0l.414-.777,1.209-.155,2.728-1.157.984-.932,4.455,2.607.691-.207.363-.742h0l1.364.725.432.794,1.07.881,2.745.794,1.347,1.5.345,1.761.363.449,1.416-.794,1.243.173.9.363.535.691.259,1.07.708.794.794.345,1.157.086,1.519-1.675h2.314l.967.449,1.329.173,1.433-1.588,1.778.345,1.329-1.588.881-.432.449-2.745.708-.708,3.384.1,3.988-1.5,4.006-.086,1.778-1.5.967-2.037,1.519-1.329,2.745-3.695,2.227-4.247-.535-2.02.173-1.157.812-.967,1.865-.967.432-1.157,1.157-.708.276-1.416.086-3.8.345-1.226,1.433-2.383.622-.449.535-2.3.432-.535.9-.086.967.984,1.347.518.518.535v.708l1.07.535,1.243-.1,1.778-.518,3.022-1.951,3.9-1.329,3.471-2.02,2.227-.086,2.486.518,2.745-.708H427.4l.881,1.951,1.07.794,2.227,1.053.881.19,1.865-.449.794.535,1.968,2.383,2.383.881.639.086,2.21-1.329,2.227-.259"
                  transform="translate(-322.246 -81.928)"/>
        </g>
        <g transform="translate(439.99 220.975)">
            <path class="c"
                  d="M392.087,218.551l-.293.345-1.9-3.073,1.122-2.849,1.485-1.882.4-.1.345.777v1.019l-1.157,5.767Zm-8.132,12-.967.276-.915-.086-.121-.363.1-1.33.673-2.21-.1-3.091-1.554-2.158-.432-1.4.034-1.14,3.281-9.6,4.23-3.022.4.1.1.6-.622,3.954.466,4.575,1.416,6.872-.414,4.2-4.334,3.246-1.243.57Zm-10.947-80.943-.432,1.709-1.83,2.193-.432-.121.242-1.347-.552-.121-1.416,1.226-.742,1.157-1.105.967-.121.6.311.6,1.036-.432,1.036.19.483.673-.242,1.226.242.553,1.226.967-.242.553.19.846.863.967.6,1.278.242,3.229-.121,1.226-.553,1.226v.725l.483.553-.363,1.036.311-.069.6.483.863-.242,1.036.432.242.432-.6.967-.311,2.624,1.226,2.987-.069,1.761.483.915.915-.311.673-.6.19-.553,1.347-.483.915-.846.915.846.673.121,4.714.242,2.21.725,4.662.069,1.9.483,2.3,1.07h0l-.673,3.229-.9,1.14-.691.035-.276-.276-.207-1.053-1.312-.691-3.419.691-.086,2.8,1.744,1.571.345,5.37-.57,1.468-2.4,3.108-.881.449-.4-.086-.414-.6-.363-2.072-1.64-2.849-.345-.328-.225.242-.656,2.97.328,1.537,1.692,2.417.984.863.173,1.692-1.329.673-2.158,2.953-2.624,4.955-.656,4.23-.414.811-.656.38-3.419.5-1.986,1.9-1.122.725-5.594,2.383-7.822,2.814-10.7,4.472-6.544,3.937-2.141.276-.622-.673-.224-.984-.017-12.639-.19-1.45-.6-1.209-1.761-2.314-1.226-1.14-1.26.138-2.659-1.519h0V211.61l1.347-4.092,2.521-3.954.673-3.9,2.642-5.18,1.709-.483.6-.483.311-.363-.242-.432.363-.673.622.19,1.468-.553.794-1.036.553-3.108,1.209-.95.863-1.347-.069-1.105.363-.553.984.069,10.187-7.373.673.483.553-.069.363-2.262.673-1.4-1.226-2.676v-.673l1.658-1.278.432-1.4-1.157-1.589-.19-1.347,1.226-3.833,1.537-6.7.242-.311,3.194-.242,3.125-1.157.673-.553.863.19,1.709-1.347h0l.673-.518Z"
                  transform="translate(-331.086 -149.608)"/>
        </g>
        <g transform="translate(332.129 158.818)">
            <path class="d"
                  d="M268.616,225.734l.6-1.606.656-.5,2.072-.708,1.347-.812,2.037-.363,1.07-.9.259-.984,2.5-.639,1.571-.777.9-1.571-.276-.777-.587.035-.777-.483.57-1.4-.915-3.574-.155-2.245-.9-3.16-1.174-1.951,1.053-1.243-.035-.5.328-.4.069-.4-1.191-2.227,1.209-1.019-.121-.725.276-.673-.086-.259-1.537-.224-.9.242-.587-.4-.259-.725.587-.742.069-.622-.553-.708.035-1.105.19-.76.639-.587.259-.656-.207-2.072-.38-.9-.5-.276-.725.311-.19.777-.311.224-.725.173-.449-.328-.311-.76-.76-.19-.069-1.329.95-.656.483-.742,1.519-.363.76-.95.846.691.518-.518.829-.259.639.725,1.4-.38-.121-.777-.449-.673,1.416-.846.483.276.069.846.535.242.155-1.14-.242-1.364.656.242.225-.915,1.916.38-.086-.5.363-.069.725-.829.294-1.019,1.088-.57.622-1.295h.518l.207-.932.38-.311,1.916-.017.535-.449,2.072-.363.207-.518-.57-.483.449-.829L293,169.757l.483-.932.829-.259.794-.829-.294-1.191.518-.639,1.019-.069,1.606-.967.38-.5,1.312-.483,1.761.121.794-.449.276-.984.259-.121,1.174.259-.5-1.312.242-1.485.846.915.639.259,2.072-.587.121-.535-.535-1.917.328-.311,1.865.19,1.329.535h.656l.173-.121-.414-1.243,1.433-1.968.932.052.6.483,1.105,2.089.708.829.622-.76.708.311,1.468-.535.846-.76.639.242.017,1.053.639.449.414-.4.138-.811,1.468.294.155-.328,1.588-.138v-.363l1.036-.6,1.537-.052.432-.725,1.278-.052.138-1.468,1-.259.984.294,1.209-.207,1.157-1.088,2.486-.725.57-.535,2.3.242.57-.414h.639l.466-.881.673-.207.225.6.863.017.483.881.259.224.224-.138.276-.846,1.14-1.381-.328-1.347-1.347-1.226.483-.363.345-1.036.915-.639.725-1.036,1.485-.311.967-.881.466-.984.622-.121.138-.57-.587-.345.76-.449.6-1.364-.121-.38-.639-.086.311-1.329.449-.656-.6-.414-.345-.6.276-2.331-2.676-1.4-1.778-1.744.052-.328,1.088-.656,1.278-.345,2.383.432,1.589-.95.915-.708.1-.4,1.658-1.416.276-.535,2.279-1.312.466-1.882,1.174-.725h.691l.328-.725.639-.294.328-.742.622-.432.4-1.226.881-.5h.846l.725.57.432-.311.414.1,1.209-.414.932.155,2.21-1.14.622.155.518-.207,1.26.777.57,1.675-.57.57v.363l1.088.57.173.725.725.311,2.676-.311,1.26.311.881.742,1.209.207.363-.1-.1-1.157,1.157-.777,1.727-.052.363-.673v-1.088l1.364-.052,1.537-1.105.846-1.122.95-.173.553.242,1.416-1.036.863.121.673-.414.915.57.345.725.812.207-.518-.829.069-.4,1.381-1.295.881.242.777.639.673,1.209.5,2.78.967,2,1.26,1.485.552,1.122,1.122.984-.086,1.226-.345.673-2.055,1.433-.259.553-.587-.829-.294-.035-1.26.086-.535.276-.19-.363-.466-.1-1.157.742-.915,1.951-.328.345-.673.121-.034.6-.742.829.138.725-.639,1.519.5.863,1.019-.19.553.6.639-.035.414.535.173,2.486.777,1.468-.138,1.105.363.811v.915l1.761-.328,1.554.414,1.312-1.14.812-.4.812-.017.5-1.14,4.178-2.02.622,1.934-.725,1-.76.449V142.3l-.95,1.64.5.777-.069.829-.725.138.328,2.521.639.173-.363,1.882.4.1,1.243,1.278.673,1.778.863.742.483,3.281-.052,2.055.708,1.744,2.9.518,1.364,1.191,1.036,1.692,2.279,1.45.4.5.363,1.64.725-.086.691.76.587.242.328,1.191.4.242.587-.57.552-.121,1.312,1.14-.052.449-1.571,1.14-.777.915-.4,2.245h0l-.6.535h0l-1.709,1.347-.863-.19-.673.553-3.125,1.157-3.194.242-.242.311-1.537,6.7-1.226,3.833.19,1.347,1.157,1.588-.432,1.4-1.658,1.278v.673l1.226,2.676-.673,1.4-.363,2.262-.553.052-.673-.483-10.17,7.373-.984-.052-.38.553.069,1.088-.863,1.347-1.209.95-.553,3.108-.794,1.036-1.468.535-.622-.173-.363.673.242.414-.311.38-.6.483-1.727.483-2.624,5.18-.673,3.9-2.521,3.971-1.347,4.075v1.571h0l-4.178-1.986-3.211-.863-2.106.155-6.2,2.97-3.194.483-1.381-.052-1.848-1.122.846-2.694.121-2.728-.449-1.571-.622-.915-3.9.242-.777.846-.294,1.036-2.193.5-3.609-2.3-5.387-5.629-.9-.121-2.538,2.763-.19.984.76.984-.518,1.727-5.715,3.5-2.037,1.433-1.209,1.243-3.022.932-.552-.052-3.419-2.711-3.332-1.157-1.8-.035-2.5.967-6.371,6.078-1.053.587-.708.1-2.5-1.036,1.122-3.937-.812-6.319v-1.416l.483-1.865-.052-1.243-2.348-4.2-.691-2.763-.829-.121.121,1.381-.984,1.45.742.6-.173.777-1.623.294-.518.57-2.141,1.329-.294-.811-1.571-1.381L289.7,223.3l-.742-.121H286.4l-5.266,3.022-2.106.915-1.675.518-2.555.345-3.764-2.659Z"
                  transform="translate(-268.616 -113.608)"/>
        </g>
        <g transform="translate(447.069 51.388)">
            <path class="e"
                  d="M427.145,84.591l-.967.742-2.227-1.761-.812-2.141.052-.708.276-.38,2.521-.207,1.416.432.259.553Zm-8.167-8.27,3.8,2.245-.017.345-.932.812-2.918-1.278-3.332-.173-1.105-.535-.691-.932.138-.742,1.571-.656,3.488.915ZM428.8,63.543l-1.347.5-2.055-1.5-.311-1.537.121-.38,1.347-1.468.846.086,2.158,1.744.173.812Zm4.8-5.715.742.328.725,3.47-.967.76-.881.138-1.053-.535-6.078-4.869.1-.449,1.554-1.278.881-.052,1.727.6.328.656,1,.725,1.917.5Zm-65.542,2.486.069-1.606.57-1.157.639.052,1.364-1.571.691.1.242.57.708-.19.224-.984L373.81,54.5l-.242-.725.207-1.8.915-.328.57.984,2.607.518.466.345.19.846,1.122.863.345-.224.673-1.312,1.468-.57.224-1.105.259-.19,2.434.363.518.311,2.624-.6,2.02,1.675.345,1.105,1.019-.242.4-.932.639.276.812-.138-.086-1.07.932-1.157.708.777.656.207.432,1.053,1.329-.414.915.276.535-.173.483-.276.449-.863.708.432.656.829.449-.19.846.483,1.191-.345.915-.708,1.26.311.5.4,1.122.1.483.518.587-.673,1.917.259,1.122-.294,1.019.19,1.105-.276.155-.328.915-.363,5.214,3.712.691,1.485.414.259,2.089.587,1.537-.449.414.294h0l-1.4.863-1.571.483-2.693-.777-.294.328v.967l.673.553,1.658.4,4.558,3.833L423,65.3l2.866,1.64,2.693.294,2.193,2.314.069.449-.432,1.105,1.83.553-.138.432-2.072,1.934-1.847.363-5.473.4-4.61-.656-3.108.518-.829.5-.76,1.122.052.708.967,1.5,2.555,1.606,2.176-.259,1.381.363.034,1.45-.483.9,3.039,1.588-.294.483-2.176.294-1.485.587-.5.794-1.675.294-.294.587.932.553,3.471.6,4.679,2.037,2.106,3.591-.483,2.78L427.37,98.9l1.761.311,1.381.846.363.57.242,2.314.4,1.243,4.8,4.731h0l-1.191,1.019-2.227.259-2.227,1.329-.622-.086-2.4-.881-1.951-2.383-.794-.535-1.865.449-.881-.173-2.227-1.053-1.07-.794-.881-1.951h-1.5l-2.763.708-2.486-.535-2.227.086-3.471,2.037-3.9,1.329L398.6,109.7l-1.778.535-1.243.086-1.07-.535v-.708l-.5-.535L392.682,108l-.984-.967-.881.086-.449.535-.535,2.3-.622.449-1.416,2.383-.363,1.243-.086,3.8-.259,1.416-1.157.708-.449,1.14-1.865.967-.794.967-.173,1.157.535,2.037-2.227,4.23-2.763,3.712-1.5,1.329-.984,2.037-1.778,1.5-4.006.086-3.988,1.5-3.384-.086-.708.708-.449,2.728-.881.449-1.329,1.588-1.778-.345-1.416,1.588-1.329-.173-.984-.449h-2.314l-1.5,1.675-1.157-.086-.794-.345-.708-.794-.259-1.053-.535-.708-.881-.345-1.243-.173-1.416.794-.363-.449-.363-1.761-1.329-1.5-2.745-.794L337,140.2l-.449-.794-1.364-.725h0l.846-1.4-.311-.518.207-1.295,1.381-.811.9-1.588.656-.535.224-1.709-.19-2.055-.224-.224.846-1.14-.121-.466.967-.276.932.432.777-1.105,1.157-.19.622-.587-.691-1.4.086-.4,1.191-.9-.035-.38-.881-.432-1.312.587-.345-.777.276-1.658-.6-.328-.276-.5-.035-1.416.587-2.262,3.177-.345,1.347-.846.069-.4-.57-.742.535-1.088,1.157.19.742-.4.881-1.019h1.157l.345-1.019.777-.708,1-.311,1.347.035,1.036-.863.121-.535-.811-.587-.19-.587-1.157-1.364-1.709.535-.535-.812.535-.656.155-.708v-.846l-.4-.242v-.656l1.036-.9V99.75l.311-.587-.311-.466-.881-.224-.069-.311,1.658-1.329L353,95l2.745-1.83.587-1.433,1.053,1.122.069.708,2.124-.155,1.4-1.329,1.778-.242.311-.587v-1.45l.224-.432,1.4-1.157v-.345l-1.226-.9-.086-.311.725-4.852,1.088-2.176.587.035.691,1.088.691-1-1-1.744-.224-1.9-.656-.812L365,73.817l.086-2.676.242-1.226.9-1.8.069-.967-.086-.311-1.347-.967-.224-.535,1.468-.4.777-.708,1.157-3.591h0l.017-.328Z"
                  transform="translate(-335.186 -51.388)"/>
        </g>
    </g>
</svg>