<svg xmlns="http://www.w3.org/2000/svg" width="47.398" height="47.393" viewBox="0 0 47.398 47.393"><defs><style>.a{fill:#4c8b73;stroke:#4c8b73;fill-rule:evenodd;}</style></defs><g transform="translate(0.5 0.474)"><path class="a" d="M10.491,183.655a4.359,4.359,0,0,0,.233-1.407V180.51a4.38,4.38,0,1,0-8.761,0v1.737a4.359,4.359,0,0,0,.233,1.407A4.548,4.548,0,0,0,0,187.534v4.531a6.349,6.349,0,0,0,1.812,4.43v8.257a1.814,1.814,0,0,0,1.812,1.812H4.984a3.135,3.135,0,0,0,1.359-.307,3.135,3.135,0,0,0,1.359.307H9.062a1.814,1.814,0,0,0,1.812-1.812v-8.257a6.349,6.349,0,0,0,1.812-4.43v-4.531A4.548,4.548,0,0,0,10.491,183.655ZM3.775,180.51a2.568,2.568,0,1,1,5.136,0v1.737a2.568,2.568,0,1,1-5.136,0ZM7.7,204.752a1.341,1.341,0,0,1-.814-.273.906.906,0,0,0-1.091,0,1.342,1.342,0,0,1-.814.273H3.625v-7.737H9.062v7.737Zm3.172-12.687A4.532,4.532,0,0,1,9.6,195.2H3.086a4.533,4.533,0,0,1-1.274-3.137v-4.531a2.728,2.728,0,0,1,1.311-2.32,4.372,4.372,0,0,0,6.439,0,2.728,2.728,0,0,1,1.311,2.32Z" transform="translate(0 -160.145)"/><path class="a" d="M382.494,183.654a4.359,4.359,0,0,0,.233-1.407v-1.737a4.38,4.38,0,1,0-8.761,0v1.737a4.36,4.36,0,0,0,.233,1.407,4.548,4.548,0,0,0-2.2,3.879v4.531a6.349,6.349,0,0,0,1.812,4.43v8.257a1.814,1.814,0,0,0,1.812,1.812h1.359a3.166,3.166,0,0,1,2.719,0h1.359a1.814,1.814,0,0,0,1.812-1.812v-8.257a6.349,6.349,0,0,0,1.812-4.43v-4.531A4.548,4.548,0,0,0,382.494,183.654Zm-6.715-3.144a2.568,2.568,0,0,1,5.136,0v1.737a2.568,2.568,0,0,1-5.136,0Zm3.927,24.242a1.342,1.342,0,0,1-.814-.273.906.906,0,0,0-1.091,0,1.341,1.341,0,0,1-.814.273h-1.359v-7.737h5.437v7.737Zm3.172-12.687A4.532,4.532,0,0,1,381.6,195.2h-6.515a4.533,4.533,0,0,1-1.274-3.137v-4.531a2.728,2.728,0,0,1,1.311-2.32,4.372,4.372,0,0,0,6.439,0,2.728,2.728,0,0,1,1.311,2.32Z" transform="translate(-338.292 -160.144)"/><path class="a" d="M192.832,291.644a.906.906,0,1,0-1.282,1.282l.773.773H185.1l.773-.773a.906.906,0,0,0-1.282-1.282l-2.32,2.32a.906.906,0,0,0,0,1.282l2.32,2.32a.906.906,0,0,0,1.282-1.282l-.773-.773h7.223l-.773.773a.906.906,0,1,0,1.282,1.282l2.32-2.32a.906.906,0,0,0,0-1.282Z" transform="translate(-165.513 -264.95)"/><path class="a" d="M148.921,2.941a9.97,9.97,0,0,0,4.332,16.641l1.315,2.278a1.615,1.615,0,0,0,1.392.817h.012a1.592,1.592,0,0,0,1.393-.8l1.322-2.291a9.969,9.969,0,1,0-9.766-16.641Zm12.816,12.816a8.136,8.136,0,0,1-3.857,2.163.907.907,0,0,0-.574.428l-1.336,2.316-1.336-2.316a.907.907,0,0,0-.574-.428,8.157,8.157,0,1,1,7.677-2.163Z" transform="translate(-132.77 0)"/><path class="a" d="M205.948,66.1l-3.142,3.142-1.066-1.066a1.812,1.812,0,0,0-2.563,2.563l2.347,2.347a1.812,1.812,0,0,0,2.563,0l4.423-4.423a1.812,1.812,0,0,0-2.563-2.563Z" transform="translate(-180.645 -59.604)"/></g></svg>