<svg xmlns="http://www.w3.org/2000/svg" width="85.01" height="83.645" viewBox="0 0 85.01 83.645"><defs><style>.a{fill:#4231c5;stroke:#4231c5;}</style></defs><g transform="translate(0.513 -3.553)"><path class="a" d="M104.281,41.881a8.212,8.212,0,0,0-2.9-5.728,7.509,7.509,0,0,0-5.609-1.741,8.035,8.035,0,0,0-6.415,4.7l-2.519.222-2.486-.7a.625.625,0,0,1-.417-.409,23.329,23.329,0,0,0-3.067-6.037l.88-2.365,2.777-3a5.646,5.646,0,0,0,4.1-1.963,5.738,5.738,0,0,0-.181-7.663,5.641,5.641,0,0,0-4.172-1.768,5.72,5.72,0,0,0-4.139,1.83,5.663,5.663,0,0,0-1.509,4.109l-2.777,3-2.327,1.079a23.341,23.341,0,0,0-11.442-3.184L60.561,19.84l-.537-2.666a7.235,7.235,0,0,0,2.565-7.137,7.98,7.98,0,0,0-14.3-2.5,7.123,7.123,0,0,0-1.055,5.47,7.525,7.525,0,0,0,4.861,5.472l.593,2.946L52.213,24.3a23.358,23.358,0,0,0-5.9,3.795l-1.744-.311L42.6,26.294a5.7,5.7,0,1,0-4.52,6.655l1.651,1.246.741,1.516a.247.247,0,0,1,0,.212,23.163,23.163,0,0,0-2.129,9.746c0,.629.026,1.267.077,1.9a.261.261,0,0,1-.1.238l-2.789,1.987-3.183,1a7.463,7.463,0,0,0-6.917-1.183c-.048.016-.094.033-.141.05l-.039.014a1.261,1.261,0,0,0,.855,2.373l.059-.022.059-.021a4.945,4.945,0,0,1,4.968,1.115,1.261,1.261,0,0,0,1.247.289l4.04-1.271a1.261,1.261,0,0,0,.353-.176l2.951-2.1a2.8,2.8,0,0,0,1.154-2.5c-.046-.564-.069-1.134-.069-1.694a20.657,20.657,0,0,1,1.9-8.693,2.76,2.76,0,0,0-.028-2.373l-.873-1.787a1.26,1.26,0,0,0-.373-.453l-2.374-1.791a1.261,1.261,0,0,0-1.144-.194,3.184,3.184,0,0,1-2.886-.487,3.177,3.177,0,0,1-.494-4.609,3.209,3.209,0,0,1,4.172-.569,3.17,3.17,0,0,1,1.4,2.378,1.261,1.261,0,0,0,.5.9l2.629,1.984a1.26,1.26,0,0,0,.538.235l2.649.472a1.26,1.26,0,0,0,1.079-.317,20.866,20.866,0,0,1,6.27-4.017,1.261,1.261,0,0,0,.764-.962l.621-3.78a1.263,1.263,0,0,0-.008-.453l-.785-3.9a1.261,1.261,0,0,0-.922-.972,5.08,5.08,0,0,1-3.8-3.8,4.621,4.621,0,0,1,.689-3.547,5.461,5.461,0,0,1,9.737,1.63,4.779,4.779,0,0,1-2.179,5.01,1.261,1.261,0,0,0-.551,1.308l.741,3.682a1.263,1.263,0,0,0,.168.421l1.821,2.906a1.9,1.9,0,0,0,1.622.9h0A20.812,20.812,0,0,1,72.5,27.778a1.9,1.9,0,0,0,1.784.1l2.851-1.323a1.262,1.262,0,0,0,.4-.288l3.329-3.6a1.261,1.261,0,0,0,.32-1.049,3.176,3.176,0,0,1,5.441-2.677,3.2,3.2,0,0,1,.1,4.268,3.155,3.155,0,0,1-2.644,1.087,1.26,1.26,0,0,0-1.021.4L79.73,28.3a1.258,1.258,0,0,0-.256.416l-1.082,2.91a1.9,1.9,0,0,0,.248,1.783,20.824,20.824,0,0,1,2.909,5.626,3.144,3.144,0,0,0,2.127,2.034l2.708.759a1.262,1.262,0,0,0,.451.042l3.516-.311a1.261,1.261,0,0,0,1.08-.843,5.559,5.559,0,0,1,4.6-3.793,5.008,5.008,0,0,1,3.738,1.166,5.709,5.709,0,0,1,2,3.988,6.144,6.144,0,0,1-.55,3.059A1.261,1.261,0,0,0,103.5,46.2a8.682,8.682,0,0,0,.778-4.317Z" transform="translate(-20.311 0)"/><path class="a" d="M77.623,248.415a5.115,5.115,0,0,1-1.085.231,5.166,5.166,0,0,1-5.2-3.08,1.261,1.261,0,0,0-1.254-.722l-3.3.291a1.26,1.26,0,0,0-.437.12l-2.492,1.2a3.142,3.142,0,0,0-1.742,2.406,20.733,20.733,0,0,1-1.184,4.576,3.133,3.133,0,0,0,.184,2.663L62,257.69a1.259,1.259,0,0,0,.4.432l2.47,1.657a1.262,1.262,0,0,0,1.153.131,3.184,3.184,0,0,1,2.908.327,3.177,3.177,0,0,1,.749,4.574,3.208,3.208,0,0,1-4.134.8,3.17,3.17,0,0,1-1.53-2.3,1.261,1.261,0,0,0-.546-.872L60.733,260.6a1.259,1.259,0,0,0-.55-.2l-1.722-.209a3.24,3.24,0,0,0-2.633.881,20.99,20.99,0,0,1-4.6,3.326,3.241,3.241,0,0,0-1.692,2.644l-.218,3.488a1.26,1.26,0,0,0,.036.387l1.082,4.3a1.261,1.261,0,0,0,.883.906,4.267,4.267,0,0,1,2.984,3.058,4.253,4.253,0,0,1-3.2,5.191,4.252,4.252,0,0,1-3.9-7.19,1.261,1.261,0,0,0,.339-1.208l-1.089-4.322a1.26,1.26,0,0,0-.152-.358l-1.679-2.7a3.71,3.71,0,0,0-3.184-1.748h0a20.949,20.949,0,0,1-4.058-.4,3.7,3.7,0,0,0-3.427,1.081l-2.22,2.343a1.264,1.264,0,0,0-.221.32l-2.485,5.155a1.261,1.261,0,0,0,0,1.1,3.176,3.176,0,0,1-4.413,4.17,3.212,3.212,0,0,1-1.377-3.962,3.15,3.15,0,0,1,2.226-1.9,1.261,1.261,0,0,0,.85-.681l2.5-5.189a1.257,1.257,0,0,0,.113-.372l.49-3.483a3.126,3.126,0,0,0-1.114-2.852,20.985,20.985,0,0,1-4.743-5.436,3.13,3.13,0,0,0-2.633-1.49l-3.477-.033a1.248,1.248,0,0,0-.39.058l-3.807,1.2a1.261,1.261,0,0,0-.875,1.062,4.946,4.946,0,0,1-9.617.988,4.879,4.879,0,0,1,.031-3.128,1.261,1.261,0,1,0-2.385-.821,7.384,7.384,0,0,0-.044,4.732,7.5,7.5,0,0,0,7.117,5.146,7.4,7.4,0,0,0,2.223-.342,7.479,7.479,0,0,0,5.04-5.462l2.883-.907,3.277.031a.591.591,0,0,1,.5.275,23.5,23.5,0,0,0,5.311,6.088.592.592,0,0,1,.205.542l-.463,3.289-2.173,4.508a5.7,5.7,0,0,0-.906,10.336,5.651,5.651,0,0,0,4.51.474,5.721,5.721,0,0,0,3.426-2.962,5.659,5.659,0,0,0,.229-4.4L33.7,271.46l2.085-2.2a1.193,1.193,0,0,1,1.107-.342,23.518,23.518,0,0,0,4.562.444h0a1.2,1.2,0,0,1,1.029.558l1.575,2.534.876,3.475a6.745,6.745,0,0,0-1.192,6.395,6.835,6.835,0,0,0,6.467,4.663,6.634,6.634,0,0,0,1.441-.158,6.775,6.775,0,0,0,5.1-8.269,6.8,6.8,0,0,0-4.034-4.626l-.867-3.443.206-3.292a.7.7,0,0,1,.361-.576,23.524,23.524,0,0,0,5.155-3.725.729.729,0,0,1,.589-.2l1.422.173,2.05,1.375a5.7,5.7,0,1,0,4.144-6.9L64.056,256.2l-.74-1.323a.619.619,0,0,1-.031-.525,23.258,23.258,0,0,0,1.328-5.133.626.626,0,0,1,.34-.483l2.284-1.1,2.243-.2a7.588,7.588,0,0,0,8.933,3.381,1.261,1.261,0,0,0-.789-2.4Z" transform="translate(0 -200.289)"/><path class="a" d="M163.14,146.945a17.665,17.665,0,1,0,5.38,2.261,1.261,1.261,0,1,0-1.349,2.131,15.072,15.072,0,1,1-4.608-1.936,1.261,1.261,0,1,0,.577-2.455Z" transform="translate(-117.654 -118.466)"/><path class="a" d="M53.025,23.022a5.931,5.931,0,1,0-5.931-5.93A5.937,5.937,0,0,0,53.025,23.022Zm0-9.339a3.408,3.408,0,1,1-3.408,3.408A3.412,3.412,0,0,1,53.025,13.683Z" transform="translate(-39.179 -5.902)"/><path class="a" d="M53.275,386.653A4.345,4.345,0,1,0,57.621,391,4.35,4.35,0,0,0,53.275,386.653Zm0,6.169A1.823,1.823,0,1,1,55.1,391,1.825,1.825,0,0,1,53.275,392.822Z" transform="translate(-40.707 -318.258)"/><path class="a" d="M382.849,408.111a5.8,5.8,0,1,0,5.8,5.8A5.81,5.81,0,0,0,382.849,408.111Zm0,9.086a3.282,3.282,0,1,1,3.282-3.282A3.286,3.286,0,0,1,382.849,417.2Z" transform="translate(-313.652 -336.108)"/><path class="a" d="M194.818,197.408a5.5,5.5,0,1,0-5.5,5.5A5.5,5.5,0,0,0,194.818,197.408Zm-5.5,2.974a2.974,2.974,0,1,1,2.974-2.974A2.978,2.978,0,0,1,189.321,200.383Z" transform="translate(-152.92 -156.261)"/><path class="a" d="M216.234,286.481a4.144,4.144,0,1,0-4.144-4.144A4.149,4.149,0,0,0,216.234,286.481Zm0-5.765a1.622,1.622,0,1,1-1.622,1.622A1.624,1.624,0,0,1,216.234,280.715Z" transform="translate(-176.432 -228.035)"/><path class="a" d="M268.673,233.279a3.682,3.682,0,1,0,3.682-3.682A3.686,3.686,0,0,0,268.673,233.279Zm3.682-1.16a1.16,1.16,0,1,1-1.16,1.16A1.161,1.161,0,0,1,272.355,232.119Z" transform="translate(-223.501 -187.61)"/></g></svg>