<svg xmlns="http://www.w3.org/2000/svg" width="45.65" height="51.332" viewBox="0 0 45.65 51.332"><defs><style>.a{fill:#555081;stroke:#555081;}</style></defs><g transform="translate(-28.447 0.5)"><g transform="translate(28.952)"><path class="a" d="M73.56,47.755,71.334,34.719a3.71,3.71,0,0,0-2.6-2.944l-6.006-1.812a6.7,6.7,0,0,0-4.648-5.817c.19-.211.366-.421.528-.627a11.657,11.657,0,0,0,2.387-5.183h.463a2.188,2.188,0,0,0,2.185-2.185V15.03a2.2,2.2,0,0,0-1.133-1.911V10.425a.737.737,0,1,0-1.474,0v3.024a4.543,4.543,0,0,0-.98.284.74.74,0,0,0-.1.046c-.079.036-.158.074-.237.117V7.957A2.979,2.979,0,0,0,56.74,4.981H54.705a3.058,3.058,0,0,0-1.93.689l-.2.163a2.059,2.059,0,0,1-2.607,0l-.2-.163a3.058,3.058,0,0,0-1.93-.689H45.8a2.979,2.979,0,0,0-2.976,2.976V13.9c-.079-.043-.158-.081-.237-.117a.739.739,0,0,0-.1-.046,4.545,4.545,0,0,0-.98-.284V5.8a4.333,4.333,0,0,1,4.328-4.328H56.708A4.333,4.333,0,0,1,61.037,5.8V6.961a.737.737,0,1,0,1.474,0V5.8a5.809,5.809,0,0,0-5.8-5.8H45.836a5.809,5.809,0,0,0-5.8,5.8v7.317A2.2,2.2,0,0,0,38.9,15.03v1.12a2.188,2.188,0,0,0,2.185,2.185h.463a11.656,11.656,0,0,0,2.387,5.183c.162.205.338.416.528.626a6.723,6.723,0,0,0-4.648,5.818l-6.006,1.812a3.71,3.71,0,0,0-2.6,2.944l-.9,5.294a.737.737,0,0,0,1.453.248l.9-5.294a2.244,2.244,0,0,1,1.573-1.781l5.555-1.676v1.458a3.688,3.688,0,0,0-2.8,2.321,3.738,3.738,0,0,0-.219,1l-.537,6.891A1.873,1.873,0,0,0,38.1,45.2h.919a.737.737,0,1,0,0-1.474H38.1a.4.4,0,0,1-.4-.43l.537-6.891a2.263,2.263,0,0,1,.133-.606,2.229,2.229,0,0,1,2.086-1.42H40.6a2.208,2.208,0,0,1,2.058,1.32,2.261,2.261,0,0,1,.173.708l.537,6.891a.4.4,0,0,1-.4.43h-.919a.737.737,0,1,0,0,1.474h.919a1.874,1.874,0,0,0,1.868-2.019L44.3,36.29a3.733,3.733,0,0,0-.285-1.168,3.649,3.649,0,0,0-2.746-2.158v-1.9L43.8,30.3c.231.486.687,1.535,1.592,3.8.912,2.282,2.046,5.207,3.133,8.051a.746.746,0,0,0,.027.07c.725,1.9,1.429,3.758,2.031,5.362a.737.737,0,0,0,1.38,0c.6-1.6,1.306-3.463,2.031-5.362a.731.731,0,0,0,.027-.07c1.086-2.842,2.219-5.765,3.131-8.046.906-2.265,1.363-3.315,1.594-3.8l2.534.765v4.353a3.813,3.813,0,1,0,1.474,0V31.51l5.555,1.676a2.244,2.244,0,0,1,1.573,1.781L72.107,48a.732.732,0,0,1-.721.855H31.158A.732.732,0,0,1,30.437,48l.735-4.3a.737.737,0,0,0-1.453-.248l-.735,4.3a2.206,2.206,0,0,0,2.174,2.577H71.386a2.206,2.206,0,0,0,2.174-2.577Zm-12.515-32.8a3.163,3.163,0,0,1,.712-.1.753.753,0,0,0,.36-.086.7.7,0,0,1,.052.261v1.12a.712.712,0,0,1-.711.711h-.413ZM41.5,16.862h-.413a.712.712,0,0,1-.711-.711V15.03a.7.7,0,0,1,.052-.261.752.752,0,0,0,.36.085,3.286,3.286,0,0,1,.712.1Zm1.474.826V15.752a1.034,1.034,0,0,0,1.33-.991v-6.8a1.5,1.5,0,0,1,1.5-1.5h2.034a1.58,1.58,0,0,1,1,.356l.2.163a3.533,3.533,0,0,0,4.473,0l.2-.163a1.58,1.58,0,0,1,1-.356H56.74a1.5,1.5,0,0,1,1.5,1.5v6.8a1.034,1.034,0,0,0,1.33.992v1.936a9.533,9.533,0,0,1-2.123,4.919,9.717,9.717,0,0,1-1.767,1.75.738.738,0,0,0-.066.05,7.185,7.185,0,0,1-8.689,0,.747.747,0,0,0-.066-.049,9.725,9.725,0,0,1-1.767-1.75A9.533,9.533,0,0,1,42.972,17.688ZM56.1,29.6l-4.829,3.609L46.443,29.6a3.5,3.5,0,0,0,.747-2.087V26.321a8.656,8.656,0,0,0,8.163,0V27.51A3.5,3.5,0,0,0,56.1,29.6Zm-10.888-.823a2.015,2.015,0,0,0-1.243-.063l-.053.014-2.546.768a5.236,5.236,0,0,1,4.345-4.13V27.51A1.949,1.949,0,0,1,45.213,28.774Zm2,5.917,0-.01L47.1,34.4l-.02-.05-.106-.268-.007-.019q-.164-.412-.316-.79l-.022-.055-.086-.214-.031-.077-.082-.2-.024-.059-.143-.353-.038-.093-.054-.132-.057-.14L46.09,31.9l-.017-.04q-.128-.31-.243-.585l0,0-.119-.284-.059-.139,4.153,3.1-1.735.737-.009,0L47.335,35ZM48.972,39.2l-.439-1.137q-.345-.89-.659-1.7l.275-.117,1.124,1.306Zm2.314,5.99a.734.734,0,0,0-.075-.124c-.333-.88-.756-1.994-1.224-3.22l.688-3.768h1.193l.688,3.768C52.066,43.134,51.626,44.3,51.286,45.194Zm.859-8.585H50.4l-.826-.96,1.7-.722,1.7.722Zm1.866,1.457L53.572,39.2l-.3-1.644L54.4,36.253l.275.117Q54.355,37.177,54.011,38.066Zm2.823-7.083-.113.269-.015.036-.117.282-.008.02-.107.259-.02.048-.025.061-.049.12-.061.149-.02.049-.158.388-.025.062-.081.2-.032.08-.085.212-.024.06q-.15.373-.311.779l-.011.027-.106.266-.02.05-.111.281,0,.005L55.209,35l-.725-.308-.008,0-1.736-.738,4.153-3.1Zm1.792-2.258h0a2.014,2.014,0,0,0-1.293.049,1.949,1.949,0,0,1-.5-1.264V25.363a5.2,5.2,0,0,1,4.348,4.132Zm5.72,10.437a2.34,2.34,0,1,1-2.34-2.34A2.342,2.342,0,0,1,64.347,39.162Z" transform="translate(-28.952)"/></g></g></svg>