<svg xmlns="http://www.w3.org/2000/svg" width="44.087" height="51.295" viewBox="0 0 44.087 51.295"><defs><style>.a{fill:#4c8b73;stroke:#4c8b73;}</style></defs><g transform="translate(-36.231 0.502)"><g transform="translate(56.247 1.868)"><path class="a" d="M238.678,20.319h-.559V19.76a.734.734,0,0,0-1.469,0v.559h-.559a.734.734,0,0,0,0,1.469h.559v.559a.734.734,0,0,0,1.469,0v-.559h.559a.734.734,0,0,0,0-1.469Z" transform="translate(-235.357 -19.026)"/></g><g transform="translate(36.736 0)"><g transform="translate(0)"><path class="a" d="M79.782,47.782,77.636,35.217a3.6,3.6,0,0,0-2.523-2.857l-9.635-2.907a1.6,1.6,0,0,0-1.232.128,1.858,1.858,0,0,1-.592-1.309V25.866l.075-.064.117-.1h.944a4.693,4.693,0,0,0,4.683-4.989l-.261-4.132v-.062a2.215,2.215,0,0,0-.025-.332l-.293-4.627a.734.734,0,1,0-1.466.093l.173,2.738A2.207,2.207,0,0,0,67,14.3h-.041a1.328,1.328,0,0,0-.995-.591c-7.623-.686-9.818-2.963-11.421-4.625-.333-.345-.879-.372-1.624-.078a5.677,5.677,0,0,0-3.544,5.1s0,.008,0,.012v.19a2.2,2.2,0,0,0-.425.077l.227-3.578a6.17,6.17,0,0,1,2.608-4.68l.056.145a2.521,2.521,0,0,0,2.341,1.611h8.382A2.521,2.521,0,0,0,64.9,6.275l.013-.034a6.192,6.192,0,0,1,1.864,2.28A.734.734,0,0,0,68.1,7.887a7.654,7.654,0,0,0-2.647-3.063L65.963,3.5a1.826,1.826,0,0,0-1.342-2.442L60.406.205a10.171,10.171,0,0,0-4.072,0l-4.215.856A1.826,1.826,0,0,0,50.777,3.5l.467,1.22a7.628,7.628,0,0,0-3.535,5.994l-.348,5.5a2.207,2.207,0,0,0-.023.3v.062l-.261,4.132A4.693,4.693,0,0,0,51.76,25.7H52.7l.117.1.075.064v2.405A1.858,1.858,0,0,1,52.3,29.58a1.6,1.6,0,0,0-1.232-.128L41.436,32.36a3.6,3.6,0,0,0-2.523,2.857l-.806,4.72a.734.734,0,1,0,1.448.247l.806-4.72a2.14,2.14,0,0,1,1.5-1.7L51.5,30.859a.135.135,0,0,1,.16.068h0l4.6,9.088a2.261,2.261,0,0,0,4.038,0l4.6-9.088a.135.135,0,0,1,.16-.068l9.635,2.907a2.14,2.14,0,0,1,1.5,1.7l2.146,12.565a.681.681,0,0,1-.672.8H73.113l-1.2-7.027a.734.734,0,0,0-1.448.247l1.158,6.779h-26.7l1.158-6.779a.734.734,0,0,0-1.448-.247l-1.2,7.027h-4.55a.681.681,0,0,1-.672-.8l.747-4.374a.734.734,0,0,0-1.448-.247l-.747,4.374a2.15,2.15,0,0,0,2.12,2.512H77.663a2.15,2.15,0,0,0,2.119-2.512ZM52.17,2.679a.353.353,0,0,1,.242-.178l4.215-.856a8.718,8.718,0,0,1,3.487,0l4.215.856h0a.357.357,0,0,1,.262.478L63.53,5.75a1.044,1.044,0,0,1-.969.667H54.179a1.044,1.044,0,0,1-.969-.667L52.149,2.979A.353.353,0,0,1,52.17,2.679ZM68.006,20.8a3.226,3.226,0,0,1-2.718,3.39,8.169,8.169,0,0,0,1.824-3.828,2.193,2.193,0,0,0,.852-.221Zm-18.6,2.41a3.193,3.193,0,0,1-.867-2.41l.042-.66a2.2,2.2,0,0,0,.852.221,8.169,8.169,0,0,0,1.824,3.828A3.189,3.189,0,0,1,49.409,23.213ZM59.075,39.17l-.092.182a.837.837,0,0,1-.044.074c0,.008-.009.016-.014.023s-.02.025-.03.038a.786.786,0,0,1-.117.123l-.029.021a.8.8,0,0,1-1.184-.278l-3.05-6.026h7.517Zm3.7-7.313h-9l-.567-1.121a3.316,3.316,0,0,0,1.159-2.466V27a7.028,7.028,0,0,0,3.9,1.117h.016A7.029,7.029,0,0,0,62.185,27v1.267a3.315,3.315,0,0,0,1.159,2.466Zm-.006-7.169a6.128,6.128,0,0,1-8.991,0,7.528,7.528,0,0,1-2.935-5.071.734.734,0,0,0-.734-.719h-.559a.745.745,0,0,1-.744-.744V16.517a.742.742,0,0,1,.008-.1c0-.011,0-.022.005-.034a.744.744,0,0,1,.731-.609h.557a.734.734,0,0,0,.734-.734v-.911a4.2,4.2,0,0,1,2.83-3.828c2.154,2.2,4.8,4.195,12.046,4.865a.735.735,0,0,0,.723.608H67a.745.745,0,0,1,.731.609c0,.011,0,.023.005.034a.74.74,0,0,1,.008.1v1.638A.745.745,0,0,1,67,18.9h-.559a.734.734,0,0,0-.734.719A7.529,7.529,0,0,1,62.77,24.689Z" transform="translate(-36.736 0)"/></g></g></g></svg>