<svg xmlns="http://www.w3.org/2000/svg" width="84.009" height="80.247" viewBox="0 0 84.009 80.247"><defs><style>.a,.c,.g{fill:none;}.a,.c,.d,.e{stroke:#14b578;}.a{stroke-width:3px;}.b{fill:#fff;}.c{stroke-width:5px;}.d,.e{fill:#14b578;}.d{stroke-width:2px;}.f{stroke:none;}</style></defs><g transform="translate(-1305 -162.793)"><g class="a" transform="translate(1305 163)"><circle class="f" cx="39.5" cy="39.5" r="39.5"/><circle class="g" cx="39.5" cy="39.5" r="38"/></g><rect class="b" width="80.247" height="3.973" transform="matrix(-0.174, -0.985, 0.985, -0.174, 1349.964, 242.707)"/><rect class="b" width="43.699" height="28.603" transform="translate(1336.848 199.94) rotate(-45)"/><rect class="b" width="80.247" height="3.973" transform="translate(1346.151 162.793) rotate(90)"/><g class="c" transform="translate(1321 179)"><circle class="f" cx="24" cy="24" r="24"/><circle class="g" cx="24" cy="24" r="21.5"/></g><path class="d" d="M4.581-23.46v10.031H14.1v4.477H4.581V1.127H-.312V-8.952H-9.78v-4.477H-.312V-23.46Z" transform="translate(1342.763 213.066)"/><g transform="translate(1376.302 202.178) rotate(-90)"><g transform="translate(0 0)"><path class="e" d="M11.925,5.648.736.054A.509.509,0,0,0,.079.782L3.466,6.1.079,11.425a.509.509,0,0,0,.657.728L11.925,6.559a.509.509,0,0,0,0-.91Z"/></g></g></g></svg>