<svg xmlns="http://www.w3.org/2000/svg" width="14.043" height="14.043" viewBox="0 0 14.043 14.043"><defs><style>.a{fill:#ebf9f4;stroke:#ebf9f4;stroke-width:0.5px;}</style></defs><g transform="translate(0.25 0.25)"><g transform="translate(0)"><path class="a" d="M6.772,0a6.772,6.772,0,1,0,6.772,6.772A6.779,6.779,0,0,0,6.772,0Zm0,12.954a6.183,6.183,0,1,1,6.183-6.183A6.189,6.189,0,0,1,6.772,12.954Z" transform="translate(0)"/><path class="a" d="M97.766,128.883a.883.883,0,1,0-.883.883A.884.884,0,0,0,97.766,128.883Zm-1.178,0a.294.294,0,1,1,.294.294A.295.295,0,0,1,96.589,128.883Z" transform="translate(-92.467 -123.289)"/><path class="a" d="M224.883,128a.883.883,0,1,0,.883.883A.884.884,0,0,0,224.883,128Zm0,1.178a.294.294,0,1,1,.294-.294A.295.295,0,0,1,224.883,129.178Z" transform="translate(-215.756 -123.289)"/><path class="a" d="M106.947,224a3.852,3.852,0,0,0-2.869,1.276.294.294,0,1,0,.439.393,3.275,3.275,0,0,1,4.861,0,.294.294,0,0,0,.439-.393A3.852,3.852,0,0,0,106.947,224Z" transform="translate(-100.175 -215.756)"/></g></g></svg>