<svg xmlns="http://www.w3.org/2000/svg" width="14.061" height="14.061" viewBox="0 0 14.061 14.061"><defs><style>.a{fill:#e9eeff;stroke:#e9eeff;stroke-width:0.5px;}</style></defs><g transform="translate(0.25 0.25)"><g transform="translate(0 0)"><path class="a" d="M109.8,224.075a.3.3,0,0,0-.416.023,3.28,3.28,0,0,1-4.867,0,.295.295,0,1,0-.439.393,3.869,3.869,0,0,0,5.746,0A.3.3,0,0,0,109.8,224.075Z" transform="translate(-100.168 -215.745)"/><path class="a" d="M6.78,0a6.78,6.78,0,1,0,6.78,6.78A6.788,6.788,0,0,0,6.78,0Zm0,12.971A6.191,6.191,0,1,1,12.971,6.78,6.2,6.2,0,0,1,6.78,12.971Z" transform="translate(0 0)"/><path class="a" d="M209.474,128A1.476,1.476,0,0,0,208,129.474a.295.295,0,0,0,.59,0,.884.884,0,1,1,1.769,0,.295.295,0,0,0,.59,0A1.476,1.476,0,0,0,209.474,128Z" transform="translate(-200.335 -123.283)"/><path class="a" d="M82.358,129.474a.295.295,0,0,0,.59,0,1.474,1.474,0,1,0-2.948,0,.295.295,0,0,0,.59,0,.884.884,0,1,1,1.769,0Z" transform="translate(-77.052 -123.283)"/></g></g></svg>