<svg xmlns="http://www.w3.org/2000/svg" width="16.39" height="16.379" viewBox="0 0 16.39 16.379"><defs><style>.a{fill:#29409d;stroke:#29409d;stroke-width:0.5px;}</style></defs><g transform="translate(-0.74 -0.715)"><g transform="translate(1 1.018)"><g transform="translate(0 0)"><path class="a" d="M16.411,13.227l-3.2-2.136a.935.935,0,0,0-1.252.2l-.933,1.2a.4.4,0,0,1-.511.108l-.177-.1a10.727,10.727,0,0,1-2.8-2.2,10.77,10.77,0,0,1-2.2-2.8l-.1-.177a.4.4,0,0,1,.105-.513l1.2-.933a.935.935,0,0,0,.2-1.252l-2.136-3.2a.93.93,0,0,0-1.254-.282l-1.34.8a1.889,1.889,0,0,0-.862,1.118C.68,4.831,1.043,7.865,5.511,12.333c3.554,3.554,6.2,4.51,8.019,4.51a4.672,4.672,0,0,0,1.24-.162,1.888,1.888,0,0,0,1.118-.862l.805-1.339A.93.93,0,0,0,16.411,13.227Zm-.172.984-.8,1.34a1.363,1.363,0,0,1-.8.623c-1.622.445-4.457.076-8.747-4.213S1.226,4.836,1.671,3.213A1.365,1.365,0,0,1,2.3,2.408l1.34-.8a.4.4,0,0,1,.544.122l1.16,1.742L6.313,4.93a.406.406,0,0,1-.088.543l-1.2.933a.923.923,0,0,0-.244,1.185l.1.173A11.188,11.188,0,0,0,7.163,10.68a11.2,11.2,0,0,0,2.917,2.286l.173.1a.923.923,0,0,0,1.185-.244l.933-1.2a.406.406,0,0,1,.543-.088l3.2,2.136A.4.4,0,0,1,16.239,14.21Z" transform="translate(-1 -1.018)"/><path class="a" d="M282.892,69.851a4.488,4.488,0,0,1,4.483,4.483.264.264,0,1,0,.527,0,5.016,5.016,0,0,0-5.011-5.011.264.264,0,1,0,0,.527Z" transform="translate(-273.924 -67.213)"/><path class="a" d="M282.892,121.051a2.9,2.9,0,0,1,2.9,2.9.264.264,0,1,0,.527,0,3.432,3.432,0,0,0-3.428-3.429.264.264,0,1,0,0,.527Z" transform="translate(-273.924 -116.831)"/><path class="a" d="M282.892,172.251a1.32,1.32,0,0,1,1.319,1.319.264.264,0,1,0,.527,0,1.848,1.848,0,0,0-1.846-1.846.264.264,0,1,0,0,.527Z" transform="translate(-273.924 -166.448)"/></g></g></g></svg>